%TF.GenerationSoftware,KiCad,Pcbnew,(6.0.8)*%
%TF.CreationDate,2023-02-19T18:51:48-05:00*%
%TF.ProjectId,ESP32 Plotter,45535033-3220-4506-9c6f-747465722e6b,rev?*%
%TF.SameCoordinates,Original*%
%TF.FileFunction,Copper,L2,Bot*%
%TF.FilePolarity,Positive*%
%FSLAX46Y46*%
G04 Gerber Fmt 4.6, Leading zero omitted, Abs format (unit mm)*
G04 Created by KiCad (PCBNEW (6.0.8)) date 2023-02-19 18:51:48*
%MOMM*%
%LPD*%
G01*
G04 APERTURE LIST*
%TA.AperFunction,ComponentPad*%
%ADD10R,1.700000X1.700000*%
%TD*%
%TA.AperFunction,ComponentPad*%
%ADD11O,1.700000X1.700000*%
%TD*%
%TA.AperFunction,ComponentPad*%
%ADD12O,2.000000X1.500000*%
%TD*%
%TA.AperFunction,ComponentPad*%
%ADD13O,2.000000X1.905000*%
%TD*%
%TA.AperFunction,ComponentPad*%
%ADD14R,2.000000X1.905000*%
%TD*%
%TA.AperFunction,ComponentPad*%
%ADD15R,1.600000X1.600000*%
%TD*%
%TA.AperFunction,ComponentPad*%
%ADD16O,1.600000X1.600000*%
%TD*%
%TA.AperFunction,ViaPad*%
%ADD17C,2.000000*%
%TD*%
%TA.AperFunction,Conductor*%
%ADD18C,1.000000*%
%TD*%
G04 APERTURE END LIST*
D10*
%TO.P,J10,1,Pin_1*%
%TO.N,+12V*%
X160035000Y-110490000D03*
D11*
%TO.P,J10,2,Pin_2*%
%TO.N,GND*%
X162575000Y-110490000D03*
%TO.P,J10,3,Pin_3*%
%TO.N,unconnected-(J10-Pad3)*%
X165115000Y-110490000D03*
%TD*%
D12*
%TO.P,U1,5,VP*%
%TO.N,unconnected-(U1-Pad5)*%
X132082500Y-72390000D03*
%TO.P,U1,8,VN*%
%TO.N,unconnected-(U1-Pad8)*%
X132082500Y-74930000D03*
%TO.P,U1,9,EN*%
%TO.N,unconnected-(U1-Pad9)*%
X132082500Y-77470000D03*
%TO.P,U1,10,D34*%
%TO.N,/DirectionL*%
X132082500Y-80010000D03*
%TO.P,U1,11,D35*%
%TO.N,/StepL*%
X132082500Y-82550000D03*
%TO.P,U1,12,D32*%
%TO.N,/EnableL*%
X132082500Y-85090000D03*
%TO.P,U1,13,D33*%
%TO.N,/Servo*%
X132082500Y-87630000D03*
%TO.P,U1,14,D25*%
%TO.N,/DirectionR*%
X132082500Y-90170000D03*
%TO.P,U1,15,D26*%
%TO.N,/StepR*%
X132082500Y-92710000D03*
%TO.P,U1,16,D27*%
%TO.N,/EnableR*%
X132082500Y-95250000D03*
%TO.P,U1,17,D14*%
%TO.N,unconnected-(U1-Pad17)*%
X132082500Y-97790000D03*
%TO.P,U1,18,D12*%
%TO.N,unconnected-(U1-Pad18)*%
X132082500Y-100330000D03*
%TO.P,U1,19,GND*%
%TO.N,GND*%
X132082500Y-102870000D03*
%TO.P,U1,20,D13*%
%TO.N,unconnected-(U1-Pad20)*%
X154942500Y-102870000D03*
%TO.P,U1,21,D15*%
%TO.N,unconnected-(U1-Pad21)*%
X154942500Y-100330000D03*
%TO.P,U1,22,D2*%
%TO.N,unconnected-(U1-Pad22)*%
X154942500Y-97790000D03*
%TO.P,U1,23,D0*%
%TO.N,unconnected-(U1-Pad23)*%
X154942500Y-95250000D03*
%TO.P,U1,24,D4*%
%TO.N,unconnected-(U1-Pad24)*%
X154942500Y-92710000D03*
%TO.P,U1,25,RX2*%
%TO.N,unconnected-(U1-Pad25)*%
X154942500Y-90170000D03*
%TO.P,U1,27,TX2*%
%TO.N,unconnected-(U1-Pad27)*%
X154942500Y-87630000D03*
%TO.P,U1,34,D5*%
%TO.N,unconnected-(U1-Pad34)*%
X154942500Y-85090000D03*
%TO.P,U1,35,D18*%
%TO.N,/SCLOCK*%
X154942500Y-82550000D03*
%TO.P,U1,36,D23*%
%TO.N,/MOSI*%
X154942500Y-80010000D03*
%TO.P,U1,38,D19*%
%TO.N,/MISO*%
X154942500Y-77470000D03*
%TO.P,U1,39,D22*%
%TO.N,/CHIP SELECT*%
X154942500Y-74930000D03*
%TO.P,U1,40,3V3*%
%TO.N,/3V3*%
X154942500Y-72390000D03*
%TD*%
D10*
%TO.P,J12,1,Pin_1*%
%TO.N,GND*%
X158752500Y-102855000D03*
D11*
%TO.P,J12,2,Pin_2*%
%TO.N,+5V*%
X158752500Y-100315000D03*
%TD*%
%TO.P,J6,6,Pin_6*%
%TO.N,GND*%
X163832500Y-72390000D03*
%TO.P,J6,5,Pin_5*%
%TO.N,+5V*%
X163832500Y-74930000D03*
%TO.P,J6,4,Pin_4*%
%TO.N,/MISO*%
X163832500Y-77470000D03*
%TO.P,J6,3,Pin_3*%
%TO.N,/MOSI*%
X163832500Y-80010000D03*
%TO.P,J6,2,Pin_2*%
%TO.N,/SCLOCK*%
X163832500Y-82550000D03*
D10*
%TO.P,J6,1,Pin_1*%
%TO.N,/CHIP SELECT*%
X163832500Y-85090000D03*
%TD*%
D11*
%TO.P,J5,2,Pin_2*%
%TO.N,GND*%
X160022500Y-69850000D03*
D10*
%TO.P,J5,1,Pin_1*%
%TO.N,/3V3*%
X160022500Y-72390000D03*
%TD*%
D13*
%TO.P,U2,3,VO*%
%TO.N,+5V*%
X165100000Y-100330000D03*
%TO.P,U2,2,GND*%
%TO.N,GND*%
X165100000Y-102870000D03*
D14*
%TO.P,U2,1,VI*%
%TO.N,+12V*%
X165100000Y-105410000D03*
%TD*%
D11*
%TO.P,J11,3,Pin_3*%
%TO.N,unconnected-(J11-Pad3)*%
X168912500Y-100300000D03*
%TO.P,J11,2,Pin_2*%
%TO.N,GND*%
X168912500Y-102840000D03*
D10*
%TO.P,J11,1,Pin_1*%
%TO.N,+12V*%
X168912500Y-105380000D03*
%TD*%
%TO.P,J9,1,Pin_1*%
%TO.N,Net-(A2-Pad3)*%
X110492500Y-96515000D03*
D11*
%TO.P,J9,2,Pin_2*%
%TO.N,Net-(A2-Pad4)*%
X110492500Y-99055000D03*
%TO.P,J9,3,Pin_3*%
%TO.N,Net-(A2-Pad5)*%
X110492500Y-101595000D03*
%TO.P,J9,4,Pin_4*%
%TO.N,Net-(A2-Pad6)*%
X110492500Y-104135000D03*
%TD*%
D10*
%TO.P,J8,1,Pin_1*%
%TO.N,Net-(A2-Pad12)*%
X121922500Y-101585000D03*
D11*
%TO.P,J8,2,Pin_2*%
%TO.N,Net-(A2-Pad11)*%
X121922500Y-104125000D03*
%TO.P,J8,3,Pin_3*%
%TO.N,Net-(A2-Pad10)*%
X121922500Y-106665000D03*
%TD*%
D10*
%TO.P,J7,1,Pin_1*%
%TO.N,+5V*%
X119382500Y-77470000D03*
D11*
%TO.P,J7,2,Pin_2*%
X119382500Y-80010000D03*
%TO.P,J7,3,Pin_3*%
X119382500Y-82550000D03*
%TD*%
D10*
%TO.P,J4,1,Pin_1*%
%TO.N,Net-(A1-Pad3)*%
X110492500Y-72385000D03*
D11*
%TO.P,J4,2,Pin_2*%
%TO.N,Net-(A1-Pad4)*%
X110492500Y-74925000D03*
%TO.P,J4,3,Pin_3*%
%TO.N,Net-(A1-Pad5)*%
X110492500Y-77465000D03*
%TO.P,J4,4,Pin_4*%
%TO.N,Net-(A1-Pad6)*%
X110492500Y-80005000D03*
%TD*%
D10*
%TO.P,J3,1,Pin_1*%
%TO.N,Net-(A1-Pad12)*%
X121922500Y-77470000D03*
D11*
%TO.P,J3,2,Pin_2*%
%TO.N,Net-(A1-Pad11)*%
X121922500Y-80010000D03*
%TO.P,J3,3,Pin_3*%
%TO.N,Net-(A1-Pad10)*%
X121922500Y-82550000D03*
%TD*%
D10*
%TO.P,J2,1,Pin_1*%
%TO.N,+5V*%
X119382500Y-101585000D03*
D11*
%TO.P,J2,2,Pin_2*%
X119382500Y-104125000D03*
%TO.P,J2,3,Pin_3*%
X119382500Y-106665000D03*
%TD*%
D10*
%TO.P,J1,1,Pin_1*%
%TO.N,GND*%
X107952500Y-85075000D03*
D11*
%TO.P,J1,2,Pin_2*%
%TO.N,+5V*%
X107952500Y-87615000D03*
%TO.P,J1,3,Pin_3*%
%TO.N,/Servo*%
X107952500Y-90155000D03*
%TD*%
D15*
%TO.P,A2,1,GND*%
%TO.N,GND*%
X114312500Y-91425000D03*
D16*
%TO.P,A2,2,VDD*%
%TO.N,+5V*%
X114312500Y-93965000D03*
%TO.P,A2,3,1B*%
%TO.N,Net-(A2-Pad3)*%
X114312500Y-96505000D03*
%TO.P,A2,4,1A*%
%TO.N,Net-(A2-Pad4)*%
X114312500Y-99045000D03*
%TO.P,A2,5,2A*%
%TO.N,Net-(A2-Pad5)*%
X114312500Y-101585000D03*
%TO.P,A2,6,2B*%
%TO.N,Net-(A2-Pad6)*%
X114312500Y-104125000D03*
%TO.P,A2,7,GND*%
%TO.N,GND*%
X114312500Y-106665000D03*
%TO.P,A2,8,VMOT*%
%TO.N,+12V*%
X114312500Y-109205000D03*
%TO.P,A2,9,~{ENABLE}*%
%TO.N,/EnableR*%
X127012500Y-109205000D03*
%TO.P,A2,10,MS1*%
%TO.N,Net-(A2-Pad10)*%
X127012500Y-106665000D03*
%TO.P,A2,11,MS2*%
%TO.N,Net-(A2-Pad11)*%
X127012500Y-104125000D03*
%TO.P,A2,12,MS3*%
%TO.N,Net-(A2-Pad12)*%
X127012500Y-101585000D03*
%TO.P,A2,13,~{RESET}*%
%TO.N,Net-(A2-Pad13)*%
X127012500Y-99045000D03*
%TO.P,A2,14,~{SLEEP}*%
X127012500Y-96505000D03*
%TO.P,A2,15,STEP*%
%TO.N,/StepR*%
X127012500Y-93965000D03*
%TO.P,A2,16,DIR*%
%TO.N,/DirectionR*%
X127012500Y-91425000D03*
%TD*%
D15*
%TO.P,A1,1,GND*%
%TO.N,GND*%
X114312500Y-67295000D03*
D16*
%TO.P,A1,2,VDD*%
%TO.N,+5V*%
X114312500Y-69835000D03*
%TO.P,A1,3,1B*%
%TO.N,Net-(A1-Pad3)*%
X114312500Y-72375000D03*
%TO.P,A1,4,1A*%
%TO.N,Net-(A1-Pad4)*%
X114312500Y-74915000D03*
%TO.P,A1,5,2A*%
%TO.N,Net-(A1-Pad5)*%
X114312500Y-77455000D03*
%TO.P,A1,6,2B*%
%TO.N,Net-(A1-Pad6)*%
X114312500Y-79995000D03*
%TO.P,A1,7,GND*%
%TO.N,GND*%
X114312500Y-82535000D03*
%TO.P,A1,8,VMOT*%
%TO.N,+12V*%
X114312500Y-85075000D03*
%TO.P,A1,9,~{ENABLE}*%
%TO.N,/EnableL*%
X127012500Y-85075000D03*
%TO.P,A1,10,MS1*%
%TO.N,Net-(A1-Pad10)*%
X127012500Y-82535000D03*
%TO.P,A1,11,MS2*%
%TO.N,Net-(A1-Pad11)*%
X127012500Y-79995000D03*
%TO.P,A1,12,MS3*%
%TO.N,Net-(A1-Pad12)*%
X127012500Y-77455000D03*
%TO.P,A1,13,~{RESET}*%
%TO.N,Net-(A1-Pad13)*%
X127012500Y-74915000D03*
%TO.P,A1,14,~{SLEEP}*%
X127012500Y-72375000D03*
%TO.P,A1,15,STEP*%
%TO.N,/StepL*%
X127012500Y-69835000D03*
%TO.P,A1,16,DIR*%
%TO.N,/DirectionL*%
X127012500Y-67295000D03*
%TD*%
D17*
%TO.N,GND*%
X162560000Y-107950000D03*
X162575000Y-102855000D03*
X111760000Y-67310000D03*
X107950000Y-72390000D03*
X135890000Y-67310000D03*
%TO.N,+12V*%
X105412500Y-96505000D03*
X111762500Y-85075000D03*
%TO.N,GND*%
X116842500Y-91425000D03*
X116842500Y-85075000D03*
X116842500Y-67295000D03*
%TO.N,/CHIP SELECT*%
X160022500Y-85090000D03*
X160022500Y-74945000D03*
%TD*%
D18*
%TO.N,GND*%
X162575000Y-102855000D02*
X160022500Y-102855000D01*
X162575000Y-107965000D02*
X162560000Y-107950000D01*
X162575000Y-110490000D02*
X162575000Y-107965000D01*
%TO.N,+12V*%
X160005000Y-109205000D02*
X160035000Y-109205000D01*
X158735000Y-110475000D02*
X160005000Y-109205000D01*
X158735000Y-110475000D02*
X129542500Y-110475000D01*
X160035000Y-106695000D02*
X160035000Y-109205000D01*
X160035000Y-110475000D02*
X158735000Y-110475000D01*
X160035000Y-109205000D02*
X160035000Y-110490000D01*
X160020000Y-106680000D02*
X160035000Y-106695000D01*
X165100000Y-105410000D02*
X161290000Y-105410000D01*
X161290000Y-105410000D02*
X160020000Y-106680000D01*
%TO.N,GND*%
X111775000Y-67295000D02*
X111760000Y-67310000D01*
X114312500Y-67295000D02*
X111775000Y-67295000D01*
X148575000Y-72375000D02*
X143510000Y-67310000D01*
X143510000Y-67310000D02*
X135890000Y-67310000D01*
X148605000Y-72375000D02*
X148575000Y-72375000D01*
X147365000Y-107935000D02*
X147335000Y-107935000D01*
X148605000Y-106695000D02*
X147365000Y-107935000D01*
X147335000Y-107935000D02*
X137175000Y-107935000D01*
X148605000Y-107935000D02*
X147335000Y-107935000D01*
X148605000Y-106695000D02*
X148605000Y-107935000D01*
X149845000Y-107935000D02*
X148605000Y-106695000D01*
X149845000Y-107935000D02*
X148605000Y-107935000D01*
X156212500Y-107935000D02*
X149845000Y-107935000D01*
X148605000Y-72375000D02*
X148605000Y-106695000D01*
X151130000Y-69850000D02*
X148605000Y-72375000D01*
X160022500Y-69850000D02*
X151130000Y-69850000D01*
X132082500Y-102872500D02*
X132082500Y-102870000D01*
X137160000Y-107950000D02*
X132082500Y-102872500D01*
X137175000Y-107935000D02*
X137160000Y-107950000D01*
X158752500Y-105395000D02*
X158752500Y-104125000D01*
X156212500Y-107935000D02*
X158752500Y-105395000D01*
%TO.N,/EnableR*%
X130810000Y-95250000D02*
X132082500Y-95250000D01*
X129540000Y-96520000D02*
X130810000Y-95250000D01*
X129542500Y-96522500D02*
X129540000Y-96520000D01*
X129542500Y-107935000D02*
X129542500Y-96522500D01*
%TO.N,/StepR*%
X129540000Y-92710000D02*
X132082500Y-92710000D01*
X128285000Y-93965000D02*
X129540000Y-92710000D01*
X127012500Y-93965000D02*
X128285000Y-93965000D01*
%TO.N,/DirectionR*%
X128267500Y-90170000D02*
X132082500Y-90170000D01*
X127012500Y-91425000D02*
X128267500Y-90170000D01*
%TO.N,/Servo*%
X109235000Y-90155000D02*
X111760000Y-87630000D01*
X107952500Y-90155000D02*
X109235000Y-90155000D01*
X111760000Y-87630000D02*
X132082500Y-87630000D01*
%TO.N,/EnableL*%
X132067500Y-85075000D02*
X132082500Y-85090000D01*
X127012500Y-85075000D02*
X132067500Y-85075000D01*
%TO.N,/StepL*%
X129540000Y-71107500D02*
X129542500Y-71105000D01*
X129540000Y-81280000D02*
X129540000Y-71107500D01*
X130810000Y-82550000D02*
X129540000Y-81280000D01*
X132082500Y-82550000D02*
X130810000Y-82550000D01*
%TO.N,/DirectionL*%
X133350000Y-80010000D02*
X132082500Y-80010000D01*
X134620000Y-71120000D02*
X134620000Y-78740000D01*
X134620000Y-78740000D02*
X133350000Y-80010000D01*
X130795000Y-67295000D02*
X134620000Y-71120000D01*
X127012500Y-67295000D02*
X130795000Y-67295000D01*
%TO.N,+5V*%
X166372500Y-73660000D02*
X166372500Y-67295000D01*
X165100000Y-88915000D02*
X165100000Y-100330000D01*
%TO.N,+12V*%
X116842500Y-111735000D02*
X114312500Y-109205000D01*
X116842500Y-111745000D02*
X116842500Y-111735000D01*
X129542500Y-110475000D02*
X128272500Y-111745000D01*
X128272500Y-111745000D02*
X116842500Y-111745000D01*
X165130000Y-105380000D02*
X165100000Y-105410000D01*
X168912500Y-105380000D02*
X165130000Y-105380000D01*
%TO.N,+5V*%
X165100000Y-100330000D02*
X165100000Y-99060000D01*
X163845000Y-100315000D02*
X165085000Y-100315000D01*
X163845000Y-100315000D02*
X165100000Y-99060000D01*
X158752500Y-100315000D02*
X163845000Y-100315000D01*
X166372500Y-87642500D02*
X166372500Y-76200000D01*
X165100000Y-88915000D02*
X166372500Y-87642500D01*
X165085000Y-100315000D02*
X165100000Y-100330000D01*
%TO.N,/CHIP SELECT*%
X160007500Y-74930000D02*
X160022500Y-74945000D01*
X154942500Y-74930000D02*
X160007500Y-74930000D01*
%TO.N,GND*%
X158752500Y-104125000D02*
X160022500Y-102855000D01*
X160022500Y-102855000D02*
X158752500Y-102855000D01*
X163507500Y-102855000D02*
X162575000Y-102855000D01*
X158752500Y-104125000D02*
X158752500Y-102855000D01*
%TO.N,Net-(A2-Pad12)*%
X121922500Y-101585000D02*
X127012500Y-101585000D01*
%TO.N,Net-(A2-Pad11)*%
X127012500Y-104125000D02*
X121922500Y-104125000D01*
%TO.N,Net-(A2-Pad10)*%
X121922500Y-106665000D02*
X127012500Y-106665000D01*
%TO.N,Net-(A1-Pad10)*%
X126997500Y-82550000D02*
X127012500Y-82535000D01*
X121922500Y-82550000D02*
X126997500Y-82550000D01*
%TO.N,Net-(A1-Pad11)*%
X126997500Y-80010000D02*
X127012500Y-79995000D01*
X121922500Y-80010000D02*
X126997500Y-80010000D01*
%TO.N,Net-(A1-Pad12)*%
X126997500Y-77470000D02*
X127012500Y-77455000D01*
X121922500Y-77470000D02*
X126997500Y-77470000D01*
%TO.N,+12V*%
X105412500Y-106665000D02*
X105412500Y-96505000D01*
X107952500Y-109205000D02*
X105412500Y-106665000D01*
X114312500Y-109205000D02*
X107952500Y-109205000D01*
X114312500Y-85075000D02*
X111762500Y-85075000D01*
%TO.N,GND*%
X114312500Y-91425000D02*
X116842500Y-91425000D01*
X114312500Y-82545000D02*
X116842500Y-85075000D01*
X114312500Y-82535000D02*
X114312500Y-82545000D01*
X114312500Y-67295000D02*
X116842500Y-67295000D01*
%TO.N,+5V*%
X107952500Y-87615000D02*
X105412500Y-87615000D01*
X105412500Y-87615000D02*
X105412500Y-86345000D01*
X105412500Y-88885000D02*
X105412500Y-87615000D01*
X106682500Y-69835000D02*
X114312500Y-69835000D01*
X105412500Y-71105000D02*
X106682500Y-69835000D01*
X105412500Y-86345000D02*
X105412500Y-71105000D01*
X106682500Y-87615000D02*
X105412500Y-86345000D01*
X106682500Y-87615000D02*
X107952500Y-87615000D01*
X105412500Y-88885000D02*
X106682500Y-87615000D01*
X105412500Y-92695000D02*
X105412500Y-88885000D01*
X106682500Y-93965000D02*
X105412500Y-92695000D01*
X114312500Y-93965000D02*
X106682500Y-93965000D01*
X166372500Y-74930000D02*
X166372500Y-73660000D01*
X165102500Y-74930000D02*
X166372500Y-73660000D01*
X166372500Y-76200000D02*
X166372500Y-74930000D01*
X119382500Y-72375000D02*
X119382500Y-73645000D01*
X119382500Y-66025000D02*
X119382500Y-72375000D01*
X118112500Y-72375000D02*
X119382500Y-73645000D01*
X118112500Y-72375000D02*
X119382500Y-72375000D01*
X115572500Y-69835000D02*
X118112500Y-72375000D01*
X163832500Y-64755000D02*
X120652500Y-64755000D01*
X166372500Y-67295000D02*
X163832500Y-64755000D01*
X120652500Y-64755000D02*
X119382500Y-66025000D01*
X163832500Y-74930000D02*
X166372500Y-74930000D01*
X165102500Y-74930000D02*
X166372500Y-76200000D01*
X163832500Y-74930000D02*
X165102500Y-74930000D01*
%TO.N,GND*%
X163522500Y-102840000D02*
X163507500Y-102855000D01*
X168912500Y-102840000D02*
X163522500Y-102840000D01*
%TO.N,Net-(A2-Pad3)*%
X114302500Y-96515000D02*
X114312500Y-96505000D01*
X110492500Y-96515000D02*
X114302500Y-96515000D01*
%TO.N,Net-(A2-Pad4)*%
X110502500Y-99045000D02*
X110492500Y-99055000D01*
X114312500Y-99045000D02*
X110502500Y-99045000D01*
%TO.N,Net-(A2-Pad5)*%
X114302500Y-101595000D02*
X114312500Y-101585000D01*
X110492500Y-101595000D02*
X114302500Y-101595000D01*
%TO.N,Net-(A2-Pad6)*%
X110502500Y-104125000D02*
X110492500Y-104135000D01*
X114312500Y-104125000D02*
X110502500Y-104125000D01*
%TO.N,GND*%
X109222500Y-82535000D02*
X114312500Y-82535000D01*
X107952500Y-83805000D02*
X109222500Y-82535000D01*
X107952500Y-85075000D02*
X107952500Y-83805000D01*
%TO.N,Net-(A1-Pad6)*%
X110492500Y-80005000D02*
X114302500Y-80005000D01*
X114302500Y-80005000D02*
X114312500Y-79995000D01*
%TO.N,Net-(A1-Pad5)*%
X114302500Y-77465000D02*
X114312500Y-77455000D01*
X110492500Y-77465000D02*
X114302500Y-77465000D01*
%TO.N,Net-(A1-Pad4)*%
X114302500Y-74925000D02*
X114312500Y-74915000D01*
X110492500Y-74925000D02*
X114302500Y-74925000D01*
%TO.N,Net-(A1-Pad3)*%
X114302500Y-72385000D02*
X114312500Y-72375000D01*
X110492500Y-72385000D02*
X114302500Y-72385000D01*
%TO.N,/EnableR*%
X128272500Y-109205000D02*
X129542500Y-107935000D01*
X127012500Y-109205000D02*
X128272500Y-109205000D01*
%TO.N,/StepL*%
X128272500Y-69835000D02*
X127012500Y-69835000D01*
X129542500Y-71105000D02*
X128272500Y-69835000D01*
%TO.N,+5V*%
X119382500Y-97775000D02*
X119382500Y-106665000D01*
X115572500Y-93965000D02*
X119382500Y-97775000D01*
X114312500Y-93965000D02*
X115572500Y-93965000D01*
X119382500Y-73645000D02*
X119382500Y-82550000D01*
X114312500Y-69835000D02*
X115572500Y-69835000D01*
%TO.N,Net-(A1-Pad13)*%
X127012500Y-74915000D02*
X127012500Y-72375000D01*
%TO.N,Net-(A2-Pad13)*%
X127012500Y-99045000D02*
X127012500Y-96505000D01*
%TO.N,GND*%
X163832500Y-71120000D02*
X163832500Y-72390000D01*
X162562500Y-69850000D02*
X163832500Y-71120000D01*
X160022500Y-69850000D02*
X162562500Y-69850000D01*
%TO.N,/3V3*%
X154942500Y-72390000D02*
X160022500Y-72390000D01*
%TO.N,/CHIP SELECT*%
X163832500Y-85090000D02*
X160022500Y-85090000D01*
%TO.N,/MISO*%
X154942500Y-77470000D02*
X163832500Y-77470000D01*
%TO.N,/MOSI*%
X154942500Y-80010000D02*
X163832500Y-80010000D01*
%TO.N,/SCLOCK*%
X154942500Y-82550000D02*
X163832500Y-82550000D01*
%TD*%
%TA.AperFunction,Conductor*%
%TO.N,GND*%
G36*
X104045096Y-64015235D02*
G01*
X104048436Y-64013150D01*
X104082349Y-64008500D01*
X119668575Y-64008500D01*
X119736696Y-64028502D01*
X119783189Y-64082158D01*
X119793293Y-64152432D01*
X119763799Y-64217012D01*
X119757670Y-64223595D01*
X118713121Y-65268145D01*
X118702978Y-65277247D01*
X118673475Y-65300968D01*
X118669508Y-65305696D01*
X118641209Y-65339421D01*
X118638028Y-65343069D01*
X118636385Y-65344881D01*
X118634191Y-65347075D01*
X118606858Y-65380349D01*
X118606196Y-65381147D01*
X118546346Y-65452474D01*
X118543778Y-65457144D01*
X118540397Y-65461261D01*
X118533518Y-65474091D01*
X118496523Y-65543086D01*
X118495894Y-65544245D01*
X118454038Y-65620381D01*
X118454035Y-65620389D01*
X118451067Y-65625787D01*
X118449455Y-65630869D01*
X118446938Y-65635563D01*
X118419738Y-65724531D01*
X118419418Y-65725559D01*
X118391265Y-65814306D01*
X118390671Y-65819602D01*
X118389113Y-65824698D01*
X118387848Y-65837158D01*
X118379718Y-65917187D01*
X118379589Y-65918393D01*
X118374000Y-65968227D01*
X118374000Y-65971754D01*
X118373945Y-65972739D01*
X118373498Y-65978419D01*
X118369126Y-66021462D01*
X118372837Y-66060716D01*
X118373441Y-66067109D01*
X118374000Y-66078967D01*
X118374000Y-70906076D01*
X118353998Y-70974197D01*
X118300342Y-71020690D01*
X118230068Y-71030794D01*
X118165488Y-71001300D01*
X118158905Y-70995171D01*
X116329355Y-69165621D01*
X116320253Y-69155478D01*
X116300397Y-69130782D01*
X116296532Y-69125975D01*
X116258078Y-69093708D01*
X116254431Y-69090528D01*
X116252619Y-69088885D01*
X116250425Y-69086691D01*
X116217151Y-69059358D01*
X116216353Y-69058696D01*
X116145026Y-68998846D01*
X116140356Y-68996278D01*
X116136239Y-68992897D01*
X116054414Y-68949023D01*
X116053255Y-68948394D01*
X115977119Y-68906538D01*
X115977111Y-68906535D01*
X115971713Y-68903567D01*
X115966631Y-68901955D01*
X115961937Y-68899438D01*
X115872969Y-68872238D01*
X115871941Y-68871918D01*
X115783194Y-68843765D01*
X115777898Y-68843171D01*
X115772802Y-68841613D01*
X115680243Y-68832210D01*
X115679107Y-68832089D01*
X115641800Y-68827905D01*
X115632770Y-68826892D01*
X115632766Y-68826892D01*
X115629273Y-68826500D01*
X115625746Y-68826500D01*
X115624761Y-68826445D01*
X115619081Y-68825998D01*
X115589675Y-68823011D01*
X115582163Y-68822248D01*
X115582161Y-68822248D01*
X115576038Y-68821626D01*
X115533759Y-68825623D01*
X115530391Y-68825941D01*
X115518533Y-68826500D01*
X115303572Y-68826500D01*
X115235451Y-68806498D01*
X115188958Y-68752842D01*
X115178854Y-68682568D01*
X115208348Y-68617988D01*
X115259342Y-68582518D01*
X115350554Y-68548324D01*
X115366149Y-68539786D01*
X115468224Y-68463285D01*
X115480785Y-68450724D01*
X115557286Y-68348649D01*
X115565824Y-68333054D01*
X115610978Y-68212606D01*
X115614605Y-68197351D01*
X115620131Y-68146486D01*
X115620500Y-68139672D01*
X115620500Y-67567115D01*
X115616025Y-67551876D01*
X115614635Y-67550671D01*
X115606952Y-67549000D01*
X113022616Y-67549000D01*
X113007377Y-67553475D01*
X113006172Y-67554865D01*
X113004501Y-67562548D01*
X113004501Y-68139669D01*
X113004871Y-68146490D01*
X113010395Y-68197352D01*
X113014021Y-68212604D01*
X113059176Y-68333054D01*
X113067714Y-68348649D01*
X113144215Y-68450724D01*
X113156776Y-68463285D01*
X113258851Y-68539786D01*
X113274446Y-68548324D01*
X113365658Y-68582518D01*
X113422422Y-68625160D01*
X113447122Y-68691721D01*
X113431915Y-68761070D01*
X113381629Y-68811188D01*
X113321428Y-68826500D01*
X106744342Y-68826500D01*
X106730735Y-68825763D01*
X106699237Y-68822341D01*
X106699232Y-68822341D01*
X106693111Y-68821676D01*
X106675111Y-68823251D01*
X106643109Y-68826050D01*
X106638284Y-68826379D01*
X106635813Y-68826500D01*
X106632731Y-68826500D01*
X106610263Y-68828703D01*
X106589989Y-68830691D01*
X106588674Y-68830813D01*
X106556413Y-68833636D01*
X106496087Y-68838913D01*
X106490968Y-68840400D01*
X106485667Y-68840920D01*
X106479762Y-68842703D01*
X106479761Y-68842703D01*
X106460407Y-68848546D01*
X106396694Y-68867782D01*
X106395554Y-68868120D01*
X106306163Y-68894091D01*
X106301429Y-68896545D01*
X106296331Y-68898084D01*
X106290887Y-68900978D01*
X106290886Y-68900979D01*
X106214331Y-68941684D01*
X106213163Y-68942298D01*
X106130574Y-68985108D01*
X106126411Y-68988431D01*
X106121704Y-68990934D01*
X106049582Y-69049755D01*
X106048726Y-69050446D01*
X106009527Y-69081738D01*
X106007023Y-69084242D01*
X106006305Y-69084884D01*
X106001972Y-69088585D01*
X105968438Y-69115935D01*
X105964511Y-69120682D01*
X105964509Y-69120684D01*
X105939213Y-69151262D01*
X105931223Y-69160042D01*
X104743121Y-70348145D01*
X104732978Y-70357247D01*
X104703475Y-70380968D01*
X104682523Y-70405938D01*
X104671209Y-70419421D01*
X104668028Y-70423069D01*
X104666385Y-70424881D01*
X104664191Y-70427075D01*
X104636858Y-70460349D01*
X104636196Y-70461147D01*
X104576346Y-70532474D01*
X104573778Y-70537144D01*
X104570397Y-70541261D01*
X104555338Y-70569346D01*
X104526523Y-70623086D01*
X104525894Y-70624245D01*
X104484038Y-70700381D01*
X104484035Y-70700389D01*
X104481067Y-70705787D01*
X104479455Y-70710869D01*
X104476938Y-70715563D01*
X104449738Y-70804531D01*
X104449418Y-70805559D01*
X104421265Y-70894306D01*
X104420671Y-70899602D01*
X104419113Y-70904698D01*
X104409923Y-70995171D01*
X104409718Y-70997187D01*
X104409589Y-70998393D01*
X104404000Y-71048227D01*
X104404000Y-71051754D01*
X104403945Y-71052739D01*
X104403498Y-71058419D01*
X104399126Y-71101462D01*
X104401989Y-71131749D01*
X104403441Y-71147109D01*
X104404000Y-71158967D01*
X104404000Y-86283157D01*
X104403263Y-86296764D01*
X104401372Y-86314176D01*
X104399176Y-86334388D01*
X104399713Y-86340523D01*
X104403521Y-86384053D01*
X104404000Y-86395034D01*
X104404000Y-87555127D01*
X104403310Y-87568297D01*
X104399145Y-87607925D01*
X104402613Y-87646037D01*
X104403481Y-87655570D01*
X104404000Y-87666990D01*
X104404000Y-88827096D01*
X104403355Y-88839829D01*
X104399923Y-88873617D01*
X104399126Y-88881462D01*
X104403123Y-88923741D01*
X104403441Y-88927109D01*
X104404000Y-88938967D01*
X104404000Y-92633157D01*
X104403263Y-92646764D01*
X104400581Y-92671457D01*
X104399176Y-92684388D01*
X104400192Y-92695999D01*
X104403550Y-92734388D01*
X104403879Y-92739214D01*
X104404000Y-92741686D01*
X104404000Y-92744769D01*
X104405174Y-92756738D01*
X104408190Y-92787506D01*
X104408312Y-92788819D01*
X104416413Y-92881413D01*
X104417900Y-92886532D01*
X104418420Y-92891833D01*
X104445291Y-92980834D01*
X104445626Y-92981967D01*
X104460618Y-93033567D01*
X104471591Y-93071336D01*
X104474044Y-93076068D01*
X104475584Y-93081169D01*
X104478478Y-93086612D01*
X104519231Y-93163260D01*
X104519843Y-93164426D01*
X104546935Y-93216691D01*
X104562608Y-93246926D01*
X104565931Y-93251089D01*
X104568434Y-93255796D01*
X104572330Y-93260573D01*
X104576893Y-93266168D01*
X104627255Y-93327918D01*
X104627946Y-93328774D01*
X104659238Y-93367973D01*
X104661742Y-93370477D01*
X104662384Y-93371195D01*
X104666085Y-93375528D01*
X104693435Y-93409062D01*
X104698182Y-93412989D01*
X104698184Y-93412991D01*
X104728762Y-93438287D01*
X104737542Y-93446277D01*
X105331610Y-94040344D01*
X105925645Y-94634379D01*
X105934747Y-94644522D01*
X105958468Y-94674025D01*
X105996956Y-94706320D01*
X106000575Y-94709478D01*
X106002390Y-94711124D01*
X106004575Y-94713309D01*
X106006955Y-94715264D01*
X106006965Y-94715273D01*
X106037736Y-94740549D01*
X106038751Y-94741391D01*
X106048893Y-94749901D01*
X106109974Y-94801154D01*
X106114648Y-94803723D01*
X106118761Y-94807102D01*
X106124198Y-94810017D01*
X106124199Y-94810018D01*
X106200547Y-94850955D01*
X106201677Y-94851568D01*
X106283287Y-94896433D01*
X106288369Y-94898045D01*
X106293063Y-94900562D01*
X106382031Y-94927762D01*
X106383059Y-94928082D01*
X106471806Y-94956235D01*
X106477102Y-94956829D01*
X106482198Y-94958387D01*
X106574757Y-94967790D01*
X106575893Y-94967911D01*
X106609508Y-94971681D01*
X106622230Y-94973108D01*
X106622234Y-94973108D01*
X106625727Y-94973500D01*
X106629254Y-94973500D01*
X106630239Y-94973555D01*
X106635919Y-94974002D01*
X106665325Y-94976989D01*
X106672837Y-94977752D01*
X106672839Y-94977752D01*
X106678962Y-94978374D01*
X106724608Y-94974059D01*
X106736467Y-94973500D01*
X109345908Y-94973500D01*
X109414029Y-94993502D01*
X109460522Y-95047158D01*
X109470626Y-95117432D01*
X109441132Y-95182012D01*
X109406418Y-95210019D01*
X109404196Y-95211236D01*
X109395795Y-95214385D01*
X109279239Y-95301739D01*
X109191885Y-95418295D01*
X109140755Y-95554684D01*
X109134000Y-95616866D01*
X109134000Y-97413134D01*
X109140755Y-97475316D01*
X109191885Y-97611705D01*
X109279239Y-97728261D01*
X109395795Y-97815615D01*
X109404204Y-97818767D01*
X109404205Y-97818768D01*
X109512951Y-97859535D01*
X109569716Y-97902176D01*
X109594416Y-97968738D01*
X109579209Y-98038087D01*
X109559816Y-98064568D01*
X109437338Y-98192734D01*
X109433129Y-98197138D01*
X109307243Y-98381680D01*
X109269922Y-98462081D01*
X109225142Y-98558553D01*
X109213188Y-98584305D01*
X109153489Y-98799570D01*
X109129751Y-99021695D01*
X109130048Y-99026848D01*
X109130048Y-99026851D01*
X109137991Y-99164612D01*
X109142610Y-99244715D01*
X109143747Y-99249761D01*
X109143748Y-99249767D01*
X109161219Y-99327288D01*
X109191722Y-99462639D01*
X109275766Y-99669616D01*
X109292401Y-99696762D01*
X109384823Y-99847581D01*
X109392487Y-99860088D01*
X109538750Y-100028938D01*
X109710626Y-100171632D01*
X109760550Y-100200805D01*
X109783945Y-100214476D01*
X109832669Y-100266114D01*
X109845740Y-100335897D01*
X109819009Y-100401669D01*
X109778555Y-100435027D01*
X109766107Y-100441507D01*
X109761974Y-100444610D01*
X109761971Y-100444612D01*
X109599634Y-100566498D01*
X109587465Y-100575635D01*
X109580485Y-100582939D01*
X109446985Y-100722639D01*
X109433129Y-100737138D01*
X109430215Y-100741410D01*
X109430214Y-100741411D01*
X109385176Y-100807435D01*
X109307243Y-100921680D01*
X109269924Y-101002077D01*
X109225142Y-101098553D01*
X109213188Y-101124305D01*
X109153489Y-101339570D01*
X109129751Y-101561695D01*
X109130048Y-101566848D01*
X109130048Y-101566851D01*
X109138439Y-101712378D01*
X109142610Y-101784715D01*
X109143747Y-101789761D01*
X109143748Y-101789767D01*
X109161165Y-101867050D01*
X109191722Y-102002639D01*
X109275766Y-102209616D01*
X109278465Y-102214020D01*
X109384823Y-102387581D01*
X109392487Y-102400088D01*
X109538750Y-102568938D01*
X109710626Y-102711632D01*
X109760550Y-102740805D01*
X109783945Y-102754476D01*
X109832669Y-102806114D01*
X109845740Y-102875897D01*
X109819009Y-102941669D01*
X109778555Y-102975027D01*
X109766107Y-102981507D01*
X109761974Y-102984610D01*
X109761971Y-102984612D01*
X109592357Y-103111962D01*
X109587465Y-103115635D01*
X109566019Y-103138077D01*
X109459797Y-103249232D01*
X109433129Y-103277138D01*
X109307243Y-103461680D01*
X109272196Y-103537183D01*
X109215513Y-103659297D01*
X109213188Y-103664305D01*
X109153489Y-103879570D01*
X109129751Y-104101695D01*
X109130048Y-104106848D01*
X109130048Y-104106851D01*
X109141108Y-104298664D01*
X109142610Y-104324715D01*
X109143747Y-104329761D01*
X109143748Y-104329767D01*
X109159887Y-104401379D01*
X109191722Y-104542639D01*
X109250358Y-104687042D01*
X109269762Y-104734829D01*
X109275766Y-104749616D01*
X109323234Y-104827077D01*
X109383663Y-104925688D01*
X109392487Y-104940088D01*
X109538750Y-105108938D01*
X109710626Y-105251632D01*
X109903500Y-105364338D01*
X110112192Y-105444030D01*
X110117260Y-105445061D01*
X110117263Y-105445062D01*
X110211502Y-105464235D01*
X110331097Y-105488567D01*
X110336272Y-105488757D01*
X110336274Y-105488757D01*
X110549173Y-105496564D01*
X110549177Y-105496564D01*
X110554337Y-105496753D01*
X110559457Y-105496097D01*
X110559459Y-105496097D01*
X110770788Y-105469025D01*
X110770789Y-105469025D01*
X110775916Y-105468368D01*
X110796215Y-105462278D01*
X110984929Y-105405661D01*
X110984934Y-105405659D01*
X110989884Y-105404174D01*
X111190494Y-105305896D01*
X111372360Y-105176173D01*
X111378306Y-105170247D01*
X111379458Y-105169621D01*
X111379974Y-105169185D01*
X111380064Y-105169292D01*
X111440680Y-105136332D01*
X111467245Y-105133500D01*
X113431760Y-105133500D01*
X113504031Y-105156287D01*
X113655751Y-105262523D01*
X113660733Y-105264846D01*
X113660738Y-105264849D01*
X113695549Y-105281081D01*
X113748834Y-105327998D01*
X113768295Y-105396275D01*
X113747753Y-105464235D01*
X113695549Y-105509471D01*
X113660989Y-105525586D01*
X113651493Y-105531069D01*
X113473033Y-105656028D01*
X113464625Y-105663084D01*
X113310584Y-105817125D01*
X113303528Y-105825533D01*
X113178569Y-106003993D01*
X113173086Y-106013489D01*
X113081010Y-106210947D01*
X113077264Y-106221239D01*
X113031106Y-106393503D01*
X113031442Y-106407599D01*
X113039384Y-106411000D01*
X115580467Y-106411000D01*
X115593998Y-106407027D01*
X115595227Y-106398478D01*
X115547736Y-106221239D01*
X115543990Y-106210947D01*
X115451914Y-106013489D01*
X115446431Y-106003993D01*
X115321472Y-105825533D01*
X115314416Y-105817125D01*
X115160375Y-105663084D01*
X115151967Y-105656028D01*
X114973507Y-105531069D01*
X114964011Y-105525586D01*
X114929451Y-105509471D01*
X114876166Y-105462554D01*
X114856705Y-105394277D01*
X114877247Y-105326317D01*
X114929451Y-105281081D01*
X114964262Y-105264849D01*
X114964267Y-105264846D01*
X114969249Y-105262523D01*
X115097775Y-105172528D01*
X115152289Y-105134357D01*
X115152292Y-105134355D01*
X115156800Y-105131198D01*
X115318698Y-104969300D01*
X115336421Y-104943990D01*
X115418284Y-104827077D01*
X115450023Y-104781749D01*
X115452346Y-104776767D01*
X115452349Y-104776762D01*
X115544461Y-104579225D01*
X115544461Y-104579224D01*
X115546784Y-104574243D01*
X115549011Y-104565934D01*
X115604619Y-104358402D01*
X115604619Y-104358400D01*
X115606043Y-104353087D01*
X115625998Y-104125000D01*
X115606043Y-103896913D01*
X115604201Y-103890038D01*
X115548207Y-103681067D01*
X115548206Y-103681065D01*
X115546784Y-103675757D01*
X115539692Y-103660547D01*
X115452349Y-103473238D01*
X115452346Y-103473233D01*
X115450023Y-103468251D01*
X115368916Y-103352419D01*
X115321857Y-103285211D01*
X115321855Y-103285208D01*
X115318698Y-103280700D01*
X115156800Y-103118802D01*
X115152292Y-103115645D01*
X115152289Y-103115643D01*
X114991132Y-103002800D01*
X114969249Y-102987477D01*
X114964267Y-102985154D01*
X114964262Y-102985151D01*
X114930043Y-102969195D01*
X114876758Y-102922278D01*
X114857297Y-102854001D01*
X114877839Y-102786041D01*
X114930043Y-102740805D01*
X114964262Y-102724849D01*
X114964267Y-102724846D01*
X114969249Y-102722523D01*
X115096725Y-102633263D01*
X115152289Y-102594357D01*
X115152292Y-102594355D01*
X115156800Y-102591198D01*
X115318698Y-102429300D01*
X115335101Y-102405875D01*
X115404325Y-102307012D01*
X115450023Y-102241749D01*
X115452346Y-102236767D01*
X115452349Y-102236762D01*
X115544461Y-102039225D01*
X115544461Y-102039224D01*
X115546784Y-102034243D01*
X115550828Y-102019153D01*
X115604619Y-101818402D01*
X115604619Y-101818400D01*
X115606043Y-101813087D01*
X115625998Y-101585000D01*
X115606043Y-101356913D01*
X115604619Y-101351598D01*
X115548207Y-101141067D01*
X115548206Y-101141065D01*
X115546784Y-101135757D01*
X115539692Y-101120547D01*
X115452349Y-100933238D01*
X115452346Y-100933233D01*
X115450023Y-100928251D01*
X115368916Y-100812419D01*
X115321857Y-100745211D01*
X115321855Y-100745208D01*
X115318698Y-100740700D01*
X115156800Y-100578802D01*
X115152292Y-100575645D01*
X115152289Y-100575643D01*
X115017280Y-100481109D01*
X114969249Y-100447477D01*
X114964267Y-100445154D01*
X114964262Y-100445151D01*
X114930043Y-100429195D01*
X114876758Y-100382278D01*
X114857297Y-100314001D01*
X114877839Y-100246041D01*
X114930043Y-100200805D01*
X114964262Y-100184849D01*
X114964267Y-100184846D01*
X114969249Y-100182523D01*
X115097775Y-100092528D01*
X115152289Y-100054357D01*
X115152292Y-100054355D01*
X115156800Y-100051198D01*
X115318698Y-99889300D01*
X115336421Y-99863990D01*
X115432765Y-99726396D01*
X115450023Y-99701749D01*
X115452346Y-99696767D01*
X115452349Y-99696762D01*
X115544461Y-99499225D01*
X115544461Y-99499224D01*
X115546784Y-99494243D01*
X115550828Y-99479153D01*
X115604619Y-99278402D01*
X115604619Y-99278400D01*
X115606043Y-99273087D01*
X115625998Y-99045000D01*
X115606043Y-98816913D01*
X115604619Y-98811598D01*
X115548207Y-98601067D01*
X115548206Y-98601065D01*
X115546784Y-98595757D01*
X115529436Y-98558553D01*
X115452349Y-98393238D01*
X115452346Y-98393233D01*
X115450023Y-98388251D01*
X115368916Y-98272419D01*
X115321857Y-98205211D01*
X115321855Y-98205208D01*
X115318698Y-98200700D01*
X115156800Y-98038802D01*
X115152292Y-98035645D01*
X115152289Y-98035643D01*
X115057090Y-97968984D01*
X114969249Y-97907477D01*
X114964267Y-97905154D01*
X114964262Y-97905151D01*
X114930043Y-97889195D01*
X114876758Y-97842278D01*
X114857297Y-97774001D01*
X114877839Y-97706041D01*
X114930043Y-97660805D01*
X114964262Y-97644849D01*
X114964267Y-97644846D01*
X114969249Y-97642523D01*
X115125868Y-97532857D01*
X115152289Y-97514357D01*
X115152292Y-97514355D01*
X115156800Y-97511198D01*
X115318698Y-97349300D01*
X115348898Y-97306171D01*
X115406951Y-97223262D01*
X115450023Y-97161749D01*
X115452346Y-97156767D01*
X115452349Y-97156762D01*
X115544461Y-96959225D01*
X115544461Y-96959224D01*
X115546784Y-96954243D01*
X115550828Y-96939153D01*
X115604619Y-96738402D01*
X115604619Y-96738400D01*
X115606043Y-96733087D01*
X115625998Y-96505000D01*
X115606043Y-96276913D01*
X115591116Y-96221204D01*
X115548207Y-96061067D01*
X115548206Y-96061065D01*
X115546784Y-96055757D01*
X115538227Y-96037406D01*
X115452349Y-95853238D01*
X115452346Y-95853233D01*
X115450023Y-95848251D01*
X115368916Y-95732419D01*
X115321857Y-95665211D01*
X115321855Y-95665208D01*
X115318698Y-95660700D01*
X115156800Y-95498802D01*
X115152292Y-95495645D01*
X115152289Y-95495643D01*
X115041824Y-95418295D01*
X114969249Y-95367477D01*
X114964267Y-95365154D01*
X114964262Y-95365151D01*
X114930043Y-95349195D01*
X114876758Y-95302278D01*
X114857297Y-95234001D01*
X114877839Y-95166041D01*
X114930043Y-95120805D01*
X114964262Y-95104849D01*
X114964267Y-95104846D01*
X114969249Y-95102523D01*
X115067644Y-95033626D01*
X115134917Y-95010938D01*
X115203777Y-95028223D01*
X115229009Y-95047744D01*
X118337095Y-98155829D01*
X118371121Y-98218141D01*
X118374000Y-98244924D01*
X118374000Y-100163991D01*
X118353998Y-100232112D01*
X118300342Y-100278605D01*
X118294806Y-100280903D01*
X118294204Y-100281232D01*
X118285795Y-100284385D01*
X118169239Y-100371739D01*
X118081885Y-100488295D01*
X118030755Y-100624684D01*
X118024000Y-100686866D01*
X118024000Y-102483134D01*
X118030755Y-102545316D01*
X118081885Y-102681705D01*
X118169239Y-102798261D01*
X118285795Y-102885615D01*
X118294204Y-102888767D01*
X118302075Y-102893077D01*
X118301164Y-102894741D01*
X118348990Y-102930663D01*
X118373693Y-102997224D01*
X118374000Y-103006009D01*
X118374000Y-103163381D01*
X118353998Y-103231502D01*
X118339094Y-103250432D01*
X118323129Y-103267138D01*
X118197243Y-103451680D01*
X118103188Y-103654305D01*
X118043489Y-103869570D01*
X118019751Y-104091695D01*
X118020048Y-104096848D01*
X118020048Y-104096851D01*
X118031737Y-104299575D01*
X118032610Y-104314715D01*
X118033747Y-104319761D01*
X118033748Y-104319767D01*
X118055052Y-104414297D01*
X118081722Y-104532639D01*
X118133622Y-104660455D01*
X118160344Y-104726262D01*
X118165766Y-104739616D01*
X118217442Y-104823944D01*
X118279791Y-104925688D01*
X118282487Y-104930088D01*
X118319830Y-104973197D01*
X118343237Y-105000219D01*
X118372720Y-105064804D01*
X118374000Y-105082717D01*
X118374000Y-105703381D01*
X118353998Y-105771502D01*
X118339094Y-105790432D01*
X118323129Y-105807138D01*
X118197243Y-105991680D01*
X118176239Y-106036930D01*
X118140402Y-106114135D01*
X118103188Y-106194305D01*
X118043489Y-106409570D01*
X118019751Y-106631695D01*
X118020048Y-106636848D01*
X118020048Y-106636851D01*
X118024239Y-106709528D01*
X118032610Y-106854715D01*
X118033747Y-106859761D01*
X118033748Y-106859767D01*
X118054242Y-106950704D01*
X118081722Y-107072639D01*
X118165766Y-107279616D01*
X118203502Y-107341195D01*
X118279791Y-107465688D01*
X118282487Y-107470088D01*
X118428750Y-107638938D01*
X118600626Y-107781632D01*
X118793500Y-107894338D01*
X119002192Y-107974030D01*
X119007260Y-107975061D01*
X119007263Y-107975062D01*
X119089401Y-107991773D01*
X119221097Y-108018567D01*
X119226272Y-108018757D01*
X119226274Y-108018757D01*
X119439173Y-108026564D01*
X119439177Y-108026564D01*
X119444337Y-108026753D01*
X119449457Y-108026097D01*
X119449459Y-108026097D01*
X119660788Y-107999025D01*
X119660789Y-107999025D01*
X119665916Y-107998368D01*
X119687898Y-107991773D01*
X119874929Y-107935661D01*
X119874934Y-107935659D01*
X119879884Y-107934174D01*
X120080494Y-107835896D01*
X120262360Y-107706173D01*
X120294288Y-107674357D01*
X120416935Y-107552137D01*
X120420596Y-107548489D01*
X120451998Y-107504789D01*
X120550953Y-107367077D01*
X120552276Y-107368028D01*
X120599145Y-107324857D01*
X120669080Y-107312625D01*
X120734526Y-107340144D01*
X120762375Y-107371994D01*
X120822487Y-107470088D01*
X120968750Y-107638938D01*
X121140626Y-107781632D01*
X121333500Y-107894338D01*
X121542192Y-107974030D01*
X121547260Y-107975061D01*
X121547263Y-107975062D01*
X121629401Y-107991773D01*
X121761097Y-108018567D01*
X121766272Y-108018757D01*
X121766274Y-108018757D01*
X121979173Y-108026564D01*
X121979177Y-108026564D01*
X121984337Y-108026753D01*
X121989457Y-108026097D01*
X121989459Y-108026097D01*
X122200788Y-107999025D01*
X122200789Y-107999025D01*
X122205916Y-107998368D01*
X122227898Y-107991773D01*
X122414929Y-107935661D01*
X122414934Y-107935659D01*
X122419884Y-107934174D01*
X122620494Y-107835896D01*
X122802360Y-107706173D01*
X122805386Y-107703157D01*
X122870088Y-107674570D01*
X122886476Y-107673500D01*
X126131760Y-107673500D01*
X126204031Y-107696287D01*
X126355751Y-107802523D01*
X126360733Y-107804846D01*
X126360738Y-107804849D01*
X126394957Y-107820805D01*
X126448242Y-107867722D01*
X126467703Y-107935999D01*
X126447161Y-108003959D01*
X126394957Y-108049195D01*
X126360738Y-108065151D01*
X126360733Y-108065154D01*
X126355751Y-108067477D01*
X126277519Y-108122256D01*
X126172711Y-108195643D01*
X126172708Y-108195645D01*
X126168200Y-108198802D01*
X126006302Y-108360700D01*
X125874977Y-108548251D01*
X125872654Y-108553233D01*
X125872651Y-108553238D01*
X125780539Y-108750775D01*
X125778216Y-108755757D01*
X125776794Y-108761065D01*
X125776793Y-108761067D01*
X125725839Y-108951229D01*
X125718957Y-108976913D01*
X125699002Y-109205000D01*
X125718957Y-109433087D01*
X125720381Y-109438400D01*
X125720381Y-109438402D01*
X125771292Y-109628401D01*
X125778216Y-109654243D01*
X125780539Y-109659224D01*
X125780539Y-109659225D01*
X125872651Y-109856762D01*
X125872654Y-109856767D01*
X125874977Y-109861749D01*
X125921805Y-109928626D01*
X126000315Y-110040749D01*
X126006302Y-110049300D01*
X126168200Y-110211198D01*
X126172708Y-110214355D01*
X126172711Y-110214357D01*
X126241241Y-110262342D01*
X126355751Y-110342523D01*
X126360733Y-110344846D01*
X126360738Y-110344849D01*
X126536197Y-110426666D01*
X126563257Y-110439284D01*
X126568565Y-110440706D01*
X126568567Y-110440707D01*
X126748026Y-110488793D01*
X126808649Y-110525745D01*
X126839670Y-110589606D01*
X126831242Y-110660100D01*
X126786039Y-110714847D01*
X126715415Y-110736500D01*
X117322425Y-110736500D01*
X117254304Y-110716498D01*
X117233330Y-110699595D01*
X115647618Y-109113884D01*
X115613593Y-109051572D01*
X115611192Y-109035770D01*
X115606522Y-108982392D01*
X115606043Y-108976913D01*
X115564377Y-108821416D01*
X115548207Y-108761067D01*
X115548206Y-108761065D01*
X115546784Y-108755757D01*
X115544461Y-108750775D01*
X115452349Y-108553238D01*
X115452346Y-108553233D01*
X115450023Y-108548251D01*
X115318698Y-108360700D01*
X115156800Y-108198802D01*
X115152292Y-108195645D01*
X115152289Y-108195643D01*
X115047481Y-108122256D01*
X114969249Y-108067477D01*
X114964267Y-108065154D01*
X114964262Y-108065151D01*
X114929451Y-108048919D01*
X114876166Y-108002002D01*
X114856705Y-107933725D01*
X114877247Y-107865765D01*
X114929451Y-107820529D01*
X114964011Y-107804414D01*
X114973507Y-107798931D01*
X115151967Y-107673972D01*
X115160375Y-107666916D01*
X115314416Y-107512875D01*
X115321472Y-107504467D01*
X115446431Y-107326007D01*
X115451914Y-107316511D01*
X115543990Y-107119053D01*
X115547736Y-107108761D01*
X115593894Y-106936497D01*
X115593558Y-106922401D01*
X115585616Y-106919000D01*
X113044533Y-106919000D01*
X113031002Y-106922973D01*
X113029773Y-106931522D01*
X113077264Y-107108761D01*
X113081010Y-107119053D01*
X113173086Y-107316511D01*
X113178569Y-107326007D01*
X113303528Y-107504467D01*
X113310584Y-107512875D01*
X113464625Y-107666916D01*
X113473033Y-107673972D01*
X113651493Y-107798931D01*
X113660989Y-107804414D01*
X113695549Y-107820529D01*
X113748834Y-107867446D01*
X113768295Y-107935723D01*
X113747753Y-108003683D01*
X113695549Y-108048919D01*
X113660738Y-108065151D01*
X113660733Y-108065154D01*
X113655751Y-108067477D01*
X113535664Y-108151563D01*
X113504031Y-108173713D01*
X113431760Y-108196500D01*
X108422424Y-108196500D01*
X108354303Y-108176498D01*
X108333329Y-108159595D01*
X106457905Y-106284171D01*
X106423879Y-106221859D01*
X106421000Y-106195076D01*
X106421000Y-97685556D01*
X106441002Y-97617435D01*
X106465168Y-97589746D01*
X106478712Y-97578178D01*
X106478713Y-97578177D01*
X106482469Y-97574969D01*
X106636676Y-97394416D01*
X106639255Y-97390208D01*
X106639259Y-97390202D01*
X106758154Y-97196183D01*
X106760740Y-97191963D01*
X106765173Y-97181262D01*
X106849711Y-96977167D01*
X106849712Y-96977165D01*
X106851605Y-96972594D01*
X106883581Y-96839405D01*
X106905880Y-96746524D01*
X106905881Y-96746518D01*
X106907035Y-96741711D01*
X106925665Y-96505000D01*
X106907035Y-96268289D01*
X106904202Y-96256485D01*
X106857285Y-96061067D01*
X106851605Y-96037406D01*
X106817994Y-95956261D01*
X106762635Y-95822611D01*
X106762633Y-95822607D01*
X106760740Y-95818037D01*
X106667088Y-95665211D01*
X106639259Y-95619798D01*
X106639255Y-95619792D01*
X106636676Y-95615584D01*
X106482469Y-95435031D01*
X106301916Y-95280824D01*
X106297708Y-95278245D01*
X106297702Y-95278241D01*
X106103683Y-95159346D01*
X106099463Y-95156760D01*
X106094893Y-95154867D01*
X106094889Y-95154865D01*
X105884667Y-95067789D01*
X105884665Y-95067788D01*
X105880094Y-95065895D01*
X105745684Y-95033626D01*
X105654024Y-95011620D01*
X105654018Y-95011619D01*
X105649211Y-95010465D01*
X105412500Y-94991835D01*
X105175789Y-95010465D01*
X105170982Y-95011619D01*
X105170976Y-95011620D01*
X105079316Y-95033626D01*
X104944906Y-95065895D01*
X104940335Y-95067788D01*
X104940333Y-95067789D01*
X104730111Y-95154865D01*
X104730107Y-95154867D01*
X104725537Y-95156760D01*
X104721317Y-95159346D01*
X104527298Y-95278241D01*
X104527292Y-95278245D01*
X104523084Y-95280824D01*
X104342531Y-95435031D01*
X104188324Y-95615584D01*
X104185745Y-95619792D01*
X104185741Y-95619798D01*
X104157912Y-95665211D01*
X104064260Y-95818037D01*
X104062367Y-95822607D01*
X104062365Y-95822611D01*
X104007006Y-95956261D01*
X103973395Y-96037406D01*
X103967715Y-96061067D01*
X103920799Y-96256485D01*
X103917965Y-96268289D01*
X103899335Y-96505000D01*
X103917965Y-96741711D01*
X103919119Y-96746518D01*
X103919120Y-96746524D01*
X103941419Y-96839405D01*
X103973395Y-96972594D01*
X103975288Y-96977165D01*
X103975289Y-96977167D01*
X104059828Y-97181262D01*
X104064260Y-97191963D01*
X104066846Y-97196183D01*
X104185741Y-97390202D01*
X104185745Y-97390208D01*
X104188324Y-97394416D01*
X104342531Y-97574969D01*
X104346287Y-97578177D01*
X104346288Y-97578178D01*
X104359832Y-97589746D01*
X104398640Y-97649197D01*
X104404000Y-97685556D01*
X104404000Y-106603157D01*
X104403263Y-106616764D01*
X104399176Y-106654388D01*
X104400155Y-106665578D01*
X104403550Y-106704388D01*
X104403879Y-106709214D01*
X104404000Y-106711686D01*
X104404000Y-106714769D01*
X104404301Y-106717837D01*
X104408190Y-106757506D01*
X104408312Y-106758819D01*
X104416413Y-106851413D01*
X104417900Y-106856532D01*
X104418420Y-106861833D01*
X104445291Y-106950834D01*
X104445626Y-106951967D01*
X104459409Y-106999405D01*
X104471591Y-107041336D01*
X104474044Y-107046068D01*
X104475584Y-107051169D01*
X104478478Y-107056612D01*
X104519231Y-107133260D01*
X104519843Y-107134426D01*
X104536630Y-107166811D01*
X104562608Y-107216926D01*
X104565931Y-107221089D01*
X104568434Y-107225796D01*
X104627255Y-107297918D01*
X104627946Y-107298774D01*
X104659238Y-107337973D01*
X104661742Y-107340477D01*
X104662384Y-107341195D01*
X104666085Y-107345528D01*
X104693435Y-107379062D01*
X104698182Y-107382989D01*
X104698184Y-107382991D01*
X104728762Y-107408287D01*
X104737542Y-107416277D01*
X107195649Y-109874384D01*
X107204751Y-109884527D01*
X107228468Y-109914025D01*
X107266946Y-109946312D01*
X107270562Y-109949467D01*
X107272388Y-109951123D01*
X107274574Y-109953309D01*
X107276954Y-109955264D01*
X107276964Y-109955273D01*
X107307768Y-109980576D01*
X107308783Y-109981418D01*
X107379974Y-110041154D01*
X107384648Y-110043723D01*
X107388761Y-110047102D01*
X107394198Y-110050017D01*
X107394199Y-110050018D01*
X107470547Y-110090955D01*
X107471677Y-110091568D01*
X107553287Y-110136433D01*
X107558369Y-110138045D01*
X107563063Y-110140562D01*
X107652031Y-110167762D01*
X107653059Y-110168082D01*
X107741806Y-110196235D01*
X107747102Y-110196829D01*
X107752198Y-110198387D01*
X107844757Y-110207790D01*
X107845893Y-110207911D01*
X107879508Y-110211681D01*
X107892230Y-110213108D01*
X107892234Y-110213108D01*
X107895727Y-110213500D01*
X107899254Y-110213500D01*
X107900239Y-110213555D01*
X107905919Y-110214002D01*
X107935325Y-110216989D01*
X107942837Y-110217752D01*
X107942839Y-110217752D01*
X107948962Y-110218374D01*
X107994608Y-110214059D01*
X108006467Y-110213500D01*
X113431760Y-110213500D01*
X113504031Y-110236287D01*
X113655751Y-110342523D01*
X113660733Y-110344846D01*
X113660738Y-110344849D01*
X113836197Y-110426666D01*
X113863257Y-110439284D01*
X113868565Y-110440706D01*
X113868567Y-110440707D01*
X113936641Y-110458947D01*
X114084413Y-110498543D01*
X114143269Y-110503692D01*
X114209387Y-110529555D01*
X114221383Y-110540118D01*
X115987670Y-112306405D01*
X116021696Y-112368717D01*
X116016631Y-112439532D01*
X115974084Y-112496368D01*
X115907564Y-112521179D01*
X115898575Y-112521500D01*
X104235610Y-112521500D01*
X104178628Y-112504769D01*
X104156660Y-112517697D01*
X104125936Y-112521500D01*
X102234500Y-112521500D01*
X102166379Y-112501498D01*
X102119886Y-112447842D01*
X102108500Y-112395500D01*
X102108500Y-110516621D01*
X102125069Y-110460191D01*
X102341944Y-110460191D01*
X102355396Y-110481123D01*
X102360355Y-110510576D01*
X102369582Y-110702679D01*
X102369583Y-110702686D01*
X102369807Y-110707352D01*
X102370720Y-110711941D01*
X102407658Y-110897639D01*
X102421378Y-110966616D01*
X102422957Y-110971014D01*
X102422959Y-110971021D01*
X102470925Y-111104616D01*
X102510704Y-111215410D01*
X102512921Y-111219536D01*
X102603512Y-111388134D01*
X102635822Y-111448267D01*
X102638617Y-111452011D01*
X102638619Y-111452013D01*
X102791192Y-111656333D01*
X102793985Y-111660073D01*
X102797292Y-111663351D01*
X102797297Y-111663357D01*
X102978402Y-111842887D01*
X102981718Y-111846174D01*
X103194896Y-112002483D01*
X103199031Y-112004659D01*
X103199035Y-112004661D01*
X103322293Y-112069510D01*
X103428836Y-112125565D01*
X103678400Y-112212716D01*
X103682993Y-112213588D01*
X103933515Y-112261151D01*
X103933518Y-112261151D01*
X103938104Y-112262022D01*
X104130883Y-112269597D01*
X104181419Y-112286618D01*
X104200112Y-112274604D01*
X104221892Y-112270249D01*
X104295339Y-112262205D01*
X104465015Y-112243622D01*
X104469526Y-112242434D01*
X104469528Y-112242434D01*
X104716124Y-112177511D01*
X104716126Y-112177510D01*
X104720647Y-112176320D01*
X104835191Y-112127108D01*
X104959229Y-112073817D01*
X104959231Y-112073816D01*
X104963523Y-112071972D01*
X105188307Y-111932871D01*
X105284903Y-111851097D01*
X105386496Y-111765093D01*
X105386498Y-111765091D01*
X105390063Y-111762073D01*
X105564356Y-111563329D01*
X105568326Y-111557158D01*
X105704831Y-111344936D01*
X105707359Y-111341006D01*
X105815930Y-111099988D01*
X105887683Y-110845570D01*
X105905861Y-110702679D01*
X105920645Y-110586471D01*
X105920645Y-110586465D01*
X105921043Y-110583340D01*
X105921744Y-110556590D01*
X105922790Y-110516621D01*
X105923487Y-110490000D01*
X105918924Y-110428595D01*
X105904243Y-110231036D01*
X105904242Y-110231032D01*
X105903897Y-110226384D01*
X105845557Y-109968559D01*
X105843864Y-109964205D01*
X105751442Y-109726542D01*
X105751441Y-109726540D01*
X105749749Y-109722189D01*
X105723535Y-109676323D01*
X105674776Y-109591014D01*
X105618578Y-109492687D01*
X105454925Y-109285094D01*
X105262385Y-109103970D01*
X105224626Y-109077776D01*
X105049026Y-108955958D01*
X105049021Y-108955955D01*
X105045188Y-108953296D01*
X105040997Y-108951229D01*
X104812294Y-108838445D01*
X104812291Y-108838444D01*
X104808106Y-108836380D01*
X104751150Y-108818148D01*
X104572829Y-108761067D01*
X104556347Y-108755791D01*
X104413825Y-108732580D01*
X104300053Y-108714051D01*
X104300052Y-108714051D01*
X104295441Y-108713300D01*
X104163281Y-108711570D01*
X104035798Y-108709901D01*
X104035795Y-108709901D01*
X104031121Y-108709840D01*
X103769192Y-108745486D01*
X103764702Y-108746795D01*
X103764696Y-108746796D01*
X103674127Y-108773195D01*
X103515410Y-108819457D01*
X103511163Y-108821415D01*
X103511160Y-108821416D01*
X103420950Y-108863004D01*
X103275348Y-108930127D01*
X103271439Y-108932690D01*
X103058195Y-109072499D01*
X103058190Y-109072503D01*
X103054282Y-109075065D01*
X103050790Y-109078182D01*
X102862051Y-109246638D01*
X102857067Y-109251086D01*
X102688036Y-109454324D01*
X102550901Y-109680314D01*
X102549095Y-109684622D01*
X102549094Y-109684623D01*
X102451237Y-109917987D01*
X102448677Y-109924091D01*
X102447526Y-109928623D01*
X102447525Y-109928626D01*
X102419234Y-110040022D01*
X102383608Y-110180301D01*
X102380497Y-110211198D01*
X102359866Y-110416083D01*
X102341944Y-110460191D01*
X102125069Y-110460191D01*
X102126039Y-110456888D01*
X102110656Y-110426666D01*
X102108500Y-110403459D01*
X102108500Y-66066621D01*
X102125069Y-66010191D01*
X102341944Y-66010191D01*
X102355396Y-66031123D01*
X102360355Y-66060576D01*
X102369582Y-66252679D01*
X102369583Y-66252686D01*
X102369807Y-66257352D01*
X102376729Y-66292151D01*
X102417064Y-66494926D01*
X102421378Y-66516616D01*
X102422957Y-66521014D01*
X102422959Y-66521021D01*
X102473440Y-66661622D01*
X102510704Y-66765410D01*
X102512921Y-66769536D01*
X102587767Y-66908831D01*
X102635822Y-66998267D01*
X102638617Y-67002011D01*
X102638619Y-67002013D01*
X102721743Y-67113329D01*
X102793985Y-67210073D01*
X102797292Y-67213351D01*
X102797297Y-67213357D01*
X102935155Y-67350016D01*
X102981718Y-67396174D01*
X103194896Y-67552483D01*
X103199031Y-67554659D01*
X103199035Y-67554661D01*
X103322293Y-67619510D01*
X103428836Y-67675565D01*
X103678400Y-67762716D01*
X103682993Y-67763588D01*
X103933515Y-67811151D01*
X103933518Y-67811151D01*
X103938104Y-67812022D01*
X104070173Y-67817211D01*
X104197575Y-67822218D01*
X104197581Y-67822218D01*
X104202243Y-67822401D01*
X104465015Y-67793622D01*
X104469526Y-67792434D01*
X104469528Y-67792434D01*
X104716124Y-67727511D01*
X104716126Y-67727510D01*
X104720647Y-67726320D01*
X104835191Y-67677108D01*
X104959229Y-67623817D01*
X104959231Y-67623816D01*
X104963523Y-67621972D01*
X105123319Y-67523087D01*
X105184332Y-67485331D01*
X105184334Y-67485330D01*
X105188307Y-67482871D01*
X105204788Y-67468919D01*
X105386496Y-67315093D01*
X105386498Y-67315091D01*
X105390063Y-67312073D01*
X105564356Y-67113329D01*
X105567407Y-67108587D01*
X105622532Y-67022885D01*
X113004500Y-67022885D01*
X113008975Y-67038124D01*
X113010365Y-67039329D01*
X113018048Y-67041000D01*
X114040385Y-67041000D01*
X114055624Y-67036525D01*
X114056829Y-67035135D01*
X114058500Y-67027452D01*
X114058500Y-67022885D01*
X114566500Y-67022885D01*
X114570975Y-67038124D01*
X114572365Y-67039329D01*
X114580048Y-67041000D01*
X115602384Y-67041000D01*
X115617623Y-67036525D01*
X115618828Y-67035135D01*
X115620499Y-67027452D01*
X115620499Y-66450331D01*
X115620129Y-66443510D01*
X115614605Y-66392648D01*
X115610979Y-66377396D01*
X115565824Y-66256946D01*
X115557286Y-66241351D01*
X115480785Y-66139276D01*
X115468224Y-66126715D01*
X115366149Y-66050214D01*
X115350554Y-66041676D01*
X115230106Y-65996522D01*
X115214851Y-65992895D01*
X115163986Y-65987369D01*
X115157172Y-65987000D01*
X114584615Y-65987000D01*
X114569376Y-65991475D01*
X114568171Y-65992865D01*
X114566500Y-66000548D01*
X114566500Y-67022885D01*
X114058500Y-67022885D01*
X114058500Y-66005116D01*
X114054025Y-65989877D01*
X114052635Y-65988672D01*
X114044952Y-65987001D01*
X113467831Y-65987001D01*
X113461010Y-65987371D01*
X113410148Y-65992895D01*
X113394896Y-65996521D01*
X113274446Y-66041676D01*
X113258851Y-66050214D01*
X113156776Y-66126715D01*
X113144215Y-66139276D01*
X113067714Y-66241351D01*
X113059176Y-66256946D01*
X113014022Y-66377394D01*
X113010395Y-66392649D01*
X113004869Y-66443514D01*
X113004500Y-66450328D01*
X113004500Y-67022885D01*
X105622532Y-67022885D01*
X105692611Y-66913934D01*
X105707359Y-66891006D01*
X105815930Y-66649988D01*
X105887683Y-66395570D01*
X105917571Y-66160634D01*
X105920645Y-66136471D01*
X105920645Y-66136465D01*
X105921043Y-66133340D01*
X105921217Y-66126715D01*
X105922790Y-66066621D01*
X105923487Y-66040000D01*
X105918913Y-65978447D01*
X105904243Y-65781036D01*
X105904242Y-65781032D01*
X105903897Y-65776384D01*
X105845557Y-65518559D01*
X105830028Y-65478626D01*
X105751442Y-65276542D01*
X105751441Y-65276540D01*
X105749749Y-65272189D01*
X105723535Y-65226323D01*
X105620897Y-65046745D01*
X105618578Y-65042687D01*
X105454925Y-64835094D01*
X105262385Y-64653970D01*
X105225212Y-64628182D01*
X105049026Y-64505958D01*
X105049021Y-64505955D01*
X105045188Y-64503296D01*
X105040997Y-64501229D01*
X104812294Y-64388445D01*
X104812291Y-64388444D01*
X104808106Y-64386380D01*
X104751150Y-64368148D01*
X104560792Y-64307214D01*
X104560794Y-64307214D01*
X104556347Y-64305791D01*
X104413825Y-64282580D01*
X104300053Y-64264051D01*
X104300052Y-64264051D01*
X104295441Y-64263300D01*
X104080700Y-64260489D01*
X104059762Y-64254042D01*
X104057656Y-64255396D01*
X104032197Y-64259854D01*
X104031121Y-64259840D01*
X103769192Y-64295486D01*
X103764702Y-64296795D01*
X103764696Y-64296796D01*
X103656732Y-64328265D01*
X103515410Y-64369457D01*
X103511163Y-64371415D01*
X103511160Y-64371416D01*
X103420950Y-64413004D01*
X103275348Y-64480127D01*
X103271439Y-64482690D01*
X103058195Y-64622499D01*
X103058190Y-64622503D01*
X103054282Y-64625065D01*
X102857067Y-64801086D01*
X102688036Y-65004324D01*
X102550901Y-65230314D01*
X102549095Y-65234622D01*
X102549094Y-65234623D01*
X102455544Y-65457716D01*
X102448677Y-65474091D01*
X102447526Y-65478623D01*
X102447525Y-65478626D01*
X102425082Y-65566996D01*
X102383608Y-65730301D01*
X102383139Y-65734959D01*
X102359866Y-65966083D01*
X102341944Y-66010191D01*
X102125069Y-66010191D01*
X102126039Y-66006888D01*
X102110656Y-65976666D01*
X102108500Y-65953459D01*
X102108500Y-64134500D01*
X102128502Y-64066379D01*
X102182158Y-64019886D01*
X102234500Y-64008500D01*
X104022158Y-64008500D01*
X104045096Y-64015235D01*
G37*
%TD.AperFunction*%
%TA.AperFunction,Conductor*%
G36*
X168815096Y-64015235D02*
G01*
X168818436Y-64013150D01*
X168852349Y-64008500D01*
X170815500Y-64008500D01*
X170883621Y-64028502D01*
X170930114Y-64082158D01*
X170941500Y-64134500D01*
X170941500Y-65981666D01*
X170921498Y-66049787D01*
X170903242Y-66065605D01*
X170909370Y-66069404D01*
X170939909Y-66133497D01*
X170941500Y-66153454D01*
X170941500Y-110431666D01*
X170921498Y-110499787D01*
X170903242Y-110515605D01*
X170909370Y-110519404D01*
X170939909Y-110583497D01*
X170941500Y-110603454D01*
X170941500Y-112395500D01*
X170921498Y-112463621D01*
X170867842Y-112510114D01*
X170815500Y-112521500D01*
X169005610Y-112521500D01*
X168948628Y-112504769D01*
X168926660Y-112517697D01*
X168895936Y-112521500D01*
X129226426Y-112521500D01*
X129158305Y-112501498D01*
X129111812Y-112447842D01*
X129101708Y-112377568D01*
X129131202Y-112312988D01*
X129137330Y-112306405D01*
X129923329Y-111520405D01*
X129985642Y-111486380D01*
X130012425Y-111483500D01*
X158608367Y-111483500D01*
X158676488Y-111503502D01*
X158722981Y-111557158D01*
X158726348Y-111565269D01*
X158731231Y-111578293D01*
X158734385Y-111586705D01*
X158821739Y-111703261D01*
X158938295Y-111790615D01*
X159074684Y-111841745D01*
X159136866Y-111848500D01*
X160933134Y-111848500D01*
X160995316Y-111841745D01*
X161131705Y-111790615D01*
X161248261Y-111703261D01*
X161335615Y-111586705D01*
X161360470Y-111520405D01*
X161379798Y-111468848D01*
X161422440Y-111412084D01*
X161489001Y-111387384D01*
X161558350Y-111402592D01*
X161593017Y-111430580D01*
X161618218Y-111459673D01*
X161625580Y-111466883D01*
X161789434Y-111602916D01*
X161797881Y-111608831D01*
X161981756Y-111716279D01*
X161991042Y-111720729D01*
X162190001Y-111796703D01*
X162199899Y-111799579D01*
X162303250Y-111820606D01*
X162317299Y-111819410D01*
X162321000Y-111809065D01*
X162321000Y-111808517D01*
X162829000Y-111808517D01*
X162833064Y-111822359D01*
X162846478Y-111824393D01*
X162853184Y-111823534D01*
X162863262Y-111821392D01*
X163067255Y-111760191D01*
X163076842Y-111756433D01*
X163268095Y-111662739D01*
X163276945Y-111657464D01*
X163450328Y-111533792D01*
X163458200Y-111527139D01*
X163609052Y-111376812D01*
X163615730Y-111368965D01*
X163743022Y-111191819D01*
X163744279Y-111192722D01*
X163791373Y-111149362D01*
X163861311Y-111137145D01*
X163926751Y-111164678D01*
X163954579Y-111196511D01*
X164014987Y-111295088D01*
X164161250Y-111463938D01*
X164333126Y-111606632D01*
X164526000Y-111719338D01*
X164734692Y-111799030D01*
X164739760Y-111800061D01*
X164739763Y-111800062D01*
X164834862Y-111819410D01*
X164953597Y-111843567D01*
X164958772Y-111843757D01*
X164958774Y-111843757D01*
X165171673Y-111851564D01*
X165171677Y-111851564D01*
X165176837Y-111851753D01*
X165181957Y-111851097D01*
X165181959Y-111851097D01*
X165393288Y-111824025D01*
X165393289Y-111824025D01*
X165398416Y-111823368D01*
X165403366Y-111821883D01*
X165607429Y-111760661D01*
X165607434Y-111760659D01*
X165612384Y-111759174D01*
X165812994Y-111660896D01*
X165994860Y-111531173D01*
X166153096Y-111373489D01*
X166240874Y-111251333D01*
X166280435Y-111196277D01*
X166283453Y-111192077D01*
X166294511Y-111169704D01*
X166380136Y-110996453D01*
X166380137Y-110996451D01*
X166382430Y-110991811D01*
X166447370Y-110778069D01*
X166476529Y-110556590D01*
X166476611Y-110553240D01*
X166478074Y-110493365D01*
X166478074Y-110493361D01*
X166478156Y-110490000D01*
X166474318Y-110443314D01*
X167127124Y-110443314D01*
X167128856Y-110479368D01*
X167139807Y-110707352D01*
X167140720Y-110711941D01*
X167177658Y-110897639D01*
X167191378Y-110966616D01*
X167192957Y-110971014D01*
X167192959Y-110971021D01*
X167240925Y-111104616D01*
X167280704Y-111215410D01*
X167282921Y-111219536D01*
X167373512Y-111388134D01*
X167405822Y-111448267D01*
X167408617Y-111452011D01*
X167408619Y-111452013D01*
X167561192Y-111656333D01*
X167563985Y-111660073D01*
X167567292Y-111663351D01*
X167567297Y-111663357D01*
X167748402Y-111842887D01*
X167751718Y-111846174D01*
X167964896Y-112002483D01*
X167969031Y-112004659D01*
X167969035Y-112004661D01*
X168092293Y-112069510D01*
X168198836Y-112125565D01*
X168448400Y-112212716D01*
X168452993Y-112213588D01*
X168703515Y-112261151D01*
X168703518Y-112261151D01*
X168708104Y-112262022D01*
X168900883Y-112269597D01*
X168951419Y-112286618D01*
X168970112Y-112274604D01*
X168991892Y-112270249D01*
X169065339Y-112262205D01*
X169235015Y-112243622D01*
X169239526Y-112242434D01*
X169239528Y-112242434D01*
X169486124Y-112177511D01*
X169486126Y-112177510D01*
X169490647Y-112176320D01*
X169605191Y-112127108D01*
X169729229Y-112073817D01*
X169729231Y-112073816D01*
X169733523Y-112071972D01*
X169958307Y-111932871D01*
X170054903Y-111851097D01*
X170156496Y-111765093D01*
X170156498Y-111765091D01*
X170160063Y-111762073D01*
X170334356Y-111563329D01*
X170338326Y-111557158D01*
X170474831Y-111344936D01*
X170477359Y-111341006D01*
X170585930Y-111099988D01*
X170657683Y-110845570D01*
X170690507Y-110587553D01*
X170718946Y-110522501D01*
X170726804Y-110517268D01*
X170694604Y-110467164D01*
X170689846Y-110441004D01*
X170674243Y-110231036D01*
X170674242Y-110231032D01*
X170673897Y-110226384D01*
X170615557Y-109968559D01*
X170613864Y-109964205D01*
X170521442Y-109726542D01*
X170521441Y-109726540D01*
X170519749Y-109722189D01*
X170493535Y-109676323D01*
X170444776Y-109591014D01*
X170388578Y-109492687D01*
X170224925Y-109285094D01*
X170032385Y-109103970D01*
X169994626Y-109077776D01*
X169819026Y-108955958D01*
X169819021Y-108955955D01*
X169815188Y-108953296D01*
X169810997Y-108951229D01*
X169582294Y-108838445D01*
X169582291Y-108838444D01*
X169578106Y-108836380D01*
X169521150Y-108818148D01*
X169342829Y-108761067D01*
X169326347Y-108755791D01*
X169183825Y-108732580D01*
X169070053Y-108714051D01*
X169070052Y-108714051D01*
X169065441Y-108713300D01*
X168933281Y-108711570D01*
X168805798Y-108709901D01*
X168805795Y-108709901D01*
X168801121Y-108709840D01*
X168539192Y-108745486D01*
X168534702Y-108746795D01*
X168534696Y-108746796D01*
X168444127Y-108773195D01*
X168285410Y-108819457D01*
X168281163Y-108821415D01*
X168281160Y-108821416D01*
X168190950Y-108863004D01*
X168045348Y-108930127D01*
X168041439Y-108932690D01*
X167828195Y-109072499D01*
X167828190Y-109072503D01*
X167824282Y-109075065D01*
X167820790Y-109078182D01*
X167632051Y-109246638D01*
X167627067Y-109251086D01*
X167458036Y-109454324D01*
X167320901Y-109680314D01*
X167319095Y-109684622D01*
X167319094Y-109684623D01*
X167221237Y-109917987D01*
X167218677Y-109924091D01*
X167217526Y-109928623D01*
X167217525Y-109928626D01*
X167189234Y-110040022D01*
X167153608Y-110180301D01*
X167127124Y-110443314D01*
X166474318Y-110443314D01*
X166459852Y-110267361D01*
X166405431Y-110050702D01*
X166316354Y-109845840D01*
X166212058Y-109684623D01*
X166197822Y-109662617D01*
X166197820Y-109662614D01*
X166195014Y-109658277D01*
X166044670Y-109493051D01*
X166040619Y-109489852D01*
X166040615Y-109489848D01*
X165873414Y-109357800D01*
X165873410Y-109357798D01*
X165869359Y-109354598D01*
X165833028Y-109334542D01*
X165817136Y-109325769D01*
X165673789Y-109246638D01*
X165668920Y-109244914D01*
X165668916Y-109244912D01*
X165468087Y-109173795D01*
X165468083Y-109173794D01*
X165463212Y-109172069D01*
X165458119Y-109171162D01*
X165458116Y-109171161D01*
X165248373Y-109133800D01*
X165248367Y-109133799D01*
X165243284Y-109132894D01*
X165169452Y-109131992D01*
X165025081Y-109130228D01*
X165025079Y-109130228D01*
X165019911Y-109130165D01*
X164799091Y-109163955D01*
X164586756Y-109233357D01*
X164552699Y-109251086D01*
X164415384Y-109322568D01*
X164388607Y-109336507D01*
X164384474Y-109339610D01*
X164384471Y-109339612D01*
X164236476Y-109450730D01*
X164209965Y-109470635D01*
X164055629Y-109632138D01*
X164052715Y-109636410D01*
X164052714Y-109636411D01*
X163947898Y-109790066D01*
X163892987Y-109835069D01*
X163822462Y-109843240D01*
X163758715Y-109811986D01*
X163738018Y-109787502D01*
X163657426Y-109662926D01*
X163651136Y-109654757D01*
X163507806Y-109497240D01*
X163500273Y-109490215D01*
X163333139Y-109358222D01*
X163324552Y-109352517D01*
X163138117Y-109249599D01*
X163128705Y-109245369D01*
X162927959Y-109174280D01*
X162917988Y-109171646D01*
X162846837Y-109158972D01*
X162833540Y-109160432D01*
X162829000Y-109174989D01*
X162829000Y-111808517D01*
X162321000Y-111808517D01*
X162321000Y-109173102D01*
X162317082Y-109159758D01*
X162302806Y-109157771D01*
X162264324Y-109163660D01*
X162254288Y-109166051D01*
X162051868Y-109232212D01*
X162042359Y-109236209D01*
X161853463Y-109334542D01*
X161844738Y-109340036D01*
X161674433Y-109467905D01*
X161666726Y-109474748D01*
X161589478Y-109555584D01*
X161527954Y-109591014D01*
X161457042Y-109587557D01*
X161399255Y-109546311D01*
X161380402Y-109512763D01*
X161338767Y-109401703D01*
X161335615Y-109393295D01*
X161248261Y-109276739D01*
X161131705Y-109189385D01*
X161123296Y-109186233D01*
X161115425Y-109181923D01*
X161116336Y-109180259D01*
X161068510Y-109144337D01*
X161043807Y-109077776D01*
X161043500Y-109068991D01*
X161043500Y-107134926D01*
X161063502Y-107066805D01*
X161080404Y-107045831D01*
X161670829Y-106455405D01*
X161733142Y-106421380D01*
X161759925Y-106418500D01*
X163490565Y-106418500D01*
X163558686Y-106438502D01*
X163605179Y-106492158D01*
X163608547Y-106500270D01*
X163649385Y-106609205D01*
X163736739Y-106725761D01*
X163853295Y-106813115D01*
X163989684Y-106864245D01*
X164051866Y-106871000D01*
X166148134Y-106871000D01*
X166210316Y-106864245D01*
X166346705Y-106813115D01*
X166463261Y-106725761D01*
X166550615Y-106609205D01*
X166601745Y-106472816D01*
X166604356Y-106473795D01*
X166632955Y-106423719D01*
X166695905Y-106390890D01*
X166720332Y-106388500D01*
X167491491Y-106388500D01*
X167559612Y-106408502D01*
X167606105Y-106462158D01*
X167608403Y-106467694D01*
X167608732Y-106468296D01*
X167611885Y-106476705D01*
X167699239Y-106593261D01*
X167815795Y-106680615D01*
X167952184Y-106731745D01*
X168014366Y-106738500D01*
X169810634Y-106738500D01*
X169872816Y-106731745D01*
X170009205Y-106680615D01*
X170125761Y-106593261D01*
X170213115Y-106476705D01*
X170264245Y-106340316D01*
X170271000Y-106278134D01*
X170271000Y-104481866D01*
X170264245Y-104419684D01*
X170213115Y-104283295D01*
X170125761Y-104166739D01*
X170009205Y-104079385D01*
X169959427Y-104060724D01*
X169890187Y-104034767D01*
X169833423Y-103992125D01*
X169808723Y-103925564D01*
X169823930Y-103856215D01*
X169845477Y-103827535D01*
X169946552Y-103726812D01*
X169953230Y-103718965D01*
X170077503Y-103546020D01*
X170082813Y-103537183D01*
X170177170Y-103346267D01*
X170180969Y-103336672D01*
X170242877Y-103132910D01*
X170245055Y-103122837D01*
X170246486Y-103111962D01*
X170244275Y-103097778D01*
X170231117Y-103094000D01*
X167595725Y-103094000D01*
X167582194Y-103097973D01*
X167580757Y-103107966D01*
X167611065Y-103242446D01*
X167614145Y-103252275D01*
X167694270Y-103449603D01*
X167698913Y-103458794D01*
X167810194Y-103640388D01*
X167816277Y-103648699D01*
X167955713Y-103809667D01*
X167963077Y-103816879D01*
X167968022Y-103820985D01*
X168007656Y-103879889D01*
X168009153Y-103950870D01*
X167972037Y-104011392D01*
X167931764Y-104035910D01*
X167824205Y-104076232D01*
X167824204Y-104076233D01*
X167815795Y-104079385D01*
X167699239Y-104166739D01*
X167611885Y-104283295D01*
X167608733Y-104291703D01*
X167604423Y-104299575D01*
X167602759Y-104298664D01*
X167566837Y-104346490D01*
X167500276Y-104371193D01*
X167491491Y-104371500D01*
X166698188Y-104371500D01*
X166630067Y-104351498D01*
X166583574Y-104297842D01*
X166580206Y-104289729D01*
X166553768Y-104219205D01*
X166553767Y-104219203D01*
X166550615Y-104210795D01*
X166463261Y-104094239D01*
X166346705Y-104006885D01*
X166326317Y-103999242D01*
X166269553Y-103956599D01*
X166244854Y-103890038D01*
X166260062Y-103820689D01*
X166271666Y-103803168D01*
X166364945Y-103685056D01*
X166370650Y-103676469D01*
X166481714Y-103475278D01*
X166485944Y-103465866D01*
X166562659Y-103249232D01*
X166565293Y-103239261D01*
X166582647Y-103141837D01*
X166581187Y-103128540D01*
X166566630Y-103124000D01*
X163631904Y-103124000D01*
X163618560Y-103127918D01*
X163616573Y-103142194D01*
X163626110Y-103204515D01*
X163628499Y-103214543D01*
X163699898Y-103432988D01*
X163703895Y-103442497D01*
X163810011Y-103646344D01*
X163815500Y-103655061D01*
X163928902Y-103806099D01*
X163953807Y-103872584D01*
X163938814Y-103941980D01*
X163888684Y-103992253D01*
X163872375Y-103999732D01*
X163853295Y-104006885D01*
X163736739Y-104094239D01*
X163649385Y-104210795D01*
X163646233Y-104219203D01*
X163608547Y-104319730D01*
X163565905Y-104376494D01*
X163499344Y-104401194D01*
X163490565Y-104401500D01*
X161351842Y-104401500D01*
X161338235Y-104400763D01*
X161306737Y-104397341D01*
X161306732Y-104397341D01*
X161300611Y-104396676D01*
X161282611Y-104398251D01*
X161250609Y-104401050D01*
X161245784Y-104401379D01*
X161243313Y-104401500D01*
X161240231Y-104401500D01*
X161217763Y-104403703D01*
X161197489Y-104405691D01*
X161196174Y-104405813D01*
X161163913Y-104408636D01*
X161103587Y-104413913D01*
X161098468Y-104415400D01*
X161093167Y-104415920D01*
X161004194Y-104442782D01*
X161003054Y-104443120D01*
X160913663Y-104469091D01*
X160908929Y-104471545D01*
X160903831Y-104473084D01*
X160898387Y-104475978D01*
X160898386Y-104475979D01*
X160821831Y-104516684D01*
X160820663Y-104517298D01*
X160738074Y-104560108D01*
X160733911Y-104563431D01*
X160729204Y-104565934D01*
X160657082Y-104624755D01*
X160656226Y-104625446D01*
X160617027Y-104656738D01*
X160614523Y-104659242D01*
X160613805Y-104659884D01*
X160609472Y-104663585D01*
X160575938Y-104690935D01*
X160572011Y-104695682D01*
X160572009Y-104695684D01*
X160546713Y-104726262D01*
X160538723Y-104735042D01*
X159349219Y-105924547D01*
X159339418Y-105933372D01*
X159308453Y-105958447D01*
X159276853Y-105996375D01*
X159276157Y-105997210D01*
X159273500Y-106000266D01*
X159271691Y-106002075D01*
X159269744Y-106004445D01*
X159269737Y-106004453D01*
X159243061Y-106036930D01*
X159242634Y-106037446D01*
X159181854Y-106110396D01*
X159180155Y-106113512D01*
X159177897Y-106116261D01*
X159148502Y-106171082D01*
X159133055Y-106199890D01*
X159132637Y-106200663D01*
X159087178Y-106284041D01*
X159086113Y-106287439D01*
X159084438Y-106290563D01*
X159082637Y-106296454D01*
X159056726Y-106381204D01*
X159056466Y-106382043D01*
X159044139Y-106421380D01*
X159028035Y-106472768D01*
X159027651Y-106476303D01*
X159026613Y-106479698D01*
X159017015Y-106574185D01*
X159016928Y-106575008D01*
X159006676Y-106669388D01*
X159006985Y-106672924D01*
X159006626Y-106676462D01*
X159007205Y-106682587D01*
X159007205Y-106682588D01*
X159015560Y-106770970D01*
X159015640Y-106771847D01*
X159023332Y-106859767D01*
X159023913Y-106866413D01*
X159024648Y-106868942D01*
X159025176Y-106872694D01*
X159025235Y-106873316D01*
X159025009Y-106873337D01*
X159026500Y-106888826D01*
X159026500Y-108705074D01*
X159006498Y-108773195D01*
X158989596Y-108794169D01*
X158354171Y-109429595D01*
X158291858Y-109463620D01*
X158265075Y-109466500D01*
X129741426Y-109466500D01*
X129673305Y-109446498D01*
X129626812Y-109392842D01*
X129616708Y-109322568D01*
X129646202Y-109257988D01*
X129652330Y-109251405D01*
X130211883Y-108691851D01*
X130222027Y-108682749D01*
X130246718Y-108662897D01*
X130251525Y-108659032D01*
X130283820Y-108620544D01*
X130286978Y-108616925D01*
X130288624Y-108615110D01*
X130290809Y-108612925D01*
X130292764Y-108610545D01*
X130292773Y-108610535D01*
X130318049Y-108579764D01*
X130318891Y-108578749D01*
X130374694Y-108512245D01*
X130378654Y-108507526D01*
X130381223Y-108502852D01*
X130384602Y-108498739D01*
X130428475Y-108416915D01*
X130429084Y-108415793D01*
X130470964Y-108339614D01*
X130470965Y-108339612D01*
X130473933Y-108334213D01*
X130475545Y-108329131D01*
X130478062Y-108324437D01*
X130505262Y-108235469D01*
X130505608Y-108234358D01*
X130515652Y-108202699D01*
X130533735Y-108145694D01*
X130534329Y-108140398D01*
X130535887Y-108135302D01*
X130545290Y-108042743D01*
X130545411Y-108041607D01*
X130551000Y-107991773D01*
X130551000Y-107988246D01*
X130551055Y-107987261D01*
X130551502Y-107981581D01*
X130555874Y-107938538D01*
X130551559Y-107892891D01*
X130551000Y-107881033D01*
X130551000Y-103637730D01*
X130571002Y-103569609D01*
X130624658Y-103523116D01*
X130694932Y-103513012D01*
X130759512Y-103542506D01*
X130776962Y-103561026D01*
X130899332Y-103720501D01*
X130906893Y-103728724D01*
X131064694Y-103872312D01*
X131073594Y-103879067D01*
X131254315Y-103992434D01*
X131264281Y-103997511D01*
X131462214Y-104077080D01*
X131472929Y-104080315D01*
X131682801Y-104123777D01*
X131691938Y-104124980D01*
X131742490Y-104127895D01*
X131746137Y-104128000D01*
X131810385Y-104128000D01*
X131825624Y-104123525D01*
X131826829Y-104122135D01*
X131828500Y-104114452D01*
X131828500Y-104109885D01*
X132336500Y-104109885D01*
X132340975Y-104125124D01*
X132342365Y-104126329D01*
X132350048Y-104128000D01*
X132386675Y-104128000D01*
X132392270Y-104127751D01*
X132550578Y-104113622D01*
X132561592Y-104111640D01*
X132767360Y-104055349D01*
X132777841Y-104051451D01*
X132970403Y-103959603D01*
X132980016Y-103953918D01*
X133153267Y-103829425D01*
X133161733Y-103822117D01*
X133310192Y-103668918D01*
X133317235Y-103660221D01*
X133436219Y-103483156D01*
X133441605Y-103473358D01*
X133527357Y-103278010D01*
X133530922Y-103267418D01*
X133561124Y-103141616D01*
X133560419Y-103127530D01*
X133551540Y-103124000D01*
X132354615Y-103124000D01*
X132339376Y-103128475D01*
X132338172Y-103129864D01*
X132336500Y-103137548D01*
X132336500Y-104109885D01*
X131828500Y-104109885D01*
X131828500Y-102742000D01*
X131848502Y-102673879D01*
X131902158Y-102627386D01*
X131954500Y-102616000D01*
X133550911Y-102616000D01*
X133564893Y-102611895D01*
X133566386Y-102602272D01*
X133566334Y-102602027D01*
X133503602Y-102398117D01*
X133499381Y-102387771D01*
X133401529Y-102198186D01*
X133395543Y-102188755D01*
X133265668Y-102019499D01*
X133258107Y-102011276D01*
X133100306Y-101867688D01*
X133091406Y-101860933D01*
X132910685Y-101747566D01*
X132900719Y-101742489D01*
X132838142Y-101717333D01*
X132782397Y-101673367D01*
X132759272Y-101606242D01*
X132776109Y-101537271D01*
X132830893Y-101486700D01*
X132838738Y-101482958D01*
X132975718Y-101417622D01*
X133158154Y-101286529D01*
X133294986Y-101145330D01*
X133310589Y-101129229D01*
X133310591Y-101129226D01*
X133314492Y-101125201D01*
X133439790Y-100938738D01*
X133530088Y-100733033D01*
X133531435Y-100727425D01*
X133581222Y-100520046D01*
X133581222Y-100520045D01*
X133582532Y-100514589D01*
X133591065Y-100366590D01*
X133595140Y-100295917D01*
X133595140Y-100295914D01*
X133595463Y-100290310D01*
X133568475Y-100067285D01*
X133502418Y-99852565D01*
X133495732Y-99839610D01*
X133401954Y-99657919D01*
X133401954Y-99657918D01*
X133399382Y-99652936D01*
X133262623Y-99474708D01*
X133096464Y-99323515D01*
X133091717Y-99320537D01*
X133091714Y-99320535D01*
X132910905Y-99207115D01*
X132906156Y-99204136D01*
X132838750Y-99177039D01*
X132783010Y-99133075D01*
X132759884Y-99065950D01*
X132776721Y-98996979D01*
X132831505Y-98946408D01*
X132838738Y-98942958D01*
X132975718Y-98877622D01*
X133158154Y-98746529D01*
X133304263Y-98595757D01*
X133310589Y-98589229D01*
X133310591Y-98589226D01*
X133314492Y-98585201D01*
X133439790Y-98398738D01*
X133530088Y-98193033D01*
X133567288Y-98038087D01*
X133581222Y-97980046D01*
X133581222Y-97980045D01*
X133582532Y-97974589D01*
X133590161Y-97842278D01*
X133595140Y-97755917D01*
X133595140Y-97755914D01*
X133595463Y-97750310D01*
X133568475Y-97527285D01*
X133502418Y-97312565D01*
X133499412Y-97306740D01*
X133401954Y-97117919D01*
X133401954Y-97117918D01*
X133399382Y-97112936D01*
X133262623Y-96934708D01*
X133096464Y-96783515D01*
X133091717Y-96780537D01*
X133091714Y-96780535D01*
X132910905Y-96667115D01*
X132906156Y-96664136D01*
X132838750Y-96637039D01*
X132783010Y-96593075D01*
X132759884Y-96525950D01*
X132776721Y-96456979D01*
X132831505Y-96406408D01*
X132866687Y-96389627D01*
X132975718Y-96337622D01*
X133158154Y-96206529D01*
X133304263Y-96055757D01*
X133310589Y-96049229D01*
X133310591Y-96049226D01*
X133314492Y-96045201D01*
X133439790Y-95858738D01*
X133530088Y-95653033D01*
X133539982Y-95611825D01*
X133581222Y-95440046D01*
X133581222Y-95440045D01*
X133582532Y-95434589D01*
X133591212Y-95284035D01*
X133595140Y-95215917D01*
X133595140Y-95215914D01*
X133595463Y-95210310D01*
X133568475Y-94987285D01*
X133502418Y-94772565D01*
X133490925Y-94750296D01*
X133401954Y-94577919D01*
X133401954Y-94577918D01*
X133399382Y-94572936D01*
X133262623Y-94394708D01*
X133096464Y-94243515D01*
X133091717Y-94240537D01*
X133091714Y-94240535D01*
X132910905Y-94127115D01*
X132906156Y-94124136D01*
X132838750Y-94097039D01*
X132783010Y-94053075D01*
X132759884Y-93985950D01*
X132776721Y-93916979D01*
X132831505Y-93866408D01*
X132891164Y-93837952D01*
X132975718Y-93797622D01*
X133158154Y-93666529D01*
X133304263Y-93515757D01*
X133310589Y-93509229D01*
X133310591Y-93509226D01*
X133314492Y-93505201D01*
X133439790Y-93318738D01*
X133530088Y-93113033D01*
X133539115Y-93075436D01*
X133581222Y-92900046D01*
X133581222Y-92900045D01*
X133582532Y-92894589D01*
X133590886Y-92749690D01*
X133595140Y-92675917D01*
X133595140Y-92675914D01*
X133595463Y-92670310D01*
X133568475Y-92447285D01*
X133502418Y-92232565D01*
X133498553Y-92225075D01*
X133401954Y-92037919D01*
X133401954Y-92037918D01*
X133399382Y-92032936D01*
X133262623Y-91854708D01*
X133096464Y-91703515D01*
X133091717Y-91700537D01*
X133091714Y-91700535D01*
X132910905Y-91587115D01*
X132906156Y-91584136D01*
X132838750Y-91557039D01*
X132783010Y-91513075D01*
X132759884Y-91445950D01*
X132776721Y-91376979D01*
X132831505Y-91326408D01*
X132975718Y-91257622D01*
X133158154Y-91126529D01*
X133260567Y-91020847D01*
X133310589Y-90969229D01*
X133310591Y-90969226D01*
X133314492Y-90965201D01*
X133439790Y-90778738D01*
X133530088Y-90573033D01*
X133532584Y-90562639D01*
X133581222Y-90360046D01*
X133581222Y-90360045D01*
X133582532Y-90354589D01*
X133595463Y-90130310D01*
X133568475Y-89907285D01*
X133502418Y-89692565D01*
X133495732Y-89679610D01*
X133401954Y-89497919D01*
X133401954Y-89497918D01*
X133399382Y-89492936D01*
X133262623Y-89314708D01*
X133096464Y-89163515D01*
X133091717Y-89160537D01*
X133091714Y-89160535D01*
X132910905Y-89047115D01*
X132906156Y-89044136D01*
X132838750Y-89017039D01*
X132783010Y-88973075D01*
X132759884Y-88905950D01*
X132776721Y-88836979D01*
X132831505Y-88786408D01*
X132975718Y-88717622D01*
X133158154Y-88586529D01*
X133314492Y-88425201D01*
X133439790Y-88238738D01*
X133530088Y-88033033D01*
X133551696Y-87943032D01*
X133581222Y-87820046D01*
X133581222Y-87820045D01*
X133582532Y-87814589D01*
X133591372Y-87661273D01*
X133595140Y-87595917D01*
X133595140Y-87595914D01*
X133595463Y-87590310D01*
X133568475Y-87367285D01*
X133502418Y-87152565D01*
X133437298Y-87026396D01*
X133401954Y-86957919D01*
X133401954Y-86957918D01*
X133399382Y-86952936D01*
X133262623Y-86774708D01*
X133096464Y-86623515D01*
X133091717Y-86620537D01*
X133091714Y-86620535D01*
X132910905Y-86507115D01*
X132906156Y-86504136D01*
X132838750Y-86477039D01*
X132783010Y-86433075D01*
X132759884Y-86365950D01*
X132776721Y-86296979D01*
X132831505Y-86246408D01*
X132891164Y-86217952D01*
X132975718Y-86177622D01*
X133158154Y-86046529D01*
X133232634Y-85969672D01*
X133310589Y-85889229D01*
X133310591Y-85889226D01*
X133314492Y-85885201D01*
X133439790Y-85698738D01*
X133530088Y-85493033D01*
X133582532Y-85274589D01*
X133591210Y-85124083D01*
X133595140Y-85055917D01*
X133595140Y-85055914D01*
X133595463Y-85050310D01*
X133568475Y-84827285D01*
X133502418Y-84612565D01*
X133499756Y-84607406D01*
X133401954Y-84417919D01*
X133401954Y-84417918D01*
X133399382Y-84412936D01*
X133262623Y-84234708D01*
X133096464Y-84083515D01*
X133091717Y-84080537D01*
X133091714Y-84080535D01*
X132910905Y-83967115D01*
X132906156Y-83964136D01*
X132838750Y-83937039D01*
X132783010Y-83893075D01*
X132759884Y-83825950D01*
X132776721Y-83756979D01*
X132831505Y-83706408D01*
X132840080Y-83702318D01*
X132975718Y-83637622D01*
X133158154Y-83506529D01*
X133275903Y-83385022D01*
X133310589Y-83349229D01*
X133310591Y-83349226D01*
X133314492Y-83345201D01*
X133439790Y-83158738D01*
X133530088Y-82953033D01*
X133534464Y-82934808D01*
X133581222Y-82740046D01*
X133581222Y-82740045D01*
X133582532Y-82734589D01*
X133593724Y-82540475D01*
X133595140Y-82515917D01*
X133595140Y-82515914D01*
X133595463Y-82510310D01*
X133568475Y-82287285D01*
X133502418Y-82072565D01*
X133496659Y-82061406D01*
X133401954Y-81877919D01*
X133401954Y-81877918D01*
X133399382Y-81872936D01*
X133262623Y-81694708D01*
X133096464Y-81543515D01*
X133091717Y-81540537D01*
X133091714Y-81540535D01*
X132910905Y-81427115D01*
X132906156Y-81424136D01*
X132838750Y-81397039D01*
X132783010Y-81353075D01*
X132759884Y-81285950D01*
X132776721Y-81216979D01*
X132831505Y-81166408D01*
X132838738Y-81162958D01*
X132975718Y-81097622D01*
X133052878Y-81042177D01*
X133126404Y-81018500D01*
X133288157Y-81018500D01*
X133301764Y-81019237D01*
X133333262Y-81022659D01*
X133333267Y-81022659D01*
X133339388Y-81023324D01*
X133365638Y-81021027D01*
X133389388Y-81018950D01*
X133394214Y-81018621D01*
X133396686Y-81018500D01*
X133399769Y-81018500D01*
X133411738Y-81017326D01*
X133442506Y-81014310D01*
X133443819Y-81014188D01*
X133488084Y-81010315D01*
X133536413Y-81006087D01*
X133541532Y-81004600D01*
X133546833Y-81004080D01*
X133635834Y-80977209D01*
X133636967Y-80976874D01*
X133720414Y-80952630D01*
X133720418Y-80952628D01*
X133726336Y-80950909D01*
X133731068Y-80948456D01*
X133736169Y-80946916D01*
X133741612Y-80944022D01*
X133818260Y-80903269D01*
X133819426Y-80902657D01*
X133896453Y-80862729D01*
X133901926Y-80859892D01*
X133906089Y-80856569D01*
X133910796Y-80854066D01*
X133982918Y-80795245D01*
X133983774Y-80794554D01*
X134022973Y-80763262D01*
X134025477Y-80760758D01*
X134026195Y-80760116D01*
X134030528Y-80756415D01*
X134064062Y-80729065D01*
X134081954Y-80707438D01*
X134093287Y-80693738D01*
X134101277Y-80684958D01*
X135289379Y-79496855D01*
X135299522Y-79487753D01*
X135324218Y-79467897D01*
X135329025Y-79464032D01*
X135361320Y-79425544D01*
X135364478Y-79421925D01*
X135366124Y-79420110D01*
X135368309Y-79417925D01*
X135370264Y-79415545D01*
X135370273Y-79415535D01*
X135395549Y-79384764D01*
X135396391Y-79383749D01*
X135429466Y-79344332D01*
X135456154Y-79312526D01*
X135458723Y-79307852D01*
X135462102Y-79303739D01*
X135505975Y-79221915D01*
X135506584Y-79220793D01*
X135548464Y-79144614D01*
X135548465Y-79144612D01*
X135551433Y-79139213D01*
X135553045Y-79134131D01*
X135555562Y-79129437D01*
X135582762Y-79040469D01*
X135583108Y-79039358D01*
X135591454Y-79013051D01*
X135611235Y-78950694D01*
X135611829Y-78945398D01*
X135613387Y-78940302D01*
X135622790Y-78847743D01*
X135622911Y-78846607D01*
X135627985Y-78801364D01*
X135628108Y-78800270D01*
X135628108Y-78800266D01*
X135628500Y-78796773D01*
X135628500Y-78793246D01*
X135628555Y-78792261D01*
X135629002Y-78786581D01*
X135632565Y-78751500D01*
X135632752Y-78749663D01*
X135632752Y-78749661D01*
X135633374Y-78743538D01*
X135629059Y-78697891D01*
X135628500Y-78686033D01*
X135628500Y-71181843D01*
X135629237Y-71168236D01*
X135632659Y-71136738D01*
X135632659Y-71136733D01*
X135633324Y-71130612D01*
X135630238Y-71095337D01*
X135628950Y-71080612D01*
X135628621Y-71075786D01*
X135628500Y-71073314D01*
X135628500Y-71070231D01*
X135626714Y-71052012D01*
X135624310Y-71027494D01*
X135624188Y-71026181D01*
X135616623Y-70939718D01*
X135616087Y-70933587D01*
X135614600Y-70928468D01*
X135614080Y-70923167D01*
X135587209Y-70834166D01*
X135586874Y-70833033D01*
X135562630Y-70749586D01*
X135562628Y-70749582D01*
X135560909Y-70743664D01*
X135558456Y-70738932D01*
X135556916Y-70733831D01*
X135513269Y-70651740D01*
X135512657Y-70650574D01*
X135472729Y-70573547D01*
X135469892Y-70568074D01*
X135466569Y-70563911D01*
X135464066Y-70559204D01*
X135459067Y-70553074D01*
X135442265Y-70532474D01*
X135405245Y-70487082D01*
X135404554Y-70486226D01*
X135373262Y-70447027D01*
X135370758Y-70444523D01*
X135370116Y-70443805D01*
X135366415Y-70439472D01*
X135339065Y-70405938D01*
X135329770Y-70398248D01*
X135303738Y-70376713D01*
X135294958Y-70368723D01*
X134510418Y-69584183D01*
X158686889Y-69584183D01*
X158688412Y-69592607D01*
X158700792Y-69596000D01*
X159750385Y-69596000D01*
X159765624Y-69591525D01*
X159766829Y-69590135D01*
X159768500Y-69582452D01*
X159768500Y-69577885D01*
X160276500Y-69577885D01*
X160280975Y-69593124D01*
X160282365Y-69594329D01*
X160290048Y-69596000D01*
X161340844Y-69596000D01*
X161354375Y-69592027D01*
X161355680Y-69582947D01*
X161313714Y-69415875D01*
X161310394Y-69406124D01*
X161225472Y-69210814D01*
X161220605Y-69201739D01*
X161104926Y-69022926D01*
X161098636Y-69014757D01*
X160955306Y-68857240D01*
X160947773Y-68850215D01*
X160780639Y-68718222D01*
X160772052Y-68712517D01*
X160585617Y-68609599D01*
X160576205Y-68605369D01*
X160375459Y-68534280D01*
X160365488Y-68531646D01*
X160294337Y-68518972D01*
X160281040Y-68520432D01*
X160276500Y-68534989D01*
X160276500Y-69577885D01*
X159768500Y-69577885D01*
X159768500Y-68533102D01*
X159764582Y-68519758D01*
X159750306Y-68517771D01*
X159711824Y-68523660D01*
X159701788Y-68526051D01*
X159499368Y-68592212D01*
X159489859Y-68596209D01*
X159300963Y-68694542D01*
X159292238Y-68700036D01*
X159121933Y-68827905D01*
X159114226Y-68834748D01*
X158967090Y-68988717D01*
X158960606Y-68996725D01*
X158840598Y-69172649D01*
X158835500Y-69181623D01*
X158745838Y-69374783D01*
X158742275Y-69384470D01*
X158686889Y-69584183D01*
X134510418Y-69584183D01*
X131551855Y-66625621D01*
X131542753Y-66615478D01*
X131522897Y-66590782D01*
X131519032Y-66585975D01*
X131480578Y-66553708D01*
X131476931Y-66550528D01*
X131475119Y-66548885D01*
X131472925Y-66546691D01*
X131439651Y-66519358D01*
X131438853Y-66518696D01*
X131367526Y-66458846D01*
X131362856Y-66456278D01*
X131358739Y-66452897D01*
X131276914Y-66409023D01*
X131275755Y-66408394D01*
X131199619Y-66366538D01*
X131199611Y-66366535D01*
X131194213Y-66363567D01*
X131189131Y-66361955D01*
X131184437Y-66359438D01*
X131095469Y-66332238D01*
X131094441Y-66331918D01*
X131005694Y-66303765D01*
X131000398Y-66303171D01*
X130995302Y-66301613D01*
X130902743Y-66292210D01*
X130901607Y-66292089D01*
X130867992Y-66288319D01*
X130855270Y-66286892D01*
X130855266Y-66286892D01*
X130851773Y-66286500D01*
X130848246Y-66286500D01*
X130847261Y-66286445D01*
X130841581Y-66285998D01*
X130812175Y-66283011D01*
X130804663Y-66282248D01*
X130804661Y-66282248D01*
X130798538Y-66281626D01*
X130756259Y-66285623D01*
X130752891Y-66285941D01*
X130741033Y-66286500D01*
X127893240Y-66286500D01*
X127820969Y-66263713D01*
X127771932Y-66229377D01*
X127669249Y-66157477D01*
X127664267Y-66155154D01*
X127664262Y-66155151D01*
X127466725Y-66063039D01*
X127466724Y-66063039D01*
X127461743Y-66060716D01*
X127456435Y-66059294D01*
X127456433Y-66059293D01*
X127276974Y-66011207D01*
X127216351Y-65974255D01*
X127185330Y-65910394D01*
X127193758Y-65839900D01*
X127238961Y-65785153D01*
X127309585Y-65763500D01*
X163362575Y-65763500D01*
X163430696Y-65783502D01*
X163451670Y-65800405D01*
X165327095Y-67675830D01*
X165361121Y-67738142D01*
X165364000Y-67764925D01*
X165364000Y-71900610D01*
X165343998Y-71968731D01*
X165290342Y-72015224D01*
X165220068Y-72025328D01*
X165155488Y-71995834D01*
X165122450Y-71950852D01*
X165035472Y-71750814D01*
X165030605Y-71741739D01*
X164914926Y-71562926D01*
X164908636Y-71554757D01*
X164765306Y-71397240D01*
X164757773Y-71390215D01*
X164590639Y-71258222D01*
X164582052Y-71252517D01*
X164395617Y-71149599D01*
X164386205Y-71145369D01*
X164185459Y-71074280D01*
X164175488Y-71071646D01*
X164104337Y-71058972D01*
X164091040Y-71060432D01*
X164086500Y-71074989D01*
X164086500Y-72518000D01*
X164066498Y-72586121D01*
X164012842Y-72632614D01*
X163960500Y-72644000D01*
X162515725Y-72644000D01*
X162502194Y-72647973D01*
X162500757Y-72657966D01*
X162531065Y-72792446D01*
X162534145Y-72802275D01*
X162614270Y-72999603D01*
X162618913Y-73008794D01*
X162730194Y-73190388D01*
X162736277Y-73198699D01*
X162875713Y-73359667D01*
X162883080Y-73366883D01*
X163046934Y-73502916D01*
X163055381Y-73508831D01*
X163124469Y-73549203D01*
X163173193Y-73600842D01*
X163186264Y-73670625D01*
X163159533Y-73736396D01*
X163119084Y-73769752D01*
X163106107Y-73776507D01*
X163101974Y-73779610D01*
X163101971Y-73779612D01*
X162931600Y-73907530D01*
X162927465Y-73910635D01*
X162921860Y-73916500D01*
X162792541Y-74051825D01*
X162773129Y-74072138D01*
X162770215Y-74076410D01*
X162770214Y-74076411D01*
X162727210Y-74139453D01*
X162647243Y-74256680D01*
X162645064Y-74261375D01*
X162556317Y-74452565D01*
X162553188Y-74459305D01*
X162493489Y-74674570D01*
X162469751Y-74896695D01*
X162470048Y-74901848D01*
X162470048Y-74901851D01*
X162482024Y-75109547D01*
X162482610Y-75119715D01*
X162483747Y-75124761D01*
X162483748Y-75124767D01*
X162497666Y-75186524D01*
X162531722Y-75337639D01*
X162615766Y-75544616D01*
X162654034Y-75607064D01*
X162728897Y-75729229D01*
X162732487Y-75735088D01*
X162878750Y-75903938D01*
X163007964Y-76011213D01*
X163040623Y-76038327D01*
X163050626Y-76046632D01*
X163112791Y-76082958D01*
X163123945Y-76089476D01*
X163172669Y-76141114D01*
X163185740Y-76210897D01*
X163159009Y-76276669D01*
X163118555Y-76310027D01*
X163111707Y-76313592D01*
X163106107Y-76316507D01*
X163101974Y-76319610D01*
X163101971Y-76319612D01*
X162999316Y-76396688D01*
X162955772Y-76429382D01*
X162946611Y-76436260D01*
X162880126Y-76461166D01*
X162870958Y-76461500D01*
X160881650Y-76461500D01*
X160813529Y-76441498D01*
X160767036Y-76387842D01*
X160756932Y-76317568D01*
X160786426Y-76252988D01*
X160815815Y-76228067D01*
X160837486Y-76214787D01*
X160911916Y-76169176D01*
X161092469Y-76014969D01*
X161246676Y-75834416D01*
X161249255Y-75830208D01*
X161249259Y-75830202D01*
X161368154Y-75636183D01*
X161370740Y-75631963D01*
X161373066Y-75626349D01*
X161459711Y-75417167D01*
X161459712Y-75417165D01*
X161461605Y-75412594D01*
X161498543Y-75258736D01*
X161515880Y-75186524D01*
X161515881Y-75186518D01*
X161517035Y-75181711D01*
X161535665Y-74945000D01*
X161517035Y-74708289D01*
X161514081Y-74695982D01*
X161474813Y-74532422D01*
X161461605Y-74477406D01*
X161459711Y-74472833D01*
X161372635Y-74262611D01*
X161372633Y-74262607D01*
X161370740Y-74258037D01*
X161309553Y-74158189D01*
X161249259Y-74059798D01*
X161249255Y-74059792D01*
X161246676Y-74055584D01*
X161093512Y-73876253D01*
X161064482Y-73811464D01*
X161075087Y-73741264D01*
X161119392Y-73690865D01*
X161119205Y-73690615D01*
X161120399Y-73689720D01*
X161235761Y-73603261D01*
X161323115Y-73486705D01*
X161374245Y-73350316D01*
X161381000Y-73288134D01*
X161381000Y-72124183D01*
X162496889Y-72124183D01*
X162498412Y-72132607D01*
X162510792Y-72136000D01*
X163560385Y-72136000D01*
X163575624Y-72131525D01*
X163576829Y-72130135D01*
X163578500Y-72122452D01*
X163578500Y-71073102D01*
X163574582Y-71059758D01*
X163560306Y-71057771D01*
X163521824Y-71063660D01*
X163511788Y-71066051D01*
X163309368Y-71132212D01*
X163299859Y-71136209D01*
X163110963Y-71234542D01*
X163102238Y-71240036D01*
X162931933Y-71367905D01*
X162924226Y-71374748D01*
X162777090Y-71528717D01*
X162770604Y-71536727D01*
X162650598Y-71712649D01*
X162645500Y-71721623D01*
X162555838Y-71914783D01*
X162552275Y-71924470D01*
X162496889Y-72124183D01*
X161381000Y-72124183D01*
X161381000Y-71491866D01*
X161374245Y-71429684D01*
X161323115Y-71293295D01*
X161235761Y-71176739D01*
X161119205Y-71089385D01*
X161080804Y-71074989D01*
X161000187Y-71044767D01*
X160943423Y-71002125D01*
X160918723Y-70935564D01*
X160933930Y-70866215D01*
X160955477Y-70837535D01*
X161056552Y-70736812D01*
X161063230Y-70728965D01*
X161187503Y-70556020D01*
X161192813Y-70547183D01*
X161287170Y-70356267D01*
X161290969Y-70346672D01*
X161352877Y-70142910D01*
X161355055Y-70132837D01*
X161356486Y-70121962D01*
X161354275Y-70107778D01*
X161341117Y-70104000D01*
X158705725Y-70104000D01*
X158692194Y-70107973D01*
X158690757Y-70117966D01*
X158721065Y-70252446D01*
X158724145Y-70262275D01*
X158804270Y-70459603D01*
X158808913Y-70468794D01*
X158920194Y-70650388D01*
X158926277Y-70658699D01*
X159065713Y-70819667D01*
X159073077Y-70826879D01*
X159078022Y-70830985D01*
X159117656Y-70889889D01*
X159119153Y-70960870D01*
X159082037Y-71021392D01*
X159041764Y-71045910D01*
X158934205Y-71086232D01*
X158934204Y-71086233D01*
X158925795Y-71089385D01*
X158809239Y-71176739D01*
X158721885Y-71293295D01*
X158718733Y-71301703D01*
X158714423Y-71309575D01*
X158712759Y-71308664D01*
X158676837Y-71356490D01*
X158610276Y-71381193D01*
X158601491Y-71381500D01*
X155989501Y-71381500D01*
X155922545Y-71362238D01*
X155838593Y-71309575D01*
X155766156Y-71264136D01*
X155557717Y-71180344D01*
X155337733Y-71134787D01*
X155333122Y-71134521D01*
X155333121Y-71134521D01*
X155282548Y-71131605D01*
X155282544Y-71131605D01*
X155280725Y-71131500D01*
X154635501Y-71131500D01*
X154632714Y-71131749D01*
X154632708Y-71131749D01*
X154562571Y-71138009D01*
X154468738Y-71146383D01*
X154463324Y-71147864D01*
X154463319Y-71147865D01*
X154348762Y-71179205D01*
X154252049Y-71205663D01*
X154246991Y-71208075D01*
X154246987Y-71208077D01*
X154178731Y-71240634D01*
X154049282Y-71302378D01*
X153866846Y-71433471D01*
X153816106Y-71485831D01*
X153758145Y-71545642D01*
X153710508Y-71594799D01*
X153585210Y-71781262D01*
X153494912Y-71986967D01*
X153493603Y-71992418D01*
X153493602Y-71992422D01*
X153454335Y-72155982D01*
X153442468Y-72205411D01*
X153442145Y-72211016D01*
X153432375Y-72380475D01*
X153429537Y-72429690D01*
X153456525Y-72652715D01*
X153522582Y-72867435D01*
X153525152Y-72872415D01*
X153525154Y-72872419D01*
X153609717Y-73036257D01*
X153625618Y-73067064D01*
X153762377Y-73245292D01*
X153928536Y-73396485D01*
X153933283Y-73399463D01*
X153933286Y-73399465D01*
X154064389Y-73481705D01*
X154118844Y-73515864D01*
X154186250Y-73542961D01*
X154241990Y-73586925D01*
X154265116Y-73654050D01*
X154248279Y-73723021D01*
X154193495Y-73773592D01*
X154049282Y-73842378D01*
X153866846Y-73973471D01*
X153807937Y-74034260D01*
X153737902Y-74106531D01*
X153710508Y-74134799D01*
X153585210Y-74321262D01*
X153494912Y-74526967D01*
X153493603Y-74532418D01*
X153493602Y-74532422D01*
X153454335Y-74695982D01*
X153442468Y-74745411D01*
X153442145Y-74751016D01*
X153430961Y-74945000D01*
X153429537Y-74969690D01*
X153456525Y-75192715D01*
X153522582Y-75407435D01*
X153525152Y-75412415D01*
X153525154Y-75412419D01*
X153609717Y-75576257D01*
X153625618Y-75607064D01*
X153762377Y-75785292D01*
X153928536Y-75936485D01*
X153933283Y-75939463D01*
X153933286Y-75939465D01*
X154108485Y-76049366D01*
X154118844Y-76055864D01*
X154186250Y-76082961D01*
X154241990Y-76126925D01*
X154265116Y-76194050D01*
X154248279Y-76263021D01*
X154193495Y-76313592D01*
X154049282Y-76382378D01*
X153866846Y-76513471D01*
X153862939Y-76517503D01*
X153741695Y-76642617D01*
X153710508Y-76674799D01*
X153585210Y-76861262D01*
X153494912Y-77066967D01*
X153493603Y-77072418D01*
X153493602Y-77072422D01*
X153454335Y-77235982D01*
X153442468Y-77285411D01*
X153442145Y-77291016D01*
X153432375Y-77460475D01*
X153429537Y-77509690D01*
X153456525Y-77732715D01*
X153522582Y-77947435D01*
X153525152Y-77952415D01*
X153525154Y-77952419D01*
X153609717Y-78116257D01*
X153625618Y-78147064D01*
X153762377Y-78325292D01*
X153928536Y-78476485D01*
X153933283Y-78479463D01*
X153933286Y-78479465D01*
X154108485Y-78589366D01*
X154118844Y-78595864D01*
X154186250Y-78622961D01*
X154241990Y-78666925D01*
X154265116Y-78734050D01*
X154248279Y-78803021D01*
X154193495Y-78853592D01*
X154049282Y-78922378D01*
X153939172Y-79001500D01*
X153873930Y-79048381D01*
X153866846Y-79053471D01*
X153862939Y-79057503D01*
X153741691Y-79182621D01*
X153710508Y-79214799D01*
X153585210Y-79401262D01*
X153494912Y-79606967D01*
X153493603Y-79612418D01*
X153493602Y-79612422D01*
X153454335Y-79775982D01*
X153442468Y-79825411D01*
X153442145Y-79831016D01*
X153432375Y-80000475D01*
X153429537Y-80049690D01*
X153456525Y-80272715D01*
X153522582Y-80487435D01*
X153525152Y-80492415D01*
X153525154Y-80492419D01*
X153609717Y-80656257D01*
X153625618Y-80687064D01*
X153762377Y-80865292D01*
X153928536Y-81016485D01*
X153933283Y-81019463D01*
X153933286Y-81019465D01*
X154108485Y-81129366D01*
X154118844Y-81135864D01*
X154186250Y-81162961D01*
X154241990Y-81206925D01*
X154265116Y-81274050D01*
X154248279Y-81343021D01*
X154193495Y-81393592D01*
X154049282Y-81462378D01*
X153931117Y-81547288D01*
X153873930Y-81588381D01*
X153866846Y-81593471D01*
X153862939Y-81597503D01*
X153715715Y-81749426D01*
X153710508Y-81754799D01*
X153585210Y-81941262D01*
X153494912Y-82146967D01*
X153493603Y-82152418D01*
X153493602Y-82152422D01*
X153451603Y-82327361D01*
X153442468Y-82365411D01*
X153442145Y-82371016D01*
X153432375Y-82540475D01*
X153429537Y-82589690D01*
X153456525Y-82812715D01*
X153522582Y-83027435D01*
X153525152Y-83032415D01*
X153525154Y-83032419D01*
X153609588Y-83196007D01*
X153625618Y-83227064D01*
X153762377Y-83405292D01*
X153928536Y-83556485D01*
X153933283Y-83559463D01*
X153933286Y-83559465D01*
X154108291Y-83669244D01*
X154118844Y-83675864D01*
X154186250Y-83702961D01*
X154241990Y-83746925D01*
X154265116Y-83814050D01*
X154248279Y-83883021D01*
X154193495Y-83933592D01*
X154049282Y-84002378D01*
X153866846Y-84133471D01*
X153710508Y-84294799D01*
X153585210Y-84481262D01*
X153494912Y-84686967D01*
X153493603Y-84692418D01*
X153493602Y-84692422D01*
X153454981Y-84853289D01*
X153442468Y-84905411D01*
X153442145Y-84911016D01*
X153432110Y-85085070D01*
X153429537Y-85129690D01*
X153456525Y-85352715D01*
X153522582Y-85567435D01*
X153525152Y-85572415D01*
X153525154Y-85572419D01*
X153609717Y-85736257D01*
X153625618Y-85767064D01*
X153762377Y-85945292D01*
X153928536Y-86096485D01*
X153933283Y-86099463D01*
X153933286Y-86099465D01*
X154072360Y-86186705D01*
X154118844Y-86215864D01*
X154186250Y-86242961D01*
X154241990Y-86286925D01*
X154265116Y-86354050D01*
X154248279Y-86423021D01*
X154193495Y-86473592D01*
X154049282Y-86542378D01*
X153866846Y-86673471D01*
X153862939Y-86677503D01*
X153756231Y-86787617D01*
X153710508Y-86834799D01*
X153585210Y-87021262D01*
X153494912Y-87226967D01*
X153493603Y-87232418D01*
X153493602Y-87232422D01*
X153486580Y-87261671D01*
X153442468Y-87445411D01*
X153442145Y-87451016D01*
X153430901Y-87646037D01*
X153429537Y-87669690D01*
X153456525Y-87892715D01*
X153522582Y-88107435D01*
X153525152Y-88112415D01*
X153525154Y-88112419D01*
X153589494Y-88237075D01*
X153625618Y-88307064D01*
X153762377Y-88485292D01*
X153928536Y-88636485D01*
X153933283Y-88639463D01*
X153933286Y-88639465D01*
X154080584Y-88731864D01*
X154118844Y-88755864D01*
X154186250Y-88782961D01*
X154241990Y-88826925D01*
X154265116Y-88894050D01*
X154248279Y-88963021D01*
X154193495Y-89013592D01*
X154049282Y-89082378D01*
X153866846Y-89213471D01*
X153851173Y-89229644D01*
X153757862Y-89325934D01*
X153710508Y-89374799D01*
X153585210Y-89561262D01*
X153494912Y-89766967D01*
X153493603Y-89772418D01*
X153493602Y-89772422D01*
X153462512Y-89901923D01*
X153442468Y-89985411D01*
X153442145Y-89991016D01*
X153433837Y-90135116D01*
X153429537Y-90209690D01*
X153456525Y-90432715D01*
X153522582Y-90647435D01*
X153525152Y-90652415D01*
X153525154Y-90652419D01*
X153587917Y-90774020D01*
X153625618Y-90847064D01*
X153762377Y-91025292D01*
X153928536Y-91176485D01*
X153933283Y-91179463D01*
X153933286Y-91179465D01*
X154084375Y-91274242D01*
X154118844Y-91295864D01*
X154186250Y-91322961D01*
X154241990Y-91366925D01*
X154265116Y-91434050D01*
X154248279Y-91503021D01*
X154193495Y-91553592D01*
X154049282Y-91622378D01*
X153866846Y-91753471D01*
X153851173Y-91769644D01*
X153744982Y-91879225D01*
X153710508Y-91914799D01*
X153585210Y-92101262D01*
X153494912Y-92306967D01*
X153493603Y-92312418D01*
X153493602Y-92312422D01*
X153443778Y-92519954D01*
X153442468Y-92525411D01*
X153442145Y-92531016D01*
X153432633Y-92695999D01*
X153429537Y-92749690D01*
X153456525Y-92972715D01*
X153522582Y-93187435D01*
X153525152Y-93192415D01*
X153525154Y-93192419D01*
X153595308Y-93328339D01*
X153625618Y-93387064D01*
X153762377Y-93565292D01*
X153928536Y-93716485D01*
X153933283Y-93719463D01*
X153933286Y-93719465D01*
X154114095Y-93832885D01*
X154118844Y-93835864D01*
X154186250Y-93862961D01*
X154241990Y-93906925D01*
X154265116Y-93974050D01*
X154248279Y-94043021D01*
X154193495Y-94093592D01*
X154049282Y-94162378D01*
X153866846Y-94293471D01*
X153845034Y-94315979D01*
X153744982Y-94419225D01*
X153710508Y-94454799D01*
X153585210Y-94641262D01*
X153494912Y-94846967D01*
X153493603Y-94852418D01*
X153493602Y-94852422D01*
X153455659Y-95010465D01*
X153442468Y-95065411D01*
X153442145Y-95071016D01*
X153432633Y-95235999D01*
X153429537Y-95289690D01*
X153456525Y-95512715D01*
X153522582Y-95727435D01*
X153525152Y-95732415D01*
X153525154Y-95732419D01*
X153590352Y-95858738D01*
X153625618Y-95927064D01*
X153762377Y-96105292D01*
X153928536Y-96256485D01*
X153933283Y-96259463D01*
X153933286Y-96259465D01*
X154086543Y-96355602D01*
X154118844Y-96375864D01*
X154186250Y-96402961D01*
X154241990Y-96446925D01*
X154265116Y-96514050D01*
X154248279Y-96583021D01*
X154193495Y-96633592D01*
X154049282Y-96702378D01*
X153866846Y-96833471D01*
X153821941Y-96879809D01*
X153727595Y-96977167D01*
X153710508Y-96994799D01*
X153585210Y-97181262D01*
X153494912Y-97386967D01*
X153493603Y-97392418D01*
X153493602Y-97392422D01*
X153447736Y-97583468D01*
X153442468Y-97605411D01*
X153439274Y-97660805D01*
X153429909Y-97823242D01*
X153429537Y-97829690D01*
X153456525Y-98052715D01*
X153522582Y-98267435D01*
X153525152Y-98272415D01*
X153525154Y-98272419D01*
X153590352Y-98398738D01*
X153625618Y-98467064D01*
X153762377Y-98645292D01*
X153928536Y-98796485D01*
X153933283Y-98799463D01*
X153933286Y-98799465D01*
X154114095Y-98912885D01*
X154118844Y-98915864D01*
X154186250Y-98942961D01*
X154241990Y-98986925D01*
X154265116Y-99054050D01*
X154248279Y-99123021D01*
X154193495Y-99173592D01*
X154049282Y-99242378D01*
X153866846Y-99373471D01*
X153862939Y-99377503D01*
X153744982Y-99499225D01*
X153710508Y-99534799D01*
X153585210Y-99721262D01*
X153494912Y-99926967D01*
X153493603Y-99932418D01*
X153493602Y-99932422D01*
X153462512Y-100061923D01*
X153442468Y-100145411D01*
X153442145Y-100151016D01*
X153431344Y-100338357D01*
X153429537Y-100369690D01*
X153456525Y-100592715D01*
X153522582Y-100807435D01*
X153525152Y-100812415D01*
X153525154Y-100812419D01*
X153587917Y-100934020D01*
X153625618Y-101007064D01*
X153762377Y-101185292D01*
X153928536Y-101336485D01*
X153933283Y-101339463D01*
X153933286Y-101339465D01*
X154094146Y-101440371D01*
X154118844Y-101455864D01*
X154186250Y-101482961D01*
X154241990Y-101526925D01*
X154265116Y-101594050D01*
X154248279Y-101663021D01*
X154193495Y-101713592D01*
X154049282Y-101782378D01*
X153866846Y-101913471D01*
X153803618Y-101978717D01*
X153744982Y-102039225D01*
X153710508Y-102074799D01*
X153585210Y-102261262D01*
X153494912Y-102466967D01*
X153493603Y-102472418D01*
X153493602Y-102472422D01*
X153443778Y-102679954D01*
X153442468Y-102685411D01*
X153440194Y-102724849D01*
X153431236Y-102880229D01*
X153429537Y-102909690D01*
X153456525Y-103132715D01*
X153522582Y-103347435D01*
X153525152Y-103352415D01*
X153525154Y-103352419D01*
X153620518Y-103537183D01*
X153625618Y-103547064D01*
X153762377Y-103725292D01*
X153928536Y-103876485D01*
X153933283Y-103879463D01*
X153933286Y-103879465D01*
X154113376Y-103992434D01*
X154118844Y-103995864D01*
X154327283Y-104079656D01*
X154547267Y-104125213D01*
X154551878Y-104125479D01*
X154551879Y-104125479D01*
X154602452Y-104128395D01*
X154602456Y-104128395D01*
X154604275Y-104128500D01*
X155249499Y-104128500D01*
X155252286Y-104128251D01*
X155252292Y-104128251D01*
X155322429Y-104121991D01*
X155416262Y-104113617D01*
X155421676Y-104112136D01*
X155421681Y-104112135D01*
X155549817Y-104077080D01*
X155632951Y-104054337D01*
X155638009Y-104051925D01*
X155638013Y-104051923D01*
X155755542Y-103995864D01*
X155835718Y-103957622D01*
X156018154Y-103826529D01*
X156092637Y-103749669D01*
X157394501Y-103749669D01*
X157394871Y-103756490D01*
X157400395Y-103807352D01*
X157404021Y-103822604D01*
X157449176Y-103943054D01*
X157457714Y-103958649D01*
X157534215Y-104060724D01*
X157546776Y-104073285D01*
X157648851Y-104149786D01*
X157664446Y-104158324D01*
X157784894Y-104203478D01*
X157800149Y-104207105D01*
X157851014Y-104212631D01*
X157857828Y-104213000D01*
X158480385Y-104213000D01*
X158495624Y-104208525D01*
X158496829Y-104207135D01*
X158498500Y-104199452D01*
X158498500Y-104194884D01*
X159006500Y-104194884D01*
X159010975Y-104210123D01*
X159012365Y-104211328D01*
X159020048Y-104212999D01*
X159647169Y-104212999D01*
X159653990Y-104212629D01*
X159704852Y-104207105D01*
X159720104Y-104203479D01*
X159840554Y-104158324D01*
X159856149Y-104149786D01*
X159958224Y-104073285D01*
X159970785Y-104060724D01*
X160047286Y-103958649D01*
X160055824Y-103943054D01*
X160100978Y-103822606D01*
X160104605Y-103807351D01*
X160110131Y-103756486D01*
X160110500Y-103749672D01*
X160110500Y-103127115D01*
X160106025Y-103111876D01*
X160104635Y-103110671D01*
X160096952Y-103109000D01*
X159024615Y-103109000D01*
X159009376Y-103113475D01*
X159008171Y-103114865D01*
X159006500Y-103122548D01*
X159006500Y-104194884D01*
X158498500Y-104194884D01*
X158498500Y-103127115D01*
X158494025Y-103111876D01*
X158492635Y-103110671D01*
X158484952Y-103109000D01*
X157412616Y-103109000D01*
X157397377Y-103113475D01*
X157396172Y-103114865D01*
X157394501Y-103122548D01*
X157394501Y-103749669D01*
X156092637Y-103749669D01*
X156120567Y-103720847D01*
X156170589Y-103669229D01*
X156170591Y-103669226D01*
X156174492Y-103665201D01*
X156299790Y-103478738D01*
X156390088Y-103273033D01*
X156391504Y-103267138D01*
X156441222Y-103060046D01*
X156441222Y-103060045D01*
X156442532Y-103054589D01*
X156449043Y-102941669D01*
X156455140Y-102835917D01*
X156455140Y-102835914D01*
X156455463Y-102830310D01*
X156428475Y-102607285D01*
X156362418Y-102392565D01*
X156353079Y-102374470D01*
X156261954Y-102197919D01*
X156261954Y-102197918D01*
X156259382Y-102192936D01*
X156122623Y-102014708D01*
X155956464Y-101863515D01*
X155951717Y-101860537D01*
X155951714Y-101860535D01*
X155770905Y-101747115D01*
X155766156Y-101744136D01*
X155698750Y-101717039D01*
X155643010Y-101673075D01*
X155619884Y-101605950D01*
X155636721Y-101536979D01*
X155691505Y-101486408D01*
X155835718Y-101417622D01*
X156018154Y-101286529D01*
X156154986Y-101145330D01*
X156170589Y-101129229D01*
X156170591Y-101129226D01*
X156174492Y-101125201D01*
X156299790Y-100938738D01*
X156390088Y-100733033D01*
X156391435Y-100727425D01*
X156441222Y-100520046D01*
X156441222Y-100520045D01*
X156442532Y-100514589D01*
X156451065Y-100366590D01*
X156455140Y-100295917D01*
X156455140Y-100295914D01*
X156455463Y-100290310D01*
X156428475Y-100067285D01*
X156362418Y-99852565D01*
X156355732Y-99839610D01*
X156261954Y-99657919D01*
X156261954Y-99657918D01*
X156259382Y-99652936D01*
X156122623Y-99474708D01*
X155956464Y-99323515D01*
X155951717Y-99320537D01*
X155951714Y-99320535D01*
X155770905Y-99207115D01*
X155766156Y-99204136D01*
X155698750Y-99177039D01*
X155643010Y-99133075D01*
X155619884Y-99065950D01*
X155636721Y-98996979D01*
X155691505Y-98946408D01*
X155698738Y-98942958D01*
X155835718Y-98877622D01*
X156018154Y-98746529D01*
X156164263Y-98595757D01*
X156170589Y-98589229D01*
X156170591Y-98589226D01*
X156174492Y-98585201D01*
X156299790Y-98398738D01*
X156390088Y-98193033D01*
X156427288Y-98038087D01*
X156441222Y-97980046D01*
X156441222Y-97980045D01*
X156442532Y-97974589D01*
X156450161Y-97842278D01*
X156455140Y-97755917D01*
X156455140Y-97755914D01*
X156455463Y-97750310D01*
X156428475Y-97527285D01*
X156362418Y-97312565D01*
X156359412Y-97306740D01*
X156261954Y-97117919D01*
X156261954Y-97117918D01*
X156259382Y-97112936D01*
X156122623Y-96934708D01*
X155956464Y-96783515D01*
X155951717Y-96780537D01*
X155951714Y-96780535D01*
X155770905Y-96667115D01*
X155766156Y-96664136D01*
X155698750Y-96637039D01*
X155643010Y-96593075D01*
X155619884Y-96525950D01*
X155636721Y-96456979D01*
X155691505Y-96406408D01*
X155726687Y-96389627D01*
X155835718Y-96337622D01*
X156018154Y-96206529D01*
X156164263Y-96055757D01*
X156170589Y-96049229D01*
X156170591Y-96049226D01*
X156174492Y-96045201D01*
X156299790Y-95858738D01*
X156390088Y-95653033D01*
X156399982Y-95611825D01*
X156441222Y-95440046D01*
X156441222Y-95440045D01*
X156442532Y-95434589D01*
X156451212Y-95284035D01*
X156455140Y-95215917D01*
X156455140Y-95215914D01*
X156455463Y-95210310D01*
X156428475Y-94987285D01*
X156362418Y-94772565D01*
X156350925Y-94750296D01*
X156261954Y-94577919D01*
X156261954Y-94577918D01*
X156259382Y-94572936D01*
X156122623Y-94394708D01*
X155956464Y-94243515D01*
X155951717Y-94240537D01*
X155951714Y-94240535D01*
X155770905Y-94127115D01*
X155766156Y-94124136D01*
X155698750Y-94097039D01*
X155643010Y-94053075D01*
X155619884Y-93985950D01*
X155636721Y-93916979D01*
X155691505Y-93866408D01*
X155751164Y-93837952D01*
X155835718Y-93797622D01*
X156018154Y-93666529D01*
X156164263Y-93515757D01*
X156170589Y-93509229D01*
X156170591Y-93509226D01*
X156174492Y-93505201D01*
X156299790Y-93318738D01*
X156390088Y-93113033D01*
X156399115Y-93075436D01*
X156441222Y-92900046D01*
X156441222Y-92900045D01*
X156442532Y-92894589D01*
X156450886Y-92749690D01*
X156455140Y-92675917D01*
X156455140Y-92675914D01*
X156455463Y-92670310D01*
X156428475Y-92447285D01*
X156362418Y-92232565D01*
X156358553Y-92225075D01*
X156261954Y-92037919D01*
X156261954Y-92037918D01*
X156259382Y-92032936D01*
X156122623Y-91854708D01*
X155956464Y-91703515D01*
X155951717Y-91700537D01*
X155951714Y-91700535D01*
X155770905Y-91587115D01*
X155766156Y-91584136D01*
X155698750Y-91557039D01*
X155643010Y-91513075D01*
X155619884Y-91445950D01*
X155636721Y-91376979D01*
X155691505Y-91326408D01*
X155835718Y-91257622D01*
X156018154Y-91126529D01*
X156120567Y-91020847D01*
X156170589Y-90969229D01*
X156170591Y-90969226D01*
X156174492Y-90965201D01*
X156299790Y-90778738D01*
X156390088Y-90573033D01*
X156392584Y-90562639D01*
X156441222Y-90360046D01*
X156441222Y-90360045D01*
X156442532Y-90354589D01*
X156455463Y-90130310D01*
X156428475Y-89907285D01*
X156362418Y-89692565D01*
X156355732Y-89679610D01*
X156261954Y-89497919D01*
X156261954Y-89497918D01*
X156259382Y-89492936D01*
X156122623Y-89314708D01*
X155956464Y-89163515D01*
X155951717Y-89160537D01*
X155951714Y-89160535D01*
X155770905Y-89047115D01*
X155766156Y-89044136D01*
X155698750Y-89017039D01*
X155643010Y-88973075D01*
X155619884Y-88905950D01*
X155636721Y-88836979D01*
X155691505Y-88786408D01*
X155835718Y-88717622D01*
X156018154Y-88586529D01*
X156174492Y-88425201D01*
X156299790Y-88238738D01*
X156390088Y-88033033D01*
X156411696Y-87943032D01*
X156441222Y-87820046D01*
X156441222Y-87820045D01*
X156442532Y-87814589D01*
X156451372Y-87661273D01*
X156455140Y-87595917D01*
X156455140Y-87595914D01*
X156455463Y-87590310D01*
X156428475Y-87367285D01*
X156362418Y-87152565D01*
X156297298Y-87026396D01*
X156261954Y-86957919D01*
X156261954Y-86957918D01*
X156259382Y-86952936D01*
X156122623Y-86774708D01*
X155956464Y-86623515D01*
X155951717Y-86620537D01*
X155951714Y-86620535D01*
X155770905Y-86507115D01*
X155766156Y-86504136D01*
X155698750Y-86477039D01*
X155643010Y-86433075D01*
X155619884Y-86365950D01*
X155636721Y-86296979D01*
X155691505Y-86246408D01*
X155751164Y-86217952D01*
X155835718Y-86177622D01*
X156018154Y-86046529D01*
X156092634Y-85969672D01*
X156170589Y-85889229D01*
X156170591Y-85889226D01*
X156174492Y-85885201D01*
X156299790Y-85698738D01*
X156390088Y-85493033D01*
X156442532Y-85274589D01*
X156451210Y-85124083D01*
X156455140Y-85055917D01*
X156455140Y-85055914D01*
X156455463Y-85050310D01*
X156428475Y-84827285D01*
X156362418Y-84612565D01*
X156359756Y-84607406D01*
X156261954Y-84417919D01*
X156261954Y-84417918D01*
X156259382Y-84412936D01*
X156122623Y-84234708D01*
X155956464Y-84083515D01*
X155951717Y-84080537D01*
X155951714Y-84080535D01*
X155770905Y-83967115D01*
X155766156Y-83964136D01*
X155698750Y-83937039D01*
X155643010Y-83893075D01*
X155619884Y-83825950D01*
X155636721Y-83756979D01*
X155691505Y-83706408D01*
X155700080Y-83702318D01*
X155835718Y-83637622D01*
X155912878Y-83582177D01*
X155986404Y-83558500D01*
X159187828Y-83558500D01*
X159255949Y-83578502D01*
X159302442Y-83632158D01*
X159312546Y-83702432D01*
X159283052Y-83767012D01*
X159253664Y-83791932D01*
X159133084Y-83865824D01*
X158952531Y-84020031D01*
X158798324Y-84200584D01*
X158795745Y-84204792D01*
X158795741Y-84204798D01*
X158686038Y-84383817D01*
X158674260Y-84403037D01*
X158672367Y-84407607D01*
X158672365Y-84407611D01*
X158587615Y-84612218D01*
X158583395Y-84622406D01*
X158582240Y-84627218D01*
X158529496Y-84846913D01*
X158527965Y-84853289D01*
X158509335Y-85090000D01*
X158527965Y-85326711D01*
X158529119Y-85331518D01*
X158529120Y-85331524D01*
X158532870Y-85347143D01*
X158583395Y-85557594D01*
X158585288Y-85562165D01*
X158585289Y-85562167D01*
X158670160Y-85767064D01*
X158674260Y-85776963D01*
X158676846Y-85781183D01*
X158795741Y-85975202D01*
X158795745Y-85975208D01*
X158798324Y-85979416D01*
X158952531Y-86159969D01*
X159133084Y-86314176D01*
X159137292Y-86316755D01*
X159137298Y-86316759D01*
X159331317Y-86435654D01*
X159335537Y-86438240D01*
X159340107Y-86440133D01*
X159340111Y-86440135D01*
X159550333Y-86527211D01*
X159554906Y-86529105D01*
X159610192Y-86542378D01*
X159780976Y-86583380D01*
X159780982Y-86583381D01*
X159785789Y-86584535D01*
X160022500Y-86603165D01*
X160259211Y-86584535D01*
X160264018Y-86583381D01*
X160264024Y-86583380D01*
X160434808Y-86542378D01*
X160490094Y-86529105D01*
X160494667Y-86527211D01*
X160704889Y-86440135D01*
X160704893Y-86440133D01*
X160709463Y-86438240D01*
X160713683Y-86435654D01*
X160907702Y-86316759D01*
X160907708Y-86316755D01*
X160911916Y-86314176D01*
X161092469Y-86159969D01*
X161095678Y-86156212D01*
X161107246Y-86142668D01*
X161166697Y-86103860D01*
X161203056Y-86098500D01*
X162411491Y-86098500D01*
X162479612Y-86118502D01*
X162526105Y-86172158D01*
X162528403Y-86177694D01*
X162528732Y-86178296D01*
X162531885Y-86186705D01*
X162619239Y-86303261D01*
X162735795Y-86390615D01*
X162872184Y-86441745D01*
X162934366Y-86448500D01*
X164730634Y-86448500D01*
X164792816Y-86441745D01*
X164929205Y-86390615D01*
X165045761Y-86303261D01*
X165133115Y-86186705D01*
X165134271Y-86187571D01*
X165177737Y-86144202D01*
X165247128Y-86129187D01*
X165313620Y-86154071D01*
X165356104Y-86210954D01*
X165364000Y-86254856D01*
X165364000Y-87172576D01*
X165343998Y-87240697D01*
X165327095Y-87261671D01*
X164430621Y-88158145D01*
X164420478Y-88167247D01*
X164390975Y-88190968D01*
X164370788Y-88215026D01*
X164358709Y-88229421D01*
X164355528Y-88233069D01*
X164353885Y-88234881D01*
X164351691Y-88237075D01*
X164324358Y-88270349D01*
X164323696Y-88271147D01*
X164263846Y-88342474D01*
X164261278Y-88347144D01*
X164257897Y-88351261D01*
X164236992Y-88390249D01*
X164214023Y-88433086D01*
X164213394Y-88434245D01*
X164171538Y-88510381D01*
X164171535Y-88510389D01*
X164168567Y-88515787D01*
X164166955Y-88520869D01*
X164164438Y-88525563D01*
X164137238Y-88614531D01*
X164136918Y-88615559D01*
X164108765Y-88704306D01*
X164108171Y-88709602D01*
X164106613Y-88714698D01*
X164099329Y-88786408D01*
X164097218Y-88807187D01*
X164097089Y-88808393D01*
X164091500Y-88858227D01*
X164091500Y-88861754D01*
X164091445Y-88862739D01*
X164090998Y-88868419D01*
X164086626Y-88911462D01*
X164088105Y-88927109D01*
X164090941Y-88957109D01*
X164091500Y-88968967D01*
X164091500Y-98590074D01*
X164071498Y-98658195D01*
X164054596Y-98679169D01*
X163464171Y-99269595D01*
X163401858Y-99303620D01*
X163375075Y-99306500D01*
X159711299Y-99306500D01*
X159643178Y-99286498D01*
X159633207Y-99279382D01*
X159510914Y-99182800D01*
X159510910Y-99182798D01*
X159506859Y-99179598D01*
X159495873Y-99173533D01*
X159452539Y-99149612D01*
X159311289Y-99071638D01*
X159306420Y-99069914D01*
X159306416Y-99069912D01*
X159105587Y-98998795D01*
X159105583Y-98998794D01*
X159100712Y-98997069D01*
X159095619Y-98996162D01*
X159095616Y-98996161D01*
X158885873Y-98958800D01*
X158885867Y-98958799D01*
X158880784Y-98957894D01*
X158806952Y-98956992D01*
X158662581Y-98955228D01*
X158662579Y-98955228D01*
X158657411Y-98955165D01*
X158436591Y-98988955D01*
X158224256Y-99058357D01*
X158026107Y-99161507D01*
X158021974Y-99164610D01*
X158021971Y-99164612D01*
X157859634Y-99286498D01*
X157847465Y-99295635D01*
X157843893Y-99299373D01*
X157711035Y-99438401D01*
X157693129Y-99457138D01*
X157690215Y-99461410D01*
X157690214Y-99461411D01*
X157633427Y-99544658D01*
X157567243Y-99641680D01*
X157532462Y-99716610D01*
X157477834Y-99834297D01*
X157473188Y-99844305D01*
X157413489Y-100059570D01*
X157389751Y-100281695D01*
X157390048Y-100286848D01*
X157390048Y-100286851D01*
X157399176Y-100445151D01*
X157402610Y-100504715D01*
X157403747Y-100509761D01*
X157403748Y-100509767D01*
X157419306Y-100578802D01*
X157451722Y-100722639D01*
X157481859Y-100796857D01*
X157532544Y-100921680D01*
X157535766Y-100929616D01*
X157652487Y-101120088D01*
X157798750Y-101288938D01*
X157802725Y-101292238D01*
X157802731Y-101292244D01*
X157807925Y-101296556D01*
X157847559Y-101355460D01*
X157849055Y-101426441D01*
X157811939Y-101486962D01*
X157771668Y-101511480D01*
X157664446Y-101551676D01*
X157648851Y-101560214D01*
X157546776Y-101636715D01*
X157534215Y-101649276D01*
X157457714Y-101751351D01*
X157449176Y-101766946D01*
X157404022Y-101887394D01*
X157400395Y-101902649D01*
X157394869Y-101953514D01*
X157394500Y-101960328D01*
X157394500Y-102582885D01*
X157398975Y-102598124D01*
X157400365Y-102599329D01*
X157408048Y-102601000D01*
X160092384Y-102601000D01*
X160107623Y-102596525D01*
X160108828Y-102595135D01*
X160110499Y-102587452D01*
X160110499Y-101960331D01*
X160110129Y-101953510D01*
X160104605Y-101902648D01*
X160100979Y-101887396D01*
X160055824Y-101766946D01*
X160047286Y-101751351D01*
X159970785Y-101649276D01*
X159958224Y-101636715D01*
X159856146Y-101560212D01*
X159855795Y-101560020D01*
X159855514Y-101559739D01*
X159848962Y-101554828D01*
X159849671Y-101553882D01*
X159805649Y-101509762D01*
X159790635Y-101440371D01*
X159815520Y-101373879D01*
X159872403Y-101331395D01*
X159916304Y-101323500D01*
X163783157Y-101323500D01*
X163796764Y-101324237D01*
X163828262Y-101327659D01*
X163828267Y-101327659D01*
X163834388Y-101328324D01*
X163884053Y-101323979D01*
X163895034Y-101323500D01*
X163926816Y-101323500D01*
X163994937Y-101343502D01*
X164013867Y-101358406D01*
X164119943Y-101459774D01*
X164129912Y-101469301D01*
X164167351Y-101494840D01*
X164212352Y-101549751D01*
X164220523Y-101620275D01*
X164189269Y-101684022D01*
X164164790Y-101704716D01*
X164162674Y-101706085D01*
X164154502Y-101712378D01*
X163984520Y-101867050D01*
X163977494Y-101874583D01*
X163835055Y-102054944D01*
X163829350Y-102063531D01*
X163718286Y-102264722D01*
X163714056Y-102274134D01*
X163637341Y-102490768D01*
X163634707Y-102500739D01*
X163617353Y-102598163D01*
X163618813Y-102611460D01*
X163633370Y-102616000D01*
X166568096Y-102616000D01*
X166581440Y-102612082D01*
X166583427Y-102597806D01*
X166573890Y-102535485D01*
X166571501Y-102525457D01*
X166500102Y-102307012D01*
X166496105Y-102297503D01*
X166389989Y-102093656D01*
X166384495Y-102084931D01*
X166246507Y-101901148D01*
X166239664Y-101893441D01*
X166073509Y-101734661D01*
X166065502Y-101728177D01*
X166032644Y-101705763D01*
X165987641Y-101650852D01*
X165979468Y-101580328D01*
X166010722Y-101516580D01*
X166035204Y-101495884D01*
X166037635Y-101494311D01*
X166041977Y-101491502D01*
X166219670Y-101329814D01*
X166330830Y-101189061D01*
X166365367Y-101145330D01*
X166365370Y-101145325D01*
X166368568Y-101141276D01*
X166375219Y-101129229D01*
X166482177Y-100935474D01*
X166482179Y-100935470D01*
X166484674Y-100930950D01*
X166487227Y-100923743D01*
X166563144Y-100709360D01*
X166563145Y-100709356D01*
X166564870Y-100704485D01*
X166567400Y-100690283D01*
X166606095Y-100473052D01*
X166606096Y-100473046D01*
X166607001Y-100467963D01*
X166608422Y-100351638D01*
X166609460Y-100266695D01*
X167549751Y-100266695D01*
X167550048Y-100271848D01*
X167550048Y-100271851D01*
X167560173Y-100447446D01*
X167562610Y-100489715D01*
X167563747Y-100494761D01*
X167563748Y-100494767D01*
X167583565Y-100582699D01*
X167611722Y-100707639D01*
X167695766Y-100914616D01*
X167812487Y-101105088D01*
X167958750Y-101273938D01*
X168130626Y-101416632D01*
X168156296Y-101431632D01*
X168204455Y-101459774D01*
X168253179Y-101511412D01*
X168266250Y-101581195D01*
X168239519Y-101646967D01*
X168199062Y-101680327D01*
X168190957Y-101684546D01*
X168182238Y-101690036D01*
X168011933Y-101817905D01*
X168004226Y-101824748D01*
X167857090Y-101978717D01*
X167850604Y-101986727D01*
X167730598Y-102162649D01*
X167725500Y-102171623D01*
X167635838Y-102364783D01*
X167632275Y-102374470D01*
X167576889Y-102574183D01*
X167578412Y-102582607D01*
X167590792Y-102586000D01*
X170230844Y-102586000D01*
X170244375Y-102582027D01*
X170245680Y-102572947D01*
X170203714Y-102405875D01*
X170200394Y-102396124D01*
X170115472Y-102200814D01*
X170110605Y-102191739D01*
X169994926Y-102012926D01*
X169988636Y-102004757D01*
X169845306Y-101847240D01*
X169837773Y-101840215D01*
X169670639Y-101708222D01*
X169662056Y-101702520D01*
X169625102Y-101682120D01*
X169575131Y-101631687D01*
X169560359Y-101562245D01*
X169585475Y-101495839D01*
X169612827Y-101469232D01*
X169681800Y-101420034D01*
X169792360Y-101341173D01*
X169797065Y-101336485D01*
X169946935Y-101187137D01*
X169950596Y-101183489D01*
X169996498Y-101119610D01*
X170077935Y-101006277D01*
X170080953Y-101002077D01*
X170089918Y-100983939D01*
X170177636Y-100806453D01*
X170177637Y-100806451D01*
X170179930Y-100801811D01*
X170231359Y-100632540D01*
X170243365Y-100593023D01*
X170243365Y-100593021D01*
X170244870Y-100588069D01*
X170274029Y-100366590D01*
X170275001Y-100326797D01*
X170275574Y-100303365D01*
X170275574Y-100303361D01*
X170275656Y-100300000D01*
X170257352Y-100077361D01*
X170202931Y-99860702D01*
X170113854Y-99655840D01*
X169999550Y-99479153D01*
X169995322Y-99472617D01*
X169995320Y-99472614D01*
X169992514Y-99468277D01*
X169842170Y-99303051D01*
X169838119Y-99299852D01*
X169838115Y-99299848D01*
X169670914Y-99167800D01*
X169670910Y-99167798D01*
X169666859Y-99164598D01*
X169471289Y-99056638D01*
X169466420Y-99054914D01*
X169466416Y-99054912D01*
X169265587Y-98983795D01*
X169265583Y-98983794D01*
X169260712Y-98982069D01*
X169255619Y-98981162D01*
X169255616Y-98981161D01*
X169045873Y-98943800D01*
X169045867Y-98943799D01*
X169040784Y-98942894D01*
X168966952Y-98941992D01*
X168822581Y-98940228D01*
X168822579Y-98940228D01*
X168817411Y-98940165D01*
X168596591Y-98973955D01*
X168384256Y-99043357D01*
X168358528Y-99056750D01*
X168211910Y-99133075D01*
X168186107Y-99146507D01*
X168181974Y-99149610D01*
X168181971Y-99149612D01*
X168017518Y-99273087D01*
X168007465Y-99280635D01*
X167853129Y-99442138D01*
X167727243Y-99626680D01*
X167633188Y-99829305D01*
X167573489Y-100044570D01*
X167549751Y-100266695D01*
X166609460Y-100266695D01*
X166609873Y-100232907D01*
X166609873Y-100232905D01*
X166609936Y-100227737D01*
X166573596Y-99990256D01*
X166519455Y-99824610D01*
X166500566Y-99766817D01*
X166500563Y-99766811D01*
X166498958Y-99761899D01*
X166480477Y-99726396D01*
X166388025Y-99548800D01*
X166343076Y-99488933D01*
X166246882Y-99360815D01*
X166246880Y-99360812D01*
X166243777Y-99356680D01*
X166147449Y-99264626D01*
X166112019Y-99203103D01*
X166108500Y-99173533D01*
X166108500Y-99117904D01*
X166109145Y-99105171D01*
X166112752Y-99069666D01*
X166112752Y-99069661D01*
X166113374Y-99063538D01*
X166109059Y-99017891D01*
X166108500Y-99006033D01*
X166108500Y-89384926D01*
X166128502Y-89316805D01*
X166145404Y-89295831D01*
X167041883Y-88399351D01*
X167052027Y-88390249D01*
X167076718Y-88370397D01*
X167081525Y-88366532D01*
X167113792Y-88328078D01*
X167116972Y-88324431D01*
X167118615Y-88322619D01*
X167120809Y-88320425D01*
X167148142Y-88287151D01*
X167148848Y-88286300D01*
X167161519Y-88271200D01*
X167208654Y-88215026D01*
X167211222Y-88210356D01*
X167214603Y-88206239D01*
X167258515Y-88124342D01*
X167259124Y-88123220D01*
X167260096Y-88121453D01*
X167270869Y-88101857D01*
X167300966Y-88047111D01*
X167300968Y-88047106D01*
X167303933Y-88041713D01*
X167305544Y-88036635D01*
X167308063Y-88031937D01*
X167335253Y-87943002D01*
X167335636Y-87941772D01*
X167347914Y-87903069D01*
X167363735Y-87853194D01*
X167364328Y-87847903D01*
X167365888Y-87842802D01*
X167375295Y-87750189D01*
X167375415Y-87749069D01*
X167381000Y-87699273D01*
X167381000Y-87695744D01*
X167381055Y-87694761D01*
X167381504Y-87689056D01*
X167381926Y-87684908D01*
X167384041Y-87664083D01*
X167385252Y-87652164D01*
X167385252Y-87652161D01*
X167385874Y-87646037D01*
X167381559Y-87600388D01*
X167381000Y-87588531D01*
X167381000Y-76261842D01*
X167381737Y-76248235D01*
X167385159Y-76216737D01*
X167385159Y-76216732D01*
X167385824Y-76210611D01*
X167381479Y-76160946D01*
X167381000Y-76149965D01*
X167381000Y-74989873D01*
X167381690Y-74976703D01*
X167385211Y-74943204D01*
X167385211Y-74943202D01*
X167385855Y-74937075D01*
X167381519Y-74889430D01*
X167381000Y-74878010D01*
X167381000Y-73717904D01*
X167381645Y-73705171D01*
X167385252Y-73669666D01*
X167385252Y-73669661D01*
X167385874Y-73663538D01*
X167381559Y-73617891D01*
X167381000Y-73606033D01*
X167381000Y-67356840D01*
X167381737Y-67343232D01*
X167384271Y-67319906D01*
X167411513Y-67254344D01*
X167469876Y-67213918D01*
X167540830Y-67211463D01*
X167598240Y-67244031D01*
X167748395Y-67392881D01*
X167748402Y-67392887D01*
X167751718Y-67396174D01*
X167964896Y-67552483D01*
X167969031Y-67554659D01*
X167969035Y-67554661D01*
X168092293Y-67619510D01*
X168198836Y-67675565D01*
X168448400Y-67762716D01*
X168452993Y-67763588D01*
X168703515Y-67811151D01*
X168703518Y-67811151D01*
X168708104Y-67812022D01*
X168840173Y-67817211D01*
X168967575Y-67822218D01*
X168967581Y-67822218D01*
X168972243Y-67822401D01*
X169235015Y-67793622D01*
X169239526Y-67792434D01*
X169239528Y-67792434D01*
X169486124Y-67727511D01*
X169486126Y-67727510D01*
X169490647Y-67726320D01*
X169605191Y-67677108D01*
X169729229Y-67623817D01*
X169729231Y-67623816D01*
X169733523Y-67621972D01*
X169893319Y-67523087D01*
X169954332Y-67485331D01*
X169954334Y-67485330D01*
X169958307Y-67482871D01*
X169974788Y-67468919D01*
X170156496Y-67315093D01*
X170156498Y-67315091D01*
X170160063Y-67312073D01*
X170334356Y-67113329D01*
X170337407Y-67108587D01*
X170462611Y-66913934D01*
X170477359Y-66891006D01*
X170585930Y-66649988D01*
X170657683Y-66395570D01*
X170690507Y-66137553D01*
X170718946Y-66072501D01*
X170726804Y-66067268D01*
X170694604Y-66017164D01*
X170689846Y-65991004D01*
X170674243Y-65781036D01*
X170674242Y-65781032D01*
X170673897Y-65776384D01*
X170615557Y-65518559D01*
X170600028Y-65478626D01*
X170521442Y-65276542D01*
X170521441Y-65276540D01*
X170519749Y-65272189D01*
X170493535Y-65226323D01*
X170390897Y-65046745D01*
X170388578Y-65042687D01*
X170224925Y-64835094D01*
X170032385Y-64653970D01*
X169995212Y-64628182D01*
X169819026Y-64505958D01*
X169819021Y-64505955D01*
X169815188Y-64503296D01*
X169810997Y-64501229D01*
X169582294Y-64388445D01*
X169582291Y-64388444D01*
X169578106Y-64386380D01*
X169521150Y-64368148D01*
X169330792Y-64307214D01*
X169330794Y-64307214D01*
X169326347Y-64305791D01*
X169183825Y-64282580D01*
X169070053Y-64264051D01*
X169070052Y-64264051D01*
X169065441Y-64263300D01*
X168850700Y-64260489D01*
X168829762Y-64254042D01*
X168827656Y-64255396D01*
X168802197Y-64259854D01*
X168801121Y-64259840D01*
X168539192Y-64295486D01*
X168534702Y-64296795D01*
X168534696Y-64296796D01*
X168426732Y-64328265D01*
X168285410Y-64369457D01*
X168281163Y-64371415D01*
X168281160Y-64371416D01*
X168190950Y-64413004D01*
X168045348Y-64480127D01*
X168041439Y-64482690D01*
X167828195Y-64622499D01*
X167828190Y-64622503D01*
X167824282Y-64625065D01*
X167627067Y-64801086D01*
X167458036Y-65004324D01*
X167320901Y-65230314D01*
X167319095Y-65234622D01*
X167319094Y-65234623D01*
X167225544Y-65457716D01*
X167218677Y-65474091D01*
X167217526Y-65478623D01*
X167217525Y-65478626D01*
X167195082Y-65566996D01*
X167153608Y-65730301D01*
X167127124Y-65993314D01*
X167127348Y-65997980D01*
X167127348Y-65997985D01*
X167128182Y-66015337D01*
X167128856Y-66029368D01*
X167139807Y-66257352D01*
X167149203Y-66304587D01*
X167152811Y-66322726D01*
X167146483Y-66393440D01*
X167102929Y-66449508D01*
X167035976Y-66473127D01*
X166966883Y-66456800D01*
X166940137Y-66436403D01*
X164727329Y-64223595D01*
X164693303Y-64161283D01*
X164698368Y-64090468D01*
X164740915Y-64033632D01*
X164807435Y-64008821D01*
X164816424Y-64008500D01*
X168792158Y-64008500D01*
X168815096Y-64015235D01*
G37*
%TD.AperFunction*%
%TA.AperFunction,Conductor*%
G36*
X131102454Y-88657762D02*
G01*
X131258844Y-88755864D01*
X131326250Y-88782961D01*
X131381990Y-88826925D01*
X131405116Y-88894050D01*
X131388279Y-88963021D01*
X131333495Y-89013592D01*
X131189282Y-89082378D01*
X131184729Y-89085650D01*
X131112122Y-89137823D01*
X131038596Y-89161500D01*
X128329343Y-89161500D01*
X128315736Y-89160763D01*
X128284238Y-89157341D01*
X128284233Y-89157341D01*
X128278112Y-89156676D01*
X128251862Y-89158973D01*
X128228112Y-89161050D01*
X128223286Y-89161379D01*
X128220814Y-89161500D01*
X128217731Y-89161500D01*
X128205762Y-89162674D01*
X128174994Y-89165690D01*
X128173681Y-89165812D01*
X128129416Y-89169685D01*
X128081087Y-89173913D01*
X128075968Y-89175400D01*
X128070667Y-89175920D01*
X127981666Y-89202791D01*
X127980533Y-89203126D01*
X127897086Y-89227370D01*
X127897082Y-89227372D01*
X127891164Y-89229091D01*
X127886432Y-89231544D01*
X127881331Y-89233084D01*
X127875888Y-89235978D01*
X127799240Y-89276731D01*
X127798074Y-89277343D01*
X127721946Y-89316805D01*
X127715574Y-89320108D01*
X127711411Y-89323431D01*
X127706704Y-89325934D01*
X127634582Y-89384755D01*
X127633726Y-89385446D01*
X127594527Y-89416738D01*
X127592023Y-89419242D01*
X127591305Y-89419884D01*
X127586972Y-89423585D01*
X127553438Y-89450935D01*
X127524209Y-89486267D01*
X127516228Y-89495037D01*
X126921384Y-90089882D01*
X126859071Y-90123907D01*
X126843271Y-90126308D01*
X126784413Y-90131457D01*
X126636641Y-90171053D01*
X126568567Y-90189293D01*
X126568565Y-90189294D01*
X126563257Y-90190716D01*
X126558276Y-90193039D01*
X126558275Y-90193039D01*
X126360738Y-90285151D01*
X126360733Y-90285154D01*
X126355751Y-90287477D01*
X126274007Y-90344715D01*
X126172711Y-90415643D01*
X126172708Y-90415645D01*
X126168200Y-90418802D01*
X126006302Y-90580700D01*
X126003145Y-90585208D01*
X126003143Y-90585211D01*
X125956084Y-90652419D01*
X125874977Y-90768251D01*
X125872654Y-90773233D01*
X125872651Y-90773238D01*
X125785308Y-90960547D01*
X125778216Y-90975757D01*
X125776794Y-90981065D01*
X125776793Y-90981067D01*
X125726761Y-91167787D01*
X125718957Y-91196913D01*
X125699002Y-91425000D01*
X125718957Y-91653087D01*
X125720381Y-91658400D01*
X125720381Y-91658402D01*
X125775990Y-91865934D01*
X125778216Y-91874243D01*
X125780539Y-91879224D01*
X125780539Y-91879225D01*
X125872651Y-92076762D01*
X125872654Y-92076767D01*
X125874977Y-92081749D01*
X126006302Y-92269300D01*
X126168200Y-92431198D01*
X126172708Y-92434355D01*
X126172711Y-92434357D01*
X126199132Y-92452857D01*
X126355751Y-92562523D01*
X126360733Y-92564846D01*
X126360738Y-92564849D01*
X126394957Y-92580805D01*
X126448242Y-92627722D01*
X126467703Y-92695999D01*
X126447161Y-92763959D01*
X126394957Y-92809195D01*
X126360738Y-92825151D01*
X126360733Y-92825154D01*
X126355751Y-92827477D01*
X126278723Y-92881413D01*
X126172711Y-92955643D01*
X126172708Y-92955645D01*
X126168200Y-92958802D01*
X126006302Y-93120700D01*
X126003145Y-93125208D01*
X126003143Y-93125211D01*
X125958721Y-93188652D01*
X125874977Y-93308251D01*
X125872654Y-93313233D01*
X125872651Y-93313238D01*
X125812576Y-93442071D01*
X125778216Y-93515757D01*
X125776794Y-93521065D01*
X125776793Y-93521067D01*
X125725442Y-93712712D01*
X125718957Y-93736913D01*
X125699002Y-93965000D01*
X125718957Y-94193087D01*
X125720381Y-94198400D01*
X125720381Y-94198402D01*
X125775990Y-94405934D01*
X125778216Y-94414243D01*
X125780539Y-94419224D01*
X125780539Y-94419225D01*
X125872651Y-94616762D01*
X125872654Y-94616767D01*
X125874977Y-94621749D01*
X125940463Y-94715273D01*
X126000315Y-94800749D01*
X126006302Y-94809300D01*
X126168200Y-94971198D01*
X126172708Y-94974355D01*
X126172711Y-94974357D01*
X126223725Y-95010077D01*
X126355751Y-95102523D01*
X126360733Y-95104846D01*
X126360738Y-95104849D01*
X126394957Y-95120805D01*
X126448242Y-95167722D01*
X126467703Y-95235999D01*
X126447161Y-95303959D01*
X126394957Y-95349195D01*
X126360738Y-95365151D01*
X126360733Y-95365154D01*
X126355751Y-95367477D01*
X126283176Y-95418295D01*
X126172711Y-95495643D01*
X126172708Y-95495645D01*
X126168200Y-95498802D01*
X126006302Y-95660700D01*
X126003145Y-95665208D01*
X126003143Y-95665211D01*
X125956084Y-95732419D01*
X125874977Y-95848251D01*
X125872654Y-95853233D01*
X125872651Y-95853238D01*
X125786773Y-96037406D01*
X125778216Y-96055757D01*
X125776794Y-96061065D01*
X125776793Y-96061067D01*
X125733884Y-96221204D01*
X125718957Y-96276913D01*
X125699002Y-96505000D01*
X125718957Y-96733087D01*
X125720381Y-96738400D01*
X125720381Y-96738402D01*
X125774173Y-96939153D01*
X125778216Y-96954243D01*
X125780539Y-96959224D01*
X125780539Y-96959225D01*
X125872651Y-97156762D01*
X125872654Y-97156767D01*
X125874977Y-97161749D01*
X125918049Y-97223262D01*
X125981213Y-97313469D01*
X126004000Y-97385740D01*
X126004000Y-98164260D01*
X125981213Y-98236531D01*
X125874977Y-98388251D01*
X125872654Y-98393233D01*
X125872651Y-98393238D01*
X125795564Y-98558553D01*
X125778216Y-98595757D01*
X125776794Y-98601065D01*
X125776793Y-98601067D01*
X125720381Y-98811598D01*
X125718957Y-98816913D01*
X125699002Y-99045000D01*
X125718957Y-99273087D01*
X125720381Y-99278400D01*
X125720381Y-99278402D01*
X125774173Y-99479153D01*
X125778216Y-99494243D01*
X125780539Y-99499224D01*
X125780539Y-99499225D01*
X125872651Y-99696762D01*
X125872654Y-99696767D01*
X125874977Y-99701749D01*
X125892235Y-99726396D01*
X125988580Y-99863990D01*
X126006302Y-99889300D01*
X126168200Y-100051198D01*
X126172708Y-100054355D01*
X126172711Y-100054357D01*
X126227225Y-100092528D01*
X126355751Y-100182523D01*
X126360733Y-100184846D01*
X126360738Y-100184849D01*
X126394957Y-100200805D01*
X126448242Y-100247722D01*
X126467703Y-100315999D01*
X126447161Y-100383959D01*
X126394957Y-100429195D01*
X126360738Y-100445151D01*
X126360733Y-100445154D01*
X126355751Y-100447477D01*
X126266792Y-100509767D01*
X126204031Y-100553713D01*
X126131760Y-100576500D01*
X123343509Y-100576500D01*
X123275388Y-100556498D01*
X123228895Y-100502842D01*
X123226597Y-100497306D01*
X123226267Y-100496703D01*
X123223115Y-100488295D01*
X123135761Y-100371739D01*
X123019205Y-100284385D01*
X122882816Y-100233255D01*
X122820634Y-100226500D01*
X121024366Y-100226500D01*
X120962184Y-100233255D01*
X120825795Y-100284385D01*
X120737290Y-100350716D01*
X120728065Y-100357630D01*
X120661559Y-100382478D01*
X120592176Y-100367425D01*
X120576935Y-100357630D01*
X120567710Y-100350716D01*
X120479205Y-100284385D01*
X120470796Y-100281233D01*
X120462925Y-100276923D01*
X120463836Y-100275259D01*
X120416010Y-100239337D01*
X120391307Y-100172776D01*
X120391000Y-100163991D01*
X120391000Y-97836850D01*
X120391737Y-97823242D01*
X120392223Y-97818768D01*
X120395825Y-97785612D01*
X120391447Y-97735570D01*
X120391121Y-97730788D01*
X120391000Y-97728310D01*
X120391000Y-97725231D01*
X120390701Y-97722177D01*
X120390700Y-97722166D01*
X120386813Y-97682529D01*
X120386691Y-97681215D01*
X120381111Y-97617435D01*
X120378587Y-97588587D01*
X120377100Y-97583468D01*
X120376580Y-97578167D01*
X120349709Y-97489166D01*
X120349374Y-97488033D01*
X120325130Y-97404586D01*
X120325128Y-97404582D01*
X120323409Y-97398664D01*
X120320956Y-97393932D01*
X120319416Y-97388831D01*
X120298398Y-97349300D01*
X120275769Y-97306740D01*
X120275157Y-97305574D01*
X120235229Y-97228547D01*
X120232392Y-97223074D01*
X120229069Y-97218911D01*
X120226566Y-97214204D01*
X120211869Y-97196183D01*
X120167761Y-97142102D01*
X120166933Y-97141075D01*
X120137969Y-97104792D01*
X120137964Y-97104787D01*
X120135762Y-97102028D01*
X120133261Y-97099527D01*
X120132619Y-97098809D01*
X120128906Y-97094461D01*
X120121142Y-97084941D01*
X120101565Y-97060938D01*
X120096823Y-97057015D01*
X120096821Y-97057013D01*
X120066227Y-97031703D01*
X120057447Y-97023713D01*
X116329355Y-93295621D01*
X116320253Y-93285478D01*
X116300397Y-93260782D01*
X116296532Y-93255975D01*
X116258078Y-93223708D01*
X116254431Y-93220528D01*
X116252619Y-93218885D01*
X116250425Y-93216691D01*
X116217151Y-93189358D01*
X116216353Y-93188696D01*
X116145026Y-93128846D01*
X116140356Y-93126278D01*
X116136239Y-93122897D01*
X116068567Y-93086612D01*
X116054414Y-93079023D01*
X116053255Y-93078394D01*
X115977119Y-93036538D01*
X115977111Y-93036535D01*
X115971713Y-93033567D01*
X115966631Y-93031955D01*
X115961937Y-93029438D01*
X115872969Y-93002238D01*
X115871941Y-93001918D01*
X115783194Y-92973765D01*
X115777898Y-92973171D01*
X115772802Y-92971613D01*
X115680243Y-92962210D01*
X115679107Y-92962089D01*
X115645492Y-92958319D01*
X115632770Y-92956892D01*
X115632766Y-92956892D01*
X115629273Y-92956500D01*
X115625746Y-92956500D01*
X115624761Y-92956445D01*
X115619081Y-92955998D01*
X115589675Y-92953011D01*
X115582163Y-92952248D01*
X115582161Y-92952248D01*
X115576038Y-92951626D01*
X115533759Y-92955623D01*
X115530391Y-92955941D01*
X115518533Y-92956500D01*
X115303572Y-92956500D01*
X115235451Y-92936498D01*
X115188958Y-92882842D01*
X115178854Y-92812568D01*
X115208348Y-92747988D01*
X115259342Y-92712518D01*
X115350554Y-92678324D01*
X115366149Y-92669786D01*
X115468224Y-92593285D01*
X115480785Y-92580724D01*
X115557286Y-92478649D01*
X115565824Y-92463054D01*
X115610978Y-92342606D01*
X115614605Y-92327351D01*
X115620131Y-92276486D01*
X115620500Y-92269672D01*
X115620500Y-91697115D01*
X115616025Y-91681876D01*
X115614635Y-91680671D01*
X115606952Y-91679000D01*
X113022616Y-91679000D01*
X113007377Y-91683475D01*
X113006172Y-91684865D01*
X113004501Y-91692548D01*
X113004501Y-92269669D01*
X113004871Y-92276490D01*
X113010395Y-92327352D01*
X113014021Y-92342604D01*
X113059176Y-92463054D01*
X113067714Y-92478649D01*
X113144215Y-92580724D01*
X113156776Y-92593285D01*
X113258851Y-92669786D01*
X113274446Y-92678324D01*
X113365658Y-92712518D01*
X113422422Y-92755160D01*
X113447122Y-92821721D01*
X113431915Y-92891070D01*
X113381629Y-92941188D01*
X113321428Y-92956500D01*
X107152426Y-92956500D01*
X107084305Y-92936498D01*
X107063331Y-92919596D01*
X106457905Y-92314171D01*
X106423880Y-92251858D01*
X106421000Y-92225075D01*
X106421000Y-90639647D01*
X106441002Y-90571526D01*
X106494658Y-90525033D01*
X106564932Y-90514929D01*
X106629512Y-90544423D01*
X106663743Y-90592243D01*
X106735766Y-90769616D01*
X106738465Y-90774020D01*
X106816521Y-90901396D01*
X106852487Y-90960088D01*
X106998750Y-91128938D01*
X107170626Y-91271632D01*
X107363500Y-91384338D01*
X107572192Y-91464030D01*
X107577260Y-91465061D01*
X107577263Y-91465062D01*
X107684517Y-91486883D01*
X107791097Y-91508567D01*
X107796272Y-91508757D01*
X107796274Y-91508757D01*
X108009173Y-91516564D01*
X108009177Y-91516564D01*
X108014337Y-91516753D01*
X108019457Y-91516097D01*
X108019459Y-91516097D01*
X108230788Y-91489025D01*
X108230789Y-91489025D01*
X108235916Y-91488368D01*
X108240866Y-91486883D01*
X108444929Y-91425661D01*
X108444934Y-91425659D01*
X108449884Y-91424174D01*
X108650494Y-91325896D01*
X108832360Y-91196173D01*
X108835386Y-91193157D01*
X108900088Y-91164570D01*
X108916476Y-91163500D01*
X109173157Y-91163500D01*
X109186764Y-91164237D01*
X109218262Y-91167659D01*
X109218267Y-91167659D01*
X109224388Y-91168324D01*
X109250638Y-91166027D01*
X109274388Y-91163950D01*
X109279214Y-91163621D01*
X109281686Y-91163500D01*
X109284769Y-91163500D01*
X109296738Y-91162326D01*
X109327506Y-91159310D01*
X109328819Y-91159188D01*
X109373084Y-91155315D01*
X109400861Y-91152885D01*
X113004500Y-91152885D01*
X113008975Y-91168124D01*
X113010365Y-91169329D01*
X113018048Y-91171000D01*
X114040385Y-91171000D01*
X114055624Y-91166525D01*
X114056829Y-91165135D01*
X114058500Y-91157452D01*
X114058500Y-91152885D01*
X114566500Y-91152885D01*
X114570975Y-91168124D01*
X114572365Y-91169329D01*
X114580048Y-91171000D01*
X115602384Y-91171000D01*
X115617623Y-91166525D01*
X115618828Y-91165135D01*
X115620499Y-91157452D01*
X115620499Y-90580331D01*
X115620129Y-90573510D01*
X115614605Y-90522648D01*
X115610979Y-90507396D01*
X115565824Y-90386946D01*
X115557286Y-90371351D01*
X115480785Y-90269276D01*
X115468224Y-90256715D01*
X115366149Y-90180214D01*
X115350554Y-90171676D01*
X115230106Y-90126522D01*
X115214851Y-90122895D01*
X115163986Y-90117369D01*
X115157172Y-90117000D01*
X114584615Y-90117000D01*
X114569376Y-90121475D01*
X114568171Y-90122865D01*
X114566500Y-90130548D01*
X114566500Y-91152885D01*
X114058500Y-91152885D01*
X114058500Y-90135116D01*
X114054025Y-90119877D01*
X114052635Y-90118672D01*
X114044952Y-90117001D01*
X113467831Y-90117001D01*
X113461010Y-90117371D01*
X113410148Y-90122895D01*
X113394896Y-90126521D01*
X113274446Y-90171676D01*
X113258851Y-90180214D01*
X113156776Y-90256715D01*
X113144215Y-90269276D01*
X113067714Y-90371351D01*
X113059176Y-90386946D01*
X113014022Y-90507394D01*
X113010395Y-90522649D01*
X113004869Y-90573514D01*
X113004500Y-90580328D01*
X113004500Y-91152885D01*
X109400861Y-91152885D01*
X109421413Y-91151087D01*
X109426532Y-91149600D01*
X109431833Y-91149080D01*
X109520834Y-91122209D01*
X109521967Y-91121874D01*
X109605414Y-91097630D01*
X109605418Y-91097628D01*
X109611336Y-91095909D01*
X109616068Y-91093456D01*
X109621169Y-91091916D01*
X109626612Y-91089022D01*
X109703260Y-91048269D01*
X109704426Y-91047657D01*
X109781453Y-91007729D01*
X109786926Y-91004892D01*
X109791089Y-91001569D01*
X109795796Y-90999066D01*
X109867918Y-90940245D01*
X109868774Y-90939554D01*
X109907973Y-90908262D01*
X109910477Y-90905758D01*
X109911195Y-90905116D01*
X109915528Y-90901415D01*
X109949062Y-90874065D01*
X109967720Y-90851512D01*
X109978287Y-90838738D01*
X109986277Y-90829958D01*
X111054428Y-89761807D01*
X112140829Y-88675405D01*
X112203141Y-88641380D01*
X112229924Y-88638500D01*
X131035499Y-88638500D01*
X131102454Y-88657762D01*
G37*
%TD.AperFunction*%
%TA.AperFunction,Conductor*%
G36*
X109414029Y-70863502D02*
G01*
X109460522Y-70917158D01*
X109470626Y-70987432D01*
X109441132Y-71052012D01*
X109406418Y-71080019D01*
X109404196Y-71081236D01*
X109395795Y-71084385D01*
X109279239Y-71171739D01*
X109191885Y-71288295D01*
X109140755Y-71424684D01*
X109134000Y-71486866D01*
X109134000Y-73283134D01*
X109140755Y-73345316D01*
X109191885Y-73481705D01*
X109279239Y-73598261D01*
X109395795Y-73685615D01*
X109404204Y-73688767D01*
X109404205Y-73688768D01*
X109512951Y-73729535D01*
X109569716Y-73772176D01*
X109594416Y-73838738D01*
X109579209Y-73908087D01*
X109559816Y-73934568D01*
X109437338Y-74062734D01*
X109433129Y-74067138D01*
X109430215Y-74071410D01*
X109430214Y-74071411D01*
X109386974Y-74134799D01*
X109307243Y-74251680D01*
X109213188Y-74454305D01*
X109153489Y-74669570D01*
X109129751Y-74891695D01*
X109130048Y-74896848D01*
X109130048Y-74896851D01*
X109132540Y-74940070D01*
X109142610Y-75114715D01*
X109143747Y-75119761D01*
X109143748Y-75119767D01*
X109159151Y-75188112D01*
X109191722Y-75332639D01*
X109275766Y-75539616D01*
X109392487Y-75730088D01*
X109538750Y-75898938D01*
X109710626Y-76041632D01*
X109760550Y-76070805D01*
X109783945Y-76084476D01*
X109832669Y-76136114D01*
X109845740Y-76205897D01*
X109819009Y-76271669D01*
X109778555Y-76305027D01*
X109766107Y-76311507D01*
X109761974Y-76314610D01*
X109761971Y-76314612D01*
X109591989Y-76442238D01*
X109587465Y-76445635D01*
X109433129Y-76607138D01*
X109430215Y-76611410D01*
X109430214Y-76611411D01*
X109386974Y-76674799D01*
X109307243Y-76791680D01*
X109305064Y-76796375D01*
X109220128Y-76979355D01*
X109213188Y-76994305D01*
X109153489Y-77209570D01*
X109129751Y-77431695D01*
X109130048Y-77436848D01*
X109130048Y-77436851D01*
X109133925Y-77504083D01*
X109142610Y-77654715D01*
X109143747Y-77659761D01*
X109143748Y-77659767D01*
X109159151Y-77728112D01*
X109191722Y-77872639D01*
X109275766Y-78079616D01*
X109392487Y-78270088D01*
X109538750Y-78438938D01*
X109710626Y-78581632D01*
X109760550Y-78610805D01*
X109783945Y-78624476D01*
X109832669Y-78676114D01*
X109845740Y-78745897D01*
X109819009Y-78811669D01*
X109778555Y-78845027D01*
X109766107Y-78851507D01*
X109761974Y-78854610D01*
X109761971Y-78854612D01*
X109591989Y-78982238D01*
X109587465Y-78985635D01*
X109561266Y-79013051D01*
X109444315Y-79135433D01*
X109433129Y-79147138D01*
X109430215Y-79151410D01*
X109430214Y-79151411D01*
X109386974Y-79214799D01*
X109307243Y-79331680D01*
X109282830Y-79384273D01*
X109220128Y-79519355D01*
X109213188Y-79534305D01*
X109153489Y-79749570D01*
X109129751Y-79971695D01*
X109130048Y-79976848D01*
X109130048Y-79976851D01*
X109133925Y-80044083D01*
X109142610Y-80194715D01*
X109143747Y-80199761D01*
X109143748Y-80199767D01*
X109159151Y-80268112D01*
X109191722Y-80412639D01*
X109275766Y-80619616D01*
X109317098Y-80687064D01*
X109359585Y-80756396D01*
X109392487Y-80810088D01*
X109538750Y-80978938D01*
X109710626Y-81121632D01*
X109903500Y-81234338D01*
X109908325Y-81236180D01*
X109908326Y-81236181D01*
X109979244Y-81263262D01*
X110112192Y-81314030D01*
X110117260Y-81315061D01*
X110117263Y-81315062D01*
X110211502Y-81334235D01*
X110331097Y-81358567D01*
X110336272Y-81358757D01*
X110336274Y-81358757D01*
X110549173Y-81366564D01*
X110549177Y-81366564D01*
X110554337Y-81366753D01*
X110559457Y-81366097D01*
X110559459Y-81366097D01*
X110770788Y-81339025D01*
X110770789Y-81339025D01*
X110775916Y-81338368D01*
X110822047Y-81324528D01*
X110984929Y-81275661D01*
X110984934Y-81275659D01*
X110989884Y-81274174D01*
X111190494Y-81175896D01*
X111372360Y-81046173D01*
X111375386Y-81043157D01*
X111440088Y-81014570D01*
X111456476Y-81013500D01*
X113446041Y-81013500D01*
X113518312Y-81036287D01*
X113647338Y-81126632D01*
X113655751Y-81132523D01*
X113660733Y-81134846D01*
X113660738Y-81134849D01*
X113695549Y-81151081D01*
X113748834Y-81197998D01*
X113768295Y-81266275D01*
X113747753Y-81334235D01*
X113695549Y-81379471D01*
X113660989Y-81395586D01*
X113651493Y-81401069D01*
X113473033Y-81526028D01*
X113464625Y-81533084D01*
X113310584Y-81687125D01*
X113303528Y-81695533D01*
X113178569Y-81873993D01*
X113173086Y-81883489D01*
X113081010Y-82080947D01*
X113077264Y-82091239D01*
X113031106Y-82263503D01*
X113031442Y-82277599D01*
X113039384Y-82281000D01*
X115580467Y-82281000D01*
X115593998Y-82277027D01*
X115595227Y-82268478D01*
X115547736Y-82091239D01*
X115543990Y-82080947D01*
X115451914Y-81883489D01*
X115446431Y-81873993D01*
X115321472Y-81695533D01*
X115314416Y-81687125D01*
X115160375Y-81533084D01*
X115151967Y-81526028D01*
X114973507Y-81401069D01*
X114964011Y-81395586D01*
X114929451Y-81379471D01*
X114876166Y-81332554D01*
X114856705Y-81264277D01*
X114877247Y-81196317D01*
X114929451Y-81151081D01*
X114964262Y-81134849D01*
X114964267Y-81134846D01*
X114969249Y-81132523D01*
X115088282Y-81049175D01*
X115152289Y-81004357D01*
X115152292Y-81004355D01*
X115156800Y-81001198D01*
X115318698Y-80839300D01*
X115332920Y-80818990D01*
X115393160Y-80732958D01*
X115450023Y-80651749D01*
X115452346Y-80646767D01*
X115452349Y-80646762D01*
X115544461Y-80449225D01*
X115544461Y-80449224D01*
X115546784Y-80444243D01*
X115555253Y-80412639D01*
X115604619Y-80228402D01*
X115604619Y-80228400D01*
X115606043Y-80223087D01*
X115625998Y-79995000D01*
X115606043Y-79766913D01*
X115604112Y-79759707D01*
X115548207Y-79551067D01*
X115548206Y-79551064D01*
X115546784Y-79545757D01*
X115544461Y-79540775D01*
X115452349Y-79343238D01*
X115452346Y-79343233D01*
X115450023Y-79338251D01*
X115360760Y-79210771D01*
X115321857Y-79155211D01*
X115321855Y-79155208D01*
X115318698Y-79150700D01*
X115156800Y-78988802D01*
X115152292Y-78985645D01*
X115152289Y-78985643D01*
X115033508Y-78902472D01*
X114969249Y-78857477D01*
X114964267Y-78855154D01*
X114964262Y-78855151D01*
X114930043Y-78839195D01*
X114876758Y-78792278D01*
X114857297Y-78724001D01*
X114877839Y-78656041D01*
X114930043Y-78610805D01*
X114964262Y-78594849D01*
X114964267Y-78594846D01*
X114969249Y-78592523D01*
X115092569Y-78506173D01*
X115152289Y-78464357D01*
X115152292Y-78464355D01*
X115156800Y-78461198D01*
X115318698Y-78299300D01*
X115336421Y-78273990D01*
X115417224Y-78158591D01*
X115450023Y-78111749D01*
X115452346Y-78106767D01*
X115452349Y-78106762D01*
X115544461Y-77909225D01*
X115544461Y-77909224D01*
X115546784Y-77904243D01*
X115555253Y-77872639D01*
X115604619Y-77688402D01*
X115604619Y-77688400D01*
X115606043Y-77683087D01*
X115625998Y-77455000D01*
X115606043Y-77226913D01*
X115604619Y-77221598D01*
X115548207Y-77011067D01*
X115548206Y-77011064D01*
X115546784Y-77005757D01*
X115534473Y-76979355D01*
X115452349Y-76803238D01*
X115452346Y-76803233D01*
X115450023Y-76798251D01*
X115360167Y-76669924D01*
X115321857Y-76615211D01*
X115321855Y-76615208D01*
X115318698Y-76610700D01*
X115156800Y-76448802D01*
X115152292Y-76445645D01*
X115152289Y-76445643D01*
X115038702Y-76366109D01*
X114969249Y-76317477D01*
X114964267Y-76315154D01*
X114964262Y-76315151D01*
X114930043Y-76299195D01*
X114876758Y-76252278D01*
X114857297Y-76184001D01*
X114877839Y-76116041D01*
X114930043Y-76070805D01*
X114964262Y-76054849D01*
X114964267Y-76054846D01*
X114969249Y-76052523D01*
X115130712Y-75939465D01*
X115152289Y-75924357D01*
X115152292Y-75924355D01*
X115156800Y-75921198D01*
X115318698Y-75759300D01*
X115332920Y-75738990D01*
X115404906Y-75636183D01*
X115450023Y-75571749D01*
X115452346Y-75566767D01*
X115452349Y-75566762D01*
X115544461Y-75369225D01*
X115544461Y-75369224D01*
X115546784Y-75364243D01*
X115555253Y-75332639D01*
X115604619Y-75148402D01*
X115604619Y-75148400D01*
X115606043Y-75143087D01*
X115625998Y-74915000D01*
X115606043Y-74686913D01*
X115604112Y-74679707D01*
X115548207Y-74471067D01*
X115548206Y-74471064D01*
X115546784Y-74465757D01*
X115544461Y-74460775D01*
X115452349Y-74263238D01*
X115452346Y-74263233D01*
X115450023Y-74258251D01*
X115318698Y-74070700D01*
X115156800Y-73908802D01*
X115152292Y-73905645D01*
X115152289Y-73905643D01*
X115058492Y-73839966D01*
X114969249Y-73777477D01*
X114964267Y-73775154D01*
X114964262Y-73775151D01*
X114930043Y-73759195D01*
X114876758Y-73712278D01*
X114857297Y-73644001D01*
X114877839Y-73576041D01*
X114930043Y-73530805D01*
X114964262Y-73514849D01*
X114964267Y-73514846D01*
X114969249Y-73512523D01*
X115130712Y-73399465D01*
X115152289Y-73384357D01*
X115152292Y-73384355D01*
X115156800Y-73381198D01*
X115318698Y-73219300D01*
X115338943Y-73190388D01*
X115410644Y-73087988D01*
X115450023Y-73031749D01*
X115452346Y-73026767D01*
X115452349Y-73026762D01*
X115544461Y-72829225D01*
X115544461Y-72829224D01*
X115546784Y-72824243D01*
X115552671Y-72802275D01*
X115604619Y-72608402D01*
X115604619Y-72608400D01*
X115606043Y-72603087D01*
X115625998Y-72375000D01*
X115606043Y-72146913D01*
X115600570Y-72126488D01*
X115548207Y-71931067D01*
X115548206Y-71931064D01*
X115546784Y-71925757D01*
X115535058Y-71900610D01*
X115452349Y-71723238D01*
X115452346Y-71723233D01*
X115450023Y-71718251D01*
X115360760Y-71590771D01*
X115321857Y-71535211D01*
X115321855Y-71535208D01*
X115318698Y-71530700D01*
X115156800Y-71368802D01*
X115152292Y-71365645D01*
X115152289Y-71365643D01*
X115038702Y-71286109D01*
X114969249Y-71237477D01*
X114964267Y-71235154D01*
X114964262Y-71235151D01*
X114930043Y-71219195D01*
X114876758Y-71172278D01*
X114857297Y-71104001D01*
X114877839Y-71036041D01*
X114930043Y-70990805D01*
X114964262Y-70974849D01*
X114964267Y-70974846D01*
X114969249Y-70972523D01*
X115067644Y-70903626D01*
X115134917Y-70880938D01*
X115203777Y-70898223D01*
X115229009Y-70917744D01*
X117355649Y-73044384D01*
X117364751Y-73054527D01*
X117388468Y-73084025D01*
X117426660Y-73116072D01*
X117434752Y-73123487D01*
X117902347Y-73591081D01*
X118337095Y-74025829D01*
X118371120Y-74088142D01*
X118374000Y-74114925D01*
X118374000Y-76048991D01*
X118353998Y-76117112D01*
X118300342Y-76163605D01*
X118294806Y-76165903D01*
X118294204Y-76166232D01*
X118285795Y-76169385D01*
X118169239Y-76256739D01*
X118081885Y-76373295D01*
X118030755Y-76509684D01*
X118024000Y-76571866D01*
X118024000Y-78368134D01*
X118030755Y-78430316D01*
X118081885Y-78566705D01*
X118169239Y-78683261D01*
X118285795Y-78770615D01*
X118294204Y-78773767D01*
X118302075Y-78778077D01*
X118301164Y-78779741D01*
X118348990Y-78815663D01*
X118373693Y-78882224D01*
X118374000Y-78891009D01*
X118374000Y-79048381D01*
X118353998Y-79116502D01*
X118339094Y-79135432D01*
X118323129Y-79152138D01*
X118197243Y-79336680D01*
X118157813Y-79421626D01*
X118122893Y-79496855D01*
X118103188Y-79539305D01*
X118043489Y-79754570D01*
X118019751Y-79976695D01*
X118020048Y-79981848D01*
X118020048Y-79981851D01*
X118020806Y-79995000D01*
X118032610Y-80199715D01*
X118033747Y-80204761D01*
X118033748Y-80204767D01*
X118047806Y-80267143D01*
X118081722Y-80417639D01*
X118165766Y-80624616D01*
X118204034Y-80687064D01*
X118279791Y-80810688D01*
X118282487Y-80815088D01*
X118318664Y-80856851D01*
X118343237Y-80885219D01*
X118372720Y-80949804D01*
X118374000Y-80967717D01*
X118374000Y-81588381D01*
X118353998Y-81656502D01*
X118339094Y-81675432D01*
X118323129Y-81692138D01*
X118197243Y-81876680D01*
X118181503Y-81910590D01*
X118106317Y-82072565D01*
X118103188Y-82079305D01*
X118043489Y-82294570D01*
X118019751Y-82516695D01*
X118020048Y-82521848D01*
X118020048Y-82521851D01*
X118020806Y-82535000D01*
X118032610Y-82739715D01*
X118033747Y-82744761D01*
X118033748Y-82744767D01*
X118036642Y-82757607D01*
X118081722Y-82957639D01*
X118090299Y-82978761D01*
X118161295Y-83153604D01*
X118165766Y-83164616D01*
X118204034Y-83227064D01*
X118279791Y-83350688D01*
X118282487Y-83355088D01*
X118428750Y-83523938D01*
X118600626Y-83666632D01*
X118793500Y-83779338D01*
X118798325Y-83781180D01*
X118798326Y-83781181D01*
X118819810Y-83789385D01*
X119002192Y-83859030D01*
X119007260Y-83860061D01*
X119007263Y-83860062D01*
X119089234Y-83876739D01*
X119221097Y-83903567D01*
X119226272Y-83903757D01*
X119226274Y-83903757D01*
X119439173Y-83911564D01*
X119439177Y-83911564D01*
X119444337Y-83911753D01*
X119449457Y-83911097D01*
X119449459Y-83911097D01*
X119660788Y-83884025D01*
X119660789Y-83884025D01*
X119665916Y-83883368D01*
X119670866Y-83881883D01*
X119874929Y-83820661D01*
X119874934Y-83820659D01*
X119879884Y-83819174D01*
X120080494Y-83720896D01*
X120262360Y-83591173D01*
X120271388Y-83582177D01*
X120370719Y-83483192D01*
X120420596Y-83433489D01*
X120440858Y-83405292D01*
X120550953Y-83252077D01*
X120552276Y-83253028D01*
X120599145Y-83209857D01*
X120669080Y-83197625D01*
X120734526Y-83225144D01*
X120762375Y-83256994D01*
X120822487Y-83355088D01*
X120968750Y-83523938D01*
X121140626Y-83666632D01*
X121333500Y-83779338D01*
X121338325Y-83781180D01*
X121338326Y-83781181D01*
X121359810Y-83789385D01*
X121542192Y-83859030D01*
X121547260Y-83860061D01*
X121547263Y-83860062D01*
X121629234Y-83876739D01*
X121761097Y-83903567D01*
X121766272Y-83903757D01*
X121766274Y-83903757D01*
X121979173Y-83911564D01*
X121979177Y-83911564D01*
X121984337Y-83911753D01*
X121989457Y-83911097D01*
X121989459Y-83911097D01*
X122200788Y-83884025D01*
X122200789Y-83884025D01*
X122205916Y-83883368D01*
X122210866Y-83881883D01*
X122414929Y-83820661D01*
X122414934Y-83820659D01*
X122419884Y-83819174D01*
X122620494Y-83720896D01*
X122802360Y-83591173D01*
X122805386Y-83588157D01*
X122870088Y-83559570D01*
X122886476Y-83558500D01*
X126153182Y-83558500D01*
X126225453Y-83581287D01*
X126355751Y-83672523D01*
X126360733Y-83674846D01*
X126360738Y-83674849D01*
X126394957Y-83690805D01*
X126448242Y-83737722D01*
X126467703Y-83805999D01*
X126447161Y-83873959D01*
X126394957Y-83919195D01*
X126360738Y-83935151D01*
X126360733Y-83935154D01*
X126355751Y-83937477D01*
X126298123Y-83977829D01*
X126172711Y-84065643D01*
X126172708Y-84065645D01*
X126168200Y-84068802D01*
X126006302Y-84230700D01*
X125874977Y-84418251D01*
X125872654Y-84423233D01*
X125872651Y-84423238D01*
X125784529Y-84612218D01*
X125778216Y-84625757D01*
X125776794Y-84631065D01*
X125776793Y-84631067D01*
X125727472Y-84815135D01*
X125718957Y-84846913D01*
X125699002Y-85075000D01*
X125718957Y-85303087D01*
X125720381Y-85308400D01*
X125720381Y-85308402D01*
X125768392Y-85487578D01*
X125778216Y-85524243D01*
X125780539Y-85529224D01*
X125780539Y-85529225D01*
X125872651Y-85726762D01*
X125872654Y-85726767D01*
X125874977Y-85731749D01*
X125909591Y-85781183D01*
X125982426Y-85885201D01*
X126006302Y-85919300D01*
X126168200Y-86081198D01*
X126172708Y-86084355D01*
X126172711Y-86084357D01*
X126221475Y-86118502D01*
X126355751Y-86212523D01*
X126360733Y-86214846D01*
X126360738Y-86214849D01*
X126558275Y-86306961D01*
X126563257Y-86309284D01*
X126568565Y-86310706D01*
X126568567Y-86310707D01*
X126779098Y-86367119D01*
X126779100Y-86367119D01*
X126784413Y-86368543D01*
X126789889Y-86369022D01*
X126789894Y-86369023D01*
X126800826Y-86369979D01*
X126866945Y-86395842D01*
X126908584Y-86453346D01*
X126912525Y-86524233D01*
X126877516Y-86585998D01*
X126814672Y-86619030D01*
X126789845Y-86621500D01*
X114535155Y-86621500D01*
X114467034Y-86601498D01*
X114420541Y-86547842D01*
X114410437Y-86477568D01*
X114439931Y-86412988D01*
X114499657Y-86374604D01*
X114524174Y-86369979D01*
X114535106Y-86369023D01*
X114535111Y-86369022D01*
X114540587Y-86368543D01*
X114545900Y-86367119D01*
X114545902Y-86367119D01*
X114756433Y-86310707D01*
X114756435Y-86310706D01*
X114761743Y-86309284D01*
X114766725Y-86306961D01*
X114964262Y-86214849D01*
X114964267Y-86214846D01*
X114969249Y-86212523D01*
X115103525Y-86118502D01*
X115152289Y-86084357D01*
X115152292Y-86084355D01*
X115156800Y-86081198D01*
X115318698Y-85919300D01*
X115342575Y-85885201D01*
X115415409Y-85781183D01*
X115450023Y-85731749D01*
X115452346Y-85726767D01*
X115452349Y-85726762D01*
X115544461Y-85529225D01*
X115544461Y-85529224D01*
X115546784Y-85524243D01*
X115556609Y-85487578D01*
X115604619Y-85308402D01*
X115604619Y-85308400D01*
X115606043Y-85303087D01*
X115625998Y-85075000D01*
X115606043Y-84846913D01*
X115597528Y-84815135D01*
X115548207Y-84631067D01*
X115548206Y-84631065D01*
X115546784Y-84625757D01*
X115540471Y-84612218D01*
X115452349Y-84423238D01*
X115452346Y-84423233D01*
X115450023Y-84418251D01*
X115318698Y-84230700D01*
X115156800Y-84068802D01*
X115152292Y-84065645D01*
X115152289Y-84065643D01*
X115026877Y-83977829D01*
X114969249Y-83937477D01*
X114964267Y-83935154D01*
X114964262Y-83935151D01*
X114929451Y-83918919D01*
X114876166Y-83872002D01*
X114856705Y-83803725D01*
X114877247Y-83735765D01*
X114929451Y-83690529D01*
X114964011Y-83674414D01*
X114973507Y-83668931D01*
X115151967Y-83543972D01*
X115160375Y-83536916D01*
X115314416Y-83382875D01*
X115321472Y-83374467D01*
X115446431Y-83196007D01*
X115451914Y-83186511D01*
X115543990Y-82989053D01*
X115547736Y-82978761D01*
X115593894Y-82806497D01*
X115593558Y-82792401D01*
X115585616Y-82789000D01*
X113044533Y-82789000D01*
X113031002Y-82792973D01*
X113029773Y-82801522D01*
X113077264Y-82978761D01*
X113081010Y-82989053D01*
X113173086Y-83186511D01*
X113178569Y-83196007D01*
X113303528Y-83374467D01*
X113310584Y-83382875D01*
X113464625Y-83536916D01*
X113473033Y-83543972D01*
X113651493Y-83668931D01*
X113660989Y-83674414D01*
X113695549Y-83690529D01*
X113748834Y-83737446D01*
X113768295Y-83805723D01*
X113747753Y-83873683D01*
X113695549Y-83918919D01*
X113660738Y-83935151D01*
X113660733Y-83935154D01*
X113655751Y-83937477D01*
X113558386Y-84005653D01*
X113504031Y-84043713D01*
X113431760Y-84066500D01*
X112943056Y-84066500D01*
X112874935Y-84046498D01*
X112847246Y-84022332D01*
X112835678Y-84008788D01*
X112835677Y-84008787D01*
X112832469Y-84005031D01*
X112651916Y-83850824D01*
X112647708Y-83848245D01*
X112647702Y-83848241D01*
X112453683Y-83729346D01*
X112449463Y-83726760D01*
X112444893Y-83724867D01*
X112444889Y-83724865D01*
X112234667Y-83637789D01*
X112234665Y-83637788D01*
X112230094Y-83635895D01*
X112149891Y-83616640D01*
X112004024Y-83581620D01*
X112004018Y-83581619D01*
X111999211Y-83580465D01*
X111762500Y-83561835D01*
X111525789Y-83580465D01*
X111520982Y-83581619D01*
X111520976Y-83581620D01*
X111375109Y-83616640D01*
X111294906Y-83635895D01*
X111290335Y-83637788D01*
X111290333Y-83637789D01*
X111080111Y-83724865D01*
X111080107Y-83724867D01*
X111075537Y-83726760D01*
X111071317Y-83729346D01*
X110877298Y-83848241D01*
X110877292Y-83848245D01*
X110873084Y-83850824D01*
X110692531Y-84005031D01*
X110538324Y-84185584D01*
X110535745Y-84189792D01*
X110535741Y-84189798D01*
X110416846Y-84383817D01*
X110414260Y-84388037D01*
X110412367Y-84392607D01*
X110412365Y-84392611D01*
X110325289Y-84602833D01*
X110323395Y-84607406D01*
X110318639Y-84627218D01*
X110270607Y-84827285D01*
X110267965Y-84838289D01*
X110249335Y-85075000D01*
X110267965Y-85311711D01*
X110269119Y-85316518D01*
X110269120Y-85316524D01*
X110276471Y-85347143D01*
X110323395Y-85542594D01*
X110325288Y-85547165D01*
X110325289Y-85547167D01*
X110388072Y-85698738D01*
X110414260Y-85761963D01*
X110416846Y-85766183D01*
X110535741Y-85960202D01*
X110535745Y-85960208D01*
X110538324Y-85964416D01*
X110692531Y-86144969D01*
X110873084Y-86299176D01*
X110877292Y-86301755D01*
X110877298Y-86301759D01*
X111058807Y-86412988D01*
X111075537Y-86423240D01*
X111080107Y-86425133D01*
X111080111Y-86425135D01*
X111167922Y-86461507D01*
X111281661Y-86508619D01*
X111336941Y-86553166D01*
X111359362Y-86620529D01*
X111341804Y-86689321D01*
X111292572Y-86736290D01*
X111291727Y-86736739D01*
X111290663Y-86737298D01*
X111218492Y-86774708D01*
X111208074Y-86780108D01*
X111203911Y-86783431D01*
X111199204Y-86785934D01*
X111127082Y-86844755D01*
X111126226Y-86845446D01*
X111087027Y-86876738D01*
X111084523Y-86879242D01*
X111083805Y-86879884D01*
X111079472Y-86883585D01*
X111045938Y-86910935D01*
X111042011Y-86915682D01*
X111042009Y-86915684D01*
X111016713Y-86946262D01*
X111008723Y-86955042D01*
X109926591Y-88037175D01*
X108918694Y-89045072D01*
X108856382Y-89079097D01*
X108785567Y-89074033D01*
X108751507Y-89054859D01*
X108710914Y-89022800D01*
X108710910Y-89022798D01*
X108706859Y-89019598D01*
X108665553Y-88996796D01*
X108615584Y-88946364D01*
X108600812Y-88876921D01*
X108625928Y-88810516D01*
X108653280Y-88783909D01*
X108722913Y-88734240D01*
X108832360Y-88656173D01*
X108837902Y-88650651D01*
X108913709Y-88575107D01*
X108990596Y-88498489D01*
X109043259Y-88425201D01*
X109117935Y-88321277D01*
X109120953Y-88317077D01*
X109123704Y-88311512D01*
X109217636Y-88121453D01*
X109217637Y-88121451D01*
X109219930Y-88116811D01*
X109284870Y-87903069D01*
X109314029Y-87681590D01*
X109314111Y-87678240D01*
X109315574Y-87618365D01*
X109315574Y-87618361D01*
X109315656Y-87615000D01*
X109297352Y-87392361D01*
X109242931Y-87175702D01*
X109153854Y-86970840D01*
X109112581Y-86907042D01*
X109035322Y-86787617D01*
X109035320Y-86787614D01*
X109032514Y-86783277D01*
X109029040Y-86779459D01*
X109029033Y-86779450D01*
X108884935Y-86621088D01*
X108853883Y-86557242D01*
X108862279Y-86486744D01*
X108907456Y-86431976D01*
X108933900Y-86418307D01*
X109040552Y-86378325D01*
X109056149Y-86369786D01*
X109158224Y-86293285D01*
X109170785Y-86280724D01*
X109247286Y-86178649D01*
X109255824Y-86163054D01*
X109300978Y-86042606D01*
X109304605Y-86027351D01*
X109310131Y-85976486D01*
X109310500Y-85969672D01*
X109310500Y-85347115D01*
X109306025Y-85331876D01*
X109304635Y-85330671D01*
X109296952Y-85329000D01*
X107824500Y-85329000D01*
X107756379Y-85308998D01*
X107709886Y-85255342D01*
X107698500Y-85203000D01*
X107698500Y-84802885D01*
X108206500Y-84802885D01*
X108210975Y-84818124D01*
X108212365Y-84819329D01*
X108220048Y-84821000D01*
X109292384Y-84821000D01*
X109307623Y-84816525D01*
X109308828Y-84815135D01*
X109310499Y-84807452D01*
X109310499Y-84180331D01*
X109310129Y-84173510D01*
X109304605Y-84122648D01*
X109300979Y-84107396D01*
X109255824Y-83986946D01*
X109247286Y-83971351D01*
X109170785Y-83869276D01*
X109158224Y-83856715D01*
X109056149Y-83780214D01*
X109040554Y-83771676D01*
X108920106Y-83726522D01*
X108904851Y-83722895D01*
X108853986Y-83717369D01*
X108847172Y-83717000D01*
X108224615Y-83717000D01*
X108209376Y-83721475D01*
X108208171Y-83722865D01*
X108206500Y-83730548D01*
X108206500Y-84802885D01*
X107698500Y-84802885D01*
X107698500Y-83735116D01*
X107694025Y-83719877D01*
X107692635Y-83718672D01*
X107684952Y-83717001D01*
X107057831Y-83717001D01*
X107051010Y-83717371D01*
X107000148Y-83722895D01*
X106984896Y-83726521D01*
X106864446Y-83771676D01*
X106848851Y-83780214D01*
X106746776Y-83856715D01*
X106734215Y-83869276D01*
X106657712Y-83971354D01*
X106657520Y-83971705D01*
X106657239Y-83971986D01*
X106652328Y-83978538D01*
X106651382Y-83977829D01*
X106607262Y-84021851D01*
X106537871Y-84036865D01*
X106471379Y-84011980D01*
X106428895Y-83955097D01*
X106421000Y-83911196D01*
X106421000Y-71574926D01*
X106441002Y-71506805D01*
X106457904Y-71485831D01*
X107063329Y-70880405D01*
X107125642Y-70846380D01*
X107152425Y-70843500D01*
X109345908Y-70843500D01*
X109414029Y-70863502D01*
G37*
%TD.AperFunction*%
%TD*%
M02*
