M48
; DRILL file {KiCad (6.0.8)} date Sun Feb 19 18:52:07 2023
; FORMAT={-:-/ absolute / metric / decimal}
; #@! TF.CreationDate,2023-02-19T18:52:07-05:00
; #@! TF.GenerationSoftware,Kicad,Pcbnew,(6.0.8)
; #@! TF.FileFunction,Plated,1,2,PTH
FMAT,2
METRIC
; #@! TA.AperFunction,Plated,PTH,ComponentDrill
T1C0.800
; #@! TA.AperFunction,Plated,PTH,ViaDrill
T2C1.000
; #@! TA.AperFunction,Plated,PTH,ComponentDrill
T3C1.000
; #@! TA.AperFunction,Plated,PTH,ComponentDrill
T4C1.020
; #@! TA.AperFunction,Plated,PTH,ComponentDrill
T5C1.100
%
G90
G05
T1
X114.312Y-67.295
X114.312Y-69.835
X114.312Y-72.375
X114.312Y-74.915
X114.312Y-77.455
X114.312Y-79.995
X114.312Y-82.535
X114.312Y-85.075
X114.312Y-91.425
X114.312Y-93.965
X114.312Y-96.505
X114.312Y-99.045
X114.312Y-101.585
X114.312Y-104.125
X114.312Y-106.665
X114.312Y-109.205
X127.012Y-67.295
X127.012Y-69.835
X127.012Y-72.375
X127.012Y-74.915
X127.012Y-77.455
X127.012Y-79.995
X127.012Y-82.535
X127.012Y-85.075
X127.012Y-91.425
X127.012Y-93.965
X127.012Y-96.505
X127.012Y-99.045
X127.012Y-101.585
X127.012Y-104.125
X127.012Y-106.665
X127.012Y-109.205
T2
X105.412Y-96.505
X107.95Y-72.39
X111.76Y-67.31
X111.762Y-85.075
X116.843Y-67.295
X116.843Y-85.075
X116.843Y-91.425
X135.89Y-67.31
X160.022Y-74.945
X160.022Y-85.09
X162.56Y-107.95
X162.575Y-102.855
T3
X107.953Y-85.075
X107.953Y-87.615
X107.953Y-90.155
X110.492Y-72.385
X110.492Y-74.925
X110.492Y-77.465
X110.492Y-80.005
X110.492Y-96.515
X110.492Y-99.055
X110.492Y-101.595
X110.492Y-104.135
X119.382Y-77.47
X119.382Y-80.01
X119.382Y-82.55
X119.382Y-101.585
X119.382Y-104.125
X119.382Y-106.665
X121.922Y-77.47
X121.922Y-80.01
X121.922Y-82.55
X121.922Y-101.585
X121.922Y-104.125
X121.922Y-106.665
X158.752Y-100.315
X158.752Y-102.855
X160.022Y-69.85
X160.022Y-72.39
X160.035Y-110.49
X162.575Y-110.49
X163.832Y-72.39
X163.832Y-74.93
X163.832Y-77.47
X163.832Y-80.01
X163.832Y-82.55
X163.832Y-85.09
X165.115Y-110.49
X168.912Y-100.3
X168.912Y-102.84
X168.912Y-105.38
T4
X132.082Y-72.39
X132.082Y-74.93
X132.082Y-77.47
X132.082Y-80.01
X132.082Y-82.55
X132.082Y-85.09
X132.082Y-87.63
X132.082Y-90.17
X132.082Y-92.71
X132.082Y-95.25
X132.082Y-97.79
X132.082Y-100.33
X132.082Y-102.87
X154.942Y-72.39
X154.942Y-74.93
X154.942Y-77.47
X154.942Y-80.01
X154.942Y-82.55
X154.942Y-85.09
X154.942Y-87.63
X154.942Y-90.17
X154.942Y-92.71
X154.942Y-95.25
X154.942Y-97.79
X154.942Y-100.33
X154.942Y-102.87
T5
X165.1Y-100.33
X165.1Y-102.87
X165.1Y-105.41
T0
M30
