solid Default
  facet normal 5.775291e-16 5.981552e-15 1.000000e+00
    outer loop
      vertex 1.722500e+01 1.049999e+01 4.000000e+00
      vertex 2.722500e+01 -1.750001e+01 4.000000e+00
      vertex 2.722500e+01 1.049999e+01 4.000000e+00
    endloop
  endfacet
  facet normal 5.775291e-16 5.981552e-15 1.000000e+00
    outer loop
      vertex 2.722500e+01 -1.750001e+01 4.000000e+00
      vertex 1.722500e+01 1.049999e+01 4.000000e+00
      vertex 2.391538e+01 -1.204707e+01 4.000000e+00
    endloop
  endfacet
  facet normal 5.775291e-16 5.981552e-15 1.000000e+00
    outer loop
      vertex 2.722500e+01 -1.750001e+01 4.000000e+00
      vertex 2.391538e+01 -1.204707e+01 4.000000e+00
      vertex 2.397500e+01 -1.250001e+01 4.000000e+00
    endloop
  endfacet
  facet normal 5.775291e-16 5.981552e-15 1.000000e+00
    outer loop
      vertex 2.391538e+01 -1.204707e+01 4.000000e+00
      vertex 1.722500e+01 1.049999e+01 4.000000e+00
      vertex 2.374055e+01 -1.162501e+01 4.000000e+00
    endloop
  endfacet
  facet normal 5.775291e-16 5.981552e-15 1.000000e+00
    outer loop
      vertex 2.374055e+01 -1.162501e+01 4.000000e+00
      vertex 1.722500e+01 1.049999e+01 4.000000e+00
      vertex 2.346244e+01 -1.126255e+01 4.000000e+00
    endloop
  endfacet
  facet normal 5.775291e-16 5.981552e-15 1.000000e+00
    outer loop
      vertex 2.346244e+01 -1.126255e+01 4.000000e+00
      vertex 1.722500e+01 1.049999e+01 4.000000e+00
      vertex 2.310000e+01 -1.098444e+01 4.000000e+00
    endloop
  endfacet
  facet normal 5.775291e-16 5.981552e-15 1.000000e+00
    outer loop
      vertex 2.310000e+01 -1.098444e+01 4.000000e+00
      vertex 1.722500e+01 1.049999e+01 4.000000e+00
      vertex 2.267794e+01 -1.080964e+01 4.000000e+00
    endloop
  endfacet
  facet normal 5.775291e-16 5.981552e-15 1.000000e+00
    outer loop
      vertex 2.267794e+01 -1.080964e+01 4.000000e+00
      vertex 1.722500e+01 1.049999e+01 4.000000e+00
      vertex 2.222500e+01 -1.075001e+01 4.000000e+00
    endloop
  endfacet
  facet normal 5.775291e-16 5.981552e-15 1.000000e+00
    outer loop
      vertex 2.222500e+01 -1.075001e+01 4.000000e+00
      vertex 1.722500e+01 1.049999e+01 4.000000e+00
      vertex 2.177207e+01 -1.080964e+01 4.000000e+00
    endloop
  endfacet
  facet normal 5.775291e-16 5.981552e-15 1.000000e+00
    outer loop
      vertex 2.177207e+01 -1.080964e+01 4.000000e+00
      vertex 1.722500e+01 1.049999e+01 4.000000e+00
      vertex 2.135000e+01 -1.098444e+01 4.000000e+00
    endloop
  endfacet
  facet normal 5.775291e-16 5.981552e-15 1.000000e+00
    outer loop
      vertex 2.135000e+01 -1.098444e+01 4.000000e+00
      vertex 1.722500e+01 1.049999e+01 4.000000e+00
      vertex 2.098757e+01 -1.126255e+01 4.000000e+00
    endloop
  endfacet
  facet normal 5.775291e-16 5.981552e-15 1.000000e+00
    outer loop
      vertex 2.098757e+01 -1.126255e+01 4.000000e+00
      vertex 1.722500e+01 1.049999e+01 4.000000e+00
      vertex 2.070947e+01 -1.162501e+01 4.000000e+00
    endloop
  endfacet
  facet normal 5.775291e-16 5.981552e-15 1.000000e+00
    outer loop
      vertex 2.070947e+01 -1.162501e+01 4.000000e+00
      vertex 1.722500e+01 1.049999e+01 4.000000e+00
      vertex 2.053463e+01 -1.204707e+01 4.000000e+00
    endloop
  endfacet
  facet normal 5.775291e-16 5.981552e-15 1.000000e+00
    outer loop
      vertex 2.053463e+01 -1.204707e+01 4.000000e+00
      vertex 1.722500e+01 1.049999e+01 4.000000e+00
      vertex 2.047500e+01 -1.250001e+01 4.000000e+00
    endloop
  endfacet
  facet normal 5.775291e-16 5.981552e-15 1.000000e+00
    outer loop
      vertex 2.722500e+01 -1.750001e+01 4.000000e+00
      vertex 2.310000e+01 -1.401554e+01 4.000000e+00
      vertex 1.722500e+01 -1.750001e+01 4.000000e+00
    endloop
  endfacet
  facet normal 5.775291e-16 5.981552e-15 1.000000e+00
    outer loop
      vertex 2.310000e+01 -1.401554e+01 4.000000e+00
      vertex 2.722500e+01 -1.750001e+01 4.000000e+00
      vertex 2.346244e+01 -1.373743e+01 4.000000e+00
    endloop
  endfacet
  facet normal 5.775291e-16 5.981552e-15 1.000000e+00
    outer loop
      vertex 2.346244e+01 -1.373743e+01 4.000000e+00
      vertex 2.722500e+01 -1.750001e+01 4.000000e+00
      vertex 2.374055e+01 -1.337501e+01 4.000000e+00
    endloop
  endfacet
  facet normal 5.775291e-16 5.981552e-15 1.000000e+00
    outer loop
      vertex 2.374055e+01 -1.337501e+01 4.000000e+00
      vertex 2.722500e+01 -1.750001e+01 4.000000e+00
      vertex 2.391538e+01 -1.295292e+01 4.000000e+00
    endloop
  endfacet
  facet normal 5.775291e-16 5.981552e-15 1.000000e+00
    outer loop
      vertex 2.391538e+01 -1.295292e+01 4.000000e+00
      vertex 2.722500e+01 -1.750001e+01 4.000000e+00
      vertex 2.397500e+01 -1.250001e+01 4.000000e+00
    endloop
  endfacet
  facet normal 5.775291e-16 5.981552e-15 1.000000e+00
    outer loop
      vertex 1.722500e+01 -1.750001e+01 4.000000e+00
      vertex 2.310000e+01 -1.401554e+01 4.000000e+00
      vertex 2.267794e+01 -1.419038e+01 4.000000e+00
    endloop
  endfacet
  facet normal 5.775291e-16 5.981552e-15 1.000000e+00
    outer loop
      vertex 1.722500e+01 -1.750001e+01 4.000000e+00
      vertex 2.267794e+01 -1.419038e+01 4.000000e+00
      vertex 2.222500e+01 -1.425001e+01 4.000000e+00
    endloop
  endfacet
  facet normal 5.775291e-16 5.981552e-15 1.000000e+00
    outer loop
      vertex 1.722500e+01 -1.750001e+01 4.000000e+00
      vertex 2.222500e+01 -1.425001e+01 4.000000e+00
      vertex 2.177207e+01 -1.419038e+01 4.000000e+00
    endloop
  endfacet
  facet normal 5.775291e-16 5.981552e-15 1.000000e+00
    outer loop
      vertex 1.722500e+01 -1.750001e+01 4.000000e+00
      vertex 2.177207e+01 -1.419038e+01 4.000000e+00
      vertex 2.135000e+01 -1.401554e+01 4.000000e+00
    endloop
  endfacet
  facet normal 5.775291e-16 5.981552e-15 1.000000e+00
    outer loop
      vertex 1.722500e+01 -1.750001e+01 4.000000e+00
      vertex 2.135000e+01 -1.401554e+01 4.000000e+00
      vertex 2.098757e+01 -1.373743e+01 4.000000e+00
    endloop
  endfacet
  facet normal 5.775291e-16 5.981552e-15 1.000000e+00
    outer loop
      vertex 1.722500e+01 -1.750001e+01 4.000000e+00
      vertex 2.098757e+01 -1.373743e+01 4.000000e+00
      vertex 2.070947e+01 -1.337501e+01 4.000000e+00
    endloop
  endfacet
  facet normal 5.775291e-16 5.981552e-15 1.000000e+00
    outer loop
      vertex 1.722500e+01 -1.750001e+01 4.000000e+00
      vertex 2.070947e+01 -1.337501e+01 4.000000e+00
      vertex 2.053463e+01 -1.295292e+01 4.000000e+00
    endloop
  endfacet
  facet normal 5.775291e-16 5.981552e-15 1.000000e+00
    outer loop
      vertex 1.722500e+01 -1.750001e+01 4.000000e+00
      vertex 2.053463e+01 -1.295292e+01 4.000000e+00
      vertex 2.047500e+01 -1.250001e+01 4.000000e+00
    endloop
  endfacet
  facet normal 5.775291e-16 5.981552e-15 1.000000e+00
    outer loop
      vertex 1.722500e+01 -1.750001e+01 4.000000e+00
      vertex 2.047500e+01 -1.250001e+01 4.000000e+00
      vertex 1.722500e+01 1.049999e+01 4.000000e+00
    endloop
  endfacet
  facet normal 1.129335e-15 -1.305262e-01 9.914449e-01
    outer loop
      vertex 1.722500e+01 1.101763e+01 4.068146e+00
      vertex 2.722500e+01 1.049999e+01 4.000000e+00
      vertex 2.722500e+01 1.101763e+01 4.068146e+00
    endloop
  endfacet
  facet normal 1.129335e-15 -1.305262e-01 9.914449e-01
    outer loop
      vertex 2.722500e+01 1.049999e+01 4.000000e+00
      vertex 1.722500e+01 1.101763e+01 4.068146e+00
      vertex 1.722500e+01 1.049999e+01 4.000000e+00
    endloop
  endfacet
  facet normal 1.905207e-15 -3.826834e-01 9.238795e-01
    outer loop
      vertex 1.722500e+01 1.149999e+01 4.267948e+00
      vertex 2.722500e+01 1.101763e+01 4.068146e+00
      vertex 2.722500e+01 1.149999e+01 4.267948e+00
    endloop
  endfacet
  facet normal 1.905207e-15 -3.826834e-01 9.238795e-01
    outer loop
      vertex 2.722500e+01 1.101763e+01 4.068146e+00
      vertex 1.722500e+01 1.149999e+01 4.267948e+00
      vertex 1.722500e+01 1.101763e+01 4.068146e+00
    endloop
  endfacet
  facet normal 3.655485e-15 -6.087614e-01 7.933533e-01
    outer loop
      vertex 1.722500e+01 1.191422e+01 4.585785e+00
      vertex 2.722500e+01 1.149999e+01 4.267948e+00
      vertex 2.722500e+01 1.191422e+01 4.585785e+00
    endloop
  endfacet
  facet normal 3.655485e-15 -6.087614e-01 7.933533e-01
    outer loop
      vertex 2.722500e+01 1.149999e+01 4.267948e+00
      vertex 1.722500e+01 1.191422e+01 4.585785e+00
      vertex 1.722500e+01 1.149999e+01 4.267948e+00
    endloop
  endfacet
  facet normal 4.525589e-17 -1.000000e+00 4.824196e-13
    outer loop
      vertex 2.722500e+01 1.250001e+01 1.100000e+01
      vertex 1.722500e+01 1.250001e+01 6.000000e+00
      vertex 2.722500e+01 1.250001e+01 6.000000e+00
    endloop
  endfacet
  facet normal 4.525589e-17 -1.000000e+00 4.824196e-13
    outer loop
      vertex 1.722500e+01 1.250001e+01 6.000000e+00
      vertex 2.722500e+01 1.250001e+01 1.100000e+01
      vertex -1.722500e+01 1.250001e+01 6.000000e+00
    endloop
  endfacet
  facet normal 4.525589e-17 -1.000000e+00 4.824196e-13
    outer loop
      vertex -1.722500e+01 1.250001e+01 6.000000e+00
      vertex -2.722500e+01 1.250001e+01 1.100000e+01
      vertex -2.722500e+01 1.250001e+01 6.000000e+00
    endloop
  endfacet
  facet normal 4.525589e-17 -1.000000e+00 4.824196e-13
    outer loop
      vertex -2.722500e+01 1.250001e+01 1.100000e+01
      vertex -1.722500e+01 1.250001e+01 6.000000e+00
      vertex 2.722500e+01 1.250001e+01 1.100000e+01
    endloop
  endfacet
  facet normal 4.525589e-17 -1.000000e+00 4.824196e-13
    outer loop
      vertex 1.722500e+01 1.250001e+01 6.000000e+00
      vertex -1.722500e+01 1.250001e+01 0.000000e+00
      vertex 1.722500e+01 1.250001e+01 0.000000e+00
    endloop
  endfacet
  facet normal 4.525589e-17 -1.000000e+00 4.824196e-13
    outer loop
      vertex -1.722500e+01 1.250001e+01 0.000000e+00
      vertex 1.722500e+01 1.250001e+01 6.000000e+00
      vertex -1.722500e+01 1.250001e+01 4.000000e+00
    endloop
  endfacet
  facet normal 4.525589e-17 -1.000000e+00 4.824196e-13
    outer loop
      vertex -1.722500e+01 1.250001e+01 4.000000e+00
      vertex 1.722500e+01 1.250001e+01 6.000000e+00
      vertex -1.722500e+01 1.250001e+01 6.000000e+00
    endloop
  endfacet
  facet normal -3.126192e-13 -6.087614e-01 7.933533e-01
    outer loop
      vertex -1.722500e+01 1.191422e+01 4.585785e+00
      vertex -2.722500e+01 1.149999e+01 4.267948e+00
      vertex -1.722500e+01 1.149999e+01 4.267948e+00
    endloop
  endfacet
  facet normal -3.126192e-13 -6.087614e-01 7.933533e-01
    outer loop
      vertex -2.722500e+01 1.149999e+01 4.267948e+00
      vertex -1.722500e+01 1.191422e+01 4.585785e+00
      vertex -2.722500e+01 1.191422e+01 4.585785e+00
    endloop
  endfacet
  facet normal -6.782870e-14 -9.914449e-01 1.305262e-01
    outer loop
      vertex -1.722500e+01 1.243185e+01 5.482361e+00
      vertex -2.722500e+01 1.250001e+01 6.000000e+00
      vertex -2.722500e+01 1.243185e+01 5.482361e+00
    endloop
  endfacet
  facet normal -6.782870e-14 -9.914449e-01 1.305262e-01
    outer loop
      vertex -2.722500e+01 1.250001e+01 6.000000e+00
      vertex -1.722500e+01 1.243185e+01 5.482361e+00
      vertex -1.722500e+01 1.250001e+01 6.000000e+00
    endloop
  endfacet
  facet normal -1.618457e-13 -9.238795e-01 3.826834e-01
    outer loop
      vertex -1.722500e+01 1.223205e+01 5.000000e+00
      vertex -2.722500e+01 1.243185e+01 5.482361e+00
      vertex -2.722500e+01 1.223205e+01 5.000000e+00
    endloop
  endfacet
  facet normal -1.618457e-13 -9.238795e-01 3.826834e-01
    outer loop
      vertex -2.722500e+01 1.243185e+01 5.482361e+00
      vertex -1.722500e+01 1.223205e+01 5.000000e+00
      vertex -1.722500e+01 1.243185e+01 5.482361e+00
    endloop
  endfacet
  facet normal 1.000000e+00 1.571983e-16 3.910810e-13
    outer loop
      vertex -1.722500e+01 1.243185e+01 5.482361e+00
      vertex -1.722500e+01 1.250001e+01 4.000000e+00
      vertex -1.722500e+01 1.250001e+01 6.000000e+00
    endloop
  endfacet
  facet normal 1.000000e+00 1.571983e-16 3.910810e-13
    outer loop
      vertex -1.722500e+01 1.250001e+01 4.000000e+00
      vertex -1.722500e+01 1.243185e+01 5.482361e+00
      vertex -1.722500e+01 1.223205e+01 5.000000e+00
    endloop
  endfacet
  facet normal 1.000000e+00 1.571983e-16 3.910810e-13
    outer loop
      vertex -1.722500e+01 1.250001e+01 4.000000e+00
      vertex -1.722500e+01 1.223205e+01 5.000000e+00
      vertex -1.722500e+01 1.191422e+01 4.585785e+00
    endloop
  endfacet
  facet normal 1.000000e+00 1.571983e-16 3.910810e-13
    outer loop
      vertex -1.722500e+01 1.250001e+01 4.000000e+00
      vertex -1.722500e+01 1.191422e+01 4.585785e+00
      vertex -1.722500e+01 1.149999e+01 4.267948e+00
    endloop
  endfacet
  facet normal 1.000000e+00 1.571983e-16 3.910810e-13
    outer loop
      vertex -1.722500e+01 1.250001e+01 4.000000e+00
      vertex -1.722500e+01 1.149999e+01 4.267948e+00
      vertex -1.722500e+01 1.101763e+01 4.068146e+00
    endloop
  endfacet
  facet normal 1.000000e+00 1.571983e-16 3.910810e-13
    outer loop
      vertex -1.722500e+01 1.250001e+01 4.000000e+00
      vertex -1.722500e+01 1.101763e+01 4.068146e+00
      vertex -1.722500e+01 1.049999e+01 4.000000e+00
    endloop
  endfacet
  facet normal -3.589554e-13 -3.826834e-01 9.238795e-01
    outer loop
      vertex -1.722500e+01 1.149999e+01 4.267948e+00
      vertex -2.722500e+01 1.101763e+01 4.068146e+00
      vertex -1.722500e+01 1.101763e+01 4.068146e+00
    endloop
  endfacet
  facet normal -3.589554e-13 -3.826834e-01 9.238795e-01
    outer loop
      vertex -2.722500e+01 1.101763e+01 4.068146e+00
      vertex -1.722500e+01 1.149999e+01 4.267948e+00
      vertex -2.722500e+01 1.149999e+01 4.267948e+00
    endloop
  endfacet
  facet normal 6.103251e-15 -7.933533e-01 6.087614e-01
    outer loop
      vertex 2.722500e+01 1.223205e+01 5.000000e+00
      vertex 1.722500e+01 1.191422e+01 4.585785e+00
      vertex 2.722500e+01 1.191422e+01 4.585785e+00
    endloop
  endfacet
  facet normal 6.103251e-15 -7.933533e-01 6.087614e-01
    outer loop
      vertex 1.722500e+01 1.191422e+01 4.585785e+00
      vertex 2.722500e+01 1.223205e+01 5.000000e+00
      vertex 1.722500e+01 1.223205e+01 5.000000e+00
    endloop
  endfacet
  facet normal 1.100001e-14 -9.238795e-01 3.826834e-01
    outer loop
      vertex 2.722500e+01 1.243185e+01 5.482361e+00
      vertex 1.722500e+01 1.223205e+01 5.000000e+00
      vertex 2.722500e+01 1.223205e+01 5.000000e+00
    endloop
  endfacet
  facet normal 1.100001e-14 -9.238795e-01 3.826834e-01
    outer loop
      vertex 1.722500e+01 1.223205e+01 5.000000e+00
      vertex 2.722500e+01 1.243185e+01 5.482361e+00
      vertex 1.722500e+01 1.243185e+01 5.482361e+00
    endloop
  endfacet
  facet normal -2.446675e-13 -7.933533e-01 6.087614e-01
    outer loop
      vertex -1.722500e+01 1.191422e+01 4.585785e+00
      vertex -2.722500e+01 1.223205e+01 5.000000e+00
      vertex -2.722500e+01 1.191422e+01 4.585785e+00
    endloop
  endfacet
  facet normal -2.446675e-13 -7.933533e-01 6.087614e-01
    outer loop
      vertex -2.722500e+01 1.223205e+01 5.000000e+00
      vertex -1.722500e+01 1.191422e+01 4.585785e+00
      vertex -1.722500e+01 1.223205e+01 5.000000e+00
    endloop
  endfacet
  facet normal 1.606225e-14 -9.914449e-01 1.305262e-01
    outer loop
      vertex 2.722500e+01 1.250001e+01 6.000000e+00
      vertex 1.722500e+01 1.243185e+01 5.482361e+00
      vertex 2.722500e+01 1.243185e+01 5.482361e+00
    endloop
  endfacet
  facet normal 1.606225e-14 -9.914449e-01 1.305262e-01
    outer loop
      vertex 1.722500e+01 1.243185e+01 5.482361e+00
      vertex 2.722500e+01 1.250001e+01 6.000000e+00
      vertex 1.722500e+01 1.250001e+01 6.000000e+00
    endloop
  endfacet
  facet normal -3.807870e-13 -1.305262e-01 9.914449e-01
    outer loop
      vertex -1.722500e+01 1.101763e+01 4.068146e+00
      vertex -2.722500e+01 1.049999e+01 4.000000e+00
      vertex -1.722500e+01 1.049999e+01 4.000000e+00
    endloop
  endfacet
  facet normal -3.807870e-13 -1.305262e-01 9.914449e-01
    outer loop
      vertex -2.722500e+01 1.049999e+01 4.000000e+00
      vertex -1.722500e+01 1.101763e+01 4.068146e+00
      vertex -2.722500e+01 1.101763e+01 4.068146e+00
    endloop
  endfacet
  facet normal -1.000000e+00 -3.565538e-15 5.984160e-14
    outer loop
      vertex -2.722500e+01 1.750001e+01 0.000000e+00
      vertex -2.722500e+01 1.250001e+01 1.100000e+01
      vertex -2.722500e+01 1.750001e+01 1.100000e+01
    endloop
  endfacet
  facet normal -1.000000e+00 -3.565538e-15 5.984160e-14
    outer loop
      vertex -2.722500e+01 1.250001e+01 1.100000e+01
      vertex -2.722500e+01 1.750001e+01 0.000000e+00
      vertex -2.722500e+01 1.250001e+01 6.000000e+00
    endloop
  endfacet
  facet normal -1.000000e+00 -3.565538e-15 5.984160e-14
    outer loop
      vertex -2.722500e+01 1.250001e+01 6.000000e+00
      vertex -2.722500e+01 1.750001e+01 0.000000e+00
      vertex -2.722500e+01 1.243185e+01 5.482361e+00
    endloop
  endfacet
  facet normal -1.000000e+00 -3.565538e-15 5.984160e-14
    outer loop
      vertex -2.722500e+01 1.243185e+01 5.482361e+00
      vertex -2.722500e+01 1.750001e+01 0.000000e+00
      vertex -2.722500e+01 1.223205e+01 5.000000e+00
    endloop
  endfacet
  facet normal -1.000000e+00 -3.565538e-15 5.984160e-14
    outer loop
      vertex -2.722500e+01 1.223205e+01 5.000000e+00
      vertex -2.722500e+01 1.750001e+01 0.000000e+00
      vertex -2.722500e+01 1.191422e+01 4.585785e+00
    endloop
  endfacet
  facet normal -1.000000e+00 -3.565538e-15 5.984160e-14
    outer loop
      vertex -2.722500e+01 1.191422e+01 4.585785e+00
      vertex -2.722500e+01 1.750001e+01 0.000000e+00
      vertex -2.722500e+01 1.149999e+01 4.267948e+00
    endloop
  endfacet
  facet normal -1.000000e+00 -3.565538e-15 5.984160e-14
    outer loop
      vertex -2.722500e+01 1.149999e+01 4.267948e+00
      vertex -2.722500e+01 1.750001e+01 0.000000e+00
      vertex -2.722500e+01 1.101763e+01 4.068146e+00
    endloop
  endfacet
  facet normal -1.000000e+00 -3.565538e-15 5.984160e-14
    outer loop
      vertex -2.722500e+01 1.101763e+01 4.068146e+00
      vertex -2.722500e+01 1.750001e+01 0.000000e+00
      vertex -2.722500e+01 -1.750001e+01 0.000000e+00
    endloop
  endfacet
  facet normal -1.000000e+00 -3.565538e-15 5.984160e-14
    outer loop
      vertex -2.722500e+01 1.101763e+01 4.068146e+00
      vertex -2.722500e+01 -1.750001e+01 0.000000e+00
      vertex -2.722500e+01 1.049999e+01 4.000000e+00
    endloop
  endfacet
  facet normal -1.000000e+00 -3.565538e-15 5.984160e-14
    outer loop
      vertex -2.722500e+01 1.049999e+01 4.000000e+00
      vertex -2.722500e+01 -1.750001e+01 0.000000e+00
      vertex -2.722500e+01 -1.750001e+01 4.000000e+00
    endloop
  endfacet
  facet normal 8.566285e-14 7.360609e-13 1.000000e+00
    outer loop
      vertex -2.722500e+01 1.750001e+01 1.100000e+01
      vertex 2.722500e+01 1.250001e+01 1.100000e+01
      vertex 2.722500e+01 1.750001e+01 1.100000e+01
    endloop
  endfacet
  facet normal 8.566285e-14 7.360609e-13 1.000000e+00
    outer loop
      vertex 2.722500e+01 1.250001e+01 1.100000e+01
      vertex -2.722500e+01 1.750001e+01 1.100000e+01
      vertex -2.722500e+01 1.250001e+01 1.100000e+01
    endloop
  endfacet
  facet normal -1.539773e-13 -7.208181e-14 -1.000000e+00
    outer loop
      vertex 2.722500e+01 -1.750001e+01 0.000000e+00
      vertex 2.397500e+01 -1.250001e+01 0.000000e+00
      vertex 2.722500e+01 1.750001e+01 0.000000e+00
    endloop
  endfacet
  facet normal -1.539773e-13 -7.208181e-14 -1.000000e+00
    outer loop
      vertex 2.397500e+01 -1.250001e+01 0.000000e+00
      vertex 2.722500e+01 -1.750001e+01 0.000000e+00
      vertex 2.391538e+01 -1.295292e+01 0.000000e+00
    endloop
  endfacet
  facet normal -1.539773e-13 -7.208181e-14 -1.000000e+00
    outer loop
      vertex 2.391538e+01 -1.295292e+01 0.000000e+00
      vertex 2.722500e+01 -1.750001e+01 0.000000e+00
      vertex 2.374055e+01 -1.337501e+01 0.000000e+00
    endloop
  endfacet
  facet normal -1.539773e-13 -7.208181e-14 -1.000000e+00
    outer loop
      vertex 2.374055e+01 -1.337501e+01 0.000000e+00
      vertex 2.722500e+01 -1.750001e+01 0.000000e+00
      vertex 2.346244e+01 -1.373743e+01 0.000000e+00
    endloop
  endfacet
  facet normal -1.539773e-13 -7.208181e-14 -1.000000e+00
    outer loop
      vertex 2.346244e+01 -1.373743e+01 0.000000e+00
      vertex 2.722500e+01 -1.750001e+01 0.000000e+00
      vertex 2.310000e+01 -1.401554e+01 0.000000e+00
    endloop
  endfacet
  facet normal -1.539773e-13 -7.208181e-14 -1.000000e+00
    outer loop
      vertex 2.310000e+01 -1.401554e+01 0.000000e+00
      vertex 2.722500e+01 -1.750001e+01 0.000000e+00
      vertex 1.722500e+01 -1.750001e+01 0.000000e+00
    endloop
  endfacet
  facet normal -1.539773e-13 -7.208181e-14 -1.000000e+00
    outer loop
      vertex 2.310000e+01 -1.401554e+01 0.000000e+00
      vertex 1.722500e+01 -1.750001e+01 0.000000e+00
      vertex 2.267794e+01 -1.419038e+01 0.000000e+00
    endloop
  endfacet
  facet normal -1.539773e-13 -7.208181e-14 -1.000000e+00
    outer loop
      vertex 2.267794e+01 -1.419038e+01 0.000000e+00
      vertex 1.722500e+01 -1.750001e+01 0.000000e+00
      vertex 2.222500e+01 -1.425001e+01 0.000000e+00
    endloop
  endfacet
  facet normal -1.539773e-13 -7.208181e-14 -1.000000e+00
    outer loop
      vertex 2.222500e+01 -1.425001e+01 0.000000e+00
      vertex 1.722500e+01 -1.750001e+01 0.000000e+00
      vertex 2.177207e+01 -1.419038e+01 0.000000e+00
    endloop
  endfacet
  facet normal -1.539773e-13 -7.208181e-14 -1.000000e+00
    outer loop
      vertex 2.177207e+01 -1.419038e+01 0.000000e+00
      vertex 1.722500e+01 -1.750001e+01 0.000000e+00
      vertex 2.135000e+01 -1.401554e+01 0.000000e+00
    endloop
  endfacet
  facet normal -1.539773e-13 -7.208181e-14 -1.000000e+00
    outer loop
      vertex 2.135000e+01 -1.401554e+01 0.000000e+00
      vertex 1.722500e+01 -1.750001e+01 0.000000e+00
      vertex 2.098757e+01 -1.373743e+01 0.000000e+00
    endloop
  endfacet
  facet normal -1.539773e-13 -7.208181e-14 -1.000000e+00
    outer loop
      vertex 2.098757e+01 -1.373743e+01 0.000000e+00
      vertex 1.722500e+01 -1.750001e+01 0.000000e+00
      vertex 2.070947e+01 -1.337501e+01 0.000000e+00
    endloop
  endfacet
  facet normal -1.539773e-13 -7.208181e-14 -1.000000e+00
    outer loop
      vertex 2.070947e+01 -1.337501e+01 0.000000e+00
      vertex 1.722500e+01 -1.750001e+01 0.000000e+00
      vertex 2.053463e+01 -1.295292e+01 0.000000e+00
    endloop
  endfacet
  facet normal -1.539773e-13 -7.208181e-14 -1.000000e+00
    outer loop
      vertex 2.053463e+01 -1.295292e+01 0.000000e+00
      vertex 1.722500e+01 -1.750001e+01 0.000000e+00
      vertex 2.047500e+01 -1.250001e+01 0.000000e+00
    endloop
  endfacet
  facet normal -1.539773e-13 -7.208181e-14 -1.000000e+00
    outer loop
      vertex -1.722500e+01 -1.750001e+01 0.000000e+00
      vertex -2.047500e+01 -1.250001e+01 0.000000e+00
      vertex -1.722500e+01 1.250001e+01 0.000000e+00
    endloop
  endfacet
  facet normal -1.539773e-13 -7.208181e-14 -1.000000e+00
    outer loop
      vertex -2.047500e+01 -1.250001e+01 0.000000e+00
      vertex -1.722500e+01 -1.750001e+01 0.000000e+00
      vertex -2.053463e+01 -1.295292e+01 0.000000e+00
    endloop
  endfacet
  facet normal -1.539773e-13 -7.208181e-14 -1.000000e+00
    outer loop
      vertex -2.053463e+01 -1.295292e+01 0.000000e+00
      vertex -1.722500e+01 -1.750001e+01 0.000000e+00
      vertex -2.070945e+01 -1.337501e+01 0.000000e+00
    endloop
  endfacet
  facet normal -1.539773e-13 -7.208181e-14 -1.000000e+00
    outer loop
      vertex -2.070945e+01 -1.337501e+01 0.000000e+00
      vertex -1.722500e+01 -1.750001e+01 0.000000e+00
      vertex -2.098756e+01 -1.373743e+01 0.000000e+00
    endloop
  endfacet
  facet normal -1.539773e-13 -7.208181e-14 -1.000000e+00
    outer loop
      vertex -2.098756e+01 -1.373743e+01 0.000000e+00
      vertex -1.722500e+01 -1.750001e+01 0.000000e+00
      vertex -2.135000e+01 -1.401554e+01 0.000000e+00
    endloop
  endfacet
  facet normal -1.539773e-13 -7.208181e-14 -1.000000e+00
    outer loop
      vertex -2.135000e+01 -1.401554e+01 0.000000e+00
      vertex -1.722500e+01 -1.750001e+01 0.000000e+00
      vertex -2.722500e+01 -1.750001e+01 0.000000e+00
    endloop
  endfacet
  facet normal -1.539773e-13 -7.208181e-14 -1.000000e+00
    outer loop
      vertex -2.135000e+01 -1.401554e+01 0.000000e+00
      vertex -2.722500e+01 -1.750001e+01 0.000000e+00
      vertex -2.177206e+01 -1.419038e+01 0.000000e+00
    endloop
  endfacet
  facet normal -1.539773e-13 -7.208181e-14 -1.000000e+00
    outer loop
      vertex -2.177206e+01 -1.419038e+01 0.000000e+00
      vertex -2.722500e+01 -1.750001e+01 0.000000e+00
      vertex -2.222500e+01 -1.425001e+01 0.000000e+00
    endloop
  endfacet
  facet normal -1.539773e-13 -7.208181e-14 -1.000000e+00
    outer loop
      vertex -2.222500e+01 -1.425001e+01 0.000000e+00
      vertex -2.722500e+01 -1.750001e+01 0.000000e+00
      vertex -2.267793e+01 -1.419038e+01 0.000000e+00
    endloop
  endfacet
  facet normal -1.539773e-13 -7.208181e-14 -1.000000e+00
    outer loop
      vertex -2.267793e+01 -1.419038e+01 0.000000e+00
      vertex -2.722500e+01 -1.750001e+01 0.000000e+00
      vertex -2.310000e+01 -1.401554e+01 0.000000e+00
    endloop
  endfacet
  facet normal -1.539773e-13 -7.208181e-14 -1.000000e+00
    outer loop
      vertex -2.310000e+01 -1.401554e+01 0.000000e+00
      vertex -2.722500e+01 -1.750001e+01 0.000000e+00
      vertex -2.346243e+01 -1.373743e+01 0.000000e+00
    endloop
  endfacet
  facet normal -1.539773e-13 -7.208181e-14 -1.000000e+00
    outer loop
      vertex -2.346243e+01 -1.373743e+01 0.000000e+00
      vertex -2.722500e+01 -1.750001e+01 0.000000e+00
      vertex -2.374053e+01 -1.337501e+01 0.000000e+00
    endloop
  endfacet
  facet normal -1.539773e-13 -7.208181e-14 -1.000000e+00
    outer loop
      vertex -2.374053e+01 -1.337501e+01 0.000000e+00
      vertex -2.722500e+01 -1.750001e+01 0.000000e+00
      vertex -2.391537e+01 -1.295292e+01 0.000000e+00
    endloop
  endfacet
  facet normal -1.539773e-13 -7.208181e-14 -1.000000e+00
    outer loop
      vertex -2.391537e+01 -1.295292e+01 0.000000e+00
      vertex -2.722500e+01 -1.750001e+01 0.000000e+00
      vertex -2.397500e+01 -1.250001e+01 0.000000e+00
    endloop
  endfacet
  facet normal -1.539773e-13 -7.208181e-14 -1.000000e+00
    outer loop
      vertex 2.722500e+01 1.750001e+01 0.000000e+00
      vertex 1.722500e+01 1.250001e+01 0.000000e+00
      vertex -2.722500e+01 1.750001e+01 0.000000e+00
    endloop
  endfacet
  facet normal -1.539773e-13 -7.208181e-14 -1.000000e+00
    outer loop
      vertex 1.722500e+01 1.250001e+01 0.000000e+00
      vertex 2.722500e+01 1.750001e+01 0.000000e+00
      vertex 2.391538e+01 -1.204707e+01 0.000000e+00
    endloop
  endfacet
  facet normal -1.539773e-13 -7.208181e-14 -1.000000e+00
    outer loop
      vertex 2.391538e+01 -1.204707e+01 0.000000e+00
      vertex 2.722500e+01 1.750001e+01 0.000000e+00
      vertex 2.397500e+01 -1.250001e+01 0.000000e+00
    endloop
  endfacet
  facet normal -1.539773e-13 -7.208181e-14 -1.000000e+00
    outer loop
      vertex 1.722500e+01 1.250001e+01 0.000000e+00
      vertex 2.391538e+01 -1.204707e+01 0.000000e+00
      vertex 2.374055e+01 -1.162501e+01 0.000000e+00
    endloop
  endfacet
  facet normal -1.539773e-13 -7.208181e-14 -1.000000e+00
    outer loop
      vertex 1.722500e+01 1.250001e+01 0.000000e+00
      vertex 2.374055e+01 -1.162501e+01 0.000000e+00
      vertex 2.346244e+01 -1.126255e+01 0.000000e+00
    endloop
  endfacet
  facet normal -1.539773e-13 -7.208181e-14 -1.000000e+00
    outer loop
      vertex 1.722500e+01 1.250001e+01 0.000000e+00
      vertex 2.346244e+01 -1.126255e+01 0.000000e+00
      vertex 2.310000e+01 -1.098444e+01 0.000000e+00
    endloop
  endfacet
  facet normal -1.539773e-13 -7.208181e-14 -1.000000e+00
    outer loop
      vertex 1.722500e+01 1.250001e+01 0.000000e+00
      vertex 2.310000e+01 -1.098444e+01 0.000000e+00
      vertex 2.267794e+01 -1.080964e+01 0.000000e+00
    endloop
  endfacet
  facet normal -1.539773e-13 -7.208181e-14 -1.000000e+00
    outer loop
      vertex 1.722500e+01 1.250001e+01 0.000000e+00
      vertex 2.267794e+01 -1.080964e+01 0.000000e+00
      vertex 2.222500e+01 -1.075001e+01 0.000000e+00
    endloop
  endfacet
  facet normal -1.539773e-13 -7.208181e-14 -1.000000e+00
    outer loop
      vertex 1.722500e+01 1.250001e+01 0.000000e+00
      vertex 2.222500e+01 -1.075001e+01 0.000000e+00
      vertex 2.177207e+01 -1.080964e+01 0.000000e+00
    endloop
  endfacet
  facet normal -1.539773e-13 -7.208181e-14 -1.000000e+00
    outer loop
      vertex 1.722500e+01 1.250001e+01 0.000000e+00
      vertex 2.177207e+01 -1.080964e+01 0.000000e+00
      vertex 2.135000e+01 -1.098444e+01 0.000000e+00
    endloop
  endfacet
  facet normal -1.539773e-13 -7.208181e-14 -1.000000e+00
    outer loop
      vertex 1.722500e+01 1.250001e+01 0.000000e+00
      vertex 2.135000e+01 -1.098444e+01 0.000000e+00
      vertex 2.098757e+01 -1.126255e+01 0.000000e+00
    endloop
  endfacet
  facet normal -1.539773e-13 -7.208181e-14 -1.000000e+00
    outer loop
      vertex 1.722500e+01 1.250001e+01 0.000000e+00
      vertex 2.098757e+01 -1.126255e+01 0.000000e+00
      vertex 2.070947e+01 -1.162501e+01 0.000000e+00
    endloop
  endfacet
  facet normal -1.539773e-13 -7.208181e-14 -1.000000e+00
    outer loop
      vertex 1.722500e+01 1.250001e+01 0.000000e+00
      vertex 2.070947e+01 -1.162501e+01 0.000000e+00
      vertex 2.053463e+01 -1.204707e+01 0.000000e+00
    endloop
  endfacet
  facet normal -1.539773e-13 -7.208181e-14 -1.000000e+00
    outer loop
      vertex 1.722500e+01 1.250001e+01 0.000000e+00
      vertex 2.053463e+01 -1.204707e+01 0.000000e+00
      vertex 2.047500e+01 -1.250001e+01 0.000000e+00
    endloop
  endfacet
  facet normal -1.539773e-13 -7.208181e-14 -1.000000e+00
    outer loop
      vertex 1.722500e+01 1.250001e+01 0.000000e+00
      vertex 2.047500e+01 -1.250001e+01 0.000000e+00
      vertex 1.722500e+01 -1.750001e+01 0.000000e+00
    endloop
  endfacet
  facet normal -1.539773e-13 -7.208181e-14 -1.000000e+00
    outer loop
      vertex -2.722500e+01 1.750001e+01 0.000000e+00
      vertex 1.722500e+01 1.250001e+01 0.000000e+00
      vertex -1.722500e+01 1.250001e+01 0.000000e+00
    endloop
  endfacet
  facet normal -1.539773e-13 -7.208181e-14 -1.000000e+00
    outer loop
      vertex -2.722500e+01 1.750001e+01 0.000000e+00
      vertex -1.722500e+01 1.250001e+01 0.000000e+00
      vertex -2.053463e+01 -1.204707e+01 0.000000e+00
    endloop
  endfacet
  facet normal -1.539773e-13 -7.208181e-14 -1.000000e+00
    outer loop
      vertex -2.053463e+01 -1.204707e+01 0.000000e+00
      vertex -1.722500e+01 1.250001e+01 0.000000e+00
      vertex -2.047500e+01 -1.250001e+01 0.000000e+00
    endloop
  endfacet
  facet normal -1.539773e-13 -7.208181e-14 -1.000000e+00
    outer loop
      vertex -2.722500e+01 1.750001e+01 0.000000e+00
      vertex -2.053463e+01 -1.204707e+01 0.000000e+00
      vertex -2.070945e+01 -1.162501e+01 0.000000e+00
    endloop
  endfacet
  facet normal -1.539773e-13 -7.208181e-14 -1.000000e+00
    outer loop
      vertex -2.722500e+01 1.750001e+01 0.000000e+00
      vertex -2.070945e+01 -1.162501e+01 0.000000e+00
      vertex -2.098756e+01 -1.126255e+01 0.000000e+00
    endloop
  endfacet
  facet normal -1.539773e-13 -7.208181e-14 -1.000000e+00
    outer loop
      vertex -2.722500e+01 1.750001e+01 0.000000e+00
      vertex -2.098756e+01 -1.126255e+01 0.000000e+00
      vertex -2.135000e+01 -1.098444e+01 0.000000e+00
    endloop
  endfacet
  facet normal -1.539773e-13 -7.208181e-14 -1.000000e+00
    outer loop
      vertex -2.722500e+01 1.750001e+01 0.000000e+00
      vertex -2.135000e+01 -1.098444e+01 0.000000e+00
      vertex -2.177206e+01 -1.080964e+01 0.000000e+00
    endloop
  endfacet
  facet normal -1.539773e-13 -7.208181e-14 -1.000000e+00
    outer loop
      vertex -2.722500e+01 1.750001e+01 0.000000e+00
      vertex -2.177206e+01 -1.080964e+01 0.000000e+00
      vertex -2.222500e+01 -1.075001e+01 0.000000e+00
    endloop
  endfacet
  facet normal -1.539773e-13 -7.208181e-14 -1.000000e+00
    outer loop
      vertex -2.722500e+01 1.750001e+01 0.000000e+00
      vertex -2.222500e+01 -1.075001e+01 0.000000e+00
      vertex -2.267793e+01 -1.080964e+01 0.000000e+00
    endloop
  endfacet
  facet normal -1.539773e-13 -7.208181e-14 -1.000000e+00
    outer loop
      vertex -2.722500e+01 1.750001e+01 0.000000e+00
      vertex -2.267793e+01 -1.080964e+01 0.000000e+00
      vertex -2.310000e+01 -1.098444e+01 0.000000e+00
    endloop
  endfacet
  facet normal -1.539773e-13 -7.208181e-14 -1.000000e+00
    outer loop
      vertex -2.722500e+01 1.750001e+01 0.000000e+00
      vertex -2.310000e+01 -1.098444e+01 0.000000e+00
      vertex -2.346243e+01 -1.126255e+01 0.000000e+00
    endloop
  endfacet
  facet normal -1.539773e-13 -7.208181e-14 -1.000000e+00
    outer loop
      vertex -2.722500e+01 1.750001e+01 0.000000e+00
      vertex -2.346243e+01 -1.126255e+01 0.000000e+00
      vertex -2.374053e+01 -1.162501e+01 0.000000e+00
    endloop
  endfacet
  facet normal -1.539773e-13 -7.208181e-14 -1.000000e+00
    outer loop
      vertex -2.722500e+01 1.750001e+01 0.000000e+00
      vertex -2.374053e+01 -1.162501e+01 0.000000e+00
      vertex -2.391537e+01 -1.204707e+01 0.000000e+00
    endloop
  endfacet
  facet normal -1.539773e-13 -7.208181e-14 -1.000000e+00
    outer loop
      vertex -2.722500e+01 1.750001e+01 0.000000e+00
      vertex -2.391537e+01 -1.204707e+01 0.000000e+00
      vertex -2.397500e+01 -1.250001e+01 0.000000e+00
    endloop
  endfacet
  facet normal -1.539773e-13 -7.208181e-14 -1.000000e+00
    outer loop
      vertex -2.722500e+01 1.750001e+01 0.000000e+00
      vertex -2.397500e+01 -1.250001e+01 0.000000e+00
      vertex -2.722500e+01 -1.750001e+01 0.000000e+00
    endloop
  endfacet
  facet normal 9.238795e-01 3.826834e-01 -4.565389e-15
    outer loop
      vertex 2.070947e+01 -1.337501e+01 4.000000e+00
      vertex 2.053463e+01 -1.295292e+01 0.000000e+00
      vertex 2.053463e+01 -1.295292e+01 4.000000e+00
    endloop
  endfacet
  facet normal 9.238795e-01 3.826834e-01 -4.565389e-15
    outer loop
      vertex 2.053463e+01 -1.295292e+01 0.000000e+00
      vertex 2.070947e+01 -1.337501e+01 4.000000e+00
      vertex 2.070947e+01 -1.337501e+01 0.000000e+00
    endloop
  endfacet
  facet normal 7.933533e-01 6.087614e-01 -5.700091e-15
    outer loop
      vertex 2.098757e+01 -1.373743e+01 4.000000e+00
      vertex 2.070947e+01 -1.337501e+01 0.000000e+00
      vertex 2.070947e+01 -1.337501e+01 4.000000e+00
    endloop
  endfacet
  facet normal 7.933533e-01 6.087614e-01 -5.700091e-15
    outer loop
      vertex 2.070947e+01 -1.337501e+01 0.000000e+00
      vertex 2.098757e+01 -1.373743e+01 4.000000e+00
      vertex 2.098757e+01 -1.373743e+01 0.000000e+00
    endloop
  endfacet
  facet normal -7.933533e-01 -6.087614e-01 5.700091e-15
    outer loop
      vertex 2.346244e+01 -1.126255e+01 0.000000e+00
      vertex 2.374055e+01 -1.162501e+01 4.000000e+00
      vertex 2.346244e+01 -1.126255e+01 4.000000e+00
    endloop
  endfacet
  facet normal -7.933533e-01 -6.087614e-01 5.700091e-15
    outer loop
      vertex 2.374055e+01 -1.162501e+01 4.000000e+00
      vertex 2.346244e+01 -1.126255e+01 0.000000e+00
      vertex 2.374055e+01 -1.162501e+01 0.000000e+00
    endloop
  endfacet
  facet normal 7.933533e-01 -6.087614e-01 2.034613e-15
    outer loop
      vertex 2.070947e+01 -1.162501e+01 4.000000e+00
      vertex 2.098757e+01 -1.126255e+01 0.000000e+00
      vertex 2.098757e+01 -1.126255e+01 4.000000e+00
    endloop
  endfacet
  facet normal 7.933533e-01 -6.087614e-01 2.034613e-15
    outer loop
      vertex 2.098757e+01 -1.126255e+01 0.000000e+00
      vertex 2.070947e+01 -1.162501e+01 4.000000e+00
      vertex 2.070947e+01 -1.162501e+01 0.000000e+00
    endloop
  endfacet
  facet normal 6.087614e-01 -7.933533e-01 3.633721e-15
    outer loop
      vertex 2.135000e+01 -1.098444e+01 4.000000e+00
      vertex 2.098757e+01 -1.126255e+01 0.000000e+00
      vertex 2.135000e+01 -1.098444e+01 0.000000e+00
    endloop
  endfacet
  facet normal 6.087614e-01 -7.933533e-01 3.633721e-15
    outer loop
      vertex 2.098757e+01 -1.126255e+01 0.000000e+00
      vertex 2.135000e+01 -1.098444e+01 4.000000e+00
      vertex 2.098757e+01 -1.126255e+01 4.000000e+00
    endloop
  endfacet
  facet normal 3.826834e-01 9.238795e-01 -6.753284e-15
    outer loop
      vertex 2.135000e+01 -1.401554e+01 4.000000e+00
      vertex 2.177207e+01 -1.419038e+01 0.000000e+00
      vertex 2.135000e+01 -1.401554e+01 0.000000e+00
    endloop
  endfacet
  facet normal 3.826834e-01 9.238795e-01 -6.753284e-15
    outer loop
      vertex 2.177207e+01 -1.419038e+01 0.000000e+00
      vertex 2.135000e+01 -1.401554e+01 4.000000e+00
      vertex 2.177207e+01 -1.419038e+01 4.000000e+00
    endloop
  endfacet
  facet normal 9.238795e-01 -3.826834e-01 2.968498e-16
    outer loop
      vertex 2.053463e+01 -1.204707e+01 4.000000e+00
      vertex 2.070947e+01 -1.162501e+01 0.000000e+00
      vertex 2.070947e+01 -1.162501e+01 4.000000e+00
    endloop
  endfacet
  facet normal 9.238795e-01 -3.826834e-01 2.968498e-16
    outer loop
      vertex 2.070947e+01 -1.162501e+01 0.000000e+00
      vertex 2.053463e+01 -1.204707e+01 4.000000e+00
      vertex 2.053463e+01 -1.204707e+01 0.000000e+00
    endloop
  endfacet
  facet normal 1.305262e-01 9.914449e-01 -6.600002e-15
    outer loop
      vertex 2.177207e+01 -1.419038e+01 4.000000e+00
      vertex 2.222500e+01 -1.425001e+01 0.000000e+00
      vertex 2.177207e+01 -1.419038e+01 0.000000e+00
    endloop
  endfacet
  facet normal 1.305262e-01 9.914449e-01 -6.600002e-15
    outer loop
      vertex 2.222500e+01 -1.425001e+01 0.000000e+00
      vertex 2.177207e+01 -1.419038e+01 4.000000e+00
      vertex 2.222500e+01 -1.425001e+01 4.000000e+00
    endloop
  endfacet
  facet normal -1.305262e-01 9.914449e-01 -5.996940e-15
    outer loop
      vertex 2.222500e+01 -1.425001e+01 4.000000e+00
      vertex 2.267794e+01 -1.419038e+01 0.000000e+00
      vertex 2.222500e+01 -1.425001e+01 0.000000e+00
    endloop
  endfacet
  facet normal -1.305262e-01 9.914449e-01 -5.996940e-15
    outer loop
      vertex 2.267794e+01 -1.419038e+01 0.000000e+00
      vertex 2.222500e+01 -1.425001e+01 4.000000e+00
      vertex 2.267794e+01 -1.419038e+01 4.000000e+00
    endloop
  endfacet
  facet normal -9.914449e-01 -1.305262e-01 3.119563e-15
    outer loop
      vertex 2.391538e+01 -1.204707e+01 0.000000e+00
      vertex 2.397500e+01 -1.250001e+01 4.000000e+00
      vertex 2.391538e+01 -1.204707e+01 4.000000e+00
    endloop
  endfacet
  facet normal -9.914449e-01 -1.305262e-01 3.119563e-15
    outer loop
      vertex 2.397500e+01 -1.250001e+01 4.000000e+00
      vertex 2.391538e+01 -1.204707e+01 0.000000e+00
      vertex 2.397500e+01 -1.250001e+01 0.000000e+00
    endloop
  endfacet
  facet normal -9.238795e-01 -3.826834e-01 4.565389e-15
    outer loop
      vertex 2.374055e+01 -1.162501e+01 0.000000e+00
      vertex 2.391538e+01 -1.204707e+01 4.000000e+00
      vertex 2.374055e+01 -1.162501e+01 4.000000e+00
    endloop
  endfacet
  facet normal -9.238795e-01 -3.826834e-01 4.565389e-15
    outer loop
      vertex 2.391538e+01 -1.204707e+01 4.000000e+00
      vertex 2.374055e+01 -1.162501e+01 0.000000e+00
      vertex 2.391538e+01 -1.204707e+01 0.000000e+00
    endloop
  endfacet
  facet normal -3.826834e-01 9.238795e-01 -4.985198e-15
    outer loop
      vertex 2.267794e+01 -1.419038e+01 4.000000e+00
      vertex 2.310000e+01 -1.401554e+01 0.000000e+00
      vertex 2.267794e+01 -1.419038e+01 0.000000e+00
    endloop
  endfacet
  facet normal -3.826834e-01 9.238795e-01 -4.985198e-15
    outer loop
      vertex 2.310000e+01 -1.401554e+01 0.000000e+00
      vertex 2.267794e+01 -1.419038e+01 4.000000e+00
      vertex 2.310000e+01 -1.401554e+01 4.000000e+00
    endloop
  endfacet
  facet normal 9.118001e-15 -1.000000e+00 6.352820e-15
    outer loop
      vertex 2.722500e+01 -1.750001e+01 4.000000e+00
      vertex 1.722500e+01 -1.750001e+01 0.000000e+00
      vertex 2.722500e+01 -1.750001e+01 0.000000e+00
    endloop
  endfacet
  facet normal 9.118001e-15 -1.000000e+00 6.352820e-15
    outer loop
      vertex 1.722500e+01 -1.750001e+01 0.000000e+00
      vertex 2.722500e+01 -1.750001e+01 4.000000e+00
      vertex 1.722500e+01 -1.750001e+01 4.000000e+00
    endloop
  endfacet
  facet normal -1.305262e-01 -9.914449e-01 6.600002e-15
    outer loop
      vertex 2.267794e+01 -1.080964e+01 4.000000e+00
      vertex 2.222500e+01 -1.075001e+01 0.000000e+00
      vertex 2.267794e+01 -1.080964e+01 0.000000e+00
    endloop
  endfacet
  facet normal -1.305262e-01 -9.914449e-01 6.600002e-15
    outer loop
      vertex 2.222500e+01 -1.075001e+01 0.000000e+00
      vertex 2.267794e+01 -1.080964e+01 4.000000e+00
      vertex 2.222500e+01 -1.075001e+01 4.000000e+00
    endloop
  endfacet
  facet normal 1.224647e-16 1.000000e+00 -6.352820e-15
    outer loop
      vertex -2.722500e+01 1.750001e+01 0.000000e+00
      vertex 2.722500e+01 1.750001e+01 1.100000e+01
      vertex 2.722500e+01 1.750001e+01 0.000000e+00
    endloop
  endfacet
  facet normal 1.224647e-16 1.000000e+00 -6.352820e-15
    outer loop
      vertex 2.722500e+01 1.750001e+01 1.100000e+01
      vertex -2.722500e+01 1.750001e+01 0.000000e+00
      vertex -2.722500e+01 1.750001e+01 1.100000e+01
    endloop
  endfacet
  facet normal -6.087614e-01 7.933533e-01 -3.633721e-15
    outer loop
      vertex 2.310000e+01 -1.401554e+01 4.000000e+00
      vertex 2.346244e+01 -1.373743e+01 0.000000e+00
      vertex 2.310000e+01 -1.401554e+01 0.000000e+00
    endloop
  endfacet
  facet normal -6.087614e-01 7.933533e-01 -3.633721e-15
    outer loop
      vertex 2.346244e+01 -1.373743e+01 0.000000e+00
      vertex 2.310000e+01 -1.401554e+01 4.000000e+00
      vertex 2.346244e+01 -1.373743e+01 4.000000e+00
    endloop
  endfacet
  facet normal -3.826834e-01 -9.238795e-01 6.753284e-15
    outer loop
      vertex 2.310000e+01 -1.098444e+01 4.000000e+00
      vertex 2.267794e+01 -1.080964e+01 0.000000e+00
      vertex 2.310000e+01 -1.098444e+01 0.000000e+00
    endloop
  endfacet
  facet normal -3.826834e-01 -9.238795e-01 6.753284e-15
    outer loop
      vertex 2.267794e+01 -1.080964e+01 0.000000e+00
      vertex 2.310000e+01 -1.098444e+01 4.000000e+00
      vertex 2.267794e+01 -1.080964e+01 4.000000e+00
    endloop
  endfacet
  facet normal -1.911621e-13 7.590383e-14 1.000000e+00
    outer loop
      vertex -2.722500e+01 1.049999e+01 4.000000e+00
      vertex -1.722500e+01 -1.750001e+01 4.000000e+00
      vertex -1.722500e+01 1.049999e+01 4.000000e+00
    endloop
  endfacet
  facet normal -1.911621e-13 7.590383e-14 1.000000e+00
    outer loop
      vertex -1.722500e+01 -1.750001e+01 4.000000e+00
      vertex -2.722500e+01 1.049999e+01 4.000000e+00
      vertex -2.053463e+01 -1.204707e+01 4.000000e+00
    endloop
  endfacet
  facet normal -1.911621e-13 7.590383e-14 1.000000e+00
    outer loop
      vertex -1.722500e+01 -1.750001e+01 4.000000e+00
      vertex -2.053463e+01 -1.204707e+01 4.000000e+00
      vertex -2.047500e+01 -1.250001e+01 4.000000e+00
    endloop
  endfacet
  facet normal -1.911621e-13 7.590383e-14 1.000000e+00
    outer loop
      vertex -2.053463e+01 -1.204707e+01 4.000000e+00
      vertex -2.722500e+01 1.049999e+01 4.000000e+00
      vertex -2.070945e+01 -1.162501e+01 4.000000e+00
    endloop
  endfacet
  facet normal -1.911621e-13 7.590383e-14 1.000000e+00
    outer loop
      vertex -2.070945e+01 -1.162501e+01 4.000000e+00
      vertex -2.722500e+01 1.049999e+01 4.000000e+00
      vertex -2.098756e+01 -1.126255e+01 4.000000e+00
    endloop
  endfacet
  facet normal -1.911621e-13 7.590383e-14 1.000000e+00
    outer loop
      vertex -2.098756e+01 -1.126255e+01 4.000000e+00
      vertex -2.722500e+01 1.049999e+01 4.000000e+00
      vertex -2.135000e+01 -1.098444e+01 4.000000e+00
    endloop
  endfacet
  facet normal -1.911621e-13 7.590383e-14 1.000000e+00
    outer loop
      vertex -2.135000e+01 -1.098444e+01 4.000000e+00
      vertex -2.722500e+01 1.049999e+01 4.000000e+00
      vertex -2.177206e+01 -1.080964e+01 4.000000e+00
    endloop
  endfacet
  facet normal -1.911621e-13 7.590383e-14 1.000000e+00
    outer loop
      vertex -2.177206e+01 -1.080964e+01 4.000000e+00
      vertex -2.722500e+01 1.049999e+01 4.000000e+00
      vertex -2.222500e+01 -1.075001e+01 4.000000e+00
    endloop
  endfacet
  facet normal -1.911621e-13 7.590383e-14 1.000000e+00
    outer loop
      vertex -2.222500e+01 -1.075001e+01 4.000000e+00
      vertex -2.722500e+01 1.049999e+01 4.000000e+00
      vertex -2.267793e+01 -1.080964e+01 4.000000e+00
    endloop
  endfacet
  facet normal -1.911621e-13 7.590383e-14 1.000000e+00
    outer loop
      vertex -2.267793e+01 -1.080964e+01 4.000000e+00
      vertex -2.722500e+01 1.049999e+01 4.000000e+00
      vertex -2.310000e+01 -1.098444e+01 4.000000e+00
    endloop
  endfacet
  facet normal -1.911621e-13 7.590383e-14 1.000000e+00
    outer loop
      vertex -2.310000e+01 -1.098444e+01 4.000000e+00
      vertex -2.722500e+01 1.049999e+01 4.000000e+00
      vertex -2.346243e+01 -1.126255e+01 4.000000e+00
    endloop
  endfacet
  facet normal -1.911621e-13 7.590383e-14 1.000000e+00
    outer loop
      vertex -2.346243e+01 -1.126255e+01 4.000000e+00
      vertex -2.722500e+01 1.049999e+01 4.000000e+00
      vertex -2.374053e+01 -1.162501e+01 4.000000e+00
    endloop
  endfacet
  facet normal -1.911621e-13 7.590383e-14 1.000000e+00
    outer loop
      vertex -2.374053e+01 -1.162501e+01 4.000000e+00
      vertex -2.722500e+01 1.049999e+01 4.000000e+00
      vertex -2.391537e+01 -1.204707e+01 4.000000e+00
    endloop
  endfacet
  facet normal -1.911621e-13 7.590383e-14 1.000000e+00
    outer loop
      vertex -2.391537e+01 -1.204707e+01 4.000000e+00
      vertex -2.722500e+01 1.049999e+01 4.000000e+00
      vertex -2.397500e+01 -1.250001e+01 4.000000e+00
    endloop
  endfacet
  facet normal -1.911621e-13 7.590383e-14 1.000000e+00
    outer loop
      vertex -2.397500e+01 -1.250001e+01 4.000000e+00
      vertex -2.722500e+01 1.049999e+01 4.000000e+00
      vertex -2.722500e+01 -1.750001e+01 4.000000e+00
    endloop
  endfacet
  facet normal -1.911621e-13 7.590383e-14 1.000000e+00
    outer loop
      vertex -1.722500e+01 -1.750001e+01 4.000000e+00
      vertex -2.135000e+01 -1.401554e+01 4.000000e+00
      vertex -2.722500e+01 -1.750001e+01 4.000000e+00
    endloop
  endfacet
  facet normal -1.911621e-13 7.590383e-14 1.000000e+00
    outer loop
      vertex -2.135000e+01 -1.401554e+01 4.000000e+00
      vertex -1.722500e+01 -1.750001e+01 4.000000e+00
      vertex -2.098756e+01 -1.373743e+01 4.000000e+00
    endloop
  endfacet
  facet normal -1.911621e-13 7.590383e-14 1.000000e+00
    outer loop
      vertex -2.098756e+01 -1.373743e+01 4.000000e+00
      vertex -1.722500e+01 -1.750001e+01 4.000000e+00
      vertex -2.070945e+01 -1.337501e+01 4.000000e+00
    endloop
  endfacet
  facet normal -1.911621e-13 7.590383e-14 1.000000e+00
    outer loop
      vertex -2.070945e+01 -1.337501e+01 4.000000e+00
      vertex -1.722500e+01 -1.750001e+01 4.000000e+00
      vertex -2.053463e+01 -1.295292e+01 4.000000e+00
    endloop
  endfacet
  facet normal -1.911621e-13 7.590383e-14 1.000000e+00
    outer loop
      vertex -2.053463e+01 -1.295292e+01 4.000000e+00
      vertex -1.722500e+01 -1.750001e+01 4.000000e+00
      vertex -2.047500e+01 -1.250001e+01 4.000000e+00
    endloop
  endfacet
  facet normal -1.911621e-13 7.590383e-14 1.000000e+00
    outer loop
      vertex -2.722500e+01 -1.750001e+01 4.000000e+00
      vertex -2.135000e+01 -1.401554e+01 4.000000e+00
      vertex -2.177206e+01 -1.419038e+01 4.000000e+00
    endloop
  endfacet
  facet normal -1.911621e-13 7.590383e-14 1.000000e+00
    outer loop
      vertex -2.722500e+01 -1.750001e+01 4.000000e+00
      vertex -2.177206e+01 -1.419038e+01 4.000000e+00
      vertex -2.222500e+01 -1.425001e+01 4.000000e+00
    endloop
  endfacet
  facet normal -1.911621e-13 7.590383e-14 1.000000e+00
    outer loop
      vertex -2.722500e+01 -1.750001e+01 4.000000e+00
      vertex -2.222500e+01 -1.425001e+01 4.000000e+00
      vertex -2.267793e+01 -1.419038e+01 4.000000e+00
    endloop
  endfacet
  facet normal -1.911621e-13 7.590383e-14 1.000000e+00
    outer loop
      vertex -2.722500e+01 -1.750001e+01 4.000000e+00
      vertex -2.267793e+01 -1.419038e+01 4.000000e+00
      vertex -2.310000e+01 -1.401554e+01 4.000000e+00
    endloop
  endfacet
  facet normal -1.911621e-13 7.590383e-14 1.000000e+00
    outer loop
      vertex -2.722500e+01 -1.750001e+01 4.000000e+00
      vertex -2.310000e+01 -1.401554e+01 4.000000e+00
      vertex -2.346243e+01 -1.373743e+01 4.000000e+00
    endloop
  endfacet
  facet normal -1.911621e-13 7.590383e-14 1.000000e+00
    outer loop
      vertex -2.722500e+01 -1.750001e+01 4.000000e+00
      vertex -2.346243e+01 -1.373743e+01 4.000000e+00
      vertex -2.374053e+01 -1.337501e+01 4.000000e+00
    endloop
  endfacet
  facet normal -1.911621e-13 7.590383e-14 1.000000e+00
    outer loop
      vertex -2.722500e+01 -1.750001e+01 4.000000e+00
      vertex -2.374053e+01 -1.337501e+01 4.000000e+00
      vertex -2.391537e+01 -1.295292e+01 4.000000e+00
    endloop
  endfacet
  facet normal -1.911621e-13 7.590383e-14 1.000000e+00
    outer loop
      vertex -2.722500e+01 -1.750001e+01 4.000000e+00
      vertex -2.391537e+01 -1.295292e+01 4.000000e+00
      vertex -2.397500e+01 -1.250001e+01 4.000000e+00
    endloop
  endfacet
  facet normal -1.000000e+00 1.224647e-16 0.000000e+00
    outer loop
      vertex 1.722500e+01 1.250001e+01 0.000000e+00
      vertex 1.722500e+01 1.243185e+01 5.482361e+00
      vertex 1.722500e+01 1.250001e+01 6.000000e+00
    endloop
  endfacet
  facet normal -1.000000e+00 1.224647e-16 0.000000e+00
    outer loop
      vertex 1.722500e+01 1.243185e+01 5.482361e+00
      vertex 1.722500e+01 1.250001e+01 0.000000e+00
      vertex 1.722500e+01 1.223205e+01 5.000000e+00
    endloop
  endfacet
  facet normal -1.000000e+00 1.224647e-16 0.000000e+00
    outer loop
      vertex 1.722500e+01 1.223205e+01 5.000000e+00
      vertex 1.722500e+01 1.250001e+01 0.000000e+00
      vertex 1.722500e+01 1.191422e+01 4.585785e+00
    endloop
  endfacet
  facet normal -1.000000e+00 1.224647e-16 0.000000e+00
    outer loop
      vertex 1.722500e+01 1.191422e+01 4.585785e+00
      vertex 1.722500e+01 1.250001e+01 0.000000e+00
      vertex 1.722500e+01 1.149999e+01 4.267948e+00
    endloop
  endfacet
  facet normal -1.000000e+00 1.224647e-16 0.000000e+00
    outer loop
      vertex 1.722500e+01 1.149999e+01 4.267948e+00
      vertex 1.722500e+01 1.250001e+01 0.000000e+00
      vertex 1.722500e+01 1.101763e+01 4.068146e+00
    endloop
  endfacet
  facet normal -1.000000e+00 1.224647e-16 0.000000e+00
    outer loop
      vertex 1.722500e+01 1.101763e+01 4.068146e+00
      vertex 1.722500e+01 1.250001e+01 0.000000e+00
      vertex 1.722500e+01 -1.750001e+01 0.000000e+00
    endloop
  endfacet
  facet normal -1.000000e+00 1.224647e-16 0.000000e+00
    outer loop
      vertex 1.722500e+01 1.101763e+01 4.068146e+00
      vertex 1.722500e+01 -1.750001e+01 0.000000e+00
      vertex 1.722500e+01 1.049999e+01 4.000000e+00
    endloop
  endfacet
  facet normal -1.000000e+00 1.224647e-16 0.000000e+00
    outer loop
      vertex 1.722500e+01 1.049999e+01 4.000000e+00
      vertex 1.722500e+01 -1.750001e+01 0.000000e+00
      vertex 1.722500e+01 -1.750001e+01 4.000000e+00
    endloop
  endfacet
  facet normal 1.000000e+00 1.795522e-16 -6.394206e-14
    outer loop
      vertex 2.722500e+01 1.250001e+01 1.100000e+01
      vertex 2.722500e+01 1.750001e+01 0.000000e+00
      vertex 2.722500e+01 1.750001e+01 1.100000e+01
    endloop
  endfacet
  facet normal 1.000000e+00 1.795522e-16 -6.394206e-14
    outer loop
      vertex 2.722500e+01 1.750001e+01 0.000000e+00
      vertex 2.722500e+01 1.250001e+01 1.100000e+01
      vertex 2.722500e+01 1.250001e+01 6.000000e+00
    endloop
  endfacet
  facet normal 1.000000e+00 1.795522e-16 -6.394206e-14
    outer loop
      vertex 2.722500e+01 1.750001e+01 0.000000e+00
      vertex 2.722500e+01 1.250001e+01 6.000000e+00
      vertex 2.722500e+01 1.243185e+01 5.482361e+00
    endloop
  endfacet
  facet normal 1.000000e+00 1.795522e-16 -6.394206e-14
    outer loop
      vertex 2.722500e+01 1.750001e+01 0.000000e+00
      vertex 2.722500e+01 1.243185e+01 5.482361e+00
      vertex 2.722500e+01 1.223205e+01 5.000000e+00
    endloop
  endfacet
  facet normal 1.000000e+00 1.795522e-16 -6.394206e-14
    outer loop
      vertex 2.722500e+01 1.750001e+01 0.000000e+00
      vertex 2.722500e+01 1.223205e+01 5.000000e+00
      vertex 2.722500e+01 1.191422e+01 4.585785e+00
    endloop
  endfacet
  facet normal 1.000000e+00 1.795522e-16 -6.394206e-14
    outer loop
      vertex 2.722500e+01 1.750001e+01 0.000000e+00
      vertex 2.722500e+01 1.191422e+01 4.585785e+00
      vertex 2.722500e+01 1.149999e+01 4.267948e+00
    endloop
  endfacet
  facet normal 1.000000e+00 1.795522e-16 -6.394206e-14
    outer loop
      vertex 2.722500e+01 1.750001e+01 0.000000e+00
      vertex 2.722500e+01 1.149999e+01 4.267948e+00
      vertex 2.722500e+01 1.101763e+01 4.068146e+00
    endloop
  endfacet
  facet normal 1.000000e+00 1.795522e-16 -6.394206e-14
    outer loop
      vertex 2.722500e+01 1.750001e+01 0.000000e+00
      vertex 2.722500e+01 1.101763e+01 4.068146e+00
      vertex 2.722500e+01 -1.750001e+01 0.000000e+00
    endloop
  endfacet
  facet normal 1.000000e+00 1.795522e-16 -6.394206e-14
    outer loop
      vertex 2.722500e+01 -1.750001e+01 0.000000e+00
      vertex 2.722500e+01 1.101763e+01 4.068146e+00
      vertex 2.722500e+01 1.049999e+01 4.000000e+00
    endloop
  endfacet
  facet normal 1.000000e+00 1.795522e-16 -6.394206e-14
    outer loop
      vertex 2.722500e+01 -1.750001e+01 0.000000e+00
      vertex 2.722500e+01 1.049999e+01 4.000000e+00
      vertex 2.722500e+01 -1.750001e+01 4.000000e+00
    endloop
  endfacet
  facet normal 6.087614e-01 7.933533e-01 -6.446341e-15
    outer loop
      vertex 2.098757e+01 -1.373743e+01 4.000000e+00
      vertex 2.135000e+01 -1.401554e+01 0.000000e+00
      vertex 2.098757e+01 -1.373743e+01 0.000000e+00
    endloop
  endfacet
  facet normal 6.087614e-01 7.933533e-01 -6.446341e-15
    outer loop
      vertex 2.135000e+01 -1.401554e+01 0.000000e+00
      vertex 2.098757e+01 -1.373743e+01 4.000000e+00
      vertex 2.135000e+01 -1.401554e+01 4.000000e+00
    endloop
  endfacet
  facet normal -6.087614e-01 -7.933533e-01 6.446341e-15
    outer loop
      vertex 2.346244e+01 -1.126255e+01 4.000000e+00
      vertex 2.310000e+01 -1.098444e+01 0.000000e+00
      vertex 2.346244e+01 -1.126255e+01 0.000000e+00
    endloop
  endfacet
  facet normal -6.087614e-01 -7.933533e-01 6.446341e-15
    outer loop
      vertex 2.310000e+01 -1.098444e+01 0.000000e+00
      vertex 2.346244e+01 -1.126255e+01 4.000000e+00
      vertex 2.310000e+01 -1.098444e+01 4.000000e+00
    endloop
  endfacet
  facet normal 3.826834e-01 -9.238795e-01 4.985198e-15
    outer loop
      vertex 2.177207e+01 -1.080964e+01 4.000000e+00
      vertex 2.135000e+01 -1.098444e+01 0.000000e+00
      vertex 2.177207e+01 -1.080964e+01 0.000000e+00
    endloop
  endfacet
  facet normal 3.826834e-01 -9.238795e-01 4.985198e-15
    outer loop
      vertex 2.135000e+01 -1.098444e+01 0.000000e+00
      vertex 2.177207e+01 -1.080964e+01 4.000000e+00
      vertex 2.135000e+01 -1.098444e+01 4.000000e+00
    endloop
  endfacet
  facet normal -9.914449e-01 1.305262e-01 1.461144e-15
    outer loop
      vertex 2.397500e+01 -1.250001e+01 0.000000e+00
      vertex 2.391538e+01 -1.295292e+01 4.000000e+00
      vertex 2.397500e+01 -1.250001e+01 4.000000e+00
    endloop
  endfacet
  facet normal -9.914449e-01 1.305262e-01 1.461144e-15
    outer loop
      vertex 2.391538e+01 -1.295292e+01 4.000000e+00
      vertex 2.397500e+01 -1.250001e+01 0.000000e+00
      vertex 2.391538e+01 -1.295292e+01 0.000000e+00
    endloop
  endfacet
  facet normal 1.305262e-01 -9.914449e-01 5.996940e-15
    outer loop
      vertex 2.222500e+01 -1.075001e+01 4.000000e+00
      vertex 2.177207e+01 -1.080964e+01 0.000000e+00
      vertex 2.222500e+01 -1.075001e+01 0.000000e+00
    endloop
  endfacet
  facet normal 1.305262e-01 -9.914449e-01 5.996940e-15
    outer loop
      vertex 2.177207e+01 -1.080964e+01 0.000000e+00
      vertex 2.222500e+01 -1.075001e+01 4.000000e+00
      vertex 2.177207e+01 -1.080964e+01 4.000000e+00
    endloop
  endfacet
  facet normal 9.914449e-01 -1.305262e-01 -1.461144e-15
    outer loop
      vertex 2.047500e+01 -1.250001e+01 4.000000e+00
      vertex 2.053463e+01 -1.204707e+01 0.000000e+00
      vertex 2.053463e+01 -1.204707e+01 4.000000e+00
    endloop
  endfacet
  facet normal 9.914449e-01 -1.305262e-01 -1.461144e-15
    outer loop
      vertex 2.053463e+01 -1.204707e+01 0.000000e+00
      vertex 2.047500e+01 -1.250001e+01 4.000000e+00
      vertex 2.047500e+01 -1.250001e+01 0.000000e+00
    endloop
  endfacet
  facet normal 9.914449e-01 1.305262e-01 -3.119563e-15
    outer loop
      vertex 2.053463e+01 -1.295292e+01 4.000000e+00
      vertex 2.047500e+01 -1.250001e+01 0.000000e+00
      vertex 2.047500e+01 -1.250001e+01 4.000000e+00
    endloop
  endfacet
  facet normal 9.914449e-01 1.305262e-01 -3.119563e-15
    outer loop
      vertex 2.047500e+01 -1.250001e+01 0.000000e+00
      vertex 2.053463e+01 -1.295292e+01 4.000000e+00
      vertex 2.053463e+01 -1.295292e+01 0.000000e+00
    endloop
  endfacet
  facet normal -9.238795e-01 3.826834e-01 -2.968498e-16
    outer loop
      vertex 2.391538e+01 -1.295292e+01 0.000000e+00
      vertex 2.374055e+01 -1.337501e+01 4.000000e+00
      vertex 2.391538e+01 -1.295292e+01 4.000000e+00
    endloop
  endfacet
  facet normal -9.238795e-01 3.826834e-01 -2.968498e-16
    outer loop
      vertex 2.374055e+01 -1.337501e+01 4.000000e+00
      vertex 2.391538e+01 -1.295292e+01 0.000000e+00
      vertex 2.374055e+01 -1.337501e+01 0.000000e+00
    endloop
  endfacet
  facet normal -7.933533e-01 6.087614e-01 -2.034613e-15
    outer loop
      vertex 2.374055e+01 -1.337501e+01 0.000000e+00
      vertex 2.346244e+01 -1.373743e+01 4.000000e+00
      vertex 2.374055e+01 -1.337501e+01 4.000000e+00
    endloop
  endfacet
  facet normal -7.933533e-01 6.087614e-01 -2.034613e-15
    outer loop
      vertex 2.346244e+01 -1.373743e+01 4.000000e+00
      vertex 2.374055e+01 -1.337501e+01 0.000000e+00
      vertex 2.346244e+01 -1.373743e+01 0.000000e+00
    endloop
  endfacet
  facet normal 7.933533e-01 6.087614e-01 -7.032428e-15
    outer loop
      vertex -2.346243e+01 -1.373743e+01 4.000000e+00
      vertex -2.374053e+01 -1.337501e+01 0.000000e+00
      vertex -2.374053e+01 -1.337501e+01 4.000000e+00
    endloop
  endfacet
  facet normal 7.933533e-01 6.087614e-01 -7.032428e-15
    outer loop
      vertex -2.374053e+01 -1.337501e+01 0.000000e+00
      vertex -2.346243e+01 -1.373743e+01 4.000000e+00
      vertex -2.346243e+01 -1.373743e+01 0.000000e+00
    endloop
  endfacet
  facet normal -7.933533e-01 -6.087614e-01 7.032428e-15
    outer loop
      vertex -2.098756e+01 -1.126255e+01 0.000000e+00
      vertex -2.070945e+01 -1.162501e+01 4.000000e+00
      vertex -2.098756e+01 -1.126255e+01 4.000000e+00
    endloop
  endfacet
  facet normal -7.933533e-01 -6.087614e-01 7.032428e-15
    outer loop
      vertex -2.070945e+01 -1.162501e+01 4.000000e+00
      vertex -2.098756e+01 -1.126255e+01 0.000000e+00
      vertex -2.070945e+01 -1.162501e+01 0.000000e+00
    endloop
  endfacet
  facet normal 9.238795e-01 3.826834e-01 -4.420769e-15
    outer loop
      vertex -2.374053e+01 -1.337501e+01 4.000000e+00
      vertex -2.391537e+01 -1.295292e+01 0.000000e+00
      vertex -2.391537e+01 -1.295292e+01 4.000000e+00
    endloop
  endfacet
  facet normal 9.238795e-01 3.826834e-01 -4.420769e-15
    outer loop
      vertex -2.391537e+01 -1.295292e+01 0.000000e+00
      vertex -2.374053e+01 -1.337501e+01 4.000000e+00
      vertex -2.374053e+01 -1.337501e+01 0.000000e+00
    endloop
  endfacet
  facet normal -1.305262e-01 9.914449e-01 -1.145149e-14
    outer loop
      vertex -2.222500e+01 -1.425001e+01 4.000000e+00
      vertex -2.177206e+01 -1.419038e+01 0.000000e+00
      vertex -2.222500e+01 -1.425001e+01 0.000000e+00
    endloop
  endfacet
  facet normal -1.305262e-01 9.914449e-01 -1.145149e-14
    outer loop
      vertex -2.177206e+01 -1.419038e+01 0.000000e+00
      vertex -2.222500e+01 -1.425001e+01 4.000000e+00
      vertex -2.177206e+01 -1.419038e+01 4.000000e+00
    endloop
  endfacet
  facet normal 9.118001e-15 -1.000000e+00 1.155058e-14
    outer loop
      vertex -1.722500e+01 -1.750001e+01 4.000000e+00
      vertex -2.722500e+01 -1.750001e+01 0.000000e+00
      vertex -1.722500e+01 -1.750001e+01 0.000000e+00
    endloop
  endfacet
  facet normal 9.118001e-15 -1.000000e+00 1.155058e-14
    outer loop
      vertex -2.722500e+01 -1.750001e+01 0.000000e+00
      vertex -1.722500e+01 -1.750001e+01 4.000000e+00
      vertex -2.722500e+01 -1.750001e+01 4.000000e+00
    endloop
  endfacet
  facet normal -6.087614e-01 7.933533e-01 -9.163020e-15
    outer loop
      vertex -2.135000e+01 -1.401554e+01 4.000000e+00
      vertex -2.098756e+01 -1.373743e+01 0.000000e+00
      vertex -2.135000e+01 -1.401554e+01 0.000000e+00
    endloop
  endfacet
  facet normal -6.087614e-01 7.933533e-01 -9.163020e-15
    outer loop
      vertex -2.098756e+01 -1.373743e+01 0.000000e+00
      vertex -2.135000e+01 -1.401554e+01 4.000000e+00
      vertex -2.098756e+01 -1.373743e+01 4.000000e+00
    endloop
  endfacet
  facet normal -3.826834e-01 -9.238795e-01 1.067268e-14
    outer loop
      vertex -2.135000e+01 -1.098444e+01 4.000000e+00
      vertex -2.177206e+01 -1.080964e+01 0.000000e+00
      vertex -2.135000e+01 -1.098444e+01 0.000000e+00
    endloop
  endfacet
  facet normal -3.826834e-01 -9.238795e-01 1.067268e-14
    outer loop
      vertex -2.177206e+01 -1.080964e+01 0.000000e+00
      vertex -2.135000e+01 -1.098444e+01 4.000000e+00
      vertex -2.177206e+01 -1.080964e+01 4.000000e+00
    endloop
  endfacet
  facet normal 3.826834e-01 9.238795e-01 -1.067268e-14
    outer loop
      vertex -2.310000e+01 -1.401554e+01 4.000000e+00
      vertex -2.267793e+01 -1.419038e+01 0.000000e+00
      vertex -2.310000e+01 -1.401554e+01 0.000000e+00
    endloop
  endfacet
  facet normal 3.826834e-01 9.238795e-01 -1.067268e-14
    outer loop
      vertex -2.267793e+01 -1.419038e+01 0.000000e+00
      vertex -2.310000e+01 -1.401554e+01 4.000000e+00
      vertex -2.267793e+01 -1.419038e+01 4.000000e+00
    endloop
  endfacet
  facet normal -3.826834e-01 9.238795e-01 -1.067268e-14
    outer loop
      vertex -2.177206e+01 -1.419038e+01 4.000000e+00
      vertex -2.135000e+01 -1.401554e+01 0.000000e+00
      vertex -2.177206e+01 -1.419038e+01 0.000000e+00
    endloop
  endfacet
  facet normal -3.826834e-01 9.238795e-01 -1.067268e-14
    outer loop
      vertex -2.135000e+01 -1.401554e+01 0.000000e+00
      vertex -2.177206e+01 -1.419038e+01 4.000000e+00
      vertex -2.135000e+01 -1.401554e+01 4.000000e+00
    endloop
  endfacet
  facet normal 1.000000e+00 -1.224647e-16 0.000000e+00
    outer loop
      vertex -1.722500e+01 1.049999e+01 4.000000e+00
      vertex -1.722500e+01 1.250001e+01 0.000000e+00
      vertex -1.722500e+01 1.250001e+01 4.000000e+00
    endloop
  endfacet
  facet normal 1.000000e+00 -1.224647e-16 0.000000e+00
    outer loop
      vertex -1.722500e+01 1.250001e+01 0.000000e+00
      vertex -1.722500e+01 1.049999e+01 4.000000e+00
      vertex -1.722500e+01 -1.750001e+01 0.000000e+00
    endloop
  endfacet
  facet normal 1.000000e+00 -1.224647e-16 0.000000e+00
    outer loop
      vertex -1.722500e+01 -1.750001e+01 0.000000e+00
      vertex -1.722500e+01 1.049999e+01 4.000000e+00
      vertex -1.722500e+01 -1.750001e+01 4.000000e+00
    endloop
  endfacet
  facet normal 6.087614e-01 7.933533e-01 -9.163020e-15
    outer loop
      vertex -2.346243e+01 -1.373743e+01 4.000000e+00
      vertex -2.310000e+01 -1.401554e+01 0.000000e+00
      vertex -2.346243e+01 -1.373743e+01 0.000000e+00
    endloop
  endfacet
  facet normal 6.087614e-01 7.933533e-01 -9.163020e-15
    outer loop
      vertex -2.310000e+01 -1.401554e+01 0.000000e+00
      vertex -2.346243e+01 -1.373743e+01 4.000000e+00
      vertex -2.310000e+01 -1.401554e+01 4.000000e+00
    endloop
  endfacet
  facet normal -9.238795e-01 -3.826834e-01 4.420769e-15
    outer loop
      vertex -2.070945e+01 -1.162501e+01 0.000000e+00
      vertex -2.053463e+01 -1.204707e+01 4.000000e+00
      vertex -2.070945e+01 -1.162501e+01 4.000000e+00
    endloop
  endfacet
  facet normal -9.238795e-01 -3.826834e-01 4.420769e-15
    outer loop
      vertex -2.053463e+01 -1.204707e+01 4.000000e+00
      vertex -2.070945e+01 -1.162501e+01 0.000000e+00
      vertex -2.053463e+01 -1.204707e+01 0.000000e+00
    endloop
  endfacet
  facet normal 6.087614e-01 -7.933533e-01 9.163020e-15
    outer loop
      vertex -2.310000e+01 -1.098444e+01 4.000000e+00
      vertex -2.346243e+01 -1.126255e+01 0.000000e+00
      vertex -2.310000e+01 -1.098444e+01 0.000000e+00
    endloop
  endfacet
  facet normal 6.087614e-01 -7.933533e-01 9.163020e-15
    outer loop
      vertex -2.346243e+01 -1.126255e+01 0.000000e+00
      vertex -2.310000e+01 -1.098444e+01 4.000000e+00
      vertex -2.346243e+01 -1.126255e+01 4.000000e+00
    endloop
  endfacet
  facet normal -9.914449e-01 -1.305262e-01 1.507842e-15
    outer loop
      vertex -2.053463e+01 -1.204707e+01 0.000000e+00
      vertex -2.047500e+01 -1.250001e+01 4.000000e+00
      vertex -2.053463e+01 -1.204707e+01 4.000000e+00
    endloop
  endfacet
  facet normal -9.914449e-01 -1.305262e-01 1.507842e-15
    outer loop
      vertex -2.047500e+01 -1.250001e+01 4.000000e+00
      vertex -2.053463e+01 -1.204707e+01 0.000000e+00
      vertex -2.047500e+01 -1.250001e+01 0.000000e+00
    endloop
  endfacet
  facet normal -1.305262e-01 -9.914449e-01 1.145149e-14
    outer loop
      vertex -2.177206e+01 -1.080964e+01 4.000000e+00
      vertex -2.222500e+01 -1.075001e+01 0.000000e+00
      vertex -2.177206e+01 -1.080964e+01 0.000000e+00
    endloop
  endfacet
  facet normal -1.305262e-01 -9.914449e-01 1.145149e-14
    outer loop
      vertex -2.222500e+01 -1.075001e+01 0.000000e+00
      vertex -2.177206e+01 -1.080964e+01 4.000000e+00
      vertex -2.222500e+01 -1.075001e+01 4.000000e+00
    endloop
  endfacet
  facet normal 1.305262e-01 9.914449e-01 -1.145149e-14
    outer loop
      vertex -2.267793e+01 -1.419038e+01 4.000000e+00
      vertex -2.222500e+01 -1.425001e+01 0.000000e+00
      vertex -2.267793e+01 -1.419038e+01 0.000000e+00
    endloop
  endfacet
  facet normal 1.305262e-01 9.914449e-01 -1.145149e-14
    outer loop
      vertex -2.222500e+01 -1.425001e+01 0.000000e+00
      vertex -2.267793e+01 -1.419038e+01 4.000000e+00
      vertex -2.222500e+01 -1.425001e+01 4.000000e+00
    endloop
  endfacet
  facet normal 9.238795e-01 -3.826834e-01 4.420769e-15
    outer loop
      vertex -2.391537e+01 -1.204707e+01 4.000000e+00
      vertex -2.374053e+01 -1.162501e+01 0.000000e+00
      vertex -2.374053e+01 -1.162501e+01 4.000000e+00
    endloop
  endfacet
  facet normal 9.238795e-01 -3.826834e-01 4.420769e-15
    outer loop
      vertex -2.374053e+01 -1.162501e+01 0.000000e+00
      vertex -2.391537e+01 -1.204707e+01 4.000000e+00
      vertex -2.391537e+01 -1.204707e+01 0.000000e+00
    endloop
  endfacet
  facet normal 7.933533e-01 -6.087614e-01 7.032428e-15
    outer loop
      vertex -2.374053e+01 -1.162501e+01 4.000000e+00
      vertex -2.346243e+01 -1.126255e+01 0.000000e+00
      vertex -2.346243e+01 -1.126255e+01 4.000000e+00
    endloop
  endfacet
  facet normal 7.933533e-01 -6.087614e-01 7.032428e-15
    outer loop
      vertex -2.346243e+01 -1.126255e+01 0.000000e+00
      vertex -2.374053e+01 -1.162501e+01 4.000000e+00
      vertex -2.374053e+01 -1.162501e+01 0.000000e+00
    endloop
  endfacet
  facet normal -6.087614e-01 -7.933533e-01 9.163020e-15
    outer loop
      vertex -2.098756e+01 -1.126255e+01 4.000000e+00
      vertex -2.135000e+01 -1.098444e+01 0.000000e+00
      vertex -2.098756e+01 -1.126255e+01 0.000000e+00
    endloop
  endfacet
  facet normal -6.087614e-01 -7.933533e-01 9.163020e-15
    outer loop
      vertex -2.135000e+01 -1.098444e+01 0.000000e+00
      vertex -2.098756e+01 -1.126255e+01 4.000000e+00
      vertex -2.135000e+01 -1.098444e+01 4.000000e+00
    endloop
  endfacet
  facet normal 3.826834e-01 -9.238795e-01 1.067268e-14
    outer loop
      vertex -2.267793e+01 -1.080964e+01 4.000000e+00
      vertex -2.310000e+01 -1.098444e+01 0.000000e+00
      vertex -2.267793e+01 -1.080964e+01 0.000000e+00
    endloop
  endfacet
  facet normal 3.826834e-01 -9.238795e-01 1.067268e-14
    outer loop
      vertex -2.310000e+01 -1.098444e+01 0.000000e+00
      vertex -2.267793e+01 -1.080964e+01 4.000000e+00
      vertex -2.310000e+01 -1.098444e+01 4.000000e+00
    endloop
  endfacet
  facet normal -9.914449e-01 1.305262e-01 -1.507842e-15
    outer loop
      vertex -2.047500e+01 -1.250001e+01 0.000000e+00
      vertex -2.053463e+01 -1.295292e+01 4.000000e+00
      vertex -2.047500e+01 -1.250001e+01 4.000000e+00
    endloop
  endfacet
  facet normal -9.914449e-01 1.305262e-01 -1.507842e-15
    outer loop
      vertex -2.053463e+01 -1.295292e+01 4.000000e+00
      vertex -2.047500e+01 -1.250001e+01 0.000000e+00
      vertex -2.053463e+01 -1.295292e+01 0.000000e+00
    endloop
  endfacet
  facet normal 9.914449e-01 1.305262e-01 -1.507842e-15
    outer loop
      vertex -2.391537e+01 -1.295292e+01 4.000000e+00
      vertex -2.397500e+01 -1.250001e+01 0.000000e+00
      vertex -2.397500e+01 -1.250001e+01 4.000000e+00
    endloop
  endfacet
  facet normal 9.914449e-01 1.305262e-01 -1.507842e-15
    outer loop
      vertex -2.397500e+01 -1.250001e+01 0.000000e+00
      vertex -2.391537e+01 -1.295292e+01 4.000000e+00
      vertex -2.391537e+01 -1.295292e+01 0.000000e+00
    endloop
  endfacet
  facet normal 1.305262e-01 -9.914449e-01 1.145149e-14
    outer loop
      vertex -2.222500e+01 -1.075001e+01 4.000000e+00
      vertex -2.267793e+01 -1.080964e+01 0.000000e+00
      vertex -2.222500e+01 -1.075001e+01 0.000000e+00
    endloop
  endfacet
  facet normal 1.305262e-01 -9.914449e-01 1.145149e-14
    outer loop
      vertex -2.267793e+01 -1.080964e+01 0.000000e+00
      vertex -2.222500e+01 -1.075001e+01 4.000000e+00
      vertex -2.267793e+01 -1.080964e+01 4.000000e+00
    endloop
  endfacet
  facet normal 9.914449e-01 -1.305262e-01 1.507842e-15
    outer loop
      vertex -2.397500e+01 -1.250001e+01 4.000000e+00
      vertex -2.391537e+01 -1.204707e+01 0.000000e+00
      vertex -2.391537e+01 -1.204707e+01 4.000000e+00
    endloop
  endfacet
  facet normal 9.914449e-01 -1.305262e-01 1.507842e-15
    outer loop
      vertex -2.391537e+01 -1.204707e+01 0.000000e+00
      vertex -2.397500e+01 -1.250001e+01 4.000000e+00
      vertex -2.397500e+01 -1.250001e+01 0.000000e+00
    endloop
  endfacet
  facet normal -9.238795e-01 3.826834e-01 -4.420769e-15
    outer loop
      vertex -2.053463e+01 -1.295292e+01 0.000000e+00
      vertex -2.070945e+01 -1.337501e+01 4.000000e+00
      vertex -2.053463e+01 -1.295292e+01 4.000000e+00
    endloop
  endfacet
  facet normal -9.238795e-01 3.826834e-01 -4.420769e-15
    outer loop
      vertex -2.070945e+01 -1.337501e+01 4.000000e+00
      vertex -2.053463e+01 -1.295292e+01 0.000000e+00
      vertex -2.070945e+01 -1.337501e+01 0.000000e+00
    endloop
  endfacet
  facet normal -7.933533e-01 6.087614e-01 -7.032428e-15
    outer loop
      vertex -2.070945e+01 -1.337501e+01 0.000000e+00
      vertex -2.098756e+01 -1.373743e+01 4.000000e+00
      vertex -2.070945e+01 -1.337501e+01 4.000000e+00
    endloop
  endfacet
  facet normal -7.933533e-01 6.087614e-01 -7.032428e-15
    outer loop
      vertex -2.098756e+01 -1.373743e+01 4.000000e+00
      vertex -2.070945e+01 -1.337501e+01 0.000000e+00
      vertex -2.098756e+01 -1.373743e+01 0.000000e+00
    endloop
  endfacet
endsolid Default
