solid Plotter
facet normal 0.0 0.0 -1.0
  outer loop
    vertex -228.750477583976 387.056426553246 24.4
    vertex -229.206382358464 382.226797421801 24.4
    vertex -229.956382358464 386.556924440723 24.4
  endloop
endfacet
facet normal 0.0 0.0 -1.0
  outer loop
    vertex -229.206382358464 382.226797421801 24.4
    vertex -228.750477583976 387.056426553246 24.4
    vertex -229.14675255447 382.67973075073 24.4
  endloop
endfacet
facet normal 0.0 0.0 -1.0
  outer loop
    vertex -229.14675255447 382.67973075073 24.4
    vertex -228.750477583976 387.056426553246 24.4
    vertex -228.971926815087 383.101797421801 24.4
  endloop
endfacet
facet normal 0.0 0.0 -1.0
  outer loop
    vertex -228.971926815087 383.101797421801 24.4
    vertex -228.750477583976 387.056426553246 24.4
    vertex -228.69381922554 383.464234288877 24.4
  endloop
endfacet
facet normal 0.0 0.0 -1.0
  outer loop
    vertex -228.69381922554 383.464234288877 24.4
    vertex -228.750477583976 387.056426553246 24.4
    vertex -227.456382358464 387.226797421801 24.4
  endloop
endfacet
facet normal 0.0 0.0 -1.0
  outer loop
    vertex -228.69381922554 383.464234288877 24.4
    vertex -227.456382358464 387.226797421801 24.4
    vertex -228.331382358464 383.742341878424 24.4
  endloop
endfacet
facet normal 0.0 0.0 -1.0
  outer loop
    vertex -228.331382358464 383.742341878424 24.4
    vertex -227.456382358464 387.226797421801 24.4
    vertex -227.909315687393 383.917167617807 24.4
  endloop
endfacet
facet normal 0.0 0.0 -1.0
  outer loop
    vertex -227.909315687393 383.917167617807 24.4
    vertex -227.456382358464 387.226797421801 24.4
    vertex -227.456382358464 383.976797421801 24.4
  endloop
endfacet
facet normal 0.0 0.0 -1.0
  outer loop
    vertex -227.456382358464 383.976797421801 24.4
    vertex -227.456382358464 387.226797421801 24.4
    vertex -226.162287132951 387.056426553246 24.4
  endloop
endfacet
facet normal 0.0 0.0 -1.0
  outer loop
    vertex -227.456382358464 383.976797421801 24.4
    vertex -226.162287132951 387.056426553246 24.4
    vertex -227.003449029534 383.917167617807 24.4
  endloop
endfacet
facet normal 0.0 0.0 -1.0
  outer loop
    vertex -227.003449029534 383.917167617807 24.4
    vertex -226.162287132951 387.056426553246 24.4
    vertex -226.581382358464 383.742341878424 24.4
  endloop
endfacet
facet normal 0.0 0.0 -1.0
  outer loop
    vertex -226.581382358464 383.742341878424 24.4
    vertex -226.162287132951 387.056426553246 24.4
    vertex -226.218945491387 383.464234288877 24.4
  endloop
endfacet
facet normal 0.0 0.0 -1.0
  outer loop
    vertex -226.218945491387 383.464234288877 24.4
    vertex -226.162287132951 387.056426553246 24.4
    vertex -225.940837901841 383.101797421801 24.4
  endloop
endfacet
facet normal 0.0 0.0 -1.0
  outer loop
    vertex -225.940837901841 383.101797421801 24.4
    vertex -226.162287132951 387.056426553246 24.4
    vertex -224.956382358464 386.556924440723 24.4
  endloop
endfacet
facet normal 0.0 0.0 -1.0
  outer loop
    vertex -225.940837901841 383.101797421801 24.4
    vertex -224.956382358464 386.556924440723 24.4
    vertex -225.766012162458 382.67973075073 24.4
  endloop
endfacet
facet normal 0.0 0.0 -1.0
  outer loop
    vertex -225.766012162458 382.67973075073 24.4
    vertex -224.956382358464 386.556924440723 24.4
    vertex -225.706382358464 382.226797421801 24.4
  endloop
endfacet
facet normal 0.0 0.0 -1.0
  outer loop
    vertex -232.286011489909 383.520892647314 24.4
    vertex -232.286011489909 380.932702196288 24.4
    vertex -232.456382358464 382.226797421801 24.4
  endloop
endfacet
facet normal 0.0 0.0 -1.0
  outer loop
    vertex -232.286011489909 380.932702196288 24.4
    vertex -232.286011489909 383.520892647314 24.4
    vertex -231.786509377386 384.726797421801 24.4
  endloop
endfacet
facet normal 0.0 0.0 -1.0
  outer loop
    vertex -232.286011489909 380.932702196288 24.4
    vertex -231.786509377386 384.726797421801 24.4
    vertex -231.786509377386 379.726797421801 24.4
  endloop
endfacet
facet normal 0.0 0.0 -1.0
  outer loop
    vertex -231.786509377386 379.726797421801 24.4
    vertex -231.786509377386 384.726797421801 24.4
    vertex -230.991916264397 385.762331327734 24.4
  endloop
endfacet
facet normal 0.0 0.0 -1.0
  outer loop
    vertex -231.786509377386 379.726797421801 24.4
    vertex -230.991916264397 385.762331327734 24.4
    vertex -230.991916264397 378.691263515868 24.4
  endloop
endfacet
facet normal 0.0 0.0 -1.0
  outer loop
    vertex -230.991916264397 378.691263515868 24.4
    vertex -230.991916264397 385.762331327734 24.4
    vertex -229.956382358464 386.556924440723 24.4
  endloop
endfacet
facet normal 0.0 0.0 -1.0
  outer loop
    vertex -230.991916264397 378.691263515868 24.4
    vertex -229.956382358464 386.556924440723 24.4
    vertex -229.956382358464 377.896670402879 24.4
  endloop
endfacet
facet normal 0.0 0.0 -1.0
  outer loop
    vertex -229.956382358464 377.896670402879 24.4
    vertex -229.956382358464 386.556924440723 24.4
    vertex -228.750477583976 377.397168290356 24.4
  endloop
endfacet
facet normal 0.0 0.0 -1.0
  outer loop
    vertex -228.750477583976 377.397168290356 24.4
    vertex -229.956382358464 386.556924440723 24.4
    vertex -229.206382358464 382.226797421801 24.4
  endloop
endfacet
facet normal 0.0 0.0 -1.0
  outer loop
    vertex -228.750477583976 377.397168290356 24.4
    vertex -229.206382358464 382.226797421801 24.4
    vertex -229.14675255447 381.773864092871 24.4
  endloop
endfacet
facet normal 0.0 0.0 -1.0
  outer loop
    vertex -228.750477583976 377.397168290356 24.4
    vertex -229.14675255447 381.773864092871 24.4
    vertex -228.971926815087 381.351797421801 24.4
  endloop
endfacet
facet normal 0.0 0.0 -1.0
  outer loop
    vertex -228.750477583976 377.397168290356 24.4
    vertex -228.971926815087 381.351797421801 24.4
    vertex -228.69381922554 380.989360554724 24.4
  endloop
endfacet
facet normal 0.0 0.0 -1.0
  outer loop
    vertex -228.750477583976 377.397168290356 24.4
    vertex -228.69381922554 380.989360554724 24.4
    vertex -227.456382358464 377.226797421801 24.4
  endloop
endfacet
facet normal 0.0 0.0 -1.0
  outer loop
    vertex -227.456382358464 377.226797421801 24.4
    vertex -228.69381922554 380.989360554724 24.4
    vertex -228.331382358464 380.711252965178 24.4
  endloop
endfacet
facet normal 0.0 0.0 -1.0
  outer loop
    vertex -227.456382358464 377.226797421801 24.4
    vertex -228.331382358464 380.711252965178 24.4
    vertex -227.909315687393 380.536427225795 24.4
  endloop
endfacet
facet normal 0.0 0.0 -1.0
  outer loop
    vertex -227.456382358464 377.226797421801 24.4
    vertex -227.909315687393 380.536427225795 24.4
    vertex -227.456382358464 380.476797421801 24.4
  endloop
endfacet
facet normal 0.0 0.0 -1.0
  outer loop
    vertex -227.456382358464 377.226797421801 24.4
    vertex -227.456382358464 380.476797421801 24.4
    vertex -227.003449029534 380.536427225795 24.4
  endloop
endfacet
facet normal 0.0 0.0 -1.0
  outer loop
    vertex -227.456382358464 377.226797421801 24.4
    vertex -227.003449029534 380.536427225795 24.4
    vertex -226.162287132951 377.397168290356 24.4
  endloop
endfacet
facet normal 0.0 0.0 -1.0
  outer loop
    vertex -226.162287132951 377.397168290356 24.4
    vertex -227.003449029534 380.536427225795 24.4
    vertex -226.581382358464 380.711252965178 24.4
  endloop
endfacet
facet normal 0.0 0.0 -1.0
  outer loop
    vertex -226.162287132951 377.397168290356 24.4
    vertex -226.581382358464 380.711252965178 24.4
    vertex -226.218945491387 380.989360554724 24.4
  endloop
endfacet
facet normal 0.0 0.0 -1.0
  outer loop
    vertex -226.162287132951 377.397168290356 24.4
    vertex -226.218945491387 380.989360554724 24.4
    vertex -225.940837901841 381.351797421801 24.4
  endloop
endfacet
facet normal 0.0 0.0 -1.0
  outer loop
    vertex -226.162287132951 377.397168290356 24.4
    vertex -225.940837901841 381.351797421801 24.4
    vertex -224.956382358464 377.896670402879 24.4
  endloop
endfacet
facet normal 0.0 0.0 -1.0
  outer loop
    vertex -224.956382358464 377.896670402879 24.4
    vertex -225.940837901841 381.351797421801 24.4
    vertex -225.766012162458 381.773864092871 24.4
  endloop
endfacet
facet normal 0.0 0.0 -1.0
  outer loop
    vertex -224.956382358464 377.896670402879 24.4
    vertex -225.766012162458 381.773864092871 24.4
    vertex -225.706382358464 382.226797421801 24.4
  endloop
endfacet
facet normal 0.0 0.0 -1.0
  outer loop
    vertex -224.956382358464 377.896670402879 24.4
    vertex -225.706382358464 382.226797421801 24.4
    vertex -224.956382358464 386.556924440723 24.4
  endloop
endfacet
facet normal 0.0 0.0 -1.0
  outer loop
    vertex -224.956382358464 377.896670402879 24.4
    vertex -224.956382358464 386.556924440723 24.4
    vertex -223.920848452531 385.762331327734 24.4
  endloop
endfacet
facet normal 0.0 0.0 -1.0
  outer loop
    vertex -224.956382358464 377.896670402879 24.4
    vertex -223.920848452531 385.762331327734 24.4
    vertex -223.920848452531 378.691263515868 24.4
  endloop
endfacet
facet normal 0.0 0.0 -1.0
  outer loop
    vertex -223.920848452531 378.691263515868 24.4
    vertex -223.920848452531 385.762331327734 24.4
    vertex -223.126255339542 384.726797421801 24.4
  endloop
endfacet
facet normal 0.0 0.0 -1.0
  outer loop
    vertex -223.920848452531 378.691263515868 24.4
    vertex -223.126255339542 384.726797421801 24.4
    vertex -223.126255339542 379.726797421801 24.4
  endloop
endfacet
facet normal 0.0 0.0 -1.0
  outer loop
    vertex -223.126255339542 379.726797421801 24.4
    vertex -223.126255339542 384.726797421801 24.4
    vertex -222.626753227019 383.520892647314 24.4
  endloop
endfacet
facet normal 0.0 0.0 -1.0
  outer loop
    vertex -223.126255339542 379.726797421801 24.4
    vertex -222.626753227019 383.520892647314 24.4
    vertex -222.626753227019 380.932702196288 24.4
  endloop
endfacet
facet normal 0.0 0.0 -1.0
  outer loop
    vertex -222.626753227019 380.932702196288 24.4
    vertex -222.626753227019 383.520892647314 24.4
    vertex -222.456382358464 382.226797421801 24.4
  endloop
endfacet
facet normal 0.382683432365087 -0.923879532511288 0.0
  outer loop
    vertex -224.956382358464 377.896670402879 28.4
    vertex -226.162287132951 377.397168290356 24.4
    vertex -224.956382358464 377.896670402879 24.4
  endloop
endfacet
facet normal 0.382683432365087 -0.923879532511288 0.0
  outer loop
    vertex -226.162287132951 377.397168290356 24.4
    vertex -224.956382358464 377.896670402879 28.4
    vertex -226.162287132951 377.397168290356 28.4
  endloop
endfacet
facet normal -0.793353340291234 0.608761429008722 0.0
  outer loop
    vertex -230.991916264397 385.762331327734 28.4
    vertex -231.786509377386 384.726797421801 24.4
    vertex -231.786509377386 384.726797421801 28.4
  endloop
endfacet
facet normal -0.793353340291234 0.608761429008722 0.0
  outer loop
    vertex -231.786509377386 384.726797421801 24.4
    vertex -230.991916264397 385.762331327734 28.4
    vertex -230.991916264397 385.762331327734 24.4
  endloop
endfacet
facet normal -0.923879532511288 0.382683432365087 0.0
  outer loop
    vertex -231.786509377386 384.726797421801 28.4
    vertex -232.286011489909 383.520892647314 24.4
    vertex -232.286011489909 383.520892647314 28.4
  endloop
endfacet
facet normal -0.923879532511288 0.382683432365087 0.0
  outer loop
    vertex -232.286011489909 383.520892647314 24.4
    vertex -231.786509377386 384.726797421801 28.4
    vertex -231.786509377386 384.726797421801 24.4
  endloop
endfacet
facet normal 0.923879532511281 -0.382683432365104 0.0
  outer loop
    vertex -228.971926815087 383.101797421801 24.4
    vertex -229.14675255447 382.67973075073 28.4
    vertex -229.14675255447 382.67973075073 24.4
  endloop
endfacet
facet normal 0.923879532511281 -0.382683432365104 0.0
  outer loop
    vertex -229.14675255447 382.67973075073 28.4
    vertex -228.971926815087 383.101797421801 24.4
    vertex -228.971926815087 383.101797421801 28.4
  endloop
endfacet
facet normal 0.608761429008741 -0.793353340291219 0.0
  outer loop
    vertex -228.331382358464 383.742341878424 28.4
    vertex -228.69381922554 383.464234288877 24.4
    vertex -228.331382358464 383.742341878424 24.4
  endloop
endfacet
facet normal 0.608761429008741 -0.793353340291219 0.0
  outer loop
    vertex -228.69381922554 383.464234288877 24.4
    vertex -228.331382358464 383.742341878424 28.4
    vertex -228.69381922554 383.464234288877 28.4
  endloop
endfacet
facet normal 0.130526192220078 -0.991444861373807 0.0
  outer loop
    vertex -227.456382358464 383.976797421801 28.4
    vertex -227.909315687393 383.917167617807 24.4
    vertex -227.456382358464 383.976797421801 24.4
  endloop
endfacet
facet normal 0.130526192220078 -0.991444861373807 0.0
  outer loop
    vertex -227.909315687393 383.917167617807 24.4
    vertex -227.456382358464 383.976797421801 28.4
    vertex -227.909315687393 383.917167617807 28.4
  endloop
endfacet
facet normal 0.130526192220022 0.991444861373814 0.0
  outer loop
    vertex -227.456382358464 387.226797421801 28.4
    vertex -226.162287132951 387.056426553246 24.4
    vertex -227.456382358464 387.226797421801 24.4
  endloop
endfacet
facet normal 0.130526192220022 0.991444861373814 0.0
  outer loop
    vertex -226.162287132951 387.056426553246 24.4
    vertex -227.456382358464 387.226797421801 28.4
    vertex -226.162287132951 387.056426553246 28.4
  endloop
endfacet
facet normal -0.923879532511288 -0.382683432365087 -0.0
  outer loop
    vertex -232.286011489909 380.932702196288 28.4
    vertex -231.786509377386 379.726797421801 24.4
    vertex -231.786509377386 379.726797421801 28.4
  endloop
endfacet
facet normal -0.923879532511288 -0.382683432365087 -0.0
  outer loop
    vertex -231.786509377386 379.726797421801 24.4
    vertex -232.286011489909 380.932702196288 28.4
    vertex -232.286011489909 380.932702196288 24.4
  endloop
endfacet
facet normal -0.382683432365118 -0.923879532511275 -0.0
  outer loop
    vertex -228.750477583976 377.397168290356 28.4
    vertex -229.956382358464 377.896670402879 24.4
    vertex -228.750477583976 377.397168290356 24.4
  endloop
endfacet
facet normal -0.382683432365118 -0.923879532511275 -0.0
  outer loop
    vertex -229.956382358464 377.896670402879 24.4
    vertex -228.750477583976 377.397168290356 28.4
    vertex -229.956382358464 377.896670402879 28.4
  endloop
endfacet
facet normal 0.608761429008725 -0.793353340291232 0.0
  outer loop
    vertex -223.920848452531 378.691263515868 28.4
    vertex -224.956382358464 377.896670402879 24.4
    vertex -223.920848452531 378.691263515868 24.4
  endloop
endfacet
facet normal 0.608761429008725 -0.793353340291232 0.0
  outer loop
    vertex -224.956382358464 377.896670402879 24.4
    vertex -223.920848452531 378.691263515868 28.4
    vertex -224.956382358464 377.896670402879 28.4
  endloop
endfacet
facet normal 0.923879532511288 -0.382683432365087 0.0
  outer loop
    vertex -222.626753227019 380.932702196288 24.4
    vertex -223.126255339542 379.726797421801 28.4
    vertex -223.126255339542 379.726797421801 24.4
  endloop
endfacet
facet normal 0.923879532511288 -0.382683432365087 0.0
  outer loop
    vertex -223.126255339542 379.726797421801 28.4
    vertex -222.626753227019 380.932702196288 24.4
    vertex -222.626753227019 380.932702196288 28.4
  endloop
endfacet
facet normal 0.99144486137381 0.130526192220055 0.0
  outer loop
    vertex -222.626753227019 383.520892647314 24.4
    vertex -222.456382358464 382.226797421801 28.4
    vertex -222.456382358464 382.226797421801 24.4
  endloop
endfacet
facet normal 0.99144486137381 0.130526192220055 0.0
  outer loop
    vertex -222.456382358464 382.226797421801 28.4
    vertex -222.626753227019 383.520892647314 24.4
    vertex -222.626753227019 383.520892647314 28.4
  endloop
endfacet
facet normal 0.793353340291234 0.608761429008722 0.0
  outer loop
    vertex -223.920848452531 385.762331327734 24.4
    vertex -223.126255339542 384.726797421801 28.4
    vertex -223.126255339542 384.726797421801 24.4
  endloop
endfacet
facet normal 0.793353340291234 0.608761429008722 0.0
  outer loop
    vertex -223.126255339542 384.726797421801 28.4
    vertex -223.920848452531 385.762331327734 24.4
    vertex -223.920848452531 385.762331327734 28.4
  endloop
endfacet
facet normal -0.382683432365087 0.923879532511288 0.0
  outer loop
    vertex -229.956382358464 386.556924440723 28.4
    vertex -228.750477583976 387.056426553246 24.4
    vertex -229.956382358464 386.556924440723 24.4
  endloop
endfacet
facet normal -0.382683432365087 0.923879532511288 0.0
  outer loop
    vertex -228.750477583976 387.056426553246 24.4
    vertex -229.956382358464 386.556924440723 28.4
    vertex -228.750477583976 387.056426553246 28.4
  endloop
endfacet
facet normal 0.991444861373814 -0.130526192220029 0.0
  outer loop
    vertex -229.14675255447 382.67973075073 24.4
    vertex -229.206382358464 382.226797421801 28.4
    vertex -229.206382358464 382.226797421801 24.4
  endloop
endfacet
facet normal 0.991444861373814 -0.130526192220029 0.0
  outer loop
    vertex -229.206382358464 382.226797421801 28.4
    vertex -229.14675255447 382.67973075073 24.4
    vertex -229.14675255447 382.67973075073 28.4
  endloop
endfacet
facet normal 0.793353340291238 -0.608761429008717 0.0
  outer loop
    vertex -228.69381922554 383.464234288877 24.4
    vertex -228.971926815087 383.101797421801 28.4
    vertex -228.971926815087 383.101797421801 24.4
  endloop
endfacet
facet normal 0.793353340291238 -0.608761429008717 0.0
  outer loop
    vertex -228.971926815087 383.101797421801 28.4
    vertex -228.69381922554 383.464234288877 24.4
    vertex -228.69381922554 383.464234288877 28.4
  endloop
endfacet
facet normal 0.382683432365086 -0.923879532511288 0.0
  outer loop
    vertex -227.909315687393 383.917167617807 28.4
    vertex -228.331382358464 383.742341878424 24.4
    vertex -227.909315687393 383.917167617807 24.4
  endloop
endfacet
facet normal 0.382683432365086 -0.923879532511288 0.0
  outer loop
    vertex -228.331382358464 383.742341878424 24.4
    vertex -227.909315687393 383.917167617807 28.4
    vertex -228.331382358464 383.742341878424 28.4
  endloop
endfacet
facet normal -0.793353340291234 -0.608761429008722 -0.0
  outer loop
    vertex -231.786509377386 379.726797421801 28.4
    vertex -230.991916264397 378.691263515868 24.4
    vertex -230.991916264397 378.691263515868 28.4
  endloop
endfacet
facet normal -0.793353340291234 -0.608761429008722 -0.0
  outer loop
    vertex -230.991916264397 378.691263515868 24.4
    vertex -231.786509377386 379.726797421801 28.4
    vertex -231.786509377386 379.726797421801 24.4
  endloop
endfacet
facet normal 0.130526192220022 -0.991444861373814 0.0
  outer loop
    vertex -226.162287132951 377.397168290356 28.4
    vertex -227.456382358464 377.226797421801 24.4
    vertex -226.162287132951 377.397168290356 24.4
  endloop
endfacet
facet normal 0.130526192220022 -0.991444861373814 0.0
  outer loop
    vertex -227.456382358464 377.226797421801 24.4
    vertex -226.162287132951 377.397168290356 28.4
    vertex -227.456382358464 377.226797421801 28.4
  endloop
endfacet
facet normal -0.99144486137381 0.130526192220055 0.0
  outer loop
    vertex -232.286011489909 383.520892647314 28.4
    vertex -232.456382358464 382.226797421801 24.4
    vertex -232.456382358464 382.226797421801 28.4
  endloop
endfacet
facet normal -0.99144486137381 0.130526192220055 0.0
  outer loop
    vertex -232.456382358464 382.226797421801 24.4
    vertex -232.286011489909 383.520892647314 28.4
    vertex -232.286011489909 383.520892647314 24.4
  endloop
endfacet
facet normal 0.0 0.0 1.0
  outer loop
    vertex -232.286011489909 380.932702196288 28.4
    vertex -232.286011489909 383.520892647314 28.4
    vertex -232.456382358464 382.226797421801 28.4
  endloop
endfacet
facet normal 0.0 0.0 1.0
  outer loop
    vertex -232.286011489909 383.520892647314 28.4
    vertex -232.286011489909 380.932702196288 28.4
    vertex -231.786509377386 379.726797421801 28.4
  endloop
endfacet
facet normal 0.0 0.0 1.0
  outer loop
    vertex -232.286011489909 383.520892647314 28.4
    vertex -231.786509377386 379.726797421801 28.4
    vertex -231.786509377386 384.726797421801 28.4
  endloop
endfacet
facet normal 0.0 0.0 1.0
  outer loop
    vertex -231.786509377386 384.726797421801 28.4
    vertex -231.786509377386 379.726797421801 28.4
    vertex -230.991916264397 378.691263515868 28.4
  endloop
endfacet
facet normal 0.0 0.0 1.0
  outer loop
    vertex -231.786509377386 384.726797421801 28.4
    vertex -230.991916264397 378.691263515868 28.4
    vertex -230.991916264397 385.762331327734 28.4
  endloop
endfacet
facet normal 0.0 0.0 1.0
  outer loop
    vertex -230.991916264397 385.762331327734 28.4
    vertex -230.991916264397 378.691263515868 28.4
    vertex -229.956382358464 377.896670402879 28.4
  endloop
endfacet
facet normal 0.0 0.0 1.0
  outer loop
    vertex -230.991916264397 385.762331327734 28.4
    vertex -229.956382358464 377.896670402879 28.4
    vertex -229.956382358464 386.556924440723 28.4
  endloop
endfacet
facet normal 0.0 0.0 1.0
  outer loop
    vertex -229.956382358464 386.556924440723 28.4
    vertex -229.956382358464 377.896670402879 28.4
    vertex -228.750477583976 377.397168290356 28.4
  endloop
endfacet
facet normal 0.0 0.0 1.0
  outer loop
    vertex -229.956382358464 386.556924440723 28.4
    vertex -228.750477583976 377.397168290356 28.4
    vertex -229.206382358464 382.226797421801 28.4
  endloop
endfacet
facet normal 0.0 0.0 1.0
  outer loop
    vertex -229.206382358464 382.226797421801 28.4
    vertex -228.750477583976 377.397168290356 28.4
    vertex -229.14675255447 381.773864092871 28.4
  endloop
endfacet
facet normal 0.0 0.0 1.0
  outer loop
    vertex -229.14675255447 381.773864092871 28.4
    vertex -228.750477583976 377.397168290356 28.4
    vertex -228.971926815087 381.351797421801 28.4
  endloop
endfacet
facet normal 0.0 0.0 1.0
  outer loop
    vertex -228.971926815087 381.351797421801 28.4
    vertex -228.750477583976 377.397168290356 28.4
    vertex -228.69381922554 380.989360554724 28.4
  endloop
endfacet
facet normal 0.0 0.0 1.0
  outer loop
    vertex -228.69381922554 380.989360554724 28.4
    vertex -228.750477583976 377.397168290356 28.4
    vertex -227.456382358464 377.226797421801 28.4
  endloop
endfacet
facet normal 0.0 0.0 1.0
  outer loop
    vertex -228.69381922554 380.989360554724 28.4
    vertex -227.456382358464 377.226797421801 28.4
    vertex -228.331382358464 380.711252965178 28.4
  endloop
endfacet
facet normal 0.0 0.0 1.0
  outer loop
    vertex -228.331382358464 380.711252965178 28.4
    vertex -227.456382358464 377.226797421801 28.4
    vertex -227.909315687393 380.536427225795 28.4
  endloop
endfacet
facet normal 0.0 0.0 1.0
  outer loop
    vertex -227.909315687393 380.536427225795 28.4
    vertex -227.456382358464 377.226797421801 28.4
    vertex -227.456382358464 380.476797421801 28.4
  endloop
endfacet
facet normal 0.0 0.0 1.0
  outer loop
    vertex -227.456382358464 380.476797421801 28.4
    vertex -227.456382358464 377.226797421801 28.4
    vertex -226.162287132951 377.397168290356 28.4
  endloop
endfacet
facet normal 0.0 0.0 1.0
  outer loop
    vertex -227.456382358464 380.476797421801 28.4
    vertex -226.162287132951 377.397168290356 28.4
    vertex -227.003449029534 380.536427225795 28.4
  endloop
endfacet
facet normal 0.0 0.0 1.0
  outer loop
    vertex -227.003449029534 380.536427225795 28.4
    vertex -226.162287132951 377.397168290356 28.4
    vertex -226.581382358464 380.711252965178 28.4
  endloop
endfacet
facet normal 0.0 0.0 1.0
  outer loop
    vertex -226.581382358464 380.711252965178 28.4
    vertex -226.162287132951 377.397168290356 28.4
    vertex -226.218945491387 380.989360554724 28.4
  endloop
endfacet
facet normal 0.0 0.0 1.0
  outer loop
    vertex -226.218945491387 380.989360554724 28.4
    vertex -226.162287132951 377.397168290356 28.4
    vertex -225.940837901841 381.351797421801 28.4
  endloop
endfacet
facet normal 0.0 0.0 1.0
  outer loop
    vertex -225.940837901841 381.351797421801 28.4
    vertex -226.162287132951 377.397168290356 28.4
    vertex -224.956382358464 377.896670402879 28.4
  endloop
endfacet
facet normal 0.0 0.0 1.0
  outer loop
    vertex -225.940837901841 381.351797421801 28.4
    vertex -224.956382358464 377.896670402879 28.4
    vertex -225.766012162458 381.773864092871 28.4
  endloop
endfacet
facet normal 0.0 0.0 1.0
  outer loop
    vertex -225.766012162458 381.773864092871 28.4
    vertex -224.956382358464 377.896670402879 28.4
    vertex -225.706382358464 382.226797421801 28.4
  endloop
endfacet
facet normal 0.0 0.0 1.0
  outer loop
    vertex -229.206382358464 382.226797421801 28.4
    vertex -228.750477583976 387.056426553246 28.4
    vertex -229.956382358464 386.556924440723 28.4
  endloop
endfacet
facet normal 0.0 0.0 1.0
  outer loop
    vertex -228.750477583976 387.056426553246 28.4
    vertex -229.206382358464 382.226797421801 28.4
    vertex -229.14675255447 382.67973075073 28.4
  endloop
endfacet
facet normal 0.0 0.0 1.0
  outer loop
    vertex -228.750477583976 387.056426553246 28.4
    vertex -229.14675255447 382.67973075073 28.4
    vertex -228.971926815087 383.101797421801 28.4
  endloop
endfacet
facet normal 0.0 0.0 1.0
  outer loop
    vertex -228.750477583976 387.056426553246 28.4
    vertex -228.971926815087 383.101797421801 28.4
    vertex -228.69381922554 383.464234288877 28.4
  endloop
endfacet
facet normal 0.0 0.0 1.0
  outer loop
    vertex -228.750477583976 387.056426553246 28.4
    vertex -228.69381922554 383.464234288877 28.4
    vertex -227.456382358464 387.226797421801 28.4
  endloop
endfacet
facet normal 0.0 0.0 1.0
  outer loop
    vertex -227.456382358464 387.226797421801 28.4
    vertex -228.69381922554 383.464234288877 28.4
    vertex -228.331382358464 383.742341878424 28.4
  endloop
endfacet
facet normal 0.0 0.0 1.0
  outer loop
    vertex -227.456382358464 387.226797421801 28.4
    vertex -228.331382358464 383.742341878424 28.4
    vertex -227.909315687393 383.917167617807 28.4
  endloop
endfacet
facet normal 0.0 0.0 1.0
  outer loop
    vertex -227.456382358464 387.226797421801 28.4
    vertex -227.909315687393 383.917167617807 28.4
    vertex -227.456382358464 383.976797421801 28.4
  endloop
endfacet
facet normal 0.0 0.0 1.0
  outer loop
    vertex -227.456382358464 387.226797421801 28.4
    vertex -227.456382358464 383.976797421801 28.4
    vertex -227.003449029534 383.917167617807 28.4
  endloop
endfacet
facet normal 0.0 0.0 1.0
  outer loop
    vertex -227.456382358464 387.226797421801 28.4
    vertex -227.003449029534 383.917167617807 28.4
    vertex -226.162287132951 387.056426553246 28.4
  endloop
endfacet
facet normal 0.0 0.0 1.0
  outer loop
    vertex -226.162287132951 387.056426553246 28.4
    vertex -227.003449029534 383.917167617807 28.4
    vertex -226.581382358464 383.742341878424 28.4
  endloop
endfacet
facet normal 0.0 0.0 1.0
  outer loop
    vertex -226.162287132951 387.056426553246 28.4
    vertex -226.581382358464 383.742341878424 28.4
    vertex -226.218945491387 383.464234288877 28.4
  endloop
endfacet
facet normal 0.0 0.0 1.0
  outer loop
    vertex -226.162287132951 387.056426553246 28.4
    vertex -226.218945491387 383.464234288877 28.4
    vertex -225.940837901841 383.101797421801 28.4
  endloop
endfacet
facet normal 0.0 0.0 1.0
  outer loop
    vertex -226.162287132951 387.056426553246 28.4
    vertex -225.940837901841 383.101797421801 28.4
    vertex -224.956382358464 386.556924440723 28.4
  endloop
endfacet
facet normal 0.0 0.0 1.0
  outer loop
    vertex -224.956382358464 386.556924440723 28.4
    vertex -225.940837901841 383.101797421801 28.4
    vertex -225.766012162458 382.67973075073 28.4
  endloop
endfacet
facet normal 0.0 0.0 1.0
  outer loop
    vertex -224.956382358464 386.556924440723 28.4
    vertex -225.766012162458 382.67973075073 28.4
    vertex -225.706382358464 382.226797421801 28.4
  endloop
endfacet
facet normal 0.0 0.0 1.0
  outer loop
    vertex -224.956382358464 386.556924440723 28.4
    vertex -225.706382358464 382.226797421801 28.4
    vertex -224.956382358464 377.896670402879 28.4
  endloop
endfacet
facet normal 0.0 0.0 1.0
  outer loop
    vertex -224.956382358464 386.556924440723 28.4
    vertex -224.956382358464 377.896670402879 28.4
    vertex -223.920848452531 378.691263515868 28.4
  endloop
endfacet
facet normal 0.0 0.0 1.0
  outer loop
    vertex -224.956382358464 386.556924440723 28.4
    vertex -223.920848452531 378.691263515868 28.4
    vertex -223.920848452531 385.762331327734 28.4
  endloop
endfacet
facet normal 0.0 0.0 1.0
  outer loop
    vertex -223.920848452531 385.762331327734 28.4
    vertex -223.920848452531 378.691263515868 28.4
    vertex -223.126255339542 379.726797421801 28.4
  endloop
endfacet
facet normal 0.0 0.0 1.0
  outer loop
    vertex -223.920848452531 385.762331327734 28.4
    vertex -223.126255339542 379.726797421801 28.4
    vertex -223.126255339542 384.726797421801 28.4
  endloop
endfacet
facet normal 0.0 0.0 1.0
  outer loop
    vertex -223.126255339542 384.726797421801 28.4
    vertex -223.126255339542 379.726797421801 28.4
    vertex -222.626753227019 380.932702196288 28.4
  endloop
endfacet
facet normal 0.0 0.0 1.0
  outer loop
    vertex -223.126255339542 384.726797421801 28.4
    vertex -222.626753227019 380.932702196288 28.4
    vertex -222.626753227019 383.520892647314 28.4
  endloop
endfacet
facet normal 0.0 0.0 1.0
  outer loop
    vertex -222.626753227019 383.520892647314 28.4
    vertex -222.626753227019 380.932702196288 28.4
    vertex -222.456382358464 382.226797421801 28.4
  endloop
endfacet
facet normal -0.608761429008711 -0.793353340291243 -0.0
  outer loop
    vertex -229.956382358464 377.896670402879 28.4
    vertex -230.991916264397 378.691263515868 24.4
    vertex -229.956382358464 377.896670402879 24.4
  endloop
endfacet
facet normal -0.608761429008711 -0.793353340291243 -0.0
  outer loop
    vertex -230.991916264397 378.691263515868 24.4
    vertex -229.956382358464 377.896670402879 28.4
    vertex -230.991916264397 378.691263515868 28.4
  endloop
endfacet
facet normal 0.923879532511288 0.382683432365087 0.0
  outer loop
    vertex -223.126255339542 384.726797421801 24.4
    vertex -222.626753227019 383.520892647314 28.4
    vertex -222.626753227019 383.520892647314 24.4
  endloop
endfacet
facet normal 0.923879532511288 0.382683432365087 0.0
  outer loop
    vertex -222.626753227019 383.520892647314 28.4
    vertex -223.126255339542 384.726797421801 24.4
    vertex -223.126255339542 384.726797421801 28.4
  endloop
endfacet
facet normal 0.382683432365081 0.92387953251129 0.0
  outer loop
    vertex -226.162287132951 387.056426553246 28.4
    vertex -224.956382358464 386.556924440723 24.4
    vertex -226.162287132951 387.056426553246 24.4
  endloop
endfacet
facet normal 0.382683432365081 0.92387953251129 0.0
  outer loop
    vertex -224.956382358464 386.556924440723 24.4
    vertex -226.162287132951 387.056426553246 28.4
    vertex -224.956382358464 386.556924440723 28.4
  endloop
endfacet
facet normal 0.793353340291234 -0.608761429008722 0.0
  outer loop
    vertex -223.126255339542 379.726797421801 24.4
    vertex -223.920848452531 378.691263515868 28.4
    vertex -223.920848452531 378.691263515868 24.4
  endloop
endfacet
facet normal 0.793353340291234 -0.608761429008722 0.0
  outer loop
    vertex -223.920848452531 378.691263515868 28.4
    vertex -223.126255339542 379.726797421801 24.4
    vertex -223.126255339542 379.726797421801 28.4
  endloop
endfacet
facet normal -0.608761429008725 0.793353340291232 0.0
  outer loop
    vertex -230.991916264397 385.762331327734 28.4
    vertex -229.956382358464 386.556924440723 24.4
    vertex -230.991916264397 385.762331327734 24.4
  endloop
endfacet
facet normal -0.608761429008725 0.793353340291232 0.0
  outer loop
    vertex -229.956382358464 386.556924440723 24.4
    vertex -230.991916264397 385.762331327734 28.4
    vertex -229.956382358464 386.556924440723 28.4
  endloop
endfacet
facet normal -0.13052619222002 -0.991444861373815 -0.0
  outer loop
    vertex -227.456382358464 377.226797421801 28.4
    vertex -228.750477583976 377.397168290356 24.4
    vertex -227.456382358464 377.226797421801 24.4
  endloop
endfacet
facet normal -0.13052619222002 -0.991444861373815 -0.0
  outer loop
    vertex -228.750477583976 377.397168290356 24.4
    vertex -227.456382358464 377.226797421801 28.4
    vertex -228.750477583976 377.397168290356 28.4
  endloop
endfacet
facet normal 0.991444861373814 0.130526192220029 0.0
  outer loop
    vertex -229.206382358464 382.226797421801 24.4
    vertex -229.14675255447 381.773864092871 28.4
    vertex -229.14675255447 381.773864092871 24.4
  endloop
endfacet
facet normal 0.991444861373814 0.130526192220029 0.0
  outer loop
    vertex -229.14675255447 381.773864092871 28.4
    vertex -229.206382358464 382.226797421801 24.4
    vertex -229.206382358464 382.226797421801 28.4
  endloop
endfacet
facet normal 0.99144486137381 -0.130526192220055 0.0
  outer loop
    vertex -222.456382358464 382.226797421801 24.4
    vertex -222.626753227019 380.932702196288 28.4
    vertex -222.626753227019 380.932702196288 24.4
  endloop
endfacet
facet normal 0.99144486137381 -0.130526192220055 0.0
  outer loop
    vertex -222.626753227019 380.932702196288 28.4
    vertex -222.456382358464 382.226797421801 24.4
    vertex -222.456382358464 382.226797421801 28.4
  endloop
endfacet
facet normal -0.99144486137381 -0.130526192220055 -0.0
  outer loop
    vertex -232.456382358464 382.226797421801 28.4
    vertex -232.286011489909 380.932702196288 24.4
    vertex -232.286011489909 380.932702196288 28.4
  endloop
endfacet
facet normal -0.99144486137381 -0.130526192220055 -0.0
  outer loop
    vertex -232.286011489909 380.932702196288 24.4
    vertex -232.456382358464 382.226797421801 28.4
    vertex -232.456382358464 382.226797421801 24.4
  endloop
endfacet
facet normal 0.608761429008733 0.793353340291226 0.0
  outer loop
    vertex -224.956382358464 386.556924440723 28.4
    vertex -223.920848452531 385.762331327734 24.4
    vertex -224.956382358464 386.556924440723 24.4
  endloop
endfacet
facet normal 0.608761429008733 0.793353340291226 0.0
  outer loop
    vertex -223.920848452531 385.762331327734 24.4
    vertex -224.956382358464 386.556924440723 28.4
    vertex -223.920848452531 385.762331327734 28.4
  endloop
endfacet
facet normal -0.130526192220022 0.991444861373814 0.0
  outer loop
    vertex -228.750477583976 387.056426553246 28.4
    vertex -227.456382358464 387.226797421801 24.4
    vertex -228.750477583976 387.056426553246 24.4
  endloop
endfacet
facet normal -0.130526192220022 0.991444861373814 0.0
  outer loop
    vertex -227.456382358464 387.226797421801 24.4
    vertex -228.750477583976 387.056426553246 28.4
    vertex -227.456382358464 387.226797421801 28.4
  endloop
endfacet
facet normal 0.382683432365104 0.923879532511281 0.0
  outer loop
    vertex -228.331382358464 380.711252965178 28.4
    vertex -227.909315687393 380.536427225795 24.4
    vertex -228.331382358464 380.711252965178 24.4
  endloop
endfacet
facet normal 0.382683432365104 0.923879532511281 0.0
  outer loop
    vertex -227.909315687393 380.536427225795 24.4
    vertex -228.331382358464 380.711252965178 28.4
    vertex -227.909315687393 380.536427225795 28.4
  endloop
endfacet
facet normal -0.382683432365104 -0.923879532511281 -0.0
  outer loop
    vertex -226.581382358464 383.742341878424 28.4
    vertex -227.003449029534 383.917167617807 24.4
    vertex -226.581382358464 383.742341878424 24.4
  endloop
endfacet
facet normal -0.382683432365104 -0.923879532511281 -0.0
  outer loop
    vertex -227.003449029534 383.917167617807 24.4
    vertex -226.581382358464 383.742341878424 28.4
    vertex -227.003449029534 383.917167617807 28.4
  endloop
endfacet
facet normal -0.991444861373814 0.130526192220029 0.0
  outer loop
    vertex -225.706382358464 382.226797421801 28.4
    vertex -225.766012162458 381.773864092871 24.4
    vertex -225.766012162458 381.773864092871 28.4
  endloop
endfacet
facet normal -0.991444861373814 0.130526192220029 0.0
  outer loop
    vertex -225.766012162458 381.773864092871 24.4
    vertex -225.706382358464 382.226797421801 28.4
    vertex -225.706382358464 382.226797421801 24.4
  endloop
endfacet
facet normal 0.608761429008717 0.793353340291238 0.0
  outer loop
    vertex -228.69381922554 380.989360554724 28.4
    vertex -228.331382358464 380.711252965178 24.4
    vertex -228.69381922554 380.989360554724 24.4
  endloop
endfacet
facet normal 0.608761429008717 0.793353340291238 0.0
  outer loop
    vertex -228.331382358464 380.711252965178 24.4
    vertex -228.69381922554 380.989360554724 28.4
    vertex -228.331382358464 380.711252965178 28.4
  endloop
endfacet
facet normal -0.793353340291238 0.608761429008717 0.0
  outer loop
    vertex -225.940837901841 381.351797421801 28.4
    vertex -226.218945491387 380.989360554724 24.4
    vertex -226.218945491387 380.989360554724 28.4
  endloop
endfacet
facet normal -0.793353340291238 0.608761429008717 0.0
  outer loop
    vertex -226.218945491387 380.989360554724 24.4
    vertex -225.940837901841 381.351797421801 28.4
    vertex -225.940837901841 381.351797421801 24.4
  endloop
endfacet
facet normal -0.923879532511281 0.382683432365104 0.0
  outer loop
    vertex -225.766012162458 381.773864092871 28.4
    vertex -225.940837901841 381.351797421801 24.4
    vertex -225.940837901841 381.351797421801 28.4
  endloop
endfacet
facet normal -0.923879532511281 0.382683432365104 0.0
  outer loop
    vertex -225.940837901841 381.351797421801 24.4
    vertex -225.766012162458 381.773864092871 28.4
    vertex -225.766012162458 381.773864092871 24.4
  endloop
endfacet
facet normal 0.793353340291238 0.608761429008717 0.0
  outer loop
    vertex -228.971926815087 381.351797421801 24.4
    vertex -228.69381922554 380.989360554724 28.4
    vertex -228.69381922554 380.989360554724 24.4
  endloop
endfacet
facet normal 0.793353340291238 0.608761429008717 0.0
  outer loop
    vertex -228.69381922554 380.989360554724 28.4
    vertex -228.971926815087 381.351797421801 24.4
    vertex -228.971926815087 381.351797421801 28.4
  endloop
endfacet
facet normal -0.923879532511281 -0.382683432365104 -0.0
  outer loop
    vertex -225.940837901841 383.101797421801 28.4
    vertex -225.766012162458 382.67973075073 24.4
    vertex -225.766012162458 382.67973075073 28.4
  endloop
endfacet
facet normal -0.923879532511281 -0.382683432365104 -0.0
  outer loop
    vertex -225.766012162458 382.67973075073 24.4
    vertex -225.940837901841 383.101797421801 28.4
    vertex -225.940837901841 383.101797421801 24.4
  endloop
endfacet
facet normal -0.991444861373814 -0.130526192220029 -0.0
  outer loop
    vertex -225.766012162458 382.67973075073 28.4
    vertex -225.706382358464 382.226797421801 24.4
    vertex -225.706382358464 382.226797421801 28.4
  endloop
endfacet
facet normal -0.991444861373814 -0.130526192220029 -0.0
  outer loop
    vertex -225.706382358464 382.226797421801 24.4
    vertex -225.766012162458 382.67973075073 28.4
    vertex -225.766012162458 382.67973075073 24.4
  endloop
endfacet
facet normal 0.130526192220078 0.991444861373807 0.0
  outer loop
    vertex -227.909315687393 380.536427225795 28.4
    vertex -227.456382358464 380.476797421801 24.4
    vertex -227.909315687393 380.536427225795 24.4
  endloop
endfacet
facet normal 0.130526192220078 0.991444861373807 0.0
  outer loop
    vertex -227.456382358464 380.476797421801 24.4
    vertex -227.909315687393 380.536427225795 28.4
    vertex -227.456382358464 380.476797421801 28.4
  endloop
endfacet
facet normal 0.923879532511281 0.382683432365104 0.0
  outer loop
    vertex -229.14675255447 381.773864092871 24.4
    vertex -228.971926815087 381.351797421801 28.4
    vertex -228.971926815087 381.351797421801 24.4
  endloop
endfacet
facet normal 0.923879532511281 0.382683432365104 0.0
  outer loop
    vertex -228.971926815087 381.351797421801 28.4
    vertex -229.14675255447 381.773864092871 24.4
    vertex -229.14675255447 381.773864092871 28.4
  endloop
endfacet
facet normal -0.130526192220078 -0.991444861373807 -0.0
  outer loop
    vertex -227.003449029534 383.917167617807 28.4
    vertex -227.456382358464 383.976797421801 24.4
    vertex -227.003449029534 383.917167617807 24.4
  endloop
endfacet
facet normal -0.130526192220078 -0.991444861373807 -0.0
  outer loop
    vertex -227.456382358464 383.976797421801 24.4
    vertex -227.003449029534 383.917167617807 28.4
    vertex -227.456382358464 383.976797421801 28.4
  endloop
endfacet
facet normal -0.608761429008741 0.793353340291219 0.0
  outer loop
    vertex -226.581382358464 380.711252965178 28.4
    vertex -226.218945491387 380.989360554724 24.4
    vertex -226.581382358464 380.711252965178 24.4
  endloop
endfacet
facet normal -0.608761429008741 0.793353340291219 0.0
  outer loop
    vertex -226.218945491387 380.989360554724 24.4
    vertex -226.581382358464 380.711252965178 28.4
    vertex -226.218945491387 380.989360554724 28.4
  endloop
endfacet
facet normal -0.608761429008717 -0.793353340291238 -0.0
  outer loop
    vertex -226.218945491387 383.464234288877 28.4
    vertex -226.581382358464 383.742341878424 24.4
    vertex -226.218945491387 383.464234288877 24.4
  endloop
endfacet
facet normal -0.608761429008717 -0.793353340291238 -0.0
  outer loop
    vertex -226.581382358464 383.742341878424 24.4
    vertex -226.218945491387 383.464234288877 28.4
    vertex -226.581382358464 383.742341878424 28.4
  endloop
endfacet
facet normal -0.382683432365086 0.923879532511288 0.0
  outer loop
    vertex -227.003449029534 380.536427225795 28.4
    vertex -226.581382358464 380.711252965178 24.4
    vertex -227.003449029534 380.536427225795 24.4
  endloop
endfacet
facet normal -0.382683432365086 0.923879532511288 0.0
  outer loop
    vertex -226.581382358464 380.711252965178 24.4
    vertex -227.003449029534 380.536427225795 28.4
    vertex -226.581382358464 380.711252965178 28.4
  endloop
endfacet
facet normal -0.130526192220078 0.991444861373807 0.0
  outer loop
    vertex -227.456382358464 380.476797421801 28.4
    vertex -227.003449029534 380.536427225795 24.4
    vertex -227.456382358464 380.476797421801 24.4
  endloop
endfacet
facet normal -0.130526192220078 0.991444861373807 0.0
  outer loop
    vertex -227.003449029534 380.536427225795 24.4
    vertex -227.456382358464 380.476797421801 28.4
    vertex -227.003449029534 380.536427225795 28.4
  endloop
endfacet
facet normal -0.793353340291238 -0.608761429008717 -0.0
  outer loop
    vertex -226.218945491387 383.464234288877 28.4
    vertex -225.940837901841 383.101797421801 24.4
    vertex -225.940837901841 383.101797421801 28.4
  endloop
endfacet
facet normal -0.793353340291238 -0.608761429008717 -0.0
  outer loop
    vertex -225.940837901841 383.101797421801 24.4
    vertex -226.218945491387 383.464234288877 28.4
    vertex -226.218945491387 383.464234288877 24.4
  endloop
endfacet
endsolid Plotter
