solid Default
  facet normal 2.342406e-16 -7.549260e-16 1.000000e+00
    outer loop
      vertex -2.750000e+01 -6.500000e+00 1.000000e+01
      vertex -2.750000e+01 3.500000e+00 1.000000e+01
      vertex -3.050000e+01 -6.500000e+00 1.000000e+01
    endloop
  endfacet
  facet normal 2.342406e-16 -7.549260e-16 1.000000e+00
    outer loop
      vertex -3.050000e+01 3.500000e+00 1.000000e+01
      vertex -3.050000e+01 -6.500000e+00 1.000000e+01
      vertex -2.750000e+01 3.500000e+00 1.000000e+01
    endloop
  endfacet
  facet normal 2.342406e-16 -7.549260e-16 1.000000e+00
    outer loop
      vertex 3.450000e+01 3.500000e+00 1.000000e+01
      vertex 3.450000e+01 6.500000e+00 1.000000e+01
      vertex -2.750000e+01 3.500000e+00 1.000000e+01
    endloop
  endfacet
  facet normal 2.342406e-16 -7.549260e-16 1.000000e+00
    outer loop
      vertex -3.450000e+01 6.500000e+00 1.000000e+01
      vertex -2.750000e+01 3.500000e+00 1.000000e+01
      vertex 3.450000e+01 6.500000e+00 1.000000e+01
    endloop
  endfacet
  facet normal 2.342406e-16 -7.549260e-16 1.000000e+00
    outer loop
      vertex -3.050000e+01 3.500000e+00 1.000000e+01
      vertex -2.750000e+01 3.500000e+00 1.000000e+01
      vertex -3.450000e+01 6.500000e+00 1.000000e+01
    endloop
  endfacet
  facet normal 2.342406e-16 -7.549260e-16 1.000000e+00
    outer loop
      vertex -3.450000e+01 3.500000e+00 1.000000e+01
      vertex -3.050000e+01 3.500000e+00 1.000000e+01
      vertex -3.450000e+01 6.500000e+00 1.000000e+01
    endloop
  endfacet
  facet normal -6.123234e-17 3.749399e-33 -1.000000e+00
    outer loop
      vertex 3.450000e+01 6.500000e+00 0.000000e+00
      vertex 3.450000e+01 3.500000e+00 0.000000e+00
      vertex -3.450000e+01 6.500000e+00 0.000000e+00
    endloop
  endfacet
  facet normal -6.123234e-17 3.749399e-33 -1.000000e+00
    outer loop
      vertex -2.750000e+01 3.500000e+00 0.000000e+00
      vertex -3.450000e+01 6.500000e+00 0.000000e+00
      vertex 3.450000e+01 3.500000e+00 0.000000e+00
    endloop
  endfacet
  facet normal -6.123234e-17 3.749399e-33 -1.000000e+00
    outer loop
      vertex -3.050000e+01 3.500000e+00 0.000000e+00
      vertex -3.450000e+01 6.500000e+00 0.000000e+00
      vertex -2.750000e+01 3.500000e+00 0.000000e+00
    endloop
  endfacet
  facet normal -6.123234e-17 3.749399e-33 -1.000000e+00
    outer loop
      vertex -2.750000e+01 -6.500000e+00 0.000000e+00
      vertex -3.050000e+01 3.500000e+00 0.000000e+00
      vertex -2.750000e+01 3.500000e+00 0.000000e+00
    endloop
  endfacet
  facet normal -6.123234e-17 3.749399e-33 -1.000000e+00
    outer loop
      vertex -3.450000e+01 3.500000e+00 0.000000e+00
      vertex -3.450000e+01 6.500000e+00 0.000000e+00
      vertex -3.050000e+01 3.500000e+00 0.000000e+00
    endloop
  endfacet
  facet normal -6.123234e-17 3.749399e-33 -1.000000e+00
    outer loop
      vertex -3.050000e+01 3.500000e+00 0.000000e+00
      vertex -2.750000e+01 -6.500000e+00 0.000000e+00
      vertex -3.050000e+01 -6.500000e+00 0.000000e+00
    endloop
  endfacet
  facet normal -6.123234e-17 -1.000000e+00 0.000000e+00
    outer loop
      vertex -2.750000e+01 -6.500000e+00 1.000000e+01
      vertex -3.050000e+01 -6.500000e+00 1.000000e+01
      vertex -2.750000e+01 -6.500000e+00 0.000000e+00
    endloop
  endfacet
  facet normal -6.123234e-17 -1.000000e+00 0.000000e+00
    outer loop
      vertex -3.050000e+01 -6.500000e+00 0.000000e+00
      vertex -2.750000e+01 -6.500000e+00 0.000000e+00
      vertex -3.050000e+01 -6.500000e+00 1.000000e+01
    endloop
  endfacet
  facet normal -6.123234e-17 -1.000000e+00 0.000000e+00
    outer loop
      vertex -2.750000e+01 3.500000e+00 1.000000e+01
      vertex 2.950000e+01 3.500000e+00 6.750000e+00
      vertex 3.450000e+01 3.500000e+00 1.000000e+01
    endloop
  endfacet
  facet normal -6.123234e-17 -1.000000e+00 0.000000e+00
    outer loop
      vertex 2.995293e+01 3.500000e+00 6.690369e+00
      vertex 3.450000e+01 3.500000e+00 1.000000e+01
      vertex 2.950000e+01 3.500000e+00 6.750000e+00
    endloop
  endfacet
  facet normal -6.123234e-17 -1.000000e+00 0.000000e+00
    outer loop
      vertex 3.037500e+01 3.500000e+00 6.515545e+00
      vertex 3.450000e+01 3.500000e+00 1.000000e+01
      vertex 2.995293e+01 3.500000e+00 6.690369e+00
    endloop
  endfacet
  facet normal -6.123234e-17 -1.000000e+00 0.000000e+00
    outer loop
      vertex 3.073744e+01 3.500000e+00 6.237438e+00
      vertex 3.450000e+01 3.500000e+00 1.000000e+01
      vertex 3.037500e+01 3.500000e+00 6.515545e+00
    endloop
  endfacet
  facet normal -6.123234e-17 -1.000000e+00 0.000000e+00
    outer loop
      vertex 3.101554e+01 3.500000e+00 5.875000e+00
      vertex 3.450000e+01 3.500000e+00 1.000000e+01
      vertex 3.073744e+01 3.500000e+00 6.237438e+00
    endloop
  endfacet
  facet normal -6.123234e-17 -1.000000e+00 0.000000e+00
    outer loop
      vertex 3.450000e+01 3.500000e+00 0.000000e+00
      vertex 3.450000e+01 3.500000e+00 1.000000e+01
      vertex 3.101554e+01 3.500000e+00 5.875000e+00
    endloop
  endfacet
  facet normal -6.123234e-17 -1.000000e+00 0.000000e+00
    outer loop
      vertex 3.119037e+01 3.500000e+00 5.452934e+00
      vertex 3.450000e+01 3.500000e+00 0.000000e+00
      vertex 3.101554e+01 3.500000e+00 5.875000e+00
    endloop
  endfacet
  facet normal -6.123234e-17 -1.000000e+00 0.000000e+00
    outer loop
      vertex 3.125000e+01 3.500000e+00 5.000000e+00
      vertex 3.450000e+01 3.500000e+00 0.000000e+00
      vertex 3.119037e+01 3.500000e+00 5.452934e+00
    endloop
  endfacet
  facet normal -6.123234e-17 -1.000000e+00 0.000000e+00
    outer loop
      vertex 3.119037e+01 3.500000e+00 4.547066e+00
      vertex 3.450000e+01 3.500000e+00 0.000000e+00
      vertex 3.125000e+01 3.500000e+00 5.000000e+00
    endloop
  endfacet
  facet normal -6.123234e-17 -1.000000e+00 0.000000e+00
    outer loop
      vertex 3.101554e+01 3.500000e+00 4.125000e+00
      vertex 3.450000e+01 3.500000e+00 0.000000e+00
      vertex 3.119037e+01 3.500000e+00 4.547066e+00
    endloop
  endfacet
  facet normal -6.123234e-17 -1.000000e+00 0.000000e+00
    outer loop
      vertex 3.073744e+01 3.500000e+00 3.762562e+00
      vertex 3.450000e+01 3.500000e+00 0.000000e+00
      vertex 3.101554e+01 3.500000e+00 4.125000e+00
    endloop
  endfacet
  facet normal -6.123234e-17 -1.000000e+00 0.000000e+00
    outer loop
      vertex 3.037500e+01 3.500000e+00 3.484455e+00
      vertex 3.450000e+01 3.500000e+00 0.000000e+00
      vertex 3.073744e+01 3.500000e+00 3.762562e+00
    endloop
  endfacet
  facet normal -6.123234e-17 -1.000000e+00 0.000000e+00
    outer loop
      vertex 2.995293e+01 3.500000e+00 3.309631e+00
      vertex 3.450000e+01 3.500000e+00 0.000000e+00
      vertex 3.037500e+01 3.500000e+00 3.484455e+00
    endloop
  endfacet
  facet normal -6.123234e-17 -1.000000e+00 0.000000e+00
    outer loop
      vertex 2.950000e+01 3.500000e+00 3.250000e+00
      vertex 3.450000e+01 3.500000e+00 0.000000e+00
      vertex 2.995293e+01 3.500000e+00 3.309631e+00
    endloop
  endfacet
  facet normal -6.123234e-17 -1.000000e+00 0.000000e+00
    outer loop
      vertex -2.750000e+01 3.500000e+00 1.000000e+01
      vertex -2.750000e+01 3.500000e+00 0.000000e+00
      vertex 2.950000e+01 3.500000e+00 6.750000e+00
    endloop
  endfacet
  facet normal -6.123234e-17 -1.000000e+00 0.000000e+00
    outer loop
      vertex 2.904707e+01 3.500000e+00 6.690369e+00
      vertex 2.950000e+01 3.500000e+00 6.750000e+00
      vertex -2.750000e+01 3.500000e+00 0.000000e+00
    endloop
  endfacet
  facet normal -6.123234e-17 -1.000000e+00 0.000000e+00
    outer loop
      vertex 2.862500e+01 3.500000e+00 6.515545e+00
      vertex 2.904707e+01 3.500000e+00 6.690369e+00
      vertex -2.750000e+01 3.500000e+00 0.000000e+00
    endloop
  endfacet
  facet normal -6.123234e-17 -1.000000e+00 0.000000e+00
    outer loop
      vertex 2.826256e+01 3.500000e+00 6.237438e+00
      vertex 2.862500e+01 3.500000e+00 6.515545e+00
      vertex -2.750000e+01 3.500000e+00 0.000000e+00
    endloop
  endfacet
  facet normal -6.123234e-17 -1.000000e+00 0.000000e+00
    outer loop
      vertex 2.798446e+01 3.500000e+00 5.875000e+00
      vertex 2.826256e+01 3.500000e+00 6.237438e+00
      vertex -2.750000e+01 3.500000e+00 0.000000e+00
    endloop
  endfacet
  facet normal -6.123234e-17 -1.000000e+00 0.000000e+00
    outer loop
      vertex 2.780963e+01 3.500000e+00 5.452934e+00
      vertex 2.798446e+01 3.500000e+00 5.875000e+00
      vertex -2.750000e+01 3.500000e+00 0.000000e+00
    endloop
  endfacet
  facet normal -6.123234e-17 -1.000000e+00 0.000000e+00
    outer loop
      vertex 2.775000e+01 3.500000e+00 5.000000e+00
      vertex 2.780963e+01 3.500000e+00 5.452934e+00
      vertex -2.750000e+01 3.500000e+00 0.000000e+00
    endloop
  endfacet
  facet normal -6.123234e-17 -1.000000e+00 0.000000e+00
    outer loop
      vertex 2.780963e+01 3.500000e+00 4.547066e+00
      vertex 2.775000e+01 3.500000e+00 5.000000e+00
      vertex -2.750000e+01 3.500000e+00 0.000000e+00
    endloop
  endfacet
  facet normal -6.123234e-17 -1.000000e+00 0.000000e+00
    outer loop
      vertex 2.798446e+01 3.500000e+00 4.125000e+00
      vertex 2.780963e+01 3.500000e+00 4.547066e+00
      vertex -2.750000e+01 3.500000e+00 0.000000e+00
    endloop
  endfacet
  facet normal -6.123234e-17 -1.000000e+00 0.000000e+00
    outer loop
      vertex 2.826256e+01 3.500000e+00 3.762562e+00
      vertex 2.798446e+01 3.500000e+00 4.125000e+00
      vertex -2.750000e+01 3.500000e+00 0.000000e+00
    endloop
  endfacet
  facet normal -6.123234e-17 -1.000000e+00 0.000000e+00
    outer loop
      vertex 2.862500e+01 3.500000e+00 3.484455e+00
      vertex 2.826256e+01 3.500000e+00 3.762562e+00
      vertex -2.750000e+01 3.500000e+00 0.000000e+00
    endloop
  endfacet
  facet normal -6.123234e-17 -1.000000e+00 0.000000e+00
    outer loop
      vertex 2.904707e+01 3.500000e+00 3.309631e+00
      vertex 2.862500e+01 3.500000e+00 3.484455e+00
      vertex -2.750000e+01 3.500000e+00 0.000000e+00
    endloop
  endfacet
  facet normal -6.123234e-17 -1.000000e+00 0.000000e+00
    outer loop
      vertex 2.950000e+01 3.500000e+00 3.250000e+00
      vertex 2.904707e+01 3.500000e+00 3.309631e+00
      vertex -2.750000e+01 3.500000e+00 0.000000e+00
    endloop
  endfacet
  facet normal -6.123234e-17 -1.000000e+00 0.000000e+00
    outer loop
      vertex 3.450000e+01 3.500000e+00 0.000000e+00
      vertex 2.950000e+01 3.500000e+00 3.250000e+00
      vertex -2.750000e+01 3.500000e+00 0.000000e+00
    endloop
  endfacet
  facet normal 1.000000e+00 -6.123234e-17 -6.123234e-17
    outer loop
      vertex 3.450000e+01 6.500000e+00 0.000000e+00
      vertex 3.450000e+01 6.500000e+00 1.000000e+01
      vertex 3.450000e+01 3.500000e+00 0.000000e+00
    endloop
  endfacet
  facet normal 1.000000e+00 -6.123234e-17 -6.123234e-17
    outer loop
      vertex 3.450000e+01 3.500000e+00 1.000000e+01
      vertex 3.450000e+01 3.500000e+00 0.000000e+00
      vertex 3.450000e+01 6.500000e+00 1.000000e+01
    endloop
  endfacet
  facet normal 1.000000e+00 -6.123234e-17 -6.123234e-17
    outer loop
      vertex -2.750000e+01 3.500000e+00 1.000000e+01
      vertex -2.750000e+01 1.554489e-02 4.125000e+00
      vertex -2.750000e+01 3.500000e+00 0.000000e+00
    endloop
  endfacet
  facet normal 1.000000e+00 -6.123234e-17 -6.123234e-17
    outer loop
      vertex -2.750000e+01 -2.625618e-01 3.762562e+00
      vertex -2.750000e+01 3.500000e+00 0.000000e+00
      vertex -2.750000e+01 1.554489e-02 4.125000e+00
    endloop
  endfacet
  facet normal 1.000000e+00 -6.123234e-17 -6.123234e-17
    outer loop
      vertex -2.750000e+01 -6.250000e-01 3.484455e+00
      vertex -2.750000e+01 3.500000e+00 0.000000e+00
      vertex -2.750000e+01 -2.625618e-01 3.762562e+00
    endloop
  endfacet
  facet normal 1.000000e+00 -6.123234e-17 -6.123234e-17
    outer loop
      vertex -2.750000e+01 -6.500000e+00 0.000000e+00
      vertex -2.750000e+01 3.500000e+00 0.000000e+00
      vertex -2.750000e+01 -6.250000e-01 3.484455e+00
    endloop
  endfacet
  facet normal 1.000000e+00 -6.123234e-17 -6.123234e-17
    outer loop
      vertex -2.750000e+01 1.903687e-01 4.547066e+00
      vertex -2.750000e+01 1.554489e-02 4.125000e+00
      vertex -2.750000e+01 3.500000e+00 1.000000e+01
    endloop
  endfacet
  facet normal 1.000000e+00 -6.123234e-17 -6.123234e-17
    outer loop
      vertex -2.750000e+01 2.500000e-01 5.000000e+00
      vertex -2.750000e+01 1.903687e-01 4.547066e+00
      vertex -2.750000e+01 3.500000e+00 1.000000e+01
    endloop
  endfacet
  facet normal 1.000000e+00 -6.123234e-17 -6.123234e-17
    outer loop
      vertex -2.750000e+01 -1.047066e+00 3.309631e+00
      vertex -2.750000e+01 -6.500000e+00 0.000000e+00
      vertex -2.750000e+01 -6.250000e-01 3.484455e+00
    endloop
  endfacet
  facet normal 1.000000e+00 -6.123234e-17 -6.123234e-17
    outer loop
      vertex -2.750000e+01 -1.500000e+00 3.250000e+00
      vertex -2.750000e+01 -6.500000e+00 0.000000e+00
      vertex -2.750000e+01 -1.047066e+00 3.309631e+00
    endloop
  endfacet
  facet normal 1.000000e+00 -6.123234e-17 -6.123234e-17
    outer loop
      vertex -2.750000e+01 -1.952934e+00 3.309631e+00
      vertex -2.750000e+01 -6.500000e+00 0.000000e+00
      vertex -2.750000e+01 -1.500000e+00 3.250000e+00
    endloop
  endfacet
  facet normal 1.000000e+00 -6.123234e-17 -6.123234e-17
    outer loop
      vertex -2.750000e+01 -2.375000e+00 3.484455e+00
      vertex -2.750000e+01 -6.500000e+00 0.000000e+00
      vertex -2.750000e+01 -1.952934e+00 3.309631e+00
    endloop
  endfacet
  facet normal 1.000000e+00 -6.123234e-17 -6.123234e-17
    outer loop
      vertex -2.750000e+01 -2.737438e+00 3.762562e+00
      vertex -2.750000e+01 -6.500000e+00 0.000000e+00
      vertex -2.750000e+01 -2.375000e+00 3.484455e+00
    endloop
  endfacet
  facet normal 1.000000e+00 -6.123234e-17 -6.123234e-17
    outer loop
      vertex -2.750000e+01 -3.015545e+00 4.125000e+00
      vertex -2.750000e+01 -6.500000e+00 0.000000e+00
      vertex -2.750000e+01 -2.737438e+00 3.762562e+00
    endloop
  endfacet
  facet normal 1.000000e+00 -6.123234e-17 -6.123234e-17
    outer loop
      vertex -2.750000e+01 -3.190369e+00 4.547066e+00
      vertex -2.750000e+01 -6.500000e+00 0.000000e+00
      vertex -2.750000e+01 -3.015545e+00 4.125000e+00
    endloop
  endfacet
  facet normal 1.000000e+00 -6.123234e-17 -6.123234e-17
    outer loop
      vertex -2.750000e+01 -3.250000e+00 5.000000e+00
      vertex -2.750000e+01 -6.500000e+00 0.000000e+00
      vertex -2.750000e+01 -3.190369e+00 4.547066e+00
    endloop
  endfacet
  facet normal 1.000000e+00 -6.123234e-17 -6.123234e-17
    outer loop
      vertex -2.750000e+01 -6.500000e+00 1.000000e+01
      vertex -2.750000e+01 -6.250000e-01 6.515545e+00
      vertex -2.750000e+01 3.500000e+00 1.000000e+01
    endloop
  endfacet
  facet normal 1.000000e+00 -6.123234e-17 -6.123234e-17
    outer loop
      vertex -2.750000e+01 -2.625618e-01 6.237438e+00
      vertex -2.750000e+01 3.500000e+00 1.000000e+01
      vertex -2.750000e+01 -6.250000e-01 6.515545e+00
    endloop
  endfacet
  facet normal 1.000000e+00 -6.123234e-17 -6.123234e-17
    outer loop
      vertex -2.750000e+01 1.554489e-02 5.875000e+00
      vertex -2.750000e+01 3.500000e+00 1.000000e+01
      vertex -2.750000e+01 -2.625618e-01 6.237438e+00
    endloop
  endfacet
  facet normal 1.000000e+00 -6.123234e-17 -6.123234e-17
    outer loop
      vertex -2.750000e+01 1.903687e-01 5.452934e+00
      vertex -2.750000e+01 3.500000e+00 1.000000e+01
      vertex -2.750000e+01 1.554489e-02 5.875000e+00
    endloop
  endfacet
  facet normal 1.000000e+00 -6.123234e-17 -6.123234e-17
    outer loop
      vertex -2.750000e+01 2.500000e-01 5.000000e+00
      vertex -2.750000e+01 3.500000e+00 1.000000e+01
      vertex -2.750000e+01 1.903687e-01 5.452934e+00
    endloop
  endfacet
  facet normal 1.000000e+00 -6.123234e-17 -6.123234e-17
    outer loop
      vertex -2.750000e+01 -1.047066e+00 6.690369e+00
      vertex -2.750000e+01 -6.250000e-01 6.515545e+00
      vertex -2.750000e+01 -6.500000e+00 1.000000e+01
    endloop
  endfacet
  facet normal 1.000000e+00 -6.123234e-17 -6.123234e-17
    outer loop
      vertex -2.750000e+01 -1.500000e+00 6.750000e+00
      vertex -2.750000e+01 -1.047066e+00 6.690369e+00
      vertex -2.750000e+01 -6.500000e+00 1.000000e+01
    endloop
  endfacet
  facet normal 1.000000e+00 -6.123234e-17 -6.123234e-17
    outer loop
      vertex -2.750000e+01 -1.952934e+00 6.690369e+00
      vertex -2.750000e+01 -1.500000e+00 6.750000e+00
      vertex -2.750000e+01 -6.500000e+00 1.000000e+01
    endloop
  endfacet
  facet normal 1.000000e+00 -6.123234e-17 -6.123234e-17
    outer loop
      vertex -2.750000e+01 -2.375000e+00 6.515545e+00
      vertex -2.750000e+01 -1.952934e+00 6.690369e+00
      vertex -2.750000e+01 -6.500000e+00 1.000000e+01
    endloop
  endfacet
  facet normal 1.000000e+00 -6.123234e-17 -6.123234e-17
    outer loop
      vertex -2.750000e+01 -2.737438e+00 6.237438e+00
      vertex -2.750000e+01 -2.375000e+00 6.515545e+00
      vertex -2.750000e+01 -6.500000e+00 1.000000e+01
    endloop
  endfacet
  facet normal 1.000000e+00 -6.123234e-17 -6.123234e-17
    outer loop
      vertex -2.750000e+01 -3.015545e+00 5.875000e+00
      vertex -2.750000e+01 -2.737438e+00 6.237438e+00
      vertex -2.750000e+01 -6.500000e+00 1.000000e+01
    endloop
  endfacet
  facet normal 1.000000e+00 -6.123234e-17 -6.123234e-17
    outer loop
      vertex -2.750000e+01 -3.190369e+00 5.452934e+00
      vertex -2.750000e+01 -3.015545e+00 5.875000e+00
      vertex -2.750000e+01 -6.500000e+00 1.000000e+01
    endloop
  endfacet
  facet normal 1.000000e+00 -6.123234e-17 -6.123234e-17
    outer loop
      vertex -2.750000e+01 -3.250000e+00 5.000000e+00
      vertex -2.750000e+01 -3.190369e+00 5.452934e+00
      vertex -2.750000e+01 -6.500000e+00 1.000000e+01
    endloop
  endfacet
  facet normal 1.000000e+00 -6.123234e-17 -6.123234e-17
    outer loop
      vertex -2.750000e+01 -6.500000e+00 0.000000e+00
      vertex -2.750000e+01 -3.250000e+00 5.000000e+00
      vertex -2.750000e+01 -6.500000e+00 1.000000e+01
    endloop
  endfacet
  facet normal 8.000390e-17 9.238795e-01 3.826834e-01
    outer loop
      vertex -3.050000e+01 -3.190369e+00 4.547066e+00
      vertex -2.750000e+01 -3.190369e+00 4.547066e+00
      vertex -3.050000e+01 -3.015545e+00 4.125000e+00
    endloop
  endfacet
  facet normal 8.000390e-17 9.238795e-01 3.826834e-01
    outer loop
      vertex -2.750000e+01 -3.015545e+00 4.125000e+00
      vertex -3.050000e+01 -3.015545e+00 4.125000e+00
      vertex -2.750000e+01 -3.190369e+00 4.547066e+00
    endloop
  endfacet
  facet normal -5.271606e-17 -9.914449e-01 1.305262e-01
    outer loop
      vertex -2.750000e+01 2.500000e-01 5.000000e+00
      vertex -3.050000e+01 2.500000e-01 5.000000e+00
      vertex -2.750000e+01 1.903687e-01 4.547066e+00
    endloop
  endfacet
  facet normal -5.271606e-17 -9.914449e-01 1.305262e-01
    outer loop
      vertex -3.050000e+01 1.903687e-01 4.547066e+00
      vertex -2.750000e+01 1.903687e-01 4.547066e+00
      vertex -3.050000e+01 2.500000e-01 5.000000e+00
    endloop
  endfacet
  facet normal 3.313870e-17 -3.826834e-01 9.238795e-01
    outer loop
      vertex -2.750000e+01 -1.047066e+00 3.309631e+00
      vertex -2.750000e+01 -6.250000e-01 3.484455e+00
      vertex -3.050000e+01 -1.047066e+00 3.309631e+00
    endloop
  endfacet
  facet normal 3.313870e-17 -3.826834e-01 9.238795e-01
    outer loop
      vertex -3.050000e+01 -6.250000e-01 3.484455e+00
      vertex -3.050000e+01 -1.047066e+00 3.309631e+00
      vertex -2.750000e+01 -6.250000e-01 3.484455e+00
    endloop
  endfacet
  facet normal 8.000390e-17 3.826834e-01 9.238795e-01
    outer loop
      vertex -2.750000e+01 -2.375000e+00 3.484455e+00
      vertex -2.750000e+01 -1.952934e+00 3.309631e+00
      vertex -3.050000e+01 -2.375000e+00 3.484455e+00
    endloop
  endfacet
  facet normal 8.000390e-17 3.826834e-01 9.238795e-01
    outer loop
      vertex -3.050000e+01 -1.952934e+00 3.309631e+00
      vertex -3.050000e+01 -2.375000e+00 3.484455e+00
      vertex -2.750000e+01 -1.952934e+00 3.309631e+00
    endloop
  endfacet
  facet normal 5.271606e-17 9.914449e-01 -1.305262e-01
    outer loop
      vertex -3.050000e+01 -3.190369e+00 5.452934e+00
      vertex -2.750000e+01 -3.190369e+00 5.452934e+00
      vertex -3.050000e+01 -3.250000e+00 5.000000e+00
    endloop
  endfacet
  facet normal 5.271606e-17 9.914449e-01 -1.305262e-01
    outer loop
      vertex -2.750000e+01 -3.250000e+00 5.000000e+00
      vertex -3.050000e+01 -3.250000e+00 5.000000e+00
      vertex -2.750000e+01 -3.190369e+00 5.452934e+00
    endloop
  endfacet
  facet normal -8.000390e-17 -3.826834e-01 -9.238795e-01
    outer loop
      vertex -2.750000e+01 -6.250000e-01 6.515545e+00
      vertex -2.750000e+01 -1.047066e+00 6.690369e+00
      vertex -3.050000e+01 -6.250000e-01 6.515545e+00
    endloop
  endfacet
  facet normal -8.000390e-17 -3.826834e-01 -9.238795e-01
    outer loop
      vertex -3.050000e+01 -1.047066e+00 6.690369e+00
      vertex -3.050000e+01 -6.250000e-01 6.515545e+00
      vertex -2.750000e+01 -1.047066e+00 6.690369e+00
    endloop
  endfacet
  facet normal -8.585477e-17 -6.087614e-01 -7.933533e-01
    outer loop
      vertex -2.750000e+01 -2.625618e-01 6.237438e+00
      vertex -2.750000e+01 -6.250000e-01 6.515545e+00
      vertex -3.050000e+01 -2.625618e-01 6.237438e+00
    endloop
  endfacet
  facet normal -8.585477e-17 -6.087614e-01 -7.933533e-01
    outer loop
      vertex -3.050000e+01 -6.250000e-01 6.515545e+00
      vertex -3.050000e+01 -2.625618e-01 6.237438e+00
      vertex -2.750000e+01 -6.250000e-01 6.515545e+00
    endloop
  endfacet
  facet normal -8.000390e-17 -9.238795e-01 -3.826834e-01
    outer loop
      vertex -2.750000e+01 1.554489e-02 5.875000e+00
      vertex -3.050000e+01 1.554489e-02 5.875000e+00
      vertex -2.750000e+01 1.903687e-01 5.452934e+00
    endloop
  endfacet
  facet normal -8.000390e-17 -9.238795e-01 -3.826834e-01
    outer loop
      vertex -3.050000e+01 1.903687e-01 5.452934e+00
      vertex -2.750000e+01 1.903687e-01 5.452934e+00
      vertex -3.050000e+01 1.554489e-02 5.875000e+00
    endloop
  endfacet
  facet normal 1.130299e-17 -6.087614e-01 7.933533e-01
    outer loop
      vertex -2.750000e+01 -6.250000e-01 3.484455e+00
      vertex -2.750000e+01 -2.625618e-01 3.762562e+00
      vertex -3.050000e+01 -6.250000e-01 3.484455e+00
    endloop
  endfacet
  facet normal 1.130299e-17 -6.087614e-01 7.933533e-01
    outer loop
      vertex -3.050000e+01 -2.625618e-01 3.762562e+00
      vertex -3.050000e+01 -6.250000e-01 3.484455e+00
      vertex -2.750000e+01 -2.625618e-01 3.762562e+00
    endloop
  endfacet
  facet normal -6.870092e-17 -1.305262e-01 -9.914449e-01
    outer loop
      vertex -2.750000e+01 -1.047066e+00 6.690369e+00
      vertex -2.750000e+01 -1.500000e+00 6.750000e+00
      vertex -3.050000e+01 -1.047066e+00 6.690369e+00
    endloop
  endfacet
  facet normal -6.870092e-17 -1.305262e-01 -9.914449e-01
    outer loop
      vertex -3.050000e+01 -1.500000e+00 6.750000e+00
      vertex -3.050000e+01 -1.047066e+00 6.690369e+00
      vertex -2.750000e+01 -1.500000e+00 6.750000e+00
    endloop
  endfacet
  facet normal 8.585477e-17 6.087614e-01 7.933533e-01
    outer loop
      vertex -2.750000e+01 -2.737438e+00 3.762562e+00
      vertex -2.750000e+01 -2.375000e+00 3.484455e+00
      vertex -3.050000e+01 -2.737438e+00 3.762562e+00
    endloop
  endfacet
  facet normal 8.585477e-17 6.087614e-01 7.933533e-01
    outer loop
      vertex -3.050000e+01 -2.375000e+00 3.484455e+00
      vertex -3.050000e+01 -2.737438e+00 3.762562e+00
      vertex -2.750000e+01 -2.375000e+00 3.484455e+00
    endloop
  endfacet
  facet normal 6.870092e-17 9.914449e-01 1.305262e-01
    outer loop
      vertex -3.050000e+01 -3.250000e+00 5.000000e+00
      vertex -2.750000e+01 -3.250000e+00 5.000000e+00
      vertex -3.050000e+01 -3.190369e+00 4.547066e+00
    endloop
  endfacet
  facet normal 6.870092e-17 9.914449e-01 1.305262e-01
    outer loop
      vertex -2.750000e+01 -3.190369e+00 4.547066e+00
      vertex -3.050000e+01 -3.190369e+00 4.547066e+00
      vertex -2.750000e+01 -3.250000e+00 5.000000e+00
    endloop
  endfacet
  facet normal 3.313870e-17 9.238795e-01 -3.826834e-01
    outer loop
      vertex -3.050000e+01 -3.015545e+00 5.875000e+00
      vertex -2.750000e+01 -3.015545e+00 5.875000e+00
      vertex -3.050000e+01 -3.190369e+00 5.452934e+00
    endloop
  endfacet
  facet normal 3.313870e-17 9.238795e-01 -3.826834e-01
    outer loop
      vertex -2.750000e+01 -3.190369e+00 5.452934e+00
      vertex -3.050000e+01 -3.190369e+00 5.452934e+00
      vertex -2.750000e+01 -3.015545e+00 5.875000e+00
    endloop
  endfacet
  facet normal -1.130299e-17 6.087614e-01 -7.933533e-01
    outer loop
      vertex -2.750000e+01 -2.375000e+00 6.515545e+00
      vertex -2.750000e+01 -2.737438e+00 6.237438e+00
      vertex -3.050000e+01 -2.375000e+00 6.515545e+00
    endloop
  endfacet
  facet normal -1.130299e-17 6.087614e-01 -7.933533e-01
    outer loop
      vertex -3.050000e+01 -2.737438e+00 6.237438e+00
      vertex -3.050000e+01 -2.375000e+00 6.515545e+00
      vertex -2.750000e+01 -2.737438e+00 6.237438e+00
    endloop
  endfacet
  facet normal -1.130299e-17 -7.933533e-01 6.087614e-01
    outer loop
      vertex -2.750000e+01 1.554489e-02 4.125000e+00
      vertex -3.050000e+01 1.554489e-02 4.125000e+00
      vertex -2.750000e+01 -2.625618e-01 3.762562e+00
    endloop
  endfacet
  facet normal -1.130299e-17 -7.933533e-01 6.087614e-01
    outer loop
      vertex -3.050000e+01 -2.625618e-01 3.762562e+00
      vertex -2.750000e+01 -2.625618e-01 3.762562e+00
      vertex -3.050000e+01 1.554489e-02 4.125000e+00
    endloop
  endfacet
  facet normal -5.271606e-17 1.305262e-01 -9.914449e-01
    outer loop
      vertex -2.750000e+01 -1.500000e+00 6.750000e+00
      vertex -2.750000e+01 -1.952934e+00 6.690369e+00
      vertex -3.050000e+01 -1.500000e+00 6.750000e+00
    endloop
  endfacet
  facet normal -5.271606e-17 1.305262e-01 -9.914449e-01
    outer loop
      vertex -3.050000e+01 -1.952934e+00 6.690369e+00
      vertex -3.050000e+01 -1.500000e+00 6.750000e+00
      vertex -2.750000e+01 -1.952934e+00 6.690369e+00
    endloop
  endfacet
  facet normal 1.130299e-17 7.933533e-01 -6.087614e-01
    outer loop
      vertex -3.050000e+01 -2.737438e+00 6.237438e+00
      vertex -2.750000e+01 -2.737438e+00 6.237438e+00
      vertex -3.050000e+01 -3.015545e+00 5.875000e+00
    endloop
  endfacet
  facet normal 1.130299e-17 7.933533e-01 -6.087614e-01
    outer loop
      vertex -2.750000e+01 -3.015545e+00 5.875000e+00
      vertex -3.050000e+01 -3.015545e+00 5.875000e+00
      vertex -2.750000e+01 -2.737438e+00 6.237438e+00
    endloop
  endfacet
  facet normal -3.313870e-17 3.826834e-01 -9.238795e-01
    outer loop
      vertex -2.750000e+01 -1.952934e+00 6.690369e+00
      vertex -2.750000e+01 -2.375000e+00 6.515545e+00
      vertex -3.050000e+01 -1.952934e+00 6.690369e+00
    endloop
  endfacet
  facet normal -3.313870e-17 3.826834e-01 -9.238795e-01
    outer loop
      vertex -3.050000e+01 -2.375000e+00 6.515545e+00
      vertex -3.050000e+01 -1.952934e+00 6.690369e+00
      vertex -2.750000e+01 -2.375000e+00 6.515545e+00
    endloop
  endfacet
  facet normal 5.271606e-17 -1.305262e-01 9.914449e-01
    outer loop
      vertex -2.750000e+01 -1.500000e+00 3.250000e+00
      vertex -2.750000e+01 -1.047066e+00 3.309631e+00
      vertex -3.050000e+01 -1.500000e+00 3.250000e+00
    endloop
  endfacet
  facet normal 5.271606e-17 -1.305262e-01 9.914449e-01
    outer loop
      vertex -3.050000e+01 -1.047066e+00 3.309631e+00
      vertex -3.050000e+01 -1.500000e+00 3.250000e+00
      vertex -2.750000e+01 -1.047066e+00 3.309631e+00
    endloop
  endfacet
  facet normal -8.585477e-17 -7.933533e-01 -6.087614e-01
    outer loop
      vertex -2.750000e+01 -2.625618e-01 6.237438e+00
      vertex -3.050000e+01 -2.625618e-01 6.237438e+00
      vertex -2.750000e+01 1.554489e-02 5.875000e+00
    endloop
  endfacet
  facet normal -8.585477e-17 -7.933533e-01 -6.087614e-01
    outer loop
      vertex -3.050000e+01 1.554489e-02 5.875000e+00
      vertex -2.750000e+01 1.554489e-02 5.875000e+00
      vertex -3.050000e+01 -2.625618e-01 6.237438e+00
    endloop
  endfacet
  facet normal -6.870092e-17 -9.914449e-01 -1.305262e-01
    outer loop
      vertex -2.750000e+01 1.903687e-01 5.452934e+00
      vertex -3.050000e+01 1.903687e-01 5.452934e+00
      vertex -2.750000e+01 2.500000e-01 5.000000e+00
    endloop
  endfacet
  facet normal -6.870092e-17 -9.914449e-01 -1.305262e-01
    outer loop
      vertex -3.050000e+01 2.500000e-01 5.000000e+00
      vertex -2.750000e+01 2.500000e-01 5.000000e+00
      vertex -3.050000e+01 1.903687e-01 5.452934e+00
    endloop
  endfacet
  facet normal -3.313870e-17 -9.238795e-01 3.826834e-01
    outer loop
      vertex -2.750000e+01 1.903687e-01 4.547066e+00
      vertex -3.050000e+01 1.903687e-01 4.547066e+00
      vertex -2.750000e+01 1.554489e-02 4.125000e+00
    endloop
  endfacet
  facet normal -3.313870e-17 -9.238795e-01 3.826834e-01
    outer loop
      vertex -3.050000e+01 1.554489e-02 4.125000e+00
      vertex -2.750000e+01 1.554489e-02 4.125000e+00
      vertex -3.050000e+01 1.903687e-01 4.547066e+00
    endloop
  endfacet
  facet normal 6.870092e-17 1.305262e-01 9.914449e-01
    outer loop
      vertex -2.750000e+01 -1.952934e+00 3.309631e+00
      vertex -2.750000e+01 -1.500000e+00 3.250000e+00
      vertex -3.050000e+01 -1.952934e+00 3.309631e+00
    endloop
  endfacet
  facet normal 6.870092e-17 1.305262e-01 9.914449e-01
    outer loop
      vertex -3.050000e+01 -1.500000e+00 3.250000e+00
      vertex -3.050000e+01 -1.952934e+00 3.309631e+00
      vertex -2.750000e+01 -1.500000e+00 3.250000e+00
    endloop
  endfacet
  facet normal 8.585477e-17 7.933533e-01 6.087614e-01
    outer loop
      vertex -3.050000e+01 -3.015545e+00 4.125000e+00
      vertex -2.750000e+01 -3.015545e+00 4.125000e+00
      vertex -3.050000e+01 -2.737438e+00 3.762562e+00
    endloop
  endfacet
  facet normal 8.585477e-17 7.933533e-01 6.087614e-01
    outer loop
      vertex -2.750000e+01 -2.737438e+00 3.762562e+00
      vertex -3.050000e+01 -2.737438e+00 3.762562e+00
      vertex -2.750000e+01 -3.015545e+00 4.125000e+00
    endloop
  endfacet
  facet normal -1.000000e+00 -5.714059e-15 6.387615e-16
    outer loop
      vertex -3.450000e+01 6.500000e+00 1.000000e+01
      vertex -3.450000e+01 6.500000e+00 0.000000e+00
      vertex -3.450000e+01 3.500000e+00 1.000000e+01
    endloop
  endfacet
  facet normal -1.000000e+00 -5.714059e-15 6.387615e-16
    outer loop
      vertex -3.450000e+01 3.500000e+00 0.000000e+00
      vertex -3.450000e+01 3.500000e+00 1.000000e+01
      vertex -3.450000e+01 6.500000e+00 0.000000e+00
    endloop
  endfacet
  facet normal 2.826413e-15 -1.000000e+00 1.155058e-15
    outer loop
      vertex -3.050000e+01 3.500000e+00 1.000000e+01
      vertex -3.450000e+01 3.500000e+00 1.000000e+01
      vertex -3.050000e+01 3.500000e+00 0.000000e+00
    endloop
  endfacet
  facet normal 2.826413e-15 -1.000000e+00 1.155058e-15
    outer loop
      vertex -3.450000e+01 3.500000e+00 0.000000e+00
      vertex -3.050000e+01 3.500000e+00 0.000000e+00
      vertex -3.450000e+01 3.500000e+00 1.000000e+01
    endloop
  endfacet
  facet normal -1.000000e+00 1.216291e-15 1.216291e-15
    outer loop
      vertex -3.050000e+01 3.500000e+00 0.000000e+00
      vertex -3.050000e+01 1.554489e-02 5.875000e+00
      vertex -3.050000e+01 3.500000e+00 1.000000e+01
    endloop
  endfacet
  facet normal -1.000000e+00 1.216291e-15 1.216291e-15
    outer loop
      vertex -3.050000e+01 -2.625618e-01 6.237438e+00
      vertex -3.050000e+01 3.500000e+00 1.000000e+01
      vertex -3.050000e+01 1.554489e-02 5.875000e+00
    endloop
  endfacet
  facet normal -1.000000e+00 1.216291e-15 1.216291e-15
    outer loop
      vertex -3.050000e+01 -6.250000e-01 6.515545e+00
      vertex -3.050000e+01 3.500000e+00 1.000000e+01
      vertex -3.050000e+01 -2.625618e-01 6.237438e+00
    endloop
  endfacet
  facet normal -1.000000e+00 1.216291e-15 1.216291e-15
    outer loop
      vertex -3.050000e+01 -6.500000e+00 1.000000e+01
      vertex -3.050000e+01 3.500000e+00 1.000000e+01
      vertex -3.050000e+01 -6.250000e-01 6.515545e+00
    endloop
  endfacet
  facet normal -1.000000e+00 1.216291e-15 1.216291e-15
    outer loop
      vertex -3.050000e+01 1.903687e-01 5.452934e+00
      vertex -3.050000e+01 1.554489e-02 5.875000e+00
      vertex -3.050000e+01 3.500000e+00 0.000000e+00
    endloop
  endfacet
  facet normal -1.000000e+00 1.216291e-15 1.216291e-15
    outer loop
      vertex -3.050000e+01 2.500000e-01 5.000000e+00
      vertex -3.050000e+01 1.903687e-01 5.452934e+00
      vertex -3.050000e+01 3.500000e+00 0.000000e+00
    endloop
  endfacet
  facet normal -1.000000e+00 1.216291e-15 1.216291e-15
    outer loop
      vertex -3.050000e+01 -1.047066e+00 6.690369e+00
      vertex -3.050000e+01 -6.500000e+00 1.000000e+01
      vertex -3.050000e+01 -6.250000e-01 6.515545e+00
    endloop
  endfacet
  facet normal -1.000000e+00 1.216291e-15 1.216291e-15
    outer loop
      vertex -3.050000e+01 -1.500000e+00 6.750000e+00
      vertex -3.050000e+01 -6.500000e+00 1.000000e+01
      vertex -3.050000e+01 -1.047066e+00 6.690369e+00
    endloop
  endfacet
  facet normal -1.000000e+00 1.216291e-15 1.216291e-15
    outer loop
      vertex -3.050000e+01 -1.952934e+00 6.690369e+00
      vertex -3.050000e+01 -6.500000e+00 1.000000e+01
      vertex -3.050000e+01 -1.500000e+00 6.750000e+00
    endloop
  endfacet
  facet normal -1.000000e+00 1.216291e-15 1.216291e-15
    outer loop
      vertex -3.050000e+01 -2.375000e+00 6.515545e+00
      vertex -3.050000e+01 -6.500000e+00 1.000000e+01
      vertex -3.050000e+01 -1.952934e+00 6.690369e+00
    endloop
  endfacet
  facet normal -1.000000e+00 1.216291e-15 1.216291e-15
    outer loop
      vertex -3.050000e+01 -2.737438e+00 6.237438e+00
      vertex -3.050000e+01 -6.500000e+00 1.000000e+01
      vertex -3.050000e+01 -2.375000e+00 6.515545e+00
    endloop
  endfacet
  facet normal -1.000000e+00 1.216291e-15 1.216291e-15
    outer loop
      vertex -3.050000e+01 -3.015545e+00 5.875000e+00
      vertex -3.050000e+01 -6.500000e+00 1.000000e+01
      vertex -3.050000e+01 -2.737438e+00 6.237438e+00
    endloop
  endfacet
  facet normal -1.000000e+00 1.216291e-15 1.216291e-15
    outer loop
      vertex -3.050000e+01 -3.190369e+00 5.452934e+00
      vertex -3.050000e+01 -6.500000e+00 1.000000e+01
      vertex -3.050000e+01 -3.015545e+00 5.875000e+00
    endloop
  endfacet
  facet normal -1.000000e+00 1.216291e-15 1.216291e-15
    outer loop
      vertex -3.050000e+01 -3.250000e+00 5.000000e+00
      vertex -3.050000e+01 -6.500000e+00 1.000000e+01
      vertex -3.050000e+01 -3.190369e+00 5.452934e+00
    endloop
  endfacet
  facet normal -1.000000e+00 1.216291e-15 1.216291e-15
    outer loop
      vertex -3.050000e+01 -6.500000e+00 0.000000e+00
      vertex -3.050000e+01 -6.250000e-01 3.484455e+00
      vertex -3.050000e+01 3.500000e+00 0.000000e+00
    endloop
  endfacet
  facet normal -1.000000e+00 1.216291e-15 1.216291e-15
    outer loop
      vertex -3.050000e+01 -2.625618e-01 3.762562e+00
      vertex -3.050000e+01 3.500000e+00 0.000000e+00
      vertex -3.050000e+01 -6.250000e-01 3.484455e+00
    endloop
  endfacet
  facet normal -1.000000e+00 1.216291e-15 1.216291e-15
    outer loop
      vertex -3.050000e+01 1.554489e-02 4.125000e+00
      vertex -3.050000e+01 3.500000e+00 0.000000e+00
      vertex -3.050000e+01 -2.625618e-01 3.762562e+00
    endloop
  endfacet
  facet normal -1.000000e+00 1.216291e-15 1.216291e-15
    outer loop
      vertex -3.050000e+01 1.903687e-01 4.547066e+00
      vertex -3.050000e+01 3.500000e+00 0.000000e+00
      vertex -3.050000e+01 1.554489e-02 4.125000e+00
    endloop
  endfacet
  facet normal -1.000000e+00 1.216291e-15 1.216291e-15
    outer loop
      vertex -3.050000e+01 2.500000e-01 5.000000e+00
      vertex -3.050000e+01 3.500000e+00 0.000000e+00
      vertex -3.050000e+01 1.903687e-01 4.547066e+00
    endloop
  endfacet
  facet normal -1.000000e+00 1.216291e-15 1.216291e-15
    outer loop
      vertex -3.050000e+01 -1.047066e+00 3.309631e+00
      vertex -3.050000e+01 -6.250000e-01 3.484455e+00
      vertex -3.050000e+01 -6.500000e+00 0.000000e+00
    endloop
  endfacet
  facet normal -1.000000e+00 1.216291e-15 1.216291e-15
    outer loop
      vertex -3.050000e+01 -1.500000e+00 3.250000e+00
      vertex -3.050000e+01 -1.047066e+00 3.309631e+00
      vertex -3.050000e+01 -6.500000e+00 0.000000e+00
    endloop
  endfacet
  facet normal -1.000000e+00 1.216291e-15 1.216291e-15
    outer loop
      vertex -3.050000e+01 -1.952934e+00 3.309631e+00
      vertex -3.050000e+01 -1.500000e+00 3.250000e+00
      vertex -3.050000e+01 -6.500000e+00 0.000000e+00
    endloop
  endfacet
  facet normal -1.000000e+00 1.216291e-15 1.216291e-15
    outer loop
      vertex -3.050000e+01 -2.375000e+00 3.484455e+00
      vertex -3.050000e+01 -1.952934e+00 3.309631e+00
      vertex -3.050000e+01 -6.500000e+00 0.000000e+00
    endloop
  endfacet
  facet normal -1.000000e+00 1.216291e-15 1.216291e-15
    outer loop
      vertex -3.050000e+01 -2.737438e+00 3.762562e+00
      vertex -3.050000e+01 -2.375000e+00 3.484455e+00
      vertex -3.050000e+01 -6.500000e+00 0.000000e+00
    endloop
  endfacet
  facet normal -1.000000e+00 1.216291e-15 1.216291e-15
    outer loop
      vertex -3.050000e+01 -3.015545e+00 4.125000e+00
      vertex -3.050000e+01 -2.737438e+00 3.762562e+00
      vertex -3.050000e+01 -6.500000e+00 0.000000e+00
    endloop
  endfacet
  facet normal -1.000000e+00 1.216291e-15 1.216291e-15
    outer loop
      vertex -3.050000e+01 -3.190369e+00 4.547066e+00
      vertex -3.050000e+01 -3.015545e+00 4.125000e+00
      vertex -3.050000e+01 -6.500000e+00 0.000000e+00
    endloop
  endfacet
  facet normal -1.000000e+00 1.216291e-15 1.216291e-15
    outer loop
      vertex -3.050000e+01 -3.250000e+00 5.000000e+00
      vertex -3.050000e+01 -3.190369e+00 4.547066e+00
      vertex -3.050000e+01 -6.500000e+00 0.000000e+00
    endloop
  endfacet
  facet normal -1.000000e+00 1.216291e-15 1.216291e-15
    outer loop
      vertex -3.050000e+01 -6.500000e+00 1.000000e+01
      vertex -3.050000e+01 -3.250000e+00 5.000000e+00
      vertex -3.050000e+01 -6.500000e+00 0.000000e+00
    endloop
  endfacet
  facet normal -1.061674e-16 1.000000e+00 1.025028e-32
    outer loop
      vertex -3.450000e+01 6.500000e+00 1.000000e+01
      vertex 3.450000e+01 6.500000e+00 1.000000e+01
      vertex -3.450000e+01 6.500000e+00 0.000000e+00
    endloop
  endfacet
  facet normal -1.061674e-16 1.000000e+00 1.025028e-32
    outer loop
      vertex 2.950000e+01 6.500000e+00 6.750000e+00
      vertex -3.450000e+01 6.500000e+00 0.000000e+00
      vertex 3.450000e+01 6.500000e+00 1.000000e+01
    endloop
  endfacet
  facet normal -1.061674e-16 1.000000e+00 1.025028e-32
    outer loop
      vertex 2.904707e+01 6.500000e+00 6.690369e+00
      vertex -3.450000e+01 6.500000e+00 0.000000e+00
      vertex 2.950000e+01 6.500000e+00 6.750000e+00
    endloop
  endfacet
  facet normal -1.061674e-16 1.000000e+00 1.025028e-32
    outer loop
      vertex 2.862500e+01 6.500000e+00 6.515545e+00
      vertex -3.450000e+01 6.500000e+00 0.000000e+00
      vertex 2.904707e+01 6.500000e+00 6.690369e+00
    endloop
  endfacet
  facet normal -1.061674e-16 1.000000e+00 1.025028e-32
    outer loop
      vertex 2.826256e+01 6.500000e+00 6.237438e+00
      vertex -3.450000e+01 6.500000e+00 0.000000e+00
      vertex 2.862500e+01 6.500000e+00 6.515545e+00
    endloop
  endfacet
  facet normal -1.061674e-16 1.000000e+00 1.025028e-32
    outer loop
      vertex 2.798446e+01 6.500000e+00 5.875000e+00
      vertex -3.450000e+01 6.500000e+00 0.000000e+00
      vertex 2.826256e+01 6.500000e+00 6.237438e+00
    endloop
  endfacet
  facet normal -1.061674e-16 1.000000e+00 1.025028e-32
    outer loop
      vertex 2.780963e+01 6.500000e+00 5.452934e+00
      vertex -3.450000e+01 6.500000e+00 0.000000e+00
      vertex 2.798446e+01 6.500000e+00 5.875000e+00
    endloop
  endfacet
  facet normal -1.061674e-16 1.000000e+00 1.025028e-32
    outer loop
      vertex 2.775000e+01 6.500000e+00 5.000000e+00
      vertex -3.450000e+01 6.500000e+00 0.000000e+00
      vertex 2.780963e+01 6.500000e+00 5.452934e+00
    endloop
  endfacet
  facet normal -1.061674e-16 1.000000e+00 1.025028e-32
    outer loop
      vertex 2.780963e+01 6.500000e+00 4.547066e+00
      vertex -3.450000e+01 6.500000e+00 0.000000e+00
      vertex 2.775000e+01 6.500000e+00 5.000000e+00
    endloop
  endfacet
  facet normal -1.061674e-16 1.000000e+00 1.025028e-32
    outer loop
      vertex 2.798446e+01 6.500000e+00 4.125000e+00
      vertex -3.450000e+01 6.500000e+00 0.000000e+00
      vertex 2.780963e+01 6.500000e+00 4.547066e+00
    endloop
  endfacet
  facet normal -1.061674e-16 1.000000e+00 1.025028e-32
    outer loop
      vertex 2.826256e+01 6.500000e+00 3.762562e+00
      vertex -3.450000e+01 6.500000e+00 0.000000e+00
      vertex 2.798446e+01 6.500000e+00 4.125000e+00
    endloop
  endfacet
  facet normal -1.061674e-16 1.000000e+00 1.025028e-32
    outer loop
      vertex 2.862500e+01 6.500000e+00 3.484455e+00
      vertex -3.450000e+01 6.500000e+00 0.000000e+00
      vertex 2.826256e+01 6.500000e+00 3.762562e+00
    endloop
  endfacet
  facet normal -1.061674e-16 1.000000e+00 1.025028e-32
    outer loop
      vertex 2.904707e+01 6.500000e+00 3.309631e+00
      vertex -3.450000e+01 6.500000e+00 0.000000e+00
      vertex 2.862500e+01 6.500000e+00 3.484455e+00
    endloop
  endfacet
  facet normal -1.061674e-16 1.000000e+00 1.025028e-32
    outer loop
      vertex 2.950000e+01 6.500000e+00 3.250000e+00
      vertex -3.450000e+01 6.500000e+00 0.000000e+00
      vertex 2.904707e+01 6.500000e+00 3.309631e+00
    endloop
  endfacet
  facet normal -1.061674e-16 1.000000e+00 1.025028e-32
    outer loop
      vertex 3.450000e+01 6.500000e+00 0.000000e+00
      vertex 3.101554e+01 6.500000e+00 5.875000e+00
      vertex 3.450000e+01 6.500000e+00 1.000000e+01
    endloop
  endfacet
  facet normal -1.061674e-16 1.000000e+00 1.025028e-32
    outer loop
      vertex 3.073744e+01 6.500000e+00 6.237438e+00
      vertex 3.450000e+01 6.500000e+00 1.000000e+01
      vertex 3.101554e+01 6.500000e+00 5.875000e+00
    endloop
  endfacet
  facet normal -1.061674e-16 1.000000e+00 1.025028e-32
    outer loop
      vertex 3.037500e+01 6.500000e+00 6.515545e+00
      vertex 3.450000e+01 6.500000e+00 1.000000e+01
      vertex 3.073744e+01 6.500000e+00 6.237438e+00
    endloop
  endfacet
  facet normal -1.061674e-16 1.000000e+00 1.025028e-32
    outer loop
      vertex 2.995293e+01 6.500000e+00 6.690369e+00
      vertex 3.450000e+01 6.500000e+00 1.000000e+01
      vertex 3.037500e+01 6.500000e+00 6.515545e+00
    endloop
  endfacet
  facet normal -1.061674e-16 1.000000e+00 1.025028e-32
    outer loop
      vertex 2.950000e+01 6.500000e+00 6.750000e+00
      vertex 3.450000e+01 6.500000e+00 1.000000e+01
      vertex 2.995293e+01 6.500000e+00 6.690369e+00
    endloop
  endfacet
  facet normal -1.061674e-16 1.000000e+00 1.025028e-32
    outer loop
      vertex 3.119037e+01 6.500000e+00 5.452934e+00
      vertex 3.101554e+01 6.500000e+00 5.875000e+00
      vertex 3.450000e+01 6.500000e+00 0.000000e+00
    endloop
  endfacet
  facet normal -1.061674e-16 1.000000e+00 1.025028e-32
    outer loop
      vertex 3.125000e+01 6.500000e+00 5.000000e+00
      vertex 3.119037e+01 6.500000e+00 5.452934e+00
      vertex 3.450000e+01 6.500000e+00 0.000000e+00
    endloop
  endfacet
  facet normal -1.061674e-16 1.000000e+00 1.025028e-32
    outer loop
      vertex 3.119037e+01 6.500000e+00 4.547066e+00
      vertex 3.125000e+01 6.500000e+00 5.000000e+00
      vertex 3.450000e+01 6.500000e+00 0.000000e+00
    endloop
  endfacet
  facet normal -1.061674e-16 1.000000e+00 1.025028e-32
    outer loop
      vertex 3.101554e+01 6.500000e+00 4.125000e+00
      vertex 3.119037e+01 6.500000e+00 4.547066e+00
      vertex 3.450000e+01 6.500000e+00 0.000000e+00
    endloop
  endfacet
  facet normal -1.061674e-16 1.000000e+00 1.025028e-32
    outer loop
      vertex 3.073744e+01 6.500000e+00 3.762562e+00
      vertex 3.101554e+01 6.500000e+00 4.125000e+00
      vertex 3.450000e+01 6.500000e+00 0.000000e+00
    endloop
  endfacet
  facet normal -1.061674e-16 1.000000e+00 1.025028e-32
    outer loop
      vertex 3.037500e+01 6.500000e+00 3.484455e+00
      vertex 3.073744e+01 6.500000e+00 3.762562e+00
      vertex 3.450000e+01 6.500000e+00 0.000000e+00
    endloop
  endfacet
  facet normal -1.061674e-16 1.000000e+00 1.025028e-32
    outer loop
      vertex 2.995293e+01 6.500000e+00 3.309631e+00
      vertex 3.037500e+01 6.500000e+00 3.484455e+00
      vertex 3.450000e+01 6.500000e+00 0.000000e+00
    endloop
  endfacet
  facet normal -1.061674e-16 1.000000e+00 1.025028e-32
    outer loop
      vertex 2.950000e+01 6.500000e+00 3.250000e+00
      vertex 2.995293e+01 6.500000e+00 3.309631e+00
      vertex 3.450000e+01 6.500000e+00 0.000000e+00
    endloop
  endfacet
  facet normal -1.061674e-16 1.000000e+00 1.025028e-32
    outer loop
      vertex -3.450000e+01 6.500000e+00 0.000000e+00
      vertex 2.950000e+01 6.500000e+00 3.250000e+00
      vertex 3.450000e+01 6.500000e+00 0.000000e+00
    endloop
  endfacet
  facet normal -6.087614e-01 3.303954e-15 -7.933533e-01
    outer loop
      vertex 3.073744e+01 6.500000e+00 6.237438e+00
      vertex 3.073744e+01 3.500000e+00 6.237438e+00
      vertex 3.037500e+01 6.500000e+00 6.515545e+00
    endloop
  endfacet
  facet normal -6.087614e-01 3.303954e-15 -7.933533e-01
    outer loop
      vertex 3.037500e+01 3.500000e+00 6.515545e+00
      vertex 3.037500e+01 6.500000e+00 6.515545e+00
      vertex 3.073744e+01 3.500000e+00 6.237438e+00
    endloop
  endfacet
  facet normal -7.933533e-01 7.580399e-15 -6.087614e-01
    outer loop
      vertex 3.101554e+01 6.500000e+00 5.875000e+00
      vertex 3.101554e+01 3.500000e+00 5.875000e+00
      vertex 3.073744e+01 6.500000e+00 6.237438e+00
    endloop
  endfacet
  facet normal -7.933533e-01 7.580399e-15 -6.087614e-01
    outer loop
      vertex 3.073744e+01 3.500000e+00 6.237438e+00
      vertex 3.073744e+01 6.500000e+00 6.237438e+00
      vertex 3.101554e+01 3.500000e+00 5.875000e+00
    endloop
  endfacet
  facet normal -9.238795e-01 1.133655e-14 -3.826834e-01
    outer loop
      vertex 3.101554e+01 6.500000e+00 5.875000e+00
      vertex 3.119037e+01 6.500000e+00 5.452934e+00
      vertex 3.101554e+01 3.500000e+00 5.875000e+00
    endloop
  endfacet
  facet normal -9.238795e-01 1.133655e-14 -3.826834e-01
    outer loop
      vertex 3.119037e+01 3.500000e+00 5.452934e+00
      vertex 3.101554e+01 3.500000e+00 5.875000e+00
      vertex 3.119037e+01 6.500000e+00 5.452934e+00
    endloop
  endfacet
  facet normal -9.914449e-01 1.432316e-14 -1.305262e-01
    outer loop
      vertex 3.119037e+01 6.500000e+00 5.452934e+00
      vertex 3.125000e+01 6.500000e+00 5.000000e+00
      vertex 3.119037e+01 3.500000e+00 5.452934e+00
    endloop
  endfacet
  facet normal -9.914449e-01 1.432316e-14 -1.305262e-01
    outer loop
      vertex 3.125000e+01 3.500000e+00 5.000000e+00
      vertex 3.119037e+01 3.500000e+00 5.452934e+00
      vertex 3.125000e+01 6.500000e+00 5.000000e+00
    endloop
  endfacet
  facet normal -9.914449e-01 1.633361e-14 1.305262e-01
    outer loop
      vertex 3.119037e+01 6.500000e+00 4.547066e+00
      vertex 3.119037e+01 3.500000e+00 4.547066e+00
      vertex 3.125000e+01 6.500000e+00 5.000000e+00
    endloop
  endfacet
  facet normal -9.914449e-01 1.633361e-14 1.305262e-01
    outer loop
      vertex 3.125000e+01 3.500000e+00 5.000000e+00
      vertex 3.125000e+01 6.500000e+00 5.000000e+00
      vertex 3.119037e+01 3.500000e+00 4.547066e+00
    endloop
  endfacet
  facet normal -9.238795e-01 1.722935e-14 3.826834e-01
    outer loop
      vertex 3.101554e+01 6.500000e+00 4.125000e+00
      vertex 3.101554e+01 3.500000e+00 4.125000e+00
      vertex 3.119037e+01 6.500000e+00 4.547066e+00
    endloop
  endfacet
  facet normal -9.238795e-01 1.722935e-14 3.826834e-01
    outer loop
      vertex 3.119037e+01 3.500000e+00 4.547066e+00
      vertex 3.119037e+01 6.500000e+00 4.547066e+00
      vertex 3.101554e+01 3.500000e+00 4.125000e+00
    endloop
  endfacet
  facet normal -7.933533e-01 1.695697e-14 6.087614e-01
    outer loop
      vertex 3.101554e+01 6.500000e+00 4.125000e+00
      vertex 3.073744e+01 6.500000e+00 3.762562e+00
      vertex 3.101554e+01 3.500000e+00 4.125000e+00
    endloop
  endfacet
  facet normal -7.933533e-01 1.695697e-14 6.087614e-01
    outer loop
      vertex 3.073744e+01 3.500000e+00 3.762562e+00
      vertex 3.101554e+01 3.500000e+00 4.125000e+00
      vertex 3.073744e+01 6.500000e+00 3.762562e+00
    endloop
  endfacet
  facet normal -6.087614e-01 1.552465e-14 7.933533e-01
    outer loop
      vertex 3.073744e+01 6.500000e+00 3.762562e+00
      vertex 3.037500e+01 6.500000e+00 3.484455e+00
      vertex 3.073744e+01 3.500000e+00 3.762562e+00
    endloop
  endfacet
  facet normal -6.087614e-01 1.552465e-14 7.933533e-01
    outer loop
      vertex 3.037500e+01 3.500000e+00 3.484455e+00
      vertex 3.073744e+01 3.500000e+00 3.762562e+00
      vertex 3.037500e+01 6.500000e+00 3.484455e+00
    endloop
  endfacet
  facet normal -3.826834e-01 1.303291e-14 9.238795e-01
    outer loop
      vertex 3.037500e+01 6.500000e+00 3.484455e+00
      vertex 2.995293e+01 6.500000e+00 3.309631e+00
      vertex 3.037500e+01 3.500000e+00 3.484455e+00
    endloop
  endfacet
  facet normal -3.826834e-01 1.303291e-14 9.238795e-01
    outer loop
      vertex 2.995293e+01 3.500000e+00 3.309631e+00
      vertex 3.037500e+01 3.500000e+00 3.484455e+00
      vertex 2.995293e+01 6.500000e+00 3.309631e+00
    endloop
  endfacet
  facet normal -1.305262e-01 8.899164e-15 9.914449e-01
    outer loop
      vertex 2.995293e+01 6.500000e+00 3.309631e+00
      vertex 2.950000e+01 6.500000e+00 3.250000e+00
      vertex 2.995293e+01 3.500000e+00 3.309631e+00
    endloop
  endfacet
  facet normal -1.305262e-01 8.899164e-15 9.914449e-01
    outer loop
      vertex 2.950000e+01 3.500000e+00 3.250000e+00
      vertex 2.995293e+01 3.500000e+00 3.309631e+00
      vertex 2.950000e+01 6.500000e+00 3.250000e+00
    endloop
  endfacet
  facet normal 1.305262e-01 6.997796e-15 9.914449e-01
    outer loop
      vertex 2.950000e+01 6.500000e+00 3.250000e+00
      vertex 2.904707e+01 6.500000e+00 3.309631e+00
      vertex 2.950000e+01 3.500000e+00 3.250000e+00
    endloop
  endfacet
  facet normal 1.305262e-01 6.997796e-15 9.914449e-01
    outer loop
      vertex 2.904707e+01 3.500000e+00 3.309631e+00
      vertex 2.950000e+01 3.500000e+00 3.250000e+00
      vertex 2.904707e+01 6.500000e+00 3.309631e+00
    endloop
  endfacet
  facet normal 3.826834e-01 5.248729e-15 9.238795e-01
    outer loop
      vertex 2.904707e+01 6.500000e+00 3.309631e+00
      vertex 2.862500e+01 6.500000e+00 3.484455e+00
      vertex 2.904707e+01 3.500000e+00 3.309631e+00
    endloop
  endfacet
  facet normal 3.826834e-01 5.248729e-15 9.238795e-01
    outer loop
      vertex 2.862500e+01 3.500000e+00 3.484455e+00
      vertex 2.904707e+01 3.500000e+00 3.309631e+00
      vertex 2.862500e+01 6.500000e+00 3.484455e+00
    endloop
  endfacet
  facet normal 6.087614e-01 3.725993e-15 7.933533e-01
    outer loop
      vertex 2.862500e+01 6.500000e+00 3.484455e+00
      vertex 2.826256e+01 6.500000e+00 3.762562e+00
      vertex 2.862500e+01 3.500000e+00 3.484455e+00
    endloop
  endfacet
  facet normal 6.087614e-01 3.725993e-15 7.933533e-01
    outer loop
      vertex 2.826256e+01 3.500000e+00 3.762562e+00
      vertex 2.862500e+01 3.500000e+00 3.484455e+00
      vertex 2.826256e+01 6.500000e+00 3.762562e+00
    endloop
  endfacet
  facet normal 7.933533e-01 8.219917e-16 6.087614e-01
    outer loop
      vertex 2.798446e+01 6.500000e+00 4.125000e+00
      vertex 2.798446e+01 3.500000e+00 4.125000e+00
      vertex 2.826256e+01 6.500000e+00 3.762562e+00
    endloop
  endfacet
  facet normal 7.933533e-01 8.219917e-16 6.087614e-01
    outer loop
      vertex 2.826256e+01 3.500000e+00 3.762562e+00
      vertex 2.826256e+01 6.500000e+00 3.762562e+00
      vertex 2.798446e+01 3.500000e+00 4.125000e+00
    endloop
  endfacet
  facet normal 9.238795e-01 -1.558162e-15 3.826834e-01
    outer loop
      vertex 2.798446e+01 6.500000e+00 4.125000e+00
      vertex 2.780963e+01 6.500000e+00 4.547066e+00
      vertex 2.798446e+01 3.500000e+00 4.125000e+00
    endloop
  endfacet
  facet normal 9.238795e-01 -1.558162e-15 3.826834e-01
    outer loop
      vertex 2.780963e+01 3.500000e+00 4.547066e+00
      vertex 2.798446e+01 3.500000e+00 4.125000e+00
      vertex 2.780963e+01 6.500000e+00 4.547066e+00
    endloop
  endfacet
  facet normal 9.914449e-01 -2.873213e-15 1.305262e-01
    outer loop
      vertex 2.780963e+01 6.500000e+00 4.547066e+00
      vertex 2.775000e+01 6.500000e+00 5.000000e+00
      vertex 2.780963e+01 3.500000e+00 4.547066e+00
    endloop
  endfacet
  facet normal 9.914449e-01 -2.873213e-15 1.305262e-01
    outer loop
      vertex 2.775000e+01 3.500000e+00 5.000000e+00
      vertex 2.780963e+01 3.500000e+00 4.547066e+00
      vertex 2.775000e+01 6.500000e+00 5.000000e+00
    endloop
  endfacet
  facet normal 9.914449e-01 -4.883669e-15 -1.305262e-01
    outer loop
      vertex 2.775000e+01 6.500000e+00 5.000000e+00
      vertex 2.780963e+01 6.500000e+00 5.452934e+00
      vertex 2.775000e+01 3.500000e+00 5.000000e+00
    endloop
  endfacet
  facet normal 9.914449e-01 -4.883669e-15 -1.305262e-01
    outer loop
      vertex 2.780963e+01 3.500000e+00 5.452934e+00
      vertex 2.775000e+01 3.500000e+00 5.000000e+00
      vertex 2.780963e+01 6.500000e+00 5.452934e+00
    endloop
  endfacet
  facet normal 9.238795e-01 -7.450962e-15 -3.826834e-01
    outer loop
      vertex 2.798446e+01 6.500000e+00 5.875000e+00
      vertex 2.798446e+01 3.500000e+00 5.875000e+00
      vertex 2.780963e+01 6.500000e+00 5.452934e+00
    endloop
  endfacet
  facet normal 9.238795e-01 -7.450962e-15 -3.826834e-01
    outer loop
      vertex 2.780963e+01 3.500000e+00 5.452934e+00
      vertex 2.780963e+01 6.500000e+00 5.452934e+00
      vertex 2.798446e+01 3.500000e+00 5.875000e+00
    endloop
  endfacet
  facet normal 7.933533e-01 -8.554580e-15 -6.087614e-01
    outer loop
      vertex 2.798446e+01 6.500000e+00 5.875000e+00
      vertex 2.826256e+01 6.500000e+00 6.237438e+00
      vertex 2.798446e+01 3.500000e+00 5.875000e+00
    endloop
  endfacet
  facet normal 7.933533e-01 -8.554580e-15 -6.087614e-01
    outer loop
      vertex 2.826256e+01 3.500000e+00 6.237438e+00
      vertex 2.798446e+01 3.500000e+00 5.875000e+00
      vertex 2.826256e+01 6.500000e+00 6.237438e+00
    endloop
  endfacet
  facet normal 6.087614e-01 -8.493792e-15 -7.933533e-01
    outer loop
      vertex 2.862500e+01 6.500000e+00 6.515545e+00
      vertex 2.862500e+01 3.500000e+00 6.515545e+00
      vertex 2.826256e+01 6.500000e+00 6.237438e+00
    endloop
  endfacet
  facet normal 6.087614e-01 -8.493792e-15 -7.933533e-01
    outer loop
      vertex 2.826256e+01 3.500000e+00 6.237438e+00
      vertex 2.826256e+01 6.500000e+00 6.237438e+00
      vertex 2.862500e+01 3.500000e+00 6.515545e+00
    endloop
  endfacet
  facet normal 3.826834e-01 -8.979629e-15 -9.238795e-01
    outer loop
      vertex 2.904707e+01 6.500000e+00 6.690369e+00
      vertex 2.904707e+01 3.500000e+00 6.690369e+00
      vertex 2.862500e+01 6.500000e+00 6.515545e+00
    endloop
  endfacet
  facet normal 3.826834e-01 -8.979629e-15 -9.238795e-01
    outer loop
      vertex 2.862500e+01 3.500000e+00 6.515545e+00
      vertex 2.862500e+01 6.500000e+00 6.515545e+00
      vertex 2.904707e+01 3.500000e+00 6.690369e+00
    endloop
  endfacet
  facet normal 1.305262e-01 -8.271114e-15 -9.914449e-01
    outer loop
      vertex 2.950000e+01 6.500000e+00 6.750000e+00
      vertex 2.950000e+01 3.500000e+00 6.750000e+00
      vertex 2.904707e+01 6.500000e+00 6.690369e+00
    endloop
  endfacet
  facet normal 1.305262e-01 -8.271114e-15 -9.914449e-01
    outer loop
      vertex 2.904707e+01 3.500000e+00 6.690369e+00
      vertex 2.904707e+01 6.500000e+00 6.690369e+00
      vertex 2.950000e+01 3.500000e+00 6.750000e+00
    endloop
  endfacet
  facet normal -1.305262e-01 -6.369746e-15 -9.914449e-01
    outer loop
      vertex 2.995293e+01 6.500000e+00 6.690369e+00
      vertex 2.995293e+01 3.500000e+00 6.690369e+00
      vertex 2.950000e+01 6.500000e+00 6.750000e+00
    endloop
  endfacet
  facet normal -1.305262e-01 -6.369746e-15 -9.914449e-01
    outer loop
      vertex 2.950000e+01 3.500000e+00 6.750000e+00
      vertex 2.950000e+01 6.500000e+00 6.750000e+00
      vertex 2.995293e+01 3.500000e+00 6.690369e+00
    endloop
  endfacet
  facet normal -3.826834e-01 -1.196127e-15 -9.238795e-01
    outer loop
      vertex 3.037500e+01 6.500000e+00 6.515545e+00
      vertex 3.037500e+01 3.500000e+00 6.515545e+00
      vertex 2.995293e+01 6.500000e+00 6.690369e+00
    endloop
  endfacet
  facet normal -3.826834e-01 -1.196127e-15 -9.238795e-01
    outer loop
      vertex 2.995293e+01 3.500000e+00 6.690369e+00
      vertex 2.995293e+01 6.500000e+00 6.690369e+00
      vertex 3.037500e+01 3.500000e+00 6.515545e+00
    endloop
  endfacet
endsolid Default
