solid Default
  facet normal -4.302590e-16 -2.507456e-17 1.000000e+00
    outer loop
      vertex 2.000000e+01 2.150000e+01 2.400000e+01
      vertex -6.000000e+00 1.650000e+01 2.400000e+01
      vertex 2.000000e+01 1.650000e+01 2.400000e+01
    endloop
  endfacet
  facet normal -4.302590e-16 -2.507456e-17 1.000000e+00
    outer loop
      vertex -6.000000e+00 -2.150000e+01 2.400000e+01
      vertex -1.000000e+01 -1.750000e+01 2.400000e+01
      vertex -2.000000e+01 -2.150000e+01 2.400000e+01
    endloop
  endfacet
  facet normal -4.302590e-16 -2.507456e-17 1.000000e+00
    outer loop
      vertex -1.000000e+01 -1.750000e+01 2.400000e+01
      vertex -6.000000e+00 -2.150000e+01 2.400000e+01
      vertex -6.000000e+00 1.650000e+01 2.400000e+01
    endloop
  endfacet
  facet normal -4.302590e-16 -2.507456e-17 1.000000e+00
    outer loop
      vertex -1.000000e+01 -1.750000e+01 2.400000e+01
      vertex -6.000000e+00 1.650000e+01 2.400000e+01
      vertex -1.000000e+01 2.150000e+01 2.400000e+01
    endloop
  endfacet
  facet normal -4.302590e-16 -2.507456e-17 1.000000e+00
    outer loop
      vertex -1.000000e+01 2.150000e+01 2.400000e+01
      vertex -6.000000e+00 1.650000e+01 2.400000e+01
      vertex 2.000000e+01 2.150000e+01 2.400000e+01
    endloop
  endfacet
  facet normal -4.302590e-16 -2.507456e-17 1.000000e+00
    outer loop
      vertex -2.000000e+01 -1.750000e+01 2.400000e+01
      vertex -2.000000e+01 -2.150000e+01 2.400000e+01
      vertex -1.000000e+01 -1.750000e+01 2.400000e+01
    endloop
  endfacet
  facet normal -2.193240e-15 1.121492e-18 -1.000000e+00
    outer loop
      vertex -2.000000e+01 -1.750000e+01 0.000000e+00
      vertex -1.000000e+01 -1.750000e+01 0.000000e+00
      vertex -2.000000e+01 -2.150000e+01 0.000000e+00
    endloop
  endfacet
  facet normal -2.193240e-15 1.121492e-18 -1.000000e+00
    outer loop
      vertex -6.000000e+00 -2.150000e+01 0.000000e+00
      vertex -1.000000e+01 -1.750000e+01 0.000000e+00
      vertex -6.000000e+00 1.650000e+01 0.000000e+00
    endloop
  endfacet
  facet normal -2.193240e-15 1.121492e-18 -1.000000e+00
    outer loop
      vertex -1.000000e+01 -1.750000e+01 0.000000e+00
      vertex -6.000000e+00 -2.150000e+01 0.000000e+00
      vertex -2.000000e+01 -2.150000e+01 0.000000e+00
    endloop
  endfacet
  facet normal -2.193240e-15 1.121492e-18 -1.000000e+00
    outer loop
      vertex -6.000000e+00 1.650000e+01 0.000000e+00
      vertex -1.000000e+01 -1.750000e+01 0.000000e+00
      vertex -1.000000e+01 2.150000e+01 0.000000e+00
    endloop
  endfacet
  facet normal -2.193240e-15 1.121492e-18 -1.000000e+00
    outer loop
      vertex -6.000000e+00 1.650000e+01 0.000000e+00
      vertex -1.000000e+01 2.150000e+01 0.000000e+00
      vertex 1.000000e+00 1.650000e+01 0.000000e+00
    endloop
  endfacet
  facet normal -2.193240e-15 1.121492e-18 -1.000000e+00
    outer loop
      vertex 1.000000e+00 1.650000e+01 0.000000e+00
      vertex -1.000000e+01 2.150000e+01 0.000000e+00
      vertex 1.000000e+00 2.150000e+01 0.000000e+00
    endloop
  endfacet
  facet normal -1.000000e+00 -2.961688e-16 -1.023781e-15
    outer loop
      vertex -1.000000e+01 2.150000e+01 0.000000e+00
      vertex -1.000000e+01 -1.750000e+01 2.400000e+01
      vertex -1.000000e+01 2.150000e+01 2.400000e+01
    endloop
  endfacet
  facet normal -1.000000e+00 -2.961688e-16 -1.023781e-15
    outer loop
      vertex -1.000000e+01 -1.750000e+01 2.400000e+01
      vertex -1.000000e+01 2.150000e+01 0.000000e+00
      vertex -1.000000e+01 -1.750000e+01 0.000000e+00
    endloop
  endfacet
  facet normal 1.000000e+00 0.000000e+00 3.499969e-16
    outer loop
      vertex -6.000000e+00 -2.150000e+01 0.000000e+00
      vertex -6.000000e+00 1.650000e+01 2.400000e+01
      vertex -6.000000e+00 -2.150000e+01 2.400000e+01
    endloop
  endfacet
  facet normal 1.000000e+00 0.000000e+00 3.499969e-16
    outer loop
      vertex -6.000000e+00 1.650000e+01 2.400000e+01
      vertex -6.000000e+00 -2.150000e+01 0.000000e+00
      vertex -6.000000e+00 1.650000e+01 0.000000e+00
    endloop
  endfacet
  facet normal -3.109772e-15 -1.000000e+00 -1.604248e-16
    outer loop
      vertex -2.000000e+01 -2.150000e+01 0.000000e+00
      vertex -1.669037e+01 -2.150000e+01 4.547066e+00
      vertex -2.000000e+01 -2.150000e+01 2.400000e+01
    endloop
  endfacet
  facet normal -3.109772e-15 -1.000000e+00 -1.604248e-16
    outer loop
      vertex -1.669037e+01 -2.150000e+01 4.547066e+00
      vertex -2.000000e+01 -2.150000e+01 0.000000e+00
      vertex -1.651554e+01 -2.150000e+01 4.125000e+00
    endloop
  endfacet
  facet normal -3.109772e-15 -1.000000e+00 -1.604248e-16
    outer loop
      vertex -1.651554e+01 -2.150000e+01 4.125000e+00
      vertex -2.000000e+01 -2.150000e+01 0.000000e+00
      vertex -1.623744e+01 -2.150000e+01 3.762566e+00
    endloop
  endfacet
  facet normal -3.109772e-15 -1.000000e+00 -1.604248e-16
    outer loop
      vertex -1.623744e+01 -2.150000e+01 3.762566e+00
      vertex -2.000000e+01 -2.150000e+01 0.000000e+00
      vertex -1.587500e+01 -2.150000e+01 3.484459e+00
    endloop
  endfacet
  facet normal -3.109772e-15 -1.000000e+00 -1.604248e-16
    outer loop
      vertex -1.587500e+01 -2.150000e+01 3.484459e+00
      vertex -2.000000e+01 -2.150000e+01 0.000000e+00
      vertex -1.545293e+01 -2.150000e+01 3.309631e+00
    endloop
  endfacet
  facet normal -3.109772e-15 -1.000000e+00 -1.604248e-16
    outer loop
      vertex -1.545293e+01 -2.150000e+01 3.309631e+00
      vertex -2.000000e+01 -2.150000e+01 0.000000e+00
      vertex -6.000000e+00 -2.150000e+01 0.000000e+00
    endloop
  endfacet
  facet normal -3.109772e-15 -1.000000e+00 -1.604248e-16
    outer loop
      vertex -2.000000e+01 -2.150000e+01 2.400000e+01
      vertex -1.669037e+01 -2.150000e+01 4.547066e+00
      vertex -1.675000e+01 -2.150000e+01 5.000000e+00
    endloop
  endfacet
  facet normal -3.109772e-15 -1.000000e+00 -1.604248e-16
    outer loop
      vertex -1.545293e+01 -2.150000e+01 3.309631e+00
      vertex -6.000000e+00 -2.150000e+01 0.000000e+00
      vertex -1.500000e+01 -2.150000e+01 3.250000e+00
    endloop
  endfacet
  facet normal -3.109772e-15 -1.000000e+00 -1.604248e-16
    outer loop
      vertex -1.500000e+01 -2.150000e+01 3.250000e+00
      vertex -6.000000e+00 -2.150000e+01 0.000000e+00
      vertex -1.454707e+01 -2.150000e+01 3.309631e+00
    endloop
  endfacet
  facet normal -3.109772e-15 -1.000000e+00 -1.604248e-16
    outer loop
      vertex -1.454707e+01 -2.150000e+01 3.309631e+00
      vertex -6.000000e+00 -2.150000e+01 0.000000e+00
      vertex -1.412500e+01 -2.150000e+01 3.484459e+00
    endloop
  endfacet
  facet normal -3.109772e-15 -1.000000e+00 -1.604248e-16
    outer loop
      vertex -1.412500e+01 -2.150000e+01 3.484459e+00
      vertex -6.000000e+00 -2.150000e+01 0.000000e+00
      vertex -1.376256e+01 -2.150000e+01 3.762566e+00
    endloop
  endfacet
  facet normal -3.109772e-15 -1.000000e+00 -1.604248e-16
    outer loop
      vertex -1.376256e+01 -2.150000e+01 3.762566e+00
      vertex -6.000000e+00 -2.150000e+01 0.000000e+00
      vertex -1.348446e+01 -2.150000e+01 4.125000e+00
    endloop
  endfacet
  facet normal -3.109772e-15 -1.000000e+00 -1.604248e-16
    outer loop
      vertex -1.348446e+01 -2.150000e+01 4.125000e+00
      vertex -6.000000e+00 -2.150000e+01 0.000000e+00
      vertex -1.330963e+01 -2.150000e+01 4.547066e+00
    endloop
  endfacet
  facet normal -3.109772e-15 -1.000000e+00 -1.604248e-16
    outer loop
      vertex -1.330963e+01 -2.150000e+01 4.547066e+00
      vertex -6.000000e+00 -2.150000e+01 0.000000e+00
      vertex -1.325000e+01 -2.150000e+01 5.000000e+00
    endloop
  endfacet
  facet normal -3.109772e-15 -1.000000e+00 -1.604248e-16
    outer loop
      vertex -1.325000e+01 -2.150000e+01 5.000000e+00
      vertex -6.000000e+00 -2.150000e+01 0.000000e+00
      vertex -1.325000e+01 -2.150000e+01 1.900000e+01
    endloop
  endfacet
  facet normal -3.109772e-15 -1.000000e+00 -1.604248e-16
    outer loop
      vertex -1.325000e+01 -2.150000e+01 1.900000e+01
      vertex -6.000000e+00 -2.150000e+01 0.000000e+00
      vertex -6.000000e+00 -2.150000e+01 2.400000e+01
    endloop
  endfacet
  facet normal -3.109772e-15 -1.000000e+00 -1.604248e-16
    outer loop
      vertex -2.000000e+01 -2.150000e+01 2.400000e+01
      vertex -1.545293e+01 -2.150000e+01 2.069037e+01
      vertex -6.000000e+00 -2.150000e+01 2.400000e+01
    endloop
  endfacet
  facet normal -3.109772e-15 -1.000000e+00 -1.604248e-16
    outer loop
      vertex -1.545293e+01 -2.150000e+01 2.069037e+01
      vertex -2.000000e+01 -2.150000e+01 2.400000e+01
      vertex -1.587500e+01 -2.150000e+01 2.051554e+01
    endloop
  endfacet
  facet normal -3.109772e-15 -1.000000e+00 -1.604248e-16
    outer loop
      vertex -1.587500e+01 -2.150000e+01 2.051554e+01
      vertex -2.000000e+01 -2.150000e+01 2.400000e+01
      vertex -1.623744e+01 -2.150000e+01 2.023743e+01
    endloop
  endfacet
  facet normal -3.109772e-15 -1.000000e+00 -1.604248e-16
    outer loop
      vertex -1.623744e+01 -2.150000e+01 2.023743e+01
      vertex -2.000000e+01 -2.150000e+01 2.400000e+01
      vertex -1.651554e+01 -2.150000e+01 1.987500e+01
    endloop
  endfacet
  facet normal -3.109772e-15 -1.000000e+00 -1.604248e-16
    outer loop
      vertex -1.651554e+01 -2.150000e+01 1.987500e+01
      vertex -2.000000e+01 -2.150000e+01 2.400000e+01
      vertex -1.669037e+01 -2.150000e+01 1.945293e+01
    endloop
  endfacet
  facet normal -3.109772e-15 -1.000000e+00 -1.604248e-16
    outer loop
      vertex -1.669037e+01 -2.150000e+01 1.945293e+01
      vertex -2.000000e+01 -2.150000e+01 2.400000e+01
      vertex -1.675000e+01 -2.150000e+01 1.900000e+01
    endloop
  endfacet
  facet normal -3.109772e-15 -1.000000e+00 -1.604248e-16
    outer loop
      vertex -1.675000e+01 -2.150000e+01 1.900000e+01
      vertex -2.000000e+01 -2.150000e+01 2.400000e+01
      vertex -1.675000e+01 -2.150000e+01 5.000000e+00
    endloop
  endfacet
  facet normal -3.109772e-15 -1.000000e+00 -1.604248e-16
    outer loop
      vertex -6.000000e+00 -2.150000e+01 2.400000e+01
      vertex -1.545293e+01 -2.150000e+01 2.069037e+01
      vertex -1.500000e+01 -2.150000e+01 2.075000e+01
    endloop
  endfacet
  facet normal -3.109772e-15 -1.000000e+00 -1.604248e-16
    outer loop
      vertex -6.000000e+00 -2.150000e+01 2.400000e+01
      vertex -1.500000e+01 -2.150000e+01 2.075000e+01
      vertex -1.454707e+01 -2.150000e+01 2.069037e+01
    endloop
  endfacet
  facet normal -3.109772e-15 -1.000000e+00 -1.604248e-16
    outer loop
      vertex -6.000000e+00 -2.150000e+01 2.400000e+01
      vertex -1.454707e+01 -2.150000e+01 2.069037e+01
      vertex -1.412500e+01 -2.150000e+01 2.051554e+01
    endloop
  endfacet
  facet normal -3.109772e-15 -1.000000e+00 -1.604248e-16
    outer loop
      vertex -6.000000e+00 -2.150000e+01 2.400000e+01
      vertex -1.412500e+01 -2.150000e+01 2.051554e+01
      vertex -1.376256e+01 -2.150000e+01 2.023743e+01
    endloop
  endfacet
  facet normal -3.109772e-15 -1.000000e+00 -1.604248e-16
    outer loop
      vertex -6.000000e+00 -2.150000e+01 2.400000e+01
      vertex -1.376256e+01 -2.150000e+01 2.023743e+01
      vertex -1.348446e+01 -2.150000e+01 1.987500e+01
    endloop
  endfacet
  facet normal -3.109772e-15 -1.000000e+00 -1.604248e-16
    outer loop
      vertex -6.000000e+00 -2.150000e+01 2.400000e+01
      vertex -1.348446e+01 -2.150000e+01 1.987500e+01
      vertex -1.330963e+01 -2.150000e+01 1.945293e+01
    endloop
  endfacet
  facet normal -3.109772e-15 -1.000000e+00 -1.604248e-16
    outer loop
      vertex -6.000000e+00 -2.150000e+01 2.400000e+01
      vertex -1.330963e+01 -2.150000e+01 1.945293e+01
      vertex -1.325000e+01 -2.150000e+01 1.900000e+01
    endloop
  endfacet
  facet normal -3.109772e-15 -1.000000e+00 -1.604248e-16
    outer loop
      vertex -1.669037e+01 -2.150000e+01 5.452934e+00
      vertex -1.675000e+01 -2.150000e+01 1.900000e+01
      vertex -1.675000e+01 -2.150000e+01 5.000000e+00
    endloop
  endfacet
  facet normal -3.109772e-15 -1.000000e+00 -1.604248e-16
    outer loop
      vertex -1.675000e+01 -2.150000e+01 1.900000e+01
      vertex -1.669037e+01 -2.150000e+01 5.452934e+00
      vertex -1.669037e+01 -2.150000e+01 1.854707e+01
    endloop
  endfacet
  facet normal -3.109772e-15 -1.000000e+00 -1.604248e-16
    outer loop
      vertex -1.669037e+01 -2.150000e+01 1.854707e+01
      vertex -1.669037e+01 -2.150000e+01 5.452934e+00
      vertex -1.651554e+01 -2.150000e+01 5.875000e+00
    endloop
  endfacet
  facet normal -3.109772e-15 -1.000000e+00 -1.604248e-16
    outer loop
      vertex -1.669037e+01 -2.150000e+01 1.854707e+01
      vertex -1.651554e+01 -2.150000e+01 5.875000e+00
      vertex -1.651554e+01 -2.150000e+01 1.812500e+01
    endloop
  endfacet
  facet normal -3.109772e-15 -1.000000e+00 -1.604248e-16
    outer loop
      vertex -1.651554e+01 -2.150000e+01 1.812500e+01
      vertex -1.651554e+01 -2.150000e+01 5.875000e+00
      vertex -1.623744e+01 -2.150000e+01 6.237434e+00
    endloop
  endfacet
  facet normal -3.109772e-15 -1.000000e+00 -1.604248e-16
    outer loop
      vertex -1.651554e+01 -2.150000e+01 1.812500e+01
      vertex -1.623744e+01 -2.150000e+01 6.237434e+00
      vertex -1.623744e+01 -2.150000e+01 1.776257e+01
    endloop
  endfacet
  facet normal -3.109772e-15 -1.000000e+00 -1.604248e-16
    outer loop
      vertex -1.623744e+01 -2.150000e+01 1.776257e+01
      vertex -1.623744e+01 -2.150000e+01 6.237434e+00
      vertex -1.587500e+01 -2.150000e+01 6.515541e+00
    endloop
  endfacet
  facet normal -3.109772e-15 -1.000000e+00 -1.604248e-16
    outer loop
      vertex -1.623744e+01 -2.150000e+01 1.776257e+01
      vertex -1.587500e+01 -2.150000e+01 6.515541e+00
      vertex -1.587500e+01 -2.150000e+01 1.748446e+01
    endloop
  endfacet
  facet normal -3.109772e-15 -1.000000e+00 -1.604248e-16
    outer loop
      vertex -1.587500e+01 -2.150000e+01 1.748446e+01
      vertex -1.587500e+01 -2.150000e+01 6.515541e+00
      vertex -1.545293e+01 -2.150000e+01 1.730963e+01
    endloop
  endfacet
  facet normal -3.109772e-15 -1.000000e+00 -1.604248e-16
    outer loop
      vertex -1.545293e+01 -2.150000e+01 1.730963e+01
      vertex -1.587500e+01 -2.150000e+01 6.515541e+00
      vertex -1.545293e+01 -2.150000e+01 6.690369e+00
    endloop
  endfacet
  facet normal -3.109772e-15 -1.000000e+00 -1.604248e-16
    outer loop
      vertex -1.545293e+01 -2.150000e+01 1.730963e+01
      vertex -1.545293e+01 -2.150000e+01 6.690369e+00
      vertex -1.500000e+01 -2.150000e+01 6.750000e+00
    endloop
  endfacet
  facet normal -3.109772e-15 -1.000000e+00 -1.604248e-16
    outer loop
      vertex -1.545293e+01 -2.150000e+01 1.730963e+01
      vertex -1.500000e+01 -2.150000e+01 6.750000e+00
      vertex -1.500000e+01 -2.150000e+01 1.725000e+01
    endloop
  endfacet
  facet normal -3.109772e-15 -1.000000e+00 -1.604248e-16
    outer loop
      vertex -1.500000e+01 -2.150000e+01 1.725000e+01
      vertex -1.500000e+01 -2.150000e+01 6.750000e+00
      vertex -1.454707e+01 -2.150000e+01 6.690369e+00
    endloop
  endfacet
  facet normal -3.109772e-15 -1.000000e+00 -1.604248e-16
    outer loop
      vertex -1.500000e+01 -2.150000e+01 1.725000e+01
      vertex -1.454707e+01 -2.150000e+01 6.690369e+00
      vertex -1.454707e+01 -2.150000e+01 1.730963e+01
    endloop
  endfacet
  facet normal -3.109772e-15 -1.000000e+00 -1.604248e-16
    outer loop
      vertex -1.454707e+01 -2.150000e+01 1.730963e+01
      vertex -1.454707e+01 -2.150000e+01 6.690369e+00
      vertex -1.412500e+01 -2.150000e+01 1.748446e+01
    endloop
  endfacet
  facet normal -3.109772e-15 -1.000000e+00 -1.604248e-16
    outer loop
      vertex -1.412500e+01 -2.150000e+01 1.748446e+01
      vertex -1.454707e+01 -2.150000e+01 6.690369e+00
      vertex -1.412500e+01 -2.150000e+01 6.515541e+00
    endloop
  endfacet
  facet normal -3.109772e-15 -1.000000e+00 -1.604248e-16
    outer loop
      vertex -1.412500e+01 -2.150000e+01 1.748446e+01
      vertex -1.412500e+01 -2.150000e+01 6.515541e+00
      vertex -1.376256e+01 -2.150000e+01 1.776257e+01
    endloop
  endfacet
  facet normal -3.109772e-15 -1.000000e+00 -1.604248e-16
    outer loop
      vertex -1.376256e+01 -2.150000e+01 1.776257e+01
      vertex -1.412500e+01 -2.150000e+01 6.515541e+00
      vertex -1.376256e+01 -2.150000e+01 6.237434e+00
    endloop
  endfacet
  facet normal -3.109772e-15 -1.000000e+00 -1.604248e-16
    outer loop
      vertex -1.376256e+01 -2.150000e+01 1.776257e+01
      vertex -1.376256e+01 -2.150000e+01 6.237434e+00
      vertex -1.348446e+01 -2.150000e+01 5.875000e+00
    endloop
  endfacet
  facet normal -3.109772e-15 -1.000000e+00 -1.604248e-16
    outer loop
      vertex -1.376256e+01 -2.150000e+01 1.776257e+01
      vertex -1.348446e+01 -2.150000e+01 5.875000e+00
      vertex -1.348446e+01 -2.150000e+01 1.812500e+01
    endloop
  endfacet
  facet normal -3.109772e-15 -1.000000e+00 -1.604248e-16
    outer loop
      vertex -1.348446e+01 -2.150000e+01 1.812500e+01
      vertex -1.348446e+01 -2.150000e+01 5.875000e+00
      vertex -1.330963e+01 -2.150000e+01 5.452934e+00
    endloop
  endfacet
  facet normal -3.109772e-15 -1.000000e+00 -1.604248e-16
    outer loop
      vertex -1.348446e+01 -2.150000e+01 1.812500e+01
      vertex -1.330963e+01 -2.150000e+01 5.452934e+00
      vertex -1.330963e+01 -2.150000e+01 1.854707e+01
    endloop
  endfacet
  facet normal -3.109772e-15 -1.000000e+00 -1.604248e-16
    outer loop
      vertex -1.330963e+01 -2.150000e+01 1.854707e+01
      vertex -1.330963e+01 -2.150000e+01 5.452934e+00
      vertex -1.325000e+01 -2.150000e+01 5.000000e+00
    endloop
  endfacet
  facet normal -3.109772e-15 -1.000000e+00 -1.604248e-16
    outer loop
      vertex -1.330963e+01 -2.150000e+01 1.854707e+01
      vertex -1.325000e+01 -2.150000e+01 5.000000e+00
      vertex -1.325000e+01 -2.150000e+01 1.900000e+01
    endloop
  endfacet
  facet normal 4.620233e-15 1.000000e+00 2.536933e-30
    outer loop
      vertex -2.000000e+01 -1.750000e+01 2.400000e+01
      vertex -1.669037e+01 -1.750000e+01 1.945293e+01
      vertex -2.000000e+01 -1.750000e+01 0.000000e+00
    endloop
  endfacet
  facet normal 4.620233e-15 1.000000e+00 2.536933e-30
    outer loop
      vertex -1.669037e+01 -1.750000e+01 1.945293e+01
      vertex -2.000000e+01 -1.750000e+01 2.400000e+01
      vertex -1.651554e+01 -1.750000e+01 1.987500e+01
    endloop
  endfacet
  facet normal 4.620233e-15 1.000000e+00 2.536933e-30
    outer loop
      vertex -1.651554e+01 -1.750000e+01 1.987500e+01
      vertex -2.000000e+01 -1.750000e+01 2.400000e+01
      vertex -1.623744e+01 -1.750000e+01 2.023743e+01
    endloop
  endfacet
  facet normal 4.620233e-15 1.000000e+00 2.536933e-30
    outer loop
      vertex -1.623744e+01 -1.750000e+01 2.023743e+01
      vertex -2.000000e+01 -1.750000e+01 2.400000e+01
      vertex -1.587500e+01 -1.750000e+01 2.051554e+01
    endloop
  endfacet
  facet normal 4.620233e-15 1.000000e+00 2.536933e-30
    outer loop
      vertex -1.587500e+01 -1.750000e+01 2.051554e+01
      vertex -2.000000e+01 -1.750000e+01 2.400000e+01
      vertex -1.000000e+01 -1.750000e+01 2.400000e+01
    endloop
  endfacet
  facet normal 4.620233e-15 1.000000e+00 2.536933e-30
    outer loop
      vertex -2.000000e+01 -1.750000e+01 0.000000e+00
      vertex -1.669037e+01 -1.750000e+01 1.945293e+01
      vertex -1.675000e+01 -1.750000e+01 1.900000e+01
    endloop
  endfacet
  facet normal 4.620233e-15 1.000000e+00 2.536933e-30
    outer loop
      vertex -1.587500e+01 -1.750000e+01 2.051554e+01
      vertex -1.000000e+01 -1.750000e+01 2.400000e+01
      vertex -1.545293e+01 -1.750000e+01 2.069037e+01
    endloop
  endfacet
  facet normal 4.620233e-15 1.000000e+00 2.536933e-30
    outer loop
      vertex -1.545293e+01 -1.750000e+01 2.069037e+01
      vertex -1.000000e+01 -1.750000e+01 2.400000e+01
      vertex -1.500000e+01 -1.750000e+01 2.075000e+01
    endloop
  endfacet
  facet normal 4.620233e-15 1.000000e+00 2.536933e-30
    outer loop
      vertex -1.500000e+01 -1.750000e+01 2.075000e+01
      vertex -1.000000e+01 -1.750000e+01 2.400000e+01
      vertex -1.454707e+01 -1.750000e+01 2.069037e+01
    endloop
  endfacet
  facet normal 4.620233e-15 1.000000e+00 2.536933e-30
    outer loop
      vertex -1.454707e+01 -1.750000e+01 2.069037e+01
      vertex -1.000000e+01 -1.750000e+01 2.400000e+01
      vertex -1.412500e+01 -1.750000e+01 2.051554e+01
    endloop
  endfacet
  facet normal 4.620233e-15 1.000000e+00 2.536933e-30
    outer loop
      vertex -1.412500e+01 -1.750000e+01 2.051554e+01
      vertex -1.000000e+01 -1.750000e+01 2.400000e+01
      vertex -1.376256e+01 -1.750000e+01 2.023743e+01
    endloop
  endfacet
  facet normal 4.620233e-15 1.000000e+00 2.536933e-30
    outer loop
      vertex -1.376256e+01 -1.750000e+01 2.023743e+01
      vertex -1.000000e+01 -1.750000e+01 2.400000e+01
      vertex -1.348446e+01 -1.750000e+01 1.987500e+01
    endloop
  endfacet
  facet normal 4.620233e-15 1.000000e+00 2.536933e-30
    outer loop
      vertex -1.348446e+01 -1.750000e+01 1.987500e+01
      vertex -1.000000e+01 -1.750000e+01 2.400000e+01
      vertex -1.330963e+01 -1.750000e+01 1.945293e+01
    endloop
  endfacet
  facet normal 4.620233e-15 1.000000e+00 2.536933e-30
    outer loop
      vertex -1.330963e+01 -1.750000e+01 1.945293e+01
      vertex -1.000000e+01 -1.750000e+01 2.400000e+01
      vertex -1.325000e+01 -1.750000e+01 1.900000e+01
    endloop
  endfacet
  facet normal 4.620233e-15 1.000000e+00 2.536933e-30
    outer loop
      vertex -1.325000e+01 -1.750000e+01 1.900000e+01
      vertex -1.000000e+01 -1.750000e+01 2.400000e+01
      vertex -1.325000e+01 -1.750000e+01 5.000000e+00
    endloop
  endfacet
  facet normal 4.620233e-15 1.000000e+00 2.536933e-30
    outer loop
      vertex -2.000000e+01 -1.750000e+01 0.000000e+00
      vertex -1.587500e+01 -1.750000e+01 3.484459e+00
      vertex -1.000000e+01 -1.750000e+01 0.000000e+00
    endloop
  endfacet
  facet normal 4.620233e-15 1.000000e+00 2.536933e-30
    outer loop
      vertex -1.587500e+01 -1.750000e+01 3.484459e+00
      vertex -2.000000e+01 -1.750000e+01 0.000000e+00
      vertex -1.623744e+01 -1.750000e+01 3.762566e+00
    endloop
  endfacet
  facet normal 4.620233e-15 1.000000e+00 2.536933e-30
    outer loop
      vertex -1.623744e+01 -1.750000e+01 3.762566e+00
      vertex -2.000000e+01 -1.750000e+01 0.000000e+00
      vertex -1.651554e+01 -1.750000e+01 4.125000e+00
    endloop
  endfacet
  facet normal 4.620233e-15 1.000000e+00 2.536933e-30
    outer loop
      vertex -1.651554e+01 -1.750000e+01 4.125000e+00
      vertex -2.000000e+01 -1.750000e+01 0.000000e+00
      vertex -1.669037e+01 -1.750000e+01 4.547066e+00
    endloop
  endfacet
  facet normal 4.620233e-15 1.000000e+00 2.536933e-30
    outer loop
      vertex -1.669037e+01 -1.750000e+01 4.547066e+00
      vertex -2.000000e+01 -1.750000e+01 0.000000e+00
      vertex -1.675000e+01 -1.750000e+01 5.000000e+00
    endloop
  endfacet
  facet normal 4.620233e-15 1.000000e+00 2.536933e-30
    outer loop
      vertex -1.675000e+01 -1.750000e+01 5.000000e+00
      vertex -2.000000e+01 -1.750000e+01 0.000000e+00
      vertex -1.675000e+01 -1.750000e+01 1.900000e+01
    endloop
  endfacet
  facet normal 4.620233e-15 1.000000e+00 2.536933e-30
    outer loop
      vertex -1.000000e+01 -1.750000e+01 0.000000e+00
      vertex -1.587500e+01 -1.750000e+01 3.484459e+00
      vertex -1.545293e+01 -1.750000e+01 3.309631e+00
    endloop
  endfacet
  facet normal 4.620233e-15 1.000000e+00 2.536933e-30
    outer loop
      vertex -1.000000e+01 -1.750000e+01 0.000000e+00
      vertex -1.545293e+01 -1.750000e+01 3.309631e+00
      vertex -1.500000e+01 -1.750000e+01 3.250000e+00
    endloop
  endfacet
  facet normal 4.620233e-15 1.000000e+00 2.536933e-30
    outer loop
      vertex -1.000000e+01 -1.750000e+01 0.000000e+00
      vertex -1.500000e+01 -1.750000e+01 3.250000e+00
      vertex -1.454707e+01 -1.750000e+01 3.309631e+00
    endloop
  endfacet
  facet normal 4.620233e-15 1.000000e+00 2.536933e-30
    outer loop
      vertex -1.000000e+01 -1.750000e+01 0.000000e+00
      vertex -1.454707e+01 -1.750000e+01 3.309631e+00
      vertex -1.412500e+01 -1.750000e+01 3.484459e+00
    endloop
  endfacet
  facet normal 4.620233e-15 1.000000e+00 2.536933e-30
    outer loop
      vertex -1.000000e+01 -1.750000e+01 0.000000e+00
      vertex -1.412500e+01 -1.750000e+01 3.484459e+00
      vertex -1.376256e+01 -1.750000e+01 3.762566e+00
    endloop
  endfacet
  facet normal 4.620233e-15 1.000000e+00 2.536933e-30
    outer loop
      vertex -1.000000e+01 -1.750000e+01 0.000000e+00
      vertex -1.376256e+01 -1.750000e+01 3.762566e+00
      vertex -1.348446e+01 -1.750000e+01 4.125000e+00
    endloop
  endfacet
  facet normal 4.620233e-15 1.000000e+00 2.536933e-30
    outer loop
      vertex -1.000000e+01 -1.750000e+01 0.000000e+00
      vertex -1.348446e+01 -1.750000e+01 4.125000e+00
      vertex -1.330963e+01 -1.750000e+01 4.547066e+00
    endloop
  endfacet
  facet normal 4.620233e-15 1.000000e+00 2.536933e-30
    outer loop
      vertex -1.000000e+01 -1.750000e+01 0.000000e+00
      vertex -1.330963e+01 -1.750000e+01 4.547066e+00
      vertex -1.325000e+01 -1.750000e+01 5.000000e+00
    endloop
  endfacet
  facet normal 4.620233e-15 1.000000e+00 2.536933e-30
    outer loop
      vertex -1.000000e+01 -1.750000e+01 0.000000e+00
      vertex -1.325000e+01 -1.750000e+01 5.000000e+00
      vertex -1.000000e+01 -1.750000e+01 2.400000e+01
    endloop
  endfacet
  facet normal 4.620233e-15 1.000000e+00 2.536933e-30
    outer loop
      vertex -1.669037e+01 -1.750000e+01 1.854707e+01
      vertex -1.675000e+01 -1.750000e+01 5.000000e+00
      vertex -1.675000e+01 -1.750000e+01 1.900000e+01
    endloop
  endfacet
  facet normal 4.620233e-15 1.000000e+00 2.536933e-30
    outer loop
      vertex -1.675000e+01 -1.750000e+01 5.000000e+00
      vertex -1.669037e+01 -1.750000e+01 1.854707e+01
      vertex -1.669037e+01 -1.750000e+01 5.452934e+00
    endloop
  endfacet
  facet normal 4.620233e-15 1.000000e+00 2.536933e-30
    outer loop
      vertex -1.669037e+01 -1.750000e+01 5.452934e+00
      vertex -1.669037e+01 -1.750000e+01 1.854707e+01
      vertex -1.651554e+01 -1.750000e+01 1.812500e+01
    endloop
  endfacet
  facet normal 4.620233e-15 1.000000e+00 2.536933e-30
    outer loop
      vertex -1.669037e+01 -1.750000e+01 5.452934e+00
      vertex -1.651554e+01 -1.750000e+01 1.812500e+01
      vertex -1.651554e+01 -1.750000e+01 5.875000e+00
    endloop
  endfacet
  facet normal 4.620233e-15 1.000000e+00 2.536933e-30
    outer loop
      vertex -1.651554e+01 -1.750000e+01 5.875000e+00
      vertex -1.651554e+01 -1.750000e+01 1.812500e+01
      vertex -1.623744e+01 -1.750000e+01 1.776257e+01
    endloop
  endfacet
  facet normal 4.620233e-15 1.000000e+00 2.536933e-30
    outer loop
      vertex -1.651554e+01 -1.750000e+01 5.875000e+00
      vertex -1.623744e+01 -1.750000e+01 1.776257e+01
      vertex -1.623744e+01 -1.750000e+01 6.237434e+00
    endloop
  endfacet
  facet normal 4.620233e-15 1.000000e+00 2.536933e-30
    outer loop
      vertex -1.623744e+01 -1.750000e+01 6.237434e+00
      vertex -1.623744e+01 -1.750000e+01 1.776257e+01
      vertex -1.587500e+01 -1.750000e+01 1.748446e+01
    endloop
  endfacet
  facet normal 4.620233e-15 1.000000e+00 2.536933e-30
    outer loop
      vertex -1.623744e+01 -1.750000e+01 6.237434e+00
      vertex -1.587500e+01 -1.750000e+01 1.748446e+01
      vertex -1.587500e+01 -1.750000e+01 6.515541e+00
    endloop
  endfacet
  facet normal 4.620233e-15 1.000000e+00 2.536933e-30
    outer loop
      vertex -1.587500e+01 -1.750000e+01 6.515541e+00
      vertex -1.587500e+01 -1.750000e+01 1.748446e+01
      vertex -1.545293e+01 -1.750000e+01 1.730963e+01
    endloop
  endfacet
  facet normal 4.620233e-15 1.000000e+00 2.536933e-30
    outer loop
      vertex -1.587500e+01 -1.750000e+01 6.515541e+00
      vertex -1.545293e+01 -1.750000e+01 1.730963e+01
      vertex -1.545293e+01 -1.750000e+01 6.690369e+00
    endloop
  endfacet
  facet normal 4.620233e-15 1.000000e+00 2.536933e-30
    outer loop
      vertex -1.545293e+01 -1.750000e+01 6.690369e+00
      vertex -1.545293e+01 -1.750000e+01 1.730963e+01
      vertex -1.500000e+01 -1.750000e+01 1.725000e+01
    endloop
  endfacet
  facet normal 4.620233e-15 1.000000e+00 2.536933e-30
    outer loop
      vertex -1.545293e+01 -1.750000e+01 6.690369e+00
      vertex -1.500000e+01 -1.750000e+01 1.725000e+01
      vertex -1.500000e+01 -1.750000e+01 6.750000e+00
    endloop
  endfacet
  facet normal 4.620233e-15 1.000000e+00 2.536933e-30
    outer loop
      vertex -1.500000e+01 -1.750000e+01 6.750000e+00
      vertex -1.500000e+01 -1.750000e+01 1.725000e+01
      vertex -1.454707e+01 -1.750000e+01 1.730963e+01
    endloop
  endfacet
  facet normal 4.620233e-15 1.000000e+00 2.536933e-30
    outer loop
      vertex -1.500000e+01 -1.750000e+01 6.750000e+00
      vertex -1.454707e+01 -1.750000e+01 1.730963e+01
      vertex -1.454707e+01 -1.750000e+01 6.690369e+00
    endloop
  endfacet
  facet normal 4.620233e-15 1.000000e+00 2.536933e-30
    outer loop
      vertex -1.454707e+01 -1.750000e+01 6.690369e+00
      vertex -1.454707e+01 -1.750000e+01 1.730963e+01
      vertex -1.412500e+01 -1.750000e+01 1.748446e+01
    endloop
  endfacet
  facet normal 4.620233e-15 1.000000e+00 2.536933e-30
    outer loop
      vertex -1.454707e+01 -1.750000e+01 6.690369e+00
      vertex -1.412500e+01 -1.750000e+01 1.748446e+01
      vertex -1.412500e+01 -1.750000e+01 6.515541e+00
    endloop
  endfacet
  facet normal 4.620233e-15 1.000000e+00 2.536933e-30
    outer loop
      vertex -1.412500e+01 -1.750000e+01 6.515541e+00
      vertex -1.412500e+01 -1.750000e+01 1.748446e+01
      vertex -1.376256e+01 -1.750000e+01 1.776257e+01
    endloop
  endfacet
  facet normal 4.620233e-15 1.000000e+00 2.536933e-30
    outer loop
      vertex -1.412500e+01 -1.750000e+01 6.515541e+00
      vertex -1.376256e+01 -1.750000e+01 1.776257e+01
      vertex -1.376256e+01 -1.750000e+01 6.237434e+00
    endloop
  endfacet
  facet normal 4.620233e-15 1.000000e+00 2.536933e-30
    outer loop
      vertex -1.376256e+01 -1.750000e+01 6.237434e+00
      vertex -1.376256e+01 -1.750000e+01 1.776257e+01
      vertex -1.348446e+01 -1.750000e+01 1.812500e+01
    endloop
  endfacet
  facet normal 4.620233e-15 1.000000e+00 2.536933e-30
    outer loop
      vertex -1.376256e+01 -1.750000e+01 6.237434e+00
      vertex -1.348446e+01 -1.750000e+01 1.812500e+01
      vertex -1.348446e+01 -1.750000e+01 5.875000e+00
    endloop
  endfacet
  facet normal 4.620233e-15 1.000000e+00 2.536933e-30
    outer loop
      vertex -1.348446e+01 -1.750000e+01 5.875000e+00
      vertex -1.348446e+01 -1.750000e+01 1.812500e+01
      vertex -1.330963e+01 -1.750000e+01 1.854707e+01
    endloop
  endfacet
  facet normal 4.620233e-15 1.000000e+00 2.536933e-30
    outer loop
      vertex -1.348446e+01 -1.750000e+01 5.875000e+00
      vertex -1.330963e+01 -1.750000e+01 1.854707e+01
      vertex -1.330963e+01 -1.750000e+01 5.452934e+00
    endloop
  endfacet
  facet normal 4.620233e-15 1.000000e+00 2.536933e-30
    outer loop
      vertex -1.330963e+01 -1.750000e+01 5.452934e+00
      vertex -1.330963e+01 -1.750000e+01 1.854707e+01
      vertex -1.325000e+01 -1.750000e+01 1.900000e+01
    endloop
  endfacet
  facet normal 4.620233e-15 1.000000e+00 2.536933e-30
    outer loop
      vertex -1.330963e+01 -1.750000e+01 5.452934e+00
      vertex -1.325000e+01 -1.750000e+01 1.900000e+01
      vertex -1.325000e+01 -1.750000e+01 5.000000e+00
    endloop
  endfacet
  facet normal -1.000000e+00 2.165734e-15 -6.123234e-17
    outer loop
      vertex -2.000000e+01 -1.750000e+01 0.000000e+00
      vertex -2.000000e+01 -2.150000e+01 2.400000e+01
      vertex -2.000000e+01 -1.750000e+01 2.400000e+01
    endloop
  endfacet
  facet normal -1.000000e+00 2.165734e-15 -6.123234e-17
    outer loop
      vertex -2.000000e+01 -2.150000e+01 2.400000e+01
      vertex -2.000000e+01 -1.750000e+01 0.000000e+00
      vertex -2.000000e+01 -2.150000e+01 0.000000e+00
    endloop
  endfacet
  facet normal -1.305262e-01 3.769605e-16 -9.914449e-01
    outer loop
      vertex -1.500000e+01 -1.750000e+01 6.750000e+00
      vertex -1.454707e+01 -2.150000e+01 6.690369e+00
      vertex -1.500000e+01 -2.150000e+01 6.750000e+00
    endloop
  endfacet
  facet normal -1.305262e-01 3.769605e-16 -9.914449e-01
    outer loop
      vertex -1.454707e+01 -2.150000e+01 6.690369e+00
      vertex -1.500000e+01 -1.750000e+01 6.750000e+00
      vertex -1.454707e+01 -1.750000e+01 6.690369e+00
    endloop
  endfacet
  facet normal 1.305262e-01 -3.769605e-16 -9.914449e-01
    outer loop
      vertex -1.545293e+01 -1.750000e+01 6.690369e+00
      vertex -1.500000e+01 -2.150000e+01 6.750000e+00
      vertex -1.545293e+01 -2.150000e+01 6.690369e+00
    endloop
  endfacet
  facet normal 1.305262e-01 -3.769605e-16 -9.914449e-01
    outer loop
      vertex -1.500000e+01 -2.150000e+01 6.750000e+00
      vertex -1.545293e+01 -1.750000e+01 6.690369e+00
      vertex -1.500000e+01 -1.750000e+01 6.750000e+00
    endloop
  endfacet
  facet normal 3.826834e-01 -1.105192e-15 -9.238795e-01
    outer loop
      vertex -1.587500e+01 -1.750000e+01 6.515541e+00
      vertex -1.545293e+01 -2.150000e+01 6.690369e+00
      vertex -1.587500e+01 -2.150000e+01 6.515541e+00
    endloop
  endfacet
  facet normal 3.826834e-01 -1.105192e-15 -9.238795e-01
    outer loop
      vertex -1.545293e+01 -2.150000e+01 6.690369e+00
      vertex -1.587500e+01 -1.750000e+01 6.515541e+00
      vertex -1.545293e+01 -1.750000e+01 6.690369e+00
    endloop
  endfacet
  facet normal 6.087614e-01 -1.758107e-15 -7.933533e-01
    outer loop
      vertex -1.623744e+01 -1.750000e+01 6.237434e+00
      vertex -1.587500e+01 -2.150000e+01 6.515541e+00
      vertex -1.623744e+01 -2.150000e+01 6.237434e+00
    endloop
  endfacet
  facet normal 6.087614e-01 -1.758107e-15 -7.933533e-01
    outer loop
      vertex -1.587500e+01 -2.150000e+01 6.515541e+00
      vertex -1.623744e+01 -1.750000e+01 6.237434e+00
      vertex -1.587500e+01 -1.750000e+01 6.515541e+00
    endloop
  endfacet
  facet normal 7.933533e-01 -2.291210e-15 -6.087614e-01
    outer loop
      vertex -1.651554e+01 -2.150000e+01 5.875000e+00
      vertex -1.623744e+01 -1.750000e+01 6.237434e+00
      vertex -1.623744e+01 -2.150000e+01 6.237434e+00
    endloop
  endfacet
  facet normal 7.933533e-01 -2.291210e-15 -6.087614e-01
    outer loop
      vertex -1.623744e+01 -1.750000e+01 6.237434e+00
      vertex -1.651554e+01 -2.150000e+01 5.875000e+00
      vertex -1.651554e+01 -1.750000e+01 5.875000e+00
    endloop
  endfacet
  facet normal 9.238795e-01 -2.668170e-15 -3.826834e-01
    outer loop
      vertex -1.669037e+01 -2.150000e+01 5.452934e+00
      vertex -1.651554e+01 -1.750000e+01 5.875000e+00
      vertex -1.651554e+01 -2.150000e+01 5.875000e+00
    endloop
  endfacet
  facet normal 9.238795e-01 -2.668170e-15 -3.826834e-01
    outer loop
      vertex -1.651554e+01 -1.750000e+01 5.875000e+00
      vertex -1.669037e+01 -2.150000e+01 5.452934e+00
      vertex -1.669037e+01 -1.750000e+01 5.452934e+00
    endloop
  endfacet
  facet normal 9.914449e-01 -2.863299e-15 -1.305262e-01
    outer loop
      vertex -1.675000e+01 -2.150000e+01 5.000000e+00
      vertex -1.669037e+01 -1.750000e+01 5.452934e+00
      vertex -1.669037e+01 -2.150000e+01 5.452934e+00
    endloop
  endfacet
  facet normal 9.914449e-01 -2.863299e-15 -1.305262e-01
    outer loop
      vertex -1.669037e+01 -1.750000e+01 5.452934e+00
      vertex -1.675000e+01 -2.150000e+01 5.000000e+00
      vertex -1.675000e+01 -1.750000e+01 5.000000e+00
    endloop
  endfacet
  facet normal 9.914449e-01 -2.863299e-15 1.305262e-01
    outer loop
      vertex -1.669037e+01 -2.150000e+01 4.547066e+00
      vertex -1.675000e+01 -1.750000e+01 5.000000e+00
      vertex -1.675000e+01 -2.150000e+01 5.000000e+00
    endloop
  endfacet
  facet normal 9.914449e-01 -2.863299e-15 1.305262e-01
    outer loop
      vertex -1.675000e+01 -1.750000e+01 5.000000e+00
      vertex -1.669037e+01 -2.150000e+01 4.547066e+00
      vertex -1.669037e+01 -1.750000e+01 4.547066e+00
    endloop
  endfacet
  facet normal 9.238795e-01 -2.668170e-15 3.826834e-01
    outer loop
      vertex -1.651554e+01 -2.150000e+01 4.125000e+00
      vertex -1.669037e+01 -1.750000e+01 4.547066e+00
      vertex -1.669037e+01 -2.150000e+01 4.547066e+00
    endloop
  endfacet
  facet normal 9.238795e-01 -2.668170e-15 3.826834e-01
    outer loop
      vertex -1.669037e+01 -1.750000e+01 4.547066e+00
      vertex -1.651554e+01 -2.150000e+01 4.125000e+00
      vertex -1.651554e+01 -1.750000e+01 4.125000e+00
    endloop
  endfacet
  facet normal 7.933533e-01 -2.291210e-15 6.087614e-01
    outer loop
      vertex -1.623744e+01 -2.150000e+01 3.762566e+00
      vertex -1.651554e+01 -1.750000e+01 4.125000e+00
      vertex -1.651554e+01 -2.150000e+01 4.125000e+00
    endloop
  endfacet
  facet normal 7.933533e-01 -2.291210e-15 6.087614e-01
    outer loop
      vertex -1.651554e+01 -1.750000e+01 4.125000e+00
      vertex -1.623744e+01 -2.150000e+01 3.762566e+00
      vertex -1.623744e+01 -1.750000e+01 3.762566e+00
    endloop
  endfacet
  facet normal 6.087614e-01 -1.758107e-15 7.933533e-01
    outer loop
      vertex -1.587500e+01 -1.750000e+01 3.484459e+00
      vertex -1.623744e+01 -2.150000e+01 3.762566e+00
      vertex -1.587500e+01 -2.150000e+01 3.484459e+00
    endloop
  endfacet
  facet normal 6.087614e-01 -1.758107e-15 7.933533e-01
    outer loop
      vertex -1.623744e+01 -2.150000e+01 3.762566e+00
      vertex -1.587500e+01 -1.750000e+01 3.484459e+00
      vertex -1.623744e+01 -1.750000e+01 3.762566e+00
    endloop
  endfacet
  facet normal 3.826834e-01 -1.105192e-15 9.238795e-01
    outer loop
      vertex -1.545293e+01 -1.750000e+01 3.309631e+00
      vertex -1.587500e+01 -2.150000e+01 3.484459e+00
      vertex -1.545293e+01 -2.150000e+01 3.309631e+00
    endloop
  endfacet
  facet normal 3.826834e-01 -1.105192e-15 9.238795e-01
    outer loop
      vertex -1.587500e+01 -2.150000e+01 3.484459e+00
      vertex -1.545293e+01 -1.750000e+01 3.309631e+00
      vertex -1.587500e+01 -1.750000e+01 3.484459e+00
    endloop
  endfacet
  facet normal 1.305262e-01 -3.769605e-16 9.914449e-01
    outer loop
      vertex -1.500000e+01 -1.750000e+01 3.250000e+00
      vertex -1.545293e+01 -2.150000e+01 3.309631e+00
      vertex -1.500000e+01 -2.150000e+01 3.250000e+00
    endloop
  endfacet
  facet normal 1.305262e-01 -3.769605e-16 9.914449e-01
    outer loop
      vertex -1.545293e+01 -2.150000e+01 3.309631e+00
      vertex -1.500000e+01 -1.750000e+01 3.250000e+00
      vertex -1.545293e+01 -1.750000e+01 3.309631e+00
    endloop
  endfacet
  facet normal -1.305262e-01 3.769605e-16 9.914449e-01
    outer loop
      vertex -1.454707e+01 -1.750000e+01 3.309631e+00
      vertex -1.500000e+01 -2.150000e+01 3.250000e+00
      vertex -1.454707e+01 -2.150000e+01 3.309631e+00
    endloop
  endfacet
  facet normal -1.305262e-01 3.769605e-16 9.914449e-01
    outer loop
      vertex -1.500000e+01 -2.150000e+01 3.250000e+00
      vertex -1.454707e+01 -1.750000e+01 3.309631e+00
      vertex -1.500000e+01 -1.750000e+01 3.250000e+00
    endloop
  endfacet
  facet normal -3.826834e-01 1.105192e-15 9.238795e-01
    outer loop
      vertex -1.412500e+01 -1.750000e+01 3.484459e+00
      vertex -1.454707e+01 -2.150000e+01 3.309631e+00
      vertex -1.412500e+01 -2.150000e+01 3.484459e+00
    endloop
  endfacet
  facet normal -3.826834e-01 1.105192e-15 9.238795e-01
    outer loop
      vertex -1.454707e+01 -2.150000e+01 3.309631e+00
      vertex -1.412500e+01 -1.750000e+01 3.484459e+00
      vertex -1.454707e+01 -1.750000e+01 3.309631e+00
    endloop
  endfacet
  facet normal -6.087614e-01 1.758107e-15 7.933533e-01
    outer loop
      vertex -1.376256e+01 -1.750000e+01 3.762566e+00
      vertex -1.412500e+01 -2.150000e+01 3.484459e+00
      vertex -1.376256e+01 -2.150000e+01 3.762566e+00
    endloop
  endfacet
  facet normal -6.087614e-01 1.758107e-15 7.933533e-01
    outer loop
      vertex -1.412500e+01 -2.150000e+01 3.484459e+00
      vertex -1.376256e+01 -1.750000e+01 3.762566e+00
      vertex -1.412500e+01 -1.750000e+01 3.484459e+00
    endloop
  endfacet
  facet normal -7.933533e-01 2.291210e-15 6.087614e-01
    outer loop
      vertex -1.376256e+01 -1.750000e+01 3.762566e+00
      vertex -1.348446e+01 -2.150000e+01 4.125000e+00
      vertex -1.348446e+01 -1.750000e+01 4.125000e+00
    endloop
  endfacet
  facet normal -7.933533e-01 2.291210e-15 6.087614e-01
    outer loop
      vertex -1.348446e+01 -2.150000e+01 4.125000e+00
      vertex -1.376256e+01 -1.750000e+01 3.762566e+00
      vertex -1.376256e+01 -2.150000e+01 3.762566e+00
    endloop
  endfacet
  facet normal -9.238795e-01 2.668170e-15 3.826834e-01
    outer loop
      vertex -1.348446e+01 -1.750000e+01 4.125000e+00
      vertex -1.330963e+01 -2.150000e+01 4.547066e+00
      vertex -1.330963e+01 -1.750000e+01 4.547066e+00
    endloop
  endfacet
  facet normal -9.238795e-01 2.668170e-15 3.826834e-01
    outer loop
      vertex -1.330963e+01 -2.150000e+01 4.547066e+00
      vertex -1.348446e+01 -1.750000e+01 4.125000e+00
      vertex -1.348446e+01 -2.150000e+01 4.125000e+00
    endloop
  endfacet
  facet normal -9.914449e-01 2.863299e-15 1.305262e-01
    outer loop
      vertex -1.330963e+01 -1.750000e+01 4.547066e+00
      vertex -1.325000e+01 -2.150000e+01 5.000000e+00
      vertex -1.325000e+01 -1.750000e+01 5.000000e+00
    endloop
  endfacet
  facet normal -9.914449e-01 2.863299e-15 1.305262e-01
    outer loop
      vertex -1.325000e+01 -2.150000e+01 5.000000e+00
      vertex -1.330963e+01 -1.750000e+01 4.547066e+00
      vertex -1.330963e+01 -2.150000e+01 4.547066e+00
    endloop
  endfacet
  facet normal -9.914449e-01 2.863299e-15 -1.305262e-01
    outer loop
      vertex -1.325000e+01 -1.750000e+01 5.000000e+00
      vertex -1.330963e+01 -2.150000e+01 5.452934e+00
      vertex -1.330963e+01 -1.750000e+01 5.452934e+00
    endloop
  endfacet
  facet normal -9.914449e-01 2.863299e-15 -1.305262e-01
    outer loop
      vertex -1.330963e+01 -2.150000e+01 5.452934e+00
      vertex -1.325000e+01 -1.750000e+01 5.000000e+00
      vertex -1.325000e+01 -2.150000e+01 5.000000e+00
    endloop
  endfacet
  facet normal -9.238795e-01 2.668170e-15 -3.826834e-01
    outer loop
      vertex -1.330963e+01 -1.750000e+01 5.452934e+00
      vertex -1.348446e+01 -2.150000e+01 5.875000e+00
      vertex -1.348446e+01 -1.750000e+01 5.875000e+00
    endloop
  endfacet
  facet normal -9.238795e-01 2.668170e-15 -3.826834e-01
    outer loop
      vertex -1.348446e+01 -2.150000e+01 5.875000e+00
      vertex -1.330963e+01 -1.750000e+01 5.452934e+00
      vertex -1.330963e+01 -2.150000e+01 5.452934e+00
    endloop
  endfacet
  facet normal -7.933533e-01 2.291210e-15 -6.087614e-01
    outer loop
      vertex -1.348446e+01 -1.750000e+01 5.875000e+00
      vertex -1.376256e+01 -2.150000e+01 6.237434e+00
      vertex -1.376256e+01 -1.750000e+01 6.237434e+00
    endloop
  endfacet
  facet normal -7.933533e-01 2.291210e-15 -6.087614e-01
    outer loop
      vertex -1.376256e+01 -2.150000e+01 6.237434e+00
      vertex -1.348446e+01 -1.750000e+01 5.875000e+00
      vertex -1.348446e+01 -2.150000e+01 5.875000e+00
    endloop
  endfacet
  facet normal -6.087614e-01 1.758107e-15 -7.933533e-01
    outer loop
      vertex -1.412500e+01 -1.750000e+01 6.515541e+00
      vertex -1.376256e+01 -2.150000e+01 6.237434e+00
      vertex -1.412500e+01 -2.150000e+01 6.515541e+00
    endloop
  endfacet
  facet normal -6.087614e-01 1.758107e-15 -7.933533e-01
    outer loop
      vertex -1.376256e+01 -2.150000e+01 6.237434e+00
      vertex -1.412500e+01 -1.750000e+01 6.515541e+00
      vertex -1.376256e+01 -1.750000e+01 6.237434e+00
    endloop
  endfacet
  facet normal -3.826834e-01 1.105192e-15 -9.238795e-01
    outer loop
      vertex -1.454707e+01 -1.750000e+01 6.690369e+00
      vertex -1.412500e+01 -2.150000e+01 6.515541e+00
      vertex -1.454707e+01 -2.150000e+01 6.690369e+00
    endloop
  endfacet
  facet normal -3.826834e-01 1.105192e-15 -9.238795e-01
    outer loop
      vertex -1.412500e+01 -2.150000e+01 6.515541e+00
      vertex -1.454707e+01 -1.750000e+01 6.690369e+00
      vertex -1.412500e+01 -1.750000e+01 6.515541e+00
    endloop
  endfacet
  facet normal 9.914449e-01 -2.862163e-15 -1.305262e-01
    outer loop
      vertex -1.675000e+01 -2.150000e+01 1.900000e+01
      vertex -1.669037e+01 -1.750000e+01 1.945293e+01
      vertex -1.669037e+01 -2.150000e+01 1.945293e+01
    endloop
  endfacet
  facet normal 9.914449e-01 -2.862163e-15 -1.305262e-01
    outer loop
      vertex -1.669037e+01 -1.750000e+01 1.945293e+01
      vertex -1.675000e+01 -2.150000e+01 1.900000e+01
      vertex -1.675000e+01 -1.750000e+01 1.900000e+01
    endloop
  endfacet
  facet normal 9.914449e-01 -2.862163e-15 1.305262e-01
    outer loop
      vertex -1.669037e+01 -2.150000e+01 1.854707e+01
      vertex -1.675000e+01 -1.750000e+01 1.900000e+01
      vertex -1.675000e+01 -2.150000e+01 1.900000e+01
    endloop
  endfacet
  facet normal 9.914449e-01 -2.862163e-15 1.305262e-01
    outer loop
      vertex -1.675000e+01 -1.750000e+01 1.900000e+01
      vertex -1.669037e+01 -2.150000e+01 1.854707e+01
      vertex -1.669037e+01 -1.750000e+01 1.854707e+01
    endloop
  endfacet
  facet normal 9.238795e-01 -2.668170e-15 3.826834e-01
    outer loop
      vertex -1.651554e+01 -2.150000e+01 1.812500e+01
      vertex -1.669037e+01 -1.750000e+01 1.854707e+01
      vertex -1.669037e+01 -2.150000e+01 1.854707e+01
    endloop
  endfacet
  facet normal 9.238795e-01 -2.668170e-15 3.826834e-01
    outer loop
      vertex -1.669037e+01 -1.750000e+01 1.854707e+01
      vertex -1.651554e+01 -2.150000e+01 1.812500e+01
      vertex -1.651554e+01 -1.750000e+01 1.812500e+01
    endloop
  endfacet
  facet normal 7.933533e-01 -2.287573e-15 6.087614e-01
    outer loop
      vertex -1.623744e+01 -2.150000e+01 1.776257e+01
      vertex -1.651554e+01 -1.750000e+01 1.812500e+01
      vertex -1.651554e+01 -2.150000e+01 1.812500e+01
    endloop
  endfacet
  facet normal 7.933533e-01 -2.287573e-15 6.087614e-01
    outer loop
      vertex -1.651554e+01 -1.750000e+01 1.812500e+01
      vertex -1.623744e+01 -2.150000e+01 1.776257e+01
      vertex -1.623744e+01 -1.750000e+01 1.776257e+01
    endloop
  endfacet
  facet normal 6.087614e-01 -1.758107e-15 7.933533e-01
    outer loop
      vertex -1.587500e+01 -1.750000e+01 1.748446e+01
      vertex -1.623744e+01 -2.150000e+01 1.776257e+01
      vertex -1.587500e+01 -2.150000e+01 1.748446e+01
    endloop
  endfacet
  facet normal 6.087614e-01 -1.758107e-15 7.933533e-01
    outer loop
      vertex -1.623744e+01 -2.150000e+01 1.776257e+01
      vertex -1.587500e+01 -1.750000e+01 1.748446e+01
      vertex -1.623744e+01 -1.750000e+01 1.776257e+01
    endloop
  endfacet
  facet normal 3.826834e-01 -1.105192e-15 9.238795e-01
    outer loop
      vertex -1.545293e+01 -1.750000e+01 1.730963e+01
      vertex -1.587500e+01 -2.150000e+01 1.748446e+01
      vertex -1.545293e+01 -2.150000e+01 1.730963e+01
    endloop
  endfacet
  facet normal 3.826834e-01 -1.105192e-15 9.238795e-01
    outer loop
      vertex -1.587500e+01 -2.150000e+01 1.748446e+01
      vertex -1.545293e+01 -1.750000e+01 1.730963e+01
      vertex -1.587500e+01 -1.750000e+01 1.748446e+01
    endloop
  endfacet
  facet normal 1.305262e-01 -3.769605e-16 9.914449e-01
    outer loop
      vertex -1.500000e+01 -1.750000e+01 1.725000e+01
      vertex -1.545293e+01 -2.150000e+01 1.730963e+01
      vertex -1.500000e+01 -2.150000e+01 1.725000e+01
    endloop
  endfacet
  facet normal 1.305262e-01 -3.769605e-16 9.914449e-01
    outer loop
      vertex -1.545293e+01 -2.150000e+01 1.730963e+01
      vertex -1.500000e+01 -1.750000e+01 1.725000e+01
      vertex -1.545293e+01 -1.750000e+01 1.730963e+01
    endloop
  endfacet
  facet normal -1.305262e-01 3.769605e-16 9.914449e-01
    outer loop
      vertex -1.454707e+01 -1.750000e+01 1.730963e+01
      vertex -1.500000e+01 -2.150000e+01 1.725000e+01
      vertex -1.454707e+01 -2.150000e+01 1.730963e+01
    endloop
  endfacet
  facet normal -1.305262e-01 3.769605e-16 9.914449e-01
    outer loop
      vertex -1.500000e+01 -2.150000e+01 1.725000e+01
      vertex -1.454707e+01 -1.750000e+01 1.730963e+01
      vertex -1.500000e+01 -1.750000e+01 1.725000e+01
    endloop
  endfacet
  facet normal -3.826834e-01 1.105192e-15 9.238795e-01
    outer loop
      vertex -1.412500e+01 -1.750000e+01 1.748446e+01
      vertex -1.454707e+01 -2.150000e+01 1.730963e+01
      vertex -1.412500e+01 -2.150000e+01 1.748446e+01
    endloop
  endfacet
  facet normal -3.826834e-01 1.105192e-15 9.238795e-01
    outer loop
      vertex -1.454707e+01 -2.150000e+01 1.730963e+01
      vertex -1.412500e+01 -1.750000e+01 1.748446e+01
      vertex -1.454707e+01 -1.750000e+01 1.730963e+01
    endloop
  endfacet
  facet normal -6.087614e-01 1.758107e-15 7.933533e-01
    outer loop
      vertex -1.376256e+01 -1.750000e+01 1.776257e+01
      vertex -1.412500e+01 -2.150000e+01 1.748446e+01
      vertex -1.376256e+01 -2.150000e+01 1.776257e+01
    endloop
  endfacet
  facet normal -6.087614e-01 1.758107e-15 7.933533e-01
    outer loop
      vertex -1.412500e+01 -2.150000e+01 1.748446e+01
      vertex -1.376256e+01 -1.750000e+01 1.776257e+01
      vertex -1.412500e+01 -1.750000e+01 1.748446e+01
    endloop
  endfacet
  facet normal -7.933533e-01 2.287573e-15 6.087614e-01
    outer loop
      vertex -1.376256e+01 -1.750000e+01 1.776257e+01
      vertex -1.348446e+01 -2.150000e+01 1.812500e+01
      vertex -1.348446e+01 -1.750000e+01 1.812500e+01
    endloop
  endfacet
  facet normal -7.933533e-01 2.287573e-15 6.087614e-01
    outer loop
      vertex -1.348446e+01 -2.150000e+01 1.812500e+01
      vertex -1.376256e+01 -1.750000e+01 1.776257e+01
      vertex -1.376256e+01 -2.150000e+01 1.776257e+01
    endloop
  endfacet
  facet normal -9.238795e-01 2.668170e-15 3.826834e-01
    outer loop
      vertex -1.348446e+01 -1.750000e+01 1.812500e+01
      vertex -1.330963e+01 -2.150000e+01 1.854707e+01
      vertex -1.330963e+01 -1.750000e+01 1.854707e+01
    endloop
  endfacet
  facet normal -9.238795e-01 2.668170e-15 3.826834e-01
    outer loop
      vertex -1.330963e+01 -2.150000e+01 1.854707e+01
      vertex -1.348446e+01 -1.750000e+01 1.812500e+01
      vertex -1.348446e+01 -2.150000e+01 1.812500e+01
    endloop
  endfacet
  facet normal -9.914449e-01 2.862163e-15 1.305262e-01
    outer loop
      vertex -1.330963e+01 -1.750000e+01 1.854707e+01
      vertex -1.325000e+01 -2.150000e+01 1.900000e+01
      vertex -1.325000e+01 -1.750000e+01 1.900000e+01
    endloop
  endfacet
  facet normal -9.914449e-01 2.862163e-15 1.305262e-01
    outer loop
      vertex -1.325000e+01 -2.150000e+01 1.900000e+01
      vertex -1.330963e+01 -1.750000e+01 1.854707e+01
      vertex -1.330963e+01 -2.150000e+01 1.854707e+01
    endloop
  endfacet
  facet normal -9.914449e-01 2.862163e-15 -1.305262e-01
    outer loop
      vertex -1.325000e+01 -1.750000e+01 1.900000e+01
      vertex -1.330963e+01 -2.150000e+01 1.945293e+01
      vertex -1.330963e+01 -1.750000e+01 1.945293e+01
    endloop
  endfacet
  facet normal -9.914449e-01 2.862163e-15 -1.305262e-01
    outer loop
      vertex -1.330963e+01 -2.150000e+01 1.945293e+01
      vertex -1.325000e+01 -1.750000e+01 1.900000e+01
      vertex -1.325000e+01 -2.150000e+01 1.900000e+01
    endloop
  endfacet
  facet normal -9.238795e-01 2.668170e-15 -3.826834e-01
    outer loop
      vertex -1.330963e+01 -1.750000e+01 1.945293e+01
      vertex -1.348446e+01 -2.150000e+01 1.987500e+01
      vertex -1.348446e+01 -1.750000e+01 1.987500e+01
    endloop
  endfacet
  facet normal -9.238795e-01 2.668170e-15 -3.826834e-01
    outer loop
      vertex -1.348446e+01 -2.150000e+01 1.987500e+01
      vertex -1.330963e+01 -1.750000e+01 1.945293e+01
      vertex -1.330963e+01 -2.150000e+01 1.945293e+01
    endloop
  endfacet
  facet normal -7.933533e-01 2.287573e-15 -6.087614e-01
    outer loop
      vertex -1.348446e+01 -1.750000e+01 1.987500e+01
      vertex -1.376256e+01 -2.150000e+01 2.023743e+01
      vertex -1.376256e+01 -1.750000e+01 2.023743e+01
    endloop
  endfacet
  facet normal -7.933533e-01 2.287573e-15 -6.087614e-01
    outer loop
      vertex -1.376256e+01 -2.150000e+01 2.023743e+01
      vertex -1.348446e+01 -1.750000e+01 1.987500e+01
      vertex -1.348446e+01 -2.150000e+01 1.987500e+01
    endloop
  endfacet
  facet normal -6.087614e-01 1.758107e-15 -7.933533e-01
    outer loop
      vertex -1.412500e+01 -1.750000e+01 2.051554e+01
      vertex -1.376256e+01 -2.150000e+01 2.023743e+01
      vertex -1.412500e+01 -2.150000e+01 2.051554e+01
    endloop
  endfacet
  facet normal -6.087614e-01 1.758107e-15 -7.933533e-01
    outer loop
      vertex -1.376256e+01 -2.150000e+01 2.023743e+01
      vertex -1.412500e+01 -1.750000e+01 2.051554e+01
      vertex -1.376256e+01 -1.750000e+01 2.023743e+01
    endloop
  endfacet
  facet normal -3.826834e-01 1.105192e-15 -9.238795e-01
    outer loop
      vertex -1.454707e+01 -1.750000e+01 2.069037e+01
      vertex -1.412500e+01 -2.150000e+01 2.051554e+01
      vertex -1.454707e+01 -2.150000e+01 2.069037e+01
    endloop
  endfacet
  facet normal -3.826834e-01 1.105192e-15 -9.238795e-01
    outer loop
      vertex -1.412500e+01 -2.150000e+01 2.051554e+01
      vertex -1.454707e+01 -1.750000e+01 2.069037e+01
      vertex -1.412500e+01 -1.750000e+01 2.051554e+01
    endloop
  endfacet
  facet normal -1.305262e-01 3.769605e-16 -9.914449e-01
    outer loop
      vertex -1.500000e+01 -1.750000e+01 2.075000e+01
      vertex -1.454707e+01 -2.150000e+01 2.069037e+01
      vertex -1.500000e+01 -2.150000e+01 2.075000e+01
    endloop
  endfacet
  facet normal -1.305262e-01 3.769605e-16 -9.914449e-01
    outer loop
      vertex -1.454707e+01 -2.150000e+01 2.069037e+01
      vertex -1.500000e+01 -1.750000e+01 2.075000e+01
      vertex -1.454707e+01 -1.750000e+01 2.069037e+01
    endloop
  endfacet
  facet normal 1.305262e-01 -3.769605e-16 -9.914449e-01
    outer loop
      vertex -1.545293e+01 -1.750000e+01 2.069037e+01
      vertex -1.500000e+01 -2.150000e+01 2.075000e+01
      vertex -1.545293e+01 -2.150000e+01 2.069037e+01
    endloop
  endfacet
  facet normal 1.305262e-01 -3.769605e-16 -9.914449e-01
    outer loop
      vertex -1.500000e+01 -2.150000e+01 2.075000e+01
      vertex -1.545293e+01 -1.750000e+01 2.069037e+01
      vertex -1.500000e+01 -1.750000e+01 2.075000e+01
    endloop
  endfacet
  facet normal 3.826834e-01 -1.105192e-15 -9.238795e-01
    outer loop
      vertex -1.587500e+01 -1.750000e+01 2.051554e+01
      vertex -1.545293e+01 -2.150000e+01 2.069037e+01
      vertex -1.587500e+01 -2.150000e+01 2.051554e+01
    endloop
  endfacet
  facet normal 3.826834e-01 -1.105192e-15 -9.238795e-01
    outer loop
      vertex -1.545293e+01 -2.150000e+01 2.069037e+01
      vertex -1.587500e+01 -1.750000e+01 2.051554e+01
      vertex -1.545293e+01 -1.750000e+01 2.069037e+01
    endloop
  endfacet
  facet normal 6.087614e-01 -1.758107e-15 -7.933533e-01
    outer loop
      vertex -1.623744e+01 -1.750000e+01 2.023743e+01
      vertex -1.587500e+01 -2.150000e+01 2.051554e+01
      vertex -1.623744e+01 -2.150000e+01 2.023743e+01
    endloop
  endfacet
  facet normal 6.087614e-01 -1.758107e-15 -7.933533e-01
    outer loop
      vertex -1.587500e+01 -2.150000e+01 2.051554e+01
      vertex -1.623744e+01 -1.750000e+01 2.023743e+01
      vertex -1.587500e+01 -1.750000e+01 2.051554e+01
    endloop
  endfacet
  facet normal 7.933533e-01 -2.287573e-15 -6.087614e-01
    outer loop
      vertex -1.651554e+01 -2.150000e+01 1.987500e+01
      vertex -1.623744e+01 -1.750000e+01 2.023743e+01
      vertex -1.623744e+01 -2.150000e+01 2.023743e+01
    endloop
  endfacet
  facet normal 7.933533e-01 -2.287573e-15 -6.087614e-01
    outer loop
      vertex -1.623744e+01 -1.750000e+01 2.023743e+01
      vertex -1.651554e+01 -2.150000e+01 1.987500e+01
      vertex -1.651554e+01 -1.750000e+01 1.987500e+01
    endloop
  endfacet
  facet normal 9.238795e-01 -2.668170e-15 -3.826834e-01
    outer loop
      vertex -1.669037e+01 -2.150000e+01 1.945293e+01
      vertex -1.651554e+01 -1.750000e+01 1.987500e+01
      vertex -1.651554e+01 -2.150000e+01 1.987500e+01
    endloop
  endfacet
  facet normal 9.238795e-01 -2.668170e-15 -3.826834e-01
    outer loop
      vertex -1.651554e+01 -1.750000e+01 1.987500e+01
      vertex -1.669037e+01 -2.150000e+01 1.945293e+01
      vertex -1.669037e+01 -1.750000e+01 1.945293e+01
    endloop
  endfacet
  facet normal 1.305262e-01 0.000000e+00 9.914449e-01
    outer loop
      vertex 1.100000e+01 2.150000e+01 8.000000e+00
      vertex 9.964725e+00 1.650000e+01 8.136299e+00
      vertex 1.100000e+01 1.650000e+01 8.000000e+00
    endloop
  endfacet
  facet normal 1.305262e-01 0.000000e+00 9.914449e-01
    outer loop
      vertex 9.964725e+00 1.650000e+01 8.136299e+00
      vertex 1.100000e+01 2.150000e+01 8.000000e+00
      vertex 9.964725e+00 2.150000e+01 8.136299e+00
    endloop
  endfacet
  facet normal -1.305262e-01 -0.000000e+00 9.914449e-01
    outer loop
      vertex 1.203527e+01 2.150000e+01 8.136299e+00
      vertex 1.100000e+01 1.650000e+01 8.000000e+00
      vertex 1.203527e+01 1.650000e+01 8.136299e+00
    endloop
  endfacet
  facet normal -1.305262e-01 -0.000000e+00 9.914449e-01
    outer loop
      vertex 1.100000e+01 1.650000e+01 8.000000e+00
      vertex 1.203527e+01 2.150000e+01 8.136299e+00
      vertex 1.100000e+01 2.150000e+01 8.000000e+00
    endloop
  endfacet
  facet normal -3.826834e-01 -0.000000e+00 9.238795e-01
    outer loop
      vertex 1.300000e+01 2.150000e+01 8.535896e+00
      vertex 1.203527e+01 1.650000e+01 8.136299e+00
      vertex 1.300000e+01 1.650000e+01 8.535896e+00
    endloop
  endfacet
  facet normal -3.826834e-01 -0.000000e+00 9.238795e-01
    outer loop
      vertex 1.203527e+01 1.650000e+01 8.136299e+00
      vertex 1.300000e+01 2.150000e+01 8.535896e+00
      vertex 1.203527e+01 2.150000e+01 8.136299e+00
    endloop
  endfacet
  facet normal -6.087614e-01 -0.000000e+00 7.933533e-01
    outer loop
      vertex 1.382843e+01 2.150000e+01 9.171570e+00
      vertex 1.300000e+01 1.650000e+01 8.535896e+00
      vertex 1.382843e+01 1.650000e+01 9.171570e+00
    endloop
  endfacet
  facet normal -6.087614e-01 -0.000000e+00 7.933533e-01
    outer loop
      vertex 1.300000e+01 1.650000e+01 8.535896e+00
      vertex 1.382843e+01 2.150000e+01 9.171570e+00
      vertex 1.300000e+01 2.150000e+01 8.535896e+00
    endloop
  endfacet
  facet normal -7.933533e-01 -0.000000e+00 6.087614e-01
    outer loop
      vertex 1.382843e+01 2.150000e+01 9.171570e+00
      vertex 1.446410e+01 1.650000e+01 1.000000e+01
      vertex 1.446410e+01 2.150000e+01 1.000000e+01
    endloop
  endfacet
  facet normal -7.933533e-01 -0.000000e+00 6.087614e-01
    outer loop
      vertex 1.446410e+01 1.650000e+01 1.000000e+01
      vertex 1.382843e+01 2.150000e+01 9.171570e+00
      vertex 1.382843e+01 1.650000e+01 9.171570e+00
    endloop
  endfacet
  facet normal -9.238795e-01 -0.000000e+00 3.826834e-01
    outer loop
      vertex 1.446410e+01 2.150000e+01 1.000000e+01
      vertex 1.486370e+01 1.650000e+01 1.096472e+01
      vertex 1.486370e+01 2.150000e+01 1.096472e+01
    endloop
  endfacet
  facet normal -9.238795e-01 -0.000000e+00 3.826834e-01
    outer loop
      vertex 1.486370e+01 1.650000e+01 1.096472e+01
      vertex 1.446410e+01 2.150000e+01 1.000000e+01
      vertex 1.446410e+01 1.650000e+01 1.000000e+01
    endloop
  endfacet
  facet normal -9.914449e-01 -0.000000e+00 1.305262e-01
    outer loop
      vertex 1.486370e+01 2.150000e+01 1.096472e+01
      vertex 1.500000e+01 1.650000e+01 1.200000e+01
      vertex 1.500000e+01 2.150000e+01 1.200000e+01
    endloop
  endfacet
  facet normal -9.914449e-01 -0.000000e+00 1.305262e-01
    outer loop
      vertex 1.500000e+01 1.650000e+01 1.200000e+01
      vertex 1.486370e+01 2.150000e+01 1.096472e+01
      vertex 1.486370e+01 1.650000e+01 1.096472e+01
    endloop
  endfacet
  facet normal -9.914449e-01 0.000000e+00 -1.305262e-01
    outer loop
      vertex 1.500000e+01 2.150000e+01 1.200000e+01
      vertex 1.486370e+01 1.650000e+01 1.303528e+01
      vertex 1.486370e+01 2.150000e+01 1.303528e+01
    endloop
  endfacet
  facet normal -9.914449e-01 0.000000e+00 -1.305262e-01
    outer loop
      vertex 1.486370e+01 1.650000e+01 1.303528e+01
      vertex 1.500000e+01 2.150000e+01 1.200000e+01
      vertex 1.500000e+01 1.650000e+01 1.200000e+01
    endloop
  endfacet
  facet normal -9.238795e-01 0.000000e+00 -3.826834e-01
    outer loop
      vertex 1.486370e+01 2.150000e+01 1.303528e+01
      vertex 1.446410e+01 1.650000e+01 1.400000e+01
      vertex 1.446410e+01 2.150000e+01 1.400000e+01
    endloop
  endfacet
  facet normal -9.238795e-01 0.000000e+00 -3.826834e-01
    outer loop
      vertex 1.446410e+01 1.650000e+01 1.400000e+01
      vertex 1.486370e+01 2.150000e+01 1.303528e+01
      vertex 1.486370e+01 1.650000e+01 1.303528e+01
    endloop
  endfacet
  facet normal -7.933533e-01 0.000000e+00 -6.087614e-01
    outer loop
      vertex 1.446410e+01 2.150000e+01 1.400000e+01
      vertex 1.382843e+01 1.650000e+01 1.482843e+01
      vertex 1.382843e+01 2.150000e+01 1.482843e+01
    endloop
  endfacet
  facet normal -7.933533e-01 0.000000e+00 -6.087614e-01
    outer loop
      vertex 1.382843e+01 1.650000e+01 1.482843e+01
      vertex 1.446410e+01 2.150000e+01 1.400000e+01
      vertex 1.446410e+01 1.650000e+01 1.400000e+01
    endloop
  endfacet
  facet normal -6.087614e-01 0.000000e+00 -7.933533e-01
    outer loop
      vertex 1.300000e+01 2.150000e+01 1.546410e+01
      vertex 1.382843e+01 1.650000e+01 1.482843e+01
      vertex 1.300000e+01 1.650000e+01 1.546410e+01
    endloop
  endfacet
  facet normal -6.087614e-01 0.000000e+00 -7.933533e-01
    outer loop
      vertex 1.382843e+01 1.650000e+01 1.482843e+01
      vertex 1.300000e+01 2.150000e+01 1.546410e+01
      vertex 1.382843e+01 2.150000e+01 1.482843e+01
    endloop
  endfacet
  facet normal -3.826834e-01 0.000000e+00 -9.238795e-01
    outer loop
      vertex 1.203527e+01 2.150000e+01 1.586370e+01
      vertex 1.300000e+01 1.650000e+01 1.546410e+01
      vertex 1.203527e+01 1.650000e+01 1.586370e+01
    endloop
  endfacet
  facet normal -3.826834e-01 0.000000e+00 -9.238795e-01
    outer loop
      vertex 1.300000e+01 1.650000e+01 1.546410e+01
      vertex 1.203527e+01 2.150000e+01 1.586370e+01
      vertex 1.300000e+01 2.150000e+01 1.546410e+01
    endloop
  endfacet
  facet normal -1.305262e-01 0.000000e+00 -9.914449e-01
    outer loop
      vertex 1.100000e+01 2.150000e+01 1.600000e+01
      vertex 1.203527e+01 1.650000e+01 1.586370e+01
      vertex 1.100000e+01 1.650000e+01 1.600000e+01
    endloop
  endfacet
  facet normal -1.305262e-01 0.000000e+00 -9.914449e-01
    outer loop
      vertex 1.203527e+01 1.650000e+01 1.586370e+01
      vertex 1.100000e+01 2.150000e+01 1.600000e+01
      vertex 1.203527e+01 2.150000e+01 1.586370e+01
    endloop
  endfacet
  facet normal 1.305262e-01 0.000000e+00 -9.914449e-01
    outer loop
      vertex 9.964725e+00 2.150000e+01 1.586370e+01
      vertex 1.100000e+01 1.650000e+01 1.600000e+01
      vertex 9.964725e+00 1.650000e+01 1.586370e+01
    endloop
  endfacet
  facet normal 1.305262e-01 0.000000e+00 -9.914449e-01
    outer loop
      vertex 1.100000e+01 1.650000e+01 1.600000e+01
      vertex 9.964725e+00 2.150000e+01 1.586370e+01
      vertex 1.100000e+01 2.150000e+01 1.600000e+01
    endloop
  endfacet
  facet normal 3.826834e-01 0.000000e+00 -9.238795e-01
    outer loop
      vertex 9.000000e+00 2.150000e+01 1.546410e+01
      vertex 9.964725e+00 1.650000e+01 1.586370e+01
      vertex 9.000000e+00 1.650000e+01 1.546410e+01
    endloop
  endfacet
  facet normal 3.826834e-01 0.000000e+00 -9.238795e-01
    outer loop
      vertex 9.964725e+00 1.650000e+01 1.586370e+01
      vertex 9.000000e+00 2.150000e+01 1.546410e+01
      vertex 9.964725e+00 2.150000e+01 1.586370e+01
    endloop
  endfacet
  facet normal 6.087614e-01 0.000000e+00 -7.933533e-01
    outer loop
      vertex 8.171574e+00 2.150000e+01 1.482843e+01
      vertex 9.000000e+00 1.650000e+01 1.546410e+01
      vertex 8.171574e+00 1.650000e+01 1.482843e+01
    endloop
  endfacet
  facet normal 6.087614e-01 0.000000e+00 -7.933533e-01
    outer loop
      vertex 9.000000e+00 1.650000e+01 1.546410e+01
      vertex 8.171574e+00 2.150000e+01 1.482843e+01
      vertex 9.000000e+00 2.150000e+01 1.546410e+01
    endloop
  endfacet
  facet normal 7.933533e-01 0.000000e+00 -6.087614e-01
    outer loop
      vertex 7.535900e+00 1.650000e+01 1.400000e+01
      vertex 8.171574e+00 2.150000e+01 1.482843e+01
      vertex 8.171574e+00 1.650000e+01 1.482843e+01
    endloop
  endfacet
  facet normal 7.933533e-01 0.000000e+00 -6.087614e-01
    outer loop
      vertex 8.171574e+00 2.150000e+01 1.482843e+01
      vertex 7.535900e+00 1.650000e+01 1.400000e+01
      vertex 7.535900e+00 2.150000e+01 1.400000e+01
    endloop
  endfacet
  facet normal 9.238795e-01 0.000000e+00 -3.826834e-01
    outer loop
      vertex 7.136295e+00 1.650000e+01 1.303528e+01
      vertex 7.535900e+00 2.150000e+01 1.400000e+01
      vertex 7.535900e+00 1.650000e+01 1.400000e+01
    endloop
  endfacet
  facet normal 9.238795e-01 0.000000e+00 -3.826834e-01
    outer loop
      vertex 7.535900e+00 2.150000e+01 1.400000e+01
      vertex 7.136295e+00 1.650000e+01 1.303528e+01
      vertex 7.136295e+00 2.150000e+01 1.303528e+01
    endloop
  endfacet
  facet normal 9.914449e-01 -6.965711e-31 -1.305262e-01
    outer loop
      vertex 7.131653e+00 1.650000e+01 1.300000e+01
      vertex 7.136295e+00 2.150000e+01 1.303528e+01
      vertex 7.136295e+00 1.650000e+01 1.303528e+01
    endloop
  endfacet
  facet normal 9.914449e-01 -6.965711e-31 -1.305262e-01
    outer loop
      vertex 7.136295e+00 2.150000e+01 1.303528e+01
      vertex 7.131653e+00 1.650000e+01 1.300000e+01
      vertex 7.131653e+00 2.150000e+01 1.300000e+01
    endloop
  endfacet
  facet normal 7.933533e-01 0.000000e+00 6.087614e-01
    outer loop
      vertex 8.171574e+00 1.650000e+01 9.171570e+00
      vertex 7.535900e+00 2.150000e+01 1.000000e+01
      vertex 7.535900e+00 1.650000e+01 1.000000e+01
    endloop
  endfacet
  facet normal 7.933533e-01 0.000000e+00 6.087614e-01
    outer loop
      vertex 7.535900e+00 2.150000e+01 1.000000e+01
      vertex 8.171574e+00 1.650000e+01 9.171570e+00
      vertex 8.171574e+00 2.150000e+01 9.171570e+00
    endloop
  endfacet
  facet normal 6.087614e-01 0.000000e+00 7.933533e-01
    outer loop
      vertex 9.000000e+00 2.150000e+01 8.535896e+00
      vertex 8.171574e+00 1.650000e+01 9.171570e+00
      vertex 9.000000e+00 1.650000e+01 8.535896e+00
    endloop
  endfacet
  facet normal 6.087614e-01 0.000000e+00 7.933533e-01
    outer loop
      vertex 8.171574e+00 1.650000e+01 9.171570e+00
      vertex 9.000000e+00 2.150000e+01 8.535896e+00
      vertex 8.171574e+00 2.150000e+01 9.171570e+00
    endloop
  endfacet
  facet normal 3.826834e-01 0.000000e+00 9.238795e-01
    outer loop
      vertex 9.964725e+00 2.150000e+01 8.136299e+00
      vertex 9.000000e+00 1.650000e+01 8.535896e+00
      vertex 9.964725e+00 1.650000e+01 8.136299e+00
    endloop
  endfacet
  facet normal 3.826834e-01 0.000000e+00 9.238795e-01
    outer loop
      vertex 9.000000e+00 1.650000e+01 8.535896e+00
      vertex 9.964725e+00 2.150000e+01 8.136299e+00
      vertex 9.000000e+00 2.150000e+01 8.535896e+00
    endloop
  endfacet
  facet normal 1.000000e+00 0.000000e+00 6.123234e-17
    outer loop
      vertex 2.000000e+01 1.650000e+01 0.000000e+00
      vertex 2.000000e+01 2.150000e+01 2.400000e+01
      vertex 2.000000e+01 1.650000e+01 2.400000e+01
    endloop
  endfacet
  facet normal 1.000000e+00 0.000000e+00 6.123234e-17
    outer loop
      vertex 2.000000e+01 2.150000e+01 2.400000e+01
      vertex 2.000000e+01 1.650000e+01 0.000000e+00
      vertex 2.000000e+01 2.150000e+01 0.000000e+00
    endloop
  endfacet
  facet normal 9.914449e-01 0.000000e+00 1.305262e-01
    outer loop
      vertex 7.136295e+00 1.650000e+01 1.096472e+01
      vertex 7.131653e+00 2.150000e+01 1.100000e+01
      vertex 7.131653e+00 1.650000e+01 1.100000e+01
    endloop
  endfacet
  facet normal 9.914449e-01 0.000000e+00 1.305262e-01
    outer loop
      vertex 7.131653e+00 2.150000e+01 1.100000e+01
      vertex 7.136295e+00 1.650000e+01 1.096472e+01
      vertex 7.136295e+00 2.150000e+01 1.096472e+01
    endloop
  endfacet
  facet normal 9.238795e-01 0.000000e+00 3.826834e-01
    outer loop
      vertex 7.535900e+00 1.650000e+01 1.000000e+01
      vertex 7.136295e+00 2.150000e+01 1.096472e+01
      vertex 7.136295e+00 1.650000e+01 1.096472e+01
    endloop
  endfacet
  facet normal 9.238795e-01 0.000000e+00 3.826834e-01
    outer loop
      vertex 7.136295e+00 2.150000e+01 1.096472e+01
      vertex 7.535900e+00 1.650000e+01 1.000000e+01
      vertex 7.535900e+00 2.150000e+01 1.000000e+01
    endloop
  endfacet
  facet normal 3.610651e-31 -1.000000e+00 -7.958471e-32
    outer loop
      vertex 5.000000e+00 1.650000e+01 0.000000e+00
      vertex 4.000000e+00 1.650000e+01 1.000000e+01
      vertex 4.000000e+00 1.650000e+01 1.000000e+00
    endloop
  endfacet
  facet normal 3.610651e-31 -1.000000e+00 -7.958471e-32
    outer loop
      vertex 4.000000e+00 1.650000e+01 1.000000e+01
      vertex 5.000000e+00 1.650000e+01 0.000000e+00
      vertex 5.000000e+00 1.650000e+01 1.100000e+01
    endloop
  endfacet
  facet normal 3.610651e-31 -1.000000e+00 -7.958471e-32
    outer loop
      vertex 5.000000e+00 1.650000e+01 1.100000e+01
      vertex 5.000000e+00 1.650000e+01 0.000000e+00
      vertex 2.000000e+01 1.650000e+01 0.000000e+00
    endloop
  endfacet
  facet normal 3.610651e-31 -1.000000e+00 -7.958471e-32
    outer loop
      vertex 5.000000e+00 1.650000e+01 1.100000e+01
      vertex 2.000000e+01 1.650000e+01 0.000000e+00
      vertex 8.171574e+00 1.650000e+01 9.171570e+00
    endloop
  endfacet
  facet normal 3.610651e-31 -1.000000e+00 -7.958471e-32
    outer loop
      vertex 5.000000e+00 1.650000e+01 1.100000e+01
      vertex 8.171574e+00 1.650000e+01 9.171570e+00
      vertex 7.535900e+00 1.650000e+01 1.000000e+01
    endloop
  endfacet
  facet normal 3.610651e-31 -1.000000e+00 -7.958471e-32
    outer loop
      vertex 5.000000e+00 1.650000e+01 1.100000e+01
      vertex 7.535900e+00 1.650000e+01 1.000000e+01
      vertex 7.136295e+00 1.650000e+01 1.096472e+01
    endloop
  endfacet
  facet normal 3.610651e-31 -1.000000e+00 -7.958471e-32
    outer loop
      vertex 5.000000e+00 1.650000e+01 1.100000e+01
      vertex 7.136295e+00 1.650000e+01 1.096472e+01
      vertex 7.131653e+00 1.650000e+01 1.100000e+01
    endloop
  endfacet
  facet normal 3.610651e-31 -1.000000e+00 -7.958471e-32
    outer loop
      vertex 8.171574e+00 1.650000e+01 9.171570e+00
      vertex 2.000000e+01 1.650000e+01 0.000000e+00
      vertex 9.000000e+00 1.650000e+01 8.535896e+00
    endloop
  endfacet
  facet normal 3.610651e-31 -1.000000e+00 -7.958471e-32
    outer loop
      vertex 9.000000e+00 1.650000e+01 8.535896e+00
      vertex 2.000000e+01 1.650000e+01 0.000000e+00
      vertex 9.964725e+00 1.650000e+01 8.136299e+00
    endloop
  endfacet
  facet normal 3.610651e-31 -1.000000e+00 -7.958471e-32
    outer loop
      vertex 9.964725e+00 1.650000e+01 8.136299e+00
      vertex 2.000000e+01 1.650000e+01 0.000000e+00
      vertex 1.100000e+01 1.650000e+01 8.000000e+00
    endloop
  endfacet
  facet normal 3.610651e-31 -1.000000e+00 -7.958471e-32
    outer loop
      vertex 1.100000e+01 1.650000e+01 8.000000e+00
      vertex 2.000000e+01 1.650000e+01 0.000000e+00
      vertex 1.203527e+01 1.650000e+01 8.136299e+00
    endloop
  endfacet
  facet normal 3.610651e-31 -1.000000e+00 -7.958471e-32
    outer loop
      vertex 1.203527e+01 1.650000e+01 8.136299e+00
      vertex 2.000000e+01 1.650000e+01 0.000000e+00
      vertex 1.300000e+01 1.650000e+01 8.535896e+00
    endloop
  endfacet
  facet normal 3.610651e-31 -1.000000e+00 -7.958471e-32
    outer loop
      vertex 1.300000e+01 1.650000e+01 8.535896e+00
      vertex 2.000000e+01 1.650000e+01 0.000000e+00
      vertex 1.382843e+01 1.650000e+01 9.171570e+00
    endloop
  endfacet
  facet normal 3.610651e-31 -1.000000e+00 -7.958471e-32
    outer loop
      vertex 1.382843e+01 1.650000e+01 9.171570e+00
      vertex 2.000000e+01 1.650000e+01 0.000000e+00
      vertex 1.446410e+01 1.650000e+01 1.000000e+01
    endloop
  endfacet
  facet normal 3.610651e-31 -1.000000e+00 -7.958471e-32
    outer loop
      vertex 1.446410e+01 1.650000e+01 1.000000e+01
      vertex 2.000000e+01 1.650000e+01 0.000000e+00
      vertex 1.486370e+01 1.650000e+01 1.096472e+01
    endloop
  endfacet
  facet normal 3.610651e-31 -1.000000e+00 -7.958471e-32
    outer loop
      vertex 1.486370e+01 1.650000e+01 1.096472e+01
      vertex 2.000000e+01 1.650000e+01 0.000000e+00
      vertex 1.500000e+01 1.650000e+01 1.200000e+01
    endloop
  endfacet
  facet normal 3.610651e-31 -1.000000e+00 -7.958471e-32
    outer loop
      vertex -6.000000e+00 1.650000e+01 2.400000e+01
      vertex 2.000000e+00 1.650000e+01 1.300000e+01
      vertex 2.000000e+01 1.650000e+01 2.400000e+01
    endloop
  endfacet
  facet normal 3.610651e-31 -1.000000e+00 -7.958471e-32
    outer loop
      vertex 2.000000e+00 1.650000e+01 1.300000e+01
      vertex -6.000000e+00 1.650000e+01 2.400000e+01
      vertex -6.000000e+00 1.650000e+01 0.000000e+00
    endloop
  endfacet
  facet normal 3.610651e-31 -1.000000e+00 -7.958471e-32
    outer loop
      vertex 2.000000e+00 1.650000e+01 1.300000e+01
      vertex -6.000000e+00 1.650000e+01 0.000000e+00
      vertex 1.000000e+00 1.650000e+01 0.000000e+00
    endloop
  endfacet
  facet normal 3.610651e-31 -1.000000e+00 -7.958471e-32
    outer loop
      vertex 2.000000e+00 1.650000e+01 1.300000e+01
      vertex 1.000000e+00 1.650000e+01 0.000000e+00
      vertex 2.000000e+00 1.650000e+01 1.000000e+00
    endloop
  endfacet
  facet normal 3.610651e-31 -1.000000e+00 -7.958471e-32
    outer loop
      vertex 2.000000e+01 1.650000e+01 2.400000e+01
      vertex 2.000000e+00 1.650000e+01 1.300000e+01
      vertex 8.171574e+00 1.650000e+01 1.482843e+01
    endloop
  endfacet
  facet normal 3.610651e-31 -1.000000e+00 -7.958471e-32
    outer loop
      vertex 8.171574e+00 1.650000e+01 1.482843e+01
      vertex 2.000000e+00 1.650000e+01 1.300000e+01
      vertex 7.535900e+00 1.650000e+01 1.400000e+01
    endloop
  endfacet
  facet normal 3.610651e-31 -1.000000e+00 -7.958471e-32
    outer loop
      vertex 7.535900e+00 1.650000e+01 1.400000e+01
      vertex 2.000000e+00 1.650000e+01 1.300000e+01
      vertex 7.136295e+00 1.650000e+01 1.303528e+01
    endloop
  endfacet
  facet normal 3.610651e-31 -1.000000e+00 -7.958471e-32
    outer loop
      vertex 7.136295e+00 1.650000e+01 1.303528e+01
      vertex 2.000000e+00 1.650000e+01 1.300000e+01
      vertex 7.131653e+00 1.650000e+01 1.300000e+01
    endloop
  endfacet
  facet normal 3.610651e-31 -1.000000e+00 -7.958471e-32
    outer loop
      vertex 2.000000e+01 1.650000e+01 2.400000e+01
      vertex 8.171574e+00 1.650000e+01 1.482843e+01
      vertex 9.000000e+00 1.650000e+01 1.546410e+01
    endloop
  endfacet
  facet normal 3.610651e-31 -1.000000e+00 -7.958471e-32
    outer loop
      vertex 2.000000e+01 1.650000e+01 2.400000e+01
      vertex 9.000000e+00 1.650000e+01 1.546410e+01
      vertex 9.964725e+00 1.650000e+01 1.586370e+01
    endloop
  endfacet
  facet normal 3.610651e-31 -1.000000e+00 -7.958471e-32
    outer loop
      vertex 2.000000e+01 1.650000e+01 2.400000e+01
      vertex 9.964725e+00 1.650000e+01 1.586370e+01
      vertex 1.100000e+01 1.650000e+01 1.600000e+01
    endloop
  endfacet
  facet normal 3.610651e-31 -1.000000e+00 -7.958471e-32
    outer loop
      vertex 2.000000e+01 1.650000e+01 2.400000e+01
      vertex 1.100000e+01 1.650000e+01 1.600000e+01
      vertex 1.203527e+01 1.650000e+01 1.586370e+01
    endloop
  endfacet
  facet normal 3.610651e-31 -1.000000e+00 -7.958471e-32
    outer loop
      vertex 2.000000e+01 1.650000e+01 2.400000e+01
      vertex 1.203527e+01 1.650000e+01 1.586370e+01
      vertex 1.300000e+01 1.650000e+01 1.546410e+01
    endloop
  endfacet
  facet normal 3.610651e-31 -1.000000e+00 -7.958471e-32
    outer loop
      vertex 2.000000e+01 1.650000e+01 2.400000e+01
      vertex 1.300000e+01 1.650000e+01 1.546410e+01
      vertex 1.382843e+01 1.650000e+01 1.482843e+01
    endloop
  endfacet
  facet normal 3.610651e-31 -1.000000e+00 -7.958471e-32
    outer loop
      vertex 2.000000e+01 1.650000e+01 2.400000e+01
      vertex 1.382843e+01 1.650000e+01 1.482843e+01
      vertex 1.446410e+01 1.650000e+01 1.400000e+01
    endloop
  endfacet
  facet normal 3.610651e-31 -1.000000e+00 -7.958471e-32
    outer loop
      vertex 2.000000e+01 1.650000e+01 2.400000e+01
      vertex 1.446410e+01 1.650000e+01 1.400000e+01
      vertex 1.486370e+01 1.650000e+01 1.303528e+01
    endloop
  endfacet
  facet normal 3.610651e-31 -1.000000e+00 -7.958471e-32
    outer loop
      vertex 2.000000e+01 1.650000e+01 2.400000e+01
      vertex 1.486370e+01 1.650000e+01 1.303528e+01
      vertex 1.500000e+01 1.650000e+01 1.200000e+01
    endloop
  endfacet
  facet normal 3.610651e-31 -1.000000e+00 -7.958471e-32
    outer loop
      vertex 2.000000e+01 1.650000e+01 2.400000e+01
      vertex 1.500000e+01 1.650000e+01 1.200000e+01
      vertex 2.000000e+01 1.650000e+01 0.000000e+00
    endloop
  endfacet
  facet normal -6.123234e-17 0.000000e+00 1.000000e+00
    outer loop
      vertex 7.131653e+00 2.150000e+01 1.100000e+01
      vertex 5.000000e+00 1.650000e+01 1.100000e+01
      vertex 7.131653e+00 1.650000e+01 1.100000e+01
    endloop
  endfacet
  facet normal -6.123234e-17 0.000000e+00 1.000000e+00
    outer loop
      vertex 5.000000e+00 1.650000e+01 1.100000e+01
      vertex 7.131653e+00 2.150000e+01 1.100000e+01
      vertex 5.000000e+00 2.150000e+01 1.100000e+01
    endloop
  endfacet
  facet normal 1.000000e+00 0.000000e+00 6.123234e-17
    outer loop
      vertex 2.000000e+00 1.650000e+01 1.000000e+00
      vertex 2.000000e+00 2.150000e+01 1.300000e+01
      vertex 2.000000e+00 1.650000e+01 1.300000e+01
    endloop
  endfacet
  facet normal 1.000000e+00 0.000000e+00 6.123234e-17
    outer loop
      vertex 2.000000e+00 2.150000e+01 1.300000e+01
      vertex 2.000000e+00 1.650000e+01 1.000000e+00
      vertex 2.000000e+00 2.150000e+01 1.000000e+00
    endloop
  endfacet
  facet normal 6.123234e-17 0.000000e+00 -1.000000e+00
    outer loop
      vertex 2.000000e+00 2.150000e+01 1.300000e+01
      vertex 7.131653e+00 1.650000e+01 1.300000e+01
      vertex 2.000000e+00 1.650000e+01 1.300000e+01
    endloop
  endfacet
  facet normal 6.123234e-17 0.000000e+00 -1.000000e+00
    outer loop
      vertex 7.131653e+00 1.650000e+01 1.300000e+01
      vertex 2.000000e+00 2.150000e+01 1.300000e+01
      vertex 7.131653e+00 2.150000e+01 1.300000e+01
    endloop
  endfacet
  facet normal -1.000000e+00 0.000000e+00 -6.123234e-17
    outer loop
      vertex 4.000000e+00 2.150000e+01 1.000000e+00
      vertex 4.000000e+00 1.650000e+01 1.000000e+01
      vertex 4.000000e+00 2.150000e+01 1.000000e+01
    endloop
  endfacet
  facet normal -1.000000e+00 0.000000e+00 -6.123234e-17
    outer loop
      vertex 4.000000e+00 1.650000e+01 1.000000e+01
      vertex 4.000000e+00 2.150000e+01 1.000000e+00
      vertex 4.000000e+00 1.650000e+01 1.000000e+00
    endloop
  endfacet
  facet normal 6.123234e-17 0.000000e+00 -1.000000e+00
    outer loop
      vertex 5.000000e+00 2.150000e+01 0.000000e+00
      vertex 2.000000e+01 1.650000e+01 0.000000e+00
      vertex 5.000000e+00 1.650000e+01 0.000000e+00
    endloop
  endfacet
  facet normal 6.123234e-17 0.000000e+00 -1.000000e+00
    outer loop
      vertex 2.000000e+01 1.650000e+01 0.000000e+00
      vertex 5.000000e+00 2.150000e+01 0.000000e+00
      vertex 2.000000e+01 2.150000e+01 0.000000e+00
    endloop
  endfacet
  facet normal -3.337580e-16 1.000000e+00 1.703275e-16
    outer loop
      vertex -1.000000e+01 2.150000e+01 2.400000e+01
      vertex 2.000000e+00 2.150000e+01 1.300000e+01
      vertex -1.000000e+01 2.150000e+01 0.000000e+00
    endloop
  endfacet
  facet normal -3.337580e-16 1.000000e+00 1.703275e-16
    outer loop
      vertex 2.000000e+00 2.150000e+01 1.300000e+01
      vertex -1.000000e+01 2.150000e+01 2.400000e+01
      vertex 2.000000e+01 2.150000e+01 2.400000e+01
    endloop
  endfacet
  facet normal -3.337580e-16 1.000000e+00 1.703275e-16
    outer loop
      vertex -1.000000e+01 2.150000e+01 0.000000e+00
      vertex 2.000000e+00 2.150000e+01 1.300000e+01
      vertex 1.000000e+00 2.150000e+01 0.000000e+00
    endloop
  endfacet
  facet normal -3.337580e-16 1.000000e+00 1.703275e-16
    outer loop
      vertex 2.000000e+00 2.150000e+01 1.300000e+01
      vertex 2.000000e+01 2.150000e+01 2.400000e+01
      vertex 8.171574e+00 2.150000e+01 1.482843e+01
    endloop
  endfacet
  facet normal -3.337580e-16 1.000000e+00 1.703275e-16
    outer loop
      vertex 2.000000e+00 2.150000e+01 1.300000e+01
      vertex 8.171574e+00 2.150000e+01 1.482843e+01
      vertex 7.535900e+00 2.150000e+01 1.400000e+01
    endloop
  endfacet
  facet normal -3.337580e-16 1.000000e+00 1.703275e-16
    outer loop
      vertex 2.000000e+00 2.150000e+01 1.300000e+01
      vertex 7.535900e+00 2.150000e+01 1.400000e+01
      vertex 7.136295e+00 2.150000e+01 1.303528e+01
    endloop
  endfacet
  facet normal -3.337580e-16 1.000000e+00 1.703275e-16
    outer loop
      vertex 2.000000e+00 2.150000e+01 1.300000e+01
      vertex 7.136295e+00 2.150000e+01 1.303528e+01
      vertex 7.131653e+00 2.150000e+01 1.300000e+01
    endloop
  endfacet
  facet normal -3.337580e-16 1.000000e+00 1.703275e-16
    outer loop
      vertex 8.171574e+00 2.150000e+01 1.482843e+01
      vertex 2.000000e+01 2.150000e+01 2.400000e+01
      vertex 9.000000e+00 2.150000e+01 1.546410e+01
    endloop
  endfacet
  facet normal -3.337580e-16 1.000000e+00 1.703275e-16
    outer loop
      vertex 9.000000e+00 2.150000e+01 1.546410e+01
      vertex 2.000000e+01 2.150000e+01 2.400000e+01
      vertex 9.964725e+00 2.150000e+01 1.586370e+01
    endloop
  endfacet
  facet normal -3.337580e-16 1.000000e+00 1.703275e-16
    outer loop
      vertex 9.964725e+00 2.150000e+01 1.586370e+01
      vertex 2.000000e+01 2.150000e+01 2.400000e+01
      vertex 1.100000e+01 2.150000e+01 1.600000e+01
    endloop
  endfacet
  facet normal -3.337580e-16 1.000000e+00 1.703275e-16
    outer loop
      vertex 1.100000e+01 2.150000e+01 1.600000e+01
      vertex 2.000000e+01 2.150000e+01 2.400000e+01
      vertex 1.203527e+01 2.150000e+01 1.586370e+01
    endloop
  endfacet
  facet normal -3.337580e-16 1.000000e+00 1.703275e-16
    outer loop
      vertex 1.203527e+01 2.150000e+01 1.586370e+01
      vertex 2.000000e+01 2.150000e+01 2.400000e+01
      vertex 1.300000e+01 2.150000e+01 1.546410e+01
    endloop
  endfacet
  facet normal -3.337580e-16 1.000000e+00 1.703275e-16
    outer loop
      vertex 1.300000e+01 2.150000e+01 1.546410e+01
      vertex 2.000000e+01 2.150000e+01 2.400000e+01
      vertex 1.382843e+01 2.150000e+01 1.482843e+01
    endloop
  endfacet
  facet normal -3.337580e-16 1.000000e+00 1.703275e-16
    outer loop
      vertex 1.382843e+01 2.150000e+01 1.482843e+01
      vertex 2.000000e+01 2.150000e+01 2.400000e+01
      vertex 1.446410e+01 2.150000e+01 1.400000e+01
    endloop
  endfacet
  facet normal -3.337580e-16 1.000000e+00 1.703275e-16
    outer loop
      vertex 1.446410e+01 2.150000e+01 1.400000e+01
      vertex 2.000000e+01 2.150000e+01 2.400000e+01
      vertex 1.486370e+01 2.150000e+01 1.303528e+01
    endloop
  endfacet
  facet normal -3.337580e-16 1.000000e+00 1.703275e-16
    outer loop
      vertex 1.486370e+01 2.150000e+01 1.303528e+01
      vertex 2.000000e+01 2.150000e+01 2.400000e+01
      vertex 1.500000e+01 2.150000e+01 1.200000e+01
    endloop
  endfacet
  facet normal -3.337580e-16 1.000000e+00 1.703275e-16
    outer loop
      vertex 5.000000e+00 2.150000e+01 1.100000e+01
      vertex 4.000000e+00 2.150000e+01 1.000000e+00
      vertex 4.000000e+00 2.150000e+01 1.000000e+01
    endloop
  endfacet
  facet normal -3.337580e-16 1.000000e+00 1.703275e-16
    outer loop
      vertex 4.000000e+00 2.150000e+01 1.000000e+00
      vertex 5.000000e+00 2.150000e+01 1.100000e+01
      vertex 5.000000e+00 2.150000e+01 0.000000e+00
    endloop
  endfacet
  facet normal -3.337580e-16 1.000000e+00 1.703275e-16
    outer loop
      vertex 5.000000e+00 2.150000e+01 0.000000e+00
      vertex 5.000000e+00 2.150000e+01 1.100000e+01
      vertex 7.131653e+00 2.150000e+01 1.100000e+01
    endloop
  endfacet
  facet normal -3.337580e-16 1.000000e+00 1.703275e-16
    outer loop
      vertex 5.000000e+00 2.150000e+01 0.000000e+00
      vertex 7.131653e+00 2.150000e+01 1.100000e+01
      vertex 7.136295e+00 2.150000e+01 1.096472e+01
    endloop
  endfacet
  facet normal -3.337580e-16 1.000000e+00 1.703275e-16
    outer loop
      vertex 5.000000e+00 2.150000e+01 0.000000e+00
      vertex 7.136295e+00 2.150000e+01 1.096472e+01
      vertex 7.535900e+00 2.150000e+01 1.000000e+01
    endloop
  endfacet
  facet normal -3.337580e-16 1.000000e+00 1.703275e-16
    outer loop
      vertex 5.000000e+00 2.150000e+01 0.000000e+00
      vertex 7.535900e+00 2.150000e+01 1.000000e+01
      vertex 8.171574e+00 2.150000e+01 9.171570e+00
    endloop
  endfacet
  facet normal -3.337580e-16 1.000000e+00 1.703275e-16
    outer loop
      vertex 5.000000e+00 2.150000e+01 0.000000e+00
      vertex 8.171574e+00 2.150000e+01 9.171570e+00
      vertex 2.000000e+01 2.150000e+01 0.000000e+00
    endloop
  endfacet
  facet normal -3.337580e-16 1.000000e+00 1.703275e-16
    outer loop
      vertex 2.000000e+01 2.150000e+01 0.000000e+00
      vertex 8.171574e+00 2.150000e+01 9.171570e+00
      vertex 9.000000e+00 2.150000e+01 8.535896e+00
    endloop
  endfacet
  facet normal -3.337580e-16 1.000000e+00 1.703275e-16
    outer loop
      vertex 2.000000e+01 2.150000e+01 0.000000e+00
      vertex 9.000000e+00 2.150000e+01 8.535896e+00
      vertex 9.964725e+00 2.150000e+01 8.136299e+00
    endloop
  endfacet
  facet normal -3.337580e-16 1.000000e+00 1.703275e-16
    outer loop
      vertex 2.000000e+01 2.150000e+01 0.000000e+00
      vertex 9.964725e+00 2.150000e+01 8.136299e+00
      vertex 1.100000e+01 2.150000e+01 8.000000e+00
    endloop
  endfacet
  facet normal -3.337580e-16 1.000000e+00 1.703275e-16
    outer loop
      vertex 2.000000e+01 2.150000e+01 0.000000e+00
      vertex 1.100000e+01 2.150000e+01 8.000000e+00
      vertex 1.203527e+01 2.150000e+01 8.136299e+00
    endloop
  endfacet
  facet normal -3.337580e-16 1.000000e+00 1.703275e-16
    outer loop
      vertex 2.000000e+01 2.150000e+01 0.000000e+00
      vertex 1.203527e+01 2.150000e+01 8.136299e+00
      vertex 1.300000e+01 2.150000e+01 8.535896e+00
    endloop
  endfacet
  facet normal -3.337580e-16 1.000000e+00 1.703275e-16
    outer loop
      vertex 2.000000e+01 2.150000e+01 0.000000e+00
      vertex 1.300000e+01 2.150000e+01 8.535896e+00
      vertex 1.382843e+01 2.150000e+01 9.171570e+00
    endloop
  endfacet
  facet normal -3.337580e-16 1.000000e+00 1.703275e-16
    outer loop
      vertex 2.000000e+01 2.150000e+01 0.000000e+00
      vertex 1.382843e+01 2.150000e+01 9.171570e+00
      vertex 1.446410e+01 2.150000e+01 1.000000e+01
    endloop
  endfacet
  facet normal -3.337580e-16 1.000000e+00 1.703275e-16
    outer loop
      vertex 2.000000e+01 2.150000e+01 0.000000e+00
      vertex 1.446410e+01 2.150000e+01 1.000000e+01
      vertex 1.486370e+01 2.150000e+01 1.096472e+01
    endloop
  endfacet
  facet normal -3.337580e-16 1.000000e+00 1.703275e-16
    outer loop
      vertex 2.000000e+01 2.150000e+01 0.000000e+00
      vertex 1.486370e+01 2.150000e+01 1.096472e+01
      vertex 1.500000e+01 2.150000e+01 1.200000e+01
    endloop
  endfacet
  facet normal -3.337580e-16 1.000000e+00 1.703275e-16
    outer loop
      vertex 2.000000e+01 2.150000e+01 0.000000e+00
      vertex 1.500000e+01 2.150000e+01 1.200000e+01
      vertex 2.000000e+01 2.150000e+01 2.400000e+01
    endloop
  endfacet
  facet normal -3.337580e-16 1.000000e+00 1.703275e-16
    outer loop
      vertex 2.000000e+00 2.150000e+01 1.000000e+00
      vertex 1.000000e+00 2.150000e+01 0.000000e+00
      vertex 2.000000e+00 2.150000e+01 1.300000e+01
    endloop
  endfacet
  facet normal -7.071068e-01 -4.149087e-18 -7.071068e-01
    outer loop
      vertex 5.000000e+00 2.150000e+01 0.000000e+00
      vertex 4.000000e+00 1.650000e+01 1.000000e+00
      vertex 4.000000e+00 2.150000e+01 1.000000e+00
    endloop
  endfacet
  facet normal -7.071068e-01 -4.149087e-18 -7.071068e-01
    outer loop
      vertex 4.000000e+00 1.650000e+01 1.000000e+00
      vertex 5.000000e+00 2.150000e+01 0.000000e+00
      vertex 5.000000e+00 1.650000e+01 0.000000e+00
    endloop
  endfacet
  facet normal 7.071068e-01 4.149087e-18 -7.071068e-01
    outer loop
      vertex 1.000000e+00 1.650000e+01 0.000000e+00
      vertex 2.000000e+00 2.150000e+01 1.000000e+00
      vertex 2.000000e+00 1.650000e+01 1.000000e+00
    endloop
  endfacet
  facet normal 7.071068e-01 4.149087e-18 -7.071068e-01
    outer loop
      vertex 2.000000e+00 2.150000e+01 1.000000e+00
      vertex 1.000000e+00 1.650000e+01 0.000000e+00
      vertex 1.000000e+00 2.150000e+01 0.000000e+00
    endloop
  endfacet
  facet normal -7.071068e-01 -4.149087e-18 7.071068e-01
    outer loop
      vertex 4.000000e+00 2.150000e+01 1.000000e+01
      vertex 5.000000e+00 1.650000e+01 1.100000e+01
      vertex 5.000000e+00 2.150000e+01 1.100000e+01
    endloop
  endfacet
  facet normal -7.071068e-01 -4.149087e-18 7.071068e-01
    outer loop
      vertex 5.000000e+00 1.650000e+01 1.100000e+01
      vertex 4.000000e+00 2.150000e+01 1.000000e+01
      vertex 4.000000e+00 1.650000e+01 1.000000e+01
    endloop
  endfacet
endsolid Default
