solid Default
  facet normal -4.793360e-15 1.224647e-16 -1.000000e+00
    outer loop
      vertex -3.200000e+01 5.000000e+00 0.000000e+00
      vertex -2.287500e+01 1.515545e+00 0.000000e+00
      vertex -3.200000e+01 -5.000000e+00 0.000000e+00
    endloop
  endfacet
  facet normal -4.793360e-15 1.224647e-16 -1.000000e+00
    outer loop
      vertex -2.287500e+01 1.515545e+00 0.000000e+00
      vertex -3.200000e+01 5.000000e+00 0.000000e+00
      vertex -2.245293e+01 1.690369e+00 0.000000e+00
    endloop
  endfacet
  facet normal -4.793360e-15 1.224647e-16 -1.000000e+00
    outer loop
      vertex -2.245293e+01 1.690369e+00 0.000000e+00
      vertex -3.200000e+01 5.000000e+00 0.000000e+00
      vertex -2.200000e+01 1.750000e+00 0.000000e+00
    endloop
  endfacet
  facet normal -4.793360e-15 1.224647e-16 -1.000000e+00
    outer loop
      vertex -2.200000e+01 1.750000e+00 0.000000e+00
      vertex -3.200000e+01 5.000000e+00 0.000000e+00
      vertex 3.700000e+01 5.000000e+00 0.000000e+00
    endloop
  endfacet
  facet normal -4.793360e-15 1.224647e-16 -1.000000e+00
    outer loop
      vertex -3.200000e+01 -5.000000e+00 0.000000e+00
      vertex -2.287500e+01 1.515545e+00 0.000000e+00
      vertex -2.323744e+01 1.237434e+00 0.000000e+00
    endloop
  endfacet
  facet normal -4.793360e-15 1.224647e-16 -1.000000e+00
    outer loop
      vertex -3.200000e+01 -5.000000e+00 0.000000e+00
      vertex -2.323744e+01 1.237434e+00 0.000000e+00
      vertex -2.351555e+01 8.750000e-01 0.000000e+00
    endloop
  endfacet
  facet normal -4.793360e-15 1.224647e-16 -1.000000e+00
    outer loop
      vertex -3.200000e+01 -5.000000e+00 0.000000e+00
      vertex -2.351555e+01 8.750000e-01 0.000000e+00
      vertex -2.369037e+01 4.529305e-01 0.000000e+00
    endloop
  endfacet
  facet normal -4.793360e-15 1.224647e-16 -1.000000e+00
    outer loop
      vertex -3.200000e+01 -5.000000e+00 0.000000e+00
      vertex -2.369037e+01 4.529305e-01 0.000000e+00
      vertex -2.375000e+01 0.000000e+00 0.000000e+00
    endloop
  endfacet
  facet normal -4.793360e-15 1.224647e-16 -1.000000e+00
    outer loop
      vertex -2.200000e+01 1.750000e+00 0.000000e+00
      vertex 3.700000e+01 5.000000e+00 0.000000e+00
      vertex 3.200000e+01 1.750000e+00 0.000000e+00
    endloop
  endfacet
  facet normal -4.793360e-15 1.224647e-16 -1.000000e+00
    outer loop
      vertex 3.200000e+01 1.750000e+00 0.000000e+00
      vertex 3.700000e+01 5.000000e+00 0.000000e+00
      vertex 3.245293e+01 1.690369e+00 0.000000e+00
    endloop
  endfacet
  facet normal -4.793360e-15 1.224647e-16 -1.000000e+00
    outer loop
      vertex 3.245293e+01 1.690369e+00 0.000000e+00
      vertex 3.700000e+01 5.000000e+00 0.000000e+00
      vertex 3.287500e+01 1.515545e+00 0.000000e+00
    endloop
  endfacet
  facet normal -4.793360e-15 1.224647e-16 -1.000000e+00
    outer loop
      vertex 3.287500e+01 1.515545e+00 0.000000e+00
      vertex 3.700000e+01 5.000000e+00 0.000000e+00
      vertex 3.323743e+01 1.237434e+00 0.000000e+00
    endloop
  endfacet
  facet normal -4.793360e-15 1.224647e-16 -1.000000e+00
    outer loop
      vertex 3.323743e+01 1.237434e+00 0.000000e+00
      vertex 3.700000e+01 5.000000e+00 0.000000e+00
      vertex 3.351554e+01 8.750000e-01 0.000000e+00
    endloop
  endfacet
  facet normal -4.793360e-15 1.224647e-16 -1.000000e+00
    outer loop
      vertex 3.351554e+01 8.750000e-01 0.000000e+00
      vertex 3.700000e+01 5.000000e+00 0.000000e+00
      vertex 3.369037e+01 4.529305e-01 0.000000e+00
    endloop
  endfacet
  facet normal -4.793360e-15 1.224647e-16 -1.000000e+00
    outer loop
      vertex 3.369037e+01 4.529305e-01 0.000000e+00
      vertex 3.700000e+01 5.000000e+00 0.000000e+00
      vertex 3.375000e+01 0.000000e+00 0.000000e+00
    endloop
  endfacet
  facet normal -4.793360e-15 1.224647e-16 -1.000000e+00
    outer loop
      vertex -3.200000e+01 -5.000000e+00 0.000000e+00
      vertex -2.200000e+01 -1.750000e+00 0.000000e+00
      vertex 3.700000e+01 -5.000000e+00 0.000000e+00
    endloop
  endfacet
  facet normal -4.793360e-15 1.224647e-16 -1.000000e+00
    outer loop
      vertex -2.200000e+01 -1.750000e+00 0.000000e+00
      vertex -3.200000e+01 -5.000000e+00 0.000000e+00
      vertex -2.245293e+01 -1.690372e+00 0.000000e+00
    endloop
  endfacet
  facet normal -4.793360e-15 1.224647e-16 -1.000000e+00
    outer loop
      vertex -2.245293e+01 -1.690372e+00 0.000000e+00
      vertex -3.200000e+01 -5.000000e+00 0.000000e+00
      vertex -2.287500e+01 -1.515545e+00 0.000000e+00
    endloop
  endfacet
  facet normal -4.793360e-15 1.224647e-16 -1.000000e+00
    outer loop
      vertex -2.287500e+01 -1.515545e+00 0.000000e+00
      vertex -3.200000e+01 -5.000000e+00 0.000000e+00
      vertex -2.323744e+01 -1.237438e+00 0.000000e+00
    endloop
  endfacet
  facet normal -4.793360e-15 1.224647e-16 -1.000000e+00
    outer loop
      vertex -2.323744e+01 -1.237438e+00 0.000000e+00
      vertex -3.200000e+01 -5.000000e+00 0.000000e+00
      vertex -2.351555e+01 -8.750000e-01 0.000000e+00
    endloop
  endfacet
  facet normal -4.793360e-15 1.224647e-16 -1.000000e+00
    outer loop
      vertex -2.351555e+01 -8.750000e-01 0.000000e+00
      vertex -3.200000e+01 -5.000000e+00 0.000000e+00
      vertex -2.369037e+01 -4.529343e-01 0.000000e+00
    endloop
  endfacet
  facet normal -4.793360e-15 1.224647e-16 -1.000000e+00
    outer loop
      vertex -2.369037e+01 -4.529343e-01 0.000000e+00
      vertex -3.200000e+01 -5.000000e+00 0.000000e+00
      vertex -2.375000e+01 0.000000e+00 0.000000e+00
    endloop
  endfacet
  facet normal -4.793360e-15 1.224647e-16 -1.000000e+00
    outer loop
      vertex 3.700000e+01 -5.000000e+00 0.000000e+00
      vertex -2.200000e+01 -1.750000e+00 0.000000e+00
      vertex 3.200000e+01 -1.750000e+00 0.000000e+00
    endloop
  endfacet
  facet normal -4.793360e-15 1.224647e-16 -1.000000e+00
    outer loop
      vertex 3.700000e+01 -5.000000e+00 0.000000e+00
      vertex 3.200000e+01 -1.750000e+00 0.000000e+00
      vertex 3.245293e+01 -1.690372e+00 0.000000e+00
    endloop
  endfacet
  facet normal -4.793360e-15 1.224647e-16 -1.000000e+00
    outer loop
      vertex 3.700000e+01 -5.000000e+00 0.000000e+00
      vertex 3.245293e+01 -1.690372e+00 0.000000e+00
      vertex 3.287500e+01 -1.515545e+00 0.000000e+00
    endloop
  endfacet
  facet normal -4.793360e-15 1.224647e-16 -1.000000e+00
    outer loop
      vertex 3.700000e+01 -5.000000e+00 0.000000e+00
      vertex 3.287500e+01 -1.515545e+00 0.000000e+00
      vertex 3.323743e+01 -1.237438e+00 0.000000e+00
    endloop
  endfacet
  facet normal -4.793360e-15 1.224647e-16 -1.000000e+00
    outer loop
      vertex 3.700000e+01 -5.000000e+00 0.000000e+00
      vertex 3.323743e+01 -1.237438e+00 0.000000e+00
      vertex 3.351554e+01 -8.750000e-01 0.000000e+00
    endloop
  endfacet
  facet normal -4.793360e-15 1.224647e-16 -1.000000e+00
    outer loop
      vertex 3.700000e+01 -5.000000e+00 0.000000e+00
      vertex 3.351554e+01 -8.750000e-01 0.000000e+00
      vertex 3.369037e+01 -4.529343e-01 0.000000e+00
    endloop
  endfacet
  facet normal -4.793360e-15 1.224647e-16 -1.000000e+00
    outer loop
      vertex 3.700000e+01 -5.000000e+00 0.000000e+00
      vertex 3.369037e+01 -4.529343e-01 0.000000e+00
      vertex 3.375000e+01 0.000000e+00 0.000000e+00
    endloop
  endfacet
  facet normal -4.793360e-15 1.224647e-16 -1.000000e+00
    outer loop
      vertex 3.700000e+01 -5.000000e+00 0.000000e+00
      vertex 3.375000e+01 0.000000e+00 0.000000e+00
      vertex 3.700000e+01 5.000000e+00 0.000000e+00
    endloop
  endfacet
  facet normal 3.826834e-01 9.238795e-01 -1.337015e-15
    outer loop
      vertex -2.287500e+01 -1.515545e+00 3.000000e+00
      vertex -2.245293e+01 -1.690372e+00 0.000000e+00
      vertex -2.287500e+01 -1.515545e+00 0.000000e+00
    endloop
  endfacet
  facet normal 3.826834e-01 9.238795e-01 -1.337015e-15
    outer loop
      vertex -2.245293e+01 -1.690372e+00 0.000000e+00
      vertex -2.287500e+01 -1.515545e+00 3.000000e+00
      vertex -2.245293e+01 -1.690372e+00 3.000000e+00
    endloop
  endfacet
  facet normal -6.087614e-01 -7.933533e-01 2.207229e-15
    outer loop
      vertex 3.323743e+01 1.237434e+00 3.000000e+00
      vertex 3.287500e+01 1.515545e+00 0.000000e+00
      vertex 3.323743e+01 1.237434e+00 0.000000e+00
    endloop
  endfacet
  facet normal -6.087614e-01 -7.933533e-01 2.207229e-15
    outer loop
      vertex 3.287500e+01 1.515545e+00 0.000000e+00
      vertex 3.323743e+01 1.237434e+00 3.000000e+00
      vertex 3.287500e+01 1.515545e+00 3.000000e+00
    endloop
  endfacet
  facet normal 5.295559e-15 -1.224647e-16 1.000000e+00
    outer loop
      vertex -3.200000e+01 -5.000000e+00 3.000000e+00
      vertex -2.287500e+01 -1.515545e+00 3.000000e+00
      vertex -3.200000e+01 5.000000e+00 3.000000e+00
    endloop
  endfacet
  facet normal 5.295559e-15 -1.224647e-16 1.000000e+00
    outer loop
      vertex -2.287500e+01 -1.515545e+00 3.000000e+00
      vertex -3.200000e+01 -5.000000e+00 3.000000e+00
      vertex -2.245293e+01 -1.690372e+00 3.000000e+00
    endloop
  endfacet
  facet normal 5.295559e-15 -1.224647e-16 1.000000e+00
    outer loop
      vertex -2.245293e+01 -1.690372e+00 3.000000e+00
      vertex -3.200000e+01 -5.000000e+00 3.000000e+00
      vertex -2.200000e+01 -1.750000e+00 3.000000e+00
    endloop
  endfacet
  facet normal 5.295559e-15 -1.224647e-16 1.000000e+00
    outer loop
      vertex -2.200000e+01 -1.750000e+00 3.000000e+00
      vertex -3.200000e+01 -5.000000e+00 3.000000e+00
      vertex 3.700000e+01 -5.000000e+00 3.000000e+00
    endloop
  endfacet
  facet normal 5.295559e-15 -1.224647e-16 1.000000e+00
    outer loop
      vertex -3.200000e+01 5.000000e+00 3.000000e+00
      vertex -2.287500e+01 -1.515545e+00 3.000000e+00
      vertex -2.323744e+01 -1.237438e+00 3.000000e+00
    endloop
  endfacet
  facet normal 5.295559e-15 -1.224647e-16 1.000000e+00
    outer loop
      vertex -3.200000e+01 5.000000e+00 3.000000e+00
      vertex -2.323744e+01 -1.237438e+00 3.000000e+00
      vertex -2.351555e+01 -8.750000e-01 3.000000e+00
    endloop
  endfacet
  facet normal 5.295559e-15 -1.224647e-16 1.000000e+00
    outer loop
      vertex -3.200000e+01 5.000000e+00 3.000000e+00
      vertex -2.351555e+01 -8.750000e-01 3.000000e+00
      vertex -2.369037e+01 -4.529343e-01 3.000000e+00
    endloop
  endfacet
  facet normal 5.295559e-15 -1.224647e-16 1.000000e+00
    outer loop
      vertex -3.200000e+01 5.000000e+00 3.000000e+00
      vertex -2.369037e+01 -4.529343e-01 3.000000e+00
      vertex -2.375000e+01 0.000000e+00 3.000000e+00
    endloop
  endfacet
  facet normal 5.295559e-15 -1.224647e-16 1.000000e+00
    outer loop
      vertex -2.200000e+01 -1.750000e+00 3.000000e+00
      vertex 3.700000e+01 -5.000000e+00 3.000000e+00
      vertex 3.200000e+01 -1.750000e+00 3.000000e+00
    endloop
  endfacet
  facet normal 5.295559e-15 -1.224647e-16 1.000000e+00
    outer loop
      vertex 3.200000e+01 -1.750000e+00 3.000000e+00
      vertex 3.700000e+01 -5.000000e+00 3.000000e+00
      vertex 3.245293e+01 -1.690372e+00 3.000000e+00
    endloop
  endfacet
  facet normal 5.295559e-15 -1.224647e-16 1.000000e+00
    outer loop
      vertex 3.245293e+01 -1.690372e+00 3.000000e+00
      vertex 3.700000e+01 -5.000000e+00 3.000000e+00
      vertex 3.287500e+01 -1.515545e+00 3.000000e+00
    endloop
  endfacet
  facet normal 5.295559e-15 -1.224647e-16 1.000000e+00
    outer loop
      vertex 3.287500e+01 -1.515545e+00 3.000000e+00
      vertex 3.700000e+01 -5.000000e+00 3.000000e+00
      vertex 3.323743e+01 -1.237438e+00 3.000000e+00
    endloop
  endfacet
  facet normal 5.295559e-15 -1.224647e-16 1.000000e+00
    outer loop
      vertex 3.323743e+01 -1.237438e+00 3.000000e+00
      vertex 3.700000e+01 -5.000000e+00 3.000000e+00
      vertex 3.351554e+01 -8.750000e-01 3.000000e+00
    endloop
  endfacet
  facet normal 5.295559e-15 -1.224647e-16 1.000000e+00
    outer loop
      vertex 3.351554e+01 -8.750000e-01 3.000000e+00
      vertex 3.700000e+01 -5.000000e+00 3.000000e+00
      vertex 3.369037e+01 -4.529343e-01 3.000000e+00
    endloop
  endfacet
  facet normal 5.295559e-15 -1.224647e-16 1.000000e+00
    outer loop
      vertex 3.369037e+01 -4.529343e-01 3.000000e+00
      vertex 3.700000e+01 -5.000000e+00 3.000000e+00
      vertex 3.375000e+01 0.000000e+00 3.000000e+00
    endloop
  endfacet
  facet normal 5.295559e-15 -1.224647e-16 1.000000e+00
    outer loop
      vertex 3.375000e+01 0.000000e+00 3.000000e+00
      vertex 3.700000e+01 -5.000000e+00 3.000000e+00
      vertex 3.700000e+01 5.000000e+00 3.000000e+00
    endloop
  endfacet
  facet normal 5.295559e-15 -1.224647e-16 1.000000e+00
    outer loop
      vertex -3.200000e+01 5.000000e+00 3.000000e+00
      vertex -2.200000e+01 1.750000e+00 3.000000e+00
      vertex 3.700000e+01 5.000000e+00 3.000000e+00
    endloop
  endfacet
  facet normal 5.295559e-15 -1.224647e-16 1.000000e+00
    outer loop
      vertex -2.200000e+01 1.750000e+00 3.000000e+00
      vertex -3.200000e+01 5.000000e+00 3.000000e+00
      vertex -2.245293e+01 1.690369e+00 3.000000e+00
    endloop
  endfacet
  facet normal 5.295559e-15 -1.224647e-16 1.000000e+00
    outer loop
      vertex -2.245293e+01 1.690369e+00 3.000000e+00
      vertex -3.200000e+01 5.000000e+00 3.000000e+00
      vertex -2.287500e+01 1.515545e+00 3.000000e+00
    endloop
  endfacet
  facet normal 5.295559e-15 -1.224647e-16 1.000000e+00
    outer loop
      vertex -2.287500e+01 1.515545e+00 3.000000e+00
      vertex -3.200000e+01 5.000000e+00 3.000000e+00
      vertex -2.323744e+01 1.237434e+00 3.000000e+00
    endloop
  endfacet
  facet normal 5.295559e-15 -1.224647e-16 1.000000e+00
    outer loop
      vertex -2.323744e+01 1.237434e+00 3.000000e+00
      vertex -3.200000e+01 5.000000e+00 3.000000e+00
      vertex -2.351555e+01 8.750000e-01 3.000000e+00
    endloop
  endfacet
  facet normal 5.295559e-15 -1.224647e-16 1.000000e+00
    outer loop
      vertex -2.351555e+01 8.750000e-01 3.000000e+00
      vertex -3.200000e+01 5.000000e+00 3.000000e+00
      vertex -2.369037e+01 4.529305e-01 3.000000e+00
    endloop
  endfacet
  facet normal 5.295559e-15 -1.224647e-16 1.000000e+00
    outer loop
      vertex -2.369037e+01 4.529305e-01 3.000000e+00
      vertex -3.200000e+01 5.000000e+00 3.000000e+00
      vertex -2.375000e+01 0.000000e+00 3.000000e+00
    endloop
  endfacet
  facet normal 5.295559e-15 -1.224647e-16 1.000000e+00
    outer loop
      vertex 3.700000e+01 5.000000e+00 3.000000e+00
      vertex -2.200000e+01 1.750000e+00 3.000000e+00
      vertex 3.200000e+01 1.750000e+00 3.000000e+00
    endloop
  endfacet
  facet normal 5.295559e-15 -1.224647e-16 1.000000e+00
    outer loop
      vertex 3.700000e+01 5.000000e+00 3.000000e+00
      vertex 3.200000e+01 1.750000e+00 3.000000e+00
      vertex 3.245293e+01 1.690369e+00 3.000000e+00
    endloop
  endfacet
  facet normal 5.295559e-15 -1.224647e-16 1.000000e+00
    outer loop
      vertex 3.700000e+01 5.000000e+00 3.000000e+00
      vertex 3.245293e+01 1.690369e+00 3.000000e+00
      vertex 3.287500e+01 1.515545e+00 3.000000e+00
    endloop
  endfacet
  facet normal 5.295559e-15 -1.224647e-16 1.000000e+00
    outer loop
      vertex 3.700000e+01 5.000000e+00 3.000000e+00
      vertex 3.287500e+01 1.515545e+00 3.000000e+00
      vertex 3.323743e+01 1.237434e+00 3.000000e+00
    endloop
  endfacet
  facet normal 5.295559e-15 -1.224647e-16 1.000000e+00
    outer loop
      vertex 3.700000e+01 5.000000e+00 3.000000e+00
      vertex 3.323743e+01 1.237434e+00 3.000000e+00
      vertex 3.351554e+01 8.750000e-01 3.000000e+00
    endloop
  endfacet
  facet normal 5.295559e-15 -1.224647e-16 1.000000e+00
    outer loop
      vertex 3.700000e+01 5.000000e+00 3.000000e+00
      vertex 3.351554e+01 8.750000e-01 3.000000e+00
      vertex 3.369037e+01 4.529305e-01 3.000000e+00
    endloop
  endfacet
  facet normal 5.295559e-15 -1.224647e-16 1.000000e+00
    outer loop
      vertex 3.700000e+01 5.000000e+00 3.000000e+00
      vertex 3.369037e+01 4.529305e-01 3.000000e+00
      vertex 3.375000e+01 0.000000e+00 3.000000e+00
    endloop
  endfacet
  facet normal 7.933533e-01 -6.087614e-01 -4.610009e-15
    outer loop
      vertex -2.323744e+01 1.237434e+00 0.000000e+00
      vertex -2.351555e+01 8.750000e-01 3.000000e+00
      vertex -2.351555e+01 8.750000e-01 0.000000e+00
    endloop
  endfacet
  facet normal 7.933533e-01 -6.087614e-01 -4.610009e-15
    outer loop
      vertex -2.351555e+01 8.750000e-01 3.000000e+00
      vertex -2.323744e+01 1.237434e+00 0.000000e+00
      vertex -2.323744e+01 1.237434e+00 3.000000e+00
    endloop
  endfacet
  facet normal -1.305262e-01 9.914449e-01 6.155067e-16
    outer loop
      vertex 3.200000e+01 -1.750000e+00 3.000000e+00
      vertex 3.245293e+01 -1.690372e+00 0.000000e+00
      vertex 3.200000e+01 -1.750000e+00 0.000000e+00
    endloop
  endfacet
  facet normal -1.305262e-01 9.914449e-01 6.155067e-16
    outer loop
      vertex 3.245293e+01 -1.690372e+00 0.000000e+00
      vertex 3.200000e+01 -1.750000e+00 3.000000e+00
      vertex 3.245293e+01 -1.690372e+00 3.000000e+00
    endloop
  endfacet
  facet normal 1.000000e+00 5.836524e-15 -3.788962e-15
    outer loop
      vertex 3.700000e+01 5.000000e+00 0.000000e+00
      vertex 3.700000e+01 -5.000000e+00 3.000000e+00
      vertex 3.700000e+01 -5.000000e+00 0.000000e+00
    endloop
  endfacet
  facet normal 1.000000e+00 5.836524e-15 -3.788962e-15
    outer loop
      vertex 3.700000e+01 -5.000000e+00 3.000000e+00
      vertex 3.700000e+01 5.000000e+00 0.000000e+00
      vertex 3.700000e+01 5.000000e+00 3.000000e+00
    endloop
  endfacet
  facet normal -3.826834e-01 -9.238795e-01 1.335455e-15
    outer loop
      vertex 3.287500e+01 1.515545e+00 3.000000e+00
      vertex 3.245293e+01 1.690369e+00 0.000000e+00
      vertex 3.287500e+01 1.515545e+00 0.000000e+00
    endloop
  endfacet
  facet normal -3.826834e-01 -9.238795e-01 1.335455e-15
    outer loop
      vertex 3.245293e+01 1.690369e+00 0.000000e+00
      vertex 3.287500e+01 1.515545e+00 3.000000e+00
      vertex 3.245293e+01 1.690369e+00 3.000000e+00
    endloop
  endfacet
  facet normal 1.305262e-01 -9.914449e-01 -6.155067e-16
    outer loop
      vertex -2.200000e+01 1.750000e+00 3.000000e+00
      vertex -2.245293e+01 1.690369e+00 0.000000e+00
      vertex -2.200000e+01 1.750000e+00 0.000000e+00
    endloop
  endfacet
  facet normal 1.305262e-01 -9.914449e-01 -6.155067e-16
    outer loop
      vertex -2.245293e+01 1.690369e+00 0.000000e+00
      vertex -2.200000e+01 1.750000e+00 3.000000e+00
      vertex -2.245293e+01 1.690369e+00 3.000000e+00
    endloop
  endfacet
  facet normal -7.933533e-01 -6.087614e-01 2.931816e-15
    outer loop
      vertex 3.323743e+01 1.237434e+00 3.000000e+00
      vertex 3.351554e+01 8.750000e-01 0.000000e+00
      vertex 3.351554e+01 8.750000e-01 3.000000e+00
    endloop
  endfacet
  facet normal -7.933533e-01 -6.087614e-01 2.931816e-15
    outer loop
      vertex 3.351554e+01 8.750000e-01 0.000000e+00
      vertex 3.323743e+01 1.237434e+00 3.000000e+00
      vertex 3.323743e+01 1.237434e+00 0.000000e+00
    endloop
  endfacet
  facet normal -6.087614e-01 7.933533e-01 2.401544e-15
    outer loop
      vertex 3.287500e+01 -1.515545e+00 3.000000e+00
      vertex 3.323743e+01 -1.237438e+00 0.000000e+00
      vertex 3.287500e+01 -1.515545e+00 0.000000e+00
    endloop
  endfacet
  facet normal -6.087614e-01 7.933533e-01 2.401544e-15
    outer loop
      vertex 3.323743e+01 -1.237438e+00 0.000000e+00
      vertex 3.287500e+01 -1.515545e+00 3.000000e+00
      vertex 3.323743e+01 -1.237438e+00 3.000000e+00
    endloop
  endfacet
  facet normal -6.123234e-17 1.000000e+00 1.224647e-16
    outer loop
      vertex -2.200000e+01 -1.750000e+00 0.000000e+00
      vertex 3.200000e+01 -1.750000e+00 3.000000e+00
      vertex 3.200000e+01 -1.750000e+00 0.000000e+00
    endloop
  endfacet
  facet normal -6.123234e-17 1.000000e+00 1.224647e-16
    outer loop
      vertex 3.200000e+01 -1.750000e+00 3.000000e+00
      vertex -2.200000e+01 -1.750000e+00 0.000000e+00
      vertex -2.200000e+01 -1.750000e+00 3.000000e+00
    endloop
  endfacet
  facet normal -1.305262e-01 -9.914449e-01 3.726728e-16
    outer loop
      vertex 3.245293e+01 1.690369e+00 3.000000e+00
      vertex 3.200000e+01 1.750000e+00 0.000000e+00
      vertex 3.245293e+01 1.690369e+00 0.000000e+00
    endloop
  endfacet
  facet normal -1.305262e-01 -9.914449e-01 3.726728e-16
    outer loop
      vertex 3.200000e+01 1.750000e+00 0.000000e+00
      vertex 3.245293e+01 1.690369e+00 3.000000e+00
      vertex 3.200000e+01 1.750000e+00 3.000000e+00
    endloop
  endfacet
  facet normal 9.238795e-01 3.826834e-01 -3.452241e-15
    outer loop
      vertex -2.369037e+01 -4.529343e-01 0.000000e+00
      vertex -2.351555e+01 -8.750000e-01 3.000000e+00
      vertex -2.351555e+01 -8.750000e-01 0.000000e+00
    endloop
  endfacet
  facet normal 9.238795e-01 3.826834e-01 -3.452241e-15
    outer loop
      vertex -2.351555e+01 -8.750000e-01 3.000000e+00
      vertex -2.369037e+01 -4.529343e-01 0.000000e+00
      vertex -2.369037e+01 -4.529343e-01 3.000000e+00
    endloop
  endfacet
  facet normal 1.236116e-15 1.000000e+00 -8.400839e-16
    outer loop
      vertex -3.200000e+01 5.000000e+00 0.000000e+00
      vertex 3.700000e+01 5.000000e+00 3.000000e+00
      vertex 3.700000e+01 5.000000e+00 0.000000e+00
    endloop
  endfacet
  facet normal 1.236116e-15 1.000000e+00 -8.400839e-16
    outer loop
      vertex 3.700000e+01 5.000000e+00 3.000000e+00
      vertex -3.200000e+01 5.000000e+00 0.000000e+00
      vertex -3.200000e+01 5.000000e+00 3.000000e+00
    endloop
  endfacet
  facet normal 9.238795e-01 -3.826834e-01 -3.545972e-15
    outer loop
      vertex -2.351555e+01 8.750000e-01 0.000000e+00
      vertex -2.369037e+01 4.529305e-01 3.000000e+00
      vertex -2.369037e+01 4.529305e-01 0.000000e+00
    endloop
  endfacet
  facet normal 9.238795e-01 -3.826834e-01 -3.545972e-15
    outer loop
      vertex -2.369037e+01 4.529305e-01 3.000000e+00
      vertex -2.351555e+01 8.750000e-01 0.000000e+00
      vertex -2.351555e+01 8.750000e-01 3.000000e+00
    endloop
  endfacet
  facet normal -9.914449e-01 1.305262e-01 3.773009e-15
    outer loop
      vertex 3.375000e+01 0.000000e+00 3.000000e+00
      vertex 3.369037e+01 -4.529343e-01 0.000000e+00
      vertex 3.369037e+01 -4.529343e-01 3.000000e+00
    endloop
  endfacet
  facet normal -9.914449e-01 1.305262e-01 3.773009e-15
    outer loop
      vertex 3.369037e+01 -4.529343e-01 0.000000e+00
      vertex 3.375000e+01 0.000000e+00 3.000000e+00
      vertex 3.375000e+01 0.000000e+00 0.000000e+00
    endloop
  endfacet
  facet normal 9.914449e-01 -1.305262e-01 -5.680865e-15
    outer loop
      vertex -2.369037e+01 4.529305e-01 0.000000e+00
      vertex -2.375000e+01 0.000000e+00 3.000000e+00
      vertex -2.375000e+01 0.000000e+00 0.000000e+00
    endloop
  endfacet
  facet normal 9.914449e-01 -1.305262e-01 -5.680865e-15
    outer loop
      vertex -2.375000e+01 0.000000e+00 3.000000e+00
      vertex -2.369037e+01 4.529305e-01 0.000000e+00
      vertex -2.369037e+01 4.529305e-01 3.000000e+00
    endloop
  endfacet
  facet normal -3.826834e-01 9.238795e-01 1.563300e-15
    outer loop
      vertex 3.245293e+01 -1.690372e+00 3.000000e+00
      vertex 3.287500e+01 -1.515545e+00 0.000000e+00
      vertex 3.245293e+01 -1.690372e+00 0.000000e+00
    endloop
  endfacet
  facet normal -3.826834e-01 9.238795e-01 1.563300e-15
    outer loop
      vertex 3.287500e+01 -1.515545e+00 0.000000e+00
      vertex 3.245293e+01 -1.690372e+00 3.000000e+00
      vertex 3.287500e+01 -1.515545e+00 3.000000e+00
    endloop
  endfacet
  facet normal 6.123234e-17 -1.000000e+00 -1.224647e-16
    outer loop
      vertex 3.200000e+01 1.750000e+00 3.000000e+00
      vertex -2.200000e+01 1.750000e+00 0.000000e+00
      vertex 3.200000e+01 1.750000e+00 0.000000e+00
    endloop
  endfacet
  facet normal 6.123234e-17 -1.000000e+00 -1.224647e-16
    outer loop
      vertex -2.200000e+01 1.750000e+00 0.000000e+00
      vertex 3.200000e+01 1.750000e+00 3.000000e+00
      vertex -2.200000e+01 1.750000e+00 3.000000e+00
    endloop
  endfacet
  facet normal -7.933533e-01 6.087614e-01 3.080919e-15
    outer loop
      vertex 3.351554e+01 -8.750000e-01 3.000000e+00
      vertex 3.323743e+01 -1.237438e+00 0.000000e+00
      vertex 3.323743e+01 -1.237438e+00 3.000000e+00
    endloop
  endfacet
  facet normal -7.933533e-01 6.087614e-01 3.080919e-15
    outer loop
      vertex 3.323743e+01 -1.237438e+00 0.000000e+00
      vertex 3.351554e+01 -8.750000e-01 3.000000e+00
      vertex 3.351554e+01 -8.750000e-01 0.000000e+00
    endloop
  endfacet
  facet normal 1.305262e-01 9.914449e-01 -3.726728e-16
    outer loop
      vertex -2.245293e+01 -1.690372e+00 3.000000e+00
      vertex -2.200000e+01 -1.750000e+00 0.000000e+00
      vertex -2.245293e+01 -1.690372e+00 0.000000e+00
    endloop
  endfacet
  facet normal 1.305262e-01 9.914449e-01 -3.726728e-16
    outer loop
      vertex -2.200000e+01 -1.750000e+00 0.000000e+00
      vertex -2.245293e+01 -1.690372e+00 3.000000e+00
      vertex -2.200000e+01 -1.750000e+00 3.000000e+00
    endloop
  endfacet
  facet normal 6.087614e-01 7.933533e-01 -2.207229e-15
    outer loop
      vertex -2.323744e+01 -1.237438e+00 3.000000e+00
      vertex -2.287500e+01 -1.515545e+00 0.000000e+00
      vertex -2.323744e+01 -1.237438e+00 0.000000e+00
    endloop
  endfacet
  facet normal 6.087614e-01 7.933533e-01 -2.207229e-15
    outer loop
      vertex -2.287500e+01 -1.515545e+00 0.000000e+00
      vertex -2.323744e+01 -1.237438e+00 3.000000e+00
      vertex -2.287500e+01 -1.515545e+00 3.000000e+00
    endloop
  endfacet
  facet normal 6.087614e-01 -7.933533e-01 -4.743206e-15
    outer loop
      vertex -2.287500e+01 1.515545e+00 3.000000e+00
      vertex -2.323744e+01 1.237434e+00 0.000000e+00
      vertex -2.287500e+01 1.515545e+00 0.000000e+00
    endloop
  endfacet
  facet normal 6.087614e-01 -7.933533e-01 -4.743206e-15
    outer loop
      vertex -2.323744e+01 1.237434e+00 0.000000e+00
      vertex -2.287500e+01 1.515545e+00 3.000000e+00
      vertex -2.323744e+01 1.237434e+00 3.000000e+00
    endloop
  endfacet
  facet normal 3.826834e-01 -9.238795e-01 -2.298634e-15
    outer loop
      vertex -2.245293e+01 1.690369e+00 3.000000e+00
      vertex -2.287500e+01 1.515545e+00 0.000000e+00
      vertex -2.245293e+01 1.690369e+00 0.000000e+00
    endloop
  endfacet
  facet normal 3.826834e-01 -9.238795e-01 -2.298634e-15
    outer loop
      vertex -2.287500e+01 1.515545e+00 0.000000e+00
      vertex -2.245293e+01 1.690369e+00 3.000000e+00
      vertex -2.287500e+01 1.515545e+00 3.000000e+00
    endloop
  endfacet
  facet normal -9.238795e-01 -3.826834e-01 3.452241e-15
    outer loop
      vertex 3.351554e+01 8.750000e-01 3.000000e+00
      vertex 3.369037e+01 4.529305e-01 0.000000e+00
      vertex 3.369037e+01 4.529305e-01 3.000000e+00
    endloop
  endfacet
  facet normal -9.238795e-01 -3.826834e-01 3.452241e-15
    outer loop
      vertex 3.369037e+01 4.529305e-01 0.000000e+00
      vertex 3.351554e+01 8.750000e-01 3.000000e+00
      vertex 3.351554e+01 8.750000e-01 0.000000e+00
    endloop
  endfacet
  facet normal -9.914449e-01 -1.305262e-01 3.741039e-15
    outer loop
      vertex 3.369037e+01 4.529305e-01 3.000000e+00
      vertex 3.375000e+01 0.000000e+00 0.000000e+00
      vertex 3.375000e+01 0.000000e+00 3.000000e+00
    endloop
  endfacet
  facet normal -9.914449e-01 -1.305262e-01 3.741039e-15
    outer loop
      vertex 3.375000e+01 0.000000e+00 0.000000e+00
      vertex 3.369037e+01 4.529305e-01 3.000000e+00
      vertex 3.369037e+01 4.529305e-01 0.000000e+00
    endloop
  endfacet
  facet normal 7.933533e-01 6.087614e-01 -2.931816e-15
    outer loop
      vertex -2.351555e+01 -8.750000e-01 0.000000e+00
      vertex -2.323744e+01 -1.237438e+00 3.000000e+00
      vertex -2.323744e+01 -1.237438e+00 0.000000e+00
    endloop
  endfacet
  facet normal 7.933533e-01 6.087614e-01 -2.931816e-15
    outer loop
      vertex -2.323744e+01 -1.237438e+00 3.000000e+00
      vertex -2.351555e+01 -8.750000e-01 0.000000e+00
      vertex -2.351555e+01 -8.750000e-01 3.000000e+00
    endloop
  endfacet
  facet normal 9.914449e-01 1.305262e-01 -5.648895e-15
    outer loop
      vertex -2.375000e+01 0.000000e+00 0.000000e+00
      vertex -2.369037e+01 -4.529343e-01 3.000000e+00
      vertex -2.369037e+01 -4.529343e-01 0.000000e+00
    endloop
  endfacet
  facet normal 9.914449e-01 1.305262e-01 -5.648895e-15
    outer loop
      vertex -2.369037e+01 -4.529343e-01 3.000000e+00
      vertex -2.375000e+01 0.000000e+00 0.000000e+00
      vertex -2.375000e+01 0.000000e+00 3.000000e+00
    endloop
  endfacet
  facet normal -9.238795e-01 3.826834e-01 3.547854e-15
    outer loop
      vertex 3.369037e+01 -4.529343e-01 3.000000e+00
      vertex 3.351554e+01 -8.750000e-01 0.000000e+00
      vertex 3.351554e+01 -8.750000e-01 3.000000e+00
    endloop
  endfacet
  facet normal -9.238795e-01 3.826834e-01 3.547854e-15
    outer loop
      vertex 3.351554e+01 -8.750000e-01 0.000000e+00
      vertex 3.369037e+01 -4.529343e-01 3.000000e+00
      vertex 3.369037e+01 -4.529343e-01 0.000000e+00
    endloop
  endfacet
  facet normal -9.238795e-01 -3.826834e-01 -1.034365e-16
    outer loop
      vertex -3.682963e+01 -1.294098e+00 5.000000e+00
      vertex -3.633013e+01 -2.500000e+00 2.500000e+00
      vertex -3.633013e+01 -2.500000e+00 5.000000e+00
    endloop
  endfacet
  facet normal -9.238795e-01 -3.826834e-01 -1.034365e-16
    outer loop
      vertex -3.633013e+01 -2.500000e+00 2.500000e+00
      vertex -3.682963e+01 -1.294098e+00 5.000000e+00
      vertex -3.682963e+01 -1.294098e+00 3.705902e+00
    endloop
  endfacet
  facet normal -3.826834e-01 -9.238795e-01 3.668041e-16
    outer loop
      vertex -3.329410e+01 -4.829632e+00 5.000000e+00
      vertex -3.450000e+01 -4.330128e+00 6.698723e-01
      vertex -3.329410e+01 -4.829632e+00 1.703720e-01
    endloop
  endfacet
  facet normal -3.826834e-01 -9.238795e-01 3.668041e-16
    outer loop
      vertex -3.450000e+01 -4.330128e+00 6.698723e-01
      vertex -3.329410e+01 -4.829632e+00 5.000000e+00
      vertex -3.450000e+01 -4.330128e+00 5.000000e+00
    endloop
  endfacet
  facet normal -6.087614e-01 -7.933533e-01 -1.390224e-16
    outer loop
      vertex -3.450000e+01 -4.330128e+00 5.000000e+00
      vertex -3.553553e+01 -3.535534e+00 1.464466e+00
      vertex -3.450000e+01 -4.330128e+00 6.698723e-01
    endloop
  endfacet
  facet normal -6.087614e-01 -7.933533e-01 -1.390224e-16
    outer loop
      vertex -3.553553e+01 -3.535534e+00 1.464466e+00
      vertex -3.450000e+01 -4.330128e+00 5.000000e+00
      vertex -3.553553e+01 -3.535534e+00 5.000000e+00
    endloop
  endfacet
  facet normal -7.933533e-01 -6.087614e-01 -1.231307e-16
    outer loop
      vertex -3.633013e+01 -2.500000e+00 5.000000e+00
      vertex -3.553553e+01 -3.535534e+00 1.464466e+00
      vertex -3.553553e+01 -3.535534e+00 5.000000e+00
    endloop
  endfacet
  facet normal -7.933533e-01 -6.087614e-01 -1.231307e-16
    outer loop
      vertex -3.553553e+01 -3.535534e+00 1.464466e+00
      vertex -3.633013e+01 -2.500000e+00 5.000000e+00
      vertex -3.633013e+01 -2.500000e+00 2.500000e+00
    endloop
  endfacet
  facet normal -9.238795e-01 -2.282296e-14 -3.826834e-01
    outer loop
      vertex -3.682963e+01 -1.294098e+00 3.705902e+00
      vertex -3.633013e+01 2.500000e+00 2.500000e+00
      vertex -3.633013e+01 -2.500000e+00 2.500000e+00
    endloop
  endfacet
  facet normal -9.238795e-01 -2.282296e-14 -3.826834e-01
    outer loop
      vertex -3.633013e+01 2.500000e+00 2.500000e+00
      vertex -3.682963e+01 -1.294098e+00 3.705902e+00
      vertex -3.682963e+01 1.294094e+00 3.705902e+00
    endloop
  endfacet
  facet normal -7.933533e-01 -3.062775e-14 -6.087614e-01
    outer loop
      vertex -3.633013e+01 -2.500000e+00 2.500000e+00
      vertex -3.553553e+01 3.535534e+00 1.464466e+00
      vertex -3.553553e+01 -3.535534e+00 1.464466e+00
    endloop
  endfacet
  facet normal -7.933533e-01 -3.062775e-14 -6.087614e-01
    outer loop
      vertex -3.553553e+01 3.535534e+00 1.464466e+00
      vertex -3.633013e+01 -2.500000e+00 2.500000e+00
      vertex -3.633013e+01 2.500000e+00 2.500000e+00
    endloop
  endfacet
  facet normal -3.826834e-01 -2.836061e-14 -9.238795e-01
    outer loop
      vertex -3.329410e+01 4.829628e+00 1.703720e-01
      vertex -3.450000e+01 -4.330128e+00 6.698723e-01
      vertex -3.450000e+01 4.330124e+00 6.698723e-01
    endloop
  endfacet
  facet normal -3.826834e-01 -2.836061e-14 -9.238795e-01
    outer loop
      vertex -3.450000e+01 -4.330128e+00 6.698723e-01
      vertex -3.329410e+01 4.829628e+00 1.703720e-01
      vertex -3.329410e+01 -4.829632e+00 1.703720e-01
    endloop
  endfacet
  facet normal -9.238795e-01 3.826834e-01 -4.990422e-14
    outer loop
      vertex -3.633013e+01 2.500000e+00 5.000000e+00
      vertex -3.682963e+01 1.294094e+00 3.705902e+00
      vertex -3.682963e+01 1.294094e+00 5.000000e+00
    endloop
  endfacet
  facet normal -9.238795e-01 3.826834e-01 -4.990422e-14
    outer loop
      vertex -3.682963e+01 1.294094e+00 3.705902e+00
      vertex -3.633013e+01 2.500000e+00 5.000000e+00
      vertex -3.633013e+01 2.500000e+00 2.500000e+00
    endloop
  endfacet
  facet normal -7.933533e-01 6.087614e-01 -6.313031e-14
    outer loop
      vertex -3.553553e+01 3.535534e+00 5.000000e+00
      vertex -3.633013e+01 2.500000e+00 2.500000e+00
      vertex -3.633013e+01 2.500000e+00 5.000000e+00
    endloop
  endfacet
  facet normal -7.933533e-01 6.087614e-01 -6.313031e-14
    outer loop
      vertex -3.633013e+01 2.500000e+00 2.500000e+00
      vertex -3.553553e+01 3.535534e+00 5.000000e+00
      vertex -3.553553e+01 3.535534e+00 1.464466e+00
    endloop
  endfacet
  facet normal -6.087614e-01 7.933533e-01 -6.549708e-14
    outer loop
      vertex -3.553553e+01 3.535534e+00 1.464466e+00
      vertex -3.450000e+01 4.330124e+00 5.000000e+00
      vertex -3.450000e+01 4.330124e+00 6.698723e-01
    endloop
  endfacet
  facet normal -6.087614e-01 7.933533e-01 -6.549708e-14
    outer loop
      vertex -3.450000e+01 4.330124e+00 5.000000e+00
      vertex -3.553553e+01 3.535534e+00 1.464466e+00
      vertex -3.553553e+01 3.535534e+00 5.000000e+00
    endloop
  endfacet
  facet normal -1.305262e-01 -1.264861e-14 -9.914449e-01
    outer loop
      vertex -3.200000e+01 5.000000e+00 0.000000e+00
      vertex -3.329410e+01 -4.829632e+00 1.703720e-01
      vertex -3.329410e+01 4.829628e+00 1.703720e-01
    endloop
  endfacet
  facet normal -1.305262e-01 -1.264861e-14 -9.914449e-01
    outer loop
      vertex -3.329410e+01 -4.829632e+00 1.703720e-01
      vertex -3.200000e+01 5.000000e+00 0.000000e+00
      vertex -3.200000e+01 -5.000000e+00 0.000000e+00
    endloop
  endfacet
  facet normal -6.087614e-01 -3.357718e-14 -7.933533e-01
    outer loop
      vertex -3.450000e+01 4.330124e+00 6.698723e-01
      vertex -3.553553e+01 -3.535534e+00 1.464466e+00
      vertex -3.553553e+01 3.535534e+00 1.464466e+00
    endloop
  endfacet
  facet normal -6.087614e-01 -3.357718e-14 -7.933533e-01
    outer loop
      vertex -3.553553e+01 -3.535534e+00 1.464466e+00
      vertex -3.450000e+01 4.330124e+00 6.698723e-01
      vertex -3.450000e+01 -4.330128e+00 6.698723e-01
    endloop
  endfacet
  facet normal -3.826834e-01 9.238795e-01 -5.343312e-14
    outer loop
      vertex -3.450000e+01 4.330124e+00 6.698723e-01
      vertex -3.329410e+01 4.829628e+00 5.000000e+00
      vertex -3.329410e+01 4.829628e+00 1.703720e-01
    endloop
  endfacet
  facet normal -3.826834e-01 9.238795e-01 -5.343312e-14
    outer loop
      vertex -3.329410e+01 4.829628e+00 5.000000e+00
      vertex -3.450000e+01 4.330124e+00 6.698723e-01
      vertex -3.450000e+01 4.330124e+00 5.000000e+00
    endloop
  endfacet
  facet normal -1.305262e-01 9.914449e-01 -2.153782e-14
    outer loop
      vertex -3.329410e+01 4.829628e+00 1.703720e-01
      vertex -3.200000e+01 5.000000e+00 3.000000e+00
      vertex -3.200000e+01 5.000000e+00 0.000000e+00
    endloop
  endfacet
  facet normal -1.305262e-01 9.914449e-01 -2.153782e-14
    outer loop
      vertex -3.200000e+01 5.000000e+00 3.000000e+00
      vertex -3.329410e+01 4.829628e+00 1.703720e-01
      vertex -3.329410e+01 4.829628e+00 5.000000e+00
    endloop
  endfacet
  facet normal -1.305262e-01 9.914449e-01 -2.153782e-14
    outer loop
      vertex -3.200000e+01 5.000000e+00 3.000000e+00
      vertex -3.329410e+01 4.829628e+00 5.000000e+00
      vertex -3.200000e+01 5.000000e+00 5.000000e+00
    endloop
  endfacet
  facet normal -9.227092e-01 -3.821987e-01 5.031741e-02
    outer loop
      vertex -3.633013e+01 -2.414818e+00 5.647049e+00
      vertex -3.682963e+01 -1.294098e+00 5.000000e+00
      vertex -3.633013e+01 -2.500000e+00 5.000000e+00
    endloop
  endfacet
  facet normal -9.227092e-01 -3.821987e-01 5.031741e-02
    outer loop
      vertex -3.682963e+01 -1.294098e+00 5.000000e+00
      vertex -3.633013e+01 -2.414818e+00 5.647049e+00
      vertex -3.682963e+01 -1.250000e+00 5.334938e+00
    endloop
  endfacet
  facet normal -9.912985e-01 -1.216131e-01 5.037379e-02
    outer loop
      vertex -3.700000e+01 0.000000e+00 5.000000e+00
      vertex -3.682963e+01 -1.250000e+00 5.334938e+00
      vertex -3.682963e+01 -1.120720e+00 5.647049e+00
    endloop
  endfacet
  facet normal -7.908176e-01 -6.068157e-01 7.988880e-02
    outer loop
      vertex -3.553553e+01 -3.415066e+00 5.915062e+00
      vertex -3.633013e+01 -2.500000e+00 5.000000e+00
      vertex -3.553553e+01 -3.535534e+00 5.000000e+00
    endloop
  endfacet
  facet normal -7.908176e-01 -6.068157e-01 7.988880e-02
    outer loop
      vertex -3.633013e+01 -2.500000e+00 5.000000e+00
      vertex -3.553553e+01 -3.415066e+00 5.915062e+00
      vertex -3.633013e+01 -2.414818e+00 5.647049e+00
    endloop
  endfacet
  facet normal -9.227092e-01 -3.561525e-01 1.475232e-01
    outer loop
      vertex -3.633013e+01 -2.165066e+00 6.250000e+00
      vertex -3.682963e+01 -1.250000e+00 5.334938e+00
      vertex -3.633013e+01 -2.414818e+00 5.647049e+00
    endloop
  endfacet
  facet normal -9.227092e-01 -3.561525e-01 1.475232e-01
    outer loop
      vertex -3.682963e+01 -1.250000e+00 5.334938e+00
      vertex -3.633013e+01 -2.165066e+00 6.250000e+00
      vertex -3.682963e+01 -1.120720e+00 5.647049e+00
    endloop
  endfacet
  facet normal -9.912985e-01 -1.305069e-01 1.718156e-02
    outer loop
      vertex -3.700000e+01 0.000000e+00 5.000000e+00
      vertex -3.682963e+01 -1.294098e+00 5.000000e+00
      vertex -3.682963e+01 -1.250000e+00 5.334938e+00
    endloop
  endfacet
  facet normal -7.908176e-01 -5.654622e-01 2.342221e-01
    outer loop
      vertex -3.553553e+01 -3.061863e+00 6.767769e+00
      vertex -3.633013e+01 -2.414818e+00 5.647049e+00
      vertex -3.553553e+01 -3.415066e+00 5.915062e+00
    endloop
  endfacet
  facet normal -7.908176e-01 -5.654622e-01 2.342221e-01
    outer loop
      vertex -3.633013e+01 -2.414818e+00 5.647049e+00
      vertex -3.553553e+01 -3.061863e+00 6.767769e+00
      vertex -3.633013e+01 -2.165066e+00 6.250000e+00
    endloop
  endfacet
  facet normal -7.908176e-01 -4.855734e-01 3.725936e-01
    outer loop
      vertex -3.553553e+01 -2.500000e+00 7.500000e+00
      vertex -3.633013e+01 -2.165066e+00 6.250000e+00
      vertex -3.553553e+01 -3.061863e+00 6.767769e+00
    endloop
  endfacet
  facet normal -7.908176e-01 -4.855734e-01 3.725936e-01
    outer loop
      vertex -3.633013e+01 -2.165066e+00 6.250000e+00
      vertex -3.553553e+01 -2.500000e+00 7.500000e+00
      vertex -3.633013e+01 -1.767769e+00 6.767769e+00
    endloop
  endfacet
  facet normal -9.912985e-01 -1.044315e-01 8.013313e-02
    outer loop
      vertex -3.700000e+01 0.000000e+00 5.000000e+00
      vertex -3.682963e+01 -1.120720e+00 5.647049e+00
      vertex -3.682963e+01 -9.150658e-01 5.915062e+00
    endloop
  endfacet
  facet normal -9.912985e-01 -8.013313e-02 1.044315e-01
    outer loop
      vertex -3.700000e+01 0.000000e+00 5.000000e+00
      vertex -3.682963e+01 -9.150658e-01 5.915062e+00
      vertex -3.682963e+01 -6.470490e-01 6.120720e+00
    endloop
  endfacet
  facet normal -9.227092e-01 -3.058351e-01 2.346755e-01
    outer loop
      vertex -3.633013e+01 -1.767769e+00 6.767769e+00
      vertex -3.682963e+01 -1.120720e+00 5.647049e+00
      vertex -3.633013e+01 -2.165066e+00 6.250000e+00
    endloop
  endfacet
  facet normal -9.227092e-01 -3.058351e-01 2.346755e-01
    outer loop
      vertex -3.682963e+01 -1.120720e+00 5.647049e+00
      vertex -3.633013e+01 -1.767769e+00 6.767769e+00
      vertex -3.682963e+01 -9.150658e-01 5.915062e+00
    endloop
  endfacet
  facet normal -9.227092e-01 -2.346755e-01 3.058351e-01
    outer loop
      vertex -3.633013e+01 -1.250000e+00 7.165062e+00
      vertex -3.682963e+01 -9.150658e-01 5.915062e+00
      vertex -3.633013e+01 -1.767769e+00 6.767769e+00
    endloop
  endfacet
  facet normal -9.227092e-01 -2.346755e-01 3.058351e-01
    outer loop
      vertex -3.682963e+01 -9.150658e-01 5.915062e+00
      vertex -3.633013e+01 -1.250000e+00 7.165062e+00
      vertex -3.682963e+01 -6.470490e-01 6.120720e+00
    endloop
  endfacet
  facet normal -7.908176e-01 -3.725936e-01 4.855734e-01
    outer loop
      vertex -3.553553e+01 -1.767769e+00 8.061859e+00
      vertex -3.633013e+01 -1.767769e+00 6.767769e+00
      vertex -3.553553e+01 -2.500000e+00 7.500000e+00
    endloop
  endfacet
  facet normal -7.908176e-01 -3.725936e-01 4.855734e-01
    outer loop
      vertex -3.633013e+01 -1.767769e+00 6.767769e+00
      vertex -3.553553e+01 -1.767769e+00 8.061859e+00
      vertex -3.633013e+01 -1.250000e+00 7.165062e+00
    endloop
  endfacet
  facet normal -9.912985e-01 -5.037379e-02 1.216131e-01
    outer loop
      vertex -3.700000e+01 0.000000e+00 5.000000e+00
      vertex -3.682963e+01 -6.470490e-01 6.120720e+00
      vertex -3.682963e+01 -3.349380e-01 6.250000e+00
    endloop
  endfacet
  facet normal -6.054679e-01 -7.352878e-01 3.045662e-01
    outer loop
      vertex -3.450000e+01 -4.182583e+00 6.120720e+00
      vertex -3.553553e+01 -3.061863e+00 6.767769e+00
      vertex -3.553553e+01 -3.415066e+00 5.915062e+00
    endloop
  endfacet
  facet normal -6.054679e-01 -7.352878e-01 3.045662e-01
    outer loop
      vertex -3.553553e+01 -3.061863e+00 6.767769e+00
      vertex -3.450000e+01 -4.182583e+00 6.120720e+00
      vertex -3.450000e+01 -3.750000e+00 7.165062e+00
    endloop
  endfacet
  facet normal -6.054678e-01 -6.314059e-01 4.844948e-01
    outer loop
      vertex -3.450000e+01 -3.750000e+00 7.165062e+00
      vertex -3.553553e+01 -2.500000e+00 7.500000e+00
      vertex -3.553553e+01 -3.061863e+00 6.767769e+00
    endloop
  endfacet
  facet normal -6.054678e-01 -6.314059e-01 4.844948e-01
    outer loop
      vertex -3.553553e+01 -2.500000e+00 7.500000e+00
      vertex -3.450000e+01 -3.750000e+00 7.165062e+00
      vertex -3.450000e+01 -3.061863e+00 8.061859e+00
    endloop
  endfacet
  facet normal -3.798837e-01 -7.338790e-01 5.631251e-01
    outer loop
      vertex -3.329410e+01 -4.182583e+00 7.414818e+00
      vertex -3.450000e+01 -3.061863e+00 8.061859e+00
      vertex -3.450000e+01 -3.750000e+00 7.165062e+00
    endloop
  endfacet
  facet normal -3.798837e-01 -7.338790e-01 5.631251e-01
    outer loop
      vertex -3.450000e+01 -3.061863e+00 8.061859e+00
      vertex -3.329410e+01 -4.182583e+00 7.414818e+00
      vertex -3.329410e+01 -3.415066e+00 8.415062e+00
    endloop
  endfacet
  facet normal -9.227092e-01 -5.031741e-02 3.821987e-01
    outer loop
      vertex -3.633013e+01 0.000000e+00 7.500000e+00
      vertex -3.682963e+01 -3.349380e-01 6.250000e+00
      vertex -3.633013e+01 -6.470490e-01 7.414818e+00
    endloop
  endfacet
  facet normal -9.227092e-01 -5.031741e-02 3.821987e-01
    outer loop
      vertex -3.682963e+01 -3.349380e-01 6.250000e+00
      vertex -3.633013e+01 0.000000e+00 7.500000e+00
      vertex -3.682963e+01 0.000000e+00 6.294098e+00
    endloop
  endfacet
  facet normal -3.798837e-01 -9.171205e-01 1.207412e-01
    outer loop
      vertex -3.329410e+01 -4.665066e+00 6.250000e+00
      vertex -3.450000e+01 -4.330128e+00 5.000000e+00
      vertex -3.329410e+01 -4.829632e+00 5.000000e+00
    endloop
  endfacet
  facet normal -3.798837e-01 -9.171205e-01 1.207412e-01
    outer loop
      vertex -3.450000e+01 -4.330128e+00 5.000000e+00
      vertex -3.329410e+01 -4.665066e+00 6.250000e+00
      vertex -3.450000e+01 -4.182583e+00 6.120720e+00
    endloop
  endfacet
  facet normal -1.294283e-01 -9.831056e-01 1.294283e-01
    outer loop
      vertex -3.200000e+01 -4.829632e+00 6.294098e+00
      vertex -3.329410e+01 -4.829632e+00 5.000000e+00
      vertex -3.200000e+01 -5.000000e+00 5.000000e+00
    endloop
  endfacet
  facet normal -1.294283e-01 -9.831056e-01 1.294283e-01
    outer loop
      vertex -3.329410e+01 -4.829632e+00 5.000000e+00
      vertex -3.200000e+01 -4.829632e+00 6.294098e+00
      vertex -3.329410e+01 -4.665066e+00 6.250000e+00
    endloop
  endfacet
  facet normal -6.054678e-01 -7.890610e-01 1.038819e-01
    outer loop
      vertex -3.450000e+01 -4.182583e+00 6.120720e+00
      vertex -3.553553e+01 -3.535534e+00 5.000000e+00
      vertex -3.450000e+01 -4.330128e+00 5.000000e+00
    endloop
  endfacet
  facet normal -6.054678e-01 -7.890610e-01 1.038819e-01
    outer loop
      vertex -3.553553e+01 -3.535534e+00 5.000000e+00
      vertex -3.450000e+01 -4.182583e+00 6.120720e+00
      vertex -3.553553e+01 -3.415066e+00 5.915062e+00
    endloop
  endfacet
  facet normal -3.798837e-01 -8.546202e-01 3.539953e-01
    outer loop
      vertex -3.329410e+01 -4.665066e+00 6.250000e+00
      vertex -3.450000e+01 -3.750000e+00 7.165062e+00
      vertex -3.450000e+01 -4.182583e+00 6.120720e+00
    endloop
  endfacet
  facet normal -3.798837e-01 -8.546202e-01 3.539953e-01
    outer loop
      vertex -3.450000e+01 -3.750000e+00 7.165062e+00
      vertex -3.329410e+01 -4.665066e+00 6.250000e+00
      vertex -3.329410e+01 -4.182583e+00 7.414818e+00
    endloop
  endfacet
  facet normal -1.294283e-01 -9.161086e-01 3.794646e-01
    outer loop
      vertex -3.200000e+01 -4.829632e+00 6.294098e+00
      vertex -3.329410e+01 -4.182583e+00 7.414818e+00
      vertex -3.329410e+01 -4.665066e+00 6.250000e+00
    endloop
  endfacet
  facet normal -1.294283e-01 -9.161086e-01 3.794646e-01
    outer loop
      vertex -3.329410e+01 -4.182583e+00 7.414818e+00
      vertex -3.200000e+01 -4.829632e+00 6.294098e+00
      vertex -3.200000e+01 -4.330128e+00 7.500000e+00
    endloop
  endfacet
  facet normal -9.912985e-01 -1.718156e-02 1.305069e-01
    outer loop
      vertex -3.700000e+01 0.000000e+00 5.000000e+00
      vertex -3.682963e+01 -3.349380e-01 6.250000e+00
      vertex -3.682963e+01 0.000000e+00 6.294098e+00
    endloop
  endfacet
  facet normal -9.227092e-01 -1.475232e-01 3.561525e-01
    outer loop
      vertex -3.633013e+01 -6.470490e-01 7.414818e+00
      vertex -3.682963e+01 -6.470490e-01 6.120720e+00
      vertex -3.633013e+01 -1.250000e+00 7.165062e+00
    endloop
  endfacet
  facet normal -9.227092e-01 -1.475232e-01 3.561525e-01
    outer loop
      vertex -3.682963e+01 -6.470490e-01 6.120720e+00
      vertex -3.633013e+01 -6.470490e-01 7.414818e+00
      vertex -3.682963e+01 -3.349380e-01 6.250000e+00
    endloop
  endfacet
  facet normal -7.908176e-01 -2.342221e-01 5.654622e-01
    outer loop
      vertex -3.553553e+01 -9.150658e-01 8.415062e+00
      vertex -3.633013e+01 -1.250000e+00 7.165062e+00
      vertex -3.553553e+01 -1.767769e+00 8.061859e+00
    endloop
  endfacet
  facet normal -7.908176e-01 -2.342221e-01 5.654622e-01
    outer loop
      vertex -3.633013e+01 -1.250000e+00 7.165062e+00
      vertex -3.553553e+01 -9.150658e-01 8.415062e+00
      vertex -3.633013e+01 -6.470490e-01 7.414818e+00
    endloop
  endfacet
  facet normal -7.908176e-01 -7.988880e-02 6.068157e-01
    outer loop
      vertex -3.553553e+01 0.000000e+00 8.535538e+00
      vertex -3.633013e+01 -6.470490e-01 7.414818e+00
      vertex -3.553553e+01 -9.150658e-01 8.415062e+00
    endloop
  endfacet
  facet normal -7.908176e-01 -7.988880e-02 6.068157e-01
    outer loop
      vertex -3.633013e+01 -6.470490e-01 7.414818e+00
      vertex -3.553553e+01 0.000000e+00 8.535538e+00
      vertex -3.633013e+01 0.000000e+00 7.500000e+00
    endloop
  endfacet
  facet normal -3.798837e-01 -5.631252e-01 7.338790e-01
    outer loop
      vertex -3.450000e+01 -3.061863e+00 8.061859e+00
      vertex -3.329410e+01 -2.414818e+00 9.182579e+00
      vertex -3.450000e+01 -2.165066e+00 8.750000e+00
    endloop
  endfacet
  facet normal -3.798837e-01 -5.631252e-01 7.338790e-01
    outer loop
      vertex -3.329410e+01 -2.414818e+00 9.182579e+00
      vertex -3.450000e+01 -3.061863e+00 8.061859e+00
      vertex -3.329410e+01 -3.415066e+00 8.415062e+00
    endloop
  endfacet
  facet normal -1.294283e-01 -6.036410e-01 7.866803e-01
    outer loop
      vertex -3.329410e+01 -3.415066e+00 8.415062e+00
      vertex -3.200000e+01 -2.500000e+00 9.330124e+00
      vertex -3.329410e+01 -2.414818e+00 9.182579e+00
    endloop
  endfacet
  facet normal -1.294283e-01 -6.036410e-01 7.866803e-01
    outer loop
      vertex -3.200000e+01 -2.500000e+00 9.330124e+00
      vertex -3.329410e+01 -3.415066e+00 8.415062e+00
      vertex -3.200000e+01 -3.535534e+00 8.535538e+00
    endloop
  endfacet
  facet normal -6.054678e-01 -4.844948e-01 6.314059e-01
    outer loop
      vertex -3.553553e+01 -2.500000e+00 7.500000e+00
      vertex -3.450000e+01 -2.165066e+00 8.750000e+00
      vertex -3.553553e+01 -1.767769e+00 8.061859e+00
    endloop
  endfacet
  facet normal -6.054678e-01 -4.844948e-01 6.314059e-01
    outer loop
      vertex -3.450000e+01 -2.165066e+00 8.750000e+00
      vertex -3.553553e+01 -2.500000e+00 7.500000e+00
      vertex -3.450000e+01 -3.061863e+00 8.061859e+00
    endloop
  endfacet
  facet normal -3.798837e-01 -3.539953e-01 8.546202e-01
    outer loop
      vertex -3.450000e+01 -2.165066e+00 8.750000e+00
      vertex -3.329410e+01 -1.250000e+00 9.665062e+00
      vertex -3.450000e+01 -1.120720e+00 9.182579e+00
    endloop
  endfacet
  facet normal -3.798837e-01 -3.539953e-01 8.546202e-01
    outer loop
      vertex -3.329410e+01 -1.250000e+00 9.665062e+00
      vertex -3.450000e+01 -2.165066e+00 8.750000e+00
      vertex -3.329410e+01 -2.414818e+00 9.182579e+00
    endloop
  endfacet
  facet normal -6.054679e-01 -3.045662e-01 7.352878e-01
    outer loop
      vertex -3.553553e+01 -1.767769e+00 8.061859e+00
      vertex -3.450000e+01 -1.120720e+00 9.182579e+00
      vertex -3.553553e+01 -9.150658e-01 8.415062e+00
    endloop
  endfacet
  facet normal -6.054679e-01 -3.045662e-01 7.352878e-01
    outer loop
      vertex -3.450000e+01 -1.120720e+00 9.182579e+00
      vertex -3.553553e+01 -1.767769e+00 8.061859e+00
      vertex -3.450000e+01 -2.165066e+00 8.750000e+00
    endloop
  endfacet
  facet normal -1.294283e-01 -7.866803e-01 6.036410e-01
    outer loop
      vertex -3.200000e+01 -4.330128e+00 7.500000e+00
      vertex -3.329410e+01 -3.415066e+00 8.415062e+00
      vertex -3.329410e+01 -4.182583e+00 7.414818e+00
    endloop
  endfacet
  facet normal -1.294283e-01 -7.866803e-01 6.036410e-01
    outer loop
      vertex -3.329410e+01 -3.415066e+00 8.415062e+00
      vertex -3.200000e+01 -4.330128e+00 7.500000e+00
      vertex -3.200000e+01 -3.535534e+00 8.535538e+00
    endloop
  endfacet
  facet normal -1.294283e-01 -3.794646e-01 9.161086e-01
    outer loop
      vertex -3.329410e+01 -2.414818e+00 9.182579e+00
      vertex -3.200000e+01 -1.294098e+00 9.829628e+00
      vertex -3.329410e+01 -1.250000e+00 9.665062e+00
    endloop
  endfacet
  facet normal -1.294283e-01 -3.794646e-01 9.161086e-01
    outer loop
      vertex -3.200000e+01 -1.294098e+00 9.829628e+00
      vertex -3.329410e+01 -2.414818e+00 9.182579e+00
      vertex -3.200000e+01 -2.500000e+00 9.330124e+00
    endloop
  endfacet
  facet normal -7.908176e-01 4.855734e-01 3.725936e-01
    outer loop
      vertex -3.553553e+01 2.500000e+00 7.500000e+00
      vertex -3.633013e+01 2.165062e+00 6.250000e+00
      vertex -3.633013e+01 1.767765e+00 6.767769e+00
    endloop
  endfacet
  facet normal -7.908176e-01 4.855734e-01 3.725936e-01
    outer loop
      vertex -3.633013e+01 2.165062e+00 6.250000e+00
      vertex -3.553553e+01 2.500000e+00 7.500000e+00
      vertex -3.553553e+01 3.061859e+00 6.767769e+00
    endloop
  endfacet
  facet normal -9.912985e-01 1.305069e-01 1.718156e-02
    outer loop
      vertex -3.682963e+01 1.294094e+00 5.000000e+00
      vertex -3.700000e+01 0.000000e+00 5.000000e+00
      vertex -3.682963e+01 1.250000e+00 5.334938e+00
    endloop
  endfacet
  facet normal -9.912985e-01 8.013313e-02 1.044315e-01
    outer loop
      vertex -3.682963e+01 9.150620e-01 5.915062e+00
      vertex -3.700000e+01 0.000000e+00 5.000000e+00
      vertex -3.682963e+01 6.470451e-01 6.120720e+00
    endloop
  endfacet
  facet normal -9.227092e-01 2.346755e-01 3.058351e-01
    outer loop
      vertex -3.633013e+01 1.250000e+00 7.165062e+00
      vertex -3.682963e+01 9.150620e-01 5.915062e+00
      vertex -3.682963e+01 6.470451e-01 6.120720e+00
    endloop
  endfacet
  facet normal -9.227092e-01 2.346755e-01 3.058351e-01
    outer loop
      vertex -3.682963e+01 9.150620e-01 5.915062e+00
      vertex -3.633013e+01 1.250000e+00 7.165062e+00
      vertex -3.633013e+01 1.767765e+00 6.767769e+00
    endloop
  endfacet
  facet normal -7.908176e-01 6.068157e-01 7.988880e-02
    outer loop
      vertex -3.553553e+01 3.415062e+00 5.915062e+00
      vertex -3.633013e+01 2.500000e+00 5.000000e+00
      vertex -3.633013e+01 2.414814e+00 5.647049e+00
    endloop
  endfacet
  facet normal -7.908176e-01 6.068157e-01 7.988880e-02
    outer loop
      vertex -3.633013e+01 2.500000e+00 5.000000e+00
      vertex -3.553553e+01 3.415062e+00 5.915062e+00
      vertex -3.553553e+01 3.535534e+00 5.000000e+00
    endloop
  endfacet
  facet normal -1.294283e-01 -1.294283e-01 9.831056e-01
    outer loop
      vertex -3.329410e+01 -1.250000e+00 9.665062e+00
      vertex -3.200000e+01 0.000000e+00 1.000000e+01
      vertex -3.329410e+01 0.000000e+00 9.829628e+00
    endloop
  endfacet
  facet normal -1.294283e-01 -1.294283e-01 9.831056e-01
    outer loop
      vertex -3.200000e+01 0.000000e+00 1.000000e+01
      vertex -3.329410e+01 -1.250000e+00 9.665062e+00
      vertex -3.200000e+01 -1.294098e+00 9.829628e+00
    endloop
  endfacet
  facet normal -7.908176e-01 5.654622e-01 2.342221e-01
    outer loop
      vertex -3.553553e+01 3.061859e+00 6.767769e+00
      vertex -3.633013e+01 2.414814e+00 5.647049e+00
      vertex -3.633013e+01 2.165062e+00 6.250000e+00
    endloop
  endfacet
  facet normal -7.908176e-01 5.654622e-01 2.342221e-01
    outer loop
      vertex -3.633013e+01 2.414814e+00 5.647049e+00
      vertex -3.553553e+01 3.061859e+00 6.767769e+00
      vertex -3.553553e+01 3.415062e+00 5.915062e+00
    endloop
  endfacet
  facet normal -9.227092e-01 3.821987e-01 5.031741e-02
    outer loop
      vertex -3.633013e+01 2.414814e+00 5.647049e+00
      vertex -3.682963e+01 1.294094e+00 5.000000e+00
      vertex -3.682963e+01 1.250000e+00 5.334938e+00
    endloop
  endfacet
  facet normal -9.227092e-01 3.821987e-01 5.031741e-02
    outer loop
      vertex -3.682963e+01 1.294094e+00 5.000000e+00
      vertex -3.633013e+01 2.414814e+00 5.647049e+00
      vertex -3.633013e+01 2.500000e+00 5.000000e+00
    endloop
  endfacet
  facet normal -9.912985e-01 1.216131e-01 5.037379e-02
    outer loop
      vertex -3.682963e+01 1.250000e+00 5.334938e+00
      vertex -3.700000e+01 0.000000e+00 5.000000e+00
      vertex -3.682963e+01 1.120716e+00 5.647049e+00
    endloop
  endfacet
  facet normal -6.054678e-01 -1.038819e-01 7.890610e-01
    outer loop
      vertex -3.553553e+01 -9.150658e-01 8.415062e+00
      vertex -3.450000e+01 0.000000e+00 9.330124e+00
      vertex -3.553553e+01 0.000000e+00 8.535538e+00
    endloop
  endfacet
  facet normal -6.054678e-01 -1.038819e-01 7.890610e-01
    outer loop
      vertex -3.450000e+01 0.000000e+00 9.330124e+00
      vertex -3.553553e+01 -9.150658e-01 8.415062e+00
      vertex -3.450000e+01 -1.120720e+00 9.182579e+00
    endloop
  endfacet
  facet normal -9.227092e-01 3.561525e-01 1.475232e-01
    outer loop
      vertex -3.633013e+01 2.165062e+00 6.250000e+00
      vertex -3.682963e+01 1.250000e+00 5.334938e+00
      vertex -3.682963e+01 1.120716e+00 5.647049e+00
    endloop
  endfacet
  facet normal -9.227092e-01 3.561525e-01 1.475232e-01
    outer loop
      vertex -3.682963e+01 1.250000e+00 5.334938e+00
      vertex -3.633013e+01 2.165062e+00 6.250000e+00
      vertex -3.633013e+01 2.414814e+00 5.647049e+00
    endloop
  endfacet
  facet normal -9.912985e-01 1.044315e-01 8.013313e-02
    outer loop
      vertex -3.682963e+01 1.120716e+00 5.647049e+00
      vertex -3.700000e+01 0.000000e+00 5.000000e+00
      vertex -3.682963e+01 9.150620e-01 5.915062e+00
    endloop
  endfacet
  facet normal -9.227092e-01 3.058351e-01 2.346755e-01
    outer loop
      vertex -3.633013e+01 1.767765e+00 6.767769e+00
      vertex -3.682963e+01 1.120716e+00 5.647049e+00
      vertex -3.682963e+01 9.150620e-01 5.915062e+00
    endloop
  endfacet
  facet normal -9.227092e-01 3.058351e-01 2.346755e-01
    outer loop
      vertex -3.682963e+01 1.120716e+00 5.647049e+00
      vertex -3.633013e+01 1.767765e+00 6.767769e+00
      vertex -3.633013e+01 2.165062e+00 6.250000e+00
    endloop
  endfacet
  facet normal -3.798837e-01 -1.207412e-01 9.171205e-01
    outer loop
      vertex -3.450000e+01 -1.120720e+00 9.182579e+00
      vertex -3.329410e+01 0.000000e+00 9.829628e+00
      vertex -3.450000e+01 0.000000e+00 9.330124e+00
    endloop
  endfacet
  facet normal -3.798837e-01 -1.207412e-01 9.171205e-01
    outer loop
      vertex -3.329410e+01 0.000000e+00 9.829628e+00
      vertex -3.450000e+01 -1.120720e+00 9.182579e+00
      vertex -3.329410e+01 -1.250000e+00 9.665062e+00
    endloop
  endfacet
  facet normal -1.294283e-01 9.831056e-01 1.294283e-01
    outer loop
      vertex -3.329410e+01 4.665062e+00 6.250000e+00
      vertex -3.200000e+01 5.000000e+00 5.000000e+00
      vertex -3.329410e+01 4.829628e+00 5.000000e+00
    endloop
  endfacet
  facet normal -1.294283e-01 9.831056e-01 1.294283e-01
    outer loop
      vertex -3.200000e+01 5.000000e+00 5.000000e+00
      vertex -3.329410e+01 4.665062e+00 6.250000e+00
      vertex -3.200000e+01 4.829628e+00 6.294098e+00
    endloop
  endfacet
  facet normal -1.294283e-01 3.794646e-01 9.161086e-01
    outer loop
      vertex -3.200000e+01 1.294094e+00 9.829628e+00
      vertex -3.329410e+01 2.414814e+00 9.182579e+00
      vertex -3.329410e+01 1.250000e+00 9.665062e+00
    endloop
  endfacet
  facet normal -1.294283e-01 3.794646e-01 9.161086e-01
    outer loop
      vertex -3.329410e+01 2.414814e+00 9.182579e+00
      vertex -3.200000e+01 1.294094e+00 9.829628e+00
      vertex -3.200000e+01 2.500000e+00 9.330124e+00
    endloop
  endfacet
  facet normal -3.798837e-01 1.207412e-01 9.171205e-01
    outer loop
      vertex -3.329410e+01 0.000000e+00 9.829628e+00
      vertex -3.450000e+01 1.120716e+00 9.182579e+00
      vertex -3.450000e+01 0.000000e+00 9.330124e+00
    endloop
  endfacet
  facet normal -3.798837e-01 1.207412e-01 9.171205e-01
    outer loop
      vertex -3.450000e+01 1.120716e+00 9.182579e+00
      vertex -3.329410e+01 0.000000e+00 9.829628e+00
      vertex -3.329410e+01 1.250000e+00 9.665062e+00
    endloop
  endfacet
  facet normal -1.294283e-01 7.866803e-01 6.036410e-01
    outer loop
      vertex -3.329410e+01 3.415062e+00 8.415062e+00
      vertex -3.200000e+01 4.330124e+00 7.500000e+00
      vertex -3.329410e+01 4.182579e+00 7.414818e+00
    endloop
  endfacet
  facet normal -1.294283e-01 7.866803e-01 6.036410e-01
    outer loop
      vertex -3.200000e+01 4.330124e+00 7.500000e+00
      vertex -3.329410e+01 3.415062e+00 8.415062e+00
      vertex -3.200000e+01 3.535534e+00 8.535538e+00
    endloop
  endfacet
  facet normal -9.912985e-01 1.718156e-02 1.305069e-01
    outer loop
      vertex -3.682963e+01 3.349342e-01 6.250000e+00
      vertex -3.700000e+01 0.000000e+00 5.000000e+00
      vertex -3.682963e+01 0.000000e+00 6.294098e+00
    endloop
  endfacet
  facet normal -3.798837e-01 9.171205e-01 1.207412e-01
    outer loop
      vertex -3.450000e+01 4.182579e+00 6.120720e+00
      vertex -3.329410e+01 4.829628e+00 5.000000e+00
      vertex -3.450000e+01 4.330124e+00 5.000000e+00
    endloop
  endfacet
  facet normal -3.798837e-01 9.171205e-01 1.207412e-01
    outer loop
      vertex -3.329410e+01 4.829628e+00 5.000000e+00
      vertex -3.450000e+01 4.182579e+00 6.120720e+00
      vertex -3.329410e+01 4.665062e+00 6.250000e+00
    endloop
  endfacet
  facet normal -9.912985e-01 5.037379e-02 1.216131e-01
    outer loop
      vertex -3.682963e+01 6.470451e-01 6.120720e+00
      vertex -3.700000e+01 0.000000e+00 5.000000e+00
      vertex -3.682963e+01 3.349342e-01 6.250000e+00
    endloop
  endfacet
  facet normal -6.054678e-01 6.314059e-01 4.844948e-01
    outer loop
      vertex -3.553553e+01 2.500000e+00 7.500000e+00
      vertex -3.450000e+01 3.750000e+00 7.165062e+00
      vertex -3.553553e+01 3.061859e+00 6.767769e+00
    endloop
  endfacet
  facet normal -6.054678e-01 6.314059e-01 4.844948e-01
    outer loop
      vertex -3.450000e+01 3.750000e+00 7.165062e+00
      vertex -3.553553e+01 2.500000e+00 7.500000e+00
      vertex -3.450000e+01 3.061859e+00 8.061859e+00
    endloop
  endfacet
  facet normal -3.798837e-01 7.338790e-01 5.631251e-01
    outer loop
      vertex -3.450000e+01 3.061859e+00 8.061859e+00
      vertex -3.329410e+01 4.182579e+00 7.414818e+00
      vertex -3.450000e+01 3.750000e+00 7.165062e+00
    endloop
  endfacet
  facet normal -3.798837e-01 7.338790e-01 5.631251e-01
    outer loop
      vertex -3.329410e+01 4.182579e+00 7.414818e+00
      vertex -3.450000e+01 3.061859e+00 8.061859e+00
      vertex -3.329410e+01 3.415062e+00 8.415062e+00
    endloop
  endfacet
  facet normal -7.908176e-01 7.988880e-02 6.068157e-01
    outer loop
      vertex -3.553553e+01 9.150620e-01 8.415062e+00
      vertex -3.633013e+01 0.000000e+00 7.500000e+00
      vertex -3.553553e+01 0.000000e+00 8.535538e+00
    endloop
  endfacet
  facet normal -7.908176e-01 7.988880e-02 6.068157e-01
    outer loop
      vertex -3.633013e+01 0.000000e+00 7.500000e+00
      vertex -3.553553e+01 9.150620e-01 8.415062e+00
      vertex -3.633013e+01 6.470451e-01 7.414818e+00
    endloop
  endfacet
  facet normal -1.294283e-01 9.161086e-01 3.794646e-01
    outer loop
      vertex -3.329410e+01 4.182579e+00 7.414818e+00
      vertex -3.200000e+01 4.829628e+00 6.294098e+00
      vertex -3.329410e+01 4.665062e+00 6.250000e+00
    endloop
  endfacet
  facet normal -1.294283e-01 9.161086e-01 3.794646e-01
    outer loop
      vertex -3.200000e+01 4.829628e+00 6.294098e+00
      vertex -3.329410e+01 4.182579e+00 7.414818e+00
      vertex -3.200000e+01 4.330124e+00 7.500000e+00
    endloop
  endfacet
  facet normal -9.227092e-01 1.475232e-01 3.561525e-01
    outer loop
      vertex -3.633013e+01 6.470451e-01 7.414818e+00
      vertex -3.682963e+01 6.470451e-01 6.120720e+00
      vertex -3.682963e+01 3.349342e-01 6.250000e+00
    endloop
  endfacet
  facet normal -9.227092e-01 1.475232e-01 3.561525e-01
    outer loop
      vertex -3.682963e+01 6.470451e-01 6.120720e+00
      vertex -3.633013e+01 6.470451e-01 7.414818e+00
      vertex -3.633013e+01 1.250000e+00 7.165062e+00
    endloop
  endfacet
  facet normal -7.908176e-01 3.725936e-01 4.855734e-01
    outer loop
      vertex -3.553553e+01 1.767765e+00 8.061859e+00
      vertex -3.633013e+01 1.767765e+00 6.767769e+00
      vertex -3.633013e+01 1.250000e+00 7.165062e+00
    endloop
  endfacet
  facet normal -7.908176e-01 3.725936e-01 4.855734e-01
    outer loop
      vertex -3.633013e+01 1.767765e+00 6.767769e+00
      vertex -3.553553e+01 1.767765e+00 8.061859e+00
      vertex -3.553553e+01 2.500000e+00 7.500000e+00
    endloop
  endfacet
  facet normal -9.227092e-01 5.031741e-02 3.821987e-01
    outer loop
      vertex -3.633013e+01 6.470451e-01 7.414818e+00
      vertex -3.682963e+01 0.000000e+00 6.294098e+00
      vertex -3.633013e+01 0.000000e+00 7.500000e+00
    endloop
  endfacet
  facet normal -9.227092e-01 5.031741e-02 3.821987e-01
    outer loop
      vertex -3.682963e+01 0.000000e+00 6.294098e+00
      vertex -3.633013e+01 6.470451e-01 7.414818e+00
      vertex -3.682963e+01 3.349342e-01 6.250000e+00
    endloop
  endfacet
  facet normal -6.054678e-01 7.890610e-01 1.038819e-01
    outer loop
      vertex -3.553553e+01 3.415062e+00 5.915062e+00
      vertex -3.450000e+01 4.330124e+00 5.000000e+00
      vertex -3.553553e+01 3.535534e+00 5.000000e+00
    endloop
  endfacet
  facet normal -6.054678e-01 7.890610e-01 1.038819e-01
    outer loop
      vertex -3.450000e+01 4.330124e+00 5.000000e+00
      vertex -3.553553e+01 3.415062e+00 5.915062e+00
      vertex -3.450000e+01 4.182579e+00 6.120720e+00
    endloop
  endfacet
  facet normal -6.054678e-01 4.844948e-01 6.314059e-01
    outer loop
      vertex -3.450000e+01 2.165062e+00 8.750000e+00
      vertex -3.553553e+01 2.500000e+00 7.500000e+00
      vertex -3.553553e+01 1.767765e+00 8.061859e+00
    endloop
  endfacet
  facet normal -6.054678e-01 4.844948e-01 6.314059e-01
    outer loop
      vertex -3.553553e+01 2.500000e+00 7.500000e+00
      vertex -3.450000e+01 2.165062e+00 8.750000e+00
      vertex -3.450000e+01 3.061859e+00 8.061859e+00
    endloop
  endfacet
  facet normal -3.798837e-01 5.631252e-01 7.338790e-01
    outer loop
      vertex -3.329410e+01 2.414814e+00 9.182579e+00
      vertex -3.450000e+01 3.061859e+00 8.061859e+00
      vertex -3.450000e+01 2.165062e+00 8.750000e+00
    endloop
  endfacet
  facet normal -3.798837e-01 5.631252e-01 7.338790e-01
    outer loop
      vertex -3.450000e+01 3.061859e+00 8.061859e+00
      vertex -3.329410e+01 2.414814e+00 9.182579e+00
      vertex -3.329410e+01 3.415062e+00 8.415062e+00
    endloop
  endfacet
  facet normal -1.294283e-01 6.036410e-01 7.866803e-01
    outer loop
      vertex -3.200000e+01 2.500000e+00 9.330124e+00
      vertex -3.329410e+01 3.415062e+00 8.415062e+00
      vertex -3.329410e+01 2.414814e+00 9.182579e+00
    endloop
  endfacet
  facet normal -1.294283e-01 6.036410e-01 7.866803e-01
    outer loop
      vertex -3.329410e+01 3.415062e+00 8.415062e+00
      vertex -3.200000e+01 2.500000e+00 9.330124e+00
      vertex -3.200000e+01 3.535534e+00 8.535538e+00
    endloop
  endfacet
  facet normal -6.054679e-01 3.045662e-01 7.352878e-01
    outer loop
      vertex -3.450000e+01 1.120716e+00 9.182579e+00
      vertex -3.553553e+01 1.767765e+00 8.061859e+00
      vertex -3.553553e+01 9.150620e-01 8.415062e+00
    endloop
  endfacet
  facet normal -6.054679e-01 3.045662e-01 7.352878e-01
    outer loop
      vertex -3.553553e+01 1.767765e+00 8.061859e+00
      vertex -3.450000e+01 1.120716e+00 9.182579e+00
      vertex -3.450000e+01 2.165062e+00 8.750000e+00
    endloop
  endfacet
  facet normal -3.798837e-01 3.539953e-01 8.546202e-01
    outer loop
      vertex -3.329410e+01 1.250000e+00 9.665062e+00
      vertex -3.450000e+01 2.165062e+00 8.750000e+00
      vertex -3.450000e+01 1.120716e+00 9.182579e+00
    endloop
  endfacet
  facet normal -3.798837e-01 3.539953e-01 8.546202e-01
    outer loop
      vertex -3.450000e+01 2.165062e+00 8.750000e+00
      vertex -3.329410e+01 1.250000e+00 9.665062e+00
      vertex -3.329410e+01 2.414814e+00 9.182579e+00
    endloop
  endfacet
  facet normal -6.054678e-01 1.038819e-01 7.890610e-01
    outer loop
      vertex -3.450000e+01 0.000000e+00 9.330124e+00
      vertex -3.553553e+01 9.150620e-01 8.415062e+00
      vertex -3.553553e+01 0.000000e+00 8.535538e+00
    endloop
  endfacet
  facet normal -6.054678e-01 1.038819e-01 7.890610e-01
    outer loop
      vertex -3.553553e+01 9.150620e-01 8.415062e+00
      vertex -3.450000e+01 0.000000e+00 9.330124e+00
      vertex -3.450000e+01 1.120716e+00 9.182579e+00
    endloop
  endfacet
  facet normal -1.294283e-01 1.294283e-01 9.831056e-01
    outer loop
      vertex -3.200000e+01 0.000000e+00 1.000000e+01
      vertex -3.329410e+01 1.250000e+00 9.665062e+00
      vertex -3.329410e+01 0.000000e+00 9.829628e+00
    endloop
  endfacet
  facet normal -1.294283e-01 1.294283e-01 9.831056e-01
    outer loop
      vertex -3.329410e+01 1.250000e+00 9.665062e+00
      vertex -3.200000e+01 0.000000e+00 1.000000e+01
      vertex -3.200000e+01 1.294094e+00 9.829628e+00
    endloop
  endfacet
  facet normal -6.054679e-01 7.352878e-01 3.045662e-01
    outer loop
      vertex -3.553553e+01 3.061859e+00 6.767769e+00
      vertex -3.450000e+01 4.182579e+00 6.120720e+00
      vertex -3.553553e+01 3.415062e+00 5.915062e+00
    endloop
  endfacet
  facet normal -6.054679e-01 7.352878e-01 3.045662e-01
    outer loop
      vertex -3.450000e+01 4.182579e+00 6.120720e+00
      vertex -3.553553e+01 3.061859e+00 6.767769e+00
      vertex -3.450000e+01 3.750000e+00 7.165062e+00
    endloop
  endfacet
  facet normal -7.908176e-01 2.342221e-01 5.654622e-01
    outer loop
      vertex -3.553553e+01 9.150620e-01 8.415062e+00
      vertex -3.633013e+01 1.250000e+00 7.165062e+00
      vertex -3.633013e+01 6.470451e-01 7.414818e+00
    endloop
  endfacet
  facet normal -7.908176e-01 2.342221e-01 5.654622e-01
    outer loop
      vertex -3.633013e+01 1.250000e+00 7.165062e+00
      vertex -3.553553e+01 9.150620e-01 8.415062e+00
      vertex -3.553553e+01 1.767765e+00 8.061859e+00
    endloop
  endfacet
  facet normal -3.798837e-01 8.546202e-01 3.539953e-01
    outer loop
      vertex -3.450000e+01 3.750000e+00 7.165062e+00
      vertex -3.329410e+01 4.665062e+00 6.250000e+00
      vertex -3.450000e+01 4.182579e+00 6.120720e+00
    endloop
  endfacet
  facet normal -3.798837e-01 8.546202e-01 3.539953e-01
    outer loop
      vertex -3.329410e+01 4.665062e+00 6.250000e+00
      vertex -3.450000e+01 3.750000e+00 7.165062e+00
      vertex -3.329410e+01 4.182579e+00 7.414818e+00
    endloop
  endfacet
  facet normal 1.000000e+00 1.750532e-13 1.348688e-14
    outer loop
      vertex -3.200000e+01 5.000000e+00 3.000000e+00
      vertex -3.200000e+01 -5.000000e+00 5.000000e+00
      vertex -3.200000e+01 -5.000000e+00 3.000000e+00
    endloop
  endfacet
  facet normal 1.000000e+00 1.750532e-13 1.348688e-14
    outer loop
      vertex -3.200000e+01 -5.000000e+00 5.000000e+00
      vertex -3.200000e+01 5.000000e+00 3.000000e+00
      vertex -3.200000e+01 -4.829632e+00 6.294098e+00
    endloop
  endfacet
  facet normal 1.000000e+00 1.750532e-13 1.348688e-14
    outer loop
      vertex -3.200000e+01 -4.829632e+00 6.294098e+00
      vertex -3.200000e+01 5.000000e+00 3.000000e+00
      vertex -3.200000e+01 -4.330128e+00 7.500000e+00
    endloop
  endfacet
  facet normal 1.000000e+00 1.750532e-13 1.348688e-14
    outer loop
      vertex -3.200000e+01 -4.330128e+00 7.500000e+00
      vertex -3.200000e+01 5.000000e+00 3.000000e+00
      vertex -3.200000e+01 -3.535534e+00 8.535538e+00
    endloop
  endfacet
  facet normal 1.000000e+00 1.750532e-13 1.348688e-14
    outer loop
      vertex -3.200000e+01 -3.535534e+00 8.535538e+00
      vertex -3.200000e+01 5.000000e+00 3.000000e+00
      vertex -3.200000e+01 -2.500000e+00 9.330124e+00
    endloop
  endfacet
  facet normal 1.000000e+00 1.750532e-13 1.348688e-14
    outer loop
      vertex -3.200000e+01 -2.500000e+00 9.330124e+00
      vertex -3.200000e+01 5.000000e+00 3.000000e+00
      vertex -3.200000e+01 -1.294098e+00 9.829628e+00
    endloop
  endfacet
  facet normal 1.000000e+00 1.750532e-13 1.348688e-14
    outer loop
      vertex -3.200000e+01 -1.294098e+00 9.829628e+00
      vertex -3.200000e+01 5.000000e+00 3.000000e+00
      vertex -3.200000e+01 0.000000e+00 1.000000e+01
    endloop
  endfacet
  facet normal 1.000000e+00 1.750532e-13 1.348688e-14
    outer loop
      vertex -3.200000e+01 0.000000e+00 1.000000e+01
      vertex -3.200000e+01 5.000000e+00 3.000000e+00
      vertex -3.200000e+01 1.294094e+00 9.829628e+00
    endloop
  endfacet
  facet normal 1.000000e+00 1.750532e-13 1.348688e-14
    outer loop
      vertex -3.200000e+01 1.294094e+00 9.829628e+00
      vertex -3.200000e+01 5.000000e+00 3.000000e+00
      vertex -3.200000e+01 2.500000e+00 9.330124e+00
    endloop
  endfacet
  facet normal 1.000000e+00 1.750532e-13 1.348688e-14
    outer loop
      vertex -3.200000e+01 2.500000e+00 9.330124e+00
      vertex -3.200000e+01 5.000000e+00 3.000000e+00
      vertex -3.200000e+01 3.535534e+00 8.535538e+00
    endloop
  endfacet
  facet normal 1.000000e+00 1.750532e-13 1.348688e-14
    outer loop
      vertex -3.200000e+01 3.535534e+00 8.535538e+00
      vertex -3.200000e+01 5.000000e+00 3.000000e+00
      vertex -3.200000e+01 4.330124e+00 7.500000e+00
    endloop
  endfacet
  facet normal 1.000000e+00 1.750532e-13 1.348688e-14
    outer loop
      vertex -3.200000e+01 4.330124e+00 7.500000e+00
      vertex -3.200000e+01 5.000000e+00 3.000000e+00
      vertex -3.200000e+01 4.829628e+00 6.294098e+00
    endloop
  endfacet
  facet normal 1.000000e+00 1.750532e-13 1.348688e-14
    outer loop
      vertex -3.200000e+01 4.829628e+00 6.294098e+00
      vertex -3.200000e+01 5.000000e+00 3.000000e+00
      vertex -3.200000e+01 5.000000e+00 5.000000e+00
    endloop
  endfacet
  facet normal -9.914449e-01 -1.305262e-01 -8.954058e-17
    outer loop
      vertex -3.700000e+01 0.000000e+00 5.000000e+00
      vertex -3.682963e+01 -1.294098e+00 3.705902e+00
      vertex -3.682963e+01 -1.294098e+00 5.000000e+00
    endloop
  endfacet
  facet normal -9.914449e-01 -1.332138e-14 -1.305262e-01
    outer loop
      vertex -3.682963e+01 1.294094e+00 3.705902e+00
      vertex -3.682963e+01 -1.294098e+00 3.705902e+00
      vertex -3.700000e+01 0.000000e+00 5.000000e+00
    endloop
  endfacet
  facet normal -9.914449e-01 1.305262e-01 -2.602185e-14
    outer loop
      vertex -3.682963e+01 1.294094e+00 3.705902e+00
      vertex -3.700000e+01 0.000000e+00 5.000000e+00
      vertex -3.682963e+01 1.294094e+00 5.000000e+00
    endloop
  endfacet
  facet normal -9.431662e-16 -1.000000e+00 -1.224647e-16
    outer loop
      vertex 3.700000e+01 -5.000000e+00 3.000000e+00
      vertex -3.200000e+01 -5.000000e+00 0.000000e+00
      vertex 3.700000e+01 -5.000000e+00 0.000000e+00
    endloop
  endfacet
  facet normal -9.431662e-16 -1.000000e+00 -1.224647e-16
    outer loop
      vertex -3.200000e+01 -5.000000e+00 0.000000e+00
      vertex 3.700000e+01 -5.000000e+00 3.000000e+00
      vertex -3.200000e+01 -5.000000e+00 3.000000e+00
    endloop
  endfacet
  facet normal -1.305262e-01 -9.914449e-01 -3.927711e-15
    outer loop
      vertex -3.200000e+01 -5.000000e+00 3.000000e+00
      vertex -3.329410e+01 -4.829632e+00 1.703720e-01
      vertex -3.200000e+01 -5.000000e+00 0.000000e+00
    endloop
  endfacet
  facet normal -1.305262e-01 -9.914449e-01 -3.927711e-15
    outer loop
      vertex -3.329410e+01 -4.829632e+00 1.703720e-01
      vertex -3.200000e+01 -5.000000e+00 3.000000e+00
      vertex -3.329410e+01 -4.829632e+00 5.000000e+00
    endloop
  endfacet
  facet normal -1.305262e-01 -9.914449e-01 -3.927711e-15
    outer loop
      vertex -3.329410e+01 -4.829632e+00 5.000000e+00
      vertex -3.200000e+01 -5.000000e+00 3.000000e+00
      vertex -3.200000e+01 -5.000000e+00 5.000000e+00
    endloop
  endfacet
endsolid Default
