solid Default
  facet normal 7.992423e-18 1.305262e-01 -9.914449e-01
    outer loop
      vertex -2.150000e+01 -1.353527e+01 1.586370e+01
      vertex -1.650000e+01 -1.250000e+01 1.600000e+01
      vertex -1.650000e+01 -1.353527e+01 1.586370e+01
    endloop
  endfacet
  facet normal 7.992423e-18 1.305262e-01 -9.914449e-01
    outer loop
      vertex -1.650000e+01 -1.250000e+01 1.600000e+01
      vertex -2.150000e+01 -1.353527e+01 1.586370e+01
      vertex -2.150000e+01 -1.250000e+01 1.600000e+01
    endloop
  endfacet
  facet normal 2.343260e-17 3.826834e-01 -9.238795e-01
    outer loop
      vertex -2.150000e+01 -1.450000e+01 1.546410e+01
      vertex -1.650000e+01 -1.353527e+01 1.586370e+01
      vertex -1.650000e+01 -1.450000e+01 1.546410e+01
    endloop
  endfacet
  facet normal 2.343260e-17 3.826834e-01 -9.238795e-01
    outer loop
      vertex -1.650000e+01 -1.353527e+01 1.586370e+01
      vertex -2.150000e+01 -1.450000e+01 1.546410e+01
      vertex -2.150000e+01 -1.353527e+01 1.586370e+01
    endloop
  endfacet
  facet normal 3.749399e-33 6.123234e-17 1.000000e+00
    outer loop
      vertex -2.150000e+01 -1.643417e+01 1.150000e+01
      vertex -1.650000e+01 -1.650000e+01 1.150000e+01
      vertex -1.650000e+01 -1.643417e+01 1.150000e+01
    endloop
  endfacet
  facet normal 3.749399e-33 6.123234e-17 1.000000e+00
    outer loop
      vertex -1.650000e+01 -1.650000e+01 1.150000e+01
      vertex -2.150000e+01 -1.643417e+01 1.150000e+01
      vertex -2.150000e+01 -1.650000e+01 1.150000e+01
    endloop
  endfacet
  facet normal -1.485102e-17 -2.425356e-01 9.701425e-01
    outer loop
      vertex -2.150000e+01 -1.650000e+01 1.150000e+01
      vertex -1.650000e+01 -1.850000e+01 1.100000e+01
      vertex -1.650000e+01 -1.650000e+01 1.150000e+01
    endloop
  endfacet
  facet normal -1.485102e-17 -2.425356e-01 9.701425e-01
    outer loop
      vertex -1.650000e+01 -1.850000e+01 1.100000e+01
      vertex -2.150000e+01 -1.650000e+01 1.150000e+01
      vertex -2.150000e+01 -1.850000e+01 1.100000e+01
    endloop
  endfacet
  facet normal 6.070849e-17 9.914449e-01 1.305262e-01
    outer loop
      vertex -2.150000e+01 -1.643417e+01 1.150000e+01
      vertex -1.650000e+01 -1.636370e+01 1.096472e+01
      vertex -2.150000e+01 -1.636370e+01 1.096472e+01
    endloop
  endfacet
  facet normal 6.070849e-17 9.914449e-01 1.305262e-01
    outer loop
      vertex -1.650000e+01 -1.636370e+01 1.096472e+01
      vertex -2.150000e+01 -1.643417e+01 1.150000e+01
      vertex -1.650000e+01 -1.643417e+01 1.150000e+01
    endloop
  endfacet
  facet normal 4.857888e-17 7.933533e-01 -6.087614e-01
    outer loop
      vertex -2.150000e+01 -1.532843e+01 1.482843e+01
      vertex -1.650000e+01 -1.596410e+01 1.400000e+01
      vertex -2.150000e+01 -1.596410e+01 1.400000e+01
    endloop
  endfacet
  facet normal 4.857888e-17 7.933533e-01 -6.087614e-01
    outer loop
      vertex -1.650000e+01 -1.596410e+01 1.400000e+01
      vertex -2.150000e+01 -1.532843e+01 1.482843e+01
      vertex -1.650000e+01 -1.532843e+01 1.482843e+01
    endloop
  endfacet
  facet normal 4.857888e-17 7.933533e-01 6.087614e-01
    outer loop
      vertex -2.150000e+01 -1.596410e+01 1.000000e+01
      vertex -1.650000e+01 -1.532843e+01 9.171573e+00
      vertex -2.150000e+01 -1.532843e+01 9.171573e+00
    endloop
  endfacet
  facet normal 4.857888e-17 7.933533e-01 6.087614e-01
    outer loop
      vertex -1.650000e+01 -1.532843e+01 9.171573e+00
      vertex -2.150000e+01 -1.596410e+01 1.000000e+01
      vertex -1.650000e+01 -1.596410e+01 1.000000e+01
    endloop
  endfacet
  facet normal 3.727589e-17 6.087614e-01 7.933533e-01
    outer loop
      vertex -2.150000e+01 -1.450000e+01 8.535898e+00
      vertex -1.650000e+01 -1.532843e+01 9.171573e+00
      vertex -1.650000e+01 -1.450000e+01 8.535898e+00
    endloop
  endfacet
  facet normal 3.727589e-17 6.087614e-01 7.933533e-01
    outer loop
      vertex -1.650000e+01 -1.532843e+01 9.171573e+00
      vertex -2.150000e+01 -1.450000e+01 8.535898e+00
      vertex -2.150000e+01 -1.532843e+01 9.171573e+00
    endloop
  endfacet
  facet normal -7.992423e-18 -1.305262e-01 -9.914449e-01
    outer loop
      vertex -2.150000e+01 -1.250000e+01 1.600000e+01
      vertex -1.650000e+01 -1.146473e+01 1.586370e+01
      vertex -1.650000e+01 -1.250000e+01 1.600000e+01
    endloop
  endfacet
  facet normal -7.992423e-18 -1.305262e-01 -9.914449e-01
    outer loop
      vertex -1.650000e+01 -1.146473e+01 1.586370e+01
      vertex -2.150000e+01 -1.250000e+01 1.600000e+01
      vertex -2.150000e+01 -1.146473e+01 1.586370e+01
    endloop
  endfacet
  facet normal -6.123234e-17 -1.000000e+00 6.123234e-17
    outer loop
      vertex -1.650000e+01 -1.850000e+01 1.100000e+01
      vertex -2.150000e+01 -1.850000e+01 1.776357e-15
      vertex -1.650000e+01 -1.850000e+01 1.776357e-15
    endloop
  endfacet
  facet normal -6.123234e-17 -1.000000e+00 6.123234e-17
    outer loop
      vertex -2.150000e+01 -1.850000e+01 1.776357e-15
      vertex -1.650000e+01 -1.850000e+01 1.100000e+01
      vertex -2.150000e+01 -1.850000e+01 1.100000e+01
    endloop
  endfacet
  facet normal 5.657131e-17 9.238795e-01 3.826834e-01
    outer loop
      vertex -2.150000e+01 -1.636370e+01 1.096472e+01
      vertex -1.650000e+01 -1.596410e+01 1.000000e+01
      vertex -2.150000e+01 -1.596410e+01 1.000000e+01
    endloop
  endfacet
  facet normal 5.657131e-17 9.238795e-01 3.826834e-01
    outer loop
      vertex -1.650000e+01 -1.596410e+01 1.000000e+01
      vertex -2.150000e+01 -1.636370e+01 1.096472e+01
      vertex -1.650000e+01 -1.636370e+01 1.096472e+01
    endloop
  endfacet
  facet normal -5.657131e-17 -9.238795e-01 3.826834e-01
    outer loop
      vertex -1.650000e+01 -8.636295e+00 1.096472e+01
      vertex -2.150000e+01 -9.035900e+00 1.000000e+01
      vertex -1.650000e+01 -9.035900e+00 1.000000e+01
    endloop
  endfacet
  facet normal -5.657131e-17 -9.238795e-01 3.826834e-01
    outer loop
      vertex -2.150000e+01 -9.035900e+00 1.000000e+01
      vertex -1.650000e+01 -8.636295e+00 1.096472e+01
      vertex -2.150000e+01 -8.636295e+00 1.096472e+01
    endloop
  endfacet
  facet normal -6.538050e-18 -1.305262e-01 9.914449e-01
    outer loop
      vertex -2.150000e+01 -1.146473e+01 8.136297e+00
      vertex -1.650000e+01 -1.250000e+01 8.000000e+00
      vertex -1.650000e+01 -1.146473e+01 8.136297e+00
    endloop
  endfacet
  facet normal -6.538050e-18 -1.305262e-01 9.914449e-01
    outer loop
      vertex -1.650000e+01 -1.250000e+01 8.000000e+00
      vertex -2.150000e+01 -1.146473e+01 8.136297e+00
      vertex -2.150000e+01 -1.250000e+01 8.000000e+00
    endloop
  endfacet
  facet normal -3.727589e-17 -6.087614e-01 7.933533e-01
    outer loop
      vertex -2.150000e+01 -9.671574e+00 9.171573e+00
      vertex -1.650000e+01 -1.050000e+01 8.535898e+00
      vertex -1.650000e+01 -9.671574e+00 9.171573e+00
    endloop
  endfacet
  facet normal -3.727589e-17 -6.087614e-01 7.933533e-01
    outer loop
      vertex -1.650000e+01 -1.050000e+01 8.535898e+00
      vertex -2.150000e+01 -9.671574e+00 9.171573e+00
      vertex -2.150000e+01 -1.050000e+01 8.535898e+00
    endloop
  endfacet
  facet normal 2.507456e-17 3.077943e-16 -1.000000e+00
    outer loop
      vertex -2.150000e+01 -1.850000e+01 1.776357e-15
      vertex -1.650000e+01 4.500000e+00 0.000000e+00
      vertex -1.650000e+01 -1.850000e+01 1.776357e-15
    endloop
  endfacet
  facet normal 2.507456e-17 3.077943e-16 -1.000000e+00
    outer loop
      vertex 2.150000e+01 4.500000e+00 0.000000e+00
      vertex 1.750000e+01 8.500000e+00 0.000000e+00
      vertex 2.150000e+01 1.850000e+01 0.000000e+00
    endloop
  endfacet
  facet normal 2.507456e-17 3.077943e-16 -1.000000e+00
    outer loop
      vertex 1.750000e+01 8.500000e+00 0.000000e+00
      vertex 2.150000e+01 4.500000e+00 0.000000e+00
      vertex -1.650000e+01 4.500000e+00 0.000000e+00
    endloop
  endfacet
  facet normal 2.507456e-17 3.077943e-16 -1.000000e+00
    outer loop
      vertex 1.750000e+01 8.500000e+00 0.000000e+00
      vertex -1.650000e+01 4.500000e+00 0.000000e+00
      vertex -2.150000e+01 8.500000e+00 0.000000e+00
    endloop
  endfacet
  facet normal 2.507456e-17 3.077943e-16 -1.000000e+00
    outer loop
      vertex -2.150000e+01 8.500000e+00 0.000000e+00
      vertex -1.650000e+01 4.500000e+00 0.000000e+00
      vertex -2.150000e+01 -1.850000e+01 1.776357e-15
    endloop
  endfacet
  facet normal 2.507456e-17 3.077943e-16 -1.000000e+00
    outer loop
      vertex 1.750000e+01 1.850000e+01 0.000000e+00
      vertex 2.150000e+01 1.850000e+01 0.000000e+00
      vertex 1.750000e+01 8.500000e+00 0.000000e+00
    endloop
  endfacet
  facet normal 1.295410e-16 8.970940e-16 1.000000e+00
    outer loop
      vertex 1.750000e+01 1.850000e+01 2.400000e+01
      vertex 1.750000e+01 8.500000e+00 2.400000e+01
      vertex 2.150000e+01 1.850000e+01 2.400000e+01
    endloop
  endfacet
  facet normal 1.295410e-16 8.970940e-16 1.000000e+00
    outer loop
      vertex 2.150000e+01 4.500000e+00 2.400000e+01
      vertex 1.750000e+01 8.500000e+00 2.400000e+01
      vertex -1.650000e+01 4.500000e+00 2.400000e+01
    endloop
  endfacet
  facet normal 1.295410e-16 8.970940e-16 1.000000e+00
    outer loop
      vertex 1.750000e+01 8.500000e+00 2.400000e+01
      vertex 2.150000e+01 4.500000e+00 2.400000e+01
      vertex 2.150000e+01 1.850000e+01 2.400000e+01
    endloop
  endfacet
  facet normal 1.295410e-16 8.970940e-16 1.000000e+00
    outer loop
      vertex -1.650000e+01 4.500000e+00 2.400000e+01
      vertex 1.750000e+01 8.500000e+00 2.400000e+01
      vertex -2.150000e+01 8.500000e+00 2.400000e+01
    endloop
  endfacet
  facet normal 1.295410e-16 8.970940e-16 1.000000e+00
    outer loop
      vertex -1.650000e+01 4.500000e+00 2.400000e+01
      vertex -2.150000e+01 8.500000e+00 2.400000e+01
      vertex -1.650000e+01 -1.850000e+01 2.400000e+01
    endloop
  endfacet
  facet normal 1.295410e-16 8.970940e-16 1.000000e+00
    outer loop
      vertex -1.650000e+01 -1.850000e+01 2.400000e+01
      vertex -2.150000e+01 8.500000e+00 2.400000e+01
      vertex -2.150000e+01 -1.850000e+01 2.400000e+01
    endloop
  endfacet
  facet normal -4.857888e-17 -7.933533e-01 6.087614e-01
    outer loop
      vertex -1.650000e+01 -9.035900e+00 1.000000e+01
      vertex -2.150000e+01 -9.671574e+00 9.171573e+00
      vertex -1.650000e+01 -9.671574e+00 9.171573e+00
    endloop
  endfacet
  facet normal -4.857888e-17 -7.933533e-01 6.087614e-01
    outer loop
      vertex -2.150000e+01 -9.671574e+00 9.171573e+00
      vertex -1.650000e+01 -9.035900e+00 1.000000e+01
      vertex -2.150000e+01 -9.035900e+00 1.000000e+01
    endloop
  endfacet
  facet normal 3.727589e-17 6.087614e-01 -7.933533e-01
    outer loop
      vertex -2.150000e+01 -1.532843e+01 1.482843e+01
      vertex -1.650000e+01 -1.450000e+01 1.546410e+01
      vertex -1.650000e+01 -1.532843e+01 1.482843e+01
    endloop
  endfacet
  facet normal 3.727589e-17 6.087614e-01 -7.933533e-01
    outer loop
      vertex -1.650000e+01 -1.450000e+01 1.546410e+01
      vertex -2.150000e+01 -1.532843e+01 1.482843e+01
      vertex -2.150000e+01 -1.450000e+01 1.546410e+01
    endloop
  endfacet
  facet normal -6.070849e-17 -9.914449e-01 1.305262e-01
    outer loop
      vertex -1.650000e+01 -8.500000e+00 1.200000e+01
      vertex -2.150000e+01 -8.636295e+00 1.096472e+01
      vertex -1.650000e+01 -8.636295e+00 1.096472e+01
    endloop
  endfacet
  facet normal -6.070849e-17 -9.914449e-01 1.305262e-01
    outer loop
      vertex -2.150000e+01 -8.636295e+00 1.096472e+01
      vertex -1.650000e+01 -8.500000e+00 1.200000e+01
      vertex -2.150000e+01 -8.500000e+00 1.200000e+01
    endloop
  endfacet
  facet normal 7.992423e-18 1.305262e-01 9.914449e-01
    outer loop
      vertex -2.150000e+01 -1.250000e+01 8.000000e+00
      vertex -1.650000e+01 -1.353527e+01 8.136297e+00
      vertex -1.650000e+01 -1.250000e+01 8.000000e+00
    endloop
  endfacet
  facet normal 7.992423e-18 1.305262e-01 9.914449e-01
    outer loop
      vertex -1.650000e+01 -1.353527e+01 8.136297e+00
      vertex -2.150000e+01 -1.250000e+01 8.000000e+00
      vertex -2.150000e+01 -1.353527e+01 8.136297e+00
    endloop
  endfacet
  facet normal -2.614312e-17 -3.826834e-01 9.238795e-01
    outer loop
      vertex -2.150000e+01 -1.050000e+01 8.535898e+00
      vertex -1.650000e+01 -1.146473e+01 8.136297e+00
      vertex -1.650000e+01 -1.050000e+01 8.535898e+00
    endloop
  endfacet
  facet normal -2.614312e-17 -3.826834e-01 9.238795e-01
    outer loop
      vertex -1.650000e+01 -1.146473e+01 8.136297e+00
      vertex -2.150000e+01 -1.050000e+01 8.535898e+00
      vertex -2.150000e+01 -1.146473e+01 8.136297e+00
    endloop
  endfacet
  facet normal -1.000000e+00 6.123234e-17 7.567712e-31
    outer loop
      vertex -2.150000e+01 -1.850000e+01 1.776357e-15
      vertex -2.150000e+01 8.500000e+00 2.400000e+01
      vertex -2.150000e+01 8.500000e+00 0.000000e+00
    endloop
  endfacet
  facet normal -1.000000e+00 6.123234e-17 7.567712e-31
    outer loop
      vertex -2.150000e+01 8.500000e+00 2.400000e+01
      vertex -2.150000e+01 -1.850000e+01 1.776357e-15
      vertex -2.150000e+01 -9.671574e+00 9.171573e+00
    endloop
  endfacet
  facet normal -1.000000e+00 6.123234e-17 7.567712e-31
    outer loop
      vertex -2.150000e+01 8.500000e+00 2.400000e+01
      vertex -2.150000e+01 -9.671574e+00 9.171573e+00
      vertex -2.150000e+01 -9.035900e+00 1.000000e+01
    endloop
  endfacet
  facet normal -1.000000e+00 6.123234e-17 7.567712e-31
    outer loop
      vertex -2.150000e+01 8.500000e+00 2.400000e+01
      vertex -2.150000e+01 -9.035900e+00 1.000000e+01
      vertex -2.150000e+01 -8.636295e+00 1.096472e+01
    endloop
  endfacet
  facet normal -1.000000e+00 6.123234e-17 7.567712e-31
    outer loop
      vertex -2.150000e+01 8.500000e+00 2.400000e+01
      vertex -2.150000e+01 -8.636295e+00 1.096472e+01
      vertex -2.150000e+01 -8.500000e+00 1.200000e+01
    endloop
  endfacet
  facet normal -1.000000e+00 6.123234e-17 7.567712e-31
    outer loop
      vertex -2.150000e+01 -9.671574e+00 9.171573e+00
      vertex -2.150000e+01 -1.850000e+01 1.776357e-15
      vertex -2.150000e+01 -1.050000e+01 8.535898e+00
    endloop
  endfacet
  facet normal -1.000000e+00 6.123234e-17 7.567712e-31
    outer loop
      vertex -2.150000e+01 -1.050000e+01 8.535898e+00
      vertex -2.150000e+01 -1.850000e+01 1.776357e-15
      vertex -2.150000e+01 -1.146473e+01 8.136297e+00
    endloop
  endfacet
  facet normal -1.000000e+00 6.123234e-17 7.567712e-31
    outer loop
      vertex -2.150000e+01 -1.146473e+01 8.136297e+00
      vertex -2.150000e+01 -1.850000e+01 1.776357e-15
      vertex -2.150000e+01 -1.250000e+01 8.000000e+00
    endloop
  endfacet
  facet normal -1.000000e+00 6.123234e-17 7.567712e-31
    outer loop
      vertex -2.150000e+01 -1.250000e+01 8.000000e+00
      vertex -2.150000e+01 -1.850000e+01 1.776357e-15
      vertex -2.150000e+01 -1.353527e+01 8.136297e+00
    endloop
  endfacet
  facet normal -1.000000e+00 6.123234e-17 7.567712e-31
    outer loop
      vertex -2.150000e+01 -1.353527e+01 8.136297e+00
      vertex -2.150000e+01 -1.850000e+01 1.776357e-15
      vertex -2.150000e+01 -1.450000e+01 8.535898e+00
    endloop
  endfacet
  facet normal -1.000000e+00 6.123234e-17 7.567712e-31
    outer loop
      vertex -2.150000e+01 -1.450000e+01 8.535898e+00
      vertex -2.150000e+01 -1.850000e+01 1.776357e-15
      vertex -2.150000e+01 -1.532843e+01 9.171573e+00
    endloop
  endfacet
  facet normal -1.000000e+00 6.123234e-17 7.567712e-31
    outer loop
      vertex -2.150000e+01 -1.532843e+01 9.171573e+00
      vertex -2.150000e+01 -1.850000e+01 1.776357e-15
      vertex -2.150000e+01 -1.596410e+01 1.000000e+01
    endloop
  endfacet
  facet normal -1.000000e+00 6.123234e-17 7.567712e-31
    outer loop
      vertex -2.150000e+01 -1.596410e+01 1.000000e+01
      vertex -2.150000e+01 -1.850000e+01 1.776357e-15
      vertex -2.150000e+01 -1.636370e+01 1.096472e+01
    endloop
  endfacet
  facet normal -1.000000e+00 6.123234e-17 7.567712e-31
    outer loop
      vertex -2.150000e+01 -1.636370e+01 1.096472e+01
      vertex -2.150000e+01 -1.850000e+01 1.776357e-15
      vertex -2.150000e+01 -1.643417e+01 1.150000e+01
    endloop
  endfacet
  facet normal -1.000000e+00 6.123234e-17 7.567712e-31
    outer loop
      vertex -2.150000e+01 -1.643417e+01 1.150000e+01
      vertex -2.150000e+01 -1.850000e+01 1.776357e-15
      vertex -2.150000e+01 -1.650000e+01 1.150000e+01
    endloop
  endfacet
  facet normal -1.000000e+00 6.123234e-17 7.567712e-31
    outer loop
      vertex -2.150000e+01 -1.650000e+01 1.150000e+01
      vertex -2.150000e+01 -1.850000e+01 1.776357e-15
      vertex -2.150000e+01 -1.850000e+01 1.100000e+01
    endloop
  endfacet
  facet normal -1.000000e+00 6.123234e-17 7.567712e-31
    outer loop
      vertex -2.150000e+01 8.500000e+00 2.400000e+01
      vertex -2.150000e+01 -9.671574e+00 1.482843e+01
      vertex -2.150000e+01 -1.850000e+01 2.400000e+01
    endloop
  endfacet
  facet normal -1.000000e+00 6.123234e-17 7.567712e-31
    outer loop
      vertex -2.150000e+01 -9.671574e+00 1.482843e+01
      vertex -2.150000e+01 8.500000e+00 2.400000e+01
      vertex -2.150000e+01 -9.035900e+00 1.400000e+01
    endloop
  endfacet
  facet normal -1.000000e+00 6.123234e-17 7.567712e-31
    outer loop
      vertex -2.150000e+01 -9.035900e+00 1.400000e+01
      vertex -2.150000e+01 8.500000e+00 2.400000e+01
      vertex -2.150000e+01 -8.636295e+00 1.303528e+01
    endloop
  endfacet
  facet normal -1.000000e+00 6.123234e-17 7.567712e-31
    outer loop
      vertex -2.150000e+01 -8.636295e+00 1.303528e+01
      vertex -2.150000e+01 8.500000e+00 2.400000e+01
      vertex -2.150000e+01 -8.500000e+00 1.200000e+01
    endloop
  endfacet
  facet normal -1.000000e+00 6.123234e-17 7.567712e-31
    outer loop
      vertex -2.150000e+01 -1.850000e+01 2.400000e+01
      vertex -2.150000e+01 -9.671574e+00 1.482843e+01
      vertex -2.150000e+01 -1.050000e+01 1.546410e+01
    endloop
  endfacet
  facet normal -1.000000e+00 6.123234e-17 7.567712e-31
    outer loop
      vertex -2.150000e+01 -1.850000e+01 2.400000e+01
      vertex -2.150000e+01 -1.050000e+01 1.546410e+01
      vertex -2.150000e+01 -1.146473e+01 1.586370e+01
    endloop
  endfacet
  facet normal -1.000000e+00 6.123234e-17 7.567712e-31
    outer loop
      vertex -2.150000e+01 -1.850000e+01 2.400000e+01
      vertex -2.150000e+01 -1.146473e+01 1.586370e+01
      vertex -2.150000e+01 -1.250000e+01 1.600000e+01
    endloop
  endfacet
  facet normal -1.000000e+00 6.123234e-17 7.567712e-31
    outer loop
      vertex -2.150000e+01 -1.850000e+01 2.400000e+01
      vertex -2.150000e+01 -1.250000e+01 1.600000e+01
      vertex -2.150000e+01 -1.353527e+01 1.586370e+01
    endloop
  endfacet
  facet normal -1.000000e+00 6.123234e-17 7.567712e-31
    outer loop
      vertex -2.150000e+01 -1.850000e+01 2.400000e+01
      vertex -2.150000e+01 -1.353527e+01 1.586370e+01
      vertex -2.150000e+01 -1.450000e+01 1.546410e+01
    endloop
  endfacet
  facet normal -1.000000e+00 6.123234e-17 7.567712e-31
    outer loop
      vertex -2.150000e+01 -1.850000e+01 2.400000e+01
      vertex -2.150000e+01 -1.450000e+01 1.546410e+01
      vertex -2.150000e+01 -1.532843e+01 1.482843e+01
    endloop
  endfacet
  facet normal -1.000000e+00 6.123234e-17 7.567712e-31
    outer loop
      vertex -2.150000e+01 -1.850000e+01 2.400000e+01
      vertex -2.150000e+01 -1.532843e+01 1.482843e+01
      vertex -2.150000e+01 -1.596410e+01 1.400000e+01
    endloop
  endfacet
  facet normal -1.000000e+00 6.123234e-17 7.567712e-31
    outer loop
      vertex -2.150000e+01 -1.850000e+01 2.400000e+01
      vertex -2.150000e+01 -1.596410e+01 1.400000e+01
      vertex -2.150000e+01 -1.636370e+01 1.303528e+01
    endloop
  endfacet
  facet normal -1.000000e+00 6.123234e-17 7.567712e-31
    outer loop
      vertex -2.150000e+01 -1.850000e+01 2.400000e+01
      vertex -2.150000e+01 -1.636370e+01 1.303528e+01
      vertex -2.150000e+01 -1.643417e+01 1.250000e+01
    endloop
  endfacet
  facet normal -1.000000e+00 6.123234e-17 7.567712e-31
    outer loop
      vertex -2.150000e+01 -1.850000e+01 2.400000e+01
      vertex -2.150000e+01 -1.643417e+01 1.250000e+01
      vertex -2.150000e+01 -1.650000e+01 1.250000e+01
    endloop
  endfacet
  facet normal -1.000000e+00 6.123234e-17 7.567712e-31
    outer loop
      vertex -2.150000e+01 -1.850000e+01 2.400000e+01
      vertex -2.150000e+01 -1.650000e+01 1.250000e+01
      vertex -2.150000e+01 -1.850000e+01 1.300000e+01
    endloop
  endfacet
  facet normal -6.070849e-17 -9.914449e-01 -1.305262e-01
    outer loop
      vertex -1.650000e+01 -8.636295e+00 1.303528e+01
      vertex -2.150000e+01 -8.500000e+00 1.200000e+01
      vertex -1.650000e+01 -8.500000e+00 1.200000e+01
    endloop
  endfacet
  facet normal -6.070849e-17 -9.914449e-01 -1.305262e-01
    outer loop
      vertex -2.150000e+01 -8.500000e+00 1.200000e+01
      vertex -1.650000e+01 -8.636295e+00 1.303528e+01
      vertex -2.150000e+01 -8.636295e+00 1.303528e+01
    endloop
  endfacet
  facet normal -5.657131e-17 -9.238795e-01 -3.826834e-01
    outer loop
      vertex -1.650000e+01 -9.035900e+00 1.400000e+01
      vertex -2.150000e+01 -8.636295e+00 1.303528e+01
      vertex -1.650000e+01 -8.636295e+00 1.303528e+01
    endloop
  endfacet
  facet normal -5.657131e-17 -9.238795e-01 -3.826834e-01
    outer loop
      vertex -2.150000e+01 -8.636295e+00 1.303528e+01
      vertex -1.650000e+01 -9.035900e+00 1.400000e+01
      vertex -2.150000e+01 -9.035900e+00 1.400000e+01
    endloop
  endfacet
  facet normal -3.749399e-33 -6.123234e-17 -1.000000e+00
    outer loop
      vertex -2.150000e+01 -1.650000e+01 1.250000e+01
      vertex -1.650000e+01 -1.643417e+01 1.250000e+01
      vertex -1.650000e+01 -1.650000e+01 1.250000e+01
    endloop
  endfacet
  facet normal -3.749399e-33 -6.123234e-17 -1.000000e+00
    outer loop
      vertex -1.650000e+01 -1.643417e+01 1.250000e+01
      vertex -2.150000e+01 -1.650000e+01 1.250000e+01
      vertex -2.150000e+01 -1.643417e+01 1.250000e+01
    endloop
  endfacet
  facet normal -4.857888e-17 -7.933533e-01 -6.087614e-01
    outer loop
      vertex -1.650000e+01 -9.671574e+00 1.482843e+01
      vertex -2.150000e+01 -9.035900e+00 1.400000e+01
      vertex -1.650000e+01 -9.035900e+00 1.400000e+01
    endloop
  endfacet
  facet normal -4.857888e-17 -7.933533e-01 -6.087614e-01
    outer loop
      vertex -2.150000e+01 -9.035900e+00 1.400000e+01
      vertex -1.650000e+01 -9.671574e+00 1.482843e+01
      vertex -2.150000e+01 -9.671574e+00 1.482843e+01
    endloop
  endfacet
  facet normal 2.343260e-17 3.826834e-01 9.238795e-01
    outer loop
      vertex -2.150000e+01 -1.353527e+01 8.136297e+00
      vertex -1.650000e+01 -1.450000e+01 8.535898e+00
      vertex -1.650000e+01 -1.353527e+01 8.136297e+00
    endloop
  endfacet
  facet normal 2.343260e-17 3.826834e-01 9.238795e-01
    outer loop
      vertex -1.650000e+01 -1.450000e+01 8.535898e+00
      vertex -2.150000e+01 -1.353527e+01 8.136297e+00
      vertex -2.150000e+01 -1.450000e+01 8.535898e+00
    endloop
  endfacet
  facet normal 5.657131e-17 9.238795e-01 -3.826834e-01
    outer loop
      vertex -2.150000e+01 -1.596410e+01 1.400000e+01
      vertex -1.650000e+01 -1.636370e+01 1.303528e+01
      vertex -2.150000e+01 -1.636370e+01 1.303528e+01
    endloop
  endfacet
  facet normal 5.657131e-17 9.238795e-01 -3.826834e-01
    outer loop
      vertex -1.650000e+01 -1.636370e+01 1.303528e+01
      vertex -2.150000e+01 -1.596410e+01 1.400000e+01
      vertex -1.650000e+01 -1.596410e+01 1.400000e+01
    endloop
  endfacet
  facet normal 6.070849e-17 9.914449e-01 -1.305262e-01
    outer loop
      vertex -2.150000e+01 -1.636370e+01 1.303528e+01
      vertex -1.650000e+01 -1.643417e+01 1.250000e+01
      vertex -2.150000e+01 -1.643417e+01 1.250000e+01
    endloop
  endfacet
  facet normal 6.070849e-17 9.914449e-01 -1.305262e-01
    outer loop
      vertex -1.650000e+01 -1.643417e+01 1.250000e+01
      vertex -2.150000e+01 -1.636370e+01 1.303528e+01
      vertex -1.650000e+01 -1.636370e+01 1.303528e+01
    endloop
  endfacet
  facet normal -6.123234e-17 -1.000000e+00 6.123234e-17
    outer loop
      vertex -1.650000e+01 -1.850000e+01 2.400000e+01
      vertex -2.150000e+01 -1.850000e+01 1.300000e+01
      vertex -1.650000e+01 -1.850000e+01 1.300000e+01
    endloop
  endfacet
  facet normal -6.123234e-17 -1.000000e+00 6.123234e-17
    outer loop
      vertex -2.150000e+01 -1.850000e+01 1.300000e+01
      vertex -1.650000e+01 -1.850000e+01 2.400000e+01
      vertex -2.150000e+01 -1.850000e+01 2.400000e+01
    endloop
  endfacet
  facet normal -1.485102e-17 -2.425356e-01 -9.701425e-01
    outer loop
      vertex -2.150000e+01 -1.850000e+01 1.300000e+01
      vertex -1.650000e+01 -1.650000e+01 1.250000e+01
      vertex -1.650000e+01 -1.850000e+01 1.300000e+01
    endloop
  endfacet
  facet normal -1.485102e-17 -2.425356e-01 -9.701425e-01
    outer loop
      vertex -1.650000e+01 -1.650000e+01 1.250000e+01
      vertex -2.150000e+01 -1.850000e+01 1.300000e+01
      vertex -2.150000e+01 -1.650000e+01 1.250000e+01
    endloop
  endfacet
  facet normal -3.727589e-17 -6.087614e-01 -7.933533e-01
    outer loop
      vertex -2.150000e+01 -1.050000e+01 1.546410e+01
      vertex -1.650000e+01 -9.671574e+00 1.482843e+01
      vertex -1.650000e+01 -1.050000e+01 1.546410e+01
    endloop
  endfacet
  facet normal -3.727589e-17 -6.087614e-01 -7.933533e-01
    outer loop
      vertex -1.650000e+01 -9.671574e+00 1.482843e+01
      vertex -2.150000e+01 -1.050000e+01 1.546410e+01
      vertex -2.150000e+01 -9.671574e+00 1.482843e+01
    endloop
  endfacet
  facet normal -2.343260e-17 -3.826834e-01 -9.238795e-01
    outer loop
      vertex -2.150000e+01 -1.146473e+01 1.586370e+01
      vertex -1.650000e+01 -1.050000e+01 1.546410e+01
      vertex -1.650000e+01 -1.146473e+01 1.586370e+01
    endloop
  endfacet
  facet normal -2.343260e-17 -3.826834e-01 -9.238795e-01
    outer loop
      vertex -1.650000e+01 -1.050000e+01 1.546410e+01
      vertex -2.150000e+01 -1.146473e+01 1.586370e+01
      vertex -2.150000e+01 -1.050000e+01 1.546410e+01
    endloop
  endfacet
  facet normal 3.574011e-16 1.000000e+00 9.013162e-16
    outer loop
      vertex -2.150000e+01 8.500000e+00 2.400000e+01
      vertex 1.750000e+01 8.500000e+00 0.000000e+00
      vertex -2.150000e+01 8.500000e+00 0.000000e+00
    endloop
  endfacet
  facet normal 3.574011e-16 1.000000e+00 9.013162e-16
    outer loop
      vertex 1.750000e+01 8.500000e+00 0.000000e+00
      vertex -2.150000e+01 8.500000e+00 2.400000e+01
      vertex 1.750000e+01 8.500000e+00 2.400000e+01
    endloop
  endfacet
  facet normal 1.000000e+00 -6.123234e-17 6.446569e-31
    outer loop
      vertex -1.650000e+01 4.500000e+00 2.400000e+01
      vertex -1.650000e+01 -8.636295e+00 1.303528e+01
      vertex -1.650000e+01 -8.500000e+00 1.200000e+01
    endloop
  endfacet
  facet normal 1.000000e+00 -6.123234e-17 6.446569e-31
    outer loop
      vertex -1.650000e+01 -8.636295e+00 1.303528e+01
      vertex -1.650000e+01 4.500000e+00 2.400000e+01
      vertex -1.650000e+01 -9.035900e+00 1.400000e+01
    endloop
  endfacet
  facet normal 1.000000e+00 -6.123234e-17 6.446569e-31
    outer loop
      vertex -1.650000e+01 -9.035900e+00 1.400000e+01
      vertex -1.650000e+01 4.500000e+00 2.400000e+01
      vertex -1.650000e+01 -9.671574e+00 1.482843e+01
    endloop
  endfacet
  facet normal 1.000000e+00 -6.123234e-17 6.446569e-31
    outer loop
      vertex -1.650000e+01 -9.671574e+00 1.482843e+01
      vertex -1.650000e+01 4.500000e+00 2.400000e+01
      vertex -1.650000e+01 -1.850000e+01 2.400000e+01
    endloop
  endfacet
  facet normal 1.000000e+00 -6.123234e-17 6.446569e-31
    outer loop
      vertex -1.650000e+01 -9.671574e+00 1.482843e+01
      vertex -1.650000e+01 -1.850000e+01 2.400000e+01
      vertex -1.650000e+01 -1.050000e+01 1.546410e+01
    endloop
  endfacet
  facet normal 1.000000e+00 -6.123234e-17 6.446569e-31
    outer loop
      vertex -1.650000e+01 -1.050000e+01 1.546410e+01
      vertex -1.650000e+01 -1.850000e+01 2.400000e+01
      vertex -1.650000e+01 -1.146473e+01 1.586370e+01
    endloop
  endfacet
  facet normal 1.000000e+00 -6.123234e-17 6.446569e-31
    outer loop
      vertex -1.650000e+01 -1.146473e+01 1.586370e+01
      vertex -1.650000e+01 -1.850000e+01 2.400000e+01
      vertex -1.650000e+01 -1.250000e+01 1.600000e+01
    endloop
  endfacet
  facet normal 1.000000e+00 -6.123234e-17 6.446569e-31
    outer loop
      vertex -1.650000e+01 -1.250000e+01 1.600000e+01
      vertex -1.650000e+01 -1.850000e+01 2.400000e+01
      vertex -1.650000e+01 -1.353527e+01 1.586370e+01
    endloop
  endfacet
  facet normal 1.000000e+00 -6.123234e-17 6.446569e-31
    outer loop
      vertex -1.650000e+01 -1.353527e+01 1.586370e+01
      vertex -1.650000e+01 -1.850000e+01 2.400000e+01
      vertex -1.650000e+01 -1.450000e+01 1.546410e+01
    endloop
  endfacet
  facet normal 1.000000e+00 -6.123234e-17 6.446569e-31
    outer loop
      vertex -1.650000e+01 -1.450000e+01 1.546410e+01
      vertex -1.650000e+01 -1.850000e+01 2.400000e+01
      vertex -1.650000e+01 -1.532843e+01 1.482843e+01
    endloop
  endfacet
  facet normal 1.000000e+00 -6.123234e-17 6.446569e-31
    outer loop
      vertex -1.650000e+01 -1.532843e+01 1.482843e+01
      vertex -1.650000e+01 -1.850000e+01 2.400000e+01
      vertex -1.650000e+01 -1.596410e+01 1.400000e+01
    endloop
  endfacet
  facet normal 1.000000e+00 -6.123234e-17 6.446569e-31
    outer loop
      vertex -1.650000e+01 -1.596410e+01 1.400000e+01
      vertex -1.650000e+01 -1.850000e+01 2.400000e+01
      vertex -1.650000e+01 -1.636370e+01 1.303528e+01
    endloop
  endfacet
  facet normal 1.000000e+00 -6.123234e-17 6.446569e-31
    outer loop
      vertex -1.650000e+01 -1.636370e+01 1.303528e+01
      vertex -1.650000e+01 -1.850000e+01 2.400000e+01
      vertex -1.650000e+01 -1.643417e+01 1.250000e+01
    endloop
  endfacet
  facet normal 1.000000e+00 -6.123234e-17 6.446569e-31
    outer loop
      vertex -1.650000e+01 -1.643417e+01 1.250000e+01
      vertex -1.650000e+01 -1.850000e+01 2.400000e+01
      vertex -1.650000e+01 -1.650000e+01 1.250000e+01
    endloop
  endfacet
  facet normal 1.000000e+00 -6.123234e-17 6.446569e-31
    outer loop
      vertex -1.650000e+01 -1.650000e+01 1.250000e+01
      vertex -1.650000e+01 -1.850000e+01 2.400000e+01
      vertex -1.650000e+01 -1.850000e+01 1.300000e+01
    endloop
  endfacet
  facet normal 1.000000e+00 -6.123234e-17 6.446569e-31
    outer loop
      vertex -1.650000e+01 4.500000e+00 0.000000e+00
      vertex -1.650000e+01 -9.671574e+00 9.171573e+00
      vertex -1.650000e+01 -1.850000e+01 1.776357e-15
    endloop
  endfacet
  facet normal 1.000000e+00 -6.123234e-17 6.446569e-31
    outer loop
      vertex -1.650000e+01 -9.671574e+00 9.171573e+00
      vertex -1.650000e+01 4.500000e+00 0.000000e+00
      vertex -1.650000e+01 4.500000e+00 2.400000e+01
    endloop
  endfacet
  facet normal 1.000000e+00 -6.123234e-17 6.446569e-31
    outer loop
      vertex -1.650000e+01 -9.671574e+00 9.171573e+00
      vertex -1.650000e+01 4.500000e+00 2.400000e+01
      vertex -1.650000e+01 -9.035900e+00 1.000000e+01
    endloop
  endfacet
  facet normal 1.000000e+00 -6.123234e-17 6.446569e-31
    outer loop
      vertex -1.650000e+01 -9.035900e+00 1.000000e+01
      vertex -1.650000e+01 4.500000e+00 2.400000e+01
      vertex -1.650000e+01 -8.636295e+00 1.096472e+01
    endloop
  endfacet
  facet normal 1.000000e+00 -6.123234e-17 6.446569e-31
    outer loop
      vertex -1.650000e+01 -8.636295e+00 1.096472e+01
      vertex -1.650000e+01 4.500000e+00 2.400000e+01
      vertex -1.650000e+01 -8.500000e+00 1.200000e+01
    endloop
  endfacet
  facet normal 1.000000e+00 -6.123234e-17 6.446569e-31
    outer loop
      vertex -1.650000e+01 -1.850000e+01 1.776357e-15
      vertex -1.650000e+01 -9.671574e+00 9.171573e+00
      vertex -1.650000e+01 -1.050000e+01 8.535898e+00
    endloop
  endfacet
  facet normal 1.000000e+00 -6.123234e-17 6.446569e-31
    outer loop
      vertex -1.650000e+01 -1.850000e+01 1.776357e-15
      vertex -1.650000e+01 -1.050000e+01 8.535898e+00
      vertex -1.650000e+01 -1.146473e+01 8.136297e+00
    endloop
  endfacet
  facet normal 1.000000e+00 -6.123234e-17 6.446569e-31
    outer loop
      vertex -1.650000e+01 -1.850000e+01 1.776357e-15
      vertex -1.650000e+01 -1.146473e+01 8.136297e+00
      vertex -1.650000e+01 -1.250000e+01 8.000000e+00
    endloop
  endfacet
  facet normal 1.000000e+00 -6.123234e-17 6.446569e-31
    outer loop
      vertex -1.650000e+01 -1.850000e+01 1.776357e-15
      vertex -1.650000e+01 -1.250000e+01 8.000000e+00
      vertex -1.650000e+01 -1.353527e+01 8.136297e+00
    endloop
  endfacet
  facet normal 1.000000e+00 -6.123234e-17 6.446569e-31
    outer loop
      vertex -1.650000e+01 -1.850000e+01 1.776357e-15
      vertex -1.650000e+01 -1.353527e+01 8.136297e+00
      vertex -1.650000e+01 -1.450000e+01 8.535898e+00
    endloop
  endfacet
  facet normal 1.000000e+00 -6.123234e-17 6.446569e-31
    outer loop
      vertex -1.650000e+01 -1.850000e+01 1.776357e-15
      vertex -1.650000e+01 -1.450000e+01 8.535898e+00
      vertex -1.650000e+01 -1.532843e+01 9.171573e+00
    endloop
  endfacet
  facet normal 1.000000e+00 -6.123234e-17 6.446569e-31
    outer loop
      vertex -1.650000e+01 -1.850000e+01 1.776357e-15
      vertex -1.650000e+01 -1.532843e+01 9.171573e+00
      vertex -1.650000e+01 -1.596410e+01 1.000000e+01
    endloop
  endfacet
  facet normal 1.000000e+00 -6.123234e-17 6.446569e-31
    outer loop
      vertex -1.650000e+01 -1.850000e+01 1.776357e-15
      vertex -1.650000e+01 -1.596410e+01 1.000000e+01
      vertex -1.650000e+01 -1.636370e+01 1.096472e+01
    endloop
  endfacet
  facet normal 1.000000e+00 -6.123234e-17 6.446569e-31
    outer loop
      vertex -1.650000e+01 -1.850000e+01 1.776357e-15
      vertex -1.650000e+01 -1.636370e+01 1.096472e+01
      vertex -1.650000e+01 -1.643417e+01 1.150000e+01
    endloop
  endfacet
  facet normal 1.000000e+00 -6.123234e-17 6.446569e-31
    outer loop
      vertex -1.650000e+01 -1.850000e+01 1.776357e-15
      vertex -1.650000e+01 -1.643417e+01 1.150000e+01
      vertex -1.650000e+01 -1.650000e+01 1.150000e+01
    endloop
  endfacet
  facet normal 1.000000e+00 -6.123234e-17 6.446569e-31
    outer loop
      vertex -1.650000e+01 -1.850000e+01 1.776357e-15
      vertex -1.650000e+01 -1.650000e+01 1.150000e+01
      vertex -1.650000e+01 -1.850000e+01 1.100000e+01
    endloop
  endfacet
  facet normal -6.123234e-17 -1.000000e+00 -2.275322e-16
    outer loop
      vertex 2.150000e+01 4.500000e+00 2.400000e+01
      vertex -1.650000e+01 4.500000e+00 0.000000e+00
      vertex 2.150000e+01 4.500000e+00 0.000000e+00
    endloop
  endfacet
  facet normal -6.123234e-17 -1.000000e+00 -2.275322e-16
    outer loop
      vertex -1.650000e+01 4.500000e+00 0.000000e+00
      vertex 2.150000e+01 4.500000e+00 2.400000e+01
      vertex -1.650000e+01 4.500000e+00 2.400000e+01
    endloop
  endfacet
  facet normal 1.000000e+00 3.048540e-15 1.604248e-16
    outer loop
      vertex 2.150000e+01 1.850000e+01 2.400000e+01
      vertex 2.150000e+01 1.519037e+01 1.945293e+01
      vertex 2.150000e+01 1.850000e+01 0.000000e+00
    endloop
  endfacet
  facet normal 1.000000e+00 3.048540e-15 1.604248e-16
    outer loop
      vertex 2.150000e+01 1.519037e+01 1.945293e+01
      vertex 2.150000e+01 1.850000e+01 2.400000e+01
      vertex 2.150000e+01 1.501554e+01 1.987500e+01
    endloop
  endfacet
  facet normal 1.000000e+00 3.048540e-15 1.604248e-16
    outer loop
      vertex 2.150000e+01 1.501554e+01 1.987500e+01
      vertex 2.150000e+01 1.850000e+01 2.400000e+01
      vertex 2.150000e+01 1.473744e+01 2.023744e+01
    endloop
  endfacet
  facet normal 1.000000e+00 3.048540e-15 1.604248e-16
    outer loop
      vertex 2.150000e+01 1.473744e+01 2.023744e+01
      vertex 2.150000e+01 1.850000e+01 2.400000e+01
      vertex 2.150000e+01 1.437500e+01 2.051554e+01
    endloop
  endfacet
  facet normal 1.000000e+00 3.048540e-15 1.604248e-16
    outer loop
      vertex 2.150000e+01 1.437500e+01 2.051554e+01
      vertex 2.150000e+01 1.850000e+01 2.400000e+01
      vertex 2.150000e+01 1.395293e+01 2.069037e+01
    endloop
  endfacet
  facet normal 1.000000e+00 3.048540e-15 1.604248e-16
    outer loop
      vertex 2.150000e+01 1.395293e+01 2.069037e+01
      vertex 2.150000e+01 1.850000e+01 2.400000e+01
      vertex 2.150000e+01 4.500000e+00 2.400000e+01
    endloop
  endfacet
  facet normal 1.000000e+00 3.048540e-15 1.604248e-16
    outer loop
      vertex 2.150000e+01 1.850000e+01 0.000000e+00
      vertex 2.150000e+01 1.519037e+01 1.945293e+01
      vertex 2.150000e+01 1.525000e+01 1.900000e+01
    endloop
  endfacet
  facet normal 1.000000e+00 3.048540e-15 1.604248e-16
    outer loop
      vertex 2.150000e+01 1.395293e+01 2.069037e+01
      vertex 2.150000e+01 4.500000e+00 2.400000e+01
      vertex 2.150000e+01 1.350000e+01 2.075000e+01
    endloop
  endfacet
  facet normal 1.000000e+00 3.048540e-15 1.604248e-16
    outer loop
      vertex 2.150000e+01 1.350000e+01 2.075000e+01
      vertex 2.150000e+01 4.500000e+00 2.400000e+01
      vertex 2.150000e+01 1.304707e+01 2.069037e+01
    endloop
  endfacet
  facet normal 1.000000e+00 3.048540e-15 1.604248e-16
    outer loop
      vertex 2.150000e+01 1.304707e+01 2.069037e+01
      vertex 2.150000e+01 4.500000e+00 2.400000e+01
      vertex 2.150000e+01 1.262500e+01 2.051554e+01
    endloop
  endfacet
  facet normal 1.000000e+00 3.048540e-15 1.604248e-16
    outer loop
      vertex 2.150000e+01 1.262500e+01 2.051554e+01
      vertex 2.150000e+01 4.500000e+00 2.400000e+01
      vertex 2.150000e+01 1.226256e+01 2.023744e+01
    endloop
  endfacet
  facet normal 1.000000e+00 3.048540e-15 1.604248e-16
    outer loop
      vertex 2.150000e+01 1.226256e+01 2.023744e+01
      vertex 2.150000e+01 4.500000e+00 2.400000e+01
      vertex 2.150000e+01 1.198446e+01 1.987500e+01
    endloop
  endfacet
  facet normal 1.000000e+00 3.048540e-15 1.604248e-16
    outer loop
      vertex 2.150000e+01 1.198446e+01 1.987500e+01
      vertex 2.150000e+01 4.500000e+00 2.400000e+01
      vertex 2.150000e+01 1.180963e+01 1.945293e+01
    endloop
  endfacet
  facet normal 1.000000e+00 3.048540e-15 1.604248e-16
    outer loop
      vertex 2.150000e+01 1.180963e+01 1.945293e+01
      vertex 2.150000e+01 4.500000e+00 2.400000e+01
      vertex 2.150000e+01 1.175000e+01 1.900000e+01
    endloop
  endfacet
  facet normal 1.000000e+00 3.048540e-15 1.604248e-16
    outer loop
      vertex 2.150000e+01 1.175000e+01 1.900000e+01
      vertex 2.150000e+01 4.500000e+00 2.400000e+01
      vertex 2.150000e+01 1.175000e+01 5.000000e+00
    endloop
  endfacet
  facet normal 1.000000e+00 3.048540e-15 1.604248e-16
    outer loop
      vertex 2.150000e+01 1.175000e+01 5.000000e+00
      vertex 2.150000e+01 4.500000e+00 2.400000e+01
      vertex 2.150000e+01 4.500000e+00 0.000000e+00
    endloop
  endfacet
  facet normal 1.000000e+00 3.048540e-15 1.604248e-16
    outer loop
      vertex 2.150000e+01 1.850000e+01 0.000000e+00
      vertex 2.150000e+01 1.395293e+01 3.309629e+00
      vertex 2.150000e+01 4.500000e+00 0.000000e+00
    endloop
  endfacet
  facet normal 1.000000e+00 3.048540e-15 1.604248e-16
    outer loop
      vertex 2.150000e+01 1.395293e+01 3.309629e+00
      vertex 2.150000e+01 1.850000e+01 0.000000e+00
      vertex 2.150000e+01 1.437500e+01 3.484455e+00
    endloop
  endfacet
  facet normal 1.000000e+00 3.048540e-15 1.604248e-16
    outer loop
      vertex 2.150000e+01 1.437500e+01 3.484455e+00
      vertex 2.150000e+01 1.850000e+01 0.000000e+00
      vertex 2.150000e+01 1.473744e+01 3.762563e+00
    endloop
  endfacet
  facet normal 1.000000e+00 3.048540e-15 1.604248e-16
    outer loop
      vertex 2.150000e+01 1.473744e+01 3.762563e+00
      vertex 2.150000e+01 1.850000e+01 0.000000e+00
      vertex 2.150000e+01 1.501554e+01 4.125000e+00
    endloop
  endfacet
  facet normal 1.000000e+00 3.048540e-15 1.604248e-16
    outer loop
      vertex 2.150000e+01 1.501554e+01 4.125000e+00
      vertex 2.150000e+01 1.850000e+01 0.000000e+00
      vertex 2.150000e+01 1.519037e+01 4.547067e+00
    endloop
  endfacet
  facet normal 1.000000e+00 3.048540e-15 1.604248e-16
    outer loop
      vertex 2.150000e+01 1.519037e+01 4.547067e+00
      vertex 2.150000e+01 1.850000e+01 0.000000e+00
      vertex 2.150000e+01 1.525000e+01 5.000000e+00
    endloop
  endfacet
  facet normal 1.000000e+00 3.048540e-15 1.604248e-16
    outer loop
      vertex 2.150000e+01 1.525000e+01 5.000000e+00
      vertex 2.150000e+01 1.850000e+01 0.000000e+00
      vertex 2.150000e+01 1.525000e+01 1.900000e+01
    endloop
  endfacet
  facet normal 1.000000e+00 3.048540e-15 1.604248e-16
    outer loop
      vertex 2.150000e+01 4.500000e+00 0.000000e+00
      vertex 2.150000e+01 1.395293e+01 3.309629e+00
      vertex 2.150000e+01 1.350000e+01 3.250000e+00
    endloop
  endfacet
  facet normal 1.000000e+00 3.048540e-15 1.604248e-16
    outer loop
      vertex 2.150000e+01 4.500000e+00 0.000000e+00
      vertex 2.150000e+01 1.350000e+01 3.250000e+00
      vertex 2.150000e+01 1.304707e+01 3.309629e+00
    endloop
  endfacet
  facet normal 1.000000e+00 3.048540e-15 1.604248e-16
    outer loop
      vertex 2.150000e+01 4.500000e+00 0.000000e+00
      vertex 2.150000e+01 1.304707e+01 3.309629e+00
      vertex 2.150000e+01 1.262500e+01 3.484455e+00
    endloop
  endfacet
  facet normal 1.000000e+00 3.048540e-15 1.604248e-16
    outer loop
      vertex 2.150000e+01 4.500000e+00 0.000000e+00
      vertex 2.150000e+01 1.262500e+01 3.484455e+00
      vertex 2.150000e+01 1.226256e+01 3.762563e+00
    endloop
  endfacet
  facet normal 1.000000e+00 3.048540e-15 1.604248e-16
    outer loop
      vertex 2.150000e+01 4.500000e+00 0.000000e+00
      vertex 2.150000e+01 1.226256e+01 3.762563e+00
      vertex 2.150000e+01 1.198446e+01 4.125000e+00
    endloop
  endfacet
  facet normal 1.000000e+00 3.048540e-15 1.604248e-16
    outer loop
      vertex 2.150000e+01 4.500000e+00 0.000000e+00
      vertex 2.150000e+01 1.198446e+01 4.125000e+00
      vertex 2.150000e+01 1.180963e+01 4.547067e+00
    endloop
  endfacet
  facet normal 1.000000e+00 3.048540e-15 1.604248e-16
    outer loop
      vertex 2.150000e+01 4.500000e+00 0.000000e+00
      vertex 2.150000e+01 1.180963e+01 4.547067e+00
      vertex 2.150000e+01 1.175000e+01 5.000000e+00
    endloop
  endfacet
  facet normal 1.000000e+00 3.048540e-15 1.604248e-16
    outer loop
      vertex 2.150000e+01 1.519037e+01 1.854707e+01
      vertex 2.150000e+01 1.525000e+01 5.000000e+00
      vertex 2.150000e+01 1.525000e+01 1.900000e+01
    endloop
  endfacet
  facet normal 1.000000e+00 3.048540e-15 1.604248e-16
    outer loop
      vertex 2.150000e+01 1.525000e+01 5.000000e+00
      vertex 2.150000e+01 1.519037e+01 1.854707e+01
      vertex 2.150000e+01 1.519037e+01 5.452933e+00
    endloop
  endfacet
  facet normal 1.000000e+00 3.048540e-15 1.604248e-16
    outer loop
      vertex 2.150000e+01 1.519037e+01 5.452933e+00
      vertex 2.150000e+01 1.519037e+01 1.854707e+01
      vertex 2.150000e+01 1.501554e+01 1.812500e+01
    endloop
  endfacet
  facet normal 1.000000e+00 3.048540e-15 1.604248e-16
    outer loop
      vertex 2.150000e+01 1.519037e+01 5.452933e+00
      vertex 2.150000e+01 1.501554e+01 1.812500e+01
      vertex 2.150000e+01 1.501554e+01 5.875000e+00
    endloop
  endfacet
  facet normal 1.000000e+00 3.048540e-15 1.604248e-16
    outer loop
      vertex 2.150000e+01 1.501554e+01 5.875000e+00
      vertex 2.150000e+01 1.501554e+01 1.812500e+01
      vertex 2.150000e+01 1.473744e+01 1.776256e+01
    endloop
  endfacet
  facet normal 1.000000e+00 3.048540e-15 1.604248e-16
    outer loop
      vertex 2.150000e+01 1.501554e+01 5.875000e+00
      vertex 2.150000e+01 1.473744e+01 1.776256e+01
      vertex 2.150000e+01 1.473744e+01 6.237437e+00
    endloop
  endfacet
  facet normal 1.000000e+00 3.048540e-15 1.604248e-16
    outer loop
      vertex 2.150000e+01 1.473744e+01 6.237437e+00
      vertex 2.150000e+01 1.473744e+01 1.776256e+01
      vertex 2.150000e+01 1.437500e+01 1.748446e+01
    endloop
  endfacet
  facet normal 1.000000e+00 3.048540e-15 1.604248e-16
    outer loop
      vertex 2.150000e+01 1.473744e+01 6.237437e+00
      vertex 2.150000e+01 1.437500e+01 1.748446e+01
      vertex 2.150000e+01 1.437500e+01 6.515544e+00
    endloop
  endfacet
  facet normal 1.000000e+00 3.048540e-15 1.604248e-16
    outer loop
      vertex 2.150000e+01 1.437500e+01 6.515544e+00
      vertex 2.150000e+01 1.437500e+01 1.748446e+01
      vertex 2.150000e+01 1.395293e+01 6.690370e+00
    endloop
  endfacet
  facet normal 1.000000e+00 3.048540e-15 1.604248e-16
    outer loop
      vertex 2.150000e+01 1.395293e+01 6.690370e+00
      vertex 2.150000e+01 1.437500e+01 1.748446e+01
      vertex 2.150000e+01 1.395293e+01 1.730963e+01
    endloop
  endfacet
  facet normal 1.000000e+00 3.048540e-15 1.604248e-16
    outer loop
      vertex 2.150000e+01 1.395293e+01 6.690370e+00
      vertex 2.150000e+01 1.395293e+01 1.730963e+01
      vertex 2.150000e+01 1.350000e+01 1.725000e+01
    endloop
  endfacet
  facet normal 1.000000e+00 3.048540e-15 1.604248e-16
    outer loop
      vertex 2.150000e+01 1.395293e+01 6.690370e+00
      vertex 2.150000e+01 1.350000e+01 1.725000e+01
      vertex 2.150000e+01 1.350000e+01 6.750000e+00
    endloop
  endfacet
  facet normal 1.000000e+00 3.048540e-15 1.604248e-16
    outer loop
      vertex 2.150000e+01 1.350000e+01 6.750000e+00
      vertex 2.150000e+01 1.350000e+01 1.725000e+01
      vertex 2.150000e+01 1.304707e+01 1.730963e+01
    endloop
  endfacet
  facet normal 1.000000e+00 3.048540e-15 1.604248e-16
    outer loop
      vertex 2.150000e+01 1.350000e+01 6.750000e+00
      vertex 2.150000e+01 1.304707e+01 1.730963e+01
      vertex 2.150000e+01 1.304707e+01 6.690370e+00
    endloop
  endfacet
  facet normal 1.000000e+00 3.048540e-15 1.604248e-16
    outer loop
      vertex 2.150000e+01 1.304707e+01 6.690370e+00
      vertex 2.150000e+01 1.304707e+01 1.730963e+01
      vertex 2.150000e+01 1.262500e+01 6.515544e+00
    endloop
  endfacet
  facet normal 1.000000e+00 3.048540e-15 1.604248e-16
    outer loop
      vertex 2.150000e+01 1.262500e+01 6.515544e+00
      vertex 2.150000e+01 1.304707e+01 1.730963e+01
      vertex 2.150000e+01 1.262500e+01 1.748446e+01
    endloop
  endfacet
  facet normal 1.000000e+00 3.048540e-15 1.604248e-16
    outer loop
      vertex 2.150000e+01 1.262500e+01 6.515544e+00
      vertex 2.150000e+01 1.262500e+01 1.748446e+01
      vertex 2.150000e+01 1.226256e+01 6.237437e+00
    endloop
  endfacet
  facet normal 1.000000e+00 3.048540e-15 1.604248e-16
    outer loop
      vertex 2.150000e+01 1.226256e+01 6.237437e+00
      vertex 2.150000e+01 1.262500e+01 1.748446e+01
      vertex 2.150000e+01 1.226256e+01 1.776256e+01
    endloop
  endfacet
  facet normal 1.000000e+00 3.048540e-15 1.604248e-16
    outer loop
      vertex 2.150000e+01 1.226256e+01 6.237437e+00
      vertex 2.150000e+01 1.226256e+01 1.776256e+01
      vertex 2.150000e+01 1.198446e+01 1.812500e+01
    endloop
  endfacet
  facet normal 1.000000e+00 3.048540e-15 1.604248e-16
    outer loop
      vertex 2.150000e+01 1.226256e+01 6.237437e+00
      vertex 2.150000e+01 1.198446e+01 1.812500e+01
      vertex 2.150000e+01 1.198446e+01 5.875000e+00
    endloop
  endfacet
  facet normal 1.000000e+00 3.048540e-15 1.604248e-16
    outer loop
      vertex 2.150000e+01 1.198446e+01 5.875000e+00
      vertex 2.150000e+01 1.198446e+01 1.812500e+01
      vertex 2.150000e+01 1.180963e+01 1.854707e+01
    endloop
  endfacet
  facet normal 1.000000e+00 3.048540e-15 1.604248e-16
    outer loop
      vertex 2.150000e+01 1.198446e+01 5.875000e+00
      vertex 2.150000e+01 1.180963e+01 1.854707e+01
      vertex 2.150000e+01 1.180963e+01 5.452933e+00
    endloop
  endfacet
  facet normal 1.000000e+00 3.048540e-15 1.604248e-16
    outer loop
      vertex 2.150000e+01 1.180963e+01 5.452933e+00
      vertex 2.150000e+01 1.180963e+01 1.854707e+01
      vertex 2.150000e+01 1.175000e+01 1.900000e+01
    endloop
  endfacet
  facet normal 1.000000e+00 3.048540e-15 1.604248e-16
    outer loop
      vertex 2.150000e+01 1.180963e+01 5.452933e+00
      vertex 2.150000e+01 1.175000e+01 1.900000e+01
      vertex 2.150000e+01 1.175000e+01 5.000000e+00
    endloop
  endfacet
  facet normal -1.000000e+00 -4.559001e-15 -1.971118e-30
    outer loop
      vertex 1.750000e+01 1.850000e+01 0.000000e+00
      vertex 1.750000e+01 1.519037e+01 4.547067e+00
      vertex 1.750000e+01 1.850000e+01 2.400000e+01
    endloop
  endfacet
  facet normal -1.000000e+00 -4.559001e-15 -1.971118e-30
    outer loop
      vertex 1.750000e+01 1.519037e+01 4.547067e+00
      vertex 1.750000e+01 1.850000e+01 0.000000e+00
      vertex 1.750000e+01 1.501554e+01 4.125000e+00
    endloop
  endfacet
  facet normal -1.000000e+00 -4.559001e-15 -1.971118e-30
    outer loop
      vertex 1.750000e+01 1.501554e+01 4.125000e+00
      vertex 1.750000e+01 1.850000e+01 0.000000e+00
      vertex 1.750000e+01 1.473744e+01 3.762563e+00
    endloop
  endfacet
  facet normal -1.000000e+00 -4.559001e-15 -1.971118e-30
    outer loop
      vertex 1.750000e+01 1.473744e+01 3.762563e+00
      vertex 1.750000e+01 1.850000e+01 0.000000e+00
      vertex 1.750000e+01 1.437500e+01 3.484455e+00
    endloop
  endfacet
  facet normal -1.000000e+00 -4.559001e-15 -1.971118e-30
    outer loop
      vertex 1.750000e+01 1.437500e+01 3.484455e+00
      vertex 1.750000e+01 1.850000e+01 0.000000e+00
      vertex 1.750000e+01 8.500000e+00 0.000000e+00
    endloop
  endfacet
  facet normal -1.000000e+00 -4.559001e-15 -1.971118e-30
    outer loop
      vertex 1.750000e+01 1.850000e+01 2.400000e+01
      vertex 1.750000e+01 1.519037e+01 4.547067e+00
      vertex 1.750000e+01 1.525000e+01 5.000000e+00
    endloop
  endfacet
  facet normal -1.000000e+00 -4.559001e-15 -1.971118e-30
    outer loop
      vertex 1.750000e+01 1.437500e+01 3.484455e+00
      vertex 1.750000e+01 8.500000e+00 0.000000e+00
      vertex 1.750000e+01 1.395293e+01 3.309629e+00
    endloop
  endfacet
  facet normal -1.000000e+00 -4.559001e-15 -1.971118e-30
    outer loop
      vertex 1.750000e+01 1.395293e+01 3.309629e+00
      vertex 1.750000e+01 8.500000e+00 0.000000e+00
      vertex 1.750000e+01 1.350000e+01 3.250000e+00
    endloop
  endfacet
  facet normal -1.000000e+00 -4.559001e-15 -1.971118e-30
    outer loop
      vertex 1.750000e+01 1.350000e+01 3.250000e+00
      vertex 1.750000e+01 8.500000e+00 0.000000e+00
      vertex 1.750000e+01 1.304707e+01 3.309629e+00
    endloop
  endfacet
  facet normal -1.000000e+00 -4.559001e-15 -1.971118e-30
    outer loop
      vertex 1.750000e+01 1.304707e+01 3.309629e+00
      vertex 1.750000e+01 8.500000e+00 0.000000e+00
      vertex 1.750000e+01 1.262500e+01 3.484455e+00
    endloop
  endfacet
  facet normal -1.000000e+00 -4.559001e-15 -1.971118e-30
    outer loop
      vertex 1.750000e+01 1.262500e+01 3.484455e+00
      vertex 1.750000e+01 8.500000e+00 0.000000e+00
      vertex 1.750000e+01 1.226256e+01 3.762563e+00
    endloop
  endfacet
  facet normal -1.000000e+00 -4.559001e-15 -1.971118e-30
    outer loop
      vertex 1.750000e+01 1.226256e+01 3.762563e+00
      vertex 1.750000e+01 8.500000e+00 0.000000e+00
      vertex 1.750000e+01 1.198446e+01 4.125000e+00
    endloop
  endfacet
  facet normal -1.000000e+00 -4.559001e-15 -1.971118e-30
    outer loop
      vertex 1.750000e+01 1.198446e+01 4.125000e+00
      vertex 1.750000e+01 8.500000e+00 0.000000e+00
      vertex 1.750000e+01 1.180963e+01 4.547067e+00
    endloop
  endfacet
  facet normal -1.000000e+00 -4.559001e-15 -1.971118e-30
    outer loop
      vertex 1.750000e+01 1.180963e+01 4.547067e+00
      vertex 1.750000e+01 8.500000e+00 0.000000e+00
      vertex 1.750000e+01 1.175000e+01 5.000000e+00
    endloop
  endfacet
  facet normal -1.000000e+00 -4.559001e-15 -1.971118e-30
    outer loop
      vertex 1.750000e+01 1.175000e+01 5.000000e+00
      vertex 1.750000e+01 8.500000e+00 0.000000e+00
      vertex 1.750000e+01 1.175000e+01 1.900000e+01
    endloop
  endfacet
  facet normal -1.000000e+00 -4.559001e-15 -1.971118e-30
    outer loop
      vertex 1.750000e+01 1.850000e+01 2.400000e+01
      vertex 1.750000e+01 1.437500e+01 2.051554e+01
      vertex 1.750000e+01 8.500000e+00 2.400000e+01
    endloop
  endfacet
  facet normal -1.000000e+00 -4.559001e-15 -1.971118e-30
    outer loop
      vertex 1.750000e+01 1.437500e+01 2.051554e+01
      vertex 1.750000e+01 1.850000e+01 2.400000e+01
      vertex 1.750000e+01 1.473744e+01 2.023744e+01
    endloop
  endfacet
  facet normal -1.000000e+00 -4.559001e-15 -1.971118e-30
    outer loop
      vertex 1.750000e+01 1.473744e+01 2.023744e+01
      vertex 1.750000e+01 1.850000e+01 2.400000e+01
      vertex 1.750000e+01 1.501554e+01 1.987500e+01
    endloop
  endfacet
  facet normal -1.000000e+00 -4.559001e-15 -1.971118e-30
    outer loop
      vertex 1.750000e+01 1.501554e+01 1.987500e+01
      vertex 1.750000e+01 1.850000e+01 2.400000e+01
      vertex 1.750000e+01 1.519037e+01 1.945293e+01
    endloop
  endfacet
  facet normal -1.000000e+00 -4.559001e-15 -1.971118e-30
    outer loop
      vertex 1.750000e+01 1.519037e+01 1.945293e+01
      vertex 1.750000e+01 1.850000e+01 2.400000e+01
      vertex 1.750000e+01 1.525000e+01 1.900000e+01
    endloop
  endfacet
  facet normal -1.000000e+00 -4.559001e-15 -1.971118e-30
    outer loop
      vertex 1.750000e+01 1.525000e+01 1.900000e+01
      vertex 1.750000e+01 1.850000e+01 2.400000e+01
      vertex 1.750000e+01 1.525000e+01 5.000000e+00
    endloop
  endfacet
  facet normal -1.000000e+00 -4.559001e-15 -1.971118e-30
    outer loop
      vertex 1.750000e+01 8.500000e+00 2.400000e+01
      vertex 1.750000e+01 1.437500e+01 2.051554e+01
      vertex 1.750000e+01 1.395293e+01 2.069037e+01
    endloop
  endfacet
  facet normal -1.000000e+00 -4.559001e-15 -1.971118e-30
    outer loop
      vertex 1.750000e+01 8.500000e+00 2.400000e+01
      vertex 1.750000e+01 1.395293e+01 2.069037e+01
      vertex 1.750000e+01 1.350000e+01 2.075000e+01
    endloop
  endfacet
  facet normal -1.000000e+00 -4.559001e-15 -1.971118e-30
    outer loop
      vertex 1.750000e+01 8.500000e+00 2.400000e+01
      vertex 1.750000e+01 1.350000e+01 2.075000e+01
      vertex 1.750000e+01 1.304707e+01 2.069037e+01
    endloop
  endfacet
  facet normal -1.000000e+00 -4.559001e-15 -1.971118e-30
    outer loop
      vertex 1.750000e+01 8.500000e+00 2.400000e+01
      vertex 1.750000e+01 1.304707e+01 2.069037e+01
      vertex 1.750000e+01 1.262500e+01 2.051554e+01
    endloop
  endfacet
  facet normal -1.000000e+00 -4.559001e-15 -1.971118e-30
    outer loop
      vertex 1.750000e+01 8.500000e+00 2.400000e+01
      vertex 1.750000e+01 1.262500e+01 2.051554e+01
      vertex 1.750000e+01 1.226256e+01 2.023744e+01
    endloop
  endfacet
  facet normal -1.000000e+00 -4.559001e-15 -1.971118e-30
    outer loop
      vertex 1.750000e+01 8.500000e+00 2.400000e+01
      vertex 1.750000e+01 1.226256e+01 2.023744e+01
      vertex 1.750000e+01 1.198446e+01 1.987500e+01
    endloop
  endfacet
  facet normal -1.000000e+00 -4.559001e-15 -1.971118e-30
    outer loop
      vertex 1.750000e+01 8.500000e+00 2.400000e+01
      vertex 1.750000e+01 1.198446e+01 1.987500e+01
      vertex 1.750000e+01 1.180963e+01 1.945293e+01
    endloop
  endfacet
  facet normal -1.000000e+00 -4.559001e-15 -1.971118e-30
    outer loop
      vertex 1.750000e+01 8.500000e+00 2.400000e+01
      vertex 1.750000e+01 1.180963e+01 1.945293e+01
      vertex 1.750000e+01 1.175000e+01 1.900000e+01
    endloop
  endfacet
  facet normal -1.000000e+00 -4.559001e-15 -1.971118e-30
    outer loop
      vertex 1.750000e+01 8.500000e+00 2.400000e+01
      vertex 1.750000e+01 1.175000e+01 1.900000e+01
      vertex 1.750000e+01 8.500000e+00 0.000000e+00
    endloop
  endfacet
  facet normal -1.000000e+00 -4.559001e-15 -1.971118e-30
    outer loop
      vertex 1.750000e+01 1.519037e+01 5.452933e+00
      vertex 1.750000e+01 1.525000e+01 1.900000e+01
      vertex 1.750000e+01 1.525000e+01 5.000000e+00
    endloop
  endfacet
  facet normal -1.000000e+00 -4.559001e-15 -1.971118e-30
    outer loop
      vertex 1.750000e+01 1.525000e+01 1.900000e+01
      vertex 1.750000e+01 1.519037e+01 5.452933e+00
      vertex 1.750000e+01 1.519037e+01 1.854707e+01
    endloop
  endfacet
  facet normal -1.000000e+00 -4.559001e-15 -1.971118e-30
    outer loop
      vertex 1.750000e+01 1.519037e+01 1.854707e+01
      vertex 1.750000e+01 1.519037e+01 5.452933e+00
      vertex 1.750000e+01 1.501554e+01 5.875000e+00
    endloop
  endfacet
  facet normal -1.000000e+00 -4.559001e-15 -1.971118e-30
    outer loop
      vertex 1.750000e+01 1.519037e+01 1.854707e+01
      vertex 1.750000e+01 1.501554e+01 5.875000e+00
      vertex 1.750000e+01 1.501554e+01 1.812500e+01
    endloop
  endfacet
  facet normal -1.000000e+00 -4.559001e-15 -1.971118e-30
    outer loop
      vertex 1.750000e+01 1.501554e+01 1.812500e+01
      vertex 1.750000e+01 1.501554e+01 5.875000e+00
      vertex 1.750000e+01 1.473744e+01 6.237437e+00
    endloop
  endfacet
  facet normal -1.000000e+00 -4.559001e-15 -1.971118e-30
    outer loop
      vertex 1.750000e+01 1.501554e+01 1.812500e+01
      vertex 1.750000e+01 1.473744e+01 6.237437e+00
      vertex 1.750000e+01 1.473744e+01 1.776256e+01
    endloop
  endfacet
  facet normal -1.000000e+00 -4.559001e-15 -1.971118e-30
    outer loop
      vertex 1.750000e+01 1.473744e+01 1.776256e+01
      vertex 1.750000e+01 1.473744e+01 6.237437e+00
      vertex 1.750000e+01 1.437500e+01 6.515544e+00
    endloop
  endfacet
  facet normal -1.000000e+00 -4.559001e-15 -1.971118e-30
    outer loop
      vertex 1.750000e+01 1.473744e+01 1.776256e+01
      vertex 1.750000e+01 1.437500e+01 6.515544e+00
      vertex 1.750000e+01 1.437500e+01 1.748446e+01
    endloop
  endfacet
  facet normal -1.000000e+00 -4.559001e-15 -1.971118e-30
    outer loop
      vertex 1.750000e+01 1.437500e+01 1.748446e+01
      vertex 1.750000e+01 1.437500e+01 6.515544e+00
      vertex 1.750000e+01 1.395293e+01 6.690370e+00
    endloop
  endfacet
  facet normal -1.000000e+00 -4.559001e-15 -1.971118e-30
    outer loop
      vertex 1.750000e+01 1.437500e+01 1.748446e+01
      vertex 1.750000e+01 1.395293e+01 6.690370e+00
      vertex 1.750000e+01 1.395293e+01 1.730963e+01
    endloop
  endfacet
  facet normal -1.000000e+00 -4.559001e-15 -1.971118e-30
    outer loop
      vertex 1.750000e+01 1.395293e+01 1.730963e+01
      vertex 1.750000e+01 1.395293e+01 6.690370e+00
      vertex 1.750000e+01 1.350000e+01 6.750000e+00
    endloop
  endfacet
  facet normal -1.000000e+00 -4.559001e-15 -1.971118e-30
    outer loop
      vertex 1.750000e+01 1.395293e+01 1.730963e+01
      vertex 1.750000e+01 1.350000e+01 6.750000e+00
      vertex 1.750000e+01 1.350000e+01 1.725000e+01
    endloop
  endfacet
  facet normal -1.000000e+00 -4.559001e-15 -1.971118e-30
    outer loop
      vertex 1.750000e+01 1.350000e+01 1.725000e+01
      vertex 1.750000e+01 1.350000e+01 6.750000e+00
      vertex 1.750000e+01 1.304707e+01 6.690370e+00
    endloop
  endfacet
  facet normal -1.000000e+00 -4.559001e-15 -1.971118e-30
    outer loop
      vertex 1.750000e+01 1.350000e+01 1.725000e+01
      vertex 1.750000e+01 1.304707e+01 6.690370e+00
      vertex 1.750000e+01 1.304707e+01 1.730963e+01
    endloop
  endfacet
  facet normal -1.000000e+00 -4.559001e-15 -1.971118e-30
    outer loop
      vertex 1.750000e+01 1.304707e+01 1.730963e+01
      vertex 1.750000e+01 1.304707e+01 6.690370e+00
      vertex 1.750000e+01 1.262500e+01 6.515544e+00
    endloop
  endfacet
  facet normal -1.000000e+00 -4.559001e-15 -1.971118e-30
    outer loop
      vertex 1.750000e+01 1.304707e+01 1.730963e+01
      vertex 1.750000e+01 1.262500e+01 6.515544e+00
      vertex 1.750000e+01 1.262500e+01 1.748446e+01
    endloop
  endfacet
  facet normal -1.000000e+00 -4.559001e-15 -1.971118e-30
    outer loop
      vertex 1.750000e+01 1.262500e+01 1.748446e+01
      vertex 1.750000e+01 1.262500e+01 6.515544e+00
      vertex 1.750000e+01 1.226256e+01 6.237437e+00
    endloop
  endfacet
  facet normal -1.000000e+00 -4.559001e-15 -1.971118e-30
    outer loop
      vertex 1.750000e+01 1.262500e+01 1.748446e+01
      vertex 1.750000e+01 1.226256e+01 6.237437e+00
      vertex 1.750000e+01 1.226256e+01 1.776256e+01
    endloop
  endfacet
  facet normal -1.000000e+00 -4.559001e-15 -1.971118e-30
    outer loop
      vertex 1.750000e+01 1.226256e+01 1.776256e+01
      vertex 1.750000e+01 1.226256e+01 6.237437e+00
      vertex 1.750000e+01 1.198446e+01 5.875000e+00
    endloop
  endfacet
  facet normal -1.000000e+00 -4.559001e-15 -1.971118e-30
    outer loop
      vertex 1.750000e+01 1.226256e+01 1.776256e+01
      vertex 1.750000e+01 1.198446e+01 5.875000e+00
      vertex 1.750000e+01 1.198446e+01 1.812500e+01
    endloop
  endfacet
  facet normal -1.000000e+00 -4.559001e-15 -1.971118e-30
    outer loop
      vertex 1.750000e+01 1.198446e+01 1.812500e+01
      vertex 1.750000e+01 1.198446e+01 5.875000e+00
      vertex 1.750000e+01 1.180963e+01 5.452933e+00
    endloop
  endfacet
  facet normal -1.000000e+00 -4.559001e-15 -1.971118e-30
    outer loop
      vertex 1.750000e+01 1.198446e+01 1.812500e+01
      vertex 1.750000e+01 1.180963e+01 5.452933e+00
      vertex 1.750000e+01 1.180963e+01 1.854707e+01
    endloop
  endfacet
  facet normal -1.000000e+00 -4.559001e-15 -1.971118e-30
    outer loop
      vertex 1.750000e+01 1.180963e+01 1.854707e+01
      vertex 1.750000e+01 1.180963e+01 5.452933e+00
      vertex 1.750000e+01 1.175000e+01 5.000000e+00
    endloop
  endfacet
  facet normal -1.000000e+00 -4.559001e-15 -1.971118e-30
    outer loop
      vertex 1.750000e+01 1.180963e+01 1.854707e+01
      vertex 1.750000e+01 1.175000e+01 5.000000e+00
      vertex 1.750000e+01 1.175000e+01 1.900000e+01
    endloop
  endfacet
  facet normal -2.104502e-15 1.000000e+00 -6.123234e-17
    outer loop
      vertex 1.750000e+01 1.850000e+01 2.400000e+01
      vertex 2.150000e+01 1.850000e+01 0.000000e+00
      vertex 1.750000e+01 1.850000e+01 0.000000e+00
    endloop
  endfacet
  facet normal -2.104502e-15 1.000000e+00 -6.123234e-17
    outer loop
      vertex 2.150000e+01 1.850000e+01 0.000000e+00
      vertex 1.750000e+01 1.850000e+01 2.400000e+01
      vertex 2.150000e+01 1.850000e+01 2.400000e+01
    endloop
  endfacet
  facet normal -3.689681e-16 1.305262e-01 9.914449e-01
    outer loop
      vertex 1.750000e+01 1.350000e+01 1.725000e+01
      vertex 2.150000e+01 1.304707e+01 1.730963e+01
      vertex 2.150000e+01 1.350000e+01 1.725000e+01
    endloop
  endfacet
  facet normal -3.689681e-16 1.305262e-01 9.914449e-01
    outer loop
      vertex 2.150000e+01 1.304707e+01 1.730963e+01
      vertex 1.750000e+01 1.350000e+01 1.725000e+01
      vertex 1.750000e+01 1.304707e+01 1.730963e+01
    endloop
  endfacet
  facet normal 3.689681e-16 -1.305262e-01 9.914449e-01
    outer loop
      vertex 1.750000e+01 1.395293e+01 1.730963e+01
      vertex 2.150000e+01 1.350000e+01 1.725000e+01
      vertex 2.150000e+01 1.395293e+01 1.730963e+01
    endloop
  endfacet
  facet normal 3.689681e-16 -1.305262e-01 9.914449e-01
    outer loop
      vertex 2.150000e+01 1.350000e+01 1.725000e+01
      vertex 1.750000e+01 1.395293e+01 1.730963e+01
      vertex 1.750000e+01 1.350000e+01 1.725000e+01
    endloop
  endfacet
  facet normal 1.081760e-15 -3.826834e-01 9.238795e-01
    outer loop
      vertex 1.750000e+01 1.437500e+01 1.748446e+01
      vertex 2.150000e+01 1.395293e+01 1.730963e+01
      vertex 2.150000e+01 1.437500e+01 1.748446e+01
    endloop
  endfacet
  facet normal 1.081760e-15 -3.826834e-01 9.238795e-01
    outer loop
      vertex 2.150000e+01 1.395293e+01 1.730963e+01
      vertex 1.750000e+01 1.437500e+01 1.748446e+01
      vertex 1.750000e+01 1.395293e+01 1.730963e+01
    endloop
  endfacet
  facet normal 1.720831e-15 -6.087614e-01 7.933533e-01
    outer loop
      vertex 1.750000e+01 1.473744e+01 1.776256e+01
      vertex 2.150000e+01 1.437500e+01 1.748446e+01
      vertex 2.150000e+01 1.473744e+01 1.776256e+01
    endloop
  endfacet
  facet normal 1.720831e-15 -6.087614e-01 7.933533e-01
    outer loop
      vertex 2.150000e+01 1.437500e+01 1.748446e+01
      vertex 1.750000e+01 1.473744e+01 1.776256e+01
      vertex 1.750000e+01 1.437500e+01 1.748446e+01
    endloop
  endfacet
  facet normal 2.242631e-15 -7.933533e-01 6.087614e-01
    outer loop
      vertex 2.150000e+01 1.501554e+01 1.812500e+01
      vertex 1.750000e+01 1.473744e+01 1.776256e+01
      vertex 2.150000e+01 1.473744e+01 1.776256e+01
    endloop
  endfacet
  facet normal 2.242631e-15 -7.933533e-01 6.087614e-01
    outer loop
      vertex 1.750000e+01 1.473744e+01 1.776256e+01
      vertex 2.150000e+01 1.501554e+01 1.812500e+01
      vertex 1.750000e+01 1.501554e+01 1.812500e+01
    endloop
  endfacet
  facet normal 2.611599e-15 -9.238795e-01 3.826834e-01
    outer loop
      vertex 2.150000e+01 1.519037e+01 1.854707e+01
      vertex 1.750000e+01 1.501554e+01 1.812500e+01
      vertex 2.150000e+01 1.501554e+01 1.812500e+01
    endloop
  endfacet
  facet normal 2.611599e-15 -9.238795e-01 3.826834e-01
    outer loop
      vertex 1.750000e+01 1.501554e+01 1.812500e+01
      vertex 2.150000e+01 1.519037e+01 1.854707e+01
      vertex 1.750000e+01 1.519037e+01 1.854707e+01
    endloop
  endfacet
  facet normal 2.802591e-15 -9.914449e-01 1.305262e-01
    outer loop
      vertex 2.150000e+01 1.525000e+01 1.900000e+01
      vertex 1.750000e+01 1.519037e+01 1.854707e+01
      vertex 2.150000e+01 1.519037e+01 1.854707e+01
    endloop
  endfacet
  facet normal 2.802591e-15 -9.914449e-01 1.305262e-01
    outer loop
      vertex 1.750000e+01 1.519037e+01 1.854707e+01
      vertex 2.150000e+01 1.525000e+01 1.900000e+01
      vertex 1.750000e+01 1.525000e+01 1.900000e+01
    endloop
  endfacet
  facet normal 2.802591e-15 -9.914449e-01 -1.305262e-01
    outer loop
      vertex 2.150000e+01 1.519037e+01 1.945293e+01
      vertex 1.750000e+01 1.525000e+01 1.900000e+01
      vertex 2.150000e+01 1.525000e+01 1.900000e+01
    endloop
  endfacet
  facet normal 2.802591e-15 -9.914449e-01 -1.305262e-01
    outer loop
      vertex 1.750000e+01 1.525000e+01 1.900000e+01
      vertex 2.150000e+01 1.519037e+01 1.945293e+01
      vertex 1.750000e+01 1.519037e+01 1.945293e+01
    endloop
  endfacet
  facet normal 2.611599e-15 -9.238795e-01 -3.826834e-01
    outer loop
      vertex 2.150000e+01 1.501554e+01 1.987500e+01
      vertex 1.750000e+01 1.519037e+01 1.945293e+01
      vertex 2.150000e+01 1.519037e+01 1.945293e+01
    endloop
  endfacet
  facet normal 2.611599e-15 -9.238795e-01 -3.826834e-01
    outer loop
      vertex 1.750000e+01 1.519037e+01 1.945293e+01
      vertex 2.150000e+01 1.501554e+01 1.987500e+01
      vertex 1.750000e+01 1.501554e+01 1.987500e+01
    endloop
  endfacet
  facet normal 2.242631e-15 -7.933533e-01 -6.087614e-01
    outer loop
      vertex 2.150000e+01 1.473744e+01 2.023744e+01
      vertex 1.750000e+01 1.501554e+01 1.987500e+01
      vertex 2.150000e+01 1.501554e+01 1.987500e+01
    endloop
  endfacet
  facet normal 2.242631e-15 -7.933533e-01 -6.087614e-01
    outer loop
      vertex 1.750000e+01 1.501554e+01 1.987500e+01
      vertex 2.150000e+01 1.473744e+01 2.023744e+01
      vertex 1.750000e+01 1.473744e+01 2.023744e+01
    endloop
  endfacet
  facet normal 1.720831e-15 -6.087614e-01 -7.933533e-01
    outer loop
      vertex 1.750000e+01 1.437500e+01 2.051554e+01
      vertex 2.150000e+01 1.473744e+01 2.023744e+01
      vertex 2.150000e+01 1.437500e+01 2.051554e+01
    endloop
  endfacet
  facet normal 1.720831e-15 -6.087614e-01 -7.933533e-01
    outer loop
      vertex 2.150000e+01 1.473744e+01 2.023744e+01
      vertex 1.750000e+01 1.437500e+01 2.051554e+01
      vertex 1.750000e+01 1.473744e+01 2.023744e+01
    endloop
  endfacet
  facet normal 1.081760e-15 -3.826834e-01 -9.238795e-01
    outer loop
      vertex 1.750000e+01 1.395293e+01 2.069037e+01
      vertex 2.150000e+01 1.437500e+01 2.051554e+01
      vertex 2.150000e+01 1.395293e+01 2.069037e+01
    endloop
  endfacet
  facet normal 1.081760e-15 -3.826834e-01 -9.238795e-01
    outer loop
      vertex 2.150000e+01 1.437500e+01 2.051554e+01
      vertex 1.750000e+01 1.395293e+01 2.069037e+01
      vertex 1.750000e+01 1.437500e+01 2.051554e+01
    endloop
  endfacet
  facet normal 3.689681e-16 -1.305262e-01 -9.914449e-01
    outer loop
      vertex 1.750000e+01 1.350000e+01 2.075000e+01
      vertex 2.150000e+01 1.395293e+01 2.069037e+01
      vertex 2.150000e+01 1.350000e+01 2.075000e+01
    endloop
  endfacet
  facet normal 3.689681e-16 -1.305262e-01 -9.914449e-01
    outer loop
      vertex 2.150000e+01 1.395293e+01 2.069037e+01
      vertex 1.750000e+01 1.350000e+01 2.075000e+01
      vertex 1.750000e+01 1.395293e+01 2.069037e+01
    endloop
  endfacet
  facet normal -3.689681e-16 1.305262e-01 -9.914449e-01
    outer loop
      vertex 1.750000e+01 1.304707e+01 2.069037e+01
      vertex 2.150000e+01 1.350000e+01 2.075000e+01
      vertex 2.150000e+01 1.304707e+01 2.069037e+01
    endloop
  endfacet
  facet normal -3.689681e-16 1.305262e-01 -9.914449e-01
    outer loop
      vertex 2.150000e+01 1.350000e+01 2.075000e+01
      vertex 1.750000e+01 1.304707e+01 2.069037e+01
      vertex 1.750000e+01 1.350000e+01 2.075000e+01
    endloop
  endfacet
  facet normal -1.081760e-15 3.826834e-01 -9.238795e-01
    outer loop
      vertex 1.750000e+01 1.262500e+01 2.051554e+01
      vertex 2.150000e+01 1.304707e+01 2.069037e+01
      vertex 2.150000e+01 1.262500e+01 2.051554e+01
    endloop
  endfacet
  facet normal -1.081760e-15 3.826834e-01 -9.238795e-01
    outer loop
      vertex 2.150000e+01 1.304707e+01 2.069037e+01
      vertex 1.750000e+01 1.262500e+01 2.051554e+01
      vertex 1.750000e+01 1.304707e+01 2.069037e+01
    endloop
  endfacet
  facet normal -1.720831e-15 6.087614e-01 -7.933533e-01
    outer loop
      vertex 1.750000e+01 1.226256e+01 2.023744e+01
      vertex 2.150000e+01 1.262500e+01 2.051554e+01
      vertex 2.150000e+01 1.226256e+01 2.023744e+01
    endloop
  endfacet
  facet normal -1.720831e-15 6.087614e-01 -7.933533e-01
    outer loop
      vertex 2.150000e+01 1.262500e+01 2.051554e+01
      vertex 1.750000e+01 1.226256e+01 2.023744e+01
      vertex 1.750000e+01 1.262500e+01 2.051554e+01
    endloop
  endfacet
  facet normal -2.242631e-15 7.933533e-01 -6.087614e-01
    outer loop
      vertex 1.750000e+01 1.226256e+01 2.023744e+01
      vertex 2.150000e+01 1.198446e+01 1.987500e+01
      vertex 1.750000e+01 1.198446e+01 1.987500e+01
    endloop
  endfacet
  facet normal -2.242631e-15 7.933533e-01 -6.087614e-01
    outer loop
      vertex 2.150000e+01 1.198446e+01 1.987500e+01
      vertex 1.750000e+01 1.226256e+01 2.023744e+01
      vertex 2.150000e+01 1.226256e+01 2.023744e+01
    endloop
  endfacet
  facet normal -2.611599e-15 9.238795e-01 -3.826834e-01
    outer loop
      vertex 1.750000e+01 1.198446e+01 1.987500e+01
      vertex 2.150000e+01 1.180963e+01 1.945293e+01
      vertex 1.750000e+01 1.180963e+01 1.945293e+01
    endloop
  endfacet
  facet normal -2.611599e-15 9.238795e-01 -3.826834e-01
    outer loop
      vertex 2.150000e+01 1.180963e+01 1.945293e+01
      vertex 1.750000e+01 1.198446e+01 1.987500e+01
      vertex 2.150000e+01 1.198446e+01 1.987500e+01
    endloop
  endfacet
  facet normal -2.802591e-15 9.914449e-01 -1.305262e-01
    outer loop
      vertex 1.750000e+01 1.180963e+01 1.945293e+01
      vertex 2.150000e+01 1.175000e+01 1.900000e+01
      vertex 1.750000e+01 1.175000e+01 1.900000e+01
    endloop
  endfacet
  facet normal -2.802591e-15 9.914449e-01 -1.305262e-01
    outer loop
      vertex 2.150000e+01 1.175000e+01 1.900000e+01
      vertex 1.750000e+01 1.180963e+01 1.945293e+01
      vertex 2.150000e+01 1.180963e+01 1.945293e+01
    endloop
  endfacet
  facet normal -2.802591e-15 9.914449e-01 1.305262e-01
    outer loop
      vertex 1.750000e+01 1.175000e+01 1.900000e+01
      vertex 2.150000e+01 1.180963e+01 1.854707e+01
      vertex 1.750000e+01 1.180963e+01 1.854707e+01
    endloop
  endfacet
  facet normal -2.802591e-15 9.914449e-01 1.305262e-01
    outer loop
      vertex 2.150000e+01 1.180963e+01 1.854707e+01
      vertex 1.750000e+01 1.175000e+01 1.900000e+01
      vertex 2.150000e+01 1.175000e+01 1.900000e+01
    endloop
  endfacet
  facet normal -2.611599e-15 9.238795e-01 3.826834e-01
    outer loop
      vertex 1.750000e+01 1.180963e+01 1.854707e+01
      vertex 2.150000e+01 1.198446e+01 1.812500e+01
      vertex 1.750000e+01 1.198446e+01 1.812500e+01
    endloop
  endfacet
  facet normal -2.611599e-15 9.238795e-01 3.826834e-01
    outer loop
      vertex 2.150000e+01 1.198446e+01 1.812500e+01
      vertex 1.750000e+01 1.180963e+01 1.854707e+01
      vertex 2.150000e+01 1.180963e+01 1.854707e+01
    endloop
  endfacet
  facet normal -2.242631e-15 7.933533e-01 6.087614e-01
    outer loop
      vertex 1.750000e+01 1.198446e+01 1.812500e+01
      vertex 2.150000e+01 1.226256e+01 1.776256e+01
      vertex 1.750000e+01 1.226256e+01 1.776256e+01
    endloop
  endfacet
  facet normal -2.242631e-15 7.933533e-01 6.087614e-01
    outer loop
      vertex 2.150000e+01 1.226256e+01 1.776256e+01
      vertex 1.750000e+01 1.198446e+01 1.812500e+01
      vertex 2.150000e+01 1.198446e+01 1.812500e+01
    endloop
  endfacet
  facet normal -1.720831e-15 6.087614e-01 7.933533e-01
    outer loop
      vertex 1.750000e+01 1.262500e+01 1.748446e+01
      vertex 2.150000e+01 1.226256e+01 1.776256e+01
      vertex 2.150000e+01 1.262500e+01 1.748446e+01
    endloop
  endfacet
  facet normal -1.720831e-15 6.087614e-01 7.933533e-01
    outer loop
      vertex 2.150000e+01 1.226256e+01 1.776256e+01
      vertex 1.750000e+01 1.262500e+01 1.748446e+01
      vertex 1.750000e+01 1.226256e+01 1.776256e+01
    endloop
  endfacet
  facet normal -1.081760e-15 3.826834e-01 9.238795e-01
    outer loop
      vertex 1.750000e+01 1.304707e+01 1.730963e+01
      vertex 2.150000e+01 1.262500e+01 1.748446e+01
      vertex 2.150000e+01 1.304707e+01 1.730963e+01
    endloop
  endfacet
  facet normal -1.081760e-15 3.826834e-01 9.238795e-01
    outer loop
      vertex 2.150000e+01 1.262500e+01 1.748446e+01
      vertex 1.750000e+01 1.304707e+01 1.730963e+01
      vertex 1.750000e+01 1.262500e+01 1.748446e+01
    endloop
  endfacet
  facet normal 2.801455e-15 -9.914449e-01 1.305262e-01
    outer loop
      vertex 2.150000e+01 1.525000e+01 5.000000e+00
      vertex 1.750000e+01 1.519037e+01 4.547067e+00
      vertex 2.150000e+01 1.519037e+01 4.547067e+00
    endloop
  endfacet
  facet normal 2.801455e-15 -9.914449e-01 1.305262e-01
    outer loop
      vertex 1.750000e+01 1.519037e+01 4.547067e+00
      vertex 2.150000e+01 1.525000e+01 5.000000e+00
      vertex 1.750000e+01 1.525000e+01 5.000000e+00
    endloop
  endfacet
  facet normal 2.801455e-15 -9.914449e-01 -1.305262e-01
    outer loop
      vertex 2.150000e+01 1.519037e+01 5.452933e+00
      vertex 1.750000e+01 1.525000e+01 5.000000e+00
      vertex 2.150000e+01 1.525000e+01 5.000000e+00
    endloop
  endfacet
  facet normal 2.801455e-15 -9.914449e-01 -1.305262e-01
    outer loop
      vertex 1.750000e+01 1.525000e+01 5.000000e+00
      vertex 2.150000e+01 1.519037e+01 5.452933e+00
      vertex 1.750000e+01 1.519037e+01 5.452933e+00
    endloop
  endfacet
  facet normal 2.611599e-15 -9.238795e-01 -3.826834e-01
    outer loop
      vertex 2.150000e+01 1.501554e+01 5.875000e+00
      vertex 1.750000e+01 1.519037e+01 5.452933e+00
      vertex 2.150000e+01 1.519037e+01 5.452933e+00
    endloop
  endfacet
  facet normal 2.611599e-15 -9.238795e-01 -3.826834e-01
    outer loop
      vertex 1.750000e+01 1.519037e+01 5.452933e+00
      vertex 2.150000e+01 1.501554e+01 5.875000e+00
      vertex 1.750000e+01 1.501554e+01 5.875000e+00
    endloop
  endfacet
  facet normal 2.238994e-15 -7.933533e-01 -6.087614e-01
    outer loop
      vertex 2.150000e+01 1.473744e+01 6.237437e+00
      vertex 1.750000e+01 1.501554e+01 5.875000e+00
      vertex 2.150000e+01 1.501554e+01 5.875000e+00
    endloop
  endfacet
  facet normal 2.238994e-15 -7.933533e-01 -6.087614e-01
    outer loop
      vertex 1.750000e+01 1.501554e+01 5.875000e+00
      vertex 2.150000e+01 1.473744e+01 6.237437e+00
      vertex 1.750000e+01 1.473744e+01 6.237437e+00
    endloop
  endfacet
  facet normal 1.720831e-15 -6.087614e-01 -7.933533e-01
    outer loop
      vertex 1.750000e+01 1.437500e+01 6.515544e+00
      vertex 2.150000e+01 1.473744e+01 6.237437e+00
      vertex 2.150000e+01 1.437500e+01 6.515544e+00
    endloop
  endfacet
  facet normal 1.720831e-15 -6.087614e-01 -7.933533e-01
    outer loop
      vertex 2.150000e+01 1.473744e+01 6.237437e+00
      vertex 1.750000e+01 1.437500e+01 6.515544e+00
      vertex 1.750000e+01 1.473744e+01 6.237437e+00
    endloop
  endfacet
  facet normal 1.081760e-15 -3.826834e-01 -9.238795e-01
    outer loop
      vertex 1.750000e+01 1.395293e+01 6.690370e+00
      vertex 2.150000e+01 1.437500e+01 6.515544e+00
      vertex 2.150000e+01 1.395293e+01 6.690370e+00
    endloop
  endfacet
  facet normal 1.081760e-15 -3.826834e-01 -9.238795e-01
    outer loop
      vertex 2.150000e+01 1.437500e+01 6.515544e+00
      vertex 1.750000e+01 1.395293e+01 6.690370e+00
      vertex 1.750000e+01 1.437500e+01 6.515544e+00
    endloop
  endfacet
  facet normal 3.689681e-16 -1.305262e-01 -9.914449e-01
    outer loop
      vertex 1.750000e+01 1.350000e+01 6.750000e+00
      vertex 2.150000e+01 1.395293e+01 6.690370e+00
      vertex 2.150000e+01 1.350000e+01 6.750000e+00
    endloop
  endfacet
  facet normal 3.689681e-16 -1.305262e-01 -9.914449e-01
    outer loop
      vertex 2.150000e+01 1.395293e+01 6.690370e+00
      vertex 1.750000e+01 1.350000e+01 6.750000e+00
      vertex 1.750000e+01 1.395293e+01 6.690370e+00
    endloop
  endfacet
  facet normal -3.689681e-16 1.305262e-01 -9.914449e-01
    outer loop
      vertex 1.750000e+01 1.304707e+01 6.690370e+00
      vertex 2.150000e+01 1.350000e+01 6.750000e+00
      vertex 2.150000e+01 1.304707e+01 6.690370e+00
    endloop
  endfacet
  facet normal -3.689681e-16 1.305262e-01 -9.914449e-01
    outer loop
      vertex 2.150000e+01 1.350000e+01 6.750000e+00
      vertex 1.750000e+01 1.304707e+01 6.690370e+00
      vertex 1.750000e+01 1.350000e+01 6.750000e+00
    endloop
  endfacet
  facet normal -1.081760e-15 3.826834e-01 -9.238795e-01
    outer loop
      vertex 1.750000e+01 1.262500e+01 6.515544e+00
      vertex 2.150000e+01 1.304707e+01 6.690370e+00
      vertex 2.150000e+01 1.262500e+01 6.515544e+00
    endloop
  endfacet
  facet normal -1.081760e-15 3.826834e-01 -9.238795e-01
    outer loop
      vertex 2.150000e+01 1.304707e+01 6.690370e+00
      vertex 1.750000e+01 1.262500e+01 6.515544e+00
      vertex 1.750000e+01 1.304707e+01 6.690370e+00
    endloop
  endfacet
  facet normal -1.720831e-15 6.087614e-01 -7.933533e-01
    outer loop
      vertex 1.750000e+01 1.226256e+01 6.237437e+00
      vertex 2.150000e+01 1.262500e+01 6.515544e+00
      vertex 2.150000e+01 1.226256e+01 6.237437e+00
    endloop
  endfacet
  facet normal -1.720831e-15 6.087614e-01 -7.933533e-01
    outer loop
      vertex 2.150000e+01 1.262500e+01 6.515544e+00
      vertex 1.750000e+01 1.226256e+01 6.237437e+00
      vertex 1.750000e+01 1.262500e+01 6.515544e+00
    endloop
  endfacet
  facet normal -2.238994e-15 7.933533e-01 -6.087614e-01
    outer loop
      vertex 1.750000e+01 1.226256e+01 6.237437e+00
      vertex 2.150000e+01 1.198446e+01 5.875000e+00
      vertex 1.750000e+01 1.198446e+01 5.875000e+00
    endloop
  endfacet
  facet normal -2.238994e-15 7.933533e-01 -6.087614e-01
    outer loop
      vertex 2.150000e+01 1.198446e+01 5.875000e+00
      vertex 1.750000e+01 1.226256e+01 6.237437e+00
      vertex 2.150000e+01 1.226256e+01 6.237437e+00
    endloop
  endfacet
  facet normal -2.611599e-15 9.238795e-01 -3.826834e-01
    outer loop
      vertex 1.750000e+01 1.198446e+01 5.875000e+00
      vertex 2.150000e+01 1.180963e+01 5.452933e+00
      vertex 1.750000e+01 1.180963e+01 5.452933e+00
    endloop
  endfacet
  facet normal -2.611599e-15 9.238795e-01 -3.826834e-01
    outer loop
      vertex 2.150000e+01 1.180963e+01 5.452933e+00
      vertex 1.750000e+01 1.198446e+01 5.875000e+00
      vertex 2.150000e+01 1.198446e+01 5.875000e+00
    endloop
  endfacet
  facet normal -2.801455e-15 9.914449e-01 -1.305262e-01
    outer loop
      vertex 1.750000e+01 1.180963e+01 5.452933e+00
      vertex 2.150000e+01 1.175000e+01 5.000000e+00
      vertex 1.750000e+01 1.175000e+01 5.000000e+00
    endloop
  endfacet
  facet normal -2.801455e-15 9.914449e-01 -1.305262e-01
    outer loop
      vertex 2.150000e+01 1.175000e+01 5.000000e+00
      vertex 1.750000e+01 1.180963e+01 5.452933e+00
      vertex 2.150000e+01 1.180963e+01 5.452933e+00
    endloop
  endfacet
  facet normal -2.801455e-15 9.914449e-01 1.305262e-01
    outer loop
      vertex 1.750000e+01 1.175000e+01 5.000000e+00
      vertex 2.150000e+01 1.180963e+01 4.547067e+00
      vertex 1.750000e+01 1.180963e+01 4.547067e+00
    endloop
  endfacet
  facet normal -2.801455e-15 9.914449e-01 1.305262e-01
    outer loop
      vertex 2.150000e+01 1.180963e+01 4.547067e+00
      vertex 1.750000e+01 1.175000e+01 5.000000e+00
      vertex 2.150000e+01 1.175000e+01 5.000000e+00
    endloop
  endfacet
  facet normal -2.611599e-15 9.238795e-01 3.826834e-01
    outer loop
      vertex 1.750000e+01 1.180963e+01 4.547067e+00
      vertex 2.150000e+01 1.198446e+01 4.125000e+00
      vertex 1.750000e+01 1.198446e+01 4.125000e+00
    endloop
  endfacet
  facet normal -2.611599e-15 9.238795e-01 3.826834e-01
    outer loop
      vertex 2.150000e+01 1.198446e+01 4.125000e+00
      vertex 1.750000e+01 1.180963e+01 4.547067e+00
      vertex 2.150000e+01 1.180963e+01 4.547067e+00
    endloop
  endfacet
  facet normal -2.238994e-15 7.933533e-01 6.087614e-01
    outer loop
      vertex 1.750000e+01 1.198446e+01 4.125000e+00
      vertex 2.150000e+01 1.226256e+01 3.762563e+00
      vertex 1.750000e+01 1.226256e+01 3.762563e+00
    endloop
  endfacet
  facet normal -2.238994e-15 7.933533e-01 6.087614e-01
    outer loop
      vertex 2.150000e+01 1.226256e+01 3.762563e+00
      vertex 1.750000e+01 1.198446e+01 4.125000e+00
      vertex 2.150000e+01 1.198446e+01 4.125000e+00
    endloop
  endfacet
  facet normal -1.720831e-15 6.087614e-01 7.933533e-01
    outer loop
      vertex 1.750000e+01 1.262500e+01 3.484455e+00
      vertex 2.150000e+01 1.226256e+01 3.762563e+00
      vertex 2.150000e+01 1.262500e+01 3.484455e+00
    endloop
  endfacet
  facet normal -1.720831e-15 6.087614e-01 7.933533e-01
    outer loop
      vertex 2.150000e+01 1.226256e+01 3.762563e+00
      vertex 1.750000e+01 1.262500e+01 3.484455e+00
      vertex 1.750000e+01 1.226256e+01 3.762563e+00
    endloop
  endfacet
  facet normal -1.081760e-15 3.826834e-01 9.238795e-01
    outer loop
      vertex 1.750000e+01 1.304707e+01 3.309629e+00
      vertex 2.150000e+01 1.262500e+01 3.484455e+00
      vertex 2.150000e+01 1.304707e+01 3.309629e+00
    endloop
  endfacet
  facet normal -1.081760e-15 3.826834e-01 9.238795e-01
    outer loop
      vertex 2.150000e+01 1.262500e+01 3.484455e+00
      vertex 1.750000e+01 1.304707e+01 3.309629e+00
      vertex 1.750000e+01 1.262500e+01 3.484455e+00
    endloop
  endfacet
  facet normal -3.689681e-16 1.305262e-01 9.914449e-01
    outer loop
      vertex 1.750000e+01 1.350000e+01 3.250000e+00
      vertex 2.150000e+01 1.304707e+01 3.309629e+00
      vertex 2.150000e+01 1.350000e+01 3.250000e+00
    endloop
  endfacet
  facet normal -3.689681e-16 1.305262e-01 9.914449e-01
    outer loop
      vertex 2.150000e+01 1.304707e+01 3.309629e+00
      vertex 1.750000e+01 1.350000e+01 3.250000e+00
      vertex 1.750000e+01 1.304707e+01 3.309629e+00
    endloop
  endfacet
  facet normal 3.689681e-16 -1.305262e-01 9.914449e-01
    outer loop
      vertex 1.750000e+01 1.395293e+01 3.309629e+00
      vertex 2.150000e+01 1.350000e+01 3.250000e+00
      vertex 2.150000e+01 1.395293e+01 3.309629e+00
    endloop
  endfacet
  facet normal 3.689681e-16 -1.305262e-01 9.914449e-01
    outer loop
      vertex 2.150000e+01 1.350000e+01 3.250000e+00
      vertex 1.750000e+01 1.395293e+01 3.309629e+00
      vertex 1.750000e+01 1.350000e+01 3.250000e+00
    endloop
  endfacet
  facet normal 1.081760e-15 -3.826834e-01 9.238795e-01
    outer loop
      vertex 1.750000e+01 1.437500e+01 3.484455e+00
      vertex 2.150000e+01 1.395293e+01 3.309629e+00
      vertex 2.150000e+01 1.437500e+01 3.484455e+00
    endloop
  endfacet
  facet normal 1.081760e-15 -3.826834e-01 9.238795e-01
    outer loop
      vertex 2.150000e+01 1.395293e+01 3.309629e+00
      vertex 1.750000e+01 1.437500e+01 3.484455e+00
      vertex 1.750000e+01 1.395293e+01 3.309629e+00
    endloop
  endfacet
  facet normal 1.720831e-15 -6.087614e-01 7.933533e-01
    outer loop
      vertex 1.750000e+01 1.473744e+01 3.762563e+00
      vertex 2.150000e+01 1.437500e+01 3.484455e+00
      vertex 2.150000e+01 1.473744e+01 3.762563e+00
    endloop
  endfacet
  facet normal 1.720831e-15 -6.087614e-01 7.933533e-01
    outer loop
      vertex 2.150000e+01 1.437500e+01 3.484455e+00
      vertex 1.750000e+01 1.473744e+01 3.762563e+00
      vertex 1.750000e+01 1.437500e+01 3.484455e+00
    endloop
  endfacet
  facet normal 2.238994e-15 -7.933533e-01 6.087614e-01
    outer loop
      vertex 2.150000e+01 1.501554e+01 4.125000e+00
      vertex 1.750000e+01 1.473744e+01 3.762563e+00
      vertex 2.150000e+01 1.473744e+01 3.762563e+00
    endloop
  endfacet
  facet normal 2.238994e-15 -7.933533e-01 6.087614e-01
    outer loop
      vertex 1.750000e+01 1.473744e+01 3.762563e+00
      vertex 2.150000e+01 1.501554e+01 4.125000e+00
      vertex 1.750000e+01 1.501554e+01 4.125000e+00
    endloop
  endfacet
  facet normal 2.611599e-15 -9.238795e-01 3.826834e-01
    outer loop
      vertex 2.150000e+01 1.519037e+01 4.547067e+00
      vertex 1.750000e+01 1.501554e+01 4.125000e+00
      vertex 2.150000e+01 1.501554e+01 4.125000e+00
    endloop
  endfacet
  facet normal 2.611599e-15 -9.238795e-01 3.826834e-01
    outer loop
      vertex 1.750000e+01 1.501554e+01 4.125000e+00
      vertex 2.150000e+01 1.519037e+01 4.547067e+00
      vertex 1.750000e+01 1.519037e+01 4.547067e+00
    endloop
  endfacet
endsolid Default
