solid Default
  facet normal -9.238795e-01 3.826834e-01 -6.246482e-16
    outer loop
      vertex -5.484456e+00 2.564242e+01 4.000000e+00
      vertex -5.309630e+00 2.606449e+01 0.000000e+00
      vertex -5.484456e+00 2.564242e+01 0.000000e+00
    endloop
  endfacet
  facet normal -9.238795e-01 3.826834e-01 -6.246482e-16
    outer loop
      vertex -5.309630e+00 2.606449e+01 0.000000e+00
      vertex -5.484456e+00 2.564242e+01 4.000000e+00
      vertex -5.309630e+00 2.606449e+01 4.000000e+00
    endloop
  endfacet
  facet normal 9.238795e-01 3.826834e-01 -6.228939e-16
    outer loop
      vertex -8.690371e+00 2.606449e+01 4.000000e+00
      vertex -8.515545e+00 2.564242e+01 0.000000e+00
      vertex -8.690371e+00 2.606449e+01 0.000000e+00
    endloop
  endfacet
  facet normal 9.238795e-01 3.826834e-01 -6.228939e-16
    outer loop
      vertex -8.515545e+00 2.564242e+01 0.000000e+00
      vertex -8.690371e+00 2.606449e+01 4.000000e+00
      vertex -8.515545e+00 2.564242e+01 4.000000e+00
    endloop
  endfacet
  facet normal -6.087614e-01 7.933533e-01 -1.291342e-15
    outer loop
      vertex -6.125000e+00 2.500188e+01 0.000000e+00
      vertex -5.762563e+00 2.527999e+01 4.000000e+00
      vertex -5.762563e+00 2.527999e+01 0.000000e+00
    endloop
  endfacet
  facet normal -6.087614e-01 7.933533e-01 -1.291342e-15
    outer loop
      vertex -5.762563e+00 2.527999e+01 4.000000e+00
      vertex -6.125000e+00 2.500188e+01 0.000000e+00
      vertex -6.125000e+00 2.500188e+01 4.000000e+00
    endloop
  endfacet
  facet normal -9.914449e-01 -1.305262e-01 3.069968e-16
    outer loop
      vertex -5.250000e+00 2.651742e+01 4.000000e+00
      vertex -5.309630e+00 2.697036e+01 0.000000e+00
      vertex -5.250000e+00 2.651742e+01 0.000000e+00
    endloop
  endfacet
  facet normal -9.914449e-01 -1.305262e-01 3.069968e-16
    outer loop
      vertex -5.309630e+00 2.697036e+01 0.000000e+00
      vertex -5.250000e+00 2.651742e+01 4.000000e+00
      vertex -5.309630e+00 2.697036e+01 4.000000e+00
    endloop
  endfacet
  facet normal -9.914449e-01 1.305262e-01 -2.124575e-16
    outer loop
      vertex -5.309630e+00 2.606449e+01 4.000000e+00
      vertex -5.250000e+00 2.651742e+01 0.000000e+00
      vertex -5.309630e+00 2.606449e+01 0.000000e+00
    endloop
  endfacet
  facet normal -9.914449e-01 1.305262e-01 -2.124575e-16
    outer loop
      vertex -5.250000e+00 2.651742e+01 0.000000e+00
      vertex -5.309630e+00 2.606449e+01 4.000000e+00
      vertex -5.250000e+00 2.651742e+01 4.000000e+00
    endloop
  endfacet
  facet normal 9.914449e-01 1.305262e-01 -2.124575e-16
    outer loop
      vertex -8.750000e+00 2.651742e+01 4.000000e+00
      vertex -8.690371e+00 2.606449e+01 0.000000e+00
      vertex -8.750000e+00 2.651742e+01 0.000000e+00
    endloop
  endfacet
  facet normal 9.914449e-01 1.305262e-01 -2.124575e-16
    outer loop
      vertex -8.690371e+00 2.606449e+01 0.000000e+00
      vertex -8.750000e+00 2.651742e+01 4.000000e+00
      vertex -8.690371e+00 2.606449e+01 4.000000e+00
    endloop
  endfacet
  facet normal 3.826834e-01 -9.238795e-01 1.503799e-15
    outer loop
      vertex -7.875000e+00 2.803297e+01 4.000000e+00
      vertex -7.452933e+00 2.820779e+01 0.000000e+00
      vertex -7.452933e+00 2.820779e+01 4.000000e+00
    endloop
  endfacet
  facet normal 3.826834e-01 -9.238795e-01 1.503799e-15
    outer loop
      vertex -7.452933e+00 2.820779e+01 0.000000e+00
      vertex -7.875000e+00 2.803297e+01 4.000000e+00
      vertex -7.875000e+00 2.803297e+01 0.000000e+00
    endloop
  endfacet
  facet normal -1.305262e-01 -9.914449e-01 1.613775e-15
    outer loop
      vertex -7.000000e+00 2.826742e+01 4.000000e+00
      vertex -6.547067e+00 2.820779e+01 0.000000e+00
      vertex -6.547067e+00 2.820779e+01 4.000000e+00
    endloop
  endfacet
  facet normal -1.305262e-01 -9.914449e-01 1.613775e-15
    outer loop
      vertex -6.547067e+00 2.820779e+01 0.000000e+00
      vertex -7.000000e+00 2.826742e+01 4.000000e+00
      vertex -7.000000e+00 2.826742e+01 0.000000e+00
    endloop
  endfacet
  facet normal -3.826834e-01 -9.238795e-01 1.503799e-15
    outer loop
      vertex -6.547067e+00 2.820779e+01 4.000000e+00
      vertex -6.125000e+00 2.803297e+01 0.000000e+00
      vertex -6.125000e+00 2.803297e+01 4.000000e+00
    endloop
  endfacet
  facet normal -3.826834e-01 -9.238795e-01 1.503799e-15
    outer loop
      vertex -6.125000e+00 2.803297e+01 0.000000e+00
      vertex -6.547067e+00 2.820779e+01 4.000000e+00
      vertex -6.547067e+00 2.820779e+01 0.000000e+00
    endloop
  endfacet
  facet normal -6.087614e-01 -7.933533e-01 1.864144e-15
    outer loop
      vertex -6.125000e+00 2.803297e+01 4.000000e+00
      vertex -5.762563e+00 2.775486e+01 0.000000e+00
      vertex -5.762563e+00 2.775486e+01 4.000000e+00
    endloop
  endfacet
  facet normal -6.087614e-01 -7.933533e-01 1.864144e-15
    outer loop
      vertex -5.762563e+00 2.775486e+01 0.000000e+00
      vertex -6.125000e+00 2.803297e+01 4.000000e+00
      vertex -6.125000e+00 2.803297e+01 0.000000e+00
    endloop
  endfacet
  facet normal -7.933533e-01 -6.087614e-01 1.869935e-15
    outer loop
      vertex -5.484456e+00 2.739242e+01 4.000000e+00
      vertex -5.762563e+00 2.775486e+01 0.000000e+00
      vertex -5.484456e+00 2.739242e+01 0.000000e+00
    endloop
  endfacet
  facet normal -7.933533e-01 -6.087614e-01 1.869935e-15
    outer loop
      vertex -5.762563e+00 2.775486e+01 0.000000e+00
      vertex -5.484456e+00 2.739242e+01 4.000000e+00
      vertex -5.762563e+00 2.775486e+01 4.000000e+00
    endloop
  endfacet
  facet normal -9.238795e-01 -3.826834e-01 1.175490e-15
    outer loop
      vertex -5.309630e+00 2.697036e+01 4.000000e+00
      vertex -5.484456e+00 2.739242e+01 0.000000e+00
      vertex -5.309630e+00 2.697036e+01 0.000000e+00
    endloop
  endfacet
  facet normal -9.238795e-01 -3.826834e-01 1.175490e-15
    outer loop
      vertex -5.484456e+00 2.739242e+01 0.000000e+00
      vertex -5.309630e+00 2.697036e+01 4.000000e+00
      vertex -5.484456e+00 2.739242e+01 4.000000e+00
    endloop
  endfacet
  facet normal 3.826834e-01 9.238795e-01 -1.503799e-15
    outer loop
      vertex -7.875000e+00 2.500188e+01 0.000000e+00
      vertex -7.452933e+00 2.482705e+01 4.000000e+00
      vertex -7.452933e+00 2.482705e+01 0.000000e+00
    endloop
  endfacet
  facet normal 3.826834e-01 9.238795e-01 -1.503799e-15
    outer loop
      vertex -7.452933e+00 2.482705e+01 4.000000e+00
      vertex -7.875000e+00 2.500188e+01 0.000000e+00
      vertex -7.875000e+00 2.500188e+01 4.000000e+00
    endloop
  endfacet
  facet normal -1.305262e-01 9.914449e-01 -1.613207e-15
    outer loop
      vertex 7.000000e+00 2.476742e+01 0.000000e+00
      vertex 7.452933e+00 2.482705e+01 4.000000e+00
      vertex 7.452933e+00 2.482705e+01 0.000000e+00
    endloop
  endfacet
  facet normal -1.305262e-01 9.914449e-01 -1.613207e-15
    outer loop
      vertex 7.452933e+00 2.482705e+01 4.000000e+00
      vertex 7.000000e+00 2.476742e+01 0.000000e+00
      vertex 7.000000e+00 2.476742e+01 4.000000e+00
    endloop
  endfacet
  facet normal 7.933533e-01 6.087614e-01 -9.936718e-16
    outer loop
      vertex -8.515545e+00 2.564242e+01 4.000000e+00
      vertex -8.237437e+00 2.527999e+01 0.000000e+00
      vertex -8.515545e+00 2.564242e+01 0.000000e+00
    endloop
  endfacet
  facet normal 7.933533e-01 6.087614e-01 -9.936718e-16
    outer loop
      vertex -8.237437e+00 2.527999e+01 0.000000e+00
      vertex -8.515545e+00 2.564242e+01 4.000000e+00
      vertex -8.237437e+00 2.527999e+01 4.000000e+00
    endloop
  endfacet
  facet normal 6.087614e-01 7.933533e-01 -1.291342e-15
    outer loop
      vertex -8.237437e+00 2.527999e+01 0.000000e+00
      vertex -7.875000e+00 2.500188e+01 4.000000e+00
      vertex -7.875000e+00 2.500188e+01 0.000000e+00
    endloop
  endfacet
  facet normal 6.087614e-01 7.933533e-01 -1.291342e-15
    outer loop
      vertex -7.875000e+00 2.500188e+01 4.000000e+00
      vertex -8.237437e+00 2.527999e+01 0.000000e+00
      vertex -8.237437e+00 2.527999e+01 4.000000e+00
    endloop
  endfacet
  facet normal 1.305262e-01 -9.914449e-01 1.613775e-15
    outer loop
      vertex -7.452933e+00 2.820779e+01 4.000000e+00
      vertex -7.000000e+00 2.826742e+01 0.000000e+00
      vertex -7.000000e+00 2.826742e+01 4.000000e+00
    endloop
  endfacet
  facet normal 1.305262e-01 -9.914449e-01 1.613775e-15
    outer loop
      vertex -7.000000e+00 2.826742e+01 0.000000e+00
      vertex -7.452933e+00 2.820779e+01 4.000000e+00
      vertex -7.452933e+00 2.820779e+01 0.000000e+00
    endloop
  endfacet
  facet normal 1.305262e-01 9.914449e-01 -1.613775e-15
    outer loop
      vertex 6.547067e+00 2.482705e+01 0.000000e+00
      vertex 7.000000e+00 2.476742e+01 4.000000e+00
      vertex 7.000000e+00 2.476742e+01 0.000000e+00
    endloop
  endfacet
  facet normal 1.305262e-01 9.914449e-01 -1.613775e-15
    outer loop
      vertex 7.000000e+00 2.476742e+01 4.000000e+00
      vertex 6.547067e+00 2.482705e+01 0.000000e+00
      vertex 6.547067e+00 2.482705e+01 4.000000e+00
    endloop
  endfacet
  facet normal -3.826834e-01 9.238795e-01 -1.503799e-15
    outer loop
      vertex -6.547067e+00 2.482705e+01 0.000000e+00
      vertex -6.125000e+00 2.500188e+01 4.000000e+00
      vertex -6.125000e+00 2.500188e+01 0.000000e+00
    endloop
  endfacet
  facet normal -3.826834e-01 9.238795e-01 -1.503799e-15
    outer loop
      vertex -6.125000e+00 2.500188e+01 4.000000e+00
      vertex -6.547067e+00 2.482705e+01 0.000000e+00
      vertex -6.547067e+00 2.482705e+01 4.000000e+00
    endloop
  endfacet
  facet normal -7.933533e-01 6.087614e-01 -9.908812e-16
    outer loop
      vertex -5.762563e+00 2.527999e+01 4.000000e+00
      vertex -5.484456e+00 2.564242e+01 0.000000e+00
      vertex -5.762563e+00 2.527999e+01 0.000000e+00
    endloop
  endfacet
  facet normal -7.933533e-01 6.087614e-01 -9.908812e-16
    outer loop
      vertex -5.484456e+00 2.564242e+01 0.000000e+00
      vertex -5.762563e+00 2.527999e+01 4.000000e+00
      vertex -5.484456e+00 2.564242e+01 4.000000e+00
    endloop
  endfacet
  facet normal -1.305262e-01 9.914449e-01 -1.613775e-15
    outer loop
      vertex -7.000000e+00 2.476742e+01 0.000000e+00
      vertex -6.547067e+00 2.482705e+01 4.000000e+00
      vertex -6.547067e+00 2.482705e+01 0.000000e+00
    endloop
  endfacet
  facet normal -1.305262e-01 9.914449e-01 -1.613775e-15
    outer loop
      vertex -6.547067e+00 2.482705e+01 4.000000e+00
      vertex -7.000000e+00 2.476742e+01 0.000000e+00
      vertex -7.000000e+00 2.476742e+01 4.000000e+00
    endloop
  endfacet
  facet normal 1.305262e-01 9.914449e-01 -1.613775e-15
    outer loop
      vertex -7.452933e+00 2.482705e+01 0.000000e+00
      vertex -7.000000e+00 2.476742e+01 4.000000e+00
      vertex -7.000000e+00 2.476742e+01 0.000000e+00
    endloop
  endfacet
  facet normal 1.305262e-01 9.914449e-01 -1.613775e-15
    outer loop
      vertex -7.000000e+00 2.476742e+01 4.000000e+00
      vertex -7.452933e+00 2.482705e+01 0.000000e+00
      vertex -7.452933e+00 2.482705e+01 4.000000e+00
    endloop
  endfacet
  facet normal 9.914449e-01 -1.305262e-01 3.063985e-16
    outer loop
      vertex -8.690371e+00 2.697036e+01 4.000000e+00
      vertex -8.750000e+00 2.651742e+01 0.000000e+00
      vertex -8.690371e+00 2.697036e+01 0.000000e+00
    endloop
  endfacet
  facet normal 9.914449e-01 -1.305262e-01 3.063985e-16
    outer loop
      vertex -8.750000e+00 2.651742e+01 0.000000e+00
      vertex -8.690371e+00 2.697036e+01 4.000000e+00
      vertex -8.750000e+00 2.651742e+01 4.000000e+00
    endloop
  endfacet
  facet normal 9.238795e-01 -3.826834e-01 1.175490e-15
    outer loop
      vertex -8.515545e+00 2.739242e+01 4.000000e+00
      vertex -8.690371e+00 2.697036e+01 0.000000e+00
      vertex -8.515545e+00 2.739242e+01 0.000000e+00
    endloop
  endfacet
  facet normal 9.238795e-01 -3.826834e-01 1.175490e-15
    outer loop
      vertex -8.690371e+00 2.697036e+01 0.000000e+00
      vertex -8.515545e+00 2.739242e+01 4.000000e+00
      vertex -8.690371e+00 2.697036e+01 4.000000e+00
    endloop
  endfacet
  facet normal 7.933533e-01 -6.087614e-01 1.869935e-15
    outer loop
      vertex -8.237437e+00 2.775486e+01 4.000000e+00
      vertex -8.515545e+00 2.739242e+01 0.000000e+00
      vertex -8.237437e+00 2.775486e+01 0.000000e+00
    endloop
  endfacet
  facet normal 7.933533e-01 -6.087614e-01 1.869935e-15
    outer loop
      vertex -8.515545e+00 2.739242e+01 0.000000e+00
      vertex -8.237437e+00 2.775486e+01 4.000000e+00
      vertex -8.515545e+00 2.739242e+01 4.000000e+00
    endloop
  endfacet
  facet normal 6.087614e-01 -7.933533e-01 1.864144e-15
    outer loop
      vertex -8.237437e+00 2.775486e+01 4.000000e+00
      vertex -7.875000e+00 2.803297e+01 0.000000e+00
      vertex -7.875000e+00 2.803297e+01 4.000000e+00
    endloop
  endfacet
  facet normal 6.087614e-01 -7.933533e-01 1.864144e-15
    outer loop
      vertex -7.875000e+00 2.803297e+01 0.000000e+00
      vertex -8.237437e+00 2.775486e+01 4.000000e+00
      vertex -8.237437e+00 2.775486e+01 0.000000e+00
    endloop
  endfacet
  facet normal 9.238795e-01 3.826834e-01 -6.228939e-16
    outer loop
      vertex 5.309630e+00 2.606449e+01 4.000000e+00
      vertex 5.484456e+00 2.564242e+01 0.000000e+00
      vertex 5.309630e+00 2.606449e+01 0.000000e+00
    endloop
  endfacet
  facet normal 9.238795e-01 3.826834e-01 -6.228939e-16
    outer loop
      vertex 5.484456e+00 2.564242e+01 0.000000e+00
      vertex 5.309630e+00 2.606449e+01 4.000000e+00
      vertex 5.484456e+00 2.564242e+01 4.000000e+00
    endloop
  endfacet
  facet normal 9.914449e-01 -1.305262e-01 3.069968e-16
    outer loop
      vertex 5.309630e+00 2.697036e+01 4.000000e+00
      vertex 5.250000e+00 2.651742e+01 0.000000e+00
      vertex 5.309630e+00 2.697036e+01 0.000000e+00
    endloop
  endfacet
  facet normal 9.914449e-01 -1.305262e-01 3.069968e-16
    outer loop
      vertex 5.250000e+00 2.651742e+01 0.000000e+00
      vertex 5.309630e+00 2.697036e+01 4.000000e+00
      vertex 5.250000e+00 2.651742e+01 4.000000e+00
    endloop
  endfacet
  facet normal 7.933533e-01 6.087614e-01 -9.908812e-16
    outer loop
      vertex 5.484456e+00 2.564242e+01 4.000000e+00
      vertex 5.762563e+00 2.527999e+01 0.000000e+00
      vertex 5.484456e+00 2.564242e+01 0.000000e+00
    endloop
  endfacet
  facet normal 7.933533e-01 6.087614e-01 -9.908812e-16
    outer loop
      vertex 5.762563e+00 2.527999e+01 0.000000e+00
      vertex 5.484456e+00 2.564242e+01 4.000000e+00
      vertex 5.762563e+00 2.527999e+01 4.000000e+00
    endloop
  endfacet
  facet normal 9.238795e-01 -3.826834e-01 1.173736e-15
    outer loop
      vertex 5.484456e+00 2.739242e+01 4.000000e+00
      vertex 5.309630e+00 2.697036e+01 0.000000e+00
      vertex 5.484456e+00 2.739242e+01 0.000000e+00
    endloop
  endfacet
  facet normal 9.238795e-01 -3.826834e-01 1.173736e-15
    outer loop
      vertex 5.309630e+00 2.697036e+01 0.000000e+00
      vertex 5.484456e+00 2.739242e+01 4.000000e+00
      vertex 5.309630e+00 2.697036e+01 4.000000e+00
    endloop
  endfacet
  facet normal 7.933533e-01 -6.087614e-01 1.869935e-15
    outer loop
      vertex 5.762563e+00 2.775486e+01 4.000000e+00
      vertex 5.484456e+00 2.739242e+01 0.000000e+00
      vertex 5.762563e+00 2.775486e+01 0.000000e+00
    endloop
  endfacet
  facet normal 7.933533e-01 -6.087614e-01 1.869935e-15
    outer loop
      vertex 5.484456e+00 2.739242e+01 0.000000e+00
      vertex 5.762563e+00 2.775486e+01 4.000000e+00
      vertex 5.484456e+00 2.739242e+01 4.000000e+00
    endloop
  endfacet
  facet normal 6.087614e-01 7.933533e-01 -1.289523e-15
    outer loop
      vertex 5.762563e+00 2.527999e+01 0.000000e+00
      vertex 6.125000e+00 2.500188e+01 4.000000e+00
      vertex 6.125000e+00 2.500188e+01 0.000000e+00
    endloop
  endfacet
  facet normal 6.087614e-01 7.933533e-01 -1.289523e-15
    outer loop
      vertex 6.125000e+00 2.500188e+01 4.000000e+00
      vertex 5.762563e+00 2.527999e+01 0.000000e+00
      vertex 5.762563e+00 2.527999e+01 4.000000e+00
    endloop
  endfacet
  facet normal 7.933533e-01 4.663383e-01 3.913043e-01
    outer loop
      vertex -8.660254e+00 -2.538907e+01 1.871786e+01
      vertex -7.071068e+00 -1.238651e+01 7.105427e-15
      vertex -8.660254e+00 -9.682920e+00 7.105427e-15
    endloop
  endfacet
  facet normal 7.933533e-01 4.663383e-01 3.913043e-01
    outer loop
      vertex -7.071068e+00 -1.238651e+01 7.105427e-15
      vertex -8.660254e+00 -2.538907e+01 1.871786e+01
      vertex -7.071068e+00 -2.697560e+01 1.738660e+01
    endloop
  endfacet
  facet normal 9.914449e-01 1.305262e-01 -2.124575e-16
    outer loop
      vertex 5.250000e+00 2.651742e+01 4.000000e+00
      vertex 5.309630e+00 2.606449e+01 0.000000e+00
      vertex 5.250000e+00 2.651742e+01 0.000000e+00
    endloop
  endfacet
  facet normal 9.914449e-01 1.305262e-01 -2.124575e-16
    outer loop
      vertex 5.309630e+00 2.606449e+01 0.000000e+00
      vertex 5.250000e+00 2.651742e+01 4.000000e+00
      vertex 5.309630e+00 2.606449e+01 4.000000e+00
    endloop
  endfacet
  facet normal 3.826834e-01 9.238795e-01 -1.503799e-15
    outer loop
      vertex 6.125000e+00 2.500188e+01 0.000000e+00
      vertex 6.547067e+00 2.482705e+01 4.000000e+00
      vertex 6.547067e+00 2.482705e+01 0.000000e+00
    endloop
  endfacet
  facet normal 3.826834e-01 9.238795e-01 -1.503799e-15
    outer loop
      vertex 6.547067e+00 2.482705e+01 4.000000e+00
      vertex 6.125000e+00 2.500188e+01 0.000000e+00
      vertex 6.125000e+00 2.500188e+01 4.000000e+00
    endloop
  endfacet
  facet normal 6.087614e-01 -7.933533e-01 1.862325e-15
    outer loop
      vertex 5.762563e+00 2.775486e+01 4.000000e+00
      vertex 6.125000e+00 2.803297e+01 0.000000e+00
      vertex 6.125000e+00 2.803297e+01 4.000000e+00
    endloop
  endfacet
  facet normal 6.087614e-01 -7.933533e-01 1.862325e-15
    outer loop
      vertex 6.125000e+00 2.803297e+01 0.000000e+00
      vertex 5.762563e+00 2.775486e+01 4.000000e+00
      vertex 5.762563e+00 2.775486e+01 0.000000e+00
    endloop
  endfacet
  facet normal -1.305262e-01 -9.914449e-01 1.613207e-15
    outer loop
      vertex 7.000000e+00 2.826742e+01 4.000000e+00
      vertex 7.452933e+00 2.820779e+01 0.000000e+00
      vertex 7.452933e+00 2.820779e+01 4.000000e+00
    endloop
  endfacet
  facet normal -1.305262e-01 -9.914449e-01 1.613207e-15
    outer loop
      vertex 7.452933e+00 2.820779e+01 0.000000e+00
      vertex 7.000000e+00 2.826742e+01 4.000000e+00
      vertex 7.000000e+00 2.826742e+01 0.000000e+00
    endloop
  endfacet
  facet normal 3.826834e-01 -9.238795e-01 1.503799e-15
    outer loop
      vertex 6.125000e+00 2.803297e+01 4.000000e+00
      vertex 6.547067e+00 2.820779e+01 0.000000e+00
      vertex 6.547067e+00 2.820779e+01 4.000000e+00
    endloop
  endfacet
  facet normal 3.826834e-01 -9.238795e-01 1.503799e-15
    outer loop
      vertex 6.547067e+00 2.820779e+01 0.000000e+00
      vertex 6.125000e+00 2.803297e+01 4.000000e+00
      vertex 6.125000e+00 2.803297e+01 0.000000e+00
    endloop
  endfacet
  facet normal 1.305262e-01 -9.914449e-01 1.613207e-15
    outer loop
      vertex 6.547067e+00 2.820779e+01 4.000000e+00
      vertex 7.000000e+00 2.826742e+01 0.000000e+00
      vertex 7.000000e+00 2.826742e+01 4.000000e+00
    endloop
  endfacet
  facet normal 1.305262e-01 -9.914449e-01 1.613207e-15
    outer loop
      vertex 7.000000e+00 2.826742e+01 0.000000e+00
      vertex 6.547067e+00 2.820779e+01 4.000000e+00
      vertex 6.547067e+00 2.820779e+01 0.000000e+00
    endloop
  endfacet
  facet normal -3.826834e-01 -9.238795e-01 1.503799e-15
    outer loop
      vertex 7.452933e+00 2.820779e+01 4.000000e+00
      vertex 7.875000e+00 2.803297e+01 0.000000e+00
      vertex 7.875000e+00 2.803297e+01 4.000000e+00
    endloop
  endfacet
  facet normal -3.826834e-01 -9.238795e-01 1.503799e-15
    outer loop
      vertex 7.875000e+00 2.803297e+01 0.000000e+00
      vertex 7.452933e+00 2.820779e+01 4.000000e+00
      vertex 7.452933e+00 2.820779e+01 0.000000e+00
    endloop
  endfacet
  facet normal -9.238795e-01 -3.826834e-01 1.177244e-15
    outer loop
      vertex 8.690371e+00 2.697036e+01 4.000000e+00
      vertex 8.515545e+00 2.739242e+01 0.000000e+00
      vertex 8.690371e+00 2.697036e+01 0.000000e+00
    endloop
  endfacet
  facet normal -9.238795e-01 -3.826834e-01 1.177244e-15
    outer loop
      vertex 8.515545e+00 2.739242e+01 0.000000e+00
      vertex 8.690371e+00 2.697036e+01 4.000000e+00
      vertex 8.515545e+00 2.739242e+01 4.000000e+00
    endloop
  endfacet
  facet normal -9.914449e-01 -1.305262e-01 3.069968e-16
    outer loop
      vertex 8.750000e+00 2.651742e+01 4.000000e+00
      vertex 8.690371e+00 2.697036e+01 0.000000e+00
      vertex 8.750000e+00 2.651742e+01 0.000000e+00
    endloop
  endfacet
  facet normal -9.914449e-01 -1.305262e-01 3.069968e-16
    outer loop
      vertex 8.690371e+00 2.697036e+01 0.000000e+00
      vertex 8.750000e+00 2.651742e+01 4.000000e+00
      vertex 8.690371e+00 2.697036e+01 4.000000e+00
    endloop
  endfacet
  facet normal -9.914449e-01 1.305262e-01 -2.124575e-16
    outer loop
      vertex 8.690371e+00 2.606449e+01 4.000000e+00
      vertex 8.750000e+00 2.651742e+01 0.000000e+00
      vertex 8.690371e+00 2.606449e+01 0.000000e+00
    endloop
  endfacet
  facet normal -9.914449e-01 1.305262e-01 -2.124575e-16
    outer loop
      vertex 8.750000e+00 2.651742e+01 0.000000e+00
      vertex 8.690371e+00 2.606449e+01 4.000000e+00
      vertex 8.750000e+00 2.651742e+01 4.000000e+00
    endloop
  endfacet
  facet normal -7.933533e-01 6.087614e-01 -9.908812e-16
    outer loop
      vertex 8.237437e+00 2.527999e+01 4.000000e+00
      vertex 8.515545e+00 2.564242e+01 0.000000e+00
      vertex 8.237437e+00 2.527999e+01 0.000000e+00
    endloop
  endfacet
  facet normal -7.933533e-01 6.087614e-01 -9.908812e-16
    outer loop
      vertex 8.515545e+00 2.564242e+01 0.000000e+00
      vertex 8.237437e+00 2.527999e+01 4.000000e+00
      vertex 8.515545e+00 2.564242e+01 4.000000e+00
    endloop
  endfacet
  facet normal -6.087614e-01 7.933533e-01 -1.291342e-15
    outer loop
      vertex 7.875000e+00 2.500188e+01 0.000000e+00
      vertex 8.237437e+00 2.527999e+01 4.000000e+00
      vertex 8.237437e+00 2.527999e+01 0.000000e+00
    endloop
  endfacet
  facet normal -6.087614e-01 7.933533e-01 -1.291342e-15
    outer loop
      vertex 8.237437e+00 2.527999e+01 4.000000e+00
      vertex 7.875000e+00 2.500188e+01 0.000000e+00
      vertex 7.875000e+00 2.500188e+01 4.000000e+00
    endloop
  endfacet
  facet normal -3.826834e-01 9.238795e-01 -1.503799e-15
    outer loop
      vertex 7.452933e+00 2.482705e+01 0.000000e+00
      vertex 7.875000e+00 2.500188e+01 4.000000e+00
      vertex 7.875000e+00 2.500188e+01 0.000000e+00
    endloop
  endfacet
  facet normal -3.826834e-01 9.238795e-01 -1.503799e-15
    outer loop
      vertex 7.875000e+00 2.500188e+01 4.000000e+00
      vertex 7.452933e+00 2.482705e+01 0.000000e+00
      vertex 7.452933e+00 2.482705e+01 4.000000e+00
    endloop
  endfacet
  facet normal -7.933533e-01 -6.087614e-01 1.867144e-15
    outer loop
      vertex 8.515545e+00 2.739242e+01 4.000000e+00
      vertex 8.237437e+00 2.775486e+01 0.000000e+00
      vertex 8.515545e+00 2.739242e+01 0.000000e+00
    endloop
  endfacet
  facet normal -7.933533e-01 -6.087614e-01 1.867144e-15
    outer loop
      vertex 8.237437e+00 2.775486e+01 0.000000e+00
      vertex 8.515545e+00 2.739242e+01 4.000000e+00
      vertex 8.237437e+00 2.775486e+01 4.000000e+00
    endloop
  endfacet
  facet normal -9.238795e-01 3.826834e-01 -6.228939e-16
    outer loop
      vertex 8.515545e+00 2.564242e+01 4.000000e+00
      vertex 8.690371e+00 2.606449e+01 0.000000e+00
      vertex 8.515545e+00 2.564242e+01 0.000000e+00
    endloop
  endfacet
  facet normal -9.238795e-01 3.826834e-01 -6.228939e-16
    outer loop
      vertex 8.690371e+00 2.606449e+01 0.000000e+00
      vertex 8.515545e+00 2.564242e+01 4.000000e+00
      vertex 8.690371e+00 2.606449e+01 4.000000e+00
    endloop
  endfacet
  facet normal -6.087614e-01 -7.933533e-01 1.862325e-15
    outer loop
      vertex 7.875000e+00 2.803297e+01 4.000000e+00
      vertex 8.237437e+00 2.775486e+01 0.000000e+00
      vertex 8.237437e+00 2.775486e+01 4.000000e+00
    endloop
  endfacet
  facet normal -6.087614e-01 -7.933533e-01 1.862325e-15
    outer loop
      vertex 8.237437e+00 2.775486e+01 0.000000e+00
      vertex 7.875000e+00 2.803297e+01 4.000000e+00
      vertex 7.875000e+00 2.803297e+01 0.000000e+00
    endloop
  endfacet
  facet normal 9.914448e-01 9.998886e-02 8.390061e-02
    outer loop
      vertex -1.000000e+01 -6.512282e+00 4.000000e+00
      vertex -9.659258e+00 -6.534527e+00 7.105427e-15
      vertex -1.000000e+01 -3.155884e+00 7.105427e-15
    endloop
  endfacet
  facet normal 9.914448e-01 9.998886e-02 8.390061e-02
    outer loop
      vertex -9.659258e+00 -6.534527e+00 7.105427e-15
      vertex -1.000000e+01 -6.512282e+00 4.000000e+00
      vertex -9.659258e+00 -2.354151e+01 2.026814e+01
    endloop
  endfacet
  facet normal 9.914448e-01 9.998886e-02 8.390061e-02
    outer loop
      vertex -9.659258e+00 -2.354151e+01 2.026814e+01
      vertex -1.000000e+01 -6.512282e+00 4.000000e+00
      vertex -1.000000e+01 -2.155884e+01 2.193179e+01
    endloop
  endfacet
  facet normal -9.914448e-01 9.998886e-02 8.390061e-02
    outer loop
      vertex 9.659258e+00 -2.354151e+01 2.026814e+01
      vertex 1.000000e+01 -3.155884e+00 7.105427e-15
      vertex 9.659258e+00 -6.534527e+00 7.105427e-15
    endloop
  endfacet
  facet normal -9.914448e-01 9.998886e-02 8.390061e-02
    outer loop
      vertex 1.000000e+01 -3.155884e+00 7.105427e-15
      vertex 9.659258e+00 -2.354151e+01 2.026814e+01
      vertex 1.000000e+01 -6.512282e+00 4.000000e+00
    endloop
  endfacet
  facet normal -9.914448e-01 9.998886e-02 8.390061e-02
    outer loop
      vertex 1.000000e+01 -6.512282e+00 4.000000e+00
      vertex 9.659258e+00 -2.354151e+01 2.026814e+01
      vertex 1.000000e+01 -2.155884e+01 2.193179e+01
    endloop
  endfacet
  facet normal -3.826834e-01 7.077328e-01 5.938583e-01
    outer loop
      vertex 2.588191e+00 -1.576515e+01 7.105427e-15
      vertex 5.000000e+00 -2.819298e+01 1.636509e+01
      vertex 5.000000e+00 -1.446104e+01 7.105427e-15
    endloop
  endfacet
  facet normal -3.826834e-01 7.077328e-01 5.938583e-01
    outer loop
      vertex 5.000000e+00 -2.819298e+01 1.636509e+01
      vertex 2.588191e+00 -1.576515e+01 7.105427e-15
      vertex 2.588191e+00 -2.895827e+01 1.572294e+01
    endloop
  endfacet
  facet normal -1.687934e-16 7.660444e-01 6.427876e-01
    outer loop
      vertex 1.000000e+01 -6.512282e+00 4.000000e+00
      vertex 1.700000e+01 -9.726221e+00 7.830223e+00
      vertex 1.700000e+01 -6.512282e+00 4.000000e+00
    endloop
  endfacet
  facet normal -1.687934e-16 7.660444e-01 6.427876e-01
    outer loop
      vertex 1.700000e+01 -9.726221e+00 7.830223e+00
      vertex 1.000000e+01 -6.512282e+00 4.000000e+00
      vertex 1.700000e+01 -1.513097e+01 1.427135e+01
    endloop
  endfacet
  facet normal -1.687934e-16 7.660444e-01 6.427876e-01
    outer loop
      vertex 1.700000e+01 -1.513097e+01 1.427135e+01
      vertex 1.000000e+01 -6.512282e+00 4.000000e+00
      vertex 1.700000e+01 -1.834491e+01 1.810157e+01
    endloop
  endfacet
  facet normal -1.687934e-16 7.660444e-01 6.427876e-01
    outer loop
      vertex 1.700000e+01 -1.834491e+01 1.810157e+01
      vertex 2.000000e+01 -2.155884e+01 2.193179e+01
      vertex 2.000000e+01 -1.834491e+01 1.810157e+01
    endloop
  endfacet
  facet normal -1.687934e-16 7.660444e-01 6.427876e-01
    outer loop
      vertex 2.000000e+01 -2.155884e+01 2.193179e+01
      vertex 1.700000e+01 -1.834491e+01 1.810157e+01
      vertex 1.000000e+01 -2.155884e+01 2.193179e+01
    endloop
  endfacet
  facet normal -1.687934e-16 7.660444e-01 6.427876e-01
    outer loop
      vertex 1.000000e+01 -2.155884e+01 2.193179e+01
      vertex 1.700000e+01 -1.834491e+01 1.810157e+01
      vertex 1.000000e+01 -6.512282e+00 4.000000e+00
    endloop
  endfacet
  facet normal -1.687934e-16 7.660444e-01 6.427876e-01
    outer loop
      vertex 1.700000e+01 -9.726221e+00 7.830223e+00
      vertex 2.000000e+01 -1.513097e+01 1.427135e+01
      vertex 2.000000e+01 -9.726221e+00 7.830223e+00
    endloop
  endfacet
  facet normal -1.687934e-16 7.660444e-01 6.427876e-01
    outer loop
      vertex 2.000000e+01 -1.513097e+01 1.427135e+01
      vertex 1.700000e+01 -9.726221e+00 7.830223e+00
      vertex 1.700000e+01 -1.513097e+01 1.427135e+01
    endloop
  endfacet
  facet normal -7.933533e-01 4.663383e-01 3.913043e-01
    outer loop
      vertex 7.071068e+00 -2.697560e+01 1.738660e+01
      vertex 8.660254e+00 -9.682920e+00 7.105427e-15
      vertex 7.071068e+00 -1.238651e+01 7.105427e-15
    endloop
  endfacet
  facet normal -7.933533e-01 4.663383e-01 3.913043e-01
    outer loop
      vertex 8.660254e+00 -9.682920e+00 7.105427e-15
      vertex 7.071068e+00 -2.697560e+01 1.738660e+01
      vertex 8.660254e+00 -2.538907e+01 1.871786e+01
    endloop
  endfacet
  facet normal 1.305262e-01 7.594908e-01 6.372885e-01
    outer loop
      vertex -2.588191e+00 -1.576515e+01 7.105427e-15
      vertex 3.215076e-14 -2.921929e+01 1.550392e+01
      vertex 5.365874e-14 -1.620996e+01 7.105427e-15
    endloop
  endfacet
  facet normal 1.305262e-01 7.594908e-01 6.372885e-01
    outer loop
      vertex 3.215076e-14 -2.921929e+01 1.550392e+01
      vertex -2.588191e+00 -1.576515e+01 7.105427e-15
      vertex -2.588191e+00 -2.895827e+01 1.572294e+01
    endloop
  endfacet
  facet normal -6.087614e-01 6.077439e-01 5.099577e-01
    outer loop
      vertex 5.000000e+00 -2.819298e+01 1.636509e+01
      vertex 7.071068e+00 -1.238651e+01 7.105427e-15
      vertex 5.000000e+00 -1.446104e+01 7.105427e-15
    endloop
  endfacet
  facet normal -6.087614e-01 6.077439e-01 5.099577e-01
    outer loop
      vertex 7.071068e+00 -1.238651e+01 7.105427e-15
      vertex 5.000000e+00 -2.819298e+01 1.636509e+01
      vertex 7.071068e+00 -2.697560e+01 1.738660e+01
    endloop
  endfacet
  facet normal -1.305262e-01 7.594908e-01 6.372885e-01
    outer loop
      vertex 5.365874e-14 -1.620996e+01 7.105427e-15
      vertex 2.588191e+00 -2.895827e+01 1.572294e+01
      vertex 2.588191e+00 -1.576515e+01 7.105427e-15
    endloop
  endfacet
  facet normal -1.305262e-01 7.594908e-01 6.372885e-01
    outer loop
      vertex 2.588191e+00 -2.895827e+01 1.572294e+01
      vertex 5.365874e-14 -1.620996e+01 7.105427e-15
      vertex 3.215076e-14 -2.921929e+01 1.550392e+01
    endloop
  endfacet
  facet normal 3.826834e-01 7.077328e-01 5.938583e-01
    outer loop
      vertex -5.000000e+00 -1.446104e+01 7.105427e-15
      vertex -2.588191e+00 -2.895827e+01 1.572294e+01
      vertex -2.588191e+00 -1.576515e+01 7.105427e-15
    endloop
  endfacet
  facet normal 3.826834e-01 7.077328e-01 5.938583e-01
    outer loop
      vertex -2.588191e+00 -2.895827e+01 1.572294e+01
      vertex -5.000000e+00 -1.446104e+01 7.105427e-15
      vertex -5.000000e+00 -2.819298e+01 1.636509e+01
    endloop
  endfacet
  facet normal 7.098536e-17 -6.427876e-01 7.660444e-01
    outer loop
      vertex 2.000000e+01 -2.155884e+01 2.193179e+01
      vertex 1.260504e+01 -2.385698e+01 2.000343e+01
      vertex 2.000000e+01 -2.385698e+01 2.000343e+01
    endloop
  endfacet
  facet normal 7.098536e-17 -6.427876e-01 7.660444e-01
    outer loop
      vertex 1.260504e+01 -2.385698e+01 2.000343e+01
      vertex 2.000000e+01 -2.155884e+01 2.193179e+01
      vertex 9.488681e+00 -2.385698e+01 2.000343e+01
    endloop
  endfacet
  facet normal 7.098536e-17 -6.427876e-01 7.660444e-01
    outer loop
      vertex 9.488681e+00 -2.385698e+01 2.000343e+01
      vertex 2.000000e+01 -2.155884e+01 2.193179e+01
      vertex 9.659258e+00 -2.354151e+01 2.026814e+01
    endloop
  endfacet
  facet normal 7.098536e-17 -6.427876e-01 7.660444e-01
    outer loop
      vertex 9.659258e+00 -2.354151e+01 2.026814e+01
      vertex 2.000000e+01 -2.155884e+01 2.193179e+01
      vertex 1.000000e+01 -2.155884e+01 2.193179e+01
    endloop
  endfacet
  facet normal 7.098536e-17 -6.427876e-01 7.660444e-01
    outer loop
      vertex 9.192389e+00 -2.860062e+01 1.602304e+01
      vertex 3.215076e-14 -2.921929e+01 1.550392e+01
      vertex 6.500000e+00 -3.018323e+01 1.469508e+01
    endloop
  endfacet
  facet normal 7.098536e-17 -6.427876e-01 7.660444e-01
    outer loop
      vertex 3.215076e-14 -2.921929e+01 1.550392e+01
      vertex 9.192389e+00 -2.860062e+01 1.602304e+01
      vertex 2.588191e+00 -2.895827e+01 1.572294e+01
    endloop
  endfacet
  facet normal 7.098536e-17 -6.427876e-01 7.660444e-01
    outer loop
      vertex 2.588191e+00 -2.895827e+01 1.572294e+01
      vertex 9.192389e+00 -2.860062e+01 1.602304e+01
      vertex 5.000000e+00 -2.819298e+01 1.636509e+01
    endloop
  endfacet
  facet normal 7.098536e-17 -6.427876e-01 7.660444e-01
    outer loop
      vertex 5.000000e+00 -2.819298e+01 1.636509e+01
      vertex 9.192389e+00 -2.860062e+01 1.602304e+01
      vertex 1.125833e+01 -2.653813e+01 1.775367e+01
    endloop
  endfacet
  facet normal 7.098536e-17 -6.427876e-01 7.660444e-01
    outer loop
      vertex 5.000000e+00 -2.819298e+01 1.636509e+01
      vertex 1.125833e+01 -2.653813e+01 1.775367e+01
      vertex 7.071068e+00 -2.697560e+01 1.738660e+01
    endloop
  endfacet
  facet normal 7.098536e-17 -6.427876e-01 7.660444e-01
    outer loop
      vertex 7.071068e+00 -2.697560e+01 1.738660e+01
      vertex 1.125833e+01 -2.653813e+01 1.775367e+01
      vertex 8.660254e+00 -2.538907e+01 1.871786e+01
    endloop
  endfacet
  facet normal 7.098536e-17 -6.427876e-01 7.660444e-01
    outer loop
      vertex 8.660254e+00 -2.538907e+01 1.871786e+01
      vertex 1.125833e+01 -2.653813e+01 1.775367e+01
      vertex 1.255704e+01 -2.413631e+01 1.976904e+01
    endloop
  endfacet
  facet normal 7.098536e-17 -6.427876e-01 7.660444e-01
    outer loop
      vertex 8.660254e+00 -2.538907e+01 1.871786e+01
      vertex 1.255704e+01 -2.413631e+01 1.976904e+01
      vertex 9.488681e+00 -2.385698e+01 2.000343e+01
    endloop
  endfacet
  facet normal 7.098536e-17 -6.427876e-01 7.660444e-01
    outer loop
      vertex 9.488681e+00 -2.385698e+01 2.000343e+01
      vertex 1.255704e+01 -2.413631e+01 1.976904e+01
      vertex 1.260504e+01 -2.385698e+01 2.000343e+01
    endloop
  endfacet
  facet normal 7.098536e-17 -6.427876e-01 7.660444e-01
    outer loop
      vertex 3.364648e+00 -3.117809e+01 1.386029e+01
      vertex -3.364648e+00 -3.117809e+01 1.386029e+01
      vertex 3.243220e-14 -3.151742e+01 1.357555e+01
    endloop
  endfacet
  facet normal 7.098536e-17 -6.427876e-01 7.660444e-01
    outer loop
      vertex -3.364648e+00 -3.117809e+01 1.386029e+01
      vertex 3.364648e+00 -3.117809e+01 1.386029e+01
      vertex 6.500000e+00 -3.018323e+01 1.469508e+01
    endloop
  endfacet
  facet normal 7.098536e-17 -6.427876e-01 7.660444e-01
    outer loop
      vertex -3.364648e+00 -3.117809e+01 1.386029e+01
      vertex 6.500000e+00 -3.018323e+01 1.469508e+01
      vertex -6.500000e+00 -3.018323e+01 1.469508e+01
    endloop
  endfacet
  facet normal 7.098536e-17 -6.427876e-01 7.660444e-01
    outer loop
      vertex -6.500000e+00 -3.018323e+01 1.469508e+01
      vertex 6.500000e+00 -3.018323e+01 1.469508e+01
      vertex -9.192389e+00 -2.860062e+01 1.602304e+01
    endloop
  endfacet
  facet normal 7.098536e-17 -6.427876e-01 7.660444e-01
    outer loop
      vertex -9.192389e+00 -2.860062e+01 1.602304e+01
      vertex 6.500000e+00 -3.018323e+01 1.469508e+01
      vertex 3.215076e-14 -2.921929e+01 1.550392e+01
    endloop
  endfacet
  facet normal 7.098536e-17 -6.427876e-01 7.660444e-01
    outer loop
      vertex -9.192389e+00 -2.860062e+01 1.602304e+01
      vertex 3.215076e-14 -2.921929e+01 1.550392e+01
      vertex -2.588191e+00 -2.895827e+01 1.572294e+01
    endloop
  endfacet
  facet normal 7.098536e-17 -6.427876e-01 7.660444e-01
    outer loop
      vertex -9.192389e+00 -2.860062e+01 1.602304e+01
      vertex -2.588191e+00 -2.895827e+01 1.572294e+01
      vertex -5.000000e+00 -2.819298e+01 1.636509e+01
    endloop
  endfacet
  facet normal 7.098536e-17 -6.427876e-01 7.660444e-01
    outer loop
      vertex -9.192389e+00 -2.860062e+01 1.602304e+01
      vertex -5.000000e+00 -2.819298e+01 1.636509e+01
      vertex -1.125833e+01 -2.653813e+01 1.775367e+01
    endloop
  endfacet
  facet normal 7.098536e-17 -6.427876e-01 7.660444e-01
    outer loop
      vertex -1.125833e+01 -2.653813e+01 1.775367e+01
      vertex -5.000000e+00 -2.819298e+01 1.636509e+01
      vertex -7.071068e+00 -2.697560e+01 1.738660e+01
    endloop
  endfacet
  facet normal 7.098536e-17 -6.427876e-01 7.660444e-01
    outer loop
      vertex -1.125833e+01 -2.653813e+01 1.775367e+01
      vertex -7.071068e+00 -2.697560e+01 1.738660e+01
      vertex -8.660254e+00 -2.538907e+01 1.871786e+01
    endloop
  endfacet
  facet normal 7.098536e-17 -6.427876e-01 7.660444e-01
    outer loop
      vertex -1.125833e+01 -2.653813e+01 1.775367e+01
      vertex -8.660254e+00 -2.538907e+01 1.871786e+01
      vertex -1.255704e+01 -2.413631e+01 1.976904e+01
    endloop
  endfacet
  facet normal 7.098536e-17 -6.427876e-01 7.660444e-01
    outer loop
      vertex -1.255704e+01 -2.413631e+01 1.976904e+01
      vertex -8.660254e+00 -2.538907e+01 1.871786e+01
      vertex -9.488681e+00 -2.385698e+01 2.000343e+01
    endloop
  endfacet
  facet normal 7.098536e-17 -6.427876e-01 7.660444e-01
    outer loop
      vertex -1.255704e+01 -2.413631e+01 1.976904e+01
      vertex -9.488681e+00 -2.385698e+01 2.000343e+01
      vertex -1.260504e+01 -2.385698e+01 2.000343e+01
    endloop
  endfacet
  facet normal 7.098536e-17 -6.427876e-01 7.660444e-01
    outer loop
      vertex -1.260504e+01 -2.385698e+01 2.000343e+01
      vertex -9.488681e+00 -2.385698e+01 2.000343e+01
      vertex -9.659258e+00 -2.354151e+01 2.026814e+01
    endloop
  endfacet
  facet normal 7.098536e-17 -6.427876e-01 7.660444e-01
    outer loop
      vertex -1.260504e+01 -2.385698e+01 2.000343e+01
      vertex -9.659258e+00 -2.354151e+01 2.026814e+01
      vertex -2.000000e+01 -2.385698e+01 2.000343e+01
    endloop
  endfacet
  facet normal 7.098536e-17 -6.427876e-01 7.660444e-01
    outer loop
      vertex -2.000000e+01 -2.385698e+01 2.000343e+01
      vertex -9.659258e+00 -2.354151e+01 2.026814e+01
      vertex -2.000000e+01 -2.155884e+01 2.193179e+01
    endloop
  endfacet
  facet normal 7.098536e-17 -6.427876e-01 7.660444e-01
    outer loop
      vertex -2.000000e+01 -2.155884e+01 2.193179e+01
      vertex -9.659258e+00 -2.354151e+01 2.026814e+01
      vertex -1.000000e+01 -2.155884e+01 2.193179e+01
    endloop
  endfacet
  facet normal -9.238795e-01 2.931525e-01 2.459842e-01
    outer loop
      vertex 8.660254e+00 -9.682920e+00 7.105427e-15
      vertex 9.659258e+00 -2.354151e+01 2.026814e+01
      vertex 9.659258e+00 -6.534527e+00 7.105427e-15
    endloop
  endfacet
  facet normal -9.238795e-01 2.931525e-01 2.459842e-01
    outer loop
      vertex 9.659258e+00 -2.354151e+01 2.026814e+01
      vertex 8.660254e+00 -9.682920e+00 7.105427e-15
      vertex 8.660254e+00 -2.538907e+01 1.871786e+01
    endloop
  endfacet
  facet normal -9.238795e-01 2.931525e-01 2.459842e-01
    outer loop
      vertex 9.659258e+00 -2.354151e+01 2.026814e+01
      vertex 8.660254e+00 -2.538907e+01 1.871786e+01
      vertex 9.488681e+00 -2.385698e+01 2.000343e+01
    endloop
  endfacet
  facet normal 9.238795e-01 2.931525e-01 2.459842e-01
    outer loop
      vertex -9.659258e+00 -2.354151e+01 2.026814e+01
      vertex -8.660254e+00 -9.682920e+00 7.105427e-15
      vertex -9.659258e+00 -6.534527e+00 7.105427e-15
    endloop
  endfacet
  facet normal 9.238795e-01 2.931525e-01 2.459842e-01
    outer loop
      vertex -8.660254e+00 -9.682920e+00 7.105427e-15
      vertex -9.659258e+00 -2.354151e+01 2.026814e+01
      vertex -8.660254e+00 -2.538907e+01 1.871786e+01
    endloop
  endfacet
  facet normal 9.238795e-01 2.931525e-01 2.459842e-01
    outer loop
      vertex -8.660254e+00 -2.538907e+01 1.871786e+01
      vertex -9.659258e+00 -2.354151e+01 2.026814e+01
      vertex -9.488681e+00 -2.385698e+01 2.000343e+01
    endloop
  endfacet
  facet normal 6.752331e-17 7.660444e-01 6.427876e-01
    outer loop
      vertex -2.000000e+01 -9.726221e+00 7.830223e+00
      vertex -1.700000e+01 -1.513097e+01 1.427135e+01
      vertex -1.700000e+01 -9.726221e+00 7.830223e+00
    endloop
  endfacet
  facet normal 6.752331e-17 7.660444e-01 6.427876e-01
    outer loop
      vertex -1.700000e+01 -1.513097e+01 1.427135e+01
      vertex -2.000000e+01 -9.726221e+00 7.830223e+00
      vertex -2.000000e+01 -1.513097e+01 1.427135e+01
    endloop
  endfacet
  facet normal 6.752331e-17 7.660444e-01 6.427876e-01
    outer loop
      vertex -1.700000e+01 -6.512282e+00 4.000000e+00
      vertex -1.000000e+01 -2.155884e+01 2.193179e+01
      vertex -1.000000e+01 -6.512282e+00 4.000000e+00
    endloop
  endfacet
  facet normal 6.752331e-17 7.660444e-01 6.427876e-01
    outer loop
      vertex -1.000000e+01 -2.155884e+01 2.193179e+01
      vertex -1.700000e+01 -6.512282e+00 4.000000e+00
      vertex -1.700000e+01 -1.834491e+01 1.810157e+01
    endloop
  endfacet
  facet normal 6.752331e-17 7.660444e-01 6.427876e-01
    outer loop
      vertex -1.000000e+01 -2.155884e+01 2.193179e+01
      vertex -1.700000e+01 -1.834491e+01 1.810157e+01
      vertex -2.000000e+01 -2.155884e+01 2.193179e+01
    endloop
  endfacet
  facet normal 6.752331e-17 7.660444e-01 6.427876e-01
    outer loop
      vertex -1.700000e+01 -1.834491e+01 1.810157e+01
      vertex -1.700000e+01 -6.512282e+00 4.000000e+00
      vertex -1.700000e+01 -9.726221e+00 7.830223e+00
    endloop
  endfacet
  facet normal 6.752331e-17 7.660444e-01 6.427876e-01
    outer loop
      vertex -1.700000e+01 -1.834491e+01 1.810157e+01
      vertex -1.700000e+01 -9.726221e+00 7.830223e+00
      vertex -1.700000e+01 -1.513097e+01 1.427135e+01
    endloop
  endfacet
  facet normal 6.752331e-17 7.660444e-01 6.427876e-01
    outer loop
      vertex -2.000000e+01 -2.155884e+01 2.193179e+01
      vertex -1.700000e+01 -1.834491e+01 1.810157e+01
      vertex -2.000000e+01 -1.834491e+01 1.810157e+01
    endloop
  endfacet
  facet normal 6.087614e-01 6.077439e-01 5.099577e-01
    outer loop
      vertex -7.071068e+00 -2.697560e+01 1.738660e+01
      vertex -5.000000e+00 -1.446104e+01 7.105427e-15
      vertex -7.071068e+00 -1.238651e+01 7.105427e-15
    endloop
  endfacet
  facet normal 6.087614e-01 6.077439e-01 5.099577e-01
    outer loop
      vertex -5.000000e+00 -1.446104e+01 7.105427e-15
      vertex -7.071068e+00 -2.697560e+01 1.738660e+01
      vertex -5.000000e+00 -2.819298e+01 1.636509e+01
    endloop
  endfacet
  facet normal -3.576445e-16 -1.244019e-15 -1.000000e+00
    outer loop
      vertex -2.000000e+01 3.151742e+01 0.000000e+00
      vertex -1.260504e+01 -7.072106e+00 7.105427e-15
      vertex -2.000000e+01 -7.072106e+00 7.105427e-15
    endloop
  endfacet
  facet normal -3.576445e-16 -1.244019e-15 -1.000000e+00
    outer loop
      vertex -1.260504e+01 -7.072106e+00 7.105427e-15
      vertex -2.000000e+01 3.151742e+01 0.000000e+00
      vertex -9.659258e+00 -6.534527e+00 7.105427e-15
    endloop
  endfacet
  facet normal -3.576445e-16 -1.244019e-15 -1.000000e+00
    outer loop
      vertex -9.659258e+00 -6.534527e+00 7.105427e-15
      vertex -2.000000e+01 3.151742e+01 0.000000e+00
      vertex -1.000000e+01 -3.155884e+00 7.105427e-15
    endloop
  endfacet
  facet normal -3.576445e-16 -1.244019e-15 -1.000000e+00
    outer loop
      vertex -1.000000e+01 -3.155884e+00 7.105427e-15
      vertex -2.000000e+01 3.151742e+01 0.000000e+00
      vertex -1.000000e+01 2.151742e+01 0.000000e+00
    endloop
  endfacet
  facet normal -3.576445e-16 -1.244019e-15 -1.000000e+00
    outer loop
      vertex -1.000000e+01 2.151742e+01 0.000000e+00
      vertex -2.000000e+01 3.151742e+01 0.000000e+00
      vertex -7.875000e+00 2.500188e+01 0.000000e+00
    endloop
  endfacet
  facet normal -3.576445e-16 -1.244019e-15 -1.000000e+00
    outer loop
      vertex -1.000000e+01 2.151742e+01 0.000000e+00
      vertex -7.875000e+00 2.500188e+01 0.000000e+00
      vertex -7.452933e+00 2.482705e+01 0.000000e+00
    endloop
  endfacet
  facet normal -3.576445e-16 -1.244019e-15 -1.000000e+00
    outer loop
      vertex -1.000000e+01 2.151742e+01 0.000000e+00
      vertex -7.452933e+00 2.482705e+01 0.000000e+00
      vertex 1.000000e+01 2.151742e+01 0.000000e+00
    endloop
  endfacet
  facet normal -3.576445e-16 -1.244019e-15 -1.000000e+00
    outer loop
      vertex 1.000000e+01 2.151742e+01 0.000000e+00
      vertex -7.452933e+00 2.482705e+01 0.000000e+00
      vertex -7.000000e+00 2.476742e+01 0.000000e+00
    endloop
  endfacet
  facet normal -3.576445e-16 -1.244019e-15 -1.000000e+00
    outer loop
      vertex -7.875000e+00 2.500188e+01 0.000000e+00
      vertex -2.000000e+01 3.151742e+01 0.000000e+00
      vertex -8.237437e+00 2.527999e+01 0.000000e+00
    endloop
  endfacet
  facet normal -3.576445e-16 -1.244019e-15 -1.000000e+00
    outer loop
      vertex -8.237437e+00 2.527999e+01 0.000000e+00
      vertex -2.000000e+01 3.151742e+01 0.000000e+00
      vertex -8.515545e+00 2.564242e+01 0.000000e+00
    endloop
  endfacet
  facet normal -3.576445e-16 -1.244019e-15 -1.000000e+00
    outer loop
      vertex -8.515545e+00 2.564242e+01 0.000000e+00
      vertex -2.000000e+01 3.151742e+01 0.000000e+00
      vertex -8.690371e+00 2.606449e+01 0.000000e+00
    endloop
  endfacet
  facet normal -3.576445e-16 -1.244019e-15 -1.000000e+00
    outer loop
      vertex -8.690371e+00 2.606449e+01 0.000000e+00
      vertex -2.000000e+01 3.151742e+01 0.000000e+00
      vertex -8.750000e+00 2.651742e+01 0.000000e+00
    endloop
  endfacet
  facet normal -3.576445e-16 -1.244019e-15 -1.000000e+00
    outer loop
      vertex -8.750000e+00 2.651742e+01 0.000000e+00
      vertex -2.000000e+01 3.151742e+01 0.000000e+00
      vertex -8.690371e+00 2.697036e+01 0.000000e+00
    endloop
  endfacet
  facet normal -3.576445e-16 -1.244019e-15 -1.000000e+00
    outer loop
      vertex -8.690371e+00 2.697036e+01 0.000000e+00
      vertex -2.000000e+01 3.151742e+01 0.000000e+00
      vertex -8.515545e+00 2.739242e+01 0.000000e+00
    endloop
  endfacet
  facet normal -3.576445e-16 -1.244019e-15 -1.000000e+00
    outer loop
      vertex -8.515545e+00 2.739242e+01 0.000000e+00
      vertex -2.000000e+01 3.151742e+01 0.000000e+00
      vertex -8.237437e+00 2.775486e+01 0.000000e+00
    endloop
  endfacet
  facet normal -3.576445e-16 -1.244019e-15 -1.000000e+00
    outer loop
      vertex -8.237437e+00 2.775486e+01 0.000000e+00
      vertex -2.000000e+01 3.151742e+01 0.000000e+00
      vertex -7.875000e+00 2.803297e+01 0.000000e+00
    endloop
  endfacet
  facet normal -3.576445e-16 -1.244019e-15 -1.000000e+00
    outer loop
      vertex -7.875000e+00 2.803297e+01 0.000000e+00
      vertex -2.000000e+01 3.151742e+01 0.000000e+00
      vertex -7.452933e+00 2.820779e+01 0.000000e+00
    endloop
  endfacet
  facet normal -3.576445e-16 -1.244019e-15 -1.000000e+00
    outer loop
      vertex -7.452933e+00 2.820779e+01 0.000000e+00
      vertex -2.000000e+01 3.151742e+01 0.000000e+00
      vertex -7.000000e+00 2.826742e+01 0.000000e+00
    endloop
  endfacet
  facet normal -3.576445e-16 -1.244019e-15 -1.000000e+00
    outer loop
      vertex -7.000000e+00 2.826742e+01 0.000000e+00
      vertex -2.000000e+01 3.151742e+01 0.000000e+00
      vertex 7.000000e+00 2.826742e+01 0.000000e+00
    endloop
  endfacet
  facet normal -3.576445e-16 -1.244019e-15 -1.000000e+00
    outer loop
      vertex 5.365874e-14 -1.620996e+01 7.105427e-15
      vertex 9.192389e+00 -1.515569e+01 7.105427e-15
      vertex 6.500000e+00 -1.785259e+01 7.105427e-15
    endloop
  endfacet
  facet normal -3.576445e-16 -1.244019e-15 -1.000000e+00
    outer loop
      vertex 9.192389e+00 -1.515569e+01 7.105427e-15
      vertex 5.365874e-14 -1.620996e+01 7.105427e-15
      vertex 2.588191e+00 -1.576515e+01 7.105427e-15
    endloop
  endfacet
  facet normal -3.576445e-16 -1.244019e-15 -1.000000e+00
    outer loop
      vertex 9.192389e+00 -1.515569e+01 7.105427e-15
      vertex 2.588191e+00 -1.576515e+01 7.105427e-15
      vertex 5.000000e+00 -1.446104e+01 7.105427e-15
    endloop
  endfacet
  facet normal -3.576445e-16 -1.244019e-15 -1.000000e+00
    outer loop
      vertex 9.192389e+00 -1.515569e+01 7.105427e-15
      vertex 5.000000e+00 -1.446104e+01 7.105427e-15
      vertex 1.125833e+01 -1.164103e+01 7.105427e-15
    endloop
  endfacet
  facet normal -3.576445e-16 -1.244019e-15 -1.000000e+00
    outer loop
      vertex 1.125833e+01 -1.164103e+01 7.105427e-15
      vertex 5.000000e+00 -1.446104e+01 7.105427e-15
      vertex 7.071068e+00 -1.238651e+01 7.105427e-15
    endloop
  endfacet
  facet normal -3.576445e-16 -1.244019e-15 -1.000000e+00
    outer loop
      vertex 1.125833e+01 -1.164103e+01 7.105427e-15
      vertex 7.071068e+00 -1.238651e+01 7.105427e-15
      vertex 8.660254e+00 -9.682920e+00 7.105427e-15
    endloop
  endfacet
  facet normal -3.576445e-16 -1.244019e-15 -1.000000e+00
    outer loop
      vertex 1.125833e+01 -1.164103e+01 7.105427e-15
      vertex 8.660254e+00 -9.682920e+00 7.105427e-15
      vertex 1.255704e+01 -7.548120e+00 7.105427e-15
    endloop
  endfacet
  facet normal -3.576445e-16 -1.244019e-15 -1.000000e+00
    outer loop
      vertex 1.255704e+01 -7.548120e+00 7.105427e-15
      vertex 8.660254e+00 -9.682920e+00 7.105427e-15
      vertex 9.659258e+00 -6.534527e+00 7.105427e-15
    endloop
  endfacet
  facet normal -3.576445e-16 -1.244019e-15 -1.000000e+00
    outer loop
      vertex 1.255704e+01 -7.548120e+00 7.105427e-15
      vertex 9.659258e+00 -6.534527e+00 7.105427e-15
      vertex 1.260504e+01 -7.072106e+00 7.105427e-15
    endloop
  endfacet
  facet normal -3.576445e-16 -1.244019e-15 -1.000000e+00
    outer loop
      vertex 1.260504e+01 -7.072106e+00 7.105427e-15
      vertex 9.659258e+00 -6.534527e+00 7.105427e-15
      vertex 2.000000e+01 -7.072106e+00 7.105427e-15
    endloop
  endfacet
  facet normal -3.576445e-16 -1.244019e-15 -1.000000e+00
    outer loop
      vertex 2.000000e+01 -7.072106e+00 7.105427e-15
      vertex 9.659258e+00 -6.534527e+00 7.105427e-15
      vertex 2.000000e+01 3.151742e+01 0.000000e+00
    endloop
  endfacet
  facet normal -3.576445e-16 -1.244019e-15 -1.000000e+00
    outer loop
      vertex 2.000000e+01 3.151742e+01 0.000000e+00
      vertex 9.659258e+00 -6.534527e+00 7.105427e-15
      vertex 1.000000e+01 -3.155884e+00 7.105427e-15
    endloop
  endfacet
  facet normal -3.576445e-16 -1.244019e-15 -1.000000e+00
    outer loop
      vertex 2.000000e+01 3.151742e+01 0.000000e+00
      vertex 1.000000e+01 -3.155884e+00 7.105427e-15
      vertex 1.000000e+01 2.151742e+01 0.000000e+00
    endloop
  endfacet
  facet normal -3.576445e-16 -1.244019e-15 -1.000000e+00
    outer loop
      vertex 2.000000e+01 3.151742e+01 0.000000e+00
      vertex 1.000000e+01 2.151742e+01 0.000000e+00
      vertex 7.875000e+00 2.500188e+01 0.000000e+00
    endloop
  endfacet
  facet normal -3.576445e-16 -1.244019e-15 -1.000000e+00
    outer loop
      vertex 7.875000e+00 2.500188e+01 0.000000e+00
      vertex 1.000000e+01 2.151742e+01 0.000000e+00
      vertex 7.452933e+00 2.482705e+01 0.000000e+00
    endloop
  endfacet
  facet normal -3.576445e-16 -1.244019e-15 -1.000000e+00
    outer loop
      vertex 7.452933e+00 2.482705e+01 0.000000e+00
      vertex 1.000000e+01 2.151742e+01 0.000000e+00
      vertex 7.000000e+00 2.476742e+01 0.000000e+00
    endloop
  endfacet
  facet normal -3.576445e-16 -1.244019e-15 -1.000000e+00
    outer loop
      vertex 7.000000e+00 2.476742e+01 0.000000e+00
      vertex 1.000000e+01 2.151742e+01 0.000000e+00
      vertex -7.000000e+00 2.476742e+01 0.000000e+00
    endloop
  endfacet
  facet normal -3.576445e-16 -1.244019e-15 -1.000000e+00
    outer loop
      vertex 2.000000e+01 3.151742e+01 0.000000e+00
      vertex 7.875000e+00 2.500188e+01 0.000000e+00
      vertex 8.237437e+00 2.527999e+01 0.000000e+00
    endloop
  endfacet
  facet normal -3.576445e-16 -1.244019e-15 -1.000000e+00
    outer loop
      vertex 2.000000e+01 3.151742e+01 0.000000e+00
      vertex 8.237437e+00 2.527999e+01 0.000000e+00
      vertex 8.515545e+00 2.564242e+01 0.000000e+00
    endloop
  endfacet
  facet normal -3.576445e-16 -1.244019e-15 -1.000000e+00
    outer loop
      vertex 2.000000e+01 3.151742e+01 0.000000e+00
      vertex 8.515545e+00 2.564242e+01 0.000000e+00
      vertex 8.690371e+00 2.606449e+01 0.000000e+00
    endloop
  endfacet
  facet normal -3.576445e-16 -1.244019e-15 -1.000000e+00
    outer loop
      vertex 2.000000e+01 3.151742e+01 0.000000e+00
      vertex 8.690371e+00 2.606449e+01 0.000000e+00
      vertex 8.750000e+00 2.651742e+01 0.000000e+00
    endloop
  endfacet
  facet normal -3.576445e-16 -1.244019e-15 -1.000000e+00
    outer loop
      vertex 2.000000e+01 3.151742e+01 0.000000e+00
      vertex 8.750000e+00 2.651742e+01 0.000000e+00
      vertex 8.690371e+00 2.697036e+01 0.000000e+00
    endloop
  endfacet
  facet normal -3.576445e-16 -1.244019e-15 -1.000000e+00
    outer loop
      vertex 2.000000e+01 3.151742e+01 0.000000e+00
      vertex 8.690371e+00 2.697036e+01 0.000000e+00
      vertex 8.515545e+00 2.739242e+01 0.000000e+00
    endloop
  endfacet
  facet normal -3.576445e-16 -1.244019e-15 -1.000000e+00
    outer loop
      vertex 2.000000e+01 3.151742e+01 0.000000e+00
      vertex 8.515545e+00 2.739242e+01 0.000000e+00
      vertex 8.237437e+00 2.775486e+01 0.000000e+00
    endloop
  endfacet
  facet normal -3.576445e-16 -1.244019e-15 -1.000000e+00
    outer loop
      vertex 2.000000e+01 3.151742e+01 0.000000e+00
      vertex 8.237437e+00 2.775486e+01 0.000000e+00
      vertex 7.875000e+00 2.803297e+01 0.000000e+00
    endloop
  endfacet
  facet normal -3.576445e-16 -1.244019e-15 -1.000000e+00
    outer loop
      vertex 2.000000e+01 3.151742e+01 0.000000e+00
      vertex 7.875000e+00 2.803297e+01 0.000000e+00
      vertex 7.452933e+00 2.820779e+01 0.000000e+00
    endloop
  endfacet
  facet normal -3.576445e-16 -1.244019e-15 -1.000000e+00
    outer loop
      vertex 2.000000e+01 3.151742e+01 0.000000e+00
      vertex 7.452933e+00 2.820779e+01 0.000000e+00
      vertex 7.000000e+00 2.826742e+01 0.000000e+00
    endloop
  endfacet
  facet normal -3.576445e-16 -1.244019e-15 -1.000000e+00
    outer loop
      vertex 2.000000e+01 3.151742e+01 0.000000e+00
      vertex 7.000000e+00 2.826742e+01 0.000000e+00
      vertex -2.000000e+01 3.151742e+01 0.000000e+00
    endloop
  endfacet
  facet normal -3.576445e-16 -1.244019e-15 -1.000000e+00
    outer loop
      vertex -6.547067e+00 2.482705e+01 0.000000e+00
      vertex 7.000000e+00 2.476742e+01 0.000000e+00
      vertex -7.000000e+00 2.476742e+01 0.000000e+00
    endloop
  endfacet
  facet normal -3.576445e-16 -1.244019e-15 -1.000000e+00
    outer loop
      vertex 7.000000e+00 2.476742e+01 0.000000e+00
      vertex -6.547067e+00 2.482705e+01 0.000000e+00
      vertex 6.547067e+00 2.482705e+01 0.000000e+00
    endloop
  endfacet
  facet normal -3.576445e-16 -1.244019e-15 -1.000000e+00
    outer loop
      vertex 6.547067e+00 2.482705e+01 0.000000e+00
      vertex -6.547067e+00 2.482705e+01 0.000000e+00
      vertex -6.125000e+00 2.500188e+01 0.000000e+00
    endloop
  endfacet
  facet normal -3.576445e-16 -1.244019e-15 -1.000000e+00
    outer loop
      vertex 6.547067e+00 2.482705e+01 0.000000e+00
      vertex -6.125000e+00 2.500188e+01 0.000000e+00
      vertex 6.125000e+00 2.500188e+01 0.000000e+00
    endloop
  endfacet
  facet normal -3.576445e-16 -1.244019e-15 -1.000000e+00
    outer loop
      vertex 6.125000e+00 2.500188e+01 0.000000e+00
      vertex -6.125000e+00 2.500188e+01 0.000000e+00
      vertex -5.762563e+00 2.527999e+01 0.000000e+00
    endloop
  endfacet
  facet normal -3.576445e-16 -1.244019e-15 -1.000000e+00
    outer loop
      vertex 6.125000e+00 2.500188e+01 0.000000e+00
      vertex -5.762563e+00 2.527999e+01 0.000000e+00
      vertex 5.762563e+00 2.527999e+01 0.000000e+00
    endloop
  endfacet
  facet normal -3.576445e-16 -1.244019e-15 -1.000000e+00
    outer loop
      vertex 5.762563e+00 2.527999e+01 0.000000e+00
      vertex -5.762563e+00 2.527999e+01 0.000000e+00
      vertex -5.484456e+00 2.564242e+01 0.000000e+00
    endloop
  endfacet
  facet normal -3.576445e-16 -1.244019e-15 -1.000000e+00
    outer loop
      vertex 5.762563e+00 2.527999e+01 0.000000e+00
      vertex -5.484456e+00 2.564242e+01 0.000000e+00
      vertex 5.484456e+00 2.564242e+01 0.000000e+00
    endloop
  endfacet
  facet normal -3.576445e-16 -1.244019e-15 -1.000000e+00
    outer loop
      vertex 5.484456e+00 2.564242e+01 0.000000e+00
      vertex -5.484456e+00 2.564242e+01 0.000000e+00
      vertex 5.309630e+00 2.606449e+01 0.000000e+00
    endloop
  endfacet
  facet normal -3.576445e-16 -1.244019e-15 -1.000000e+00
    outer loop
      vertex 5.309630e+00 2.606449e+01 0.000000e+00
      vertex -5.484456e+00 2.564242e+01 0.000000e+00
      vertex -5.309630e+00 2.606449e+01 0.000000e+00
    endloop
  endfacet
  facet normal -3.576445e-16 -1.244019e-15 -1.000000e+00
    outer loop
      vertex 5.309630e+00 2.606449e+01 0.000000e+00
      vertex -5.309630e+00 2.606449e+01 0.000000e+00
      vertex -5.250000e+00 2.651742e+01 0.000000e+00
    endloop
  endfacet
  facet normal -3.576445e-16 -1.244019e-15 -1.000000e+00
    outer loop
      vertex 5.309630e+00 2.606449e+01 0.000000e+00
      vertex -5.250000e+00 2.651742e+01 0.000000e+00
      vertex 5.250000e+00 2.651742e+01 0.000000e+00
    endloop
  endfacet
  facet normal -3.576445e-16 -1.244019e-15 -1.000000e+00
    outer loop
      vertex 5.250000e+00 2.651742e+01 0.000000e+00
      vertex -5.250000e+00 2.651742e+01 0.000000e+00
      vertex -5.309630e+00 2.697036e+01 0.000000e+00
    endloop
  endfacet
  facet normal -3.576445e-16 -1.244019e-15 -1.000000e+00
    outer loop
      vertex 5.250000e+00 2.651742e+01 0.000000e+00
      vertex -5.309630e+00 2.697036e+01 0.000000e+00
      vertex 5.309630e+00 2.697036e+01 0.000000e+00
    endloop
  endfacet
  facet normal -3.576445e-16 -1.244019e-15 -1.000000e+00
    outer loop
      vertex 5.309630e+00 2.697036e+01 0.000000e+00
      vertex -5.309630e+00 2.697036e+01 0.000000e+00
      vertex 5.484456e+00 2.739242e+01 0.000000e+00
    endloop
  endfacet
  facet normal -3.576445e-16 -1.244019e-15 -1.000000e+00
    outer loop
      vertex 5.484456e+00 2.739242e+01 0.000000e+00
      vertex -5.309630e+00 2.697036e+01 0.000000e+00
      vertex -5.484456e+00 2.739242e+01 0.000000e+00
    endloop
  endfacet
  facet normal -3.576445e-16 -1.244019e-15 -1.000000e+00
    outer loop
      vertex 5.484456e+00 2.739242e+01 0.000000e+00
      vertex -5.484456e+00 2.739242e+01 0.000000e+00
      vertex 5.762563e+00 2.775486e+01 0.000000e+00
    endloop
  endfacet
  facet normal -3.576445e-16 -1.244019e-15 -1.000000e+00
    outer loop
      vertex 5.762563e+00 2.775486e+01 0.000000e+00
      vertex -5.484456e+00 2.739242e+01 0.000000e+00
      vertex -5.762563e+00 2.775486e+01 0.000000e+00
    endloop
  endfacet
  facet normal -3.576445e-16 -1.244019e-15 -1.000000e+00
    outer loop
      vertex 5.762563e+00 2.775486e+01 0.000000e+00
      vertex -5.762563e+00 2.775486e+01 0.000000e+00
      vertex -6.125000e+00 2.803297e+01 0.000000e+00
    endloop
  endfacet
  facet normal -3.576445e-16 -1.244019e-15 -1.000000e+00
    outer loop
      vertex 5.762563e+00 2.775486e+01 0.000000e+00
      vertex -6.125000e+00 2.803297e+01 0.000000e+00
      vertex 6.125000e+00 2.803297e+01 0.000000e+00
    endloop
  endfacet
  facet normal -3.576445e-16 -1.244019e-15 -1.000000e+00
    outer loop
      vertex 6.125000e+00 2.803297e+01 0.000000e+00
      vertex -6.125000e+00 2.803297e+01 0.000000e+00
      vertex -6.547067e+00 2.820779e+01 0.000000e+00
    endloop
  endfacet
  facet normal -3.576445e-16 -1.244019e-15 -1.000000e+00
    outer loop
      vertex 6.125000e+00 2.803297e+01 0.000000e+00
      vertex -6.547067e+00 2.820779e+01 0.000000e+00
      vertex 6.547067e+00 2.820779e+01 0.000000e+00
    endloop
  endfacet
  facet normal -3.576445e-16 -1.244019e-15 -1.000000e+00
    outer loop
      vertex 6.547067e+00 2.820779e+01 0.000000e+00
      vertex -6.547067e+00 2.820779e+01 0.000000e+00
      vertex -7.000000e+00 2.826742e+01 0.000000e+00
    endloop
  endfacet
  facet normal -3.576445e-16 -1.244019e-15 -1.000000e+00
    outer loop
      vertex 6.547067e+00 2.820779e+01 0.000000e+00
      vertex -7.000000e+00 2.826742e+01 0.000000e+00
      vertex 7.000000e+00 2.826742e+01 0.000000e+00
    endloop
  endfacet
  facet normal -3.576445e-16 -1.244019e-15 -1.000000e+00
    outer loop
      vertex -3.364648e+00 -1.954793e+01 7.105427e-15
      vertex 3.364648e+00 -1.954793e+01 7.105427e-15
      vertex 3.103718e-14 -2.012618e+01 7.105427e-15
    endloop
  endfacet
  facet normal -3.576445e-16 -1.244019e-15 -1.000000e+00
    outer loop
      vertex 3.364648e+00 -1.954793e+01 7.105427e-15
      vertex -3.364648e+00 -1.954793e+01 7.105427e-15
      vertex 6.500000e+00 -1.785259e+01 7.105427e-15
    endloop
  endfacet
  facet normal -3.576445e-16 -1.244019e-15 -1.000000e+00
    outer loop
      vertex 6.500000e+00 -1.785259e+01 7.105427e-15
      vertex -3.364648e+00 -1.954793e+01 7.105427e-15
      vertex -6.500000e+00 -1.785259e+01 7.105427e-15
    endloop
  endfacet
  facet normal -3.576445e-16 -1.244019e-15 -1.000000e+00
    outer loop
      vertex 6.500000e+00 -1.785259e+01 7.105427e-15
      vertex -6.500000e+00 -1.785259e+01 7.105427e-15
      vertex -9.192389e+00 -1.515569e+01 7.105427e-15
    endloop
  endfacet
  facet normal -3.576445e-16 -1.244019e-15 -1.000000e+00
    outer loop
      vertex 6.500000e+00 -1.785259e+01 7.105427e-15
      vertex -9.192389e+00 -1.515569e+01 7.105427e-15
      vertex 5.365874e-14 -1.620996e+01 7.105427e-15
    endloop
  endfacet
  facet normal -3.576445e-16 -1.244019e-15 -1.000000e+00
    outer loop
      vertex 5.365874e-14 -1.620996e+01 7.105427e-15
      vertex -9.192389e+00 -1.515569e+01 7.105427e-15
      vertex -2.588191e+00 -1.576515e+01 7.105427e-15
    endloop
  endfacet
  facet normal -3.576445e-16 -1.244019e-15 -1.000000e+00
    outer loop
      vertex -2.588191e+00 -1.576515e+01 7.105427e-15
      vertex -9.192389e+00 -1.515569e+01 7.105427e-15
      vertex -5.000000e+00 -1.446104e+01 7.105427e-15
    endloop
  endfacet
  facet normal -3.576445e-16 -1.244019e-15 -1.000000e+00
    outer loop
      vertex -5.000000e+00 -1.446104e+01 7.105427e-15
      vertex -9.192389e+00 -1.515569e+01 7.105427e-15
      vertex -1.125833e+01 -1.164103e+01 7.105427e-15
    endloop
  endfacet
  facet normal -3.576445e-16 -1.244019e-15 -1.000000e+00
    outer loop
      vertex -5.000000e+00 -1.446104e+01 7.105427e-15
      vertex -1.125833e+01 -1.164103e+01 7.105427e-15
      vertex -7.071068e+00 -1.238651e+01 7.105427e-15
    endloop
  endfacet
  facet normal -3.576445e-16 -1.244019e-15 -1.000000e+00
    outer loop
      vertex -7.071068e+00 -1.238651e+01 7.105427e-15
      vertex -1.125833e+01 -1.164103e+01 7.105427e-15
      vertex -8.660254e+00 -9.682920e+00 7.105427e-15
    endloop
  endfacet
  facet normal -3.576445e-16 -1.244019e-15 -1.000000e+00
    outer loop
      vertex -8.660254e+00 -9.682920e+00 7.105427e-15
      vertex -1.125833e+01 -1.164103e+01 7.105427e-15
      vertex -1.255704e+01 -7.548120e+00 7.105427e-15
    endloop
  endfacet
  facet normal -3.576445e-16 -1.244019e-15 -1.000000e+00
    outer loop
      vertex -8.660254e+00 -9.682920e+00 7.105427e-15
      vertex -1.255704e+01 -7.548120e+00 7.105427e-15
      vertex -9.659258e+00 -6.534527e+00 7.105427e-15
    endloop
  endfacet
  facet normal -3.576445e-16 -1.244019e-15 -1.000000e+00
    outer loop
      vertex -9.659258e+00 -6.534527e+00 7.105427e-15
      vertex -1.255704e+01 -7.548120e+00 7.105427e-15
      vertex -1.260504e+01 -7.072106e+00 7.105427e-15
    endloop
  endfacet
  facet normal 1.000000e+00 5.148776e-16 -1.640142e-15
    outer loop
      vertex -1.000000e+01 2.151742e+01 4.000000e+00
      vertex -1.000000e+01 -3.155884e+00 7.105427e-15
      vertex -1.000000e+01 2.151742e+01 0.000000e+00
    endloop
  endfacet
  facet normal 1.000000e+00 5.148776e-16 -1.640142e-15
    outer loop
      vertex -1.000000e+01 -3.155884e+00 7.105427e-15
      vertex -1.000000e+01 2.151742e+01 4.000000e+00
      vertex -1.000000e+01 -6.512282e+00 4.000000e+00
    endloop
  endfacet
  facet normal 2.653735e-16 7.619621e-16 1.000000e+00
    outer loop
      vertex 1.000000e+01 3.151742e+01 4.000000e+00
      vertex -1.000000e+01 2.151742e+01 4.000000e+00
      vertex 1.000000e+01 2.151742e+01 4.000000e+00
    endloop
  endfacet
  facet normal 2.653735e-16 7.619621e-16 1.000000e+00
    outer loop
      vertex -1.000000e+01 2.151742e+01 4.000000e+00
      vertex 1.000000e+01 3.151742e+01 4.000000e+00
      vertex -6.547067e+00 2.482705e+01 4.000000e+00
    endloop
  endfacet
  facet normal 2.653735e-16 7.619621e-16 1.000000e+00
    outer loop
      vertex -1.000000e+01 2.151742e+01 4.000000e+00
      vertex -6.547067e+00 2.482705e+01 4.000000e+00
      vertex -7.000000e+00 2.476742e+01 4.000000e+00
    endloop
  endfacet
  facet normal 2.653735e-16 7.619621e-16 1.000000e+00
    outer loop
      vertex -6.547067e+00 2.482705e+01 4.000000e+00
      vertex 1.000000e+01 3.151742e+01 4.000000e+00
      vertex -6.125000e+00 2.500188e+01 4.000000e+00
    endloop
  endfacet
  facet normal 2.653735e-16 7.619621e-16 1.000000e+00
    outer loop
      vertex -6.125000e+00 2.500188e+01 4.000000e+00
      vertex 1.000000e+01 3.151742e+01 4.000000e+00
      vertex -5.762563e+00 2.527999e+01 4.000000e+00
    endloop
  endfacet
  facet normal 2.653735e-16 7.619621e-16 1.000000e+00
    outer loop
      vertex -5.762563e+00 2.527999e+01 4.000000e+00
      vertex 1.000000e+01 3.151742e+01 4.000000e+00
      vertex -5.484456e+00 2.564242e+01 4.000000e+00
    endloop
  endfacet
  facet normal 2.653735e-16 7.619621e-16 1.000000e+00
    outer loop
      vertex -5.484456e+00 2.564242e+01 4.000000e+00
      vertex 1.000000e+01 3.151742e+01 4.000000e+00
      vertex -5.309630e+00 2.606449e+01 4.000000e+00
    endloop
  endfacet
  facet normal 2.653735e-16 7.619621e-16 1.000000e+00
    outer loop
      vertex -5.309630e+00 2.606449e+01 4.000000e+00
      vertex 1.000000e+01 3.151742e+01 4.000000e+00
      vertex -5.250000e+00 2.651742e+01 4.000000e+00
    endloop
  endfacet
  facet normal 2.653735e-16 7.619621e-16 1.000000e+00
    outer loop
      vertex -5.250000e+00 2.651742e+01 4.000000e+00
      vertex 1.000000e+01 3.151742e+01 4.000000e+00
      vertex -5.309630e+00 2.697036e+01 4.000000e+00
    endloop
  endfacet
  facet normal 2.653735e-16 7.619621e-16 1.000000e+00
    outer loop
      vertex -5.309630e+00 2.697036e+01 4.000000e+00
      vertex 1.000000e+01 3.151742e+01 4.000000e+00
      vertex -5.484456e+00 2.739242e+01 4.000000e+00
    endloop
  endfacet
  facet normal 2.653735e-16 7.619621e-16 1.000000e+00
    outer loop
      vertex -5.484456e+00 2.739242e+01 4.000000e+00
      vertex 1.000000e+01 3.151742e+01 4.000000e+00
      vertex -5.762563e+00 2.775486e+01 4.000000e+00
    endloop
  endfacet
  facet normal 2.653735e-16 7.619621e-16 1.000000e+00
    outer loop
      vertex -5.762563e+00 2.775486e+01 4.000000e+00
      vertex 1.000000e+01 3.151742e+01 4.000000e+00
      vertex -6.125000e+00 2.803297e+01 4.000000e+00
    endloop
  endfacet
  facet normal 2.653735e-16 7.619621e-16 1.000000e+00
    outer loop
      vertex -6.125000e+00 2.803297e+01 4.000000e+00
      vertex 1.000000e+01 3.151742e+01 4.000000e+00
      vertex -6.547067e+00 2.820779e+01 4.000000e+00
    endloop
  endfacet
  facet normal 2.653735e-16 7.619621e-16 1.000000e+00
    outer loop
      vertex -6.547067e+00 2.820779e+01 4.000000e+00
      vertex 1.000000e+01 3.151742e+01 4.000000e+00
      vertex -7.000000e+00 2.826742e+01 4.000000e+00
    endloop
  endfacet
  facet normal 2.653735e-16 7.619621e-16 1.000000e+00
    outer loop
      vertex -1.000000e+01 2.151742e+01 4.000000e+00
      vertex -1.700000e+01 -6.512282e+00 4.000000e+00
      vertex -1.000000e+01 -6.512282e+00 4.000000e+00
    endloop
  endfacet
  facet normal 2.653735e-16 7.619621e-16 1.000000e+00
    outer loop
      vertex -1.700000e+01 -6.512282e+00 4.000000e+00
      vertex -1.000000e+01 2.151742e+01 4.000000e+00
      vertex -2.000000e+01 -6.512282e+00 4.000000e+00
    endloop
  endfacet
  facet normal 2.653735e-16 7.619621e-16 1.000000e+00
    outer loop
      vertex -2.000000e+01 -6.512282e+00 4.000000e+00
      vertex -1.000000e+01 2.151742e+01 4.000000e+00
      vertex -2.000000e+01 3.151742e+01 4.000000e+00
    endloop
  endfacet
  facet normal 2.653735e-16 7.619621e-16 1.000000e+00
    outer loop
      vertex -2.000000e+01 3.151742e+01 4.000000e+00
      vertex -1.000000e+01 2.151742e+01 4.000000e+00
      vertex -7.875000e+00 2.500188e+01 4.000000e+00
    endloop
  endfacet
  facet normal 2.653735e-16 7.619621e-16 1.000000e+00
    outer loop
      vertex -7.875000e+00 2.500188e+01 4.000000e+00
      vertex -1.000000e+01 2.151742e+01 4.000000e+00
      vertex -7.452933e+00 2.482705e+01 4.000000e+00
    endloop
  endfacet
  facet normal 2.653735e-16 7.619621e-16 1.000000e+00
    outer loop
      vertex -7.452933e+00 2.482705e+01 4.000000e+00
      vertex -1.000000e+01 2.151742e+01 4.000000e+00
      vertex -7.000000e+00 2.476742e+01 4.000000e+00
    endloop
  endfacet
  facet normal 2.653735e-16 7.619621e-16 1.000000e+00
    outer loop
      vertex -2.000000e+01 3.151742e+01 4.000000e+00
      vertex -7.875000e+00 2.500188e+01 4.000000e+00
      vertex -8.237437e+00 2.527999e+01 4.000000e+00
    endloop
  endfacet
  facet normal 2.653735e-16 7.619621e-16 1.000000e+00
    outer loop
      vertex -2.000000e+01 3.151742e+01 4.000000e+00
      vertex -8.237437e+00 2.527999e+01 4.000000e+00
      vertex -8.515545e+00 2.564242e+01 4.000000e+00
    endloop
  endfacet
  facet normal 2.653735e-16 7.619621e-16 1.000000e+00
    outer loop
      vertex -2.000000e+01 3.151742e+01 4.000000e+00
      vertex -8.515545e+00 2.564242e+01 4.000000e+00
      vertex -8.690371e+00 2.606449e+01 4.000000e+00
    endloop
  endfacet
  facet normal 2.653735e-16 7.619621e-16 1.000000e+00
    outer loop
      vertex -2.000000e+01 3.151742e+01 4.000000e+00
      vertex -8.690371e+00 2.606449e+01 4.000000e+00
      vertex -8.750000e+00 2.651742e+01 4.000000e+00
    endloop
  endfacet
  facet normal 2.653735e-16 7.619621e-16 1.000000e+00
    outer loop
      vertex -2.000000e+01 3.151742e+01 4.000000e+00
      vertex -8.750000e+00 2.651742e+01 4.000000e+00
      vertex -8.690371e+00 2.697036e+01 4.000000e+00
    endloop
  endfacet
  facet normal 2.653735e-16 7.619621e-16 1.000000e+00
    outer loop
      vertex -2.000000e+01 3.151742e+01 4.000000e+00
      vertex -8.690371e+00 2.697036e+01 4.000000e+00
      vertex -8.515545e+00 2.739242e+01 4.000000e+00
    endloop
  endfacet
  facet normal 2.653735e-16 7.619621e-16 1.000000e+00
    outer loop
      vertex -2.000000e+01 3.151742e+01 4.000000e+00
      vertex -8.515545e+00 2.739242e+01 4.000000e+00
      vertex -8.237437e+00 2.775486e+01 4.000000e+00
    endloop
  endfacet
  facet normal 2.653735e-16 7.619621e-16 1.000000e+00
    outer loop
      vertex -2.000000e+01 3.151742e+01 4.000000e+00
      vertex -8.237437e+00 2.775486e+01 4.000000e+00
      vertex -7.875000e+00 2.803297e+01 4.000000e+00
    endloop
  endfacet
  facet normal 2.653735e-16 7.619621e-16 1.000000e+00
    outer loop
      vertex -2.000000e+01 3.151742e+01 4.000000e+00
      vertex -7.875000e+00 2.803297e+01 4.000000e+00
      vertex -7.452933e+00 2.820779e+01 4.000000e+00
    endloop
  endfacet
  facet normal 2.653735e-16 7.619621e-16 1.000000e+00
    outer loop
      vertex -2.000000e+01 3.151742e+01 4.000000e+00
      vertex -7.452933e+00 2.820779e+01 4.000000e+00
      vertex -7.000000e+00 2.826742e+01 4.000000e+00
    endloop
  endfacet
  facet normal 2.653735e-16 7.619621e-16 1.000000e+00
    outer loop
      vertex -2.000000e+01 3.151742e+01 4.000000e+00
      vertex -7.000000e+00 2.826742e+01 4.000000e+00
      vertex 1.000000e+01 3.151742e+01 4.000000e+00
    endloop
  endfacet
  facet normal -1.000000e+00 -6.850735e-16 2.008373e-15
    outer loop
      vertex 1.000000e+01 -3.155884e+00 7.105427e-15
      vertex 1.000000e+01 2.151742e+01 4.000000e+00
      vertex 1.000000e+01 2.151742e+01 0.000000e+00
    endloop
  endfacet
  facet normal -1.000000e+00 -6.850735e-16 2.008373e-15
    outer loop
      vertex 1.000000e+01 2.151742e+01 4.000000e+00
      vertex 1.000000e+01 -3.155884e+00 7.105427e-15
      vertex 1.000000e+01 -6.512282e+00 4.000000e+00
    endloop
  endfacet
  facet normal 9.981991e-16 8.968668e-16 1.000000e+00
    outer loop
      vertex 2.000000e+01 3.151742e+01 4.000000e+00
      vertex 1.700000e+01 -6.512282e+00 4.000000e+00
      vertex 2.000000e+01 -6.512282e+00 4.000000e+00
    endloop
  endfacet
  facet normal 9.981991e-16 8.968668e-16 1.000000e+00
    outer loop
      vertex 1.700000e+01 -6.512282e+00 4.000000e+00
      vertex 2.000000e+01 3.151742e+01 4.000000e+00
      vertex 1.000000e+01 2.151742e+01 4.000000e+00
    endloop
  endfacet
  facet normal 9.981991e-16 8.968668e-16 1.000000e+00
    outer loop
      vertex 1.000000e+01 2.151742e+01 4.000000e+00
      vertex 2.000000e+01 3.151742e+01 4.000000e+00
      vertex 1.000000e+01 3.151742e+01 4.000000e+00
    endloop
  endfacet
  facet normal 9.981991e-16 8.968668e-16 1.000000e+00
    outer loop
      vertex 1.000000e+01 2.151742e+01 4.000000e+00
      vertex 1.000000e+01 -6.512282e+00 4.000000e+00
      vertex 1.700000e+01 -6.512282e+00 4.000000e+00
    endloop
  endfacet
  facet normal 1.186518e-16 -7.660444e-01 -6.427876e-01
    outer loop
      vertex -1.260504e+01 -2.385698e+01 2.000343e+01
      vertex -1.700000e+01 -2.064304e+01 1.617321e+01
      vertex -1.260504e+01 -7.072106e+00 7.105427e-15
    endloop
  endfacet
  facet normal 1.186518e-16 -7.660444e-01 -6.427876e-01
    outer loop
      vertex -1.700000e+01 -2.064304e+01 1.617321e+01
      vertex -1.260504e+01 -2.385698e+01 2.000343e+01
      vertex -2.000000e+01 -2.385698e+01 2.000343e+01
    endloop
  endfacet
  facet normal 1.186518e-16 -7.660444e-01 -6.427876e-01
    outer loop
      vertex -1.700000e+01 -2.064304e+01 1.617321e+01
      vertex -2.000000e+01 -2.385698e+01 2.000343e+01
      vertex -2.000000e+01 -2.064304e+01 1.617321e+01
    endloop
  endfacet
  facet normal 1.186518e-16 -7.660444e-01 -6.427876e-01
    outer loop
      vertex -2.000000e+01 -1.742910e+01 1.234299e+01
      vertex -1.700000e+01 -1.202435e+01 5.901859e+00
      vertex -1.700000e+01 -1.742910e+01 1.234299e+01
    endloop
  endfacet
  facet normal 1.186518e-16 -7.660444e-01 -6.427876e-01
    outer loop
      vertex -1.700000e+01 -1.202435e+01 5.901859e+00
      vertex -2.000000e+01 -1.742910e+01 1.234299e+01
      vertex -2.000000e+01 -1.202435e+01 5.901859e+00
    endloop
  endfacet
  facet normal 1.186518e-16 -7.660444e-01 -6.427876e-01
    outer loop
      vertex -1.260504e+01 -7.072106e+00 7.105427e-15
      vertex -1.700000e+01 -8.810416e+00 2.071636e+00
      vertex -2.000000e+01 -7.072106e+00 7.105427e-15
    endloop
  endfacet
  facet normal 1.186518e-16 -7.660444e-01 -6.427876e-01
    outer loop
      vertex -1.700000e+01 -8.810416e+00 2.071636e+00
      vertex -1.260504e+01 -7.072106e+00 7.105427e-15
      vertex -1.700000e+01 -2.064304e+01 1.617321e+01
    endloop
  endfacet
  facet normal 1.186518e-16 -7.660444e-01 -6.427876e-01
    outer loop
      vertex -1.700000e+01 -8.810416e+00 2.071636e+00
      vertex -1.700000e+01 -2.064304e+01 1.617321e+01
      vertex -1.700000e+01 -1.742910e+01 1.234299e+01
    endloop
  endfacet
  facet normal 1.186518e-16 -7.660444e-01 -6.427876e-01
    outer loop
      vertex -1.700000e+01 -8.810416e+00 2.071636e+00
      vertex -1.700000e+01 -1.742910e+01 1.234299e+01
      vertex -1.700000e+01 -1.202435e+01 5.901859e+00
    endloop
  endfacet
  facet normal 1.186518e-16 -7.660444e-01 -6.427876e-01
    outer loop
      vertex -2.000000e+01 -7.072106e+00 7.105427e-15
      vertex -1.700000e+01 -8.810416e+00 2.071636e+00
      vertex -2.000000e+01 -8.810416e+00 2.071636e+00
    endloop
  endfacet
  facet normal -3.826834e-01 -7.077328e-01 -5.938583e-01
    outer loop
      vertex -3.364648e+00 -3.117809e+01 1.386029e+01
      vertex -6.500000e+00 -1.785259e+01 7.105427e-15
      vertex -3.364648e+00 -1.954793e+01 7.105427e-15
    endloop
  endfacet
  facet normal -3.826834e-01 -7.077328e-01 -5.938583e-01
    outer loop
      vertex -6.500000e+00 -1.785259e+01 7.105427e-15
      vertex -3.364648e+00 -3.117809e+01 1.386029e+01
      vertex -6.500000e+00 -3.018323e+01 1.469508e+01
    endloop
  endfacet
  facet normal -9.238795e-01 -2.931525e-01 -2.459842e-01
    outer loop
      vertex -1.125833e+01 -1.164103e+01 7.105427e-15
      vertex -1.255704e+01 -2.413631e+01 1.976904e+01
      vertex -1.255704e+01 -7.548120e+00 7.105427e-15
    endloop
  endfacet
  facet normal -9.238795e-01 -2.931525e-01 -2.459842e-01
    outer loop
      vertex -1.255704e+01 -2.413631e+01 1.976904e+01
      vertex -1.125833e+01 -1.164103e+01 7.105427e-15
      vertex -1.125833e+01 -2.653813e+01 1.775367e+01
    endloop
  endfacet
  facet normal -9.914448e-01 -9.998886e-02 -8.390061e-02
    outer loop
      vertex -1.255704e+01 -2.413631e+01 1.976904e+01
      vertex -1.260504e+01 -7.072106e+00 7.105427e-15
      vertex -1.255704e+01 -7.548120e+00 7.105427e-15
    endloop
  endfacet
  facet normal -9.914448e-01 -9.998886e-02 -8.390061e-02
    outer loop
      vertex -1.260504e+01 -7.072106e+00 7.105427e-15
      vertex -1.255704e+01 -2.413631e+01 1.976904e+01
      vertex -1.260504e+01 -2.385698e+01 2.000343e+01
    endloop
  endfacet
  facet normal -1.305262e-01 -7.594908e-01 -6.372885e-01
    outer loop
      vertex -3.364648e+00 -3.117809e+01 1.386029e+01
      vertex 3.103718e-14 -2.012618e+01 7.105427e-15
      vertex 3.243220e-14 -3.151742e+01 1.357555e+01
    endloop
  endfacet
  facet normal -1.305262e-01 -7.594908e-01 -6.372885e-01
    outer loop
      vertex 3.103718e-14 -2.012618e+01 7.105427e-15
      vertex -3.364648e+00 -3.117809e+01 1.386029e+01
      vertex -3.364648e+00 -1.954793e+01 7.105427e-15
    endloop
  endfacet
  facet normal -6.087614e-01 -6.077439e-01 -5.099577e-01
    outer loop
      vertex -6.500000e+00 -1.785259e+01 7.105427e-15
      vertex -9.192389e+00 -2.860062e+01 1.602304e+01
      vertex -9.192389e+00 -1.515569e+01 7.105427e-15
    endloop
  endfacet
  facet normal -6.087614e-01 -6.077439e-01 -5.099577e-01
    outer loop
      vertex -9.192389e+00 -2.860062e+01 1.602304e+01
      vertex -6.500000e+00 -1.785259e+01 7.105427e-15
      vertex -6.500000e+00 -3.018323e+01 1.469508e+01
    endloop
  endfacet
  facet normal -7.933533e-01 -4.663383e-01 -3.913043e-01
    outer loop
      vertex -9.192389e+00 -2.860062e+01 1.602304e+01
      vertex -1.125833e+01 -1.164103e+01 7.105427e-15
      vertex -9.192389e+00 -1.515569e+01 7.105427e-15
    endloop
  endfacet
  facet normal -7.933533e-01 -4.663383e-01 -3.913043e-01
    outer loop
      vertex -1.125833e+01 -1.164103e+01 7.105427e-15
      vertex -9.192389e+00 -2.860062e+01 1.602304e+01
      vertex -1.125833e+01 -2.653813e+01 1.775367e+01
    endloop
  endfacet
  facet normal 1.000000e+00 1.224647e-16 0.000000e+00
    outer loop
      vertex 2.000000e+01 -9.726221e+00 7.830223e+00
      vertex 2.000000e+01 -1.742910e+01 1.234299e+01
      vertex 2.000000e+01 -1.202435e+01 5.901859e+00
    endloop
  endfacet
  facet normal 1.000000e+00 1.224647e-16 0.000000e+00
    outer loop
      vertex 2.000000e+01 -1.742910e+01 1.234299e+01
      vertex 2.000000e+01 -9.726221e+00 7.830223e+00
      vertex 2.000000e+01 -1.513097e+01 1.427135e+01
    endloop
  endfacet
  facet normal 3.826834e-01 -7.077328e-01 -5.938583e-01
    outer loop
      vertex 3.364648e+00 -3.117809e+01 1.386029e+01
      vertex 6.500000e+00 -1.785259e+01 7.105427e-15
      vertex 6.500000e+00 -3.018323e+01 1.469508e+01
    endloop
  endfacet
  facet normal 3.826834e-01 -7.077328e-01 -5.938583e-01
    outer loop
      vertex 6.500000e+00 -1.785259e+01 7.105427e-15
      vertex 3.364648e+00 -3.117809e+01 1.386029e+01
      vertex 3.364648e+00 -1.954793e+01 7.105427e-15
    endloop
  endfacet
  facet normal 1.305262e-01 -7.594908e-01 -6.372885e-01
    outer loop
      vertex 3.243220e-14 -3.151742e+01 1.357555e+01
      vertex 3.364648e+00 -1.954793e+01 7.105427e-15
      vertex 3.364648e+00 -3.117809e+01 1.386029e+01
    endloop
  endfacet
  facet normal 1.305262e-01 -7.594908e-01 -6.372885e-01
    outer loop
      vertex 3.364648e+00 -1.954793e+01 7.105427e-15
      vertex 3.243220e-14 -3.151742e+01 1.357555e+01
      vertex 3.103718e-14 -2.012618e+01 7.105427e-15
    endloop
  endfacet
  facet normal 9.238795e-01 -2.931525e-01 -2.459842e-01
    outer loop
      vertex 1.255704e+01 -2.413631e+01 1.976904e+01
      vertex 1.125833e+01 -1.164103e+01 7.105427e-15
      vertex 1.255704e+01 -7.548120e+00 7.105427e-15
    endloop
  endfacet
  facet normal 9.238795e-01 -2.931525e-01 -2.459842e-01
    outer loop
      vertex 1.125833e+01 -1.164103e+01 7.105427e-15
      vertex 1.255704e+01 -2.413631e+01 1.976904e+01
      vertex 1.125833e+01 -2.653813e+01 1.775367e+01
    endloop
  endfacet
  facet normal 4.283200e-16 -7.660444e-01 -6.427876e-01
    outer loop
      vertex 1.260504e+01 -2.385698e+01 2.000343e+01
      vertex 2.000000e+01 -2.064304e+01 1.617321e+01
      vertex 2.000000e+01 -2.385698e+01 2.000343e+01
    endloop
  endfacet
  facet normal 4.283200e-16 -7.660444e-01 -6.427876e-01
    outer loop
      vertex 2.000000e+01 -2.064304e+01 1.617321e+01
      vertex 1.260504e+01 -2.385698e+01 2.000343e+01
      vertex 1.700000e+01 -2.064304e+01 1.617321e+01
    endloop
  endfacet
  facet normal 4.283200e-16 -7.660444e-01 -6.427876e-01
    outer loop
      vertex 1.700000e+01 -2.064304e+01 1.617321e+01
      vertex 1.260504e+01 -2.385698e+01 2.000343e+01
      vertex 1.700000e+01 -1.742910e+01 1.234299e+01
    endloop
  endfacet
  facet normal 4.283200e-16 -7.660444e-01 -6.427876e-01
    outer loop
      vertex 1.700000e+01 -1.742910e+01 1.234299e+01
      vertex 1.260504e+01 -2.385698e+01 2.000343e+01
      vertex 1.700000e+01 -1.202435e+01 5.901859e+00
    endloop
  endfacet
  facet normal 4.283200e-16 -7.660444e-01 -6.427876e-01
    outer loop
      vertex 1.700000e+01 -1.202435e+01 5.901859e+00
      vertex 1.260504e+01 -2.385698e+01 2.000343e+01
      vertex 1.700000e+01 -8.810416e+00 2.071636e+00
    endloop
  endfacet
  facet normal 4.283200e-16 -7.660444e-01 -6.427876e-01
    outer loop
      vertex 1.700000e+01 -8.810416e+00 2.071636e+00
      vertex 1.260504e+01 -2.385698e+01 2.000343e+01
      vertex 1.260504e+01 -7.072106e+00 7.105427e-15
    endloop
  endfacet
  facet normal 4.283200e-16 -7.660444e-01 -6.427876e-01
    outer loop
      vertex 1.700000e+01 -8.810416e+00 2.071636e+00
      vertex 2.000000e+01 -7.072106e+00 7.105427e-15
      vertex 2.000000e+01 -8.810416e+00 2.071636e+00
    endloop
  endfacet
  facet normal 4.283200e-16 -7.660444e-01 -6.427876e-01
    outer loop
      vertex 2.000000e+01 -7.072106e+00 7.105427e-15
      vertex 1.700000e+01 -8.810416e+00 2.071636e+00
      vertex 1.260504e+01 -7.072106e+00 7.105427e-15
    endloop
  endfacet
  facet normal 4.283200e-16 -7.660444e-01 -6.427876e-01
    outer loop
      vertex 1.700000e+01 -1.742910e+01 1.234299e+01
      vertex 2.000000e+01 -1.202435e+01 5.901859e+00
      vertex 2.000000e+01 -1.742910e+01 1.234299e+01
    endloop
  endfacet
  facet normal 4.283200e-16 -7.660444e-01 -6.427876e-01
    outer loop
      vertex 2.000000e+01 -1.202435e+01 5.901859e+00
      vertex 1.700000e+01 -1.742910e+01 1.234299e+01
      vertex 1.700000e+01 -1.202435e+01 5.901859e+00
    endloop
  endfacet
  facet normal 9.914448e-01 -9.998886e-02 -8.390061e-02
    outer loop
      vertex 1.260504e+01 -2.385698e+01 2.000343e+01
      vertex 1.255704e+01 -7.548120e+00 7.105427e-15
      vertex 1.260504e+01 -7.072106e+00 7.105427e-15
    endloop
  endfacet
  facet normal 9.914448e-01 -9.998886e-02 -8.390061e-02
    outer loop
      vertex 1.255704e+01 -7.548120e+00 7.105427e-15
      vertex 1.260504e+01 -2.385698e+01 2.000343e+01
      vertex 1.255704e+01 -2.413631e+01 1.976904e+01
    endloop
  endfacet
  facet normal 7.933533e-01 -4.663383e-01 -3.913043e-01
    outer loop
      vertex 1.125833e+01 -2.653813e+01 1.775367e+01
      vertex 9.192389e+00 -1.515569e+01 7.105427e-15
      vertex 1.125833e+01 -1.164103e+01 7.105427e-15
    endloop
  endfacet
  facet normal 7.933533e-01 -4.663383e-01 -3.913043e-01
    outer loop
      vertex 9.192389e+00 -1.515569e+01 7.105427e-15
      vertex 1.125833e+01 -2.653813e+01 1.775367e+01
      vertex 9.192389e+00 -2.860062e+01 1.602304e+01
    endloop
  endfacet
  facet normal 6.087614e-01 -6.077439e-01 -5.099577e-01
    outer loop
      vertex 9.192389e+00 -2.860062e+01 1.602304e+01
      vertex 6.500000e+00 -1.785259e+01 7.105427e-15
      vertex 9.192389e+00 -1.515569e+01 7.105427e-15
    endloop
  endfacet
  facet normal 6.087614e-01 -6.077439e-01 -5.099577e-01
    outer loop
      vertex 6.500000e+00 -1.785259e+01 7.105427e-15
      vertex 9.192389e+00 -2.860062e+01 1.602304e+01
      vertex 6.500000e+00 -3.018323e+01 1.469508e+01
    endloop
  endfacet
  facet normal 1.000000e+00 1.224647e-16 0.000000e+00
    outer loop
      vertex 2.000000e+01 -1.834491e+01 1.810157e+01
      vertex 2.000000e+01 -2.385698e+01 2.000343e+01
      vertex 2.000000e+01 -2.064304e+01 1.617321e+01
    endloop
  endfacet
  facet normal 1.000000e+00 1.224647e-16 0.000000e+00
    outer loop
      vertex 2.000000e+01 -2.385698e+01 2.000343e+01
      vertex 2.000000e+01 -1.834491e+01 1.810157e+01
      vertex 2.000000e+01 -2.155884e+01 2.193179e+01
    endloop
  endfacet
  facet normal 1.000000e+00 1.224647e-16 0.000000e+00
    outer loop
      vertex 1.700000e+01 -1.513097e+01 1.427135e+01
      vertex 1.700000e+01 -2.064304e+01 1.617321e+01
      vertex 1.700000e+01 -1.742910e+01 1.234299e+01
    endloop
  endfacet
  facet normal 1.000000e+00 1.224647e-16 0.000000e+00
    outer loop
      vertex 1.700000e+01 -2.064304e+01 1.617321e+01
      vertex 1.700000e+01 -1.513097e+01 1.427135e+01
      vertex 1.700000e+01 -1.834491e+01 1.810157e+01
    endloop
  endfacet
  facet normal 7.871878e-17 -6.427876e-01 7.660444e-01
    outer loop
      vertex 2.000000e+01 -1.513097e+01 1.427135e+01
      vertex 1.700000e+01 -1.742910e+01 1.234299e+01
      vertex 2.000000e+01 -1.742910e+01 1.234299e+01
    endloop
  endfacet
  facet normal 7.871878e-17 -6.427876e-01 7.660444e-01
    outer loop
      vertex 1.700000e+01 -1.742910e+01 1.234299e+01
      vertex 2.000000e+01 -1.513097e+01 1.427135e+01
      vertex 1.700000e+01 -1.513097e+01 1.427135e+01
    endloop
  endfacet
  facet normal -7.871878e-17 6.427876e-01 -7.660444e-01
    outer loop
      vertex 1.700000e+01 -1.834491e+01 1.810157e+01
      vertex 2.000000e+01 -2.064304e+01 1.617321e+01
      vertex 1.700000e+01 -2.064304e+01 1.617321e+01
    endloop
  endfacet
  facet normal -7.871878e-17 6.427876e-01 -7.660444e-01
    outer loop
      vertex 2.000000e+01 -2.064304e+01 1.617321e+01
      vertex 1.700000e+01 -1.834491e+01 1.810157e+01
      vertex 2.000000e+01 -1.834491e+01 1.810157e+01
    endloop
  endfacet
  facet normal -1.000000e+00 -1.224647e-16 0.000000e+00
    outer loop
      vertex -2.000000e+01 -2.385698e+01 2.000343e+01
      vertex -2.000000e+01 -1.834491e+01 1.810157e+01
      vertex -2.000000e+01 -2.064304e+01 1.617321e+01
    endloop
  endfacet
  facet normal -1.000000e+00 -1.224647e-16 0.000000e+00
    outer loop
      vertex -2.000000e+01 -1.834491e+01 1.810157e+01
      vertex -2.000000e+01 -2.385698e+01 2.000343e+01
      vertex -2.000000e+01 -2.155884e+01 2.193179e+01
    endloop
  endfacet
  facet normal -1.000000e+00 -1.224647e-16 0.000000e+00
    outer loop
      vertex -1.700000e+01 -2.064304e+01 1.617321e+01
      vertex -1.700000e+01 -1.513097e+01 1.427135e+01
      vertex -1.700000e+01 -1.742910e+01 1.234299e+01
    endloop
  endfacet
  facet normal -1.000000e+00 -1.224647e-16 0.000000e+00
    outer loop
      vertex -1.700000e+01 -1.513097e+01 1.427135e+01
      vertex -1.700000e+01 -2.064304e+01 1.617321e+01
      vertex -1.700000e+01 -1.834491e+01 1.810157e+01
    endloop
  endfacet
  facet normal -7.871878e-17 6.427876e-01 -7.660444e-01
    outer loop
      vertex -2.000000e+01 -1.834491e+01 1.810157e+01
      vertex -1.700000e+01 -2.064304e+01 1.617321e+01
      vertex -2.000000e+01 -2.064304e+01 1.617321e+01
    endloop
  endfacet
  facet normal -7.871878e-17 6.427876e-01 -7.660444e-01
    outer loop
      vertex -1.700000e+01 -2.064304e+01 1.617321e+01
      vertex -2.000000e+01 -1.834491e+01 1.810157e+01
      vertex -1.700000e+01 -1.834491e+01 1.810157e+01
    endloop
  endfacet
  facet normal 7.871878e-17 -6.427876e-01 7.660444e-01
    outer loop
      vertex -1.700000e+01 -1.513097e+01 1.427135e+01
      vertex -2.000000e+01 -1.742910e+01 1.234299e+01
      vertex -1.700000e+01 -1.742910e+01 1.234299e+01
    endloop
  endfacet
  facet normal 7.871878e-17 -6.427876e-01 7.660444e-01
    outer loop
      vertex -2.000000e+01 -1.742910e+01 1.234299e+01
      vertex -1.700000e+01 -1.513097e+01 1.427135e+01
      vertex -2.000000e+01 -1.513097e+01 1.427135e+01
    endloop
  endfacet
  facet normal -1.000000e+00 2.006419e-16 -1.474656e-17
    outer loop
      vertex -2.000000e+01 -7.072106e+00 7.105427e-15
      vertex -2.000000e+01 3.151742e+01 4.000000e+00
      vertex -2.000000e+01 3.151742e+01 0.000000e+00
    endloop
  endfacet
  facet normal -1.000000e+00 2.006419e-16 -1.474656e-17
    outer loop
      vertex -2.000000e+01 3.151742e+01 4.000000e+00
      vertex -2.000000e+01 -7.072106e+00 7.105427e-15
      vertex -2.000000e+01 -8.810416e+00 2.071636e+00
    endloop
  endfacet
  facet normal -1.000000e+00 2.006419e-16 -1.474656e-17
    outer loop
      vertex -2.000000e+01 3.151742e+01 4.000000e+00
      vertex -2.000000e+01 -8.810416e+00 2.071636e+00
      vertex -2.000000e+01 -6.512282e+00 4.000000e+00
    endloop
  endfacet
  facet normal -1.000000e+00 -1.224647e-16 0.000000e+00
    outer loop
      vertex -2.000000e+01 -1.742910e+01 1.234299e+01
      vertex -2.000000e+01 -9.726221e+00 7.830223e+00
      vertex -2.000000e+01 -1.202435e+01 5.901859e+00
    endloop
  endfacet
  facet normal -1.000000e+00 -1.224647e-16 0.000000e+00
    outer loop
      vertex -2.000000e+01 -9.726221e+00 7.830223e+00
      vertex -2.000000e+01 -1.742910e+01 1.234299e+01
      vertex -2.000000e+01 -1.513097e+01 1.427135e+01
    endloop
  endfacet
  facet normal -1.000000e+00 -1.224647e-16 0.000000e+00
    outer loop
      vertex -1.700000e+01 -1.202435e+01 5.901859e+00
      vertex -1.700000e+01 -6.512282e+00 4.000000e+00
      vertex -1.700000e+01 -8.810416e+00 2.071636e+00
    endloop
  endfacet
  facet normal -1.000000e+00 -1.224647e-16 0.000000e+00
    outer loop
      vertex -1.700000e+01 -6.512282e+00 4.000000e+00
      vertex -1.700000e+01 -1.202435e+01 5.901859e+00
      vertex -1.700000e+01 -9.726221e+00 7.830223e+00
    endloop
  endfacet
  facet normal -7.871878e-17 6.427876e-01 -7.660444e-01
    outer loop
      vertex -2.000000e+01 -9.726221e+00 7.830223e+00
      vertex -1.700000e+01 -1.202435e+01 5.901859e+00
      vertex -2.000000e+01 -1.202435e+01 5.901859e+00
    endloop
  endfacet
  facet normal -7.871878e-17 6.427876e-01 -7.660444e-01
    outer loop
      vertex -1.700000e+01 -1.202435e+01 5.901859e+00
      vertex -2.000000e+01 -9.726221e+00 7.830223e+00
      vertex -1.700000e+01 -9.726221e+00 7.830223e+00
    endloop
  endfacet
  facet normal 7.871878e-17 -6.427876e-01 7.660444e-01
    outer loop
      vertex -1.700000e+01 -6.512282e+00 4.000000e+00
      vertex -2.000000e+01 -8.810416e+00 2.071636e+00
      vertex -1.700000e+01 -8.810416e+00 2.071636e+00
    endloop
  endfacet
  facet normal 7.871878e-17 -6.427876e-01 7.660444e-01
    outer loop
      vertex -2.000000e+01 -8.810416e+00 2.071636e+00
      vertex -1.700000e+01 -6.512282e+00 4.000000e+00
      vertex -2.000000e+01 -6.512282e+00 4.000000e+00
    endloop
  endfacet
  facet normal 1.000000e+00 -2.006419e-16 1.474656e-17
    outer loop
      vertex 2.000000e+01 3.151742e+01 4.000000e+00
      vertex 2.000000e+01 -7.072106e+00 7.105427e-15
      vertex 2.000000e+01 3.151742e+01 0.000000e+00
    endloop
  endfacet
  facet normal 1.000000e+00 -2.006419e-16 1.474656e-17
    outer loop
      vertex 2.000000e+01 -7.072106e+00 7.105427e-15
      vertex 2.000000e+01 3.151742e+01 4.000000e+00
      vertex 2.000000e+01 -8.810416e+00 2.071636e+00
    endloop
  endfacet
  facet normal 1.000000e+00 -2.006419e-16 1.474656e-17
    outer loop
      vertex 2.000000e+01 -8.810416e+00 2.071636e+00
      vertex 2.000000e+01 3.151742e+01 4.000000e+00
      vertex 2.000000e+01 -6.512282e+00 4.000000e+00
    endloop
  endfacet
  facet normal 1.000000e+00 1.224647e-16 0.000000e+00
    outer loop
      vertex 1.700000e+01 -6.512282e+00 4.000000e+00
      vertex 1.700000e+01 -1.202435e+01 5.901859e+00
      vertex 1.700000e+01 -8.810416e+00 2.071636e+00
    endloop
  endfacet
  facet normal 1.000000e+00 1.224647e-16 0.000000e+00
    outer loop
      vertex 1.700000e+01 -1.202435e+01 5.901859e+00
      vertex 1.700000e+01 -6.512282e+00 4.000000e+00
      vertex 1.700000e+01 -9.726221e+00 7.830223e+00
    endloop
  endfacet
  facet normal 7.871878e-17 -6.427876e-01 7.660444e-01
    outer loop
      vertex 2.000000e+01 -6.512282e+00 4.000000e+00
      vertex 1.700000e+01 -8.810416e+00 2.071636e+00
      vertex 2.000000e+01 -8.810416e+00 2.071636e+00
    endloop
  endfacet
  facet normal 7.871878e-17 -6.427876e-01 7.660444e-01
    outer loop
      vertex 1.700000e+01 -8.810416e+00 2.071636e+00
      vertex 2.000000e+01 -6.512282e+00 4.000000e+00
      vertex 1.700000e+01 -6.512282e+00 4.000000e+00
    endloop
  endfacet
  facet normal -7.871878e-17 6.427876e-01 -7.660444e-01
    outer loop
      vertex 1.700000e+01 -9.726221e+00 7.830223e+00
      vertex 2.000000e+01 -1.202435e+01 5.901859e+00
      vertex 1.700000e+01 -1.202435e+01 5.901859e+00
    endloop
  endfacet
  facet normal -7.871878e-17 6.427876e-01 -7.660444e-01
    outer loop
      vertex 2.000000e+01 -1.202435e+01 5.901859e+00
      vertex 1.700000e+01 -9.726221e+00 7.830223e+00
      vertex 2.000000e+01 -9.726221e+00 7.830223e+00
    endloop
  endfacet
  facet normal 1.224647e-16 -1.000000e+00 1.836970e-16
    outer loop
      vertex -1.000000e+01 2.151742e+01 4.000000e+00
      vertex 1.000000e+01 2.151742e+01 0.000000e+00
      vertex 1.000000e+01 2.151742e+01 4.000000e+00
    endloop
  endfacet
  facet normal 1.224647e-16 -1.000000e+00 1.836970e-16
    outer loop
      vertex 1.000000e+01 2.151742e+01 0.000000e+00
      vertex -1.000000e+01 2.151742e+01 4.000000e+00
      vertex -1.000000e+01 2.151742e+01 0.000000e+00
    endloop
  endfacet
  facet normal -9.936352e-17 1.000000e+00 -2.609320e-15
    outer loop
      vertex -2.000000e+01 3.151742e+01 0.000000e+00
      vertex 2.000000e+01 3.151742e+01 4.000000e+00
      vertex 2.000000e+01 3.151742e+01 0.000000e+00
    endloop
  endfacet
  facet normal -9.936352e-17 1.000000e+00 -2.609320e-15
    outer loop
      vertex 2.000000e+01 3.151742e+01 4.000000e+00
      vertex -2.000000e+01 3.151742e+01 0.000000e+00
      vertex 1.000000e+01 3.151742e+01 4.000000e+00
    endloop
  endfacet
  facet normal -9.936352e-17 1.000000e+00 -2.609320e-15
    outer loop
      vertex 1.000000e+01 3.151742e+01 4.000000e+00
      vertex -2.000000e+01 3.151742e+01 0.000000e+00
      vertex -2.000000e+01 3.151742e+01 4.000000e+00
    endloop
  endfacet
endsolid Default
