solid Default
  facet normal -7.788767e-02 -9.969621e-01 -1.227340e-12
    outer loop
      vertex 1.475000e+01 -5.000000e+00 0.000000e+00
      vertex -1.725000e+01 -2.500000e+00 5.000000e+00
      vertex -1.725000e+01 -2.500000e+00 0.000000e+00
    endloop
  endfacet
  facet normal -7.788767e-02 -9.969621e-01 -1.227340e-12
    outer loop
      vertex -1.725000e+01 -2.500000e+00 5.000000e+00
      vertex 1.475000e+01 -5.000000e+00 0.000000e+00
      vertex 1.475000e+01 -5.000000e+00 5.000000e+00
    endloop
  endfacet
  facet normal 1.305262e-01 -9.914449e-01 -1.252369e-12
    outer loop
      vertex 1.604410e+01 -4.829628e+00 0.000000e+00
      vertex 1.475000e+01 -5.000000e+00 5.000000e+00
      vertex 1.475000e+01 -5.000000e+00 0.000000e+00
    endloop
  endfacet
  facet normal 1.305262e-01 -9.914449e-01 -1.252369e-12
    outer loop
      vertex 1.475000e+01 -5.000000e+00 5.000000e+00
      vertex 1.604410e+01 -4.829628e+00 0.000000e+00
      vertex 1.604410e+01 -4.829628e+00 5.000000e+00
    endloop
  endfacet
  facet normal 3.826834e-01 -9.238795e-01 -1.206972e-12
    outer loop
      vertex 1.725000e+01 -4.330124e+00 0.000000e+00
      vertex 1.604410e+01 -4.829628e+00 5.000000e+00
      vertex 1.604410e+01 -4.829628e+00 0.000000e+00
    endloop
  endfacet
  facet normal 3.826834e-01 -9.238795e-01 -1.206972e-12
    outer loop
      vertex 1.604410e+01 -4.829628e+00 5.000000e+00
      vertex 1.725000e+01 -4.330124e+00 0.000000e+00
      vertex 1.725000e+01 -4.330124e+00 5.000000e+00
    endloop
  endfacet
  facet normal 6.087614e-01 -7.933533e-01 -1.079329e-12
    outer loop
      vertex 1.828553e+01 -3.535538e+00 0.000000e+00
      vertex 1.725000e+01 -4.330124e+00 5.000000e+00
      vertex 1.725000e+01 -4.330124e+00 0.000000e+00
    endloop
  endfacet
  facet normal 6.087614e-01 -7.933533e-01 -1.079329e-12
    outer loop
      vertex 1.725000e+01 -4.330124e+00 5.000000e+00
      vertex 1.828553e+01 -3.535538e+00 0.000000e+00
      vertex 1.828553e+01 -3.535538e+00 5.000000e+00
    endloop
  endfacet
  facet normal 7.933533e-01 -6.087614e-01 -8.778935e-13
    outer loop
      vertex 1.828553e+01 -3.535538e+00 5.000000e+00
      vertex 1.908013e+01 -2.500000e+00 0.000000e+00
      vertex 1.908013e+01 -2.500000e+00 5.000000e+00
    endloop
  endfacet
  facet normal 7.933533e-01 -6.087614e-01 -8.778935e-13
    outer loop
      vertex 1.908013e+01 -2.500000e+00 0.000000e+00
      vertex 1.828553e+01 -3.535538e+00 5.000000e+00
      vertex 1.828553e+01 -3.535538e+00 0.000000e+00
    endloop
  endfacet
  facet normal 9.238795e-01 -3.826834e-01 -6.165429e-13
    outer loop
      vertex 1.908013e+01 -2.500000e+00 5.000000e+00
      vertex 1.957963e+01 -1.294098e+00 0.000000e+00
      vertex 1.957963e+01 -1.294098e+00 5.000000e+00
    endloop
  endfacet
  facet normal 9.238795e-01 -3.826834e-01 -6.165429e-13
    outer loop
      vertex 1.957963e+01 -1.294098e+00 0.000000e+00
      vertex 1.908013e+01 -2.500000e+00 5.000000e+00
      vertex 1.908013e+01 -2.500000e+00 0.000000e+00
    endloop
  endfacet
  facet normal 9.914449e-01 -1.305262e-01 -3.134120e-13
    outer loop
      vertex 1.957963e+01 -1.294098e+00 5.000000e+00
      vertex 1.975000e+01 0.000000e+00 1.776357e-15
      vertex 1.975000e+01 0.000000e+00 5.000000e+00
    endloop
  endfacet
  facet normal 9.914449e-01 -1.305262e-01 -3.134120e-13
    outer loop
      vertex 1.975000e+01 0.000000e+00 1.776357e-15
      vertex 1.957963e+01 -1.294098e+00 5.000000e+00
      vertex 1.957963e+01 -1.294098e+00 0.000000e+00
    endloop
  endfacet
  facet normal 9.914449e-01 1.305262e-01 1.108538e-14
    outer loop
      vertex 1.975000e+01 0.000000e+00 5.000000e+00
      vertex 1.957963e+01 1.294098e+00 1.776357e-15
      vertex 1.957963e+01 1.294098e+00 5.000000e+00
    endloop
  endfacet
  facet normal 9.914449e-01 1.305262e-01 1.108538e-14
    outer loop
      vertex 1.957963e+01 1.294098e+00 1.776357e-15
      vertex 1.975000e+01 0.000000e+00 5.000000e+00
      vertex 1.975000e+01 0.000000e+00 1.776357e-15
    endloop
  endfacet
  facet normal 9.238795e-01 3.826834e-01 3.348267e-13
    outer loop
      vertex 1.957963e+01 1.294098e+00 5.000000e+00
      vertex 1.908013e+01 2.500000e+00 1.776357e-15
      vertex 1.908013e+01 2.500000e+00 5.000000e+00
    endloop
  endfacet
  facet normal 9.238795e-01 3.826834e-01 3.348267e-13
    outer loop
      vertex 1.908013e+01 2.500000e+00 1.776357e-15
      vertex 1.957963e+01 1.294098e+00 5.000000e+00
      vertex 1.957963e+01 1.294098e+00 1.776357e-15
    endloop
  endfacet
  facet normal 7.933533e-01 6.087614e-01 6.355167e-13
    outer loop
      vertex 1.908013e+01 2.500000e+00 5.000000e+00
      vertex 1.828553e+01 3.535538e+00 1.776357e-15
      vertex 1.828553e+01 3.535538e+00 5.000000e+00
    endloop
  endfacet
  facet normal 7.933533e-01 6.087614e-01 6.355167e-13
    outer loop
      vertex 1.828553e+01 3.535538e+00 1.776357e-15
      vertex 1.908013e+01 2.500000e+00 5.000000e+00
      vertex 1.908013e+01 2.500000e+00 1.776357e-15
    endloop
  endfacet
  facet normal 6.087614e-01 7.933533e-01 8.929917e-13
    outer loop
      vertex 1.725000e+01 4.330124e+00 5.000000e+00
      vertex 1.828553e+01 3.535538e+00 1.776357e-15
      vertex 1.725000e+01 4.330124e+00 1.776357e-15
    endloop
  endfacet
  facet normal 6.087614e-01 7.933533e-01 8.929917e-13
    outer loop
      vertex 1.828553e+01 3.535538e+00 1.776357e-15
      vertex 1.725000e+01 4.330124e+00 5.000000e+00
      vertex 1.828553e+01 3.535538e+00 5.000000e+00
    endloop
  endfacet
  facet normal 3.826834e-01 9.238795e-01 1.089843e-12
    outer loop
      vertex 1.604410e+01 4.829628e+00 5.000000e+00
      vertex 1.725000e+01 4.330124e+00 1.776357e-15
      vertex 1.604410e+01 4.829628e+00 1.776357e-15
    endloop
  endfacet
  facet normal 3.826834e-01 9.238795e-01 1.089843e-12
    outer loop
      vertex 1.725000e+01 4.330124e+00 1.776357e-15
      vertex 1.604410e+01 4.829628e+00 5.000000e+00
      vertex 1.725000e+01 4.330124e+00 5.000000e+00
    endloop
  endfacet
  facet normal 1.305262e-01 9.914449e-01 1.212414e-12
    outer loop
      vertex 1.475000e+01 5.000000e+00 5.000000e+00
      vertex 1.604410e+01 4.829628e+00 1.776357e-15
      vertex 1.475000e+01 5.000000e+00 1.776357e-15
    endloop
  endfacet
  facet normal 1.305262e-01 9.914449e-01 1.212414e-12
    outer loop
      vertex 1.604410e+01 4.829628e+00 1.776357e-15
      vertex 1.475000e+01 5.000000e+00 5.000000e+00
      vertex 1.604410e+01 4.829628e+00 5.000000e+00
    endloop
  endfacet
  facet normal -7.788767e-02 9.969621e-01 1.251102e-12
    outer loop
      vertex -1.725000e+01 2.500000e+00 5.000000e+00
      vertex 1.475000e+01 5.000000e+00 1.776357e-15
      vertex -1.725000e+01 2.500000e+00 1.776357e-15
    endloop
  endfacet
  facet normal -7.788767e-02 9.969621e-01 1.251102e-12
    outer loop
      vertex 1.475000e+01 5.000000e+00 1.776357e-15
      vertex -1.725000e+01 2.500000e+00 5.000000e+00
      vertex 1.475000e+01 5.000000e+00 5.000000e+00
    endloop
  endfacet
  facet normal -1.305262e-01 9.914449e-01 1.252292e-12
    outer loop
      vertex -1.789705e+01 2.414818e+00 1.500000e+01
      vertex -1.725000e+01 2.500000e+00 1.776357e-15
      vertex -1.789705e+01 2.414818e+00 1.776357e-15
    endloop
  endfacet
  facet normal -1.305262e-01 9.914449e-01 1.252292e-12
    outer loop
      vertex -1.725000e+01 2.500000e+00 1.776357e-15
      vertex -1.789705e+01 2.414818e+00 1.500000e+01
      vertex -1.725000e+01 2.500000e+00 1.500000e+01
    endloop
  endfacet
  facet normal -1.305262e-01 9.914449e-01 1.252292e-12
    outer loop
      vertex -1.725000e+01 2.500000e+00 1.776357e-15
      vertex -1.725000e+01 2.500000e+00 1.500000e+01
      vertex -1.725000e+01 2.500000e+00 5.000000e+00
    endloop
  endfacet
  facet normal -3.826834e-01 9.238795e-01 1.206753e-12
    outer loop
      vertex -1.850000e+01 2.165062e+00 1.500000e+01
      vertex -1.789705e+01 2.414818e+00 1.776357e-15
      vertex -1.850000e+01 2.165062e+00 1.776357e-15
    endloop
  endfacet
  facet normal -3.826834e-01 9.238795e-01 1.206753e-12
    outer loop
      vertex -1.789705e+01 2.414818e+00 1.776357e-15
      vertex -1.850000e+01 2.165062e+00 1.500000e+01
      vertex -1.789705e+01 2.414818e+00 1.500000e+01
    endloop
  endfacet
  facet normal -6.087614e-01 7.933533e-01 1.078974e-12
    outer loop
      vertex -1.901777e+01 1.767769e+00 1.500000e+01
      vertex -1.850000e+01 2.165062e+00 1.776357e-15
      vertex -1.901777e+01 1.767769e+00 1.776357e-15
    endloop
  endfacet
  facet normal -6.087614e-01 7.933533e-01 1.078974e-12
    outer loop
      vertex -1.850000e+01 2.165062e+00 1.776357e-15
      vertex -1.901777e+01 1.767769e+00 1.500000e+01
      vertex -1.850000e+01 2.165062e+00 1.500000e+01
    endloop
  endfacet
  facet normal -7.933533e-01 6.087614e-01 8.776694e-13
    outer loop
      vertex -1.901777e+01 1.767769e+00 1.776357e-15
      vertex -1.941506e+01 1.250000e+00 1.500000e+01
      vertex -1.901777e+01 1.767769e+00 1.500000e+01
    endloop
  endfacet
  facet normal -7.933533e-01 6.087614e-01 8.776694e-13
    outer loop
      vertex -1.941506e+01 1.250000e+00 1.500000e+01
      vertex -1.901777e+01 1.767769e+00 1.776357e-15
      vertex -1.941506e+01 1.250000e+00 1.776357e-15
    endloop
  endfacet
  facet normal -9.238795e-01 3.826834e-01 6.165485e-13
    outer loop
      vertex -1.941506e+01 1.250000e+00 1.776357e-15
      vertex -1.966481e+01 6.470490e-01 1.500000e+01
      vertex -1.941506e+01 1.250000e+00 1.500000e+01
    endloop
  endfacet
  facet normal -9.238795e-01 3.826834e-01 6.165485e-13
    outer loop
      vertex -1.966481e+01 6.470490e-01 1.500000e+01
      vertex -1.941506e+01 1.250000e+00 1.776357e-15
      vertex -1.966481e+01 6.470490e-01 1.776357e-15
    endloop
  endfacet
  facet normal -9.914449e-01 1.305262e-01 3.134116e-13
    outer loop
      vertex -1.966481e+01 6.470490e-01 1.776357e-15
      vertex -1.975000e+01 0.000000e+00 1.500000e+01
      vertex -1.966481e+01 6.470490e-01 1.500000e+01
    endloop
  endfacet
  facet normal -9.914449e-01 1.305262e-01 3.134116e-13
    outer loop
      vertex -1.975000e+01 0.000000e+00 1.500000e+01
      vertex -1.966481e+01 6.470490e-01 1.776357e-15
      vertex -1.975000e+01 0.000000e+00 1.776357e-15
    endloop
  endfacet
  facet normal -9.914449e-01 -1.305262e-01 -1.108316e-14
    outer loop
      vertex -1.975000e+01 0.000000e+00 1.776357e-15
      vertex -1.966481e+01 -6.470490e-01 1.500000e+01
      vertex -1.975000e+01 0.000000e+00 1.500000e+01
    endloop
  endfacet
  facet normal -9.914449e-01 -1.305262e-01 -1.108316e-14
    outer loop
      vertex -1.966481e+01 -6.470490e-01 1.500000e+01
      vertex -1.975000e+01 0.000000e+00 1.776357e-15
      vertex -1.966481e+01 -6.470490e-01 0.000000e+00
    endloop
  endfacet
  facet normal -9.238795e-01 -3.826834e-01 -3.348236e-13
    outer loop
      vertex -1.966481e+01 -6.470490e-01 0.000000e+00
      vertex -1.941506e+01 -1.250000e+00 1.500000e+01
      vertex -1.966481e+01 -6.470490e-01 1.500000e+01
    endloop
  endfacet
  facet normal -9.238795e-01 -3.826834e-01 -3.348236e-13
    outer loop
      vertex -1.941506e+01 -1.250000e+00 1.500000e+01
      vertex -1.966481e+01 -6.470490e-01 0.000000e+00
      vertex -1.941506e+01 -1.250000e+00 0.000000e+00
    endloop
  endfacet
  facet normal -7.933533e-01 -6.087614e-01 -6.357474e-13
    outer loop
      vertex -1.941506e+01 -1.250000e+00 0.000000e+00
      vertex -1.901777e+01 -1.767769e+00 1.500000e+01
      vertex -1.941506e+01 -1.250000e+00 1.500000e+01
    endloop
  endfacet
  facet normal -7.933533e-01 -6.087614e-01 -6.357474e-13
    outer loop
      vertex -1.901777e+01 -1.767769e+00 1.500000e+01
      vertex -1.941506e+01 -1.250000e+00 0.000000e+00
      vertex -1.901777e+01 -1.767769e+00 0.000000e+00
    endloop
  endfacet
  facet normal -6.087614e-01 -7.933533e-01 -8.933423e-13
    outer loop
      vertex -1.850000e+01 -2.165062e+00 0.000000e+00
      vertex -1.901777e+01 -1.767769e+00 1.500000e+01
      vertex -1.901777e+01 -1.767769e+00 0.000000e+00
    endloop
  endfacet
  facet normal -6.087614e-01 -7.933533e-01 -8.933423e-13
    outer loop
      vertex -1.901777e+01 -1.767769e+00 1.500000e+01
      vertex -1.850000e+01 -2.165062e+00 0.000000e+00
      vertex -1.850000e+01 -2.165062e+00 1.500000e+01
    endloop
  endfacet
  facet normal -3.826834e-01 -9.238795e-01 -1.090059e-12
    outer loop
      vertex -1.789705e+01 -2.414818e+00 0.000000e+00
      vertex -1.850000e+01 -2.165062e+00 1.500000e+01
      vertex -1.850000e+01 -2.165062e+00 0.000000e+00
    endloop
  endfacet
  facet normal -3.826834e-01 -9.238795e-01 -1.090059e-12
    outer loop
      vertex -1.850000e+01 -2.165062e+00 1.500000e+01
      vertex -1.789705e+01 -2.414818e+00 0.000000e+00
      vertex -1.789705e+01 -2.414818e+00 1.500000e+01
    endloop
  endfacet
  facet normal -1.305262e-01 -9.914449e-01 -1.212491e-12
    outer loop
      vertex -1.725000e+01 -2.500000e+00 0.000000e+00
      vertex -1.789705e+01 -2.414818e+00 1.500000e+01
      vertex -1.789705e+01 -2.414818e+00 0.000000e+00
    endloop
  endfacet
  facet normal -1.305262e-01 -9.914449e-01 -1.212491e-12
    outer loop
      vertex -1.789705e+01 -2.414818e+00 1.500000e+01
      vertex -1.725000e+01 -2.500000e+00 0.000000e+00
      vertex -1.725000e+01 -2.500000e+00 1.500000e+01
    endloop
  endfacet
  facet normal -1.305262e-01 -9.914449e-01 -1.212491e-12
    outer loop
      vertex -1.725000e+01 -2.500000e+00 1.500000e+01
      vertex -1.725000e+01 -2.500000e+00 0.000000e+00
      vertex -1.725000e+01 -2.500000e+00 5.000000e+00
    endloop
  endfacet
  facet normal 9.914449e-01 -1.305262e-01 -2.488056e-13
    outer loop
      vertex 1.375000e+01 0.000000e+00 5.000000e+00
      vertex 1.378407e+01 2.588196e-01 2.500000e+00
      vertex 1.378407e+01 2.588196e-01 5.000000e+00
    endloop
  endfacet
  facet normal 9.914449e-01 -1.305262e-01 -2.488056e-13
    outer loop
      vertex 1.378407e+01 2.588196e-01 2.500000e+00
      vertex 1.375000e+01 0.000000e+00 5.000000e+00
      vertex 1.375000e+01 0.000000e+00 2.500000e+00
    endloop
  endfacet
  facet normal 6.087614e-01 -7.933533e-01 -1.109971e-12
    outer loop
      vertex 1.425000e+01 8.660278e-01 2.500000e+00
      vertex 1.404289e+01 7.071075e-01 5.000000e+00
      vertex 1.404289e+01 7.071075e-01 2.500000e+00
    endloop
  endfacet
  facet normal 6.087614e-01 -7.933533e-01 -1.109971e-12
    outer loop
      vertex 1.404289e+01 7.071075e-01 5.000000e+00
      vertex 1.425000e+01 8.660278e-01 2.500000e+00
      vertex 1.425000e+01 8.660278e-01 5.000000e+00
    endloop
  endfacet
  facet normal 1.305262e-01 9.914449e-01 1.319240e-12
    outer loop
      vertex 1.449118e+01 -9.659271e-01 5.000000e+00
      vertex 1.475000e+01 -1.000000e+00 2.500000e+00
      vertex 1.449118e+01 -9.659271e-01 2.500000e+00
    endloop
  endfacet
  facet normal 1.305262e-01 9.914449e-01 1.319240e-12
    outer loop
      vertex 1.475000e+01 -1.000000e+00 2.500000e+00
      vertex 1.449118e+01 -9.659271e-01 5.000000e+00
      vertex 1.475000e+01 -1.000000e+00 5.000000e+00
    endloop
  endfacet
  facet normal 3.826834e-01 9.238795e-01 1.214468e-12
    outer loop
      vertex 1.425000e+01 -8.660278e-01 5.000000e+00
      vertex 1.449118e+01 -9.659271e-01 2.500000e+00
      vertex 1.425000e+01 -8.660278e-01 2.500000e+00
    endloop
  endfacet
  facet normal 3.826834e-01 9.238795e-01 1.214468e-12
    outer loop
      vertex 1.449118e+01 -9.659271e-01 2.500000e+00
      vertex 1.425000e+01 -8.660278e-01 5.000000e+00
      vertex 1.449118e+01 -9.659271e-01 5.000000e+00
    endloop
  endfacet
  facet normal 1.305262e-01 -9.914449e-01 -1.342515e-12
    outer loop
      vertex 1.475000e+01 1.000000e+00 2.500000e+00
      vertex 1.449118e+01 9.659271e-01 5.000000e+00
      vertex 1.449118e+01 9.659271e-01 2.500000e+00
    endloop
  endfacet
  facet normal 1.305262e-01 -9.914449e-01 -1.342515e-12
    outer loop
      vertex 1.449118e+01 9.659271e-01 5.000000e+00
      vertex 1.475000e+01 1.000000e+00 2.500000e+00
      vertex 1.475000e+01 1.000000e+00 5.000000e+00
    endloop
  endfacet
  facet normal -7.933533e-01 6.087614e-01 8.777236e-13
    outer loop
      vertex 1.561602e+01 -5.000000e-01 2.500000e+00
      vertex 1.545711e+01 -7.071075e-01 5.000000e+00
      vertex 1.561602e+01 -5.000000e-01 5.000000e+00
    endloop
  endfacet
  facet normal -7.933533e-01 6.087614e-01 8.777236e-13
    outer loop
      vertex 1.545711e+01 -7.071075e-01 5.000000e+00
      vertex 1.561602e+01 -5.000000e-01 2.500000e+00
      vertex 1.545711e+01 -7.071075e-01 2.500000e+00
    endloop
  endfacet
  facet normal -6.153749e-14 1.338746e-12 -1.000000e+00
    outer loop
      vertex 1.407707e+01 -2.511406e+00 2.500000e+00
      vertex 1.542293e+01 -2.511406e+00 2.500000e+00
      vertex 1.475000e+01 -2.599998e+00 2.500000e+00
    endloop
  endfacet
  facet normal -6.153749e-14 1.338746e-12 -1.000000e+00
    outer loop
      vertex 1.542293e+01 -2.511406e+00 2.500000e+00
      vertex 1.407707e+01 -2.511406e+00 2.500000e+00
      vertex 1.345000e+01 -2.251663e+00 2.500000e+00
    endloop
  endfacet
  facet normal -6.153749e-14 1.338746e-12 -1.000000e+00
    outer loop
      vertex 1.542293e+01 -2.511406e+00 2.500000e+00
      vertex 1.345000e+01 -2.251663e+00 2.500000e+00
      vertex 1.605000e+01 -2.251663e+00 2.500000e+00
    endloop
  endfacet
  facet normal -6.153749e-14 1.338746e-12 -1.000000e+00
    outer loop
      vertex 1.605000e+01 -2.251663e+00 2.500000e+00
      vertex 1.345000e+01 -2.251663e+00 2.500000e+00
      vertex 1.291152e+01 -1.838478e+00 2.500000e+00
    endloop
  endfacet
  facet normal -6.153749e-14 1.338746e-12 -1.000000e+00
    outer loop
      vertex 1.605000e+01 -2.251663e+00 2.500000e+00
      vertex 1.291152e+01 -1.838478e+00 2.500000e+00
      vertex 1.658848e+01 -1.838478e+00 2.500000e+00
    endloop
  endfacet
  facet normal -6.153749e-14 1.338746e-12 -1.000000e+00
    outer loop
      vertex 1.658848e+01 -1.838478e+00 2.500000e+00
      vertex 1.291152e+01 -1.838478e+00 2.500000e+00
      vertex 1.249833e+01 -1.300003e+00 2.500000e+00
    endloop
  endfacet
  facet normal -6.153749e-14 1.338746e-12 -1.000000e+00
    outer loop
      vertex 1.658848e+01 -1.838478e+00 2.500000e+00
      vertex 1.249833e+01 -1.300003e+00 2.500000e+00
      vertex 1.700167e+01 -1.300003e+00 2.500000e+00
    endloop
  endfacet
  facet normal -6.153749e-14 1.338746e-12 -1.000000e+00
    outer loop
      vertex 1.700167e+01 -1.300003e+00 2.500000e+00
      vertex 1.249833e+01 -1.300003e+00 2.500000e+00
      vertex 1.223859e+01 -6.729279e-01 2.500000e+00
    endloop
  endfacet
  facet normal -6.153749e-14 1.338746e-12 -1.000000e+00
    outer loop
      vertex 1.700167e+01 -1.300003e+00 2.500000e+00
      vertex 1.223859e+01 -6.729279e-01 2.500000e+00
      vertex 1.475000e+01 -1.000000e+00 2.500000e+00
    endloop
  endfacet
  facet normal -6.153749e-14 1.338746e-12 -1.000000e+00
    outer loop
      vertex 1.475000e+01 -1.000000e+00 2.500000e+00
      vertex 1.223859e+01 -6.729279e-01 2.500000e+00
      vertex 1.449118e+01 -9.659271e-01 2.500000e+00
    endloop
  endfacet
  facet normal -6.153749e-14 1.338746e-12 -1.000000e+00
    outer loop
      vertex 1.449118e+01 -9.659271e-01 2.500000e+00
      vertex 1.223859e+01 -6.729279e-01 2.500000e+00
      vertex 1.425000e+01 -8.660278e-01 2.500000e+00
    endloop
  endfacet
  facet normal -6.153749e-14 1.338746e-12 -1.000000e+00
    outer loop
      vertex 1.425000e+01 -8.660278e-01 2.500000e+00
      vertex 1.223859e+01 -6.729279e-01 2.500000e+00
      vertex 1.404289e+01 -7.071075e-01 2.500000e+00
    endloop
  endfacet
  facet normal -6.153749e-14 1.338746e-12 -1.000000e+00
    outer loop
      vertex 1.404289e+01 -7.071075e-01 2.500000e+00
      vertex 1.223859e+01 -6.729279e-01 2.500000e+00
      vertex 1.388398e+01 -5.000000e-01 2.500000e+00
    endloop
  endfacet
  facet normal -6.153749e-14 1.338746e-12 -1.000000e+00
    outer loop
      vertex 1.388398e+01 -5.000000e-01 2.500000e+00
      vertex 1.223859e+01 -6.729279e-01 2.500000e+00
      vertex 1.215000e+01 0.000000e+00 2.500000e+00
    endloop
  endfacet
  facet normal -6.153749e-14 1.338746e-12 -1.000000e+00
    outer loop
      vertex 1.388398e+01 -5.000000e-01 2.500000e+00
      vertex 1.215000e+01 0.000000e+00 2.500000e+00
      vertex 1.378407e+01 -2.588196e-01 2.500000e+00
    endloop
  endfacet
  facet normal -6.153749e-14 1.338746e-12 -1.000000e+00
    outer loop
      vertex 1.378407e+01 -2.588196e-01 2.500000e+00
      vertex 1.215000e+01 0.000000e+00 2.500000e+00
      vertex 1.375000e+01 0.000000e+00 2.500000e+00
    endloop
  endfacet
  facet normal -6.153749e-14 1.338746e-12 -1.000000e+00
    outer loop
      vertex 1.375000e+01 0.000000e+00 2.500000e+00
      vertex 1.215000e+01 0.000000e+00 2.500000e+00
      vertex 1.223859e+01 6.729279e-01 2.500000e+00
    endloop
  endfacet
  facet normal -6.153749e-14 1.338746e-12 -1.000000e+00
    outer loop
      vertex 1.375000e+01 0.000000e+00 2.500000e+00
      vertex 1.223859e+01 6.729279e-01 2.500000e+00
      vertex 1.378407e+01 2.588196e-01 2.500000e+00
    endloop
  endfacet
  facet normal -6.153749e-14 1.338746e-12 -1.000000e+00
    outer loop
      vertex 1.378407e+01 2.588196e-01 2.500000e+00
      vertex 1.223859e+01 6.729279e-01 2.500000e+00
      vertex 1.388398e+01 5.000000e-01 2.500000e+00
    endloop
  endfacet
  facet normal -6.153749e-14 1.338746e-12 -1.000000e+00
    outer loop
      vertex 1.388398e+01 5.000000e-01 2.500000e+00
      vertex 1.223859e+01 6.729279e-01 2.500000e+00
      vertex 1.404289e+01 7.071075e-01 2.500000e+00
    endloop
  endfacet
  facet normal -6.153749e-14 1.338746e-12 -1.000000e+00
    outer loop
      vertex 1.404289e+01 7.071075e-01 2.500000e+00
      vertex 1.223859e+01 6.729279e-01 2.500000e+00
      vertex 1.249833e+01 1.300003e+00 2.500000e+00
    endloop
  endfacet
  facet normal -6.153749e-14 1.338746e-12 -1.000000e+00
    outer loop
      vertex 1.404289e+01 7.071075e-01 2.500000e+00
      vertex 1.249833e+01 1.300003e+00 2.500000e+00
      vertex 1.425000e+01 8.660278e-01 2.500000e+00
    endloop
  endfacet
  facet normal -6.153749e-14 1.338746e-12 -1.000000e+00
    outer loop
      vertex 1.425000e+01 8.660278e-01 2.500000e+00
      vertex 1.249833e+01 1.300003e+00 2.500000e+00
      vertex 1.449118e+01 9.659271e-01 2.500000e+00
    endloop
  endfacet
  facet normal -6.153749e-14 1.338746e-12 -1.000000e+00
    outer loop
      vertex 1.449118e+01 9.659271e-01 2.500000e+00
      vertex 1.249833e+01 1.300003e+00 2.500000e+00
      vertex 1.475000e+01 1.000000e+00 2.500000e+00
    endloop
  endfacet
  facet normal -6.153749e-14 1.338746e-12 -1.000000e+00
    outer loop
      vertex 1.475000e+01 -1.000000e+00 2.500000e+00
      vertex 1.726141e+01 -6.729279e-01 2.500000e+00
      vertex 1.700167e+01 -1.300003e+00 2.500000e+00
    endloop
  endfacet
  facet normal -6.153749e-14 1.338746e-12 -1.000000e+00
    outer loop
      vertex 1.726141e+01 -6.729279e-01 2.500000e+00
      vertex 1.475000e+01 -1.000000e+00 2.500000e+00
      vertex 1.500882e+01 -9.659271e-01 2.500000e+00
    endloop
  endfacet
  facet normal -6.153749e-14 1.338746e-12 -1.000000e+00
    outer loop
      vertex 1.726141e+01 -6.729279e-01 2.500000e+00
      vertex 1.500882e+01 -9.659271e-01 2.500000e+00
      vertex 1.525000e+01 -8.660278e-01 2.500000e+00
    endloop
  endfacet
  facet normal -6.153749e-14 1.338746e-12 -1.000000e+00
    outer loop
      vertex 1.726141e+01 -6.729279e-01 2.500000e+00
      vertex 1.525000e+01 -8.660278e-01 2.500000e+00
      vertex 1.545711e+01 -7.071075e-01 2.500000e+00
    endloop
  endfacet
  facet normal -6.153749e-14 1.338746e-12 -1.000000e+00
    outer loop
      vertex 1.726141e+01 -6.729279e-01 2.500000e+00
      vertex 1.545711e+01 -7.071075e-01 2.500000e+00
      vertex 1.561602e+01 -5.000000e-01 2.500000e+00
    endloop
  endfacet
  facet normal -6.153749e-14 1.338746e-12 -1.000000e+00
    outer loop
      vertex 1.726141e+01 -6.729279e-01 2.500000e+00
      vertex 1.561602e+01 -5.000000e-01 2.500000e+00
      vertex 1.735000e+01 0.000000e+00 2.500000e+00
    endloop
  endfacet
  facet normal -6.153749e-14 1.338746e-12 -1.000000e+00
    outer loop
      vertex 1.735000e+01 0.000000e+00 2.500000e+00
      vertex 1.561602e+01 -5.000000e-01 2.500000e+00
      vertex 1.571593e+01 -2.588196e-01 2.500000e+00
    endloop
  endfacet
  facet normal -6.153749e-14 1.338746e-12 -1.000000e+00
    outer loop
      vertex 1.735000e+01 0.000000e+00 2.500000e+00
      vertex 1.571593e+01 -2.588196e-01 2.500000e+00
      vertex 1.575000e+01 0.000000e+00 2.500000e+00
    endloop
  endfacet
  facet normal -6.153749e-14 1.338746e-12 -1.000000e+00
    outer loop
      vertex 1.735000e+01 0.000000e+00 2.500000e+00
      vertex 1.575000e+01 0.000000e+00 2.500000e+00
      vertex 1.571593e+01 2.588196e-01 2.500000e+00
    endloop
  endfacet
  facet normal -6.153749e-14 1.338746e-12 -1.000000e+00
    outer loop
      vertex 1.735000e+01 0.000000e+00 2.500000e+00
      vertex 1.571593e+01 2.588196e-01 2.500000e+00
      vertex 1.726141e+01 6.729279e-01 2.500000e+00
    endloop
  endfacet
  facet normal -6.153749e-14 1.338746e-12 -1.000000e+00
    outer loop
      vertex 1.726141e+01 6.729279e-01 2.500000e+00
      vertex 1.571593e+01 2.588196e-01 2.500000e+00
      vertex 1.561602e+01 5.000000e-01 2.500000e+00
    endloop
  endfacet
  facet normal -6.153749e-14 1.338746e-12 -1.000000e+00
    outer loop
      vertex 1.726141e+01 6.729279e-01 2.500000e+00
      vertex 1.561602e+01 5.000000e-01 2.500000e+00
      vertex 1.545711e+01 7.071075e-01 2.500000e+00
    endloop
  endfacet
  facet normal -6.153749e-14 1.338746e-12 -1.000000e+00
    outer loop
      vertex 1.726141e+01 6.729279e-01 2.500000e+00
      vertex 1.545711e+01 7.071075e-01 2.500000e+00
      vertex 1.700167e+01 1.300003e+00 2.500000e+00
    endloop
  endfacet
  facet normal -6.153749e-14 1.338746e-12 -1.000000e+00
    outer loop
      vertex 1.700167e+01 1.300003e+00 2.500000e+00
      vertex 1.545711e+01 7.071075e-01 2.500000e+00
      vertex 1.525000e+01 8.660278e-01 2.500000e+00
    endloop
  endfacet
  facet normal -6.153749e-14 1.338746e-12 -1.000000e+00
    outer loop
      vertex 1.700167e+01 1.300003e+00 2.500000e+00
      vertex 1.525000e+01 8.660278e-01 2.500000e+00
      vertex 1.500882e+01 9.659271e-01 2.500000e+00
    endloop
  endfacet
  facet normal -6.153749e-14 1.338746e-12 -1.000000e+00
    outer loop
      vertex 1.700167e+01 1.300003e+00 2.500000e+00
      vertex 1.500882e+01 9.659271e-01 2.500000e+00
      vertex 1.475000e+01 1.000000e+00 2.500000e+00
    endloop
  endfacet
  facet normal -6.153749e-14 1.338746e-12 -1.000000e+00
    outer loop
      vertex 1.700167e+01 1.300003e+00 2.500000e+00
      vertex 1.475000e+01 1.000000e+00 2.500000e+00
      vertex 1.249833e+01 1.300003e+00 2.500000e+00
    endloop
  endfacet
  facet normal -6.153749e-14 1.338746e-12 -1.000000e+00
    outer loop
      vertex 1.700167e+01 1.300003e+00 2.500000e+00
      vertex 1.249833e+01 1.300003e+00 2.500000e+00
      vertex 1.291152e+01 1.838478e+00 2.500000e+00
    endloop
  endfacet
  facet normal -6.153749e-14 1.338746e-12 -1.000000e+00
    outer loop
      vertex 1.700167e+01 1.300003e+00 2.500000e+00
      vertex 1.291152e+01 1.838478e+00 2.500000e+00
      vertex 1.658848e+01 1.838478e+00 2.500000e+00
    endloop
  endfacet
  facet normal -6.153749e-14 1.338746e-12 -1.000000e+00
    outer loop
      vertex 1.658848e+01 1.838478e+00 2.500000e+00
      vertex 1.291152e+01 1.838478e+00 2.500000e+00
      vertex 1.345000e+01 2.251663e+00 2.500000e+00
    endloop
  endfacet
  facet normal -6.153749e-14 1.338746e-12 -1.000000e+00
    outer loop
      vertex 1.658848e+01 1.838478e+00 2.500000e+00
      vertex 1.345000e+01 2.251663e+00 2.500000e+00
      vertex 1.605000e+01 2.251663e+00 2.500000e+00
    endloop
  endfacet
  facet normal -6.153749e-14 1.338746e-12 -1.000000e+00
    outer loop
      vertex 1.605000e+01 2.251663e+00 2.500000e+00
      vertex 1.345000e+01 2.251663e+00 2.500000e+00
      vertex 1.407707e+01 2.511406e+00 2.500000e+00
    endloop
  endfacet
  facet normal -6.153749e-14 1.338746e-12 -1.000000e+00
    outer loop
      vertex 1.605000e+01 2.251663e+00 2.500000e+00
      vertex 1.407707e+01 2.511406e+00 2.500000e+00
      vertex 1.542293e+01 2.511406e+00 2.500000e+00
    endloop
  endfacet
  facet normal -6.153749e-14 1.338746e-12 -1.000000e+00
    outer loop
      vertex 1.542293e+01 2.511406e+00 2.500000e+00
      vertex 1.407707e+01 2.511406e+00 2.500000e+00
      vertex 1.475000e+01 2.599998e+00 2.500000e+00
    endloop
  endfacet
  facet normal -9.914449e-01 1.305262e-01 2.465162e-13
    outer loop
      vertex 1.575000e+01 0.000000e+00 2.500000e+00
      vertex 1.571593e+01 -2.588196e-01 5.000000e+00
      vertex 1.575000e+01 0.000000e+00 5.000000e+00
    endloop
  endfacet
  facet normal -9.914449e-01 1.305262e-01 2.465162e-13
    outer loop
      vertex 1.571593e+01 -2.588196e-01 5.000000e+00
      vertex 1.575000e+01 0.000000e+00 2.500000e+00
      vertex 1.571593e+01 -2.588196e-01 2.500000e+00
    endloop
  endfacet
  facet normal 6.087614e-01 7.933533e-01 1.025466e-12
    outer loop
      vertex 1.404289e+01 -7.071075e-01 5.000000e+00
      vertex 1.425000e+01 -8.660278e-01 2.500000e+00
      vertex 1.404289e+01 -7.071075e-01 2.500000e+00
    endloop
  endfacet
  facet normal 6.087614e-01 7.933533e-01 1.025466e-12
    outer loop
      vertex 1.425000e+01 -8.660278e-01 2.500000e+00
      vertex 1.404289e+01 -7.071075e-01 5.000000e+00
      vertex 1.425000e+01 -8.660278e-01 5.000000e+00
    endloop
  endfacet
  facet normal -6.087614e-01 7.933533e-01 1.114065e-12
    outer loop
      vertex 1.525000e+01 -8.660278e-01 5.000000e+00
      vertex 1.545711e+01 -7.071075e-01 2.500000e+00
      vertex 1.525000e+01 -8.660278e-01 2.500000e+00
    endloop
  endfacet
  facet normal -6.087614e-01 7.933533e-01 1.114065e-12
    outer loop
      vertex 1.545711e+01 -7.071075e-01 2.500000e+00
      vertex 1.525000e+01 -8.660278e-01 5.000000e+00
      vertex 1.545711e+01 -7.071075e-01 5.000000e+00
    endloop
  endfacet
  facet normal -6.087614e-01 -7.933533e-01 -1.021371e-12
    outer loop
      vertex 1.545711e+01 7.071075e-01 2.500000e+00
      vertex 1.525000e+01 8.660278e-01 5.000000e+00
      vertex 1.525000e+01 8.660278e-01 2.500000e+00
    endloop
  endfacet
  facet normal -6.087614e-01 -7.933533e-01 -1.021371e-12
    outer loop
      vertex 1.525000e+01 8.660278e-01 5.000000e+00
      vertex 1.545711e+01 7.071075e-01 2.500000e+00
      vertex 1.545711e+01 7.071075e-01 5.000000e+00
    endloop
  endfacet
  facet normal -1.305262e-01 -9.914449e-01 -1.323820e-12
    outer loop
      vertex 1.500882e+01 9.659271e-01 2.500000e+00
      vertex 1.475000e+01 1.000000e+00 5.000000e+00
      vertex 1.475000e+01 1.000000e+00 2.500000e+00
    endloop
  endfacet
  facet normal -1.305262e-01 -9.914449e-01 -1.323820e-12
    outer loop
      vertex 1.475000e+01 1.000000e+00 5.000000e+00
      vertex 1.500882e+01 9.659271e-01 2.500000e+00
      vertex 1.500882e+01 9.659271e-01 5.000000e+00
    endloop
  endfacet
  facet normal -1.305262e-01 9.914449e-01 1.337934e-12
    outer loop
      vertex 1.475000e+01 -1.000000e+00 5.000000e+00
      vertex 1.500882e+01 -9.659271e-01 2.500000e+00
      vertex 1.475000e+01 -1.000000e+00 2.500000e+00
    endloop
  endfacet
  facet normal -1.305262e-01 9.914449e-01 1.337934e-12
    outer loop
      vertex 1.500882e+01 -9.659271e-01 2.500000e+00
      vertex 1.475000e+01 -1.000000e+00 5.000000e+00
      vertex 1.500882e+01 -9.659271e-01 5.000000e+00
    endloop
  endfacet
  facet normal -9.238795e-01 3.826834e-01 5.818141e-13
    outer loop
      vertex 1.571593e+01 -2.588196e-01 2.500000e+00
      vertex 1.561602e+01 -5.000000e-01 5.000000e+00
      vertex 1.571593e+01 -2.588196e-01 5.000000e+00
    endloop
  endfacet
  facet normal -9.238795e-01 3.826834e-01 5.818141e-13
    outer loop
      vertex 1.561602e+01 -5.000000e-01 5.000000e+00
      vertex 1.571593e+01 -2.588196e-01 2.500000e+00
      vertex 1.561602e+01 -5.000000e-01 2.500000e+00
    endloop
  endfacet
  facet normal 9.914449e-01 1.305262e-01 1.022234e-13
    outer loop
      vertex 1.378407e+01 -2.588196e-01 5.000000e+00
      vertex 1.375000e+01 0.000000e+00 2.500000e+00
      vertex 1.375000e+01 0.000000e+00 5.000000e+00
    endloop
  endfacet
  facet normal 9.914449e-01 1.305262e-01 1.022234e-13
    outer loop
      vertex 1.375000e+01 0.000000e+00 2.500000e+00
      vertex 1.378407e+01 -2.588196e-01 5.000000e+00
      vertex 1.378407e+01 -2.588196e-01 2.500000e+00
    endloop
  endfacet
  facet normal -3.826834e-01 -9.238795e-01 -1.212776e-12
    outer loop
      vertex 1.525000e+01 8.660278e-01 2.500000e+00
      vertex 1.500882e+01 9.659271e-01 5.000000e+00
      vertex 1.500882e+01 9.659271e-01 2.500000e+00
    endloop
  endfacet
  facet normal -3.826834e-01 -9.238795e-01 -1.212776e-12
    outer loop
      vertex 1.500882e+01 9.659271e-01 5.000000e+00
      vertex 1.525000e+01 8.660278e-01 2.500000e+00
      vertex 1.525000e+01 8.660278e-01 5.000000e+00
    endloop
  endfacet
  facet normal 7.933533e-01 6.087614e-01 7.608531e-13
    outer loop
      vertex 1.404289e+01 -7.071075e-01 5.000000e+00
      vertex 1.388398e+01 -5.000000e-01 2.500000e+00
      vertex 1.388398e+01 -5.000000e-01 5.000000e+00
    endloop
  endfacet
  facet normal 7.933533e-01 6.087614e-01 7.608531e-13
    outer loop
      vertex 1.388398e+01 -5.000000e-01 2.500000e+00
      vertex 1.404289e+01 -7.071075e-01 5.000000e+00
      vertex 1.404289e+01 -7.071075e-01 2.500000e+00
    endloop
  endfacet
  facet normal -3.826834e-01 9.238795e-01 1.269718e-12
    outer loop
      vertex 1.500882e+01 -9.659271e-01 5.000000e+00
      vertex 1.525000e+01 -8.660278e-01 2.500000e+00
      vertex 1.500882e+01 -9.659271e-01 2.500000e+00
    endloop
  endfacet
  facet normal -3.826834e-01 9.238795e-01 1.269718e-12
    outer loop
      vertex 1.525000e+01 -8.660278e-01 2.500000e+00
      vertex 1.500882e+01 -9.659271e-01 5.000000e+00
      vertex 1.525000e+01 -8.660278e-01 5.000000e+00
    endloop
  endfacet
  facet normal 9.238795e-01 3.826834e-01 4.464699e-13
    outer loop
      vertex 1.388398e+01 -5.000000e-01 5.000000e+00
      vertex 1.378407e+01 -2.588196e-01 2.500000e+00
      vertex 1.378407e+01 -2.588196e-01 5.000000e+00
    endloop
  endfacet
  facet normal 9.238795e-01 3.826834e-01 4.464699e-13
    outer loop
      vertex 1.378407e+01 -2.588196e-01 2.500000e+00
      vertex 1.388398e+01 -5.000000e-01 5.000000e+00
      vertex 1.388398e+01 -5.000000e-01 2.500000e+00
    endloop
  endfacet
  facet normal -3.826834e-01 9.238795e-01 1.261027e-12
    outer loop
      vertex 1.542293e+01 -2.511406e+00 2.500000e+00
      vertex 1.605000e+01 -2.251663e+00 0.000000e+00
      vertex 1.542293e+01 -2.511406e+00 0.000000e+00
    endloop
  endfacet
  facet normal -3.826834e-01 9.238795e-01 1.261027e-12
    outer loop
      vertex 1.605000e+01 -2.251663e+00 0.000000e+00
      vertex 1.542293e+01 -2.511406e+00 2.500000e+00
      vertex 1.605000e+01 -2.251663e+00 2.500000e+00
    endloop
  endfacet
  facet normal 7.933533e-01 6.087614e-01 7.681223e-13
    outer loop
      vertex 1.291152e+01 -1.838478e+00 2.500000e+00
      vertex 1.249833e+01 -1.300003e+00 0.000000e+00
      vertex 1.249833e+01 -1.300003e+00 2.500000e+00
    endloop
  endfacet
  facet normal 7.933533e-01 6.087614e-01 7.681223e-13
    outer loop
      vertex 1.249833e+01 -1.300003e+00 0.000000e+00
      vertex 1.291152e+01 -1.838478e+00 2.500000e+00
      vertex 1.291152e+01 -1.838478e+00 0.000000e+00
    endloop
  endfacet
  facet normal 6.087614e-01 7.933533e-01 1.026573e-12
    outer loop
      vertex 1.291152e+01 -1.838478e+00 2.500000e+00
      vertex 1.345000e+01 -2.251663e+00 0.000000e+00
      vertex 1.291152e+01 -1.838478e+00 0.000000e+00
    endloop
  endfacet
  facet normal 6.087614e-01 7.933533e-01 1.026573e-12
    outer loop
      vertex 1.345000e+01 -2.251663e+00 0.000000e+00
      vertex 1.291152e+01 -1.838478e+00 2.500000e+00
      vertex 1.345000e+01 -2.251663e+00 2.500000e+00
    endloop
  endfacet
  facet normal -6.087614e-01 -7.933533e-01 -1.024725e-12
    outer loop
      vertex 1.658848e+01 1.838478e+00 1.776357e-15
      vertex 1.605000e+01 2.251663e+00 2.500000e+00
      vertex 1.605000e+01 2.251663e+00 1.776357e-15
    endloop
  endfacet
  facet normal -6.087614e-01 -7.933533e-01 -1.024725e-12
    outer loop
      vertex 1.605000e+01 2.251663e+00 2.500000e+00
      vertex 1.658848e+01 1.838478e+00 1.776357e-15
      vertex 1.658848e+01 1.838478e+00 2.500000e+00
    endloop
  endfacet
  facet normal -9.238795e-01 -3.826834e-01 -4.564436e-13
    outer loop
      vertex 1.700167e+01 1.300003e+00 1.776357e-15
      vertex 1.726141e+01 6.729279e-01 2.500000e+00
      vertex 1.700167e+01 1.300003e+00 2.500000e+00
    endloop
  endfacet
  facet normal -9.238795e-01 -3.826834e-01 -4.564436e-13
    outer loop
      vertex 1.726141e+01 6.729279e-01 2.500000e+00
      vertex 1.700167e+01 1.300003e+00 1.776357e-15
      vertex 1.726141e+01 6.729279e-01 1.776357e-15
    endloop
  endfacet
  facet normal 6.087614e-01 -7.933533e-01 -1.097871e-12
    outer loop
      vertex 1.345000e+01 2.251663e+00 1.776357e-15
      vertex 1.291152e+01 1.838478e+00 2.500000e+00
      vertex 1.291152e+01 1.838478e+00 1.776357e-15
    endloop
  endfacet
  facet normal 6.087614e-01 -7.933533e-01 -1.097871e-12
    outer loop
      vertex 1.291152e+01 1.838478e+00 2.500000e+00
      vertex 1.345000e+01 2.251663e+00 1.776357e-15
      vertex 1.345000e+01 2.251663e+00 2.500000e+00
    endloop
  endfacet
  facet normal -9.238795e-01 -3.826834e-01 -4.473532e-13
    outer loop
      vertex 1.561602e+01 5.000000e-01 2.500000e+00
      vertex 1.571593e+01 2.588196e-01 5.000000e+00
      vertex 1.561602e+01 5.000000e-01 5.000000e+00
    endloop
  endfacet
  facet normal -9.238795e-01 -3.826834e-01 -4.473532e-13
    outer loop
      vertex 1.571593e+01 2.588196e-01 5.000000e+00
      vertex 1.561602e+01 5.000000e-01 2.500000e+00
      vertex 1.571593e+01 2.588196e-01 2.500000e+00
    endloop
  endfacet
  facet normal 9.238795e-01 -3.826834e-01 -5.674245e-13
    outer loop
      vertex 1.223859e+01 6.729279e-01 2.500000e+00
      vertex 1.249833e+01 1.300003e+00 1.776357e-15
      vertex 1.249833e+01 1.300003e+00 2.500000e+00
    endloop
  endfacet
  facet normal 9.238795e-01 -3.826834e-01 -5.674245e-13
    outer loop
      vertex 1.249833e+01 1.300003e+00 1.776357e-15
      vertex 1.223859e+01 6.729279e-01 2.500000e+00
      vertex 1.223859e+01 6.729279e-01 1.776357e-15
    endloop
  endfacet
  facet normal -1.529228e-13 1.242337e-12 -1.000000e+00
    outer loop
      vertex -1.725000e+01 -2.500000e+00 0.000000e+00
      vertex 1.604410e+01 -4.829628e+00 0.000000e+00
      vertex 1.475000e+01 -5.000000e+00 0.000000e+00
    endloop
  endfacet
  facet normal -1.529228e-13 1.242337e-12 -1.000000e+00
    outer loop
      vertex 1.604410e+01 -4.829628e+00 0.000000e+00
      vertex -1.725000e+01 -2.500000e+00 0.000000e+00
      vertex 1.725000e+01 -4.330124e+00 0.000000e+00
    endloop
  endfacet
  facet normal -1.529228e-13 1.242337e-12 -1.000000e+00
    outer loop
      vertex 1.725000e+01 -4.330124e+00 0.000000e+00
      vertex -1.725000e+01 -2.500000e+00 0.000000e+00
      vertex 1.828553e+01 -3.535538e+00 0.000000e+00
    endloop
  endfacet
  facet normal -1.529228e-13 1.242337e-12 -1.000000e+00
    outer loop
      vertex 1.828553e+01 -3.535538e+00 0.000000e+00
      vertex -1.725000e+01 -2.500000e+00 0.000000e+00
      vertex 1.475000e+01 -2.599998e+00 0.000000e+00
    endloop
  endfacet
  facet normal -1.529228e-13 1.242337e-12 -1.000000e+00
    outer loop
      vertex 1.475000e+01 -2.599998e+00 0.000000e+00
      vertex -1.725000e+01 -2.500000e+00 0.000000e+00
      vertex 1.407707e+01 -2.511406e+00 0.000000e+00
    endloop
  endfacet
  facet normal -1.529228e-13 1.242337e-12 -1.000000e+00
    outer loop
      vertex 1.407707e+01 -2.511406e+00 0.000000e+00
      vertex -1.725000e+01 -2.500000e+00 0.000000e+00
      vertex 1.345000e+01 -2.251663e+00 0.000000e+00
    endloop
  endfacet
  facet normal -1.529228e-13 1.242337e-12 -1.000000e+00
    outer loop
      vertex 1.345000e+01 -2.251663e+00 0.000000e+00
      vertex -1.725000e+01 -2.500000e+00 0.000000e+00
      vertex -1.789705e+01 -2.414818e+00 0.000000e+00
    endloop
  endfacet
  facet normal -1.529228e-13 1.242337e-12 -1.000000e+00
    outer loop
      vertex 1.345000e+01 -2.251663e+00 0.000000e+00
      vertex -1.789705e+01 -2.414818e+00 0.000000e+00
      vertex -1.850000e+01 -2.165062e+00 0.000000e+00
    endloop
  endfacet
  facet normal -1.529228e-13 1.242337e-12 -1.000000e+00
    outer loop
      vertex 1.345000e+01 -2.251663e+00 0.000000e+00
      vertex -1.850000e+01 -2.165062e+00 0.000000e+00
      vertex 1.291152e+01 -1.838478e+00 0.000000e+00
    endloop
  endfacet
  facet normal -1.529228e-13 1.242337e-12 -1.000000e+00
    outer loop
      vertex 1.291152e+01 -1.838478e+00 0.000000e+00
      vertex -1.850000e+01 -2.165062e+00 0.000000e+00
      vertex -1.901777e+01 -1.767769e+00 0.000000e+00
    endloop
  endfacet
  facet normal -1.529228e-13 1.242337e-12 -1.000000e+00
    outer loop
      vertex 1.291152e+01 -1.838478e+00 0.000000e+00
      vertex -1.901777e+01 -1.767769e+00 0.000000e+00
      vertex 1.249833e+01 -1.300003e+00 0.000000e+00
    endloop
  endfacet
  facet normal -1.529228e-13 1.242337e-12 -1.000000e+00
    outer loop
      vertex 1.249833e+01 -1.300003e+00 0.000000e+00
      vertex -1.901777e+01 -1.767769e+00 0.000000e+00
      vertex -1.941506e+01 -1.250000e+00 0.000000e+00
    endloop
  endfacet
  facet normal -1.529228e-13 1.242337e-12 -1.000000e+00
    outer loop
      vertex 1.249833e+01 -1.300003e+00 0.000000e+00
      vertex -1.941506e+01 -1.250000e+00 0.000000e+00
      vertex 1.223859e+01 -6.729279e-01 0.000000e+00
    endloop
  endfacet
  facet normal -1.529228e-13 1.242337e-12 -1.000000e+00
    outer loop
      vertex 1.223859e+01 -6.729279e-01 0.000000e+00
      vertex -1.941506e+01 -1.250000e+00 0.000000e+00
      vertex -1.966481e+01 -6.470490e-01 0.000000e+00
    endloop
  endfacet
  facet normal -1.529228e-13 1.242337e-12 -1.000000e+00
    outer loop
      vertex 1.223859e+01 -6.729279e-01 0.000000e+00
      vertex -1.966481e+01 -6.470490e-01 0.000000e+00
      vertex 1.215000e+01 0.000000e+00 1.776357e-15
    endloop
  endfacet
  facet normal -1.529228e-13 1.242337e-12 -1.000000e+00
    outer loop
      vertex 1.215000e+01 0.000000e+00 1.776357e-15
      vertex -1.966481e+01 -6.470490e-01 0.000000e+00
      vertex -1.975000e+01 0.000000e+00 1.776357e-15
    endloop
  endfacet
  facet normal -1.529228e-13 1.242337e-12 -1.000000e+00
    outer loop
      vertex 1.215000e+01 0.000000e+00 1.776357e-15
      vertex -1.975000e+01 0.000000e+00 1.776357e-15
      vertex -1.966481e+01 6.470490e-01 1.776357e-15
    endloop
  endfacet
  facet normal -1.529228e-13 1.242337e-12 -1.000000e+00
    outer loop
      vertex 1.215000e+01 0.000000e+00 1.776357e-15
      vertex -1.966481e+01 6.470490e-01 1.776357e-15
      vertex 1.223859e+01 6.729279e-01 1.776357e-15
    endloop
  endfacet
  facet normal -1.529228e-13 1.242337e-12 -1.000000e+00
    outer loop
      vertex 1.223859e+01 6.729279e-01 1.776357e-15
      vertex -1.966481e+01 6.470490e-01 1.776357e-15
      vertex -1.941506e+01 1.250000e+00 1.776357e-15
    endloop
  endfacet
  facet normal -1.529228e-13 1.242337e-12 -1.000000e+00
    outer loop
      vertex 1.223859e+01 6.729279e-01 1.776357e-15
      vertex -1.941506e+01 1.250000e+00 1.776357e-15
      vertex 1.249833e+01 1.300003e+00 1.776357e-15
    endloop
  endfacet
  facet normal -1.529228e-13 1.242337e-12 -1.000000e+00
    outer loop
      vertex 1.249833e+01 1.300003e+00 1.776357e-15
      vertex -1.941506e+01 1.250000e+00 1.776357e-15
      vertex -1.901777e+01 1.767769e+00 1.776357e-15
    endloop
  endfacet
  facet normal -1.529228e-13 1.242337e-12 -1.000000e+00
    outer loop
      vertex 1.249833e+01 1.300003e+00 1.776357e-15
      vertex -1.901777e+01 1.767769e+00 1.776357e-15
      vertex 1.291152e+01 1.838478e+00 1.776357e-15
    endloop
  endfacet
  facet normal -1.529228e-13 1.242337e-12 -1.000000e+00
    outer loop
      vertex 1.291152e+01 1.838478e+00 1.776357e-15
      vertex -1.901777e+01 1.767769e+00 1.776357e-15
      vertex -1.850000e+01 2.165062e+00 1.776357e-15
    endloop
  endfacet
  facet normal -1.529228e-13 1.242337e-12 -1.000000e+00
    outer loop
      vertex 1.291152e+01 1.838478e+00 1.776357e-15
      vertex -1.850000e+01 2.165062e+00 1.776357e-15
      vertex 1.345000e+01 2.251663e+00 1.776357e-15
    endloop
  endfacet
  facet normal -1.529228e-13 1.242337e-12 -1.000000e+00
    outer loop
      vertex 1.345000e+01 2.251663e+00 1.776357e-15
      vertex -1.850000e+01 2.165062e+00 1.776357e-15
      vertex -1.789705e+01 2.414818e+00 1.776357e-15
    endloop
  endfacet
  facet normal -1.529228e-13 1.242337e-12 -1.000000e+00
    outer loop
      vertex 1.345000e+01 2.251663e+00 1.776357e-15
      vertex -1.789705e+01 2.414818e+00 1.776357e-15
      vertex 1.407707e+01 2.511406e+00 1.776357e-15
    endloop
  endfacet
  facet normal -1.529228e-13 1.242337e-12 -1.000000e+00
    outer loop
      vertex 1.407707e+01 2.511406e+00 1.776357e-15
      vertex -1.789705e+01 2.414818e+00 1.776357e-15
      vertex -1.725000e+01 2.500000e+00 1.776357e-15
    endloop
  endfacet
  facet normal -1.529228e-13 1.242337e-12 -1.000000e+00
    outer loop
      vertex 1.407707e+01 2.511406e+00 1.776357e-15
      vertex -1.725000e+01 2.500000e+00 1.776357e-15
      vertex 1.475000e+01 5.000000e+00 1.776357e-15
    endloop
  endfacet
  facet normal -1.529228e-13 1.242337e-12 -1.000000e+00
    outer loop
      vertex 1.407707e+01 2.511406e+00 1.776357e-15
      vertex 1.475000e+01 5.000000e+00 1.776357e-15
      vertex 1.475000e+01 2.599998e+00 1.776357e-15
    endloop
  endfacet
  facet normal -1.529228e-13 1.242337e-12 -1.000000e+00
    outer loop
      vertex 1.475000e+01 2.599998e+00 1.776357e-15
      vertex 1.475000e+01 5.000000e+00 1.776357e-15
      vertex 1.828553e+01 3.535538e+00 1.776357e-15
    endloop
  endfacet
  facet normal -1.529228e-13 1.242337e-12 -1.000000e+00
    outer loop
      vertex 1.828553e+01 3.535538e+00 1.776357e-15
      vertex 1.475000e+01 5.000000e+00 1.776357e-15
      vertex 1.725000e+01 4.330124e+00 1.776357e-15
    endloop
  endfacet
  facet normal -1.529228e-13 1.242337e-12 -1.000000e+00
    outer loop
      vertex 1.725000e+01 4.330124e+00 1.776357e-15
      vertex 1.475000e+01 5.000000e+00 1.776357e-15
      vertex 1.604410e+01 4.829628e+00 1.776357e-15
    endloop
  endfacet
  facet normal -1.529228e-13 1.242337e-12 -1.000000e+00
    outer loop
      vertex 1.475000e+01 -2.599998e+00 0.000000e+00
      vertex 1.908013e+01 -2.500000e+00 0.000000e+00
      vertex 1.828553e+01 -3.535538e+00 0.000000e+00
    endloop
  endfacet
  facet normal -1.529228e-13 1.242337e-12 -1.000000e+00
    outer loop
      vertex 1.908013e+01 -2.500000e+00 0.000000e+00
      vertex 1.475000e+01 -2.599998e+00 0.000000e+00
      vertex 1.542293e+01 -2.511406e+00 0.000000e+00
    endloop
  endfacet
  facet normal -1.529228e-13 1.242337e-12 -1.000000e+00
    outer loop
      vertex 1.908013e+01 -2.500000e+00 0.000000e+00
      vertex 1.542293e+01 -2.511406e+00 0.000000e+00
      vertex 1.605000e+01 -2.251663e+00 0.000000e+00
    endloop
  endfacet
  facet normal -1.529228e-13 1.242337e-12 -1.000000e+00
    outer loop
      vertex 1.908013e+01 -2.500000e+00 0.000000e+00
      vertex 1.605000e+01 -2.251663e+00 0.000000e+00
      vertex 1.957963e+01 -1.294098e+00 0.000000e+00
    endloop
  endfacet
  facet normal -1.529228e-13 1.242337e-12 -1.000000e+00
    outer loop
      vertex 1.957963e+01 -1.294098e+00 0.000000e+00
      vertex 1.605000e+01 -2.251663e+00 0.000000e+00
      vertex 1.658848e+01 -1.838478e+00 0.000000e+00
    endloop
  endfacet
  facet normal -1.529228e-13 1.242337e-12 -1.000000e+00
    outer loop
      vertex 1.957963e+01 -1.294098e+00 0.000000e+00
      vertex 1.658848e+01 -1.838478e+00 0.000000e+00
      vertex 1.700167e+01 -1.300003e+00 0.000000e+00
    endloop
  endfacet
  facet normal -1.529228e-13 1.242337e-12 -1.000000e+00
    outer loop
      vertex 1.957963e+01 -1.294098e+00 0.000000e+00
      vertex 1.700167e+01 -1.300003e+00 0.000000e+00
      vertex 1.726141e+01 -6.729279e-01 0.000000e+00
    endloop
  endfacet
  facet normal -1.529228e-13 1.242337e-12 -1.000000e+00
    outer loop
      vertex 1.957963e+01 -1.294098e+00 0.000000e+00
      vertex 1.726141e+01 -6.729279e-01 0.000000e+00
      vertex 1.975000e+01 0.000000e+00 1.776357e-15
    endloop
  endfacet
  facet normal -1.529228e-13 1.242337e-12 -1.000000e+00
    outer loop
      vertex 1.975000e+01 0.000000e+00 1.776357e-15
      vertex 1.726141e+01 -6.729279e-01 0.000000e+00
      vertex 1.735000e+01 0.000000e+00 1.776357e-15
    endloop
  endfacet
  facet normal -1.529228e-13 1.242337e-12 -1.000000e+00
    outer loop
      vertex 1.975000e+01 0.000000e+00 1.776357e-15
      vertex 1.735000e+01 0.000000e+00 1.776357e-15
      vertex 1.957963e+01 1.294098e+00 1.776357e-15
    endloop
  endfacet
  facet normal -1.529228e-13 1.242337e-12 -1.000000e+00
    outer loop
      vertex 1.957963e+01 1.294098e+00 1.776357e-15
      vertex 1.735000e+01 0.000000e+00 1.776357e-15
      vertex 1.726141e+01 6.729279e-01 1.776357e-15
    endloop
  endfacet
  facet normal -1.529228e-13 1.242337e-12 -1.000000e+00
    outer loop
      vertex 1.957963e+01 1.294098e+00 1.776357e-15
      vertex 1.726141e+01 6.729279e-01 1.776357e-15
      vertex 1.700167e+01 1.300003e+00 1.776357e-15
    endloop
  endfacet
  facet normal -1.529228e-13 1.242337e-12 -1.000000e+00
    outer loop
      vertex 1.957963e+01 1.294098e+00 1.776357e-15
      vertex 1.700167e+01 1.300003e+00 1.776357e-15
      vertex 1.908013e+01 2.500000e+00 1.776357e-15
    endloop
  endfacet
  facet normal -1.529228e-13 1.242337e-12 -1.000000e+00
    outer loop
      vertex 1.908013e+01 2.500000e+00 1.776357e-15
      vertex 1.700167e+01 1.300003e+00 1.776357e-15
      vertex 1.658848e+01 1.838478e+00 1.776357e-15
    endloop
  endfacet
  facet normal -1.529228e-13 1.242337e-12 -1.000000e+00
    outer loop
      vertex 1.908013e+01 2.500000e+00 1.776357e-15
      vertex 1.658848e+01 1.838478e+00 1.776357e-15
      vertex 1.605000e+01 2.251663e+00 1.776357e-15
    endloop
  endfacet
  facet normal -1.529228e-13 1.242337e-12 -1.000000e+00
    outer loop
      vertex 1.908013e+01 2.500000e+00 1.776357e-15
      vertex 1.605000e+01 2.251663e+00 1.776357e-15
      vertex 1.542293e+01 2.511406e+00 1.776357e-15
    endloop
  endfacet
  facet normal -1.529228e-13 1.242337e-12 -1.000000e+00
    outer loop
      vertex 1.908013e+01 2.500000e+00 1.776357e-15
      vertex 1.542293e+01 2.511406e+00 1.776357e-15
      vertex 1.828553e+01 3.535538e+00 1.776357e-15
    endloop
  endfacet
  facet normal -1.529228e-13 1.242337e-12 -1.000000e+00
    outer loop
      vertex 1.828553e+01 3.535538e+00 1.776357e-15
      vertex 1.542293e+01 2.511406e+00 1.776357e-15
      vertex 1.475000e+01 2.599998e+00 1.776357e-15
    endloop
  endfacet
  facet normal 7.933533e-01 -6.087614e-01 -8.620205e-13
    outer loop
      vertex 1.249833e+01 1.300003e+00 2.500000e+00
      vertex 1.291152e+01 1.838478e+00 1.776357e-15
      vertex 1.291152e+01 1.838478e+00 2.500000e+00
    endloop
  endfacet
  facet normal 7.933533e-01 -6.087614e-01 -8.620205e-13
    outer loop
      vertex 1.291152e+01 1.838478e+00 1.776357e-15
      vertex 1.249833e+01 1.300003e+00 2.500000e+00
      vertex 1.249833e+01 1.300003e+00 1.776357e-15
    endloop
  endfacet
  facet normal 1.305262e-01 -9.914449e-01 -1.334138e-12
    outer loop
      vertex 1.475000e+01 2.599998e+00 1.776357e-15
      vertex 1.407707e+01 2.511406e+00 2.500000e+00
      vertex 1.407707e+01 2.511406e+00 1.776357e-15
    endloop
  endfacet
  facet normal 1.305262e-01 -9.914449e-01 -1.334138e-12
    outer loop
      vertex 1.407707e+01 2.511406e+00 2.500000e+00
      vertex 1.475000e+01 2.599998e+00 1.776357e-15
      vertex 1.475000e+01 2.599998e+00 2.500000e+00
    endloop
  endfacet
  facet normal -7.933533e-01 6.087614e-01 8.634208e-13
    outer loop
      vertex 1.700167e+01 -1.300003e+00 0.000000e+00
      vertex 1.658848e+01 -1.838478e+00 2.500000e+00
      vertex 1.700167e+01 -1.300003e+00 2.500000e+00
    endloop
  endfacet
  facet normal -7.933533e-01 6.087614e-01 8.634208e-13
    outer loop
      vertex 1.658848e+01 -1.838478e+00 2.500000e+00
      vertex 1.700167e+01 -1.300003e+00 0.000000e+00
      vertex 1.658848e+01 -1.838478e+00 0.000000e+00
    endloop
  endfacet
  facet normal 9.914449e-01 1.305262e-01 1.139158e-13
    outer loop
      vertex 1.223859e+01 -6.729279e-01 2.500000e+00
      vertex 1.215000e+01 0.000000e+00 1.776357e-15
      vertex 1.215000e+01 0.000000e+00 2.500000e+00
    endloop
  endfacet
  facet normal 9.914449e-01 1.305262e-01 1.139158e-13
    outer loop
      vertex 1.215000e+01 0.000000e+00 1.776357e-15
      vertex 1.223859e+01 -6.729279e-01 2.500000e+00
      vertex 1.223859e+01 -6.729279e-01 0.000000e+00
    endloop
  endfacet
  facet normal -3.826834e-01 -9.238795e-01 -1.212925e-12
    outer loop
      vertex 1.605000e+01 2.251663e+00 1.776357e-15
      vertex 1.542293e+01 2.511406e+00 2.500000e+00
      vertex 1.542293e+01 2.511406e+00 1.776357e-15
    endloop
  endfacet
  facet normal -3.826834e-01 -9.238795e-01 -1.212925e-12
    outer loop
      vertex 1.542293e+01 2.511406e+00 2.500000e+00
      vertex 1.605000e+01 2.251663e+00 1.776357e-15
      vertex 1.605000e+01 2.251663e+00 2.500000e+00
    endloop
  endfacet
  facet normal -1.305262e-01 9.914449e-01 1.336428e-12
    outer loop
      vertex 1.475000e+01 -2.599998e+00 2.500000e+00
      vertex 1.542293e+01 -2.511406e+00 0.000000e+00
      vertex 1.475000e+01 -2.599998e+00 0.000000e+00
    endloop
  endfacet
  facet normal -1.305262e-01 9.914449e-01 1.336428e-12
    outer loop
      vertex 1.542293e+01 -2.511406e+00 0.000000e+00
      vertex 1.475000e+01 -2.599998e+00 2.500000e+00
      vertex 1.542293e+01 -2.511406e+00 2.500000e+00
    endloop
  endfacet
  facet normal 9.238795e-01 3.826834e-01 4.564436e-13
    outer loop
      vertex 1.249833e+01 -1.300003e+00 2.500000e+00
      vertex 1.223859e+01 -6.729279e-01 0.000000e+00
      vertex 1.223859e+01 -6.729279e-01 2.500000e+00
    endloop
  endfacet
  facet normal 9.238795e-01 3.826834e-01 4.564436e-13
    outer loop
      vertex 1.223859e+01 -6.729279e-01 0.000000e+00
      vertex 1.249833e+01 -1.300003e+00 2.500000e+00
      vertex 1.249833e+01 -1.300003e+00 0.000000e+00
    endloop
  endfacet
  facet normal 3.826834e-01 9.238795e-01 1.215049e-12
    outer loop
      vertex 1.345000e+01 -2.251663e+00 2.500000e+00
      vertex 1.407707e+01 -2.511406e+00 0.000000e+00
      vertex 1.345000e+01 -2.251663e+00 0.000000e+00
    endloop
  endfacet
  facet normal 3.826834e-01 9.238795e-01 1.215049e-12
    outer loop
      vertex 1.407707e+01 -2.511406e+00 0.000000e+00
      vertex 1.345000e+01 -2.251663e+00 2.500000e+00
      vertex 1.407707e+01 -2.511406e+00 2.500000e+00
    endloop
  endfacet
  facet normal 3.826834e-01 -9.238795e-01 -1.268027e-12
    outer loop
      vertex 1.449118e+01 9.659271e-01 2.500000e+00
      vertex 1.425000e+01 8.660278e-01 5.000000e+00
      vertex 1.425000e+01 8.660278e-01 2.500000e+00
    endloop
  endfacet
  facet normal 3.826834e-01 -9.238795e-01 -1.268027e-12
    outer loop
      vertex 1.425000e+01 8.660278e-01 5.000000e+00
      vertex 1.449118e+01 9.659271e-01 2.500000e+00
      vertex 1.449118e+01 9.659271e-01 5.000000e+00
    endloop
  endfacet
  facet normal -9.914449e-01 1.305262e-01 2.341606e-13
    outer loop
      vertex 1.735000e+01 0.000000e+00 1.776357e-15
      vertex 1.726141e+01 -6.729279e-01 2.500000e+00
      vertex 1.735000e+01 0.000000e+00 2.500000e+00
    endloop
  endfacet
  facet normal -9.914449e-01 1.305262e-01 2.341606e-13
    outer loop
      vertex 1.726141e+01 -6.729279e-01 2.500000e+00
      vertex 1.735000e+01 0.000000e+00 1.776357e-15
      vertex 1.726141e+01 -6.729279e-01 0.000000e+00
    endloop
  endfacet
  facet normal 3.826834e-01 -9.238795e-01 -1.256764e-12
    outer loop
      vertex 1.407707e+01 2.511406e+00 1.776357e-15
      vertex 1.345000e+01 2.251663e+00 2.500000e+00
      vertex 1.345000e+01 2.251663e+00 1.776357e-15
    endloop
  endfacet
  facet normal 3.826834e-01 -9.238795e-01 -1.256764e-12
    outer loop
      vertex 1.345000e+01 2.251663e+00 2.500000e+00
      vertex 1.407707e+01 2.511406e+00 1.776357e-15
      vertex 1.407707e+01 2.511406e+00 2.500000e+00
    endloop
  endfacet
  facet normal -7.933533e-01 -6.087614e-01 -7.652982e-13
    outer loop
      vertex 1.658848e+01 1.838478e+00 1.776357e-15
      vertex 1.700167e+01 1.300003e+00 2.500000e+00
      vertex 1.658848e+01 1.838478e+00 2.500000e+00
    endloop
  endfacet
  facet normal -7.933533e-01 -6.087614e-01 -7.652982e-13
    outer loop
      vertex 1.700167e+01 1.300003e+00 2.500000e+00
      vertex 1.658848e+01 1.838478e+00 1.776357e-15
      vertex 1.700167e+01 1.300003e+00 1.776357e-15
    endloop
  endfacet
  facet normal 7.933533e-01 -6.087614e-01 -8.763145e-13
    outer loop
      vertex 1.388398e+01 5.000000e-01 5.000000e+00
      vertex 1.404289e+01 7.071075e-01 2.500000e+00
      vertex 1.404289e+01 7.071075e-01 5.000000e+00
    endloop
  endfacet
  facet normal 7.933533e-01 -6.087614e-01 -8.763145e-13
    outer loop
      vertex 1.404289e+01 7.071075e-01 2.500000e+00
      vertex 1.388398e+01 5.000000e-01 5.000000e+00
      vertex 1.388398e+01 5.000000e-01 2.500000e+00
    endloop
  endfacet
  facet normal -9.238795e-01 3.826834e-01 5.674245e-13
    outer loop
      vertex 1.726141e+01 -6.729279e-01 0.000000e+00
      vertex 1.700167e+01 -1.300003e+00 2.500000e+00
      vertex 1.726141e+01 -6.729279e-01 2.500000e+00
    endloop
  endfacet
  facet normal -9.238795e-01 3.826834e-01 5.674245e-13
    outer loop
      vertex 1.700167e+01 -1.300003e+00 2.500000e+00
      vertex 1.726141e+01 -6.729279e-01 0.000000e+00
      vertex 1.700167e+01 -1.300003e+00 0.000000e+00
    endloop
  endfacet
  facet normal -6.087614e-01 7.933533e-01 1.099706e-12
    outer loop
      vertex 1.605000e+01 -2.251663e+00 2.500000e+00
      vertex 1.658848e+01 -1.838478e+00 0.000000e+00
      vertex 1.605000e+01 -2.251663e+00 0.000000e+00
    endloop
  endfacet
  facet normal -6.087614e-01 7.933533e-01 1.099706e-12
    outer loop
      vertex 1.658848e+01 -1.838478e+00 0.000000e+00
      vertex 1.605000e+01 -2.251663e+00 2.500000e+00
      vertex 1.658848e+01 -1.838478e+00 2.500000e+00
    endloop
  endfacet
  facet normal -1.305262e-01 -9.914449e-01 -1.318457e-12
    outer loop
      vertex 1.542293e+01 2.511406e+00 1.776357e-15
      vertex 1.475000e+01 2.599998e+00 2.500000e+00
      vertex 1.475000e+01 2.599998e+00 1.776357e-15
    endloop
  endfacet
  facet normal -1.305262e-01 -9.914449e-01 -1.318457e-12
    outer loop
      vertex 1.475000e+01 2.599998e+00 2.500000e+00
      vertex 1.542293e+01 2.511406e+00 1.776357e-15
      vertex 1.542293e+01 2.511406e+00 2.500000e+00
    endloop
  endfacet
  facet normal 1.305262e-01 9.914449e-01 1.320746e-12
    outer loop
      vertex 1.407707e+01 -2.511406e+00 2.500000e+00
      vertex 1.475000e+01 -2.599998e+00 0.000000e+00
      vertex 1.407707e+01 -2.511406e+00 0.000000e+00
    endloop
  endfacet
  facet normal 1.305262e-01 9.914449e-01 1.320746e-12
    outer loop
      vertex 1.475000e+01 -2.599998e+00 0.000000e+00
      vertex 1.407707e+01 -2.511406e+00 2.500000e+00
      vertex 1.475000e+01 -2.599998e+00 2.500000e+00
    endloop
  endfacet
  facet normal -7.933533e-01 -6.087614e-01 -7.608537e-13
    outer loop
      vertex 1.545711e+01 7.071075e-01 2.500000e+00
      vertex 1.561602e+01 5.000000e-01 5.000000e+00
      vertex 1.545711e+01 7.071075e-01 5.000000e+00
    endloop
  endfacet
  facet normal -7.933533e-01 -6.087614e-01 -7.608537e-13
    outer loop
      vertex 1.561602e+01 5.000000e-01 5.000000e+00
      vertex 1.545711e+01 7.071075e-01 2.500000e+00
      vertex 1.561602e+01 5.000000e-01 2.500000e+00
    endloop
  endfacet
  facet normal 9.238795e-01 -3.826834e-01 -5.818128e-13
    outer loop
      vertex 1.378407e+01 2.588196e-01 5.000000e+00
      vertex 1.388398e+01 5.000000e-01 2.500000e+00
      vertex 1.388398e+01 5.000000e-01 5.000000e+00
    endloop
  endfacet
  facet normal 9.238795e-01 -3.826834e-01 -5.818128e-13
    outer loop
      vertex 1.388398e+01 5.000000e-01 2.500000e+00
      vertex 1.378407e+01 2.588196e-01 5.000000e+00
      vertex 1.378407e+01 2.588196e-01 2.500000e+00
    endloop
  endfacet
  facet normal -9.914449e-01 -1.305262e-01 -1.153592e-13
    outer loop
      vertex 1.726141e+01 6.729279e-01 1.776357e-15
      vertex 1.735000e+01 0.000000e+00 2.500000e+00
      vertex 1.726141e+01 6.729279e-01 2.500000e+00
    endloop
  endfacet
  facet normal -9.914449e-01 -1.305262e-01 -1.153592e-13
    outer loop
      vertex 1.735000e+01 0.000000e+00 2.500000e+00
      vertex 1.726141e+01 6.729279e-01 1.776357e-15
      vertex 1.735000e+01 0.000000e+00 1.776357e-15
    endloop
  endfacet
  facet normal -9.914449e-01 -1.305262e-01 -1.045142e-13
    outer loop
      vertex 1.571593e+01 2.588196e-01 2.500000e+00
      vertex 1.575000e+01 0.000000e+00 5.000000e+00
      vertex 1.571593e+01 2.588196e-01 5.000000e+00
    endloop
  endfacet
  facet normal -9.914449e-01 -1.305262e-01 -1.045142e-13
    outer loop
      vertex 1.575000e+01 0.000000e+00 5.000000e+00
      vertex 1.571593e+01 2.588196e-01 2.500000e+00
      vertex 1.575000e+01 0.000000e+00 2.500000e+00
    endloop
  endfacet
  facet normal 9.914449e-01 -1.305262e-01 -2.356040e-13
    outer loop
      vertex 1.215000e+01 0.000000e+00 2.500000e+00
      vertex 1.223859e+01 6.729279e-01 1.776357e-15
      vertex 1.223859e+01 6.729279e-01 2.500000e+00
    endloop
  endfacet
  facet normal 9.914449e-01 -1.305262e-01 -2.356040e-13
    outer loop
      vertex 1.223859e+01 6.729279e-01 1.776357e-15
      vertex 1.215000e+01 0.000000e+00 2.500000e+00
      vertex 1.215000e+01 0.000000e+00 1.776357e-15
    endloop
  endfacet
  facet normal 1.542721e-13 -1.249267e-12 1.000000e+00
    outer loop
      vertex 1.604410e+01 -4.829628e+00 5.000000e+00
      vertex -1.725000e+01 -2.500000e+00 5.000000e+00
      vertex 1.475000e+01 -5.000000e+00 5.000000e+00
    endloop
  endfacet
  facet normal 1.542721e-13 -1.249267e-12 1.000000e+00
    outer loop
      vertex -1.725000e+01 -2.500000e+00 5.000000e+00
      vertex 1.604410e+01 -4.829628e+00 5.000000e+00
      vertex 1.725000e+01 -4.330124e+00 5.000000e+00
    endloop
  endfacet
  facet normal 1.542721e-13 -1.249267e-12 1.000000e+00
    outer loop
      vertex -1.725000e+01 -2.500000e+00 5.000000e+00
      vertex 1.725000e+01 -4.330124e+00 5.000000e+00
      vertex 1.828553e+01 -3.535538e+00 5.000000e+00
    endloop
  endfacet
  facet normal 1.542721e-13 -1.249267e-12 1.000000e+00
    outer loop
      vertex -1.725000e+01 -2.500000e+00 5.000000e+00
      vertex 1.828553e+01 -3.535538e+00 5.000000e+00
      vertex 1.908013e+01 -2.500000e+00 5.000000e+00
    endloop
  endfacet
  facet normal 1.542721e-13 -1.249267e-12 1.000000e+00
    outer loop
      vertex -1.725000e+01 -2.500000e+00 5.000000e+00
      vertex 1.908013e+01 -2.500000e+00 5.000000e+00
      vertex 1.957963e+01 -1.294098e+00 5.000000e+00
    endloop
  endfacet
  facet normal 1.542721e-13 -1.249267e-12 1.000000e+00
    outer loop
      vertex -1.725000e+01 -2.500000e+00 5.000000e+00
      vertex 1.957963e+01 -1.294098e+00 5.000000e+00
      vertex -1.660295e+01 -2.414818e+00 5.000000e+00
    endloop
  endfacet
  facet normal 1.542721e-13 -1.249267e-12 1.000000e+00
    outer loop
      vertex -1.660295e+01 -2.414818e+00 5.000000e+00
      vertex 1.957963e+01 -1.294098e+00 5.000000e+00
      vertex -1.600000e+01 -2.165062e+00 5.000000e+00
    endloop
  endfacet
  facet normal 1.542721e-13 -1.249267e-12 1.000000e+00
    outer loop
      vertex -1.600000e+01 -2.165062e+00 5.000000e+00
      vertex 1.957963e+01 -1.294098e+00 5.000000e+00
      vertex -1.548223e+01 -1.767769e+00 5.000000e+00
    endloop
  endfacet
  facet normal 1.542721e-13 -1.249267e-12 1.000000e+00
    outer loop
      vertex -1.548223e+01 -1.767769e+00 5.000000e+00
      vertex 1.957963e+01 -1.294098e+00 5.000000e+00
      vertex -1.508494e+01 -1.250000e+00 5.000000e+00
    endloop
  endfacet
  facet normal 1.542721e-13 -1.249267e-12 1.000000e+00
    outer loop
      vertex -1.508494e+01 -1.250000e+00 5.000000e+00
      vertex 1.957963e+01 -1.294098e+00 5.000000e+00
      vertex 1.475000e+01 -1.000000e+00 5.000000e+00
    endloop
  endfacet
  facet normal 1.542721e-13 -1.249267e-12 1.000000e+00
    outer loop
      vertex 1.475000e+01 -1.000000e+00 5.000000e+00
      vertex 1.957963e+01 -1.294098e+00 5.000000e+00
      vertex 1.500882e+01 -9.659271e-01 5.000000e+00
    endloop
  endfacet
  facet normal 1.542721e-13 -1.249267e-12 1.000000e+00
    outer loop
      vertex 1.500882e+01 -9.659271e-01 5.000000e+00
      vertex 1.957963e+01 -1.294098e+00 5.000000e+00
      vertex 1.975000e+01 0.000000e+00 5.000000e+00
    endloop
  endfacet
  facet normal 1.542721e-13 -1.249267e-12 1.000000e+00
    outer loop
      vertex 1.500882e+01 -9.659271e-01 5.000000e+00
      vertex 1.975000e+01 0.000000e+00 5.000000e+00
      vertex 1.525000e+01 -8.660278e-01 5.000000e+00
    endloop
  endfacet
  facet normal 1.542721e-13 -1.249267e-12 1.000000e+00
    outer loop
      vertex 1.525000e+01 -8.660278e-01 5.000000e+00
      vertex 1.975000e+01 0.000000e+00 5.000000e+00
      vertex 1.545711e+01 -7.071075e-01 5.000000e+00
    endloop
  endfacet
  facet normal 1.542721e-13 -1.249267e-12 1.000000e+00
    outer loop
      vertex 1.545711e+01 -7.071075e-01 5.000000e+00
      vertex 1.975000e+01 0.000000e+00 5.000000e+00
      vertex 1.561602e+01 -5.000000e-01 5.000000e+00
    endloop
  endfacet
  facet normal 1.542721e-13 -1.249267e-12 1.000000e+00
    outer loop
      vertex 1.561602e+01 -5.000000e-01 5.000000e+00
      vertex 1.975000e+01 0.000000e+00 5.000000e+00
      vertex 1.571593e+01 -2.588196e-01 5.000000e+00
    endloop
  endfacet
  facet normal 1.542721e-13 -1.249267e-12 1.000000e+00
    outer loop
      vertex 1.571593e+01 -2.588196e-01 5.000000e+00
      vertex 1.975000e+01 0.000000e+00 5.000000e+00
      vertex 1.575000e+01 0.000000e+00 5.000000e+00
    endloop
  endfacet
  facet normal 1.542721e-13 -1.249267e-12 1.000000e+00
    outer loop
      vertex 1.575000e+01 0.000000e+00 5.000000e+00
      vertex 1.975000e+01 0.000000e+00 5.000000e+00
      vertex 1.957963e+01 1.294098e+00 5.000000e+00
    endloop
  endfacet
  facet normal 1.542721e-13 -1.249267e-12 1.000000e+00
    outer loop
      vertex 1.575000e+01 0.000000e+00 5.000000e+00
      vertex 1.957963e+01 1.294098e+00 5.000000e+00
      vertex 1.571593e+01 2.588196e-01 5.000000e+00
    endloop
  endfacet
  facet normal 1.542721e-13 -1.249267e-12 1.000000e+00
    outer loop
      vertex 1.571593e+01 2.588196e-01 5.000000e+00
      vertex 1.957963e+01 1.294098e+00 5.000000e+00
      vertex 1.561602e+01 5.000000e-01 5.000000e+00
    endloop
  endfacet
  facet normal 1.542721e-13 -1.249267e-12 1.000000e+00
    outer loop
      vertex 1.561602e+01 5.000000e-01 5.000000e+00
      vertex 1.957963e+01 1.294098e+00 5.000000e+00
      vertex 1.545711e+01 7.071075e-01 5.000000e+00
    endloop
  endfacet
  facet normal 1.542721e-13 -1.249267e-12 1.000000e+00
    outer loop
      vertex 1.545711e+01 7.071075e-01 5.000000e+00
      vertex 1.957963e+01 1.294098e+00 5.000000e+00
      vertex 1.525000e+01 8.660278e-01 5.000000e+00
    endloop
  endfacet
  facet normal 1.542721e-13 -1.249267e-12 1.000000e+00
    outer loop
      vertex 1.525000e+01 8.660278e-01 5.000000e+00
      vertex 1.957963e+01 1.294098e+00 5.000000e+00
      vertex 1.500882e+01 9.659271e-01 5.000000e+00
    endloop
  endfacet
  facet normal 1.542721e-13 -1.249267e-12 1.000000e+00
    outer loop
      vertex 1.500882e+01 9.659271e-01 5.000000e+00
      vertex 1.957963e+01 1.294098e+00 5.000000e+00
      vertex 1.475000e+01 1.000000e+00 5.000000e+00
    endloop
  endfacet
  facet normal 1.542721e-13 -1.249267e-12 1.000000e+00
    outer loop
      vertex 1.475000e+01 1.000000e+00 5.000000e+00
      vertex 1.957963e+01 1.294098e+00 5.000000e+00
      vertex -1.508494e+01 1.250000e+00 5.000000e+00
    endloop
  endfacet
  facet normal 1.542721e-13 -1.249267e-12 1.000000e+00
    outer loop
      vertex -1.508494e+01 1.250000e+00 5.000000e+00
      vertex 1.957963e+01 1.294098e+00 5.000000e+00
      vertex -1.548223e+01 1.767769e+00 5.000000e+00
    endloop
  endfacet
  facet normal 1.542721e-13 -1.249267e-12 1.000000e+00
    outer loop
      vertex -1.548223e+01 1.767769e+00 5.000000e+00
      vertex 1.957963e+01 1.294098e+00 5.000000e+00
      vertex 1.908013e+01 2.500000e+00 5.000000e+00
    endloop
  endfacet
  facet normal 1.542721e-13 -1.249267e-12 1.000000e+00
    outer loop
      vertex -1.548223e+01 1.767769e+00 5.000000e+00
      vertex 1.908013e+01 2.500000e+00 5.000000e+00
      vertex -1.600000e+01 2.165062e+00 5.000000e+00
    endloop
  endfacet
  facet normal 1.542721e-13 -1.249267e-12 1.000000e+00
    outer loop
      vertex -1.600000e+01 2.165062e+00 5.000000e+00
      vertex 1.908013e+01 2.500000e+00 5.000000e+00
      vertex -1.660295e+01 2.414818e+00 5.000000e+00
    endloop
  endfacet
  facet normal 1.542721e-13 -1.249267e-12 1.000000e+00
    outer loop
      vertex -1.660295e+01 2.414818e+00 5.000000e+00
      vertex 1.908013e+01 2.500000e+00 5.000000e+00
      vertex -1.725000e+01 2.500000e+00 5.000000e+00
    endloop
  endfacet
  facet normal 1.542721e-13 -1.249267e-12 1.000000e+00
    outer loop
      vertex -1.725000e+01 2.500000e+00 5.000000e+00
      vertex 1.908013e+01 2.500000e+00 5.000000e+00
      vertex 1.828553e+01 3.535538e+00 5.000000e+00
    endloop
  endfacet
  facet normal 1.542721e-13 -1.249267e-12 1.000000e+00
    outer loop
      vertex -1.725000e+01 2.500000e+00 5.000000e+00
      vertex 1.828553e+01 3.535538e+00 5.000000e+00
      vertex 1.475000e+01 5.000000e+00 5.000000e+00
    endloop
  endfacet
  facet normal 1.542721e-13 -1.249267e-12 1.000000e+00
    outer loop
      vertex 1.475000e+01 5.000000e+00 5.000000e+00
      vertex 1.828553e+01 3.535538e+00 5.000000e+00
      vertex 1.725000e+01 4.330124e+00 5.000000e+00
    endloop
  endfacet
  facet normal 1.542721e-13 -1.249267e-12 1.000000e+00
    outer loop
      vertex 1.475000e+01 5.000000e+00 5.000000e+00
      vertex 1.725000e+01 4.330124e+00 5.000000e+00
      vertex 1.604410e+01 4.829628e+00 5.000000e+00
    endloop
  endfacet
  facet normal 1.542721e-13 -1.249267e-12 1.000000e+00
    outer loop
      vertex 1.475000e+01 -1.000000e+00 5.000000e+00
      vertex -1.483519e+01 -6.470490e-01 5.000000e+00
      vertex -1.508494e+01 -1.250000e+00 5.000000e+00
    endloop
  endfacet
  facet normal 1.542721e-13 -1.249267e-12 1.000000e+00
    outer loop
      vertex -1.483519e+01 -6.470490e-01 5.000000e+00
      vertex 1.475000e+01 -1.000000e+00 5.000000e+00
      vertex 1.449118e+01 -9.659271e-01 5.000000e+00
    endloop
  endfacet
  facet normal 1.542721e-13 -1.249267e-12 1.000000e+00
    outer loop
      vertex -1.483519e+01 -6.470490e-01 5.000000e+00
      vertex 1.449118e+01 -9.659271e-01 5.000000e+00
      vertex 1.425000e+01 -8.660278e-01 5.000000e+00
    endloop
  endfacet
  facet normal 1.542721e-13 -1.249267e-12 1.000000e+00
    outer loop
      vertex -1.483519e+01 -6.470490e-01 5.000000e+00
      vertex 1.425000e+01 -8.660278e-01 5.000000e+00
      vertex 1.404289e+01 -7.071075e-01 5.000000e+00
    endloop
  endfacet
  facet normal 1.542721e-13 -1.249267e-12 1.000000e+00
    outer loop
      vertex -1.483519e+01 -6.470490e-01 5.000000e+00
      vertex 1.404289e+01 -7.071075e-01 5.000000e+00
      vertex 1.388398e+01 -5.000000e-01 5.000000e+00
    endloop
  endfacet
  facet normal 1.542721e-13 -1.249267e-12 1.000000e+00
    outer loop
      vertex -1.483519e+01 -6.470490e-01 5.000000e+00
      vertex 1.388398e+01 -5.000000e-01 5.000000e+00
      vertex -1.475000e+01 0.000000e+00 5.000000e+00
    endloop
  endfacet
  facet normal 1.542721e-13 -1.249267e-12 1.000000e+00
    outer loop
      vertex -1.475000e+01 0.000000e+00 5.000000e+00
      vertex 1.388398e+01 -5.000000e-01 5.000000e+00
      vertex 1.378407e+01 -2.588196e-01 5.000000e+00
    endloop
  endfacet
  facet normal 1.542721e-13 -1.249267e-12 1.000000e+00
    outer loop
      vertex -1.475000e+01 0.000000e+00 5.000000e+00
      vertex 1.378407e+01 -2.588196e-01 5.000000e+00
      vertex 1.375000e+01 0.000000e+00 5.000000e+00
    endloop
  endfacet
  facet normal 1.542721e-13 -1.249267e-12 1.000000e+00
    outer loop
      vertex -1.475000e+01 0.000000e+00 5.000000e+00
      vertex 1.375000e+01 0.000000e+00 5.000000e+00
      vertex -1.483519e+01 6.470490e-01 5.000000e+00
    endloop
  endfacet
  facet normal 1.542721e-13 -1.249267e-12 1.000000e+00
    outer loop
      vertex -1.483519e+01 6.470490e-01 5.000000e+00
      vertex 1.375000e+01 0.000000e+00 5.000000e+00
      vertex 1.378407e+01 2.588196e-01 5.000000e+00
    endloop
  endfacet
  facet normal 1.542721e-13 -1.249267e-12 1.000000e+00
    outer loop
      vertex -1.483519e+01 6.470490e-01 5.000000e+00
      vertex 1.378407e+01 2.588196e-01 5.000000e+00
      vertex 1.388398e+01 5.000000e-01 5.000000e+00
    endloop
  endfacet
  facet normal 1.542721e-13 -1.249267e-12 1.000000e+00
    outer loop
      vertex -1.483519e+01 6.470490e-01 5.000000e+00
      vertex 1.388398e+01 5.000000e-01 5.000000e+00
      vertex 1.404289e+01 7.071075e-01 5.000000e+00
    endloop
  endfacet
  facet normal 1.542721e-13 -1.249267e-12 1.000000e+00
    outer loop
      vertex -1.483519e+01 6.470490e-01 5.000000e+00
      vertex 1.404289e+01 7.071075e-01 5.000000e+00
      vertex -1.508494e+01 1.250000e+00 5.000000e+00
    endloop
  endfacet
  facet normal 1.542721e-13 -1.249267e-12 1.000000e+00
    outer loop
      vertex -1.508494e+01 1.250000e+00 5.000000e+00
      vertex 1.404289e+01 7.071075e-01 5.000000e+00
      vertex 1.425000e+01 8.660278e-01 5.000000e+00
    endloop
  endfacet
  facet normal 1.542721e-13 -1.249267e-12 1.000000e+00
    outer loop
      vertex -1.508494e+01 1.250000e+00 5.000000e+00
      vertex 1.425000e+01 8.660278e-01 5.000000e+00
      vertex 1.449118e+01 9.659271e-01 5.000000e+00
    endloop
  endfacet
  facet normal 1.542721e-13 -1.249267e-12 1.000000e+00
    outer loop
      vertex -1.508494e+01 1.250000e+00 5.000000e+00
      vertex 1.449118e+01 9.659271e-01 5.000000e+00
      vertex 1.475000e+01 1.000000e+00 5.000000e+00
    endloop
  endfacet
  facet normal 1.373432e-13 -1.021065e-12 1.000000e+00
    outer loop
      vertex -1.660295e+01 -2.414818e+00 1.500000e+01
      vertex -1.789705e+01 -2.414818e+00 1.500000e+01
      vertex -1.725000e+01 -2.500000e+00 1.500000e+01
    endloop
  endfacet
  facet normal 1.373432e-13 -1.021065e-12 1.000000e+00
    outer loop
      vertex -1.789705e+01 -2.414818e+00 1.500000e+01
      vertex -1.660295e+01 -2.414818e+00 1.500000e+01
      vertex -1.600000e+01 -2.165062e+00 1.500000e+01
    endloop
  endfacet
  facet normal 1.373432e-13 -1.021065e-12 1.000000e+00
    outer loop
      vertex -1.789705e+01 -2.414818e+00 1.500000e+01
      vertex -1.600000e+01 -2.165062e+00 1.500000e+01
      vertex -1.850000e+01 -2.165062e+00 1.500000e+01
    endloop
  endfacet
  facet normal 1.373432e-13 -1.021065e-12 1.000000e+00
    outer loop
      vertex -1.850000e+01 -2.165062e+00 1.500000e+01
      vertex -1.600000e+01 -2.165062e+00 1.500000e+01
      vertex -1.548223e+01 -1.767769e+00 1.500000e+01
    endloop
  endfacet
  facet normal 1.373432e-13 -1.021065e-12 1.000000e+00
    outer loop
      vertex -1.850000e+01 -2.165062e+00 1.500000e+01
      vertex -1.548223e+01 -1.767769e+00 1.500000e+01
      vertex -1.901777e+01 -1.767769e+00 1.500000e+01
    endloop
  endfacet
  facet normal 1.373432e-13 -1.021065e-12 1.000000e+00
    outer loop
      vertex -1.901777e+01 -1.767769e+00 1.500000e+01
      vertex -1.548223e+01 -1.767769e+00 1.500000e+01
      vertex -1.508494e+01 -1.250000e+00 1.500000e+01
    endloop
  endfacet
  facet normal 1.373432e-13 -1.021065e-12 1.000000e+00
    outer loop
      vertex -1.901777e+01 -1.767769e+00 1.500000e+01
      vertex -1.508494e+01 -1.250000e+00 1.500000e+01
      vertex -1.941506e+01 -1.250000e+00 1.500000e+01
    endloop
  endfacet
  facet normal 1.373432e-13 -1.021065e-12 1.000000e+00
    outer loop
      vertex -1.941506e+01 -1.250000e+00 1.500000e+01
      vertex -1.508494e+01 -1.250000e+00 1.500000e+01
      vertex -1.483519e+01 -6.470490e-01 1.500000e+01
    endloop
  endfacet
  facet normal 1.373432e-13 -1.021065e-12 1.000000e+00
    outer loop
      vertex -1.941506e+01 -1.250000e+00 1.500000e+01
      vertex -1.483519e+01 -6.470490e-01 1.500000e+01
      vertex -1.966481e+01 -6.470490e-01 1.500000e+01
    endloop
  endfacet
  facet normal 1.373432e-13 -1.021065e-12 1.000000e+00
    outer loop
      vertex -1.966481e+01 -6.470490e-01 1.500000e+01
      vertex -1.483519e+01 -6.470490e-01 1.500000e+01
      vertex -1.475000e+01 0.000000e+00 1.500000e+01
    endloop
  endfacet
  facet normal 1.373432e-13 -1.021065e-12 1.000000e+00
    outer loop
      vertex -1.966481e+01 -6.470490e-01 1.500000e+01
      vertex -1.475000e+01 0.000000e+00 1.500000e+01
      vertex -1.975000e+01 0.000000e+00 1.500000e+01
    endloop
  endfacet
  facet normal 1.373432e-13 -1.021065e-12 1.000000e+00
    outer loop
      vertex -1.975000e+01 0.000000e+00 1.500000e+01
      vertex -1.475000e+01 0.000000e+00 1.500000e+01
      vertex -1.483519e+01 6.470490e-01 1.500000e+01
    endloop
  endfacet
  facet normal 1.373432e-13 -1.021065e-12 1.000000e+00
    outer loop
      vertex -1.975000e+01 0.000000e+00 1.500000e+01
      vertex -1.483519e+01 6.470490e-01 1.500000e+01
      vertex -1.966481e+01 6.470490e-01 1.500000e+01
    endloop
  endfacet
  facet normal 1.373432e-13 -1.021065e-12 1.000000e+00
    outer loop
      vertex -1.966481e+01 6.470490e-01 1.500000e+01
      vertex -1.483519e+01 6.470490e-01 1.500000e+01
      vertex -1.508494e+01 1.250000e+00 1.500000e+01
    endloop
  endfacet
  facet normal 1.373432e-13 -1.021065e-12 1.000000e+00
    outer loop
      vertex -1.966481e+01 6.470490e-01 1.500000e+01
      vertex -1.508494e+01 1.250000e+00 1.500000e+01
      vertex -1.941506e+01 1.250000e+00 1.500000e+01
    endloop
  endfacet
  facet normal 1.373432e-13 -1.021065e-12 1.000000e+00
    outer loop
      vertex -1.941506e+01 1.250000e+00 1.500000e+01
      vertex -1.508494e+01 1.250000e+00 1.500000e+01
      vertex -1.548223e+01 1.767769e+00 1.500000e+01
    endloop
  endfacet
  facet normal 1.373432e-13 -1.021065e-12 1.000000e+00
    outer loop
      vertex -1.941506e+01 1.250000e+00 1.500000e+01
      vertex -1.548223e+01 1.767769e+00 1.500000e+01
      vertex -1.901777e+01 1.767769e+00 1.500000e+01
    endloop
  endfacet
  facet normal 1.373432e-13 -1.021065e-12 1.000000e+00
    outer loop
      vertex -1.901777e+01 1.767769e+00 1.500000e+01
      vertex -1.548223e+01 1.767769e+00 1.500000e+01
      vertex -1.600000e+01 2.165062e+00 1.500000e+01
    endloop
  endfacet
  facet normal 1.373432e-13 -1.021065e-12 1.000000e+00
    outer loop
      vertex -1.901777e+01 1.767769e+00 1.500000e+01
      vertex -1.600000e+01 2.165062e+00 1.500000e+01
      vertex -1.850000e+01 2.165062e+00 1.500000e+01
    endloop
  endfacet
  facet normal 1.373432e-13 -1.021065e-12 1.000000e+00
    outer loop
      vertex -1.850000e+01 2.165062e+00 1.500000e+01
      vertex -1.600000e+01 2.165062e+00 1.500000e+01
      vertex -1.660295e+01 2.414818e+00 1.500000e+01
    endloop
  endfacet
  facet normal 1.373432e-13 -1.021065e-12 1.000000e+00
    outer loop
      vertex -1.850000e+01 2.165062e+00 1.500000e+01
      vertex -1.660295e+01 2.414818e+00 1.500000e+01
      vertex -1.789705e+01 2.414818e+00 1.500000e+01
    endloop
  endfacet
  facet normal 1.373432e-13 -1.021065e-12 1.000000e+00
    outer loop
      vertex -1.789705e+01 2.414818e+00 1.500000e+01
      vertex -1.660295e+01 2.414818e+00 1.500000e+01
      vertex -1.725000e+01 2.500000e+00 1.500000e+01
    endloop
  endfacet
  facet normal 1.305262e-01 -9.914449e-01 -1.030256e-12
    outer loop
      vertex -1.660295e+01 -2.414818e+00 5.000000e+00
      vertex -1.725000e+01 -2.500000e+00 1.500000e+01
      vertex -1.725000e+01 -2.500000e+00 5.000000e+00
    endloop
  endfacet
  facet normal 1.305262e-01 -9.914449e-01 -1.030256e-12
    outer loop
      vertex -1.725000e+01 -2.500000e+00 1.500000e+01
      vertex -1.660295e+01 -2.414818e+00 5.000000e+00
      vertex -1.660295e+01 -2.414818e+00 1.500000e+01
    endloop
  endfacet
  facet normal 3.826834e-01 -9.238795e-01 -9.958999e-13
    outer loop
      vertex -1.600000e+01 -2.165062e+00 5.000000e+00
      vertex -1.660295e+01 -2.414818e+00 1.500000e+01
      vertex -1.660295e+01 -2.414818e+00 5.000000e+00
    endloop
  endfacet
  facet normal 3.826834e-01 -9.238795e-01 -9.958999e-13
    outer loop
      vertex -1.660295e+01 -2.414818e+00 1.500000e+01
      vertex -1.600000e+01 -2.165062e+00 5.000000e+00
      vertex -1.600000e+01 -2.165062e+00 1.500000e+01
    endloop
  endfacet
  facet normal 6.087614e-01 -7.933533e-01 -8.936745e-13
    outer loop
      vertex -1.548223e+01 -1.767769e+00 5.000000e+00
      vertex -1.600000e+01 -2.165062e+00 1.500000e+01
      vertex -1.600000e+01 -2.165062e+00 5.000000e+00
    endloop
  endfacet
  facet normal 6.087614e-01 -7.933533e-01 -8.936745e-13
    outer loop
      vertex -1.600000e+01 -2.165062e+00 1.500000e+01
      vertex -1.548223e+01 -1.767769e+00 5.000000e+00
      vertex -1.548223e+01 -1.767769e+00 1.500000e+01
    endloop
  endfacet
  facet normal 7.933533e-01 -6.087614e-01 -7.305466e-13
    outer loop
      vertex -1.548223e+01 -1.767769e+00 1.500000e+01
      vertex -1.508494e+01 -1.250000e+00 5.000000e+00
      vertex -1.508494e+01 -1.250000e+00 1.500000e+01
    endloop
  endfacet
  facet normal 7.933533e-01 -6.087614e-01 -7.305466e-13
    outer loop
      vertex -1.508494e+01 -1.250000e+00 5.000000e+00
      vertex -1.548223e+01 -1.767769e+00 1.500000e+01
      vertex -1.548223e+01 -1.767769e+00 5.000000e+00
    endloop
  endfacet
  facet normal 9.238795e-01 -3.826834e-01 -5.176332e-13
    outer loop
      vertex -1.508494e+01 -1.250000e+00 1.500000e+01
      vertex -1.483519e+01 -6.470490e-01 5.000000e+00
      vertex -1.483519e+01 -6.470490e-01 1.500000e+01
    endloop
  endfacet
  facet normal 9.238795e-01 -3.826834e-01 -5.176332e-13
    outer loop
      vertex -1.483519e+01 -6.470490e-01 5.000000e+00
      vertex -1.508494e+01 -1.250000e+00 1.500000e+01
      vertex -1.508494e+01 -1.250000e+00 5.000000e+00
    endloop
  endfacet
  facet normal 9.914449e-01 -1.305262e-01 -2.694440e-13
    outer loop
      vertex -1.483519e+01 -6.470490e-01 1.500000e+01
      vertex -1.475000e+01 0.000000e+00 5.000000e+00
      vertex -1.475000e+01 0.000000e+00 1.500000e+01
    endloop
  endfacet
  facet normal 9.914449e-01 -1.305262e-01 -2.694440e-13
    outer loop
      vertex -1.475000e+01 0.000000e+00 5.000000e+00
      vertex -1.483519e+01 -6.470490e-01 1.500000e+01
      vertex -1.483519e+01 -6.470490e-01 5.000000e+00
    endloop
  endfacet
  facet normal 9.914449e-01 1.305262e-01 -2.892545e-15
    outer loop
      vertex -1.475000e+01 0.000000e+00 1.500000e+01
      vertex -1.483519e+01 6.470490e-01 5.000000e+00
      vertex -1.483519e+01 6.470490e-01 1.500000e+01
    endloop
  endfacet
  facet normal 9.914449e-01 1.305262e-01 -2.892545e-15
    outer loop
      vertex -1.483519e+01 6.470490e-01 5.000000e+00
      vertex -1.475000e+01 0.000000e+00 1.500000e+01
      vertex -1.475000e+01 0.000000e+00 5.000000e+00
    endloop
  endfacet
  facet normal 9.238795e-01 3.826834e-01 2.638560e-13
    outer loop
      vertex -1.483519e+01 6.470490e-01 1.500000e+01
      vertex -1.508494e+01 1.250000e+00 5.000000e+00
      vertex -1.508494e+01 1.250000e+00 1.500000e+01
    endloop
  endfacet
  facet normal 9.238795e-01 3.826834e-01 2.638560e-13
    outer loop
      vertex -1.508494e+01 1.250000e+00 5.000000e+00
      vertex -1.483519e+01 6.470490e-01 1.500000e+01
      vertex -1.483519e+01 6.470490e-01 5.000000e+00
    endloop
  endfacet
  facet normal 7.933533e-01 6.087614e-01 5.126231e-13
    outer loop
      vertex -1.508494e+01 1.250000e+00 1.500000e+01
      vertex -1.548223e+01 1.767769e+00 5.000000e+00
      vertex -1.548223e+01 1.767769e+00 1.500000e+01
    endloop
  endfacet
  facet normal 7.933533e-01 6.087614e-01 5.126231e-13
    outer loop
      vertex -1.548223e+01 1.767769e+00 5.000000e+00
      vertex -1.508494e+01 1.250000e+00 1.500000e+01
      vertex -1.508494e+01 1.250000e+00 5.000000e+00
    endloop
  endfacet
  facet normal 6.087614e-01 7.933533e-01 7.264559e-13
    outer loop
      vertex -1.600000e+01 2.165062e+00 1.500000e+01
      vertex -1.548223e+01 1.767769e+00 5.000000e+00
      vertex -1.600000e+01 2.165062e+00 5.000000e+00
    endloop
  endfacet
  facet normal 6.087614e-01 7.933533e-01 7.264559e-13
    outer loop
      vertex -1.548223e+01 1.767769e+00 5.000000e+00
      vertex -1.600000e+01 2.165062e+00 1.500000e+01
      vertex -1.548223e+01 1.767769e+00 1.500000e+01
    endloop
  endfacet
  facet normal 3.826834e-01 9.238795e-01 8.907819e-13
    outer loop
      vertex -1.660295e+01 2.414818e+00 1.500000e+01
      vertex -1.600000e+01 2.165062e+00 5.000000e+00
      vertex -1.660295e+01 2.414818e+00 5.000000e+00
    endloop
  endfacet
  facet normal 3.826834e-01 9.238795e-01 8.907819e-13
    outer loop
      vertex -1.600000e+01 2.165062e+00 5.000000e+00
      vertex -1.660295e+01 2.414818e+00 1.500000e+01
      vertex -1.600000e+01 2.165062e+00 1.500000e+01
    endloop
  endfacet
  facet normal 1.305262e-01 9.914449e-01 9.944026e-13
    outer loop
      vertex -1.725000e+01 2.500000e+00 1.500000e+01
      vertex -1.660295e+01 2.414818e+00 5.000000e+00
      vertex -1.725000e+01 2.500000e+00 5.000000e+00
    endloop
  endfacet
  facet normal 1.305262e-01 9.914449e-01 9.944026e-13
    outer loop
      vertex -1.660295e+01 2.414818e+00 5.000000e+00
      vertex -1.725000e+01 2.500000e+00 1.500000e+01
      vertex -1.660295e+01 2.414818e+00 1.500000e+01
    endloop
  endfacet
endsolid Default
